<svg width="135" height="24" viewBox="0 0 135 24" fill="none" xmlns="http://www.w3.org/2000/svg">
<path opacity="0.8" d="M36.4182 3.52936V9.5899H40.7073V3.52936H46.0168V20.4688H40.7073V13.3692H36.4114V20.4688H33.5012L30.2366 11.837L33.5012 3.52936H36.4182ZM53.3762 3.52936V20.4678H48.175V3.52936H53.3762Z" fill="#4424A7" style="fill:#4424A7;fill:color(display-p3 0.2667 0.1412 0.6549);fill-opacity:1;"/>
<path opacity="0.95" d="M23.3184 10.1808L26.124 3.52942H31.3438L27.5215 11.837L31.3018 20.4698H26.124L23.2803 13.3722L20.2031 20.4689H14.9229L19.0869 11.837L15.2549 3.52942H20.5039L23.3184 10.1808ZM5.32129 14.1759C5.3213 14.5135 5.35154 14.8513 5.42383 15.1818C5.71475 16.5187 6.38391 16.7675 7.53418 16.757H7.87207C9.39368 16.6924 9.71571 15.2753 9.71484 14.2316L9.72363 3.52942H12.6426L16.6826 11.837L12.5859 20.2179C12.5638 20.2204 10.7246 20.4297 7.80566 20.4552C7.24618 20.4605 7.10414 20.4792 6.45996 20.4659C3.32143 20.4032 0.773065 19.6474 0.162109 15.6261C0.0827801 15.1038 0.0496206 14.5745 0.0478516 14.046L0 3.52942H5.31641L5.32129 14.1759Z" fill="#2E1B7E" style="fill:#2E1B7E;fill:color(display-p3 0.1804 0.1059 0.4941);fill-opacity:1;"/>
<path d="M60.7338 21.144C59.6938 21.144 58.7338 20.96 57.8538 20.592C56.9738 20.224 56.2698 19.624 55.7418 18.792C55.2298 17.96 54.9738 16.856 54.9738 15.48V9.12C54.9738 7.744 55.2298 6.64 55.7418 5.808C56.2698 4.976 56.9738 4.376 57.8538 4.008C58.7338 3.64 59.6938 3.456 60.7338 3.456C61.8858 3.456 62.9098 3.648 63.8058 4.032C64.7178 4.4 65.4378 4.936 65.9658 5.64C66.4938 6.344 66.7578 7.208 66.7578 8.232C66.7578 8.952 66.6058 9.432 66.3018 9.672C65.9978 9.896 65.5258 10.008 64.8858 10.008C64.3898 10.008 63.9578 9.928 63.5898 9.768C63.2378 9.608 63.0458 9.312 63.0138 8.88C63.0138 8.72 62.9898 8.52 62.9418 8.28C62.9098 8.04 62.8298 7.8 62.7018 7.56C62.5738 7.32 62.3658 7.12 62.0778 6.96C61.7898 6.8 61.3898 6.72 60.8778 6.72C60.1898 6.72 59.6538 6.92 59.2698 7.32C58.9018 7.704 58.7178 8.304 58.7178 9.12V15.48C58.7178 16.296 58.9098 16.904 59.2938 17.304C59.6778 17.688 60.2138 17.88 60.9018 17.88C61.3818 17.88 61.7578 17.8 62.0298 17.64C62.3178 17.48 62.5258 17.28 62.6538 17.04C62.7818 16.784 62.8698 16.52 62.9178 16.248C62.9658 15.976 62.9978 15.72 63.0138 15.48C63.0458 15.032 63.2378 14.736 63.5898 14.592C63.9578 14.432 64.3818 14.352 64.8618 14.352C65.5178 14.352 65.9978 14.472 66.3018 14.712C66.6058 14.936 66.7578 15.408 66.7578 16.128C66.7578 17.184 66.4938 18.088 65.9658 18.84C65.4378 19.592 64.7178 20.168 63.8058 20.568C62.9098 20.952 61.8858 21.144 60.7338 21.144ZM74.3303 21.144C73.2263 21.144 72.2263 20.96 71.3303 20.592C70.4503 20.224 69.7463 19.624 69.2183 18.792C68.7063 17.96 68.4503 16.856 68.4503 15.48V9.12C68.4503 7.744 68.7063 6.64 69.2183 5.808C69.7463 4.976 70.4503 4.376 71.3303 4.008C72.2263 3.64 73.2263 3.456 74.3303 3.456C75.4343 3.456 76.4343 3.64 77.3303 4.008C78.2263 4.376 78.9303 4.976 79.4423 5.808C79.9703 6.64 80.2343 7.744 80.2343 9.12V15.48C80.2343 16.856 79.9703 17.96 79.4423 18.792C78.9303 19.624 78.2263 20.224 77.3303 20.592C76.4343 20.96 75.4343 21.144 74.3303 21.144ZM74.3303 17.88C75.0023 17.88 75.5303 17.688 75.9143 17.304C76.2983 16.92 76.4903 16.312 76.4903 15.48V9.12C76.4903 8.288 76.2983 7.68 75.9143 7.296C75.5303 6.912 75.0023 6.72 74.3303 6.72C73.6583 6.72 73.1303 6.912 72.7463 7.296C72.3783 7.68 72.1943 8.288 72.1943 9.12V15.48C72.1943 16.312 72.3783 16.92 72.7463 17.304C73.1303 17.688 73.6583 17.88 74.3303 17.88ZM84.5065 21C84.0425 21 83.6105 20.904 83.2105 20.712C82.8265 20.52 82.6345 20.232 82.6345 19.848V4.608C82.6345 4.208 82.8265 3.92 83.2105 3.744C83.6105 3.552 84.0425 3.456 84.5065 3.456C84.9545 3.456 85.3225 3.496 85.6105 3.576C85.9145 3.64 86.1865 3.8 86.4265 4.056C86.6825 4.312 86.9625 4.736 87.2665 5.328L91.1545 12.744V4.584C91.1545 4.184 91.3465 3.896 91.7305 3.72C92.1305 3.544 92.5625 3.456 93.0265 3.456C93.4905 3.456 93.9145 3.544 94.2985 3.72C94.6985 3.896 94.8985 4.184 94.8985 4.584V19.848C94.8985 20.232 94.6985 20.52 94.2985 20.712C93.9145 20.904 93.4905 21 93.0265 21C92.5945 21 92.1945 20.936 91.8265 20.808C91.4585 20.68 91.1625 20.408 90.9385 19.992L86.3785 11.688V19.848C86.3785 20.232 86.1785 20.52 85.7785 20.712C85.3945 20.904 84.9705 21 84.5065 21ZM99.3659 21C98.9019 21 98.4699 20.904 98.0699 20.712C97.6859 20.52 97.4939 20.232 97.4939 19.848V4.608C97.4939 4.224 97.6619 3.936 97.9979 3.744C98.3499 3.552 98.7259 3.456 99.1259 3.456H107.454C107.854 3.456 108.142 3.632 108.318 3.984C108.494 4.32 108.582 4.68 108.582 5.064C108.582 5.512 108.486 5.904 108.294 6.24C108.102 6.56 107.822 6.72 107.454 6.72H101.238V10.776H104.862C105.23 10.776 105.51 10.928 105.702 11.232C105.894 11.52 105.99 11.856 105.99 12.24C105.99 12.56 105.902 12.88 105.726 13.2C105.55 13.504 105.262 13.656 104.862 13.656H101.238V19.848C101.238 20.232 101.038 20.52 100.638 20.712C100.254 20.904 99.8299 21 99.3659 21ZM110.733 21C110.397 21 110.037 20.896 109.653 20.688C109.285 20.48 109.101 20.2 109.101 19.848V17.52C109.101 16.896 109.277 16.312 109.629 15.768C109.997 15.208 110.469 14.688 111.045 14.208C111.621 13.712 112.229 13.232 112.869 12.768C113.525 12.304 114.133 11.848 114.693 11.4C115.269 10.936 115.741 10.472 116.109 10.008C116.477 9.544 116.661 9.056 116.661 8.544C116.661 8.288 116.597 8.032 116.469 7.776C116.357 7.504 116.165 7.28 115.893 7.104C115.637 6.928 115.285 6.84 114.837 6.84C114.357 6.84 113.933 6.976 113.565 7.248C113.213 7.52 113.037 7.984 113.037 8.64C113.037 8.992 112.861 9.312 112.509 9.6C112.157 9.872 111.677 10.008 111.069 10.008C110.589 10.008 110.189 9.872 109.869 9.6C109.549 9.328 109.389 8.816 109.389 8.064C109.389 7.088 109.645 6.256 110.157 5.568C110.685 4.88 111.365 4.36 112.197 4.008C113.029 3.64 113.901 3.456 114.813 3.456C115.741 3.456 116.629 3.648 117.477 4.032C118.341 4.416 119.045 4.976 119.589 5.712C120.133 6.448 120.405 7.352 120.405 8.424C120.405 9.288 120.221 10.064 119.853 10.752C119.501 11.44 119.045 12.064 118.485 12.624C117.925 13.168 117.325 13.664 116.685 14.112C116.061 14.56 115.469 14.976 114.909 15.36C114.349 15.728 113.885 16.088 113.517 16.44C113.165 16.792 112.989 17.152 112.989 17.52V17.736H119.277C119.581 17.736 119.845 17.896 120.069 18.216C120.293 18.536 120.405 18.912 120.405 19.344C120.405 19.776 120.293 20.16 120.069 20.496C119.845 20.832 119.581 21 119.277 21H110.733ZM127.788 21.144C126.684 21.144 125.684 20.96 124.788 20.592C123.908 20.224 123.204 19.624 122.676 18.792C122.148 17.96 121.884 16.856 121.884 15.48V9.12C121.884 7.744 122.156 6.64 122.7 5.808C123.244 4.976 123.972 4.376 124.884 4.008C125.812 3.64 126.852 3.456 128.004 3.456C129.012 3.456 129.876 3.6 130.596 3.888C131.316 4.16 131.9 4.52 132.348 4.968C132.812 5.416 133.148 5.904 133.356 6.432C133.564 6.96 133.668 7.472 133.668 7.968C133.668 8.544 133.524 8.944 133.236 9.168C132.964 9.376 132.524 9.48 131.916 9.48C131.404 9.48 130.948 9.392 130.548 9.216C130.164 9.024 129.972 8.656 129.972 8.112C129.972 7.808 129.876 7.552 129.684 7.344C129.492 7.136 129.236 6.984 128.916 6.888C128.612 6.776 128.268 6.72 127.884 6.72C127.18 6.72 126.628 6.912 126.228 7.296C125.828 7.68 125.628 8.288 125.628 9.12V11.28C126.012 10.864 126.46 10.584 126.972 10.44C127.5 10.296 128.052 10.224 128.628 10.224C129.54 10.224 130.372 10.376 131.124 10.68C131.892 10.984 132.508 11.504 132.972 12.24C133.436 12.976 133.668 13.984 133.668 15.264V15.48C133.668 16.856 133.404 17.96 132.876 18.792C132.364 19.624 131.66 20.224 130.764 20.592C129.884 20.96 128.892 21.144 127.788 21.144ZM127.788 18.12C128.46 18.12 128.98 17.936 129.348 17.568C129.732 17.184 129.924 16.576 129.924 15.744V15.528C129.924 14.648 129.732 14.024 129.348 13.656C128.98 13.288 128.452 13.104 127.764 13.104C127.124 13.104 126.604 13.272 126.204 13.608C125.82 13.944 125.628 14.512 125.628 15.312V15.744C125.628 16.576 125.82 17.184 126.204 17.568C126.588 17.936 127.116 18.12 127.788 18.12Z" fill="black" style="fill:black;fill-opacity:1;"/>
</svg>
