<svg width="96" height="96" viewBox="0 0 96 96" fill="none" xmlns="http://www.w3.org/2000/svg">
<path d="M6.50898 62.8647C6.24643 62.1913 6.1232 61.5233 6.13931 60.8606C6.15542 60.1979 6.36617 59.5906 6.77158 59.0387C7.18102 58.4972 7.83121 58.0527 8.72215 57.7053L12.8401 56.0997C13.7311 55.7523 14.5105 55.6393 15.1785 55.7608C15.8505 55.8926 16.4167 56.197 16.8771 56.6738C17.3376 57.1507 17.6991 57.7258 17.9616 58.3992C18.2525 59.1451 18.3867 59.8566 18.3642 60.5337C18.3562 61.2171 18.1909 61.8186 17.8684 62.3382C17.5459 62.8578 17.0531 63.2469 16.3901 63.5054C15.9239 63.6872 15.5747 63.7099 15.3426 63.5737C15.1208 63.4334 14.9291 63.1561 14.7675 62.7417C14.6423 62.4205 14.5851 62.1206 14.5957 61.8419C14.6105 61.5736 14.7537 61.3746 15.0253 61.2448C15.1289 61.2044 15.2523 61.1384 15.3956 61.0467C15.5429 60.9654 15.6781 60.853 15.8012 60.7096C15.9243 60.5661 16.0013 60.3809 16.0322 60.1541C16.063 59.9272 16.0139 59.648 15.8846 59.3165C15.7109 58.871 15.4461 58.5745 15.0902 58.4268C14.7486 58.2855 14.3137 58.3178 13.7853 58.5238L9.66735 60.1295C9.13901 60.3355 8.79381 60.6133 8.63177 60.9629C8.48008 61.3085 8.49108 61.704 8.66477 62.1495C8.78595 62.4603 8.93268 62.6835 9.10494 62.8192C9.28125 62.9653 9.46326 63.0495 9.65097 63.0718C9.84904 63.09 10.0422 63.0804 10.2304 63.0428C10.4187 63.0052 10.5925 62.9613 10.7519 62.911C11.0501 62.8187 11.2902 62.8683 11.4723 63.0598C11.6688 63.2577 11.8276 63.512 11.9488 63.8228C12.1144 64.2476 12.1579 64.5887 12.0793 64.8461C12.011 65.0995 11.7437 65.317 11.2776 65.4988C10.5938 65.7654 9.94185 65.8227 9.32165 65.6707C8.70144 65.5187 8.14672 65.1979 7.65749 64.7084C7.18265 64.2252 6.79982 63.6106 6.50898 62.8647ZM12.0734 73.4922C11.6108 72.8801 11.2938 72.2486 11.1224 71.5976C10.9577 70.9555 10.9954 70.3138 11.2354 69.6724C11.4822 69.0399 11.987 68.4354 12.7499 67.8589L16.2761 65.1939C17.039 64.6174 17.7583 64.2967 18.4342 64.2319C19.1167 64.1761 19.7443 64.315 20.3171 64.6487C20.8966 64.9912 21.4176 65.4686 21.8802 66.0807C22.3428 66.6928 22.6598 67.3243 22.8312 67.9753C23.0026 68.6262 22.9649 69.268 22.7182 69.9004C22.4781 70.5418 21.9766 71.1508 21.2138 71.7273L17.6876 74.3923C16.9247 74.9688 16.202 75.2851 15.5194 75.3409C14.8436 75.4057 14.216 75.2668 13.6365 74.9242C13.057 74.5816 12.536 74.1043 12.0734 73.4922ZM13.8831 72.1245C14.1647 72.4971 14.4923 72.7094 14.8661 72.7614C15.24 72.8134 15.6575 72.6651 16.1188 72.3165L19.645 69.6515C20.1062 69.3029 20.3629 68.9417 20.4149 68.5679C20.4669 68.1941 20.3521 67.8209 20.0705 67.4483C19.7889 67.0758 19.4613 66.8635 19.0874 66.8115C18.7204 66.7683 18.3062 66.9211 17.8449 67.2697L14.3187 69.9346C13.8574 70.2833 13.5974 70.64 13.5387 71.005C13.4867 71.3788 13.6015 71.752 13.8831 72.1245ZM18.4433 80.7255C18.1842 80.5335 17.9828 80.3011 17.8389 80.0284C17.704 79.7623 17.716 79.522 17.8749 79.3076L24.1821 70.7993C24.3476 70.576 24.574 70.4946 24.8613 70.5553C25.164 70.6136 25.4449 70.7388 25.704 70.9309C25.9541 71.1163 26.143 71.2909 26.2707 71.4548C26.4139 71.6163 26.4996 71.8182 26.5276 72.0604C26.5646 72.3093 26.5454 72.6619 26.4701 73.1182L25.5716 78.8676L28.9487 74.3119C29.1142 74.0886 29.3406 74.0073 29.6278 74.068C29.924 74.1352 30.2016 74.2649 30.4606 74.4569C30.7197 74.649 30.92 74.8736 31.0615 75.1307C31.212 75.3945 31.2045 75.6381 31.0389 75.8614L24.7218 84.3832C24.5629 84.5976 24.332 84.6756 24.0293 84.6172C23.7354 84.5655 23.459 84.4436 23.1999 84.2516C22.9587 84.0728 22.7619 83.8715 22.6094 83.6478C22.457 83.424 22.4043 83.1496 22.4514 82.8247L23.3422 76.3015L19.9652 80.8571C19.8062 81.0715 19.5754 81.1495 19.2726 81.0912C18.9788 81.0394 18.7023 80.9176 18.4433 80.7255ZM29.1349 87.9095C28.8335 87.7947 28.5767 87.6255 28.3644 87.4019C28.1625 87.1822 28.109 86.9477 28.204 86.6983L31.9734 76.8006C32.0684 76.5512 32.2487 76.4057 32.5145 76.3641C32.7906 76.3265 33.0585 76.3572 33.3183 76.4561L38.7269 78.5159C38.9867 78.6148 39.1302 78.8004 39.1575 79.0725C39.1887 79.3343 39.1568 79.5898 39.0618 79.8392C38.951 80.1302 38.7917 80.361 38.5839 80.5318C38.38 80.6921 38.1586 80.7268 37.9196 80.6357L33.8826 79.0983L32.8794 81.7325L35.233 82.6288C35.472 82.7198 35.6163 82.8878 35.6658 83.1327C35.7193 83.3673 35.6985 83.6092 35.6035 83.8586C35.5244 84.0664 35.3881 84.2525 35.1946 84.4168C35.0051 84.5707 34.7805 84.5982 34.5207 84.4993L32.1671 83.6029L30.6356 87.6243C30.5406 87.8737 30.3395 88.0113 30.0322 88.0371C29.7353 88.0668 29.4362 88.0243 29.1349 87.9095ZM39.5872 91.3327C39.3108 91.3036 39.0579 91.2099 38.8286 91.0515C38.6104 90.8944 38.5152 90.6831 38.5432 90.4177L39.6533 79.8849C39.6813 79.6195 39.8184 79.4327 40.0646 79.3244C40.3219 79.2174 40.5887 79.1784 40.8652 79.2076L46.7702 79.8299C47.0467 79.8591 47.2329 80.0017 47.3289 80.2578C47.426 80.5028 47.4606 80.758 47.4327 81.0234C47.4 81.3331 47.3051 81.597 47.148 81.8152C46.9919 82.0224 46.7868 82.1126 46.5324 82.0858L42.0871 81.6173L41.7916 84.4205L44.2797 84.6827C44.534 84.7095 44.7165 84.835 44.827 85.0591C44.9388 85.2721 44.9806 85.5113 44.9527 85.7767C44.9293 85.9979 44.8452 86.2126 44.7003 86.4209C44.5565 86.6182 44.3464 86.7023 44.0699 86.6732L41.5819 86.4109L41.2847 89.2307L45.73 89.6993C45.9843 89.7261 46.1656 89.8626 46.2738 90.1088C46.3832 90.3439 46.4216 90.6163 46.389 90.9259C46.361 91.1913 46.2734 91.4393 46.1261 91.6697C45.98 91.8891 45.7687 91.9843 45.4922 91.9551L39.5872 91.3327ZM56.7598 91.1811C56.5952 91.2082 56.4307 91.2015 56.2663 91.161C56.111 91.1077 55.975 91.0005 55.8583 90.8394L52.8823 86.8333L51.7962 87.0123L52.4497 90.9785C52.4931 91.2418 52.3885 91.4619 52.1359 91.6387C51.8943 91.8138 51.6144 91.9275 51.2962 91.9799C50.9781 92.0324 50.671 92.0153 50.375 91.9289C50.09 91.8406 49.9258 91.6648 49.8824 91.4015L48.1577 80.9348C48.1233 80.7264 48.1648 80.5336 48.2821 80.3565C48.3995 80.1794 48.5788 80.0709 48.8202 80.0312L52.2268 79.4698C52.9838 79.3451 53.6821 79.3427 54.3217 79.4627C54.9704 79.5699 55.5183 79.8515 55.9654 80.3075C56.4106 80.7525 56.7073 81.4249 56.8556 82.3245C56.9568 82.9389 56.9567 83.4855 56.8553 83.9642C56.763 84.4302 56.5868 84.8311 56.3266 85.167C56.0774 85.5011 55.7734 85.7766 55.4148 85.9934L58.0218 89.2996C58.062 89.3381 58.092 89.3838 58.1121 89.4369C58.1321 89.4899 58.1457 89.5384 58.1529 89.5823C58.1873 89.7907 58.1393 90.0127 58.0091 90.2483C57.8789 90.4839 57.6985 90.6883 57.4678 90.8615C57.2481 91.033 57.0121 91.1395 56.7598 91.1811ZM51.4707 85.0375L53.1 84.769C53.5608 84.6931 53.9048 84.5237 54.1319 84.2609C54.3573 83.9871 54.4229 83.5649 54.3289 82.9944C54.2331 82.4129 54.0355 82.0342 53.736 81.8581C53.4365 81.6821 53.0564 81.632 52.5956 81.708L50.9663 81.9764L51.4707 85.0375ZM63.1695 89.4646C62.9177 89.5824 62.6528 89.6328 62.3746 89.6156C62.1066 89.5937 61.916 89.4619 61.8029 89.2202L57.3135 79.6276C57.2004 79.3859 57.2213 79.1552 57.3762 78.9353C57.5412 78.7108 57.7496 78.5396 58.0014 78.4218L63.3793 75.9049C63.631 75.787 63.8642 75.813 64.0786 75.9827C64.2884 76.1423 64.4498 76.343 64.563 76.5847C64.6949 76.8667 64.75 77.1417 64.7281 77.4098C64.7015 77.6678 64.5724 77.8509 64.3408 77.9593L60.2922 79.8541L61.4871 82.4071L63.753 81.3466C63.9847 81.2382 64.2057 81.2514 64.4161 81.3862C64.6218 81.5109 64.7812 81.6941 64.8943 81.9358C64.9886 82.1372 65.0274 82.3646 65.0109 82.6178C64.9897 82.861 64.8532 83.0415 64.6014 83.1594L62.3355 84.2199L63.5373 86.788L67.5859 84.8932C67.8175 84.7848 68.0432 84.8081 68.2631 84.963C68.4782 85.1079 68.6517 85.3213 68.7837 85.6033C68.8968 85.845 68.9498 86.1025 68.9427 86.3759C68.9309 86.6393 68.7992 86.8299 68.5474 86.9477L63.1695 89.4646ZM73.5185 83.9568C73.2749 84.1681 73.0044 84.3145 72.707 84.3958C72.418 84.4699 72.186 84.4062 72.0112 84.2046L65.071 76.2041C64.8888 75.9941 64.8585 75.7555 64.9799 75.4883C65.1025 75.2053 65.2855 74.9582 65.5291 74.7469C65.7643 74.5429 65.9757 74.3963 66.1633 74.3071C66.3521 74.2023 66.5677 74.1624 66.8103 74.1875C67.0613 74.2053 67.4013 74.3004 67.8305 74.4727L73.2487 76.5953L69.5328 72.3116C69.3506 72.1016 69.3202 71.863 69.4417 71.5957C69.5715 71.3212 69.7582 71.0783 70.0018 70.867C70.2454 70.6557 70.508 70.5088 70.7898 70.4263C71.0799 70.3365 71.3161 70.3966 71.4982 70.6066L78.4493 78.6197C78.6242 78.8212 78.6503 79.0635 78.5278 79.3465C78.4136 79.6221 78.2348 79.8656 77.9912 80.0769C77.7644 80.2736 77.5253 80.4222 77.2738 80.5226C77.0223 80.623 76.7431 80.615 76.436 80.4986L70.2606 78.2159L73.9766 82.4996C74.1515 82.7012 74.1776 82.9434 74.0551 83.2264C73.9409 83.5021 73.7621 83.7455 73.5185 83.9568ZM84.3161 72.9687C83.9227 73.575 83.4522 74.065 82.9048 74.4388C82.3573 74.8126 81.7412 74.996 81.0564 74.989C80.3777 74.9727 79.6373 74.7043 78.8351 74.1837L75.1275 71.7776C74.3254 71.257 73.7787 70.6901 73.4873 70.0769C73.2021 69.4543 73.1187 68.8169 73.2371 68.1647C73.3554 67.5124 73.6114 66.8832 74.0048 66.2769C74.4407 65.6054 74.94 65.0811 75.5028 64.704C76.0624 64.3116 76.6473 64.0946 77.2574 64.0532C77.8676 64.0117 78.4711 64.1847 79.0681 64.5721C79.4878 64.8445 79.7101 65.1147 79.735 65.3827C79.7506 65.6447 79.6373 65.9622 79.3952 66.3353C79.2075 66.6244 78.9974 66.846 78.7649 67C78.5385 67.1447 78.2933 67.1446 78.0294 66.9998C77.9361 66.9393 77.8104 66.8776 77.6524 66.8148C77.5003 66.7427 77.3302 66.6985 77.1418 66.6823C76.9535 66.6661 76.7582 66.7117 76.556 66.8191C76.3538 66.9264 76.1558 67.1294 75.9621 67.4278C75.7018 67.8289 75.6156 68.217 75.7035 68.5922C75.7881 68.952 76.0683 69.2863 76.544 69.595L80.2516 72.0011C80.7273 72.3099 81.1544 72.428 81.5328 72.3554C81.9019 72.2769 82.2167 72.037 82.4769 71.636C82.6585 71.3561 82.7542 71.1067 82.7638 70.8876C82.7795 70.6592 82.7416 70.4622 82.6501 70.2968C82.5493 70.1254 82.4287 69.9742 82.2883 69.8433C82.1479 69.7124 82.0107 69.5969 81.8769 69.4968C81.6278 69.3086 81.5279 69.0847 81.5771 68.825C81.6231 68.55 81.7368 68.2725 81.9184 67.9927C82.1666 67.6103 82.4182 67.3759 82.6731 67.2895C82.9187 67.197 83.2513 67.2869 83.6711 67.5593C84.2867 67.9589 84.7138 68.4548 84.9524 69.0471C85.191 69.6394 85.2544 70.277 85.1426 70.96C85.0275 71.6276 84.752 72.2972 84.3161 72.9687ZM88.8387 64.9329C88.7468 65.1953 88.5974 65.4198 88.3906 65.6065C88.1874 65.7827 87.9599 65.8267 87.7081 65.7385L77.713 62.2353C77.4612 62.1471 77.3109 61.9707 77.2622 61.7062C77.2172 61.4312 77.2407 61.1625 77.3326 60.9002L79.2966 55.2967C79.3885 55.0344 79.5701 54.8859 79.8414 54.8514C80.1023 54.8132 80.3586 54.8382 80.6104 54.9265C80.9043 55.0295 81.1393 55.1826 81.3155 55.3857C81.4812 55.5852 81.5218 55.8056 81.4372 56.047L79.9588 60.2653L82.6189 61.1977L83.4464 58.8366C83.531 58.5953 83.695 58.4466 83.9385 58.3905C84.1715 58.3308 84.414 58.3451 84.6658 58.4334C84.8757 58.5069 85.0653 58.6382 85.2347 58.8272C85.3936 59.0125 85.4271 59.2363 85.3352 59.4986L84.5077 61.8597L87.1835 62.7975L88.662 58.5791C88.7466 58.3378 88.9211 58.1928 89.1856 58.1441C89.4396 58.0917 89.7135 58.117 90.0074 58.22C90.2592 58.3083 90.4803 58.4506 90.6707 58.6469C90.8506 58.8396 90.8946 59.0671 90.8027 59.3294L88.8387 64.9329Z" fill="black" style="fill:black;fill-opacity:1;"/>
<path d="M72.5942 32.9745C72.0423 33.1129 71.559 33.4511 71.1626 33.9712L59.8575 48.2058L58.4031 50.1183C57.1626 51.7254 55.4471 52.5076 53.6966 52.266C53.204 52.1981 52.7112 52.0508 52.2316 51.8278C51.0017 51.2551 50.1213 50.3061 49.6837 49.0823L49.5391 48.6761L49.1214 48.7826C48.4919 48.943 47.8477 48.9801 47.2068 48.8916C46.6822 48.8193 46.159 48.6622 45.6505 48.4259C44.4618 47.8719 43.5706 47.0278 43.0737 45.9842L42.8876 45.5947L42.4828 45.7432C41.7495 46.0133 40.988 46.0958 40.2171 45.9894C39.7227 45.9212 39.2316 45.7751 38.7564 45.5537C37.4284 44.9348 36.5235 43.8993 36.1385 42.5578L35.9901 42.0381L35.4947 42.2543C35.2137 42.377 34.9613 42.4485 34.7219 42.4724C34.4484 42.5009 34.1729 42.4955 33.9019 42.4581C33.5394 42.4081 33.1721 42.2977 32.8117 42.1304C32.2831 41.884 31.8138 41.5459 31.4185 41.1247C31.0013 40.6799 30.6289 40.2003 30.3182 39.7068C30.0006 39.1759 29.7278 38.6709 29.5093 38.206C29.1092 37.3596 28.7188 36.592 28.3477 35.9278C27.9529 35.2119 27.4709 34.5669 26.9153 34.0088C26.3547 33.4472 25.6311 32.9574 24.7658 32.5544C24.1048 32.2468 23.4605 32.0478 22.8508 31.9636C22.4049 31.9021 21.9684 31.9007 21.5633 31.9567C20.4822 32.0763 19.7467 32.5383 19.3794 33.3273C19.2207 33.6665 19.07 34.3324 19.865 34.9944C20.4617 35.4368 21.1177 36.0106 21.8198 36.7037C22.5146 37.3752 23.2009 38.1491 23.861 39.0043C24.5211 39.8595 25.1135 40.7725 25.6224 41.7225C26.1899 42.7693 26.6975 44.0065 27.1297 45.3975C27.5684 46.809 27.9521 48.3015 28.2723 49.8356C28.5441 51.1112 28.8586 52.402 29.208 53.6771C29.5672 54.9479 30.0376 56.2182 30.6028 57.4503C31.1595 58.6896 31.9 59.9021 32.8016 61.049C33.6979 62.2139 34.8282 63.3336 36.1621 64.3769C37.4936 65.4171 39.1263 66.3907 41.0157 67.269C42.6901 68.0486 44.3499 68.5557 45.9503 68.7765C47.2495 68.9557 48.5424 68.9503 49.7898 68.7614C52.5582 68.3466 55.1548 67.0208 57.509 64.821C59.8432 62.6315 61.9414 59.5548 63.7473 55.6764C64.0904 54.941 64.3918 54.1905 64.6429 53.4452C64.8865 52.7212 65.1641 51.9674 65.477 51.1737C65.7639 50.3988 66.1535 49.5634 66.6332 48.6901C67.1205 47.8019 67.7918 46.8179 68.6314 45.7638L74.9727 37.7054C75.6486 36.8498 75.934 35.9851 75.8207 35.1429C75.7136 34.2492 75.1891 33.5602 74.3063 33.1491C74.0408 33.0248 73.7748 32.9442 73.5157 32.9085C73.1934 32.864 72.8757 32.8883 72.5942 32.9745ZM58.6687 37.9767C58.0379 38.1258 57.5328 38.5002 57.1741 39.0786L52.6236 46.0051C52.2084 46.6541 52.0795 47.2978 52.2389 47.9075C52.3826 48.5291 52.7874 49.0104 53.4098 49.3006C53.6254 49.4013 53.844 49.4669 54.0573 49.4963C54.8383 49.6041 55.5526 49.2483 56.1818 48.4338L61.1881 41.8482C61.6909 41.2132 61.8633 40.5121 61.7033 39.7716C61.5502 39.0078 61.1137 38.4391 60.443 38.1273C60.1967 38.0122 59.9439 37.9372 59.6912 37.9023C59.347 37.8548 58.9952 37.8819 58.6687 37.9767ZM50.9361 33.3178C50.2062 33.5838 49.6517 34.1137 49.2897 34.8913L45.7771 42.4369C45.4155 43.2117 45.3186 43.9 45.4873 44.483C45.663 45.0894 46.1141 45.5659 46.8269 45.8975C47.0784 46.0153 47.3319 46.0913 47.581 46.1257C47.949 46.1764 48.3136 46.1372 48.6752 46.0051C49.2334 45.7864 49.7169 45.339 50.1105 44.6768L54.3274 37.6194C54.7893 36.8136 54.9167 36.0055 54.707 35.2264C54.4995 34.4038 53.9915 33.7991 53.1954 33.429C52.8974 33.2899 52.5955 33.1988 52.298 33.1577C51.8347 33.0938 51.3737 33.1487 50.9361 33.3178ZM41.8941 30.542C41.2187 30.8995 40.7931 31.4826 40.6307 32.2673L38.8101 40.3504C38.4603 41.9656 39.2281 42.6967 39.9329 43.0253C40.1528 43.1284 40.3749 43.1955 40.5928 43.2255C40.9929 43.2807 41.3829 43.2132 41.7412 43.0304C42.3213 42.7549 42.7317 42.2415 42.9617 41.5007L45.3295 33.5771C45.5444 32.9191 45.5058 32.2924 45.2248 31.7321C44.966 31.1534 44.5403 30.7224 43.9582 30.4518C43.7452 30.3524 43.5257 30.2867 43.3069 30.2565C42.8335 30.1912 42.3564 30.2886 41.8941 30.542Z" fill="#FFCC40" style="fill:#FFCC40;fill:color(display-p3 1.0000 0.8000 0.2510);fill-opacity:1;"/>
<path d="M78.5523 34.3859C78.3821 33.5655 78.0333 32.8211 77.5143 32.1674C76.9845 31.4893 76.2923 30.9488 75.455 30.5586C74.8964 30.2991 74.334 30.1293 73.7847 30.0532C73.162 29.9674 72.5345 29.9996 71.9176 30.1488C70.7266 30.4171 69.743 31.061 68.9008 32.1206L64.1102 38.0523L63.8254 37.5987C63.3175 36.7265 62.5556 36.0347 61.6195 35.5986C61.1241 35.3684 60.6068 35.2142 60.0814 35.1421C59.4121 35.0503 58.7321 35.0884 58.0604 35.2572L57.5765 35.3791L57.4809 34.8884C57.4487 34.7157 57.4302 34.6191 57.4053 34.5225C56.9902 32.905 55.9138 31.6191 54.3726 30.901C53.8179 30.6425 53.2453 30.4708 52.6721 30.3918C51.7548 30.2649 50.8406 30.3723 49.9535 30.7079C49.5218 30.8688 49.1013 31.0903 48.7008 31.3693L48.1847 31.7293L47.9823 31.1332C47.9135 30.9303 47.8364 30.7293 47.7415 30.5323C47.2018 29.3664 46.3013 28.4669 45.1347 27.9234C44.663 27.7039 44.1727 27.5586 43.6783 27.4903C42.631 27.3459 41.5554 27.5527 40.569 28.0883C39.1861 28.8288 38.2407 30.101 37.9061 31.6747L37.2875 34.4259L35.8949 37.4143C35.5922 38.066 35.2978 38.5421 34.9958 38.8709C34.6017 39.2875 34.2222 39.3323 33.9724 39.2972C33.869 39.2836 33.7651 39.2523 33.6651 39.2055C33.3792 39.0728 33.1251 38.826 32.8895 38.4514C32.6817 38.1109 32.4387 37.625 32.1431 36.9606C31.6029 35.7186 31.0368 34.6494 30.458 33.7781C29.8885 32.9215 29.2636 32.2054 28.6014 31.6484C27.9216 31.063 27.1494 30.5684 26.2982 30.1723C25.2918 29.703 24.2991 29.3986 23.3496 29.2679C22.9972 29.2191 22.6433 29.1937 22.2974 29.1918C21.0203 29.1771 19.8747 29.4483 18.8888 29.9986C17.9176 30.5391 17.1752 31.3508 16.682 32.4103C16.3093 33.2103 16.2322 34.0064 16.4464 34.8416C16.6532 35.6611 17.1239 36.3469 17.8854 36.9401C18.9825 37.7948 20.0006 38.7733 20.913 39.8475C21.8306 40.9265 22.6006 42.0748 23.2021 43.2582C23.7835 44.387 24.2613 45.5695 24.6208 46.7705C24.9826 47.9422 25.2945 49.191 25.545 50.4798C25.7913 51.749 26.0996 53.0866 26.4611 54.4554C26.8182 55.8164 27.3216 57.2135 27.9567 58.6086C28.5748 59.9969 29.4036 61.3823 30.4197 62.7326C31.4202 64.076 32.6973 65.3745 34.2168 66.595C35.7241 67.8097 37.5907 68.9394 39.7676 69.9521C41.7532 70.877 43.7218 71.479 45.6198 71.7404C47.0774 71.9414 48.5291 71.9473 49.9369 71.758C53.1506 71.3287 56.1828 69.8624 58.9502 67.3999C59.0787 67.2848 59.1975 67.1375 59.3248 67.0175L60.3863 69.876C60.6419 70.5365 61.0858 71.077 61.6653 71.4341C62.1795 71.7541 62.7639 71.9229 63.3551 71.9229C63.9161 71.9229 64.4741 71.7726 64.9629 71.4917C65.5785 71.1404 66.0449 70.597 66.3122 69.919L67.7191 66.4506L71.1591 65.0555C71.8537 64.7882 72.4088 64.315 72.7552 63.7013C73.041 63.2057 73.1913 62.6467 73.1913 62.0867C73.1913 61.4994 73.0245 60.9189 72.7035 60.3959C72.3396 59.8125 71.8001 59.3696 71.1152 59.1072L66.0961 57.2447C66.1561 57.1188 66.2225 57.0105 66.2817 56.8837C66.6464 56.1003 66.9703 55.3432 67.2449 54.6349C67.5195 53.8827 67.8098 53.1383 68.1122 52.4086C68.4254 51.6534 68.8083 50.8729 69.2505 50.0876C69.6761 49.2954 70.2327 48.4544 70.9003 47.5978L77.3616 39.2855C77.9562 38.5323 78.3504 37.7235 78.5367 36.8796C78.7228 36.0318 78.7284 35.1928 78.5523 34.3859ZM57.1741 39.0787C57.5329 38.5001 58.038 38.1255 58.6687 37.9772C58.9953 37.8816 59.347 37.8543 59.6912 37.9021C59.9439 37.9372 60.1965 38.0123 60.4429 38.1274C61.1136 38.4396 61.5502 39.0075 61.7034 39.7714C61.8634 40.5119 61.6909 41.2133 61.1883 41.8485L56.1819 48.4339C55.5526 49.2485 54.8384 49.6037 54.0575 49.4963C53.844 49.4671 53.6253 49.4017 53.4096 49.3002C52.7874 49.0105 52.3828 48.5295 52.2389 47.907C52.0794 47.2983 52.2087 46.6544 52.6238 46.0046L57.1741 39.0787ZM49.2896 34.8913C49.6516 34.1138 50.2062 33.584 50.936 33.3176C51.3738 33.1489 51.8348 33.0942 52.2979 33.1576C52.5955 33.1986 52.8974 33.2903 53.1955 33.4289C53.9916 33.7996 54.4994 34.4035 54.707 35.226C54.9167 36.0055 54.7894 36.8133 54.3275 37.6191L50.1106 44.6768C49.7169 45.3392 49.2335 45.7861 48.6752 46.0046C48.3137 46.1373 47.9491 46.1763 47.5811 46.1256C47.332 46.0914 47.0784 46.0153 46.8269 45.8973C46.1142 45.5656 45.663 45.0895 45.4874 44.4826C45.3188 43.9002 45.4154 43.2114 45.7771 42.4368L49.2896 34.8913ZM38.81 40.3499L40.6307 32.2669C40.7932 31.4825 41.2188 30.8991 41.8942 30.542C42.3564 30.2883 42.8335 30.1908 43.3069 30.2562C43.5257 30.2864 43.7452 30.3527 43.9583 30.4513C44.5403 30.7225 44.9662 31.1537 45.2249 31.7323C45.5057 32.2923 45.5445 32.9196 45.3296 33.5772L42.9617 41.5011C42.7317 42.2416 42.3213 42.7548 41.7412 43.0299C41.3829 43.2133 40.9929 43.2807 40.5929 43.226C40.3749 43.1958 40.1529 43.1285 39.9329 43.0251C39.2281 42.6963 38.4602 41.9655 38.81 40.3499ZM74.9728 37.705L68.6315 45.7636C67.7917 46.8183 67.1205 47.8017 66.6332 48.6895C66.1537 49.5637 65.7639 50.3988 65.4771 51.1734C65.1641 51.9676 64.8866 52.7208 64.6429 53.4447C64.3917 54.19 64.0905 54.9413 63.7473 55.6769C63.6514 55.8827 63.5458 56.0603 63.4483 56.2622L60.6312 55.2164C59.9795 54.9442 59.2819 54.8944 58.6087 55.0778C58.0682 55.2271 57.5736 55.5139 57.1755 55.912C56.7785 56.3101 56.4907 56.8086 56.3492 57.3345C56.1628 58.0028 56.2097 58.7042 56.4477 59.2681L58.2268 64.0604C57.9865 64.3101 57.7546 64.5901 57.5092 64.8214C55.155 67.0204 52.5584 68.3463 49.7899 68.7619C48.5423 68.9502 47.2496 68.956 45.9503 68.7765C44.3501 68.556 42.69 68.0487 41.0159 67.2692C39.1263 66.3911 37.4936 65.4175 36.1622 64.3774C34.8283 63.3335 33.698 62.2135 32.8017 61.0486C31.9002 59.9023 31.1597 58.6896 30.6029 57.4506C30.0377 56.2183 29.5672 54.9481 29.208 53.6769C28.8587 52.4017 28.5441 51.111 28.2723 49.8358C27.9523 48.3012 27.5684 46.8085 27.1299 45.3978C26.6974 44.0065 26.1899 42.7694 25.6226 41.7226C25.1135 40.7723 24.5211 39.8592 23.8611 39.0045C23.2011 38.1489 22.5147 37.3752 21.8198 36.704C21.1176 36.0104 20.4618 35.4367 19.8649 34.9947C19.0701 34.3323 19.2206 33.6669 19.3796 33.3274C19.7469 32.5381 20.4823 32.0767 21.5633 31.9567C21.9684 31.901 22.405 31.902 22.8508 31.9635C23.4606 32.0474 24.105 32.2464 24.766 32.5547C25.6311 32.9576 26.3548 33.4474 26.9153 34.0084C27.4709 34.5664 27.9528 35.2123 28.3477 35.9274C28.7187 36.5918 29.1094 37.3596 29.5094 38.2055C29.728 38.6709 30.0006 39.1762 30.3182 39.707C30.6289 40.2006 31.0011 40.6797 31.4187 41.1245C31.8138 41.546 32.2831 41.8836 32.8119 42.1304C33.1721 42.2972 33.5395 42.4085 33.9021 42.4582C34.1729 42.4953 34.4485 42.5011 34.7219 42.4729C34.9612 42.4485 35.2139 42.3772 35.4948 42.2543L35.99 42.0377L36.1388 42.5577C36.5236 43.8992 37.4285 44.9343 38.7563 45.5539C39.2315 45.7753 39.7227 45.9207 40.2171 45.989C40.9881 46.0963 41.7495 46.0134 42.4827 45.7431L42.8876 45.5948L43.0737 45.9841C43.5705 47.028 44.4618 47.8719 45.6506 48.4261C46.1591 48.6622 46.6823 48.8193 47.2067 48.8914C47.8476 48.9802 48.492 48.9432 49.1213 48.7822L49.5394 48.6758L49.6838 49.0817C50.1213 50.3061 51.0018 51.2554 52.2316 51.8281C52.7111 52.0505 53.204 52.1978 53.6965 52.2661C55.4472 52.5081 57.1626 51.7256 58.4034 50.1178L59.8575 48.2056L71.1625 33.9713C71.5591 33.4513 72.0425 33.1128 72.5942 32.9742C72.8757 32.8884 73.1935 32.864 73.5157 32.9089C73.7747 32.944 74.0408 33.025 74.3064 33.1489C75.1894 33.5606 75.7138 34.2494 75.8206 35.143C75.9342 35.985 75.6486 36.8494 74.9728 37.705Z" fill="#231769" style="fill:#231769;fill:color(display-p3 0.1373 0.0902 0.4118);fill-opacity:1;"/>
<path d="M63.992 68.9951C63.9346 69.1444 63.8456 69.2536 63.725 69.3225C63.6044 69.3914 63.4809 69.4258 63.3546 69.4258C63.2282 69.4258 63.1047 69.3885 62.9841 69.3139C62.8635 69.2392 62.7745 69.1272 62.7171 68.9779L58.7889 58.3995C58.7315 58.2617 58.72 58.1296 58.7545 58.0032C58.7889 57.8769 58.8521 57.7678 58.944 57.6759C59.0359 57.584 59.145 57.5208 59.2713 57.4864C59.3977 57.4519 59.5298 57.4634 59.6676 57.5208L70.246 61.449C70.3953 61.5064 70.5073 61.5954 70.582 61.716C70.6566 61.8366 70.694 61.9601 70.694 62.0864C70.694 62.2128 70.6595 62.3362 70.5906 62.4568C70.5217 62.5774 70.4126 62.6665 70.2633 62.7239L65.801 64.5329L63.992 68.9951Z" fill="white" style="fill:white;fill-opacity:1;"/>
<path opacity="0.8" d="M56.1309 10.7665V15.5399H59.5098V10.7665H63.6914V24.1083H59.5098V18.5165H56.126V24.1083H53.834L51.2627 17.3094L53.834 10.7665H56.1309ZM69.4883 10.7665V24.1073H65.3916V10.7665H69.4883Z" fill="#4424A7" style="fill:#4424A7;fill:color(display-p3 0.2667 0.1412 0.6549);fill-opacity:1;"/>
<path opacity="0.95" d="M45.8141 16.0058L48.024 10.7665H52.1354L49.1246 17.3095L52.1012 24.1093H48.024L45.7838 18.5195L43.36 24.1083H39.2018L42.4811 17.3095L39.4625 10.7665H43.5973L45.8141 16.0058ZM31.6393 19.1523C31.6393 19.418 31.6634 19.6841 31.7203 19.9443C31.9495 20.9972 32.4764 21.1938 33.3824 21.1855H33.6481C34.8466 21.1347 35.0999 20.0174 35.0992 19.1953L35.1061 10.7665H37.4059L40.5875 17.3095L37.361 23.9101C37.361 23.9101 35.9091 24.0774 33.5963 24.0976C33.1554 24.1018 33.0434 24.1168 32.5358 24.1064C30.0638 24.057 28.057 23.4612 27.5758 20.2939C27.5134 19.8827 27.4874 19.4658 27.486 19.0497L27.4479 10.7665H31.6354L31.6393 19.1523Z" fill="#231769" style="fill:#231769;fill:color(display-p3 0.1373 0.0902 0.4118);fill-opacity:1;"/>
<path d="M5.45705 50.0296C5.34363 50.0296 5.22021 49.9929 5.08678 49.9195C4.95335 49.8395 4.88663 49.7361 4.88663 49.6093V48.6386C4.88663 48.3784 4.96335 48.1349 5.1168 47.908C5.27025 47.6745 5.47039 47.4544 5.71724 47.2475C5.96409 47.0407 6.22429 46.8406 6.49782 46.6471C6.77136 46.4536 7.02821 46.2568 7.26839 46.0567C7.51524 45.8565 7.71539 45.653 7.86883 45.4462C8.02895 45.2394 8.10901 45.0192 8.10901 44.7857C8.10901 44.6456 8.07565 44.5089 8.00894 44.3754C7.94889 44.2353 7.84882 44.1219 7.70872 44.0352C7.57528 43.9418 7.39849 43.8951 7.17832 43.8951C6.93815 43.8951 6.72799 43.9651 6.54786 44.1052C6.3744 44.2387 6.28767 44.4622 6.28767 44.7757C6.28767 44.8958 6.22762 45.0059 6.10753 45.106C5.98744 45.206 5.82065 45.2561 5.60716 45.2561C5.4337 45.2561 5.2936 45.206 5.18685 45.106C5.08011 45.0059 5.02673 44.8224 5.02673 44.5556C5.02673 44.1753 5.12681 43.8484 5.32696 43.5748C5.5271 43.2946 5.79063 43.0811 6.11754 42.9344C6.45112 42.7876 6.80471 42.7142 7.17832 42.7142C7.56528 42.7142 7.92888 42.7976 8.26913 42.9644C8.60938 43.1245 8.88292 43.3547 9.08974 43.6549C9.30323 43.9551 9.40997 44.3187 9.40997 44.7457C9.40997 45.0993 9.33325 45.4195 9.1798 45.7064C9.02636 45.9933 8.82954 46.2535 8.58937 46.487C8.34919 46.7205 8.09233 46.934 7.8188 47.1275C7.55193 47.3143 7.29841 47.4911 7.05823 47.6578C6.81806 47.818 6.62125 47.9781 6.4678 48.1382C6.31435 48.2983 6.23763 48.4651 6.23763 48.6386V48.8888H9.01968C9.1331 48.8888 9.22984 48.9455 9.3099 49.0589C9.38996 49.1656 9.42999 49.2957 9.42999 49.4492C9.42999 49.6026 9.38996 49.7394 9.3099 49.8595C9.22984 49.9729 9.1331 50.0296 9.01968 50.0296H5.45705ZM12.4711 50.0896C12.0307 50.0896 11.6338 50.0163 11.2802 49.8695C10.9266 49.716 10.6464 49.4725 10.4396 49.1389C10.2327 48.7987 10.1293 48.3484 10.1293 47.7879V45.0159C10.1293 44.4555 10.2327 44.0085 10.4396 43.6749C10.6464 43.3347 10.9266 43.0911 11.2802 42.9444C11.6338 42.7909 12.0307 42.7142 12.4711 42.7142C12.9114 42.7142 13.3084 42.7909 13.6619 42.9444C14.0222 43.0911 14.3058 43.3347 14.5126 43.6749C14.7194 44.0085 14.8228 44.4555 14.8228 45.0159V47.7879C14.8228 48.3484 14.7194 48.7987 14.5126 49.1389C14.3058 49.4725 14.0222 49.716 13.6619 49.8695C13.3084 50.0163 12.9114 50.0896 12.4711 50.0896ZM12.4711 48.9488C12.798 48.9488 13.0548 48.8554 13.2416 48.6686C13.4284 48.4818 13.5218 48.1882 13.5218 47.7879V45.0159C13.5218 44.6156 13.4284 44.322 13.2416 44.1352C13.0548 43.9484 12.798 43.855 12.4711 43.855C12.1442 43.855 11.8873 43.9484 11.7005 44.1352C11.5204 44.322 11.4303 44.6156 11.4303 45.0159V47.7879C11.4303 48.1882 11.5204 48.4818 11.7005 48.6686C11.8873 48.8554 12.1442 48.9488 12.4711 48.9488ZM12.4711 46.8773C12.331 46.8773 12.2175 46.8339 12.1308 46.7472C12.0508 46.6538 12.0107 46.5404 12.0107 46.4069C12.0107 46.2668 12.0508 46.1567 12.1308 46.0767C12.2175 45.9899 12.331 45.9466 12.4711 45.9466C12.6178 45.9466 12.7313 45.9899 12.8113 46.0767C12.898 46.1567 12.9414 46.2668 12.9414 46.4069C12.9414 46.5404 12.898 46.6538 12.8113 46.7472C12.7313 46.8339 12.6178 46.8773 12.4711 46.8773Z" fill="black" style="fill:black;fill-opacity:1;"/>
<path d="M81.1174 50.0296C81.0039 50.0296 80.8805 49.9929 80.7471 49.9195C80.6137 49.8395 80.5469 49.7361 80.5469 49.6093V48.6386C80.5469 48.3784 80.6237 48.1349 80.7771 47.908C80.9306 47.6745 81.1307 47.4544 81.3776 47.2475C81.6244 47.0407 81.8846 46.8406 82.1581 46.6471C82.4317 46.4536 82.6885 46.2568 82.9287 46.0567C83.1756 45.8565 83.3757 45.653 83.5291 45.4462C83.6893 45.2394 83.7693 45.0192 83.7693 44.7857C83.7693 44.6456 83.736 44.5089 83.6693 44.3754C83.6092 44.2353 83.5091 44.1219 83.369 44.0352C83.2356 43.9418 83.0588 43.8951 82.8386 43.8951C82.5985 43.8951 82.3883 43.9651 82.2082 44.1052C82.0347 44.2387 81.948 44.4622 81.948 44.7757C81.948 44.8958 81.8879 45.0059 81.7678 45.106C81.6478 45.206 81.481 45.2561 81.2675 45.2561C81.094 45.2561 80.9539 45.206 80.8472 45.106C80.7404 45.0059 80.687 44.8224 80.687 44.5556C80.687 44.1753 80.7871 43.8484 80.9873 43.5748C81.1874 43.2946 81.4509 43.0811 81.7779 42.9344C82.1114 42.7876 82.465 42.7142 82.8386 42.7142C83.2256 42.7142 83.5892 42.7976 83.9294 42.9644C84.2697 43.1245 84.5432 43.3547 84.7501 43.6549C84.9635 43.9551 85.0703 44.3187 85.0703 44.7457C85.0703 45.0993 84.9936 45.4195 84.8401 45.7064C84.6867 45.9933 84.4899 46.2535 84.2497 46.487C84.0095 46.7205 83.7526 46.934 83.4791 47.1275C83.2122 47.3143 82.9587 47.4911 82.7185 47.6578C82.4784 47.818 82.2816 47.9781 82.1281 48.1382C81.9747 48.2983 81.8979 48.4651 81.8979 48.6386V48.8888H84.68C84.7934 48.8888 84.8902 48.9455 84.9702 49.0589C85.0503 49.1656 85.0903 49.2957 85.0903 49.4492C85.0903 49.6026 85.0503 49.7394 84.9702 49.8595C84.8902 49.9729 84.7934 50.0296 84.68 50.0296H81.1174ZM88.1414 50.0896C87.7011 50.0896 87.3041 50.0163 86.9505 49.8695C86.5969 49.716 86.3134 49.4725 86.0999 49.1389C85.8931 48.7987 85.7896 48.3484 85.7896 47.7879V45.0159C85.7896 44.4555 85.8964 44.0085 86.1099 43.6749C86.3234 43.3347 86.6103 43.0911 86.9705 42.9444C87.3375 42.7909 87.7511 42.7142 88.2114 42.7142C88.6051 42.7142 88.9453 42.7709 89.2322 42.8843C89.5191 42.9911 89.7559 43.1345 89.9427 43.3146C90.1295 43.4948 90.2663 43.6949 90.353 43.9151C90.4398 44.1286 90.4831 44.3387 90.4831 44.5455C90.4831 44.7457 90.4331 44.8858 90.333 44.9659C90.2329 45.0459 90.0795 45.0859 89.8727 45.0859C89.6992 45.0859 89.5424 45.0526 89.4023 44.9859C89.2689 44.9192 89.2022 44.7891 89.2022 44.5956C89.2022 44.4421 89.1521 44.312 89.0521 44.2053C88.9587 44.0919 88.8352 44.0051 88.6818 43.9451C88.5283 43.8851 88.3582 43.855 88.1714 43.855C87.8312 43.855 87.5643 43.9484 87.3708 44.1352C87.184 44.322 87.0906 44.6156 87.0906 45.0159V46.0967C87.2507 45.9032 87.4442 45.7698 87.671 45.6964C87.9045 45.623 88.1514 45.5863 88.4116 45.5863C88.7919 45.5863 89.1355 45.6497 89.4423 45.7765C89.7559 45.9032 90.0061 46.1167 90.1929 46.4169C90.3864 46.7172 90.4831 47.1308 90.4831 47.6578V47.7879C90.4831 48.3484 90.3797 48.7987 90.1729 49.1389C89.9661 49.4725 89.6859 49.716 89.3323 49.8695C88.9787 50.0163 88.5817 50.0896 88.1414 50.0896ZM88.1414 49.0189C88.4683 49.0189 88.7218 48.9288 88.9019 48.7487C89.0888 48.5685 89.1822 48.2783 89.1822 47.878V47.7479C89.1822 47.3343 89.0888 47.0407 88.9019 46.8673C88.7218 46.6938 88.465 46.6071 88.1314 46.6071C87.8178 46.6071 87.5643 46.6871 87.3708 46.8472C87.184 47.0074 87.0906 47.2776 87.0906 47.6578V47.878C87.0906 48.2783 87.184 48.5685 87.3708 48.7487C87.5576 48.9288 87.8145 49.0189 88.1414 49.0189Z" fill="black" style="fill:black;fill-opacity:1;"/>
</svg>
