<?xml version="1.0" encoding="UTF-8"?>
<svg id="Layer_2" data-name="Layer 2" xmlns="http://www.w3.org/2000/svg" viewBox="0 0 1107.7434229 1107.7323">
  <defs>
    <style>
      .cls-1 {
        fill: #0a66c2;
      }

      .cls-2 {
        fill: #fff;
      }
    </style>
  </defs>
  <g id="Layer_1-2" data-name="Layer 1">
    <g>
      <path class="cls-1" d="M1107.7434229,310.2115v487.3094c0,171.321-138.8904,310.2114-310.2114,310.2114H270.4575229C121.0846229,1107.7323,0,986.6478,0,837.2859V310.2115C0,138.8904,138.8905229,0,310.2115229,0h487.3205c171.321,0,310.2114,138.8904,310.2114,310.2115Z"/>
      <g>
        <path class="cls-2" d="M261.8646229,452.6355h125.279v402.6591h-125.279v-402.6591ZM324.5322229,252.4377c40.0633,0,72.5297,32.5226,72.5297,72.5328,0,40.0956-32.4664,72.6078-72.5297,72.6078-40.1943,0-72.5974-32.5122-72.5974-72.6078,0-40.0102,32.4031-72.5328,72.5974-72.5328"/>
        <path class="cls-2" d="M465.6795229,452.6355h119.9715v55.0147h1.6978c16.699-31.6639,57.5399-65.0432,118.4317-65.0432,126.6129,0,150.0281,83.3651,150.0281,191.8244v220.8632h-125.0087v-195.7907c0-46.7078-.9128-106.7939-65.0639-106.7939-65.1264,0-75.0562,50.8664-75.0562,103.3983v199.1863h-125.0003v-402.6591Z"/>
      </g>
    </g>
  </g>
</svg>