<svg width="128" height="128" viewBox="0 0 128 128" fill="none" xmlns="http://www.w3.org/2000/svg">
<g clip-path="url(#clip0_81_344)">
<path d="M63.3036 0.348175C45.8228 0.348175 31.6518 14.5192 31.6518 32V0.348175C14.171 0.348175 0 14.5192 0 32C0 49.4808 14.171 63.6518 31.6518 63.6518C49.1326 63.6518 63.3036 49.4808 63.3036 32V0.348175Z" fill="#08C0D7" style="fill:#08C0D7;fill:color(display-p3 0.0314 0.7529 0.8431);fill-opacity:1;"/>
<path d="M127.304 0C109.631 0 95.3037 14.3269 95.3037 31.9999V0H63.3037C63.3037 17.6731 77.6306 31.9999 95.3037 31.9999V64H127.304C127.304 46.327 112.977 31.9999 95.3037 31.9999L127.304 32V0Z" fill="#FFCC40" style="fill:#FFCC40;fill:color(display-p3 1.0000 0.8000 0.2510);fill-opacity:1;"/>
<path d="M63.3037 64C80.9768 64 95.3037 49.6731 95.3037 32H63.3037V64Z" fill="#FFCC40" style="fill:#FFCC40;fill:color(display-p3 1.0000 0.8000 0.2510);fill-opacity:1;"/>
<path d="M64 128C46.3269 128 32 113.673 32 96C32 113.673 17.6731 128 3.6169e-05 128L0 80C-1.18519e-07 71.1634 7.16342 64 16 64C24.8365 64 32 71.1634 32 80C32 71.1634 39.1634 64 48 64C56.8365 64 64 71.1634 64 80V128Z" fill="#4424A6" style="fill:#4424A6;fill:color(display-p3 0.2667 0.1412 0.6510);fill-opacity:1;"/>
<path d="M96 91.9891C103.734 91.9891 110.004 85.7233 110.004 77.9946C110.004 70.2658 103.734 64 96 64C88.2661 64 81.9959 70.2658 81.9959 77.9946C81.9959 85.7233 88.2661 91.9891 96 91.9891ZM96 92C78.3268 92 64 106.327 64 124V128H72C85.2548 128 96 117.255 96 104C96 117.255 106.745 128 120 128H128V124C128 106.327 113.673 92 96 92Z" fill="#FF9066" style="fill:#FF9066;fill:color(display-p3 1.0000 0.5647 0.4000);fill-opacity:1;"/>
</g>
<defs>
<clipPath id="clip0_81_344">
<rect width="128" height="128" fill="white" style="fill:white;fill-opacity:1;"/>
</clipPath>
</defs>
</svg>
