<svg width="128" height="128" viewBox="0 0 128 128" fill="none" xmlns="http://www.w3.org/2000/svg">
<g clip-path="url(#clip0_81_468)">
<path d="M32.0001 32C32.0001 14.327 17.6731 0 0 0V32C0 49.673 14.327 64 32.0001 64C49.673 64 64 49.673 64 32V0C46.3269 0 32.0001 14.327 32.0001 32Z" fill="#FF9066" style="fill:#FF9066;fill:color(display-p3 1.0000 0.5647 0.4000);fill-opacity:1;"/>
<path d="M128 16.8299V0H111.17C104.475 0 98.711 3.91888 96 9.57832C93.289 3.91888 87.5246 0 80.8299 0H64V16.8299C64 23.5246 67.9185 29.2895 73.5779 32.0004C67.9185 34.7114 64 40.4754 64 47.1701V64.0008H80.8299C87.5246 64.0008 93.289 60.0819 96 54.4225C98.711 60.0819 104.475 64.0008 111.17 64.0008H128V47.1701C128 40.4754 124.082 34.7114 118.422 32.0004C124.082 29.2895 128 23.5246 128 16.8299ZM96 39.9184C94.3421 36.4568 91.5432 33.6583 88.082 32.0004C91.5432 30.3425 94.3421 27.5432 96 24.0824C97.6579 27.5432 100.457 30.3425 103.918 32.0004C100.457 33.6583 97.6579 36.4568 96 39.9184Z" fill="#09C0D7" style="fill:#09C0D7;fill:color(display-p3 0.0353 0.7529 0.8431);fill-opacity:1;"/>
<g clip-path="url(#clip1_81_468)">
<path d="M0 64.0009H6.4C20.529 64.0009 32 75.4718 32 89.6009V128.001C14.3387 128.001 0 113.663 0 96.0013V64.0009Z" fill="#FFCC40" style="fill:#FFCC40;fill:color(display-p3 1.0000 0.8000 0.2510);fill-opacity:1;"/>
<path d="M32 64.0009C49.6613 64.0009 64 78.3396 64 96.0008V128.001H57.6C43.471 128.001 32 116.53 32 102.401V64.0009Z" fill="#FFCC40" style="fill:#FFCC40;fill:color(display-p3 1.0000 0.8000 0.2510);fill-opacity:1;"/>
</g>
<path d="M128 96.0009C128 113.674 113.673 128.001 96 128.001H64V96.0009C64 78.3277 78.3269 64.0009 96 64.0009H128V96.0009ZM113.809 73.6005C111.273 73.6005 109.217 75.7131 109.217 78.3182C109.217 80.9231 111.273 83.035 113.809 83.035C116.344 83.0348 118.4 80.923 118.4 78.3182C118.4 75.7133 116.344 73.6007 113.809 73.6005Z" fill="#4424A7" style="fill:#4424A7;fill:color(display-p3 0.2667 0.1412 0.6549);fill-opacity:1;"/>
</g>
<defs>
<clipPath id="clip0_81_468">
<rect width="128" height="128.001" fill="white" style="fill:white;fill-opacity:1;"/>
</clipPath>
<clipPath id="clip1_81_468">
<rect width="64" height="64.0004" fill="white" style="fill:white;fill-opacity:1;" transform="translate(0 64.0009)"/>
</clipPath>
</defs>
</svg>
