<svg xmlns="http://www.w3.org/2000/svg" width="32" height="32" fill="none"><path fill="#F4C34A" d="M28.876 7.838c-.283.07-.53.244-.734.511l-5.802 7.306-.747.981c-.636.825-1.517 1.226-2.415 1.102a2.643 2.643 0 0 1-.752-.224c-.631-.294-1.083-.781-1.308-1.41l-.074-.208-.214.055a2.548 2.548 0 0 1-.983.056 2.812 2.812 0 0 1-.798-.24c-.61-.284-1.068-.717-1.323-1.252l-.095-.2-.208.076a2.4 2.4 0 0 1-1.163.126 2.624 2.624 0 0 1-.75-.223c-.681-.318-1.146-.85-1.343-1.538l-.076-.267-.255.111c-.144.063-.273.1-.396.112-.14.015-.282.012-.421-.007a1.973 1.973 0 0 1-.56-.168 2.32 2.32 0 0 1-.715-.517 4.842 4.842 0 0 1-.564-.727 8.88 8.88 0 0 1-.415-.77 19.618 19.618 0 0 0-.597-1.17 4.414 4.414 0 0 0-.735-.985 3.836 3.836 0 0 0-1.103-.746c-.34-.158-.67-.26-.983-.303a2.426 2.426 0 0 0-.66-.004c-.555.062-.933.299-1.121.704-.082.174-.159.516.249.855.306.227.643.522 1.003.878.357.344.709.741 1.048 1.18.339.44.643.908.904 1.395.291.537.552 1.172.773 1.886.226.725.422 1.49.587 2.278.14.655.3 1.317.48 1.972.184.652.426 1.304.716 1.936a8.915 8.915 0 0 0 1.128 1.847 9.734 9.734 0 0 0 1.725 1.708c.683.534 1.521 1.033 2.49 1.484.86.4 1.712.66 2.533.774.667.092 1.33.089 1.97-.008 1.422-.213 2.754-.893 3.962-2.022 1.198-1.124 2.275-2.703 3.202-4.693.176-.378.33-.763.46-1.146.125-.371.267-.758.428-1.165a9.62 9.62 0 0 1 .593-1.275c.25-.456.595-.96 1.026-1.502l3.254-4.135c.347-.44.493-.883.435-1.315-.055-.46-.324-.813-.777-1.024a1.415 1.415 0 0 0-.406-.123 1.108 1.108 0 0 0-.473.034zm-7.146 2.567a1.212 1.212 0 0 0-.767.565l-2.336 3.555c-.213.333-.279.664-.197.976.073.32.281.567.6.716.111.051.223.085.333.1.4.055.767-.127 1.09-.545l2.57-3.38c.258-.326.346-.686.264-1.066a1.136 1.136 0 0 0-.647-.844 1.268 1.268 0 0 0-.91-.077zm-3.97-2.391c-.374.136-.659.408-.845.807l-1.803 3.873c-.185.398-.235.75-.148 1.05.09.311.322.556.687.726.13.06.26.1.387.117.19.026.376.006.562-.062.286-.112.534-.342.736-.681l2.165-3.622c.237-.414.302-.829.194-1.229a1.343 1.343 0 0 0-.775-.922 1.614 1.614 0 0 0-.46-.14 1.394 1.394 0 0 0-.7.083zm-4.64-1.425c-.347.184-.565.483-.649.886l-.934 4.148c-.18.83.214 1.204.576 1.373.113.053.227.087.339.103a.984.984 0 0 0 .59-.1c.297-.142.508-.405.626-.786l1.215-4.066c.11-.338.09-.66-.054-.947a1.286 1.286 0 0 0-.984-.757 1.159 1.159 0 0 0-.725.146z"/><path fill="#231769" d="M31.934 8.562a2.69 2.69 0 0 0-.533-1.139 2.846 2.846 0 0 0-1.056-.825 3.027 3.027 0 0 0-.858-.26 2.566 2.566 0 0 0-.958.05c-.611.137-1.116.468-1.548 1.011l-2.459 3.045-.146-.233a2.542 2.542 0 0 0-1.132-1.027 2.722 2.722 0 0 0-1.826-.175l-.249.063-.049-.252a2.788 2.788 0 0 0-1.595-2.046 3.056 3.056 0 0 0-.873-.262c-.47-.065-.94-.01-1.395.162a2.895 2.895 0 0 0-.643.34l-.265.184-.104-.305a2.717 2.717 0 0 0-.123-.309 2.72 2.72 0 0 0-1.338-1.339 2.623 2.623 0 0 0-.748-.222 2.59 2.59 0 0 0-1.595.307 2.68 2.68 0 0 0-1.367 1.84l-.317 1.412-.715 1.534c-.156.335-.307.579-.462.748-.202.213-.397.236-.525.218a.544.544 0 0 1-.158-.047c-.146-.068-.277-.194-.398-.387a6.99 6.99 0 0 1-.383-.765 10.665 10.665 0 0 0-.865-1.633A5.137 5.137 0 0 0 6.3 7.157a5.106 5.106 0 0 0-1.182-.758 5.323 5.323 0 0 0-1.514-.464 4.123 4.123 0 0 0-.54-.039c-.655-.007-1.243.132-1.749.414-.498.278-.88.694-1.133 1.238a1.8 1.8 0 0 0-.12 1.248c.106.42.347.772.738 1.077.563.438 1.086.94 1.554 1.492a9.03 9.03 0 0 1 1.175 1.75c.298.58.543 1.187.728 1.803.185.601.345 1.242.474 1.904.126.65.285 1.337.47 2.04.183.698.442 1.415.768 2.131.317.713.742 1.424 1.264 2.117.513.69 1.169 1.356 1.949 1.982.773.623 1.731 1.203 2.848 1.723 1.02.475 2.03.784 3.004.918a8.206 8.206 0 0 0 2.215.009c1.65-.22 3.206-.973 4.626-2.237.066-.059.127-.134.192-.196l.545 1.467a1.642 1.642 0 0 0 2.349.83c.316-.181.555-.46.692-.808l.722-1.78 1.766-.716c.356-.137.641-.38.82-.695.146-.254.223-.541.223-.829a1.628 1.628 0 0 0-1.066-1.53l-2.576-.955c.031-.064.065-.12.096-.185.187-.402.353-.79.494-1.154.141-.386.29-.768.445-1.143.16-.387.357-.788.584-1.19.219-.407.505-.839.847-1.279l3.316-4.266a2.973 2.973 0 0 0 .611-2.514zM20.963 10.97a1.21 1.21 0 0 1 .767-.565c.167-.05.348-.063.524-.038.13.017.26.056.386.115.344.16.569.452.647.844.082.38-.006.74-.264 1.066l-2.57 3.38c-.323.418-.69.6-1.09.545a1.153 1.153 0 0 1-.332-.1c-.32-.15-.527-.396-.601-.716-.082-.312-.016-.643.197-.976l2.336-3.555zm-4.047-2.149c.186-.399.47-.67.845-.807a1.4 1.4 0 0 1 .7-.082c.152.02.307.068.46.139.408.19.669.5.775.922.108.4.043.815-.194 1.228l-2.165 3.622c-.201.34-.45.57-.736.682a1.15 1.15 0 0 1-.562.062 1.342 1.342 0 0 1-.387-.117c-.365-.17-.597-.415-.687-.726-.087-.3-.037-.653.149-1.05l1.802-3.873zm-5.378 2.802.934-4.149c.084-.402.302-.702.649-.885.237-.13.482-.18.725-.147a1.288 1.288 0 0 1 .984.758c.144.287.164.61.054.947l-1.215 4.066c-.118.38-.33.644-.627.785a.984.984 0 0 1-.59.1 1.177 1.177 0 0 1-.338-.102c-.362-.17-.756-.544-.576-1.373zm18.56-1.358-3.255 4.136a10.87 10.87 0 0 0-1.026 1.502 9.676 9.676 0 0 0-.593 1.274c-.16.408-.303.795-.428 1.166a11.13 11.13 0 0 1-.46 1.146c-.05.105-.103.197-.153.3l-1.446-.537a1.586 1.586 0 0 0-1.038-.07 1.652 1.652 0 0 0-1.16 1.158c-.095.342-.071.702.05.992l.914 2.46c-.123.127-.242.271-.368.39-1.209 1.128-2.541 1.809-3.962 2.022a6.89 6.89 0 0 1-1.97.008c-.822-.113-1.674-.374-2.533-.774-.97-.45-1.808-.95-2.491-1.484a9.738 9.738 0 0 1-1.725-1.708 8.913 8.913 0 0 1-1.128-1.847 13.423 13.423 0 0 1-.716-1.937 35.47 35.47 0 0 1-.48-1.971 24.67 24.67 0 0 0-.587-2.278 10.563 10.563 0 0 0-.773-1.886 10.064 10.064 0 0 0-.904-1.395 10.852 10.852 0 0 0-1.048-1.18 9.564 9.564 0 0 0-1.003-.878c-.408-.34-.33-.681-.25-.855.19-.405.567-.642 1.122-.704.207-.028.432-.028.66.004.313.043.644.145.983.303a3.84 3.84 0 0 1 1.103.746c.285.287.533.618.735.985.19.341.391.735.597 1.17a9 9 0 0 0 .415.77c.16.253.35.499.565.727.202.217.443.39.715.517.184.085.373.142.56.168.138.019.28.022.42.007.123-.012.252-.049.396-.112l.255-.111.076.267c.197.688.662 1.22 1.343 1.537.244.114.496.189.75.224.396.055.787.012 1.163-.126l.207-.076.096.2c.255.535.712.968 1.322 1.252.261.122.53.202.8.24.328.045.659.026.982-.057l.214-.054.074.208a2.448 2.448 0 0 0 1.308 1.41c.246.114.5.19.752.224.898.125 1.779-.277 2.415-1.102l.747-.982 5.802-7.305c.203-.267.451-.44.735-.512.144-.044.307-.056.472-.033.133.018.27.06.406.123.453.211.722.565.777 1.023.059.433-.088.876-.435 1.315z"/><path fill="#fff" d="M24.462 26.324a.315.315 0 0 1-.137.168.357.357 0 0 1-.38-.004.338.338 0 0 1-.138-.173l-2.016-5.429a.307.307 0 0 1-.017-.203.371.371 0 0 1 .265-.266.307.307 0 0 1 .203.018l5.43 2.016c.076.03.133.075.172.137a.357.357 0 0 1 .004.38.315.315 0 0 1-.168.137l-2.29.929-.928 2.29z"/></svg>