<svg width="384" height="384" viewBox="0 0 384 384" fill="none" xmlns="http://www.w3.org/2000/svg">
<g clip-path="url(#clip0_631_2343)">
<path d="M331.6 384H316.81L314.42 382.92L311.45 384H287.2L285.31 382.85L281.92 384H257.71L255.09 383.28L252.4 384H228.19L225.95 382.91L222.9 384H198.68L196.41 382.6L193.37 384H169.16L166.38 382.97L163.85 384H139.65L137.3 382.97L134.33 384H110.12L107.73 382.93L104.82 384H80.61L78.29 382.9L75.3 384H53.39C52.74 384 52.14 383.82 51.62 383.5C50.65 382.91 51.9 381.84 51.9 380.62L50.01 379.78V355.64L51.11 351.93L50.01 350.34V326.13L51.43 322.18L50.01 320.82V296.6L51.34 293.15L50.01 291.3V267.09L51.58 263.44L50.01 261.79V237.58L51.16 234.23L50 232.27V208.07L50.46 204.99L50 202.76V178.58L51.95 174.46L50 173.25V149.04L51.73 145.04L50 143.73V119.52L51.38 116.15L50 114.24V90.0104L51.31 86.4204L50 84.7304V60.4804L51.53 56.3204L50 55.1904V40.3204C50 38.4504 51.52 36.9404 53.38 36.9404H68.29L70.36 38.5504L73.54 36.9404H97.76L99.53 38.2604L103.07 36.9404H127.28L129.69 38.1504L132.58 36.9404H274.85L276.46 38.6704L280.15 36.9404H304.36L306.24 38.1304L309.67 36.9404H331.58C332.24 36.9404 332.85 37.1204 333.37 37.4504C334.33 38.0504 333.35 39.1804 333.35 40.3904L334.96 41.1604V65.3704L333.87 69.2604L334.96 70.6704V94.8204L333.97 98.6904L334.96 100.12V124.34L333.75 127.96L334.96 129.64V153.85L333.07 157.72L334.96 159.16V183.37L333.88 186.97L334.96 188.67V212.88L333.81 216.53L334.96 218.18V242.39L333.54 245.66L334.96 247.7V271.91L333.64 275.2L334.96 277.22V301.43L333.76 304.89L334.96 306.74V330.95L333.93 334.33L334.96 336.26V360.47L333.83 364.11L334.96 365.81V380.64C334.96 382.51 333.45 384.03 331.58 384.03L331.6 384Z" fill="#412BC2" style="fill:#412BC2;fill:color(display-p3 0.2549 0.1686 0.7608);fill-opacity:1;"/>
<path d="M334.98 65.3604V70.6604L50 355.64V350.34L334.98 65.3604Z" fill="#412BC2" style="fill:#412BC2;fill:color(display-p3 0.2549 0.1686 0.7608);fill-opacity:1;"/>
<path d="M334.98 40.3104V41.1404L50 326.13V320.83L333.39 37.4404C334.35 38.0404 334.99 39.1004 334.99 40.3104H334.98Z" fill="#412BC2" style="fill:#412BC2;fill:color(display-p3 0.2549 0.1686 0.7608);fill-opacity:1;"/>
<path d="M309.69 36.9297L50 296.61V291.31L304.38 36.9297H309.69Z" fill="#412BC2" style="fill:#412BC2;fill:color(display-p3 0.2549 0.1686 0.7608);fill-opacity:1;"/>
<path d="M280.17 36.9297L50 267.1V261.8L274.86 36.9297H280.16H280.17Z" fill="#412BC2" style="fill:#412BC2;fill:color(display-p3 0.2549 0.1686 0.7608);fill-opacity:1;"/>
<path d="M250.65 36.9297L50 237.59V232.28L245.35 36.9297H250.65Z" fill="#412BC2" style="fill:#412BC2;fill:color(display-p3 0.2549 0.1686 0.7608);fill-opacity:1;"/>
<path d="M221.13 36.9297L50 208.07V202.77L215.83 36.9297H221.13Z" fill="#412BC2" style="fill:#412BC2;fill:color(display-p3 0.2549 0.1686 0.7608);fill-opacity:1;"/>
<path d="M191.62 36.9297L50 178.55V173.25L186.32 36.9297H191.62Z" fill="#412BC2" style="fill:#412BC2;fill:color(display-p3 0.2549 0.1686 0.7608);fill-opacity:1;"/>
<path d="M162.1 36.9297L50 149.04V143.73L156.81 36.9297H162.1Z" fill="#412BC2" style="fill:#412BC2;fill:color(display-p3 0.2549 0.1686 0.7608);fill-opacity:1;"/>
<path d="M132.59 36.9297L50 119.52V114.22L127.29 36.9297H132.59Z" fill="#412BC2" style="fill:#412BC2;fill:color(display-p3 0.2549 0.1686 0.7608);fill-opacity:1;"/>
<path d="M103.08 36.9297L50 90.0097V84.7097L97.77 36.9397H103.08V36.9297Z" fill="#412BC2" style="fill:#412BC2;fill:color(display-p3 0.2549 0.1686 0.7608);fill-opacity:1;"/>
<path d="M73.56 36.9297L50 60.4897V55.1897L68.26 36.9297H73.56Z" fill="#412BC2" style="fill:#412BC2;fill:color(display-p3 0.2549 0.1686 0.7608);fill-opacity:1;"/>
<path d="M334.98 360.44V365.74L316.73 383.99H311.43L334.99 360.43L334.98 360.44Z" fill="#412BC2" style="fill:#412BC2;fill:color(display-p3 0.2549 0.1686 0.7608);fill-opacity:1;"/>
<path d="M334.98 330.92V336.23L287.21 384H281.91L334.98 330.92Z" fill="#412BC2" style="fill:#412BC2;fill:color(display-p3 0.2549 0.1686 0.7608);fill-opacity:1;"/>
<path d="M334.98 301.41V306.71L257.69 384H252.39L334.98 301.41Z" fill="#412BC2" style="fill:#412BC2;fill:color(display-p3 0.2549 0.1686 0.7608);fill-opacity:1;"/>
<path d="M334.98 271.9V277.2L228.18 384H222.88L334.98 271.9Z" fill="#412BC2" style="fill:#412BC2;fill:color(display-p3 0.2549 0.1686 0.7608);fill-opacity:1;"/>
<path d="M334.98 242.38V247.69L198.66 384H193.36L334.98 242.38Z" fill="#412BC2" style="fill:#412BC2;fill:color(display-p3 0.2549 0.1686 0.7608);fill-opacity:1;"/>
<path d="M334.98 212.86V218.17L169.15 384H163.85L334.98 212.86Z" fill="#412BC2" style="fill:#412BC2;fill:color(display-p3 0.2549 0.1686 0.7608);fill-opacity:1;"/>
<path d="M334.98 183.35V188.65L139.64 383.99H134.34L334.99 183.34L334.98 183.35Z" fill="#412BC2" style="fill:#412BC2;fill:color(display-p3 0.2549 0.1686 0.7608);fill-opacity:1;"/>
<path d="M334.98 153.83V159.14L110.12 384H104.82L334.99 153.83H334.98Z" fill="#412BC2" style="fill:#412BC2;fill:color(display-p3 0.2549 0.1686 0.7608);fill-opacity:1;"/>
<path d="M334.98 124.32V129.62L80.5998 384H75.2998L334.98 124.32Z" fill="#412BC2" style="fill:#412BC2;fill:color(display-p3 0.2549 0.1686 0.7608);fill-opacity:1;"/>
<path d="M334.98 94.8096V100.1L51.6 383.49C50.63 382.9 50 381.83 50 380.62V379.79L334.98 94.8096Z" fill="#412BC2" style="fill:#412BC2;fill:color(display-p3 0.2549 0.1686 0.7608);fill-opacity:1;"/>
<path d="M315.66 365.15H69.32C68.57 365.15 67.96 364.54 67.96 363.79V57.15C67.96 56.4 68.57 55.79 69.32 55.79H315.66C316.41 55.79 317.02 56.4 317.02 57.15V363.79C317.02 364.54 316.41 365.15 315.66 365.15Z" fill="#FFE293" style="fill:#FFE293;fill:color(display-p3 1.0000 0.8863 0.5765);fill-opacity:1;"/>
<path d="M249.21 24.99H221.37C219.34 10.86 207.18 0 192.49 0C177.8 0 165.64 10.86 163.61 24.99H135.77C132.31 24.99 129.51 27.79 129.51 31.26V63.5C129.51 66.96 132.31 69.77 135.77 69.77H249.2C252.66 69.77 255.47 66.97 255.47 63.5V31.26C255.47 27.8 252.67 24.99 249.21 24.99Z" fill="#26C8DC" style="fill:#26C8DC;fill:color(display-p3 0.1490 0.7843 0.8627);fill-opacity:1;"/>
<path d="M221.62 25.3801H163.37C162.34 25.3801 161.49 24.5401 161.49 23.5001C161.49 22.4601 162.33 21.6201 163.37 21.6201H221.62C222.66 21.6201 223.5 22.4601 223.5 23.5001C223.5 24.5401 222.66 25.3801 221.62 25.3801Z" fill="black" style="fill:black;fill-opacity:1;"/>
<g clip-path="url(#clip1_631_2343)">
<rect x="94" y="108" width="88" height="88" rx="44" fill="white" style="fill:white;fill-opacity:1;"/>
<path d="M175.152 195.429C174.997 194.973 174.839 194.521 174.681 194.072C174.61 193.872 173.977 193.726 173.907 193.53C173.822 193.299 174.301 193.017 174.216 192.789C171.042 184.24 167.256 177.457 164.005 172.534C163.86 172.317 163.48 172.58 163.34 172.37C163.209 172.178 163.318 171.511 163.192 171.323C159.61 166.09 156.837 163.265 156.559 162.983C153.138 159.022 147.582 158.573 144.394 161.113C143.708 161.662 143.138 162.342 142.688 163.122H134.056C133.605 162.346 133.032 161.662 132.346 161.113C129.158 158.573 123.601 159.022 120.181 162.983C119.769 163.396 113.97 169.31 108.122 180.293C108.017 180.496 108.509 180.827 108.4 181.03C108.252 181.311 107.506 181.468 107.359 181.757C105.335 185.714 103.337 190.274 101.581 195.425C101.327 196.163 101.869 196.932 102.64 196.932H105.487L106.447 196.209L106.887 196.932H121.374L122 196.494L122.687 196.932H129.724L130.579 196.323L131.265 196.932H155.151L156.027 196.494L156.791 196.932H174.097C174.867 196.932 175.406 196.163 175.156 195.425L175.152 195.429Z" fill="#26C8DC" style="fill:#26C8DC;fill:color(display-p3 0.1490 0.7843 0.8627);fill-opacity:1;"/>
<path d="M133.195 176.133C132.475 175.06 131.58 174.149 130.713 173.266C129.888 172.422 129.108 171.628 128.467 170.709C126.566 167.977 127.461 164.162 128.321 160.469C128.384 160.204 128.446 159.936 128.509 159.668C128.084 159.586 127.642 159.543 127.197 159.532C127.148 159.74 127.103 159.947 127.054 160.154C126.121 164.137 125.16 168.26 127.405 171.485C128.109 172.5 128.969 173.369 129.794 174.217C130.657 175.096 131.472 175.926 132.123 176.891C133.328 178.679 133.721 181.335 132.297 182.683C130.981 183.935 128.725 183.552 127.071 182.626C126.33 182.211 125.644 181.707 124.916 181.182C123.879 180.427 122.806 179.644 121.574 179.14C120.345 178.632 119.092 178.439 117.824 178.439C115.673 178.439 113.49 179.001 111.352 179.551C110.168 179.855 108.967 180.163 107.773 180.37C107.522 180.849 107.268 181.339 107.018 181.843C108.577 181.646 110.137 181.246 111.669 180.853C115.008 179.991 118.162 179.183 121.086 180.388C122.176 180.835 123.137 181.539 124.161 182.279C124.888 182.809 125.637 183.352 126.445 183.806C127.479 184.389 128.805 184.832 130.107 184.832C131.214 184.832 132.304 184.51 133.181 183.677C135.204 181.761 134.699 178.361 133.199 176.137L133.195 176.133Z" fill="#26C8DC" style="fill:#26C8DC;fill:color(display-p3 0.1490 0.7843 0.8627);fill-opacity:1;"/>
<path d="M116.733 187.503C114.872 186.668 111.117 186.227 106.916 192.64C106.153 193.803 105.35 195.279 104.817 196.928H106.247C106.729 195.607 107.395 194.407 108.029 193.448C110.779 189.247 113.605 187.642 116.2 188.809C118.609 189.888 120.459 193.248 121.046 196.932H122.417C121.802 192.693 119.624 188.805 116.733 187.51V187.503Z" fill="#26C8DC" style="fill:#26C8DC;fill:color(display-p3 0.1490 0.7843 0.8627);fill-opacity:1;"/>
<path d="M158.212 185.175C156.85 183.863 154.644 183.402 152.455 183.971C150.558 184.461 148.889 185.589 147.414 186.583L147.203 186.724C143.734 189.066 140.736 191.087 136.782 192.276C136.454 192.374 136.123 192.467 135.791 192.565C133.107 193.332 130.347 194.121 129.018 196.931H130.554C131.731 195.126 133.82 194.532 136.151 193.862C136.486 193.768 136.822 193.671 137.157 193.57C141.303 192.327 144.38 190.251 147.941 187.848L148.152 187.704C149.603 186.728 151.107 185.712 152.783 185.279C153.246 185.16 153.767 185.085 154.308 185.085C155.364 185.085 156.472 185.369 157.285 186.155C158.373 187.203 158.758 189.077 158.266 190.929C157.784 192.734 156.622 194.359 155.595 195.793C155.335 196.16 155.061 196.542 154.775 196.931H156.43C156.512 196.813 156.597 196.697 156.679 196.586C157.774 195.058 159.014 193.325 159.56 191.282C160.052 189.433 159.959 186.861 158.212 185.178V185.175Z" fill="#26C8DC" style="fill:#26C8DC;fill:color(display-p3 0.1490 0.7843 0.8627);fill-opacity:1;"/>
<path d="M174.745 192.327C174.516 192.348 174.291 192.338 174.072 192.293C173.103 192.097 172.337 191.318 171.507 190.395L164.716 182.853C163.803 181.837 162.766 180.691 162.418 179.366C161.835 177.148 162.948 175.013 164.351 172.799C164.072 172.394 163.796 172.006 163.524 171.632C161.889 174.169 160.361 176.798 161.116 179.681C161.542 181.305 162.687 182.575 163.696 183.698L170.491 191.243C171.256 192.094 172.301 193.258 173.793 193.56C174.033 193.608 174.28 193.632 174.527 193.632C174.756 193.632 174.985 193.611 175.217 193.57C175.064 193.155 174.903 192.743 174.742 192.331L174.745 192.327Z" fill="#26C8DC" style="fill:#26C8DC;fill:color(display-p3 0.1490 0.7843 0.8627);fill-opacity:1;"/>
<path d="M111.421 144.083C111.421 158.691 123.239 170.532 137.819 170.532C152.4 170.532 164.217 158.688 164.217 144.083C164.217 142.531 164.082 141.008 163.826 139.527C158.873 127.684 150.847 119.932 137.816 119.932C124.784 119.932 116.146 128.979 111.806 139.542C111.549 141.019 111.417 142.538 111.417 144.087L111.421 144.083Z" fill="#BA7560" style="fill:#BA7560;fill:color(display-p3 0.7294 0.4588 0.3765);fill-opacity:1;"/>
<path d="M164.4 139.888C160.056 140.028 154.83 138.828 149.713 136.244C144.447 133.586 140.309 129.975 137.892 126.302C135.474 129.975 131.336 133.586 126.07 136.244C121.04 138.785 115.901 139.989 111.6 139.895C113.783 127.402 124.773 117.9 138 117.9C151.227 117.9 162.21 127.395 164.396 139.885L164.4 139.888Z" fill="#011B1F" style="fill:#011B1F;fill:color(display-p3 0.0039 0.1059 0.1216);fill-opacity:1;"/>
<path d="M131.203 142.873C131.368 143.695 130.029 144.679 128.214 145.071C126.4 145.463 124.796 145.112 124.631 144.29C124.466 143.468 125.806 142.484 127.62 142.092C129.434 141.7 131.039 142.051 131.203 142.873Z" fill="black" style="fill:black;fill-opacity:1;"/>
<path d="M151.004 144.29C151.169 143.468 149.828 142.484 148.013 142.092C146.199 141.7 144.593 142.051 144.431 142.873C144.266 143.695 145.607 144.679 147.422 145.071C149.236 145.463 150.842 145.112 151.007 144.29H151.004Z" fill="black" style="fill:black;fill-opacity:1;"/>
<path d="M137.817 158.432C136.604 158.432 135.617 157.446 135.617 156.232C135.617 155.018 136.604 154.032 137.817 154.032C139.03 154.032 140.017 155.018 140.017 156.232C140.017 157.446 139.03 158.432 137.817 158.432ZM137.817 155.096C137.099 155.096 136.493 155.616 136.493 156.232C136.493 156.848 137.099 157.368 137.817 157.368C138.536 157.368 139.141 156.848 139.141 156.232C139.141 155.616 138.536 155.096 137.817 155.096Z" fill="black" style="fill:black;fill-opacity:1;"/>
<path d="M138.366 161.731C135.636 161.731 133.417 159.485 133.417 156.722C133.417 156.452 133.635 156.231 133.902 156.231C134.17 156.231 134.39 156.452 134.39 156.722C134.39 158.942 136.173 160.75 138.366 160.75C140.559 160.75 142.345 158.942 142.345 156.722C142.345 156.452 142.563 156.231 142.833 156.231C143.102 156.231 143.317 156.452 143.317 156.722C143.317 159.485 141.099 161.731 138.369 161.731H138.366Z" fill="black" style="fill:black;fill-opacity:1;"/>
<path d="M149.376 156.229C147.474 156.229 145.657 155.137 144.84 153.305C144.555 152.667 144.413 151.993 144.418 151.299C144.418 151.037 144.631 150.818 144.901 150.825C145.166 150.825 145.38 151.042 145.38 151.304C145.375 151.862 145.489 152.404 145.721 152.919C146.609 154.912 148.968 155.82 150.979 154.94C151.025 154.92 151.063 154.904 151.101 154.882C151.112 154.877 151.122 154.872 151.129 154.867C152.519 154.185 153.395 152.755 153.356 151.219C153.349 150.956 153.56 150.737 153.825 150.732C154.089 150.722 154.311 150.931 154.316 151.196C154.364 153.098 153.285 154.869 151.57 155.717C151.496 155.757 151.427 155.787 151.366 155.815C150.72 156.098 150.043 156.231 149.376 156.231V156.229Z" fill="black" style="fill:black;fill-opacity:1;"/>
<path d="M126.826 156.229C124.714 156.229 122.695 155.137 121.787 153.305C121.47 152.667 121.312 151.993 121.318 151.299C121.318 151.037 121.564 150.818 121.855 150.825C122.149 150.825 122.387 151.042 122.387 151.304C122.384 151.862 122.511 152.404 122.765 152.919C123.752 154.912 126.374 155.82 128.608 154.94C128.656 154.92 128.701 154.904 128.744 154.882C128.755 154.877 128.764 154.872 128.775 154.867C130.319 154.185 131.292 152.755 131.249 151.219C131.241 150.956 131.476 150.737 131.77 150.732C132.07 150.722 132.31 150.931 132.316 151.196C132.369 153.098 131.17 154.869 129.264 155.717C129.185 155.757 129.112 155.785 129.038 155.813C128.32 156.095 127.567 156.231 126.826 156.231V156.229Z" fill="black" style="fill:black;fill-opacity:1;"/>
</g>
<path d="M282.07 132.01H197.29C195.64 132.01 194.3 130.67 194.3 129.02V113.48C194.3 111.83 195.64 110.5 197.29 110.5H282.07C283.72 110.5 285.05 111.84 285.05 113.48V129.02C285.05 130.67 283.71 132.01 282.07 132.01Z" fill="white" style="fill:white;fill-opacity:1;"/>
<path d="M285.05 152.76H194.3C193.26 152.76 192.42 151.92 192.42 150.88C192.42 149.84 193.26 149 194.3 149H285.05C286.09 149 286.93 149.84 286.93 150.88C286.93 151.92 286.09 152.76 285.05 152.76Z" fill="black" style="fill:black;fill-opacity:1;"/>
<path d="M285.05 172.73H194.3C193.26 172.73 192.42 171.89 192.42 170.85C192.42 169.81 193.26 168.97 194.3 168.97H285.05C286.09 168.97 286.93 169.81 286.93 170.85C286.93 171.89 286.09 172.73 285.05 172.73Z" fill="black" style="fill:black;fill-opacity:1;"/>
<path d="M285.05 192.71H194.3C193.26 192.71 192.42 191.87 192.42 190.83C192.42 189.79 193.26 188.95 194.3 188.95H285.05C286.09 188.95 286.93 189.79 286.93 190.83C286.93 191.87 286.09 192.71 285.05 192.71Z" fill="black" style="fill:black;fill-opacity:1;"/>
<path d="M283.07 211.59H186.12C185.09 211.59 184.24 210.75 184.24 209.71C184.24 208.67 185.08 207.83 186.12 207.83H283.07C284.11 207.83 284.95 208.67 284.95 209.71C284.95 210.75 284.11 211.59 283.07 211.59Z" fill="black" style="fill:black;fill-opacity:1;"/>
<path d="M165.03 211.59H99.88C98.84 211.59 98 210.75 98 209.71C98 208.67 98.84 207.83 99.88 207.83H165.03C166.07 207.83 166.91 208.67 166.91 209.71C166.91 210.75 166.07 211.59 165.03 211.59Z" fill="black" style="fill:black;fill-opacity:1;"/>
<path d="M283.07 231.56H239.68C238.64 231.56 237.8 230.72 237.8 229.69C237.8 228.66 238.64 227.81 239.68 227.81H283.07C284.11 227.81 284.95 228.65 284.95 229.69C284.95 230.73 284.11 231.56 283.07 231.56Z" fill="black" style="fill:black;fill-opacity:1;"/>
<path d="M219.95 231.56H99.9298C98.8898 231.56 98.0498 230.72 98.0498 229.69C98.0498 228.66 98.8898 227.81 99.9298 227.81H219.95C220.99 227.81 221.83 228.65 221.83 229.69C221.83 230.73 220.99 231.56 219.95 231.56Z" fill="black" style="fill:black;fill-opacity:1;"/>
<path d="M283.07 251.54H199.66C198.63 251.54 197.78 250.7 197.78 249.66C197.78 248.62 198.62 247.78 199.66 247.78H283.07C284.11 247.78 284.95 248.62 284.95 249.66C284.95 250.7 284.11 251.54 283.07 251.54Z" fill="black" style="fill:black;fill-opacity:1;"/>
<path d="M177.66 251.54H99.9298C98.8898 251.54 98.0498 250.7 98.0498 249.66C98.0498 248.62 98.8898 247.78 99.9298 247.78H177.66C178.7 247.78 179.54 248.62 179.54 249.66C179.54 250.7 178.7 251.54 177.66 251.54Z" fill="black" style="fill:black;fill-opacity:1;"/>
<path d="M283.07 270.41H170.47C169.43 270.41 168.59 269.57 168.59 268.53C168.59 267.49 169.43 266.65 170.47 266.65H283.07C284.11 266.65 284.95 267.49 284.95 268.53C284.95 269.57 284.11 270.41 283.07 270.41Z" fill="black" style="fill:black;fill-opacity:1;"/>
<path d="M147.12 270.41H99.9298C98.8898 270.41 98.0498 269.57 98.0498 268.53C98.0498 267.49 98.8898 266.65 99.9298 266.65H147.12C148.16 266.65 149 267.49 149 268.53C149 269.57 148.16 270.41 147.12 270.41Z" fill="black" style="fill:black;fill-opacity:1;"/>
<path d="M283.07 290.39H99.9298C98.8898 290.39 98.0498 289.55 98.0498 288.51C98.0498 287.47 98.8898 286.63 99.9298 286.63H283.07C284.11 286.63 284.95 287.47 284.95 288.51C284.95 289.55 284.11 290.39 283.07 290.39Z" fill="black" style="fill:black;fill-opacity:1;"/>
<path d="M283.07 310.36H224.6C223.57 310.36 222.72 309.52 222.72 308.48C222.72 307.44 223.56 306.6 224.6 306.6H283.07C284.11 306.6 284.95 307.44 284.95 308.48C284.95 309.52 284.11 310.36 283.07 310.36Z" fill="black" style="fill:black;fill-opacity:1;"/>
<path d="M203.64 310.36H99.9298C98.8898 310.36 98.0498 309.52 98.0498 308.48C98.0498 307.44 98.8898 306.6 99.9298 306.6H203.64C204.68 306.6 205.52 307.44 205.52 308.48C205.52 309.52 204.68 310.36 203.64 310.36Z" fill="black" style="fill:black;fill-opacity:1;"/>
</g>
<defs>
<clipPath id="clip0_631_2343">
<rect width="384" height="384" fill="white" style="fill:white;fill-opacity:1;"/>
</clipPath>
<clipPath id="clip1_631_2343">
<rect x="94" y="108" width="88" height="88" rx="44" fill="white" style="fill:white;fill-opacity:1;"/>
</clipPath>
</defs>
</svg>
