<svg width="384" height="384" viewBox="0 0 384 384" fill="none" xmlns="http://www.w3.org/2000/svg">
<g clip-path="url(#clip0_609_755)">
<path d="M300.53 53.1601C300.05 44.9501 292.97 38.7201 284.77 39.2201L282.37 39.3701C283.39 37.0301 283.84 34.3901 283.51 31.6601C282.56 23.4801 275.13 17.6801 266.97 18.6601L258.48 19.7501C259.63 16.4301 259.63 12.6901 258.18 9.18015C255.04 1.57015 246.33 -2.00985 238.74 1.14015L188.41 13.5901C185.16 14.8101 181.89 16.0901 178.64 17.4401L84.1099 54.6502C83.5699 54.8601 83.3099 55.4701 83.5199 56.0101L112.73 130.23C112.94 130.76 113.55 131.03 114.08 130.82L132.31 123.64C148.7 140.19 169.99 149.96 169.99 149.96C177 153.57 184.84 155.56 193.03 155.63C200.82 155.7 207.19 149.43 207.26 141.64C207.33 133.85 201.06 127.48 193.27 127.41C186.2 127.35 179.68 124.11 175.38 118.52C167.72 108.56 169.58 94.2201 179.54 86.5601C189.5 78.8901 203.84 80.7601 211.5 90.7201C217.93 99.0801 217.73 111.03 211.02 119.14C206.05 125.14 206.89 134.04 212.89 139.01C218.06 143.29 225.38 143.26 230.49 139.33C231.31 138.7 232.07 137.97 232.76 137.14C248.04 118.68 248.49 92.5201 233.86 73.5101C233.53 73.0801 233.18 72.6701 232.84 72.2501L286.59 68.9401C294.79 68.4301 301.03 61.3801 300.52 53.1701L300.53 53.1601Z" fill="#FF9B77" style="fill:#FF9B77;fill:color(display-p3 1.0000 0.6078 0.4667);fill-opacity:1;"/>
<path d="M194.11 47.4798C193.13 47.4798 192.3 46.7198 192.24 45.7198C192.17 44.6798 192.96 43.7898 193.99 43.7198L277.1 38.2298C278.13 38.1698 279.03 38.9398 279.1 39.9798C279.17 41.0198 278.38 41.9098 277.35 41.9798L194.24 47.4698C194.24 47.4698 194.15 47.4698 194.12 47.4698L194.11 47.4798Z" fill="black" style="fill:black;fill-opacity:1;"/>
<path d="M189.64 27.4598C188.68 27.4598 187.86 26.7298 187.77 25.7598C187.67 24.7298 188.43 23.8098 189.47 23.7198L250.84 18.0098C251.87 17.9198 252.79 18.6698 252.88 19.7098C252.97 20.7398 252.22 21.6598 251.18 21.7498L189.8 27.4498C189.74 27.4498 189.68 27.4498 189.63 27.4498L189.64 27.4598Z" fill="black" style="fill:black;fill-opacity:1;"/>
<path d="M203.61 166.47H210.21C211.26 166.47 212.11 165.62 212.11 164.57V126.45C212.11 125.4 211.26 124.55 210.21 124.55H203.61C202.56 124.55 201.71 125.4 201.71 126.45V164.57C201.71 165.62 202.56 166.47 203.61 166.47Z" fill="#FFCC40" style="fill:#FFCC40;fill:color(display-p3 1.0000 0.8000 0.2510);fill-opacity:1;"/>
<path d="M212.11 143.64H201.71V147.39H212.11V143.64Z" fill="#966E00" style="fill:#966E00;fill:color(display-p3 0.5882 0.4314 0.0000);fill-opacity:1;"/>
<path d="M212.11 132.86H201.71V136.62H212.11V132.86Z" fill="#966E00" style="fill:#966E00;fill:color(display-p3 0.5882 0.4314 0.0000);fill-opacity:1;"/>
<path d="M212.11 154.4H201.71V158.16H212.11V154.4Z" fill="#966E00" style="fill:#966E00;fill:color(display-p3 0.5882 0.4314 0.0000);fill-opacity:1;"/>
<path d="M122.52 111.79C138.34 135.44 170 149.95 170 149.95C177 153.56 184.85 155.55 193.03 155.63C200.82 155.7 207.19 149.43 207.26 141.63C207.33 133.84 201.07 127.47 193.27 127.4C186.2 127.34 179.69 124.1 175.38 118.51C171.39 113.33 169.99 106.97 170.95 100.98L122.52 111.79Z" fill="#FF9B77" style="fill:#FF9B77;fill:color(display-p3 1.0000 0.6078 0.4667);fill-opacity:1;"/>
<path d="M135.43 377.99C131.02 377.99 126.9 376.23 123.84 373.05C120.78 369.86 119.2 365.68 119.39 361.26L125 227.37C125.62 212.56 135.98 199.93 149.91 196.05V172.93C149.91 169.61 152.6 166.92 155.92 166.92H252.59C255.91 166.92 258.6 169.61 258.6 172.93V196.05C272.53 199.93 282.89 212.56 283.51 227.37L289.13 361.26C289.31 365.67 287.73 369.85 284.68 373.04C281.63 376.23 277.51 377.98 273.09 377.98H135.43V377.99Z" fill="white" style="fill:white;fill-opacity:1;"/>
<path d="M293.86 360.82L294.98 357.23L293.83 329.71L292.62 328.07L293.62 324.64L292.47 297.1L291.19 295.37L292.26 292.01L291.11 264.49L289.66 262.95L290.89 259.39L289.74 231.88L288.75 229.7C288.75 229.59 289.53 226.88 289.53 226.77C289.14 219.09 286.55 211.72 282.12 205.52C281.73 204.98 279.92 206.15 279.5 205.62C279.13 205.16 280.16 202.99 279.77 202.54C279.42 202.14 279.07 201.75 278.71 201.37C274.74 197.15 269.93 193.88 264.65 191.74V188.99L263.45 187.22L264.65 183.68V172.93C264.65 172.77 264.63 172.63 264.63 172.47H266.23C269.55 172.47 272.24 169.78 272.24 166.46C272.24 163.14 269.55 160.45 266.23 160.45H259.2L256.55 161.2L253.96 160.45H225.21L222.07 161.2L219.91 160.45H191.22L188.5 161.2L185.91 160.45H157.14L154.41 161.2L151.97 160.45H142.36C139.04 160.45 136.35 163.14 136.35 166.46C136.35 169.05 137.98 171.25 140.27 172.1C140.95 171.95 142.69 171.38 143.43 171.38L143.96 172.47C143.96 172.62 143.94 172.77 143.94 172.93V191.75C138.66 193.9 133.85 197.17 129.88 201.38C123.29 208.37 119.44 217.51 119.04 227.11V227.31L120.06 229.61L118.8 232.88L117.55 262.83L118.58 264.48L117.31 268.34L116.06 298.28L117.12 300.1L115.83 303.82L114.57 333.75L115.7 335.84L114.34 339.29L113.43 360.99C113.33 363.38 113.63 365.76 114.28 368.03C114.5 368.78 115.77 368.83 116.06 369.55C116.28 370.1 115.51 371.32 115.77 371.84C116.75 373.79 118.02 375.59 119.54 377.18C123 380.79 127.61 383.11 132.52 383.77C133.49 383.9 134.77 382.39 135.76 382.39L137.66 383.96H166.32L169.86 382.84L171.68 383.96H200.3L204.48 382.82L205.68 383.96H234.3L238.04 382.77L239.62 383.96H268.28L273.18 382.15C273.35 382.15 273.47 383.96 273.63 383.95C279.43 383.82 285.02 381.36 289.04 377.16C292.84 373.2 295.03 367.9 295.17 362.43C295.18 361.94 293.9 361.27 293.88 360.77L293.86 360.82ZM273.09 371.98H251.58L247.12 374.09L246.35 371.98H217.59L213.52 373.55L212.34 371.98H183.59L179.73 373.13L178.29 371.98H149.6L146.13 373.93L144.29 371.98H135.41C129.93 371.98 125.52 367.61 125.37 362.22C125.37 361.99 124.13 361.8 124.13 361.56L125.57 356.76L126.82 326.78L125.63 324.74L127.05 321.29L128.31 291.37L126.65 290.16L128.54 285.75L129.8 255.8L128.51 254.04L130.03 250.27L130.98 227.63C131.11 224.52 131.74 221.56 132.8 218.8C134.36 214.73 136.15 210.58 139.3 207.69C141.89 205.31 145.62 203.95 148.96 202.67C151.16 201.83 153.48 201.26 155.9 201.01V195.77L154.69 193.83L155.9 190.42V172.93H252.57V195.7L253.71 197.35L252.57 200.99C260.04 201.79 266.65 205.54 271.18 211.07C271.66 211.65 273.23 211.01 273.66 211.63C273.95 212.05 273.12 213.73 273.39 214.17C275.8 218.1 277.27 222.68 277.48 227.6L277.93 238.28L279.54 239.17L278.14 243.4L279.29 270.88L280.65 272.2L279.5 276.02L280.66 303.55L281.9 304.95L280.87 308.64L282.03 336.2L283.47 337.65L282.25 341.36L283.09 361.49C283.33 367.2 278.77 371.95 273.06 371.95L273.09 371.98Z" fill="#FFCC40" style="fill:#FFCC40;fill:color(display-p3 1.0000 0.8000 0.2510);fill-opacity:1;"/>
<path d="M295.14 362.41L273.57 383.98C273.41 383.99 273.26 383.99 273.1 383.99H268.25L294.99 357.26L295.15 361.01C295.17 361.47 295.17 361.94 295.15 362.4L295.14 362.41Z" fill="#FFCC40" style="fill:#FFCC40;fill:color(display-p3 1.0000 0.8000 0.2510);fill-opacity:1;"/>
<path d="M251.58 371.98L239.56 384H234.26L246.28 371.98H251.59H251.58Z" fill="#FFCC40" style="fill:#FFCC40;fill:color(display-p3 1.0000 0.8000 0.2510);fill-opacity:1;"/>
<path d="M293.82 329.74L282.27 341.29L282.06 336.2L293.61 324.65L293.82 329.74Z" fill="#FFCC40" style="fill:#FFCC40;fill:color(display-p3 1.0000 0.8000 0.2510);fill-opacity:1;"/>
<path d="M217.6 371.98L205.58 384H200.26L212.28 371.98H217.6Z" fill="#FFCC40" style="fill:#FFCC40;fill:color(display-p3 1.0000 0.8000 0.2510);fill-opacity:1;"/>
<path d="M292.45 297.12L280.9 308.67L280.69 303.56L292.24 292.02L292.45 297.13V297.12Z" fill="#FFCC40" style="fill:#FFCC40;fill:color(display-p3 1.0000 0.8000 0.2510);fill-opacity:1;"/>
<path d="M183.6 371.98L171.58 384H166.28L178.3 371.98H183.61H183.6Z" fill="#FFCC40" style="fill:#FFCC40;fill:color(display-p3 1.0000 0.8000 0.2510);fill-opacity:1;"/>
<path d="M291.09 264.5L279.54 276.05L279.33 270.95L290.87 259.41L291.09 264.5Z" fill="#FFCC40" style="fill:#FFCC40;fill:color(display-p3 1.0000 0.8000 0.2510);fill-opacity:1;"/>
<path d="M149.62 371.98L137.61 384H135.44C134.46 384 133.47 383.93 132.5 383.8L144.32 371.98H149.63H149.62Z" fill="#FFCC40" style="fill:#FFCC40;fill:color(display-p3 1.0000 0.8000 0.2510);fill-opacity:1;"/>
<path d="M289.71 231.88L278.17 243.42L277.96 238.32L289.5 226.79C289.5 226.9 289.5 227.02 289.52 227.13L289.72 231.89L289.71 231.88Z" fill="#FFCC40" style="fill:#FFCC40;fill:color(display-p3 1.0000 0.8000 0.2510);fill-opacity:1;"/>
<path d="M125.6 356.7L125.4 361.52C125.4 361.75 125.4 361.98 125.4 362.21L115.75 371.86C115.13 370.63 114.63 369.36 114.25 368.05L125.61 356.69L125.6 356.7Z" fill="#FFCC40" style="fill:#FFCC40;fill:color(display-p3 1.0000 0.8000 0.2510);fill-opacity:1;"/>
<path d="M282.08 205.53L273.41 214.2C272.76 213.11 272.02 212.07 271.21 211.09L279.74 202.57C280.57 203.52 281.35 204.51 282.08 205.54V205.53Z" fill="#FFCC40" style="fill:#FFCC40;fill:color(display-p3 1.0000 0.8000 0.2510);fill-opacity:1;"/>
<path d="M127.09 321.22L126.86 326.76L114.31 339.31L114.54 333.77L127.09 321.22Z" fill="#FFCC40" style="fill:#FFCC40;fill:color(display-p3 1.0000 0.8000 0.2510);fill-opacity:1;"/>
<path d="M264.61 183.7V189.01L252.61 201L252.59 195.71L264.61 183.69V183.7Z" fill="#FFCC40" style="fill:#FFCC40;fill:color(display-p3 1.0000 0.8000 0.2510);fill-opacity:1;"/>
<path d="M128.57 285.75L128.34 291.29L115.79 303.85L116.02 298.3L128.57 285.75Z" fill="#FFCC40" style="fill:#FFCC40;fill:color(display-p3 1.0000 0.8000 0.2510);fill-opacity:1;"/>
<path d="M259.16 160.47L246.69 172.94H241.38L253.85 160.47H259.16Z" fill="#FFCC40" style="fill:#FFCC40;fill:color(display-p3 1.0000 0.8000 0.2510);fill-opacity:1;"/>
<path d="M130.07 250.27L129.84 255.81L117.28 268.37L117.52 262.83L130.08 250.27H130.07Z" fill="#FFCC40" style="fill:#FFCC40;fill:color(display-p3 1.0000 0.8000 0.2510);fill-opacity:1;"/>
<path d="M225.17 160.47L212.7 172.94H207.39L219.86 160.47H225.16H225.17Z" fill="#FFCC40" style="fill:#FFCC40;fill:color(display-p3 1.0000 0.8000 0.2510);fill-opacity:1;"/>
<path d="M155.92 190.43V195.74L148.98 202.68C141.57 205.5 135.66 211.4 132.82 218.84L118.77 232.89L119 227.35L155.93 190.42L155.92 190.43Z" fill="#FFCC40" style="fill:#FFCC40;fill:color(display-p3 1.0000 0.8000 0.2510);fill-opacity:1;"/>
<path d="M191.19 160.47L178.72 172.94H173.41L185.88 160.47H191.19Z" fill="#FFCC40" style="fill:#FFCC40;fill:color(display-p3 1.0000 0.8000 0.2510);fill-opacity:1;"/>
<path d="M143.9 172.94C143.9 172.79 143.92 172.64 143.92 172.49H142.33C141.6 172.49 140.89 172.35 140.24 172.11L151.88 160.47H157.19L143.89 173.77V172.94H143.9Z" fill="#FFCC40" style="fill:#FFCC40;fill:color(display-p3 1.0000 0.8000 0.2510);fill-opacity:1;"/>
<path d="M263.03 174.82H145.49C144.46 174.82 143.61 173.98 143.61 172.94C143.61 171.9 144.45 171.06 145.49 171.06H263.03C264.07 171.06 264.91 171.9 264.91 172.94C264.91 173.98 264.07 174.82 263.03 174.82Z" fill="black" style="fill:black;fill-opacity:1;"/>
<path d="M272.54 337.12C272.54 337.64 273.46 338.28 273.42 338.8C273.1 343.22 271.4 347.26 268.76 350.5C268.33 351.02 267.5 350.41 267.03 350.89C266.62 351.31 266.57 352.82 266.12 353.21C262.91 355.95 258.86 357.74 254.41 358.14C253.79 358.19 253.41 356.98 252.78 356.98C252.15 356.98 251.28 358.2 250.67 358.14C246.21 357.75 242.15 355.96 238.93 353.22C238.46 352.82 238.92 351.33 238.49 350.9C238.03 350.44 236.7 351.02 236.29 350.52C233.65 347.29 231.96 343.26 231.63 338.85C231.59 338.33 232.25 337.76 232.25 337.23C232.25 336.49 231.61 335.8 231.69 335.09C232.14 330.76 233.9 326.82 236.58 323.68C236.98 323.21 238.13 323.7 238.58 323.26C239.03 322.82 238.77 321.46 239.25 321.06C242.42 318.47 246.35 316.78 250.66 316.4C251.27 316.35 252.03 317.37 252.66 317.37C253.29 317.37 253.8 316.35 254.42 316.41C258.71 316.79 262.63 318.47 265.79 321.05C266.3 321.46 265.91 322.76 266.38 323.23C266.81 323.66 268.11 323.25 268.5 323.71C271.17 326.85 272.93 330.78 273.38 335.11C273.45 335.83 272.56 336.43 272.56 337.17L272.54 337.12Z" fill="#FFCC40" style="fill:#FFCC40;fill:color(display-p3 1.0000 0.8000 0.2510);fill-opacity:1;"/>
<path d="M273.4 338.82H257.04L268.74 350.52C267.94 351.49 267.06 352.39 266.11 353.19L254.39 341.48V358.12C253.77 358.18 253.14 358.21 252.51 358.21C251.88 358.21 251.25 358.18 250.63 358.12V341.48L238.92 353.19C237.96 352.38 237.07 351.49 236.29 350.51L247.98 338.82H231.62C231.58 338.3 231.55 337.77 231.55 337.25C231.55 336.51 231.59 335.79 231.66 335.06H247.98L236.57 323.65C237.38 322.69 238.28 321.8 239.26 321.02L250.64 332.4V316.37C251.26 316.31 251.89 316.28 252.52 316.28C253.15 316.28 253.78 316.31 254.4 316.37V332.4L265.78 321.02C266.76 321.81 267.65 322.69 268.46 323.65L257.05 335.06H273.36C273.44 335.78 273.47 336.51 273.47 337.25C273.47 337.78 273.45 338.3 273.4 338.82Z" fill="#966E00" style="fill:#966E00;fill:color(display-p3 0.5882 0.4314 0.0000);fill-opacity:1;"/>
<path d="M262.99 326.77C268.78 332.56 268.78 341.94 262.99 347.73C257.2 353.52 247.82 353.52 242.03 347.73C236.24 341.94 236.24 332.56 242.03 326.77C247.82 320.98 257.2 320.98 262.99 326.77Z" fill="#FFD76B" style="fill:#FFD76B;fill:color(display-p3 1.0000 0.8431 0.4196);fill-opacity:1;"/>
<path d="M258.6 331.16C261.96 334.52 261.96 339.97 258.6 343.34C255.24 346.7 249.78 346.7 246.42 343.34C243.06 339.98 243.06 334.52 246.42 331.16C249.78 327.8 255.24 327.8 258.6 331.16Z" fill="#FFCC40" style="fill:#FFCC40;fill:color(display-p3 1.0000 0.8000 0.2510);fill-opacity:1;"/>
<path d="M260.55 272.62C260.55 273.14 261.46 273.79 261.43 274.3C261.11 278.72 259.41 282.76 256.77 286C256.34 286.52 255.51 285.91 255.04 286.39C254.63 286.81 254.58 288.32 254.13 288.71C250.91 291.45 246.86 293.24 242.42 293.64C241.8 293.69 241.42 292.48 240.79 292.48C240.16 292.48 239.29 293.69 238.68 293.64C234.22 293.25 230.16 291.46 226.95 288.72C226.49 288.33 226.94 286.83 226.51 286.4C226.05 285.94 224.72 286.52 224.3 286.02C221.66 282.79 219.97 278.76 219.64 274.35C219.6 273.83 220.26 273.26 220.26 272.73C220.26 271.99 219.62 271.3 219.69 270.59C220.14 266.26 221.91 262.32 224.58 259.18C224.99 258.7 226.13 259.2 226.58 258.76C227.03 258.32 226.77 256.95 227.25 256.56C230.41 253.97 234.35 252.28 238.66 251.9C239.28 251.85 240.03 252.86 240.66 252.86C241.29 252.86 241.8 251.84 242.42 251.9C246.71 252.28 250.64 253.96 253.79 256.54C254.3 256.95 253.91 258.25 254.38 258.72C254.81 259.15 256.11 258.74 256.5 259.2C259.17 262.34 260.93 266.27 261.38 270.6C261.45 271.32 260.56 271.92 260.56 272.66L260.55 272.62Z" fill="#FFCC40" style="fill:#FFCC40;fill:color(display-p3 1.0000 0.8000 0.2510);fill-opacity:1;"/>
<path d="M261.41 274.32H245.05L256.75 286.02C255.95 286.99 255.07 287.89 254.12 288.7L242.4 276.98V293.62C241.79 293.68 241.15 293.71 240.52 293.71C239.89 293.71 239.26 293.68 238.64 293.62V276.98L226.92 288.7C225.96 287.89 225.07 286.99 224.29 286.02L235.98 274.33H219.62C219.58 273.81 219.55 273.29 219.55 272.76C219.55 272.03 219.59 271.3 219.66 270.58H235.97L224.56 259.17C225.37 258.21 226.27 257.32 227.25 256.54L238.63 267.92V251.89C239.25 251.83 239.88 251.8 240.51 251.8C241.14 251.8 241.77 251.83 242.39 251.89V267.92L253.77 256.54C254.75 257.32 255.64 258.2 256.45 259.17L245.04 270.58H261.36C261.43 271.3 261.47 272.03 261.47 272.76C261.47 273.29 261.45 273.81 261.4 274.33L261.41 274.32Z" fill="#966E00" style="fill:#966E00;fill:color(display-p3 0.5882 0.4314 0.0000);fill-opacity:1;"/>
<path d="M251 262.27C256.78 268.06 256.78 277.45 251 283.23C245.21 289.02 235.82 289.02 230.04 283.23C224.25 277.44 224.25 268.06 230.04 262.27C235.83 256.48 245.21 256.48 251 262.27Z" fill="#FFD76B" style="fill:#FFD76B;fill:color(display-p3 1.0000 0.8431 0.4196);fill-opacity:1;"/>
<path d="M246.61 266.66C249.97 270.02 249.97 275.47 246.61 278.84C243.25 282.2 237.8 282.2 234.43 278.84C231.07 275.48 231.07 270.03 234.43 266.66C237.79 263.3 243.24 263.3 246.61 266.66Z" fill="#FFCC40" style="fill:#FFCC40;fill:color(display-p3 1.0000 0.8000 0.2510);fill-opacity:1;"/>
<path d="M189.35 342.54C189.48 343.04 190.53 343.44 190.62 343.95C191.41 348.31 190.76 352.65 189.01 356.43C188.73 357.04 187.77 356.65 187.43 357.23C187.13 357.74 187.46 359.22 187.12 359.7C184.69 363.15 181.21 365.89 177 367.38C176.41 367.59 175.75 366.5 175.13 366.66C174.52 366.82 173.98 368.21 173.37 368.31C168.95 369.04 164.58 368.31 160.78 366.45C160.23 366.18 160.3 364.63 159.78 364.31C159.22 363.97 158.07 364.88 157.55 364.49C154.2 362.02 151.55 358.53 150.14 354.34C149.97 353.84 150.47 353.13 150.34 352.61C150.16 351.9 149.37 351.39 149.26 350.68C148.62 346.37 149.35 342.11 151.17 338.41C151.44 337.85 152.68 338.04 153 337.51C153.32 336.97 152.74 335.71 153.11 335.21C155.53 331.91 158.93 329.3 163 327.86C163.59 327.65 164.57 328.46 165.18 328.3C165.8 328.14 166.03 327.03 166.64 326.93C170.89 326.23 175.11 326.89 178.8 328.6C179.39 328.87 179.34 330.23 179.9 330.56C180.43 330.87 181.58 330.15 182.08 330.5C185.45 332.88 188.13 336.25 189.64 340.33C189.89 341.01 189.17 341.81 189.35 342.53V342.54Z" fill="#FFCC40" style="fill:#FFCC40;fill:color(display-p3 1.0000 0.8000 0.2510);fill-opacity:1;"/>
<path d="M190.61 343.97L174.76 348.03L188.99 356.46C188.46 357.6 187.83 358.69 187.11 359.7L172.85 351.25L176.98 367.37C176.4 367.58 175.79 367.77 175.18 367.92C174.57 368.08 173.95 368.21 173.34 368.3L169.21 352.18L160.77 366.44C159.64 365.89 158.56 365.25 157.56 364.49L165.98 350.27L150.13 354.33C149.96 353.84 149.81 353.34 149.67 352.83C149.49 352.12 149.35 351.4 149.24 350.69L165.04 346.64L151.15 338.42C151.7 337.29 152.35 336.21 153.1 335.21L166.95 343.41L162.97 327.88C163.55 327.67 164.16 327.49 164.77 327.33C165.38 327.17 166 327.04 166.61 326.95L170.59 342.48L178.79 328.63C179.93 329.15 181.02 329.78 182.04 330.51L173.82 344.39L189.63 340.34C189.88 341.02 190.1 341.72 190.28 342.43C190.41 342.94 190.52 343.45 190.6 343.97H190.61Z" fill="#966E00" style="fill:#966E00;fill:color(display-p3 0.5882 0.4314 0.0000);fill-opacity:1;"/>
<path d="M177.62 334.91C184.64 339.12 186.91 348.23 182.7 355.24C178.49 362.26 169.38 364.54 162.36 360.33C155.35 356.12 153.07 347.01 157.28 339.99C161.49 332.97 170.6 330.7 177.62 334.91Z" fill="#FFD76B" style="fill:#FFD76B;fill:color(display-p3 1.0000 0.8431 0.4196);fill-opacity:1;"/>
<path d="M174.72 340.45C178.69 343.07 179.79 348.4 177.18 352.38C174.56 356.35 169.23 357.45 165.25 354.84C161.28 352.22 160.18 346.88 162.79 342.91C165.41 338.94 170.75 337.84 174.72 340.45Z" fill="#FFCC40" style="fill:#FFCC40;fill:color(display-p3 1.0000 0.8000 0.2510);fill-opacity:1;"/>
<path d="M216.06 349.98L204.69 349.16L147.07 339.9L136.13 336.6C134.99 336.42 134.98 336.1 135.16 334.96L135.32 323.66L137.44 310.48L140.22 299.1C140.4 297.96 141.5 297.65 142.64 297.83L153.69 298.73L211.33 308L222.04 311.32C223.18 311.5 223.36 312.39 223.18 313.53L223.08 324.25L220.96 337.43L218.14 348.08C217.96 349.21 217.19 350.18 216.05 349.99L216.06 349.98Z" fill="#7DDFE9" style="fill:#7DDFE9;fill:color(display-p3 0.4902 0.8745 0.9137);fill-opacity:1;"/>
<path d="M155.41 327.19C155.03 327.19 154.65 327.16 154.27 327.1C150.42 326.48 147.8 322.85 148.42 319C148.72 317.13 149.72 315.5 151.26 314.39C152.79 313.28 154.66 312.84 156.52 313.14C160.37 313.76 163 317.39 162.38 321.24C162.08 323.1 161.07 324.74 159.54 325.85C158.33 326.73 156.89 327.19 155.42 327.19H155.41ZM155.39 316.8C154.7 316.8 154.03 317.01 153.46 317.43C152.74 317.95 152.27 318.72 152.13 319.59C151.84 321.39 153.07 323.1 154.88 323.39C156.68 323.68 158.38 322.45 158.68 320.64C158.97 318.84 157.74 317.14 155.93 316.85C155.75 316.82 155.57 316.81 155.4 316.81L155.39 316.8Z" fill="#04525C" style="fill:#04525C;fill:color(display-p3 0.0157 0.3216 0.3608);fill-opacity:1;"/>
<path d="M203.01 334.84C202.63 334.84 202.25 334.81 201.87 334.75C200.01 334.45 198.37 333.44 197.26 331.91C196.15 330.38 195.71 328.51 196.01 326.65C196.63 322.8 200.26 320.17 204.11 320.79C205.97 321.09 207.61 322.1 208.72 323.63C209.83 325.16 210.27 327.03 209.97 328.89C209.67 330.76 208.66 332.39 207.13 333.5C205.92 334.38 204.48 334.84 203.01 334.84ZM202.99 324.46C201.39 324.46 199.98 325.62 199.72 327.25C199.43 329.05 200.66 330.75 202.47 331.05C203.34 331.19 204.22 330.98 204.93 330.46C205.65 329.94 206.12 329.17 206.26 328.3C206.4 327.43 206.19 326.55 205.67 325.84C205.15 325.12 204.39 324.65 203.51 324.51C203.33 324.48 203.15 324.47 202.98 324.47L202.99 324.46Z" fill="#04525C" style="fill:#04525C;fill:color(display-p3 0.0157 0.3216 0.3608);fill-opacity:1;"/>
<path d="M147.07 339.89L135.13 337.97C133.99 337.79 133.22 336.72 133.4 335.58L135.32 323.64C143.05 324.88 148.31 332.16 147.07 339.89Z" fill="#08A5B8" style="fill:#08A5B8;fill:color(display-p3 0.0314 0.6471 0.7216);fill-opacity:1;"/>
<path d="M153.68 298.72C152.44 306.45 145.16 311.71 137.43 310.47L139.35 298.53C139.53 297.39 140.6 296.62 141.74 296.8L153.68 298.72Z" fill="#08A5B8" style="fill:#08A5B8;fill:color(display-p3 0.0314 0.6471 0.7216);fill-opacity:1;"/>
<path d="M220.96 337.41L219.04 349.35C218.86 350.49 217.79 351.26 216.65 351.08L204.71 349.16C205.95 341.43 213.23 336.17 220.96 337.41Z" fill="#08A5B8" style="fill:#08A5B8;fill:color(display-p3 0.0314 0.6471 0.7216);fill-opacity:1;"/>
<path d="M225 312.3L223.08 324.24C215.35 323 210.09 315.72 211.33 307.99L223.27 309.91C224.41 310.09 225.18 311.16 225 312.3Z" fill="#08A5B8" style="fill:#08A5B8;fill:color(display-p3 0.0314 0.6471 0.7216);fill-opacity:1;"/>
<path d="M180.05 313.34C185.9 313.8 190.28 318.92 189.82 324.77C189.36 330.63 184.24 335 178.39 334.54C172.53 334.08 168.16 328.96 168.62 323.11C169.08 317.26 174.2 312.88 180.05 313.34Z" fill="#08A5B8" style="fill:#08A5B8;fill:color(display-p3 0.0314 0.6471 0.7216);fill-opacity:1;"/>
<path d="M264.25 239.47L257.37 248.56L218.23 291.85L209.5 299.23C208.73 300.09 208.46 299.93 207.6 299.15L198.21 292.86L188.31 283.91L180.27 275.38C179.42 274.61 179.76 273.51 180.53 272.66L187.3 263.88L226.46 220.58L235.08 213.4C235.85 212.55 236.7 212.87 237.55 213.65L246.48 219.57L256.38 228.52L263.78 236.68C264.64 237.45 265.03 238.63 264.25 239.48V239.47Z" fill="#7DDFE9" style="fill:#7DDFE9;fill:color(display-p3 0.4902 0.8745 0.9137);fill-opacity:1;"/>
<path d="M206.18 281.16C204.49 281.16 202.79 280.56 201.44 279.34C198.55 276.73 198.32 272.25 200.94 269.36C203.55 266.47 208.03 266.25 210.92 268.86C213.81 271.47 214.03 275.95 211.42 278.84C210.02 280.38 208.1 281.16 206.17 281.16H206.18ZM206.18 270.78C205.27 270.78 204.37 271.15 203.72 271.87C202.49 273.23 202.6 275.32 203.95 276.55C205.3 277.77 207.4 277.67 208.63 276.31C209.86 274.96 209.75 272.86 208.39 271.63C207.76 271.06 206.96 270.77 206.17 270.77L206.18 270.78Z" fill="#04525C" style="fill:#04525C;fill:color(display-p3 0.0157 0.3216 0.3608);fill-opacity:1;"/>
<path d="M238.51 245.4C236.82 245.4 235.12 244.8 233.77 243.58C230.88 240.97 230.65 236.49 233.27 233.6C235.89 230.71 240.36 230.48 243.25 233.1C246.14 235.71 246.37 240.19 243.75 243.08C242.35 244.62 240.43 245.4 238.5 245.4H238.51ZM238.51 235.03C237.6 235.03 236.71 235.4 236.05 236.12C234.82 237.47 234.93 239.57 236.28 240.8C237.64 242.03 239.73 241.92 240.96 240.57C242.19 239.21 242.08 237.12 240.72 235.89C240.09 235.32 239.3 235.03 238.5 235.03H238.51Z" fill="#04525C" style="fill:#04525C;fill:color(display-p3 0.0157 0.3216 0.3608);fill-opacity:1;"/>
<path d="M218.23 291.85L210.12 300.82C209.35 301.67 208.03 301.74 207.17 300.97L198.2 292.86C203.45 287.05 212.42 286.6 218.23 291.85Z" fill="#08A5B8" style="fill:#08A5B8;fill:color(display-p3 0.0314 0.6471 0.7216);fill-opacity:1;"/>
<path d="M187.3 263.88C193.11 269.13 193.56 278.1 188.31 283.91L179.34 275.8C178.48 275.03 178.42 273.71 179.19 272.85L187.3 263.88Z" fill="#08A5B8" style="fill:#08A5B8;fill:color(display-p3 0.0314 0.6471 0.7216);fill-opacity:1;"/>
<path d="M256.38 228.52L265.35 236.63C266.21 237.4 266.27 238.72 265.5 239.58L257.39 248.55C251.58 243.3 251.13 234.34 256.38 228.53V228.52Z" fill="#08A5B8" style="fill:#08A5B8;fill:color(display-p3 0.0314 0.6471 0.7216);fill-opacity:1;"/>
<path d="M237.51 211.46L246.48 219.57C241.23 225.38 232.26 225.83 226.45 220.57L234.56 211.6C235.33 210.75 236.65 210.68 237.51 211.45V211.46Z" fill="#08A5B8" style="fill:#08A5B8;fill:color(display-p3 0.0314 0.6471 0.7216);fill-opacity:1;"/>
<path d="M229.48 248.33C233.84 252.27 234.17 258.99 230.24 263.35C226.3 267.71 219.58 268.05 215.22 264.1C210.86 260.16 210.52 253.44 214.46 249.08C218.4 244.72 225.12 244.38 229.48 248.33Z" fill="#08A5B8" style="fill:#08A5B8;fill:color(display-p3 0.0314 0.6471 0.7216);fill-opacity:1;"/>
<path d="M214.13 200.86L211.63 211.98L193.92 267.59L189.02 277.92C188.67 279.02 188.36 278.99 187.26 278.64L176.1 276.8L163.39 272.75L152.55 268.31C151.45 267.96 151.31 266.83 151.66 265.73L154.18 254.93L171.9 199.3L176.78 189.2C177.13 188.1 178.04 188.05 179.13 188.4L189.72 190.09L202.44 194.14L212.55 198.5C213.65 198.85 214.48 199.75 214.14 200.85L214.13 200.86Z" fill="#7DDFE9" style="fill:#7DDFE9;fill:color(display-p3 0.4902 0.8745 0.9137);fill-opacity:1;"/>
<path d="M175.6 263.48C174.88 263.48 174.16 263.37 173.45 263.14C169.74 261.96 167.68 257.98 168.86 254.26C170.04 250.55 174.02 248.49 177.74 249.67C181.45 250.85 183.51 254.84 182.33 258.55C181.76 260.35 180.52 261.82 178.84 262.69C177.82 263.21 176.71 263.48 175.6 263.48ZM175.6 253.1C174.19 253.1 172.89 254 172.44 255.41C171.89 257.15 172.85 259.02 174.59 259.57C176.33 260.12 178.2 259.16 178.75 257.42C179.31 255.68 178.34 253.81 176.6 253.26C176.27 253.15 175.93 253.1 175.6 253.1Z" fill="#04525C" style="fill:#04525C;fill:color(display-p3 0.0157 0.3216 0.3608);fill-opacity:1;"/>
<path d="M190.22 217.55C189.51 217.55 188.79 217.44 188.08 217.22C186.28 216.65 184.81 215.41 183.95 213.73C183.08 212.05 182.92 210.14 183.49 208.34C184.67 204.63 188.65 202.57 192.37 203.75C194.17 204.32 195.64 205.56 196.5 207.24C197.37 208.92 197.53 210.83 196.96 212.63C196 215.63 193.22 217.55 190.22 217.55ZM190.23 207.17C188.82 207.17 187.52 208.07 187.07 209.48C186.8 210.32 186.88 211.22 187.28 212.01C187.68 212.8 188.37 213.38 189.22 213.65C190.96 214.2 192.82 213.24 193.38 211.5C193.94 209.76 192.97 207.89 191.23 207.34C190.89 207.24 190.56 207.18 190.23 207.18V207.17Z" fill="#04525C" style="fill:#04525C;fill:color(display-p3 0.0157 0.3216 0.3608);fill-opacity:1;"/>
<path d="M193.92 267.59L190.25 279.12C189.9 280.22 188.73 280.82 187.63 280.48L176.11 276.81C178.49 269.35 186.46 265.22 193.92 267.6V267.59Z" fill="#08A5B8" style="fill:#08A5B8;fill:color(display-p3 0.0314 0.6471 0.7216);fill-opacity:1;"/>
<path d="M154.18 254.93C161.64 257.31 165.77 265.29 163.39 272.75L151.87 269.08C150.77 268.73 150.17 267.56 150.52 266.46L154.19 254.93H154.18Z" fill="#08A5B8" style="fill:#08A5B8;fill:color(display-p3 0.0314 0.6471 0.7216);fill-opacity:1;"/>
<path d="M202.43 194.15L213.95 197.82C215.05 198.17 215.65 199.34 215.31 200.44L211.64 211.96C204.18 209.58 200.06 201.61 202.44 194.15H202.43Z" fill="#08A5B8" style="fill:#08A5B8;fill:color(display-p3 0.0314 0.6471 0.7216);fill-opacity:1;"/>
<path d="M178.19 186.43L189.72 190.1C187.34 197.56 179.37 201.68 171.9 199.31L175.57 187.79C175.92 186.69 177.09 186.09 178.19 186.44V186.43Z" fill="#08A5B8" style="fill:#08A5B8;fill:color(display-p3 0.0314 0.6471 0.7216);fill-opacity:1;"/>
<path d="M193.55 233.45C193.55 239.32 188.79 244.08 182.92 244.08C177.05 244.08 172.28 239.32 172.28 233.45C172.28 227.58 177.04 222.82 182.92 222.82C188.8 222.82 193.55 227.58 193.55 233.45Z" fill="#08A5B8" style="fill:#08A5B8;fill:color(display-p3 0.0314 0.6471 0.7216);fill-opacity:1;"/>
<path d="M190.56 282.45C190.43 282.45 190.3 282.44 190.16 282.41L182.16 280.7C181.14 280.49 180.5 279.49 180.71 278.47C180.93 277.45 181.93 276.81 182.94 277.02L189.23 278.37L197.53 250.04C197.82 249.04 198.87 248.47 199.86 248.77C200.86 249.06 201.43 250.1 201.14 251.1L192.35 281.11C192.11 281.92 191.37 282.46 190.55 282.46L190.56 282.45Z" fill="black" style="fill:black;fill-opacity:1;"/>
</g>
<defs>
<clipPath id="clip0_609_755">
<rect width="384" height="384" fill="white" style="fill:white;fill-opacity:1;"/>
</clipPath>
</defs>
</svg>
