<svg width="384" height="384" viewBox="0 0 384 384" fill="none" xmlns="http://www.w3.org/2000/svg">
<g clip-path="url(#clip0_609_760)">
<path d="M312.72 143.46L292.87 209.03C293.01 209.75 293.15 210.48 293.26 211.22C293.47 212.22 294.66 217.31 297.97 224.67L248.72 271.72L185.82 268.96C180.64 256.62 177.64 246.16 175.93 238.73C175.61 237.92 175.36 237.06 175.2 236.17L153.7 119.12C152.28 111.39 157.38 103.94 165.13 102.54C171.93 101.29 178.47 105.09 180.94 111.26C180.76 104.37 185.59 98.18 192.59 96.9C199.85 95.56 206.83 99.99 208.84 106.94C207.92 99.52 212.91 92.55 220.39 91.2C227.47 89.9 234.27 94.09 236.47 100.74C235.85 93.51 240.79 86.85 248.08 85.53C255.82 84.11 263.24 89.23 264.66 96.96L275.34 155.07C277.46 148.07 279.57 141.07 281.69 134.07C284.28 125.51 293.33 120.66 301.9 123.25C310.46 125.85 315.31 134.89 312.72 143.46Z" fill="#8E4F3E" style="fill:#8E4F3E;fill:color(display-p3 0.5569 0.3098 0.2431);fill-opacity:1;"/>
<path d="M248.21 165.79C247.32 165.79 246.53 165.16 246.36 164.25L234.78 101.3C234.59 100.28 235.27 99.3 236.29 99.11C237.31 98.92 238.29 99.6 238.48 100.62L250.06 163.57C250.25 164.59 249.57 165.57 248.55 165.76C248.43 165.78 248.32 165.79 248.21 165.79Z" fill="black" style="fill:black;fill-opacity:1;"/>
<path d="M250.62 195.74C250.38 195.74 250.14 195.69 249.91 195.6C248.95 195.2 248.49 194.1 248.88 193.14C255.05 178.14 265.66 169.33 271.83 165.22L280.38 134.92C280.66 133.92 281.7 133.34 282.7 133.62C283.7 133.9 284.28 134.94 284 135.94L275.26 166.91C275.13 167.35 274.86 167.73 274.47 167.98C268.78 171.66 258.34 180.01 252.36 194.56C252.06 195.29 251.36 195.73 250.62 195.73V195.74Z" fill="black" style="fill:black;fill-opacity:1;"/>
<path d="M329.47 269.89C326.86 267.72 324.47 265.3 322.22 262.68C321.78 262.17 320.24 262.61 319.81 262.09C319.44 261.63 320.18 260.22 319.81 259.75C318.65 258.28 317.52 256.75 316.42 255.19C315.46 253.84 311.45 255.53 310.52 254.12C309.7 252.88 311.95 248.56 311.13 247.28C307.38 241.32 302.78 234.5 299.81 228.47C299.14 227.14 294.56 229.55 294.56 229.55L288.35 228.46L269.79 235.79L264.23 240.28L257.2 240.76L241.22 247.07L236.6 252.53L228.14 252.24L212.08 258.58L208.62 265.57L199.68 263.48L185.84 268.95C190.61 280.83 199.21 296.36 207.78 309.34C208.15 309.92 210.04 309.55 210.42 310.15C210.71 310.61 209.5 312.03 209.79 312.5C216.85 323.49 226.3 337.23 239.5 350.65C240.44 351.61 245.51 349.74 246.49 350.7C247.68 351.86 244.81 355.84 246.06 356.99C248.08 358.85 250.18 360.69 252.37 362.5C280.67 386.69 325.95 378.22 343.7 345.29C344.61 343.64 344.16 340.89 344.9 339.19C345.8 337.12 347.86 336.09 348.51 333.96C355.45 311.42 348.72 285.91 329.46 269.88L329.47 269.89Z" fill="#26C8DC" style="fill:#26C8DC;fill:color(display-p3 0.1490 0.7843 0.8627);fill-opacity:1;"/>
<path d="M241.32 252.29C239.95 255.93 235.88 257.76 232.24 256.38C230.27 255.63 228.82 254.08 228.13 252.25L241.22 247.08C241.89 248.69 241.97 250.54 241.31 252.29H241.32Z" fill="#26C8DC" style="fill:#26C8DC;fill:color(display-p3 0.1490 0.7843 0.8627);fill-opacity:1;"/>
<path d="M213.31 265.64C211.93 269.28 207.87 271.11 204.23 269.73C201.53 268.71 199.82 266.21 199.7 263.49L212.08 258.59C213.69 260.48 214.25 263.16 213.31 265.64Z" fill="#26C8DC" style="fill:#26C8DC;fill:color(display-p3 0.1490 0.7843 0.8627);fill-opacity:1;"/>
<path d="M299.77 228.41C297.96 230.95 294.59 232.07 291.54 230.92C290.2 230.42 289.11 229.54 288.34 228.46L297.97 224.66C298.51 225.85 299.11 227.11 299.76 228.41H299.77Z" fill="#26C8DC" style="fill:#26C8DC;fill:color(display-p3 0.1490 0.7843 0.8627);fill-opacity:1;"/>
<path d="M269.34 238.94C267.96 242.57 263.89 244.41 260.26 243.03C259 242.56 257.96 241.76 257.2 240.77L269.75 235.81C269.86 236.84 269.73 237.91 269.34 238.94Z" fill="#26C8DC" style="fill:#26C8DC;fill:color(display-p3 0.1490 0.7843 0.8627);fill-opacity:1;"/>
<path d="M316.42 255.2C316.35 255.68 316.22 256.15 316.05 256.62C314.67 260.26 310.6 262.09 306.97 260.71C303.33 259.34 301.49 255.27 302.87 251.63C304.14 248.27 307.72 246.44 311.14 247.29C312.87 250.01 314.62 252.66 316.42 255.2Z" fill="#26C8DC" style="fill:#26C8DC;fill:color(display-p3 0.1490 0.7843 0.8627);fill-opacity:1;"/>
<path d="M253.08 352.46C251.96 355.42 249.06 357.18 246.06 356.99C243.77 354.9 241.58 352.78 239.49 350.65C239.38 349.61 239.51 348.53 239.9 347.48C241.28 343.85 245.35 342.02 248.98 343.39C252.62 344.77 254.45 348.83 253.08 352.47V352.46Z" fill="#26C8DC" style="fill:#26C8DC;fill:color(display-p3 0.1490 0.7843 0.8627);fill-opacity:1;"/>
<path d="M348.53 333.95C347.33 337.85 345.72 341.66 343.7 345.31C342.22 343.43 341.74 340.85 342.65 338.45C343.63 335.88 345.97 334.2 348.53 333.95Z" fill="#26C8DC" style="fill:#26C8DC;fill:color(display-p3 0.1490 0.7843 0.8627);fill-opacity:1;"/>
<path d="M322.22 262.67C322.08 262.78 321.93 262.87 321.77 262.95L209.8 312.51C209.1 311.42 208.42 310.35 207.76 309.32C207.84 309.27 207.92 309.22 208.01 309.18L319.78 259.7C320.58 260.71 321.39 261.69 322.22 262.66V262.67Z" fill="#06899A" style="fill:#06899A;fill:color(display-p3 0.0235 0.5373 0.6039);fill-opacity:1;"/>
<path d="M218.34 102.53C211.55 101.28 205 105.08 202.54 111.26C202.72 104.37 197.9 98.17 190.89 96.9C183.63 95.57 176.64 100 174.64 106.94C175.56 99.51 170.56 92.55 163.09 91.2C156.01 89.9 149.2 94.09 147.01 100.74C147.63 93.51 142.68 86.84 135.39 85.53C127.66 84.11 120.23 89.23 118.81 96.96L108.14 155.06C106.02 148.06 103.9 141.06 101.78 134.06C99.1899 125.49 90.1399 120.65 81.5699 123.24C72.9999 125.83 68.1599 134.88 70.7599 143.45L90.5999 209.02C90.4599 209.75 90.3199 210.47 90.2099 211.21C89.8799 212.73 87.3099 223.77 78.3399 237.83C77.4599 239.21 76.5699 240.62 75.6599 242.06C68.9599 252.67 62.6399 262.7 53.9999 269.89C28.4199 291.18 24.9499 329.18 46.2399 354.75C58.1599 369.07 75.3099 376.46 92.5799 376.46C106.17 376.46 119.84 371.89 131.1 362.51C154.38 343.13 168.34 321.01 177.57 306.37C178.38 305.09 179.17 303.83 179.95 302.61C214.82 247.92 229.75 119.1 229.75 119.1C231.17 111.36 226.07 103.92 218.31 102.52L218.34 102.53Z" fill="#FFBFA8" style="fill:#FFBFA8;fill:color(display-p3 1.0000 0.7490 0.6588);fill-opacity:1;"/>
<path d="M164.13 165.84C164.02 165.84 163.9 165.84 163.79 165.81C162.77 165.62 162.09 164.64 162.28 163.62L172.88 105.43C173.07 104.41 174.05 103.73 175.07 103.91C176.09 104.1 176.77 105.08 176.59 106.1L165.99 164.29C165.83 165.2 165.03 165.83 164.14 165.83L164.13 165.84Z" fill="black" style="fill:black;fill-opacity:1;"/>
<path d="M191.83 173.7C191.72 173.7 191.6 173.7 191.49 173.67C190.47 173.48 189.79 172.51 189.98 171.48L200.84 112.07C201.03 111.05 202.01 110.37 203.03 110.56C204.05 110.75 204.73 111.73 204.54 112.75L193.68 172.16C193.51 173.07 192.72 173.7 191.83 173.7Z" fill="black" style="fill:black;fill-opacity:1;"/>
<path d="M135.28 165.79C135.17 165.79 135.05 165.79 134.94 165.76C133.92 165.57 133.24 164.59 133.43 163.57L145.01 100.62C145.2 99.6 146.19 98.92 147.21 99.11C148.23 99.3 148.91 100.28 148.72 101.3L137.14 164.25C136.97 165.16 136.18 165.79 135.29 165.79H135.28Z" fill="black" style="fill:black;fill-opacity:1;"/>
<path d="M193.3 295C190.39 300.26 187.22 305.3 183.95 310.41C181.35 314.53 178.38 319.24 174.94 324.31C174.64 324.76 173.56 324.77 173.25 325.22C172.85 325.8 173.22 326.82 172.81 327.41C169.32 332.42 165.37 337.73 160.88 343.16C160.12 344.08 159.44 343.56 158.64 344.48C157.69 345.59 156.63 348.13 155.64 349.25C138.76 368.17 119.81 384.25 92.5898 384C87.8298 384 83.1298 383.51 78.5698 382.55C77.7198 382.37 76.6698 380.78 75.8298 380.57C75.0998 380.39 74.5898 381.59 73.8698 381.38C66.6798 379.33 59.8798 376.09 53.7498 371.8C53.1198 371.36 52.9898 369.86 52.3698 369.4C51.8898 369.04 50.9198 369.72 50.4398 369.34C46.8198 366.46 43.4698 363.2 40.4598 359.58C34.2098 352.07 29.8598 343.59 27.3498 334.74C27.1898 334.18 27.9698 333.26 27.8298 332.69C27.6598 332.04 26.5798 331.74 26.4298 331.09C24.5298 322.59 24.2998 313.83 25.6798 305.31C25.7798 304.69 27.5598 303.83 27.6698 303.22C27.8098 302.47 26.2998 301.97 26.4698 301.23C29.6398 287.17 37.2798 274.01 49.1898 264.1C56.0198 258.41 61.5298 250.29 67.1198 241.49L137.16 254.07L193.3 295Z" fill="#7562DD" style="fill:#7562DD;fill:color(display-p3 0.4588 0.3843 0.8667);fill-opacity:1;"/>
<path d="M92.04 291C89.96 288 87.38 285.43 84.88 282.95C82.49 280.58 80.24 278.36 78.4 275.77C72.91 268.09 75.49 257.38 77.98 247.01C78.25 245.87 78.53 244.72 78.79 243.58L75.08 242.91C74.84 243.97 74.58 245.04 74.32 246.13C71.64 257.31 68.86 268.88 75.34 277.95C77.38 280.79 79.84 283.25 82.24 285.62C84.73 288.09 87.08 290.42 88.96 293.14C92.42 298.16 93.56 305.62 89.46 309.42C85.66 312.92 79.15 311.85 74.38 309.24C72.24 308.07 70.26 306.67 68.17 305.18C65.17 303.06 62.08 300.86 58.52 299.44C54.98 298.01 51.36 297.47 47.7 297.47C41.5 297.47 35.2 299.04 29.04 300.59C28.2 300.8 27.36 301.01 26.52 301.22C26.21 302.57 25.95 303.92 25.73 305.28C27.14 304.94 28.56 304.6 29.97 304.24C39.6 301.83 48.7 299.55 57.13 302.93C60.28 304.19 63.06 306.16 66 308.25C68.09 309.73 70.26 311.26 72.59 312.54C75.57 314.17 79.39 315.42 83.15 315.42C86.34 315.42 89.49 314.52 92.03 312.17C97.85 306.79 96.4 297.24 92.08 290.99L92.04 291Z" fill="#7562DD" style="fill:#7562DD;fill:color(display-p3 0.4588 0.3843 0.8667);fill-opacity:1;"/>
<path d="M38.5002 331.18C35.7602 330 31.5402 329.12 26.4502 331.07C26.7202 332.29 27.0202 333.5 27.3702 334.71C30.6602 333.34 33.9002 333.31 37.0302 334.64C46.7202 338.78 53.1902 355.57 50.4602 369.32C51.5402 370.18 52.6402 371 53.7602 371.78C53.8802 371.33 53.9902 370.86 54.0802 370.39C57.3602 354.75 49.9302 336.06 38.5102 331.17L38.5002 331.18Z" fill="#7562DD" style="fill:#7562DD;fill:color(display-p3 0.4588 0.3843 0.8667);fill-opacity:1;"/>
<path d="M156.42 330.47C152.59 326.81 146.37 325.52 140.21 327.1C134.87 328.47 130.16 331.62 126.01 334.39L125.42 334.78C115.64 341.31 107.19 346.95 96.0599 350.25C95.1299 350.53 94.1999 350.79 93.2599 351.05C84.4199 353.55 75.2699 356.14 72.6299 367.76C71.6199 372.22 72.1299 376.98 73.8899 381.36C75.4299 381.8 77.0099 382.2 78.5899 382.52C76.1599 378.18 75.2599 373.19 76.3099 368.59C78.4499 359.15 85.7899 357.07 94.2899 354.67C95.2399 354.4 96.1899 354.13 97.1299 353.86C108.81 350.4 117.47 344.61 127.52 337.91L128.11 337.52C132.2 334.79 136.43 331.96 141.15 330.76C142.45 330.42 143.93 330.22 145.45 330.22C148.41 330.22 151.54 331.01 153.83 333.2C156.9 336.12 157.98 341.34 156.59 346.5C156.34 347.43 156.02 348.34 155.66 349.25C157.49 347.21 159.23 345.17 160.92 343.15C161.17 338.78 160.08 333.94 156.44 330.47H156.42Z" fill="#7562DD" style="fill:#7562DD;fill:color(display-p3 0.4588 0.3843 0.8667);fill-opacity:1;"/>
<path d="M141.04 262.71C138.7 259.57 133.18 254.79 122.4 257.98C112.14 261.03 105.17 271.52 106.85 281.37C108.09 288.66 114 294.91 121.2 296.58C122.81 296.95 124.39 297.14 125.92 297.14C131.94 297.14 137.17 294.27 140.69 288.89C145.9 280.94 146.05 269.43 141.04 262.7V262.71ZM137.54 286.84C135.48 289.97 130.75 294.94 122.06 292.92C116.29 291.58 111.57 286.57 110.56 280.73C109.21 272.84 115.13 264.07 123.47 261.59C125.5 260.99 127.38 260.7 129.11 260.7C132.89 260.7 135.93 262.13 138.03 264.95C142.09 270.41 141.87 280.23 137.54 286.84Z" fill="#7562DD" style="fill:#7562DD;fill:color(display-p3 0.4588 0.3843 0.8667);fill-opacity:1;"/>
<path d="M170.81 320.63C166.11 314.49 167.39 306.12 168.73 297.27C169.75 290.53 170.82 283.56 169.11 277.37L164.54 274.04C164.7 275.35 164.98 276.71 165.39 278.07C167.01 283.55 165.99 290.24 165.01 296.7C163.6 305.94 162.15 315.49 167.82 322.91C169.23 324.75 170.96 326.2 172.81 327.41C173.55 326.36 174.25 325.32 174.94 324.3C173.37 323.27 171.92 322.07 170.81 320.62V320.63Z" fill="#7562DD" style="fill:#7562DD;fill:color(display-p3 0.4588 0.3843 0.8667);fill-opacity:1;"/>
<path d="M206.68 266.73C202.96 276.3 198.47 285.78 193.29 295L67.1201 241.49C67.8401 240.35 68.5701 239.2 69.3001 238.04C70.2201 236.59 71.1201 235.16 72.0001 233.77C77.2601 225.52 80.1401 218.45 81.6201 213.97C82.2801 211.97 83.7501 210.33 85.6801 209.47C87.6001 208.6 89.8001 208.59 91.7401 209.42L202.63 257.07C206.36 258.67 208.14 262.94 206.68 266.73Z" fill="#614CD8" style="fill:#614CD8;fill:color(display-p3 0.3804 0.2980 0.8471);fill-opacity:1;"/>
<path d="M180.91 257.78C186.73 258.26 191.06 263.37 190.58 269.2C190.1 275.02 184.99 279.35 179.16 278.86C173.34 278.38 169.01 273.27 169.5 267.45C169.98 261.63 175.09 257.3 180.91 257.78Z" fill="black" style="fill:black;fill-opacity:1;"/>
<path d="M55.18 144.46C55.04 144.46 54.91 144.45 54.77 144.42L15.36 135.64C14.34 135.41 13.71 134.4 13.93 133.39C14.16 132.37 15.16 131.73 16.18 131.96L55.59 140.74C56.61 140.97 57.24 141.98 57.02 142.99C56.82 143.87 56.04 144.46 55.18 144.46Z" fill="black" style="fill:black;fill-opacity:1;"/>
<path d="M82.6398 91.3902C82.2398 91.3902 81.8398 91.2702 81.4998 91.0002L50.0098 66.9102C49.1898 66.2802 49.0198 65.0901 49.6598 64.2701C50.2898 63.4501 51.4698 63.2901 52.2998 63.9201L83.7898 88.0102C84.6098 88.6402 84.7698 89.8302 84.1398 90.6502C83.7698 91.1302 83.2098 91.3902 82.6398 91.3902Z" fill="black" style="fill:black;fill-opacity:1;"/>
<path d="M131.71 54.86C131.02 54.86 130.35 54.48 130.03 53.82L112.71 19.18C112.25 18.25 112.62 17.12 113.55 16.65C114.48 16.19 115.61 16.56 116.08 17.49L133.4 52.13C133.86 53.06 133.48 54.19 132.56 54.66C132.29 54.8 132.01 54.86 131.72 54.86H131.71Z" fill="black" style="fill:black;fill-opacity:1;"/>
<path d="M192.67 42.0898C191.62 42.0898 190.78 41.2298 190.79 40.1998L191.06 1.87977C191.06 0.839766 191.91 0.00976562 192.94 0.00976562C193.99 0.00976562 194.83 0.869766 194.82 1.90977L194.55 40.2298C194.55 41.2698 193.7 42.0998 192.67 42.0998V42.0898Z" fill="black" style="fill:black;fill-opacity:1;"/>
<path d="M253.44 55.6198C253.15 55.6198 252.85 55.5498 252.57 55.4098C251.65 54.9298 251.29 53.7998 251.77 52.8698L269.58 18.4498C270.06 17.5298 271.2 17.1698 272.12 17.6498C273.05 18.1298 273.41 19.2598 272.93 20.1898L255.12 54.6098C254.78 55.2598 254.13 55.6298 253.45 55.6298L253.44 55.6198Z" fill="black" style="fill:black;fill-opacity:1;"/>
<path d="M301.99 92.7801C301.42 92.7801 300.85 92.5201 300.48 92.0201C299.86 91.1901 300.03 90.0101 300.87 89.3901L332.69 65.6901C333.52 65.0701 334.7 65.2401 335.32 66.0701C335.94 66.9101 335.77 68.0901 334.94 68.7101L303.11 92.4101C302.77 92.6601 302.38 92.7801 301.99 92.7801Z" fill="black" style="fill:black;fill-opacity:1;"/>
<path d="M328.7 146.19C327.82 146.19 327.04 145.58 326.86 144.69C326.65 143.67 327.3 142.67 328.32 142.46L367.86 134.18C368.88 133.97 369.87 134.62 370.09 135.64C370.3 136.65 369.65 137.65 368.63 137.87L329.09 146.15C328.96 146.18 328.83 146.19 328.7 146.19Z" fill="black" style="fill:black;fill-opacity:1;"/>
</g>
<defs>
<clipPath id="clip0_609_760">
<rect width="384" height="384" fill="white" style="fill:white;fill-opacity:1;"/>
</clipPath>
</defs>
</svg>
