<svg width="384" height="384" viewBox="0 0 384 384" fill="none" xmlns="http://www.w3.org/2000/svg">
<g clip-path="url(#clip0_680_1648)">
<path d="M343.56 384H40.4399C35.8399 384 32.1099 380.27 32.1099 375.67V375.34L32.8599 374.09L32.1099 371.59V359.23L32.8599 357.52L32.1099 355.48V343.12L32.8599 341.24L32.1099 339.36V327L32.8599 325.5L32.1099 323.25V310.89L32.8599 309.32L32.1099 307.14V294.79L32.8599 293.04L32.1099 291.03V278.66L32.8599 276.96L32.1099 274.91V262.55L32.8599 260.49L32.1099 258.8V246.44L32.8599 245.37C32.8599 244.43 32.2699 243.53 32.5499 242.69C33.6599 239.4 36.7699 237.04 40.4399 237.04H126.39L195.83 232.81L265.81 237.04H343.57C347.24 237.04 350.34 239.41 351.46 242.69C351.75 243.53 351.15 244.43 351.15 245.37L351.9 246.5V258.9L351.15 260.68L351.9 262.59V274.99L351.15 277.29L351.9 278.82V291.04L351.15 292.92L351.9 294.91V307.16L351.15 309.04L351.9 310.86V323.27L351.15 324.88L351.9 327.02V339.38L351.15 341.26L351.9 343.08V355.5L351.15 357.38L351.9 359.26V371.62L351.15 373.5L351.9 375.27V375.7C351.9 380.3 348.17 384.02 343.57 384.02L343.56 384Z" fill="#7562DD" style="fill:#7562DD;fill:color(display-p3 0.4588 0.3843 0.8667);fill-opacity:1;"/>
<path d="M351.89 371.59H32.1099V375.34H351.89V371.59Z" fill="#7562DD" style="fill:#7562DD;fill:color(display-p3 0.4588 0.3843 0.8667);fill-opacity:1;"/>
<path d="M351.89 355.48H32.1099V359.23H351.89V355.48Z" fill="#7562DD" style="fill:#7562DD;fill:color(display-p3 0.4588 0.3843 0.8667);fill-opacity:1;"/>
<path d="M351.89 339.38H32.1099V343.13H351.89V339.38Z" fill="#7562DD" style="fill:#7562DD;fill:color(display-p3 0.4588 0.3843 0.8667);fill-opacity:1;"/>
<path d="M351.89 323.27H32.1099V327.02H351.89V323.27Z" fill="#7562DD" style="fill:#7562DD;fill:color(display-p3 0.4588 0.3843 0.8667);fill-opacity:1;"/>
<path d="M351.89 307.16H32.1099V310.91H351.89V307.16Z" fill="#7562DD" style="fill:#7562DD;fill:color(display-p3 0.4588 0.3843 0.8667);fill-opacity:1;"/>
<path d="M351.89 291.05H32.1099V294.8H351.89V291.05Z" fill="#7562DD" style="fill:#7562DD;fill:color(display-p3 0.4588 0.3843 0.8667);fill-opacity:1;"/>
<path d="M351.89 274.93H32.1099V278.68H351.89V274.93Z" fill="#7562DD" style="fill:#7562DD;fill:color(display-p3 0.4588 0.3843 0.8667);fill-opacity:1;"/>
<path d="M351.89 258.82H32.1099V262.57H351.89V258.82Z" fill="#7562DD" style="fill:#7562DD;fill:color(display-p3 0.4588 0.3843 0.8667);fill-opacity:1;"/>
<path d="M351.89 245.39V246.46H32.1099V245.39C32.1099 244.45 32.2699 243.55 32.5499 242.71H351.45C351.74 243.55 351.89 244.45 351.89 245.39Z" fill="#7562DD" style="fill:#7562DD;fill:color(display-p3 0.4588 0.3843 0.8667);fill-opacity:1;"/>
<path d="M316.71 361.84H132.38C130.96 361.84 129.8 360.68 129.8 359.26V253.58C129.8 252.15 130.95 251 132.38 251H316.72C318.15 251 319.3 252.16 319.3 253.58V359.27C319.3 360.69 318.15 361.85 316.72 361.85L316.71 361.84Z" fill="#FF6933" style="fill:#FF6933;fill:color(display-p3 1.0000 0.4118 0.2000);fill-opacity:1;"/>
<path d="M307.77 354.35H142.71C140.79 354.35 139.23 352.79 139.23 350.87V261.97C139.23 260.05 140.79 258.49 142.71 258.49H307.77C309.69 258.49 311.25 260.05 311.25 261.97V350.87C311.25 352.79 309.69 354.35 307.77 354.35Z" fill="white" style="fill:white;fill-opacity:1;"/>
<path d="M201.17 335.52C197.96 335.52 196.28 333.99 194.94 332.76C193.77 331.69 192.99 330.98 191.24 330.98C189.49 330.98 188.71 331.69 187.54 332.76C186.2 333.99 184.52 335.52 181.31 335.52C178.1 335.52 176.43 333.99 175.08 332.76C173.91 331.69 173.13 330.98 171.38 330.98C169.63 330.98 168.85 331.69 167.68 332.76C166.34 333.99 164.66 335.52 161.45 335.52C158.24 335.52 156.56 333.99 155.22 332.76C154.05 331.69 153.28 330.98 151.52 330.98C150.48 330.98 149.64 330.14 149.64 329.1C149.64 328.06 150.48 327.22 151.52 327.22C154.73 327.22 156.4 328.75 157.75 329.98C158.92 331.05 159.69 331.76 161.45 331.76C163.21 331.76 163.98 331.05 165.15 329.98C166.49 328.75 168.17 327.22 171.38 327.22C174.59 327.22 176.26 328.75 177.61 329.98C178.78 331.05 179.56 331.76 181.31 331.76C183.06 331.76 183.84 331.05 185.01 329.98C186.35 328.75 188.03 327.22 191.24 327.22C194.45 327.22 196.13 328.75 197.47 329.98C198.65 331.05 199.42 331.76 201.18 331.76C202.94 331.76 203.71 331.05 204.88 329.98C206.22 328.75 207.9 327.22 211.11 327.22C212.15 327.22 212.99 328.06 212.99 329.1C212.99 330.14 212.15 330.98 211.11 330.98C209.35 330.98 208.58 331.69 207.41 332.76C206.06 333.99 204.39 335.52 201.18 335.52H201.17Z" fill="black" style="fill:black;fill-opacity:1;"/>
<path d="M201.17 311.81C197.96 311.81 196.28 310.28 194.94 309.05C193.77 307.98 192.99 307.27 191.24 307.27C189.49 307.27 188.71 307.98 187.54 309.05C187.33 309.24 187.12 309.43 186.91 309.62C186.13 310.3 184.94 310.22 184.27 309.44C183.59 308.66 183.67 307.48 184.45 306.8C184.64 306.63 184.83 306.46 185.01 306.3C186.35 305.07 188.03 303.54 191.24 303.54C194.45 303.54 196.13 305.07 197.47 306.3C198.65 307.37 199.42 308.08 201.18 308.08C202.94 308.08 203.71 307.37 204.88 306.3C206.22 305.07 207.9 303.54 211.11 303.54C212.15 303.54 212.99 304.38 212.99 305.42C212.99 306.46 212.15 307.3 211.11 307.3C209.35 307.3 208.58 308.01 207.41 309.08C206.06 310.31 204.39 311.84 201.18 311.84L201.17 311.81Z" fill="black" style="fill:black;fill-opacity:1;"/>
<path d="M289.02 335.52C285.81 335.52 284.13 333.99 282.79 332.76C281.61 331.69 280.84 330.98 279.08 330.98C277.32 330.98 276.55 331.69 275.38 332.76C274.04 333.99 272.36 335.52 269.15 335.52C265.94 335.52 264.27 333.99 262.92 332.76C261.75 331.69 260.97 330.98 259.22 330.98C257.47 330.98 256.69 331.69 255.52 332.76C254.18 333.99 252.5 335.52 249.29 335.52C246.08 335.52 244.41 333.99 243.06 332.76C241.89 331.69 241.11 330.98 239.36 330.98C238.32 330.98 237.48 330.14 237.48 329.1C237.48 328.06 238.32 327.22 239.36 327.22C242.57 327.22 244.24 328.75 245.59 329.98C246.76 331.05 247.53 331.76 249.29 331.76C251.05 331.76 251.82 331.05 252.99 329.98C254.34 328.75 256.01 327.22 259.22 327.22C262.43 327.22 264.11 328.75 265.45 329.98C266.62 331.05 267.4 331.76 269.15 331.76C270.9 331.76 271.68 331.05 272.85 329.98C274.19 328.75 275.87 327.22 279.08 327.22C282.29 327.22 283.97 328.75 285.31 329.98C286.48 331.05 287.26 331.76 289.01 331.76C290.76 331.76 291.54 331.05 292.71 329.98C294.06 328.75 295.73 327.22 298.94 327.22C299.97 327.22 300.82 328.06 300.82 329.1C300.82 330.14 299.98 330.98 298.94 330.98C297.18 330.98 296.41 331.69 295.24 332.76C293.89 333.99 292.22 335.52 289.01 335.52H289.02Z" fill="black" style="fill:black;fill-opacity:1;"/>
<path d="M289.02 311.81C285.81 311.81 284.13 310.28 282.79 309.05C281.61 307.98 280.84 307.27 279.08 307.27C277.32 307.27 276.55 307.98 275.38 309.05C274.03 310.28 272.36 311.81 269.15 311.81C265.94 311.81 264.27 310.28 262.92 309.05C261.75 307.98 260.97 307.27 259.22 307.27C257.47 307.27 256.69 307.98 255.52 309.05C254.18 310.28 252.5 311.81 249.29 311.81C246.08 311.81 244.41 310.28 243.06 309.05C241.89 307.98 241.11 307.27 239.36 307.27C238.32 307.27 237.48 306.43 237.48 305.39C237.48 304.35 238.32 303.51 239.36 303.51C242.57 303.51 244.24 305.04 245.59 306.27C246.76 307.34 247.53 308.04 249.29 308.04C251.05 308.04 251.82 307.34 252.99 306.27C254.33 305.04 256.01 303.51 259.22 303.51C262.43 303.51 264.11 305.04 265.45 306.27C266.63 307.34 267.4 308.05 269.15 308.05C270.9 308.05 271.68 307.35 272.85 306.28C274.19 305.05 275.87 303.52 279.08 303.52C282.29 303.52 283.97 305.05 285.31 306.28C286.48 307.35 287.26 308.06 289.01 308.06C290.76 308.06 291.54 307.35 292.72 306.28C294.06 305.05 295.74 303.52 298.95 303.52C299.98 303.52 300.83 304.36 300.83 305.4C300.83 306.44 299.99 307.28 298.95 307.28C297.19 307.28 296.42 307.99 295.25 309.06C293.9 310.29 292.23 311.82 289.02 311.82V311.81Z" fill="black" style="fill:black;fill-opacity:1;"/>
<path d="M225.24 356.23C224.2 356.23 223.36 355.39 223.36 354.35V258.49C223.36 257.45 224.2 256.61 225.24 256.61C226.28 256.61 227.12 257.45 227.12 258.49V354.35C227.12 355.39 226.28 356.23 225.24 356.23Z" fill="black" style="fill:black;fill-opacity:1;"/>
<path d="M109.73 355.71L92.4902 348.4C92.1702 348.26 91.8302 348.24 91.5102 348.29C91.2402 348.34 90.5202 347.77 90.3102 347.95C90.1202 348.11 90.4202 349.01 90.3202 349.24C90.2202 349.47 90.1702 349.72 90.1802 349.98L90.9702 368.69C91.0302 370.14 89.1602 370.77 88.3402 369.58L87.6302 368.56L86.7602 365.4L84.1202 363.5L79.5602 356.92L78.9602 353.96L75.9102 351.64L71.4402 345.19L70.5202 342.05L67.7402 339.85L62.5802 332.4L61.7202 329.22L59.0102 327.23L53.6202 319.45L52.7002 316.82L50.3702 314.76L45.5802 307.85L45.1802 305.46C44.5702 304.57 43.7002 303.84 44.3802 303.07C44.5102 302.93 44.6502 302.79 44.8102 302.67L51.4002 298.11L54.6302 297.88L56.1402 294.82L64.0002 289.37C64.0002 289.37 65.9602 289.47 66.6802 290.52L68.6902 291.81L74.5302 300.23L75.7102 303.1L77.9602 305.18L82.6202 311.9L83.4602 315.17L86.2102 317.09L90.7002 323.59L91.5802 327.46L94.3502 328.85L99.6002 336.43L101.01 339.39L103.08 341.45L107.08 347.22L108.52 350.69L110.73 352.49L111.47 353.56C112.29 354.75 111.05 356.28 109.72 355.72L109.73 355.71Z" fill="#FF9066" style="fill:#FF9066;fill:color(display-p3 1.0000 0.5647 0.4000);fill-opacity:1;"/>
<path d="M46.1198 306.58C46.0298 307.06 45.8298 307.49 45.5598 307.86L44.1998 305.9C43.5898 305.01 43.6798 303.84 44.3598 303.06C45.6398 303.69 46.3898 305.12 46.1098 306.59L46.1198 306.58Z" fill="#FF9066" style="fill:#FF9066;fill:color(display-p3 1.0000 0.5647 0.4000);fill-opacity:1;"/>
<path d="M68.7 291.81C68.08 292.13 67.36 292.26 66.62 292.11C65.22 291.84 64.19 290.7 64.02 289.35L64.12 289.27C65.17 288.54 66.62 288.81 67.35 289.86L68.7 291.81Z" fill="#FF9066" style="fill:#FF9066;fill:color(display-p3 1.0000 0.5647 0.4000);fill-opacity:1;"/>
<path d="M86.1898 317.05C85.6398 317.26 85.0298 317.33 84.4198 317.21C82.6498 316.87 81.4998 315.18 81.8398 313.42C81.9498 312.82 82.2298 312.3 82.5998 311.87L86.1898 317.05Z" fill="#FF9066" style="fill:#FF9066;fill:color(display-p3 1.0000 0.5647 0.4000);fill-opacity:1;"/>
<path d="M57.8001 298.29C57.4601 300.05 55.7601 301.21 54.0001 300.87C52.5901 300.6 51.5601 299.45 51.3901 298.09L56.1301 294.8C57.3601 295.44 58.0801 296.84 57.8001 298.28V298.29Z" fill="#FF9066" style="fill:#FF9066;fill:color(display-p3 1.0000 0.5647 0.4000);fill-opacity:1;"/>
<path d="M77.9598 305.18C77.5298 305.29 77.0798 305.3 76.6298 305.21C74.8598 304.87 73.7098 303.17 74.0498 301.41C74.1298 300.98 74.2998 300.58 74.5398 300.23L77.9698 305.18H77.9598Z" fill="#FF9066" style="fill:#FF9066;fill:color(display-p3 1.0000 0.5647 0.4000);fill-opacity:1;"/>
<path d="M53.9199 318.59C53.8599 318.89 53.7599 319.19 53.6099 319.46L50.3599 314.76C50.6799 314.71 51.0099 314.73 51.3399 314.79C53.1099 315.13 54.2499 316.83 53.9199 318.59Z" fill="#FF9066" style="fill:#FF9066;fill:color(display-p3 1.0000 0.5647 0.4000);fill-opacity:1;"/>
<path d="M94.3902 328.88C93.7402 329.23 92.9802 329.38 92.2102 329.22C90.4502 328.88 89.3002 327.18 89.6302 325.42C89.7702 324.67 90.1702 324.03 90.7102 323.56L94.3902 328.88Z" fill="#FF9066" style="fill:#FF9066;fill:color(display-p3 1.0000 0.5647 0.4000);fill-opacity:1;"/>
<path d="M63.29 330.88C63.18 331.45 62.92 331.97 62.56 332.39L58.98 327.22C59.51 327.02 60.1 326.96 60.7 327.08C62.47 327.42 63.62 329.12 63.28 330.88H63.29Z" fill="#FF9066" style="fill:#FF9066;fill:color(display-p3 1.0000 0.5647 0.4000);fill-opacity:1;"/>
<path d="M80.4499 355.21C80.3199 355.88 79.9999 356.46 79.5499 356.9L75.8999 351.64C76.4899 351.37 77.1799 351.27 77.8699 351.41C79.6399 351.75 80.7899 353.45 80.4499 355.21Z" fill="#FF9066" style="fill:#FF9066;fill:color(display-p3 1.0000 0.5647 0.4000);fill-opacity:1;"/>
<path d="M72.66 343.19C72.5 344.01 72.05 344.7 71.43 345.17L67.73 339.84C68.4 339.41 69.23 339.23 70.07 339.39C71.84 339.73 72.99 341.43 72.65 343.19H72.66Z" fill="#FF9066" style="fill:#FF9066;fill:color(display-p3 1.0000 0.5647 0.4000);fill-opacity:1;"/>
<path d="M103.09 341.45C102.61 341.58 102.1 341.61 101.58 341.52C99.8198 341.18 98.6698 339.48 98.9998 337.72C99.0998 337.22 99.2998 336.77 99.5898 336.39L103.09 341.45Z" fill="#FF9066" style="fill:#FF9066;fill:color(display-p3 1.0000 0.5647 0.4000);fill-opacity:1;"/>
<path d="M92.1301 346.92C92.0301 347.44 91.8201 347.9 91.5101 348.29C90.9901 348.4 90.5401 348.75 90.3301 349.24C89.7301 349.53 89.0401 349.63 88.3301 349.49C86.5701 349.15 85.4101 347.45 85.7501 345.69C86.0901 343.92 87.7901 342.77 89.5501 343.11C91.3001 343.45 92.4601 345.15 92.1301 346.91V346.92Z" fill="#FF9066" style="fill:#FF9066;fill:color(display-p3 1.0000 0.5647 0.4000);fill-opacity:1;"/>
<path d="M110.74 352.48C110.13 352.78 109.43 352.89 108.71 352.75C106.95 352.41 105.8 350.71 106.13 348.95C106.26 348.26 106.6 347.66 107.08 347.21L110.73 352.48H110.74Z" fill="#FF9066" style="fill:#FF9066;fill:color(display-p3 1.0000 0.5647 0.4000);fill-opacity:1;"/>
<path d="M88.2399 367.21C88.1399 367.72 87.9299 368.18 87.6399 368.56L84.1299 363.5C84.6099 363.35 85.1299 363.31 85.6599 363.42C87.4299 363.76 88.5799 365.45 88.2399 367.21Z" fill="#FF9066" style="fill:#FF9066;fill:color(display-p3 1.0000 0.5647 0.4000);fill-opacity:1;"/>
<path d="M334.69 228.52C334.53 227.27 334.35 226.04 334.14 224.82C333.97 223.88 333.15 223.88 332.96 222.97C332.72 221.86 333.09 219.83 332.8 218.76C331 212.04 328.29 206.1 324.91 200.85C324.28 199.88 322.27 199.26 321.59 198.34C320.92 197.41 321.6 196.18 320.89 195.3C316.87 190.32 312.21 186.06 307.17 182.4C306.56 181.96 304.92 182.34 304.29 181.91C303.57 181.41 303.86 180.11 303.13 179.64C279.54 164.49 249.71 161.09 238.2 159.42C237.3 159.29 234.74 156.76 234.74 156.76H156.89L135.39 166.01C134.34 166.58 131.86 167.81 129.22 169.11C125.82 170.79 121.75 172.8 117.27 175.1C116.71 175.39 116.54 176.32 115.97 176.62C115.35 176.94 114.33 176.62 113.7 176.95C108.58 179.63 103.07 182.66 97.5101 185.96C96.8901 186.33 96.31 187.9 95.68 188.28C95.05 188.66 94.3701 187.86 93.7401 188.24C89.6001 190.8 85.48 193.5 81.53 196.33C71.7 203.37 64.2401 210.24 58.7801 217.29C58.2801 217.94 58.35 219.51 57.88 220.17C57.54 220.64 56.66 220.19 56.34 220.66C52.54 226.28 50.21 231.67 48.91 236.67C48.73 237.38 49.83 237.6 49.69 238.3C49.57 238.87 48.19 239.93 48.1 240.49C46.59 249.45 48.22 256.83 49.86 261.47C51.2 265.24 53.02 268.51 55.18 271.34C55.59 271.88 56.5801 271.81 57.0201 272.32C57.4001 272.76 57.2301 273.79 57.6201 274.2C64.5101 281.47 73.84 285.35 82.3 287.48C82.95 287.65 83.64 286.82 84.28 286.96C85.13 287.15 85.9201 288.31 86.7401 288.46C92.3401 289.55 97.23 289.93 100.27 290.17C103.03 290.39 105.94 290.55 109 290.63C109.55 290.65 110.19 289.36 110.75 289.38C111.43 289.4 112.04 290.71 112.73 290.72C113.84 290.74 114.96 290.74 116.1 290.74C124.56 290.74 122.04 290.58 122.04 290.58L124.59 264.08L122.72 235.92C122.04 235.92 121.37 235.94 120.72 235.95C120.85 235.87 120.99 235.79 121.11 235.7C123.43 234.25 125.79 232.84 128.15 231.47L126 237.07H265.59L258.75 219.28C269.84 222.58 279.37 227.55 280.33 235.26C280.44 236.14 280.72 238.46 275.33 243.01C273.78 244.32 271.78 245.12 269.73 246.38L277.78 274.14L293.48 296.54C296.18 295.05 298.75 293.49 301.21 291.88C301.82 291.48 302.02 289.52 302.61 289.11C303.11 288.77 304 289.97 304.49 289.63C306.67 288.08 308.73 286.47 310.69 284.82C319.96 276.98 326.72 267.89 330.74 258.07C331 257.44 330.49 255.41 330.73 254.78C331.02 254 332.04 254.62 332.3 253.83C334.92 245.75 335.74 237.23 334.67 228.54L334.69 228.52Z" fill="#60D7E5" style="fill:#60D7E5;fill:color(display-p3 0.3765 0.8431 0.8980);fill-opacity:1;"/>
<path d="M97.4899 185.98C96.2399 186.71 94.9999 187.47 93.7599 188.24C93.7599 188.46 93.7399 188.68 93.7199 188.89C93.1699 195.96 89.5899 198.45 85.0499 201.6C82.4499 203.4 79.5099 205.44 76.9799 208.56C75.3799 210.52 74.3999 212.86 73.4399 215.12C72.0699 218.36 70.8999 221.14 68.3499 222.29C65.2899 223.67 61.4899 221.65 59.7199 218.97C59.3799 218.45 59.0699 217.89 58.8099 217.29C58.3099 217.94 57.8199 218.58 57.3499 219.23C57.0099 219.71 56.6799 220.18 56.3599 220.66C56.4299 220.79 56.5099 220.92 56.5899 221.04C58.6199 224.1 62.3899 226.48 66.2399 226.48C67.4699 226.48 68.6999 226.24 69.8899 225.71C73.7799 223.95 75.3599 220.21 76.8999 216.59C77.7899 214.47 78.6299 212.47 79.8899 210.93C82.0899 208.22 84.6799 206.42 87.1899 204.68C91.9099 201.41 96.7799 198.03 97.4599 189.18C97.5399 188.15 97.5499 187.09 97.4899 185.99V185.98Z" fill="#60D7E5" style="fill:#60D7E5;fill:color(display-p3 0.3765 0.8431 0.8980);fill-opacity:1;"/>
<path d="M153.98 180.37C153.74 176.11 150.8 173.28 147.98 170.55C146.32 168.96 144.76 167.45 143.77 165.72C143.25 164.81 142.81 163.89 142.44 162.98L138.99 164.46C139.41 165.5 139.92 166.55 140.51 167.59C141.77 169.78 143.6 171.54 145.37 173.25C147.89 175.69 150.07 177.79 150.23 180.58C150.42 183.93 147.16 186.76 144.03 187.45C140.96 188.12 137.41 187.52 132.84 185.57C128.74 183.81 122.71 179.94 117.28 175.09C116.11 175.69 114.91 176.31 113.69 176.96C119.83 182.65 126.82 187.07 131.36 189.01C133.97 190.13 137.61 191.46 141.5 191.46C142.59 191.46 143.71 191.35 144.84 191.11C149.57 190.07 154.27 185.76 153.97 180.37H153.98Z" fill="#735400" style="fill:#735400;fill:color(display-p3 0.4510 0.3294 0.0000);fill-opacity:1;"/>
<path d="M317.27 246.24C308.15 246.52 301.27 254.61 299.18 262.45C296.66 271.93 298.79 282.02 301.23 291.87C302.35 291.14 303.46 290.38 304.53 289.6C302.35 280.64 300.63 271.58 302.8 263.41C304.53 256.91 310.1 250.21 317.39 249.98C317.51 249.98 317.64 249.98 317.77 249.98C323.31 249.98 327.94 253.68 330.76 258.05C331.34 256.66 331.85 255.26 332.3 253.84C328.72 249.43 323.46 246.05 317.26 246.23L317.27 246.24Z" fill="#60D7E5" style="fill:#60D7E5;fill:color(display-p3 0.3765 0.8431 0.8980);fill-opacity:1;"/>
<path d="M57.1101 238.17C54.7101 236.95 51.9001 236.37 48.9501 236.6C48.6101 237.91 48.3301 239.2 48.1201 240.45C48.8101 240.33 49.4901 240.27 50.1701 240.27C52.0501 240.27 53.8401 240.71 55.4301 241.52C61.7301 244.69 65.3701 253.62 60.1401 264.55C59.7701 265.33 59.3401 266.08 58.8601 266.79C57.6601 268.56 56.4401 270.05 55.2001 271.28C55.9601 272.29 56.7701 273.23 57.6201 274.13C59.1201 272.68 60.5801 270.94 61.9601 268.89C62.5501 268.03 63.0701 267.11 63.5201 266.17C69.7901 253.07 65.0401 242.17 57.1201 238.17H57.1101Z" fill="#60D7E5" style="fill:#60D7E5;fill:color(display-p3 0.3765 0.8431 0.8980);fill-opacity:1;"/>
<path d="M105.59 264.43C104.53 269.46 105.92 274.46 107.25 279.31C108.35 283.28 109.4 287.1 109.02 290.62C110.25 290.66 111.5 290.69 112.78 290.7C113.16 286.58 112 282.4 110.87 278.31C109.61 273.7 108.41 269.34 109.27 265.2C110.38 259.88 115.59 254.75 123.42 251L123.47 246.84C113.47 251.28 107.05 257.5 105.6 264.43H105.59ZM150.38 220.18C148.91 213.18 144.57 206.93 138.75 203.49C128.35 197.32 113.95 198.58 102.91 206.61C91.52 214.88 85.94 227.89 83.26 237.34C78.76 253.24 78.23 272.4 81.91 286.15C82.02 286.58 82.16 287.02 82.32 287.46C83.85 287.84 85.34 288.17 86.79 288.45C86.24 287.34 85.83 286.24 85.54 285.18C82.02 272.04 82.55 253.66 86.87 238.37C89.39 229.48 94.59 217.29 105.12 209.64C114.81 202.59 127.86 201.39 136.84 206.71C141.77 209.63 145.46 214.95 146.71 220.95C147.8 226.16 146.9 231.14 144.15 234.94C143.61 235.7 143.01 236.39 142.36 237.05H147.25C150.57 232.39 151.68 226.41 150.39 220.18H150.38Z" fill="#60D7E5" style="fill:#60D7E5;fill:color(display-p3 0.3765 0.8431 0.8980);fill-opacity:1;"/>
<path d="M332.8 218.76C331.3 224.12 326.51 228.46 321.2 229.01C316.47 229.49 311.25 227.09 307.91 222.89C303.79 217.72 302.02 207.73 306.05 201.67C307.72 199.14 310.95 198.14 314.46 198.14C318.15 198.14 322.14 199.25 324.91 200.85C323.66 198.9 322.31 197.04 320.87 195.27C314.56 193.63 306.68 193.92 302.92 199.58C297.76 207.34 299.97 218.93 304.97 225.22C308.78 230 314.39 232.82 319.93 232.82C320.48 232.82 321.04 232.8 321.57 232.73C326.68 232.21 331.3 229.13 334.12 224.8C333.76 222.71 333.32 220.71 332.79 218.76H332.8Z" fill="#60D7E5" style="fill:#60D7E5;fill:color(display-p3 0.3765 0.8431 0.8980);fill-opacity:1;"/>
<path d="M303.14 179.64C302.33 179.86 301.53 180.05 300.74 180.19C292.71 181.72 265.54 180.53 259.43 171.87C257.77 169.52 257.93 166.73 259.92 163.33C259.97 163.25 260.02 163.17 260.08 163.08C258.76 162.8 257.47 162.53 256.21 162.29C253.37 167.73 254.69 171.66 256.37 174.04C262.01 182.05 280.48 184.5 292.6 184.5C296.33 184.5 299.47 184.27 301.44 183.89C303.27 183.54 305.17 183.02 307.08 182.34C305.79 181.4 304.47 180.5 303.14 179.64Z" fill="#60D7E5" style="fill:#60D7E5;fill:color(display-p3 0.3765 0.8431 0.8980);fill-opacity:1;"/>
<path d="M200.97 224.82C200.97 227.66 198.67 229.97 195.82 229.97C192.97 229.97 190.68 227.66 190.68 224.82C190.68 221.98 192.98 219.68 195.82 219.68C198.66 219.68 200.97 221.98 200.97 224.82Z" fill="black" style="fill:black;fill-opacity:1;"/>
<path d="M195.82 190.79L139.88 181.51L169.34 225.92C170.25 227.3 172.21 227.48 173.36 226.28L195.82 202.99L218.28 226.28C219.43 227.47 221.38 227.3 222.3 225.92L251.76 181.51L195.81 190.79H195.82Z" fill="white" style="fill:white;fill-opacity:1;"/>
<path d="M253.43 202.63L259.63 219.25C259.99 220.22 259.5 221.3 258.53 221.66C257.56 222.02 256.48 221.53 256.12 220.56L249.92 203.93C249.56 202.96 250.05 201.88 251.02 201.52C251.99 201.16 253.07 201.65 253.43 202.62V202.63Z" fill="black" style="fill:black;fill-opacity:1;"/>
<path d="M102.64 109.75C102.64 161.6 290.39 161.6 290.39 109.75C290.39 57.8999 248.36 15.8799 196.52 15.8799C144.68 15.8799 102.64 57.9099 102.64 109.76V109.75Z" fill="#735400" style="fill:#735400;fill:color(display-p3 0.4510 0.3294 0.0000);fill-opacity:1;"/>
<path d="M261.97 51.09C298.31 87.43 298.31 146.34 261.97 182.68C225.63 219.02 166.72 219.02 130.38 182.68C94.04 146.34 94.04 87.43 130.38 51.09C166.72 14.75 225.63 14.75 261.97 51.09Z" fill="#F0CBBA" style="fill:#F0CBBA;fill:color(display-p3 0.9412 0.7961 0.7294);fill-opacity:1;"/>
<path d="M317.7 111.21C323.58 120.98 320.43 133.66 310.67 139.54C300.9 145.42 288.22 142.27 282.34 132.51C276.46 122.74 279.61 110.06 289.37 104.18C299.14 98.2999 311.82 101.45 317.7 111.21Z" fill="#F0CBBA" style="fill:#F0CBBA;fill:color(display-p3 0.9412 0.7961 0.7294);fill-opacity:1;"/>
<path d="M298.71 133.78H298.65C295.54 133.68 292.65 132.38 290.51 130.11C288.38 127.84 287.26 124.88 287.35 121.76C287.55 115.33 292.94 110.27 299.37 110.46C300.41 110.49 301.22 111.36 301.19 112.39C301.16 113.43 300.29 114.22 299.26 114.21C294.91 114.08 291.24 117.51 291.1 121.87C291.03 123.98 291.8 125.99 293.24 127.54C294.69 129.08 296.65 129.96 298.76 130.03C299.8 130.06 300.61 130.93 300.58 131.96C300.55 132.97 299.72 133.78 298.71 133.78Z" fill="black" style="fill:black;fill-opacity:1;"/>
<path d="M106.12 106.52C114.6 114.14 115.3 127.19 107.68 135.67C100.06 144.15 87.0098 144.85 78.5298 137.23C70.0498 129.61 69.3498 116.56 76.9698 108.08C84.5898 99.5996 97.6398 98.8996 106.12 106.52Z" fill="#F0CBBA" style="fill:#F0CBBA;fill:color(display-p3 0.9412 0.7961 0.7294);fill-opacity:1;"/>
<path d="M93.65 133.78C92.64 133.78 91.81 132.98 91.78 131.96C91.75 130.92 92.56 130.06 93.6 130.03C95.71 129.96 97.67 129.08 99.12 127.54C100.57 126 101.33 123.99 101.27 121.87C101.21 119.76 100.32 117.8 98.78 116.35C97.24 114.9 95.23 114.13 93.11 114.21C92.08 114.23 91.21 113.43 91.18 112.39C91.15 111.35 91.96 110.49 93 110.46C99.43 110.26 104.82 115.33 105.02 121.76C105.22 128.19 100.15 133.58 93.72 133.78H93.66H93.65Z" fill="black" style="fill:black;fill-opacity:1;"/>
<path d="M168.32 123.86C168.32 124.17 168.32 124.44 168.28 124.72C164.76 121.58 135.4 128.24 134.94 138.95C130.74 135.27 128.09 129.88 128.09 123.86C128.09 112.76 137.1 103.75 148.19 103.75C159.28 103.75 168.31 112.76 168.31 123.86H168.32Z" fill="white" style="fill:white;fill-opacity:1;"/>
<path d="M168.28 124.72C167.83 135.43 159 143.97 148.2 143.97C143.12 143.97 138.47 142.09 134.94 138.95C135.4 128.24 144.22 119.69 155.01 119.69C160.09 119.69 164.75 121.58 168.27 124.72H168.28Z" fill="black" style="fill:black;fill-opacity:1;"/>
<path d="M264.27 123.86C264.27 124.17 264.27 124.44 264.23 124.72C260.71 121.58 231.35 128.24 230.89 138.95C226.69 135.27 224.04 129.88 224.04 123.86C224.04 112.76 233.05 103.75 244.14 103.75C255.23 103.75 264.26 112.76 264.26 123.86H264.27Z" fill="white" style="fill:white;fill-opacity:1;"/>
<path d="M264.23 124.72C263.78 135.43 254.95 143.97 244.15 143.97C239.07 143.97 234.42 142.09 230.89 138.95C231.35 128.24 240.17 119.69 250.96 119.69C256.04 119.69 260.7 121.58 264.22 124.72H264.23Z" fill="black" style="fill:black;fill-opacity:1;"/>
<path d="M151.86 92.3197C152.69 94.9097 148.77 98.4697 143.11 100.29C137.45 102.11 132.18 101.49 131.35 98.8997C130.52 96.3097 134.44 92.7497 140.1 90.9297C145.77 89.1097 151.03 89.7297 151.86 92.3197Z" fill="#735400" style="fill:#735400;fill:color(display-p3 0.4510 0.3294 0.0000);fill-opacity:1;"/>
<path d="M252.27 91.0703C257.93 92.9003 261.84 96.4803 261.01 99.0603C260.17 101.64 254.91 102.25 249.25 100.42C243.59 98.5903 239.68 95.0103 240.51 92.4303C241.35 89.8503 246.61 89.2403 252.27 91.0703Z" fill="#735400" style="fill:#735400;fill:color(display-p3 0.4510 0.3294 0.0000);fill-opacity:1;"/>
<path d="M196.16 149.73C188.99 149.72 183.18 145.1 183.18 139.43C183.18 133.77 189 129.16 196.14 129.16C203.31 129.16 209.12 133.78 209.11 139.45C209.11 142.3 207.69 144.94 205.11 146.88C202.7 148.71 199.51 149.72 196.15 149.72L196.16 149.73ZM186.94 139.43C186.94 143.03 191.07 145.96 196.15 145.97C198.72 145.97 201.1 145.23 202.87 143.89C204.49 142.67 205.38 141.09 205.38 139.44C205.38 135.84 201.26 132.9 196.17 132.9C191.08 132.9 186.95 135.82 186.94 139.42V139.43Z" fill="black" style="fill:black;fill-opacity:1;"/>
<path d="M196.18 165.95C182.92 165.95 172.14 155.17 172.14 141.91C172.14 140.87 172.97 140.03 174.02 140.03C175.07 140.03 175.9 140.87 175.9 141.91C175.9 153.1 185 162.2 196.19 162.2C207.38 162.2 216.48 153.1 216.48 141.91C216.48 140.87 217.32 140.03 218.36 140.03C219.4 140.03 220.24 140.87 220.24 141.91C220.24 155.17 209.45 165.95 196.2 165.95H196.18Z" fill="black" style="fill:black;fill-opacity:1;"/>
<path d="M257.24 45.1804C257.76 29.0804 234.62 10.8904 203.02 3.33042C169.29 -4.73958 138.68 2.35042 134.65 19.1704C133.06 25.8304 135.88 33.0204 141.96 39.7704C120.74 55.0104 106.19 78.9604 103.57 106.39C114.14 101.24 125.19 93.1204 135.21 82.5304C144.67 72.5304 151.9 61.7504 156.53 51.4604C165.33 56.8104 176.26 61.3204 188.45 64.2404C210.67 69.5604 231.53 68.2904 244.34 62.0004C248.54 68.9404 253.82 75.9104 260.09 82.5404C269.14 92.0904 279.03 99.6504 288.65 104.81C285.97 81.0804 274.35 60.0604 257.25 45.1704L257.24 45.1804Z" fill="#735400" style="fill:#735400;fill:color(display-p3 0.4510 0.3294 0.0000);fill-opacity:1;"/>
<path d="M156.16 54.12C155.89 54.12 155.63 54.06 155.37 53.94C143.04 48.21 136.58 35.94 136.31 35.42C135.83 34.5 136.19 33.37 137.11 32.89C138.03 32.42 139.16 32.77 139.64 33.69C139.7 33.81 145.81 45.35 156.95 50.53C157.89 50.97 158.3 52.08 157.86 53.02C157.54 53.7 156.87 54.11 156.16 54.11V54.12Z" fill="black" style="fill:black;fill-opacity:1;"/>
<path d="M244.32 63.8902C244.04 63.8902 243.76 63.8201 243.49 63.6901C242.56 63.2301 242.19 62.1002 242.65 61.1802L248.02 50.3802C248.48 49.4502 249.6 49.0802 250.53 49.5402C251.46 50.0002 251.84 51.1301 251.37 52.0501L246 62.8501C245.67 63.5101 245.01 63.8902 244.32 63.8902Z" fill="black" style="fill:black;fill-opacity:1;"/>
<path d="M161.67 198.22L188.56 272.15C188.76 272.69 188.86 273.26 188.86 273.83L172.33 282.76L154.21 286.75C153.72 286.25 153.34 285.64 153.1 284.98L126.39 211.54L161.67 198.23V198.22Z" fill="#FFC420" style="fill:#FFC420;fill:color(display-p3 1.0000 0.7686 0.1255);fill-opacity:1;"/>
<path d="M146.45 186.92L130.44 192.89C125.1 194.88 122.39 200.82 124.38 206.15L126.51 211.87L161.84 198.7L159.71 192.98C157.72 187.64 151.78 184.93 146.45 186.92Z" fill="#FF6933" style="fill:#FF6933;fill:color(display-p3 1.0000 0.4118 0.2000);fill-opacity:1;"/>
<path d="M188.85 273.82C188.85 274.32 188.78 274.83 188.64 275.32L180.23 302.91L155.18 287.52C154.82 287.3 154.49 287.04 154.21 286.74L188.85 273.82Z" fill="#7562DD" style="fill:#7562DD;fill:color(display-p3 0.4588 0.3843 0.8667);fill-opacity:1;"/>
<path d="M183.25 310.57L183.19 310.59C180.97 311.42 178.49 310.29 177.66 308.06L174.36 299.2L182.47 296.18L185.77 305.04C186.6 307.26 185.47 309.74 183.25 310.57Z" fill="#FF6933" style="fill:#FF6933;fill:color(display-p3 1.0000 0.4118 0.2000);fill-opacity:1;"/>
<path d="M160.67 288.43C160.67 288.43 135.23 290.05 122.06 290.57L122.74 235.68C139.49 235.78 157.77 234.18 157.77 234.18C161.51 233.98 164.72 236.85 164.91 240.6C165.11 244.34 162.24 247.54 158.5 247.74C162.24 247.55 165.44 250.42 165.64 254.16C165.84 257.9 162.97 261.11 159.22 261.31C162.97 261.11 166.16 263.98 166.37 267.72C166.56 271.47 163.69 274.67 159.95 274.87C163.69 274.67 166.89 277.54 167.09 281.29C167.29 285.03 164.42 288.24 160.67 288.43Z" fill="#F0CBBA" style="fill:#F0CBBA;fill:color(display-p3 0.9412 0.7961 0.7294);fill-opacity:1;"/>
<path d="M141.25 250.54C140.26 250.54 139.43 249.76 139.38 248.76C139.33 247.72 140.12 246.84 141.15 246.79L156.63 245.96C157.67 245.91 158.55 246.7 158.6 247.73C158.66 248.77 157.86 249.65 156.83 249.7L141.35 250.53C141.35 250.53 141.28 250.53 141.25 250.53V250.54Z" fill="black" style="fill:black;fill-opacity:1;"/>
<path d="M141.98 264.06C140.99 264.06 140.16 263.29 140.11 262.29C140.06 261.25 140.85 260.37 141.88 260.32L157.36 259.49C158.4 259.44 159.28 260.23 159.33 261.26C159.38 262.3 158.59 263.18 157.56 263.23L142.08 264.05C142.08 264.05 142.01 264.05 141.98 264.05V264.06Z" fill="black" style="fill:black;fill-opacity:1;"/>
<path d="M142.7 277.59C141.71 277.59 140.88 276.81 140.83 275.81C140.77 274.77 141.57 273.89 142.6 273.84L158.08 273.02C159.12 272.97 160 273.76 160.05 274.79C160.1 275.83 159.31 276.71 158.28 276.76L142.8 277.59C142.8 277.59 142.73 277.59 142.7 277.59Z" fill="black" style="fill:black;fill-opacity:1;"/>
<path d="M120.87 237.55H103.12C102.09 237.55 101.24 236.71 101.24 235.67C101.24 234.63 102.08 233.79 103.12 233.79H120.87C121.91 233.79 122.75 234.63 122.75 235.67C122.75 236.71 121.91 237.55 120.87 237.55Z" fill="black" style="fill:black;fill-opacity:1;"/>
<path d="M273.61 244.21C273.99 243.98 274.33 243.76 274.62 243.56C274.3 243.79 273.96 244.01 273.61 244.21Z" fill="#F0CBBA" style="fill:#F0CBBA;fill:color(display-p3 0.9412 0.7961 0.7294);fill-opacity:1;"/>
<path d="M269.75 246.38L293.5 296.54C284.96 301.27 275.21 305.4 264.31 308.9L254.94 313.39C251.56 315.01 247.5 313.59 245.88 310.2C244.25 306.82 245.68 302.76 249.07 301.14C245.69 302.76 241.63 301.34 240.01 297.95C238.38 294.57 239.81 290.51 243.2 288.89C239.82 290.51 235.76 289.09 234.14 285.7C232.52 282.32 233.94 278.26 237.33 276.64C233.95 278.26 229.89 276.84 228.27 273.45C226.65 270.07 228.07 266.01 231.46 264.39C231.46 264.39 257.57 252.85 269.75 246.37V246.38Z" fill="#F0CBBA" style="fill:#F0CBBA;fill:color(display-p3 0.9412 0.7961 0.7294);fill-opacity:1;"/>
<path d="M238.93 277.75C238.23 277.75 237.56 277.36 237.24 276.69C236.79 275.76 237.19 274.64 238.12 274.19L252.1 267.49C253.03 267.04 254.15 267.44 254.6 268.37C255.05 269.3 254.65 270.42 253.72 270.87L239.74 277.57C239.48 277.69 239.2 277.75 238.93 277.75Z" fill="black" style="fill:black;fill-opacity:1;"/>
<path d="M244.78 289.97C244.08 289.97 243.41 289.58 243.09 288.91C242.64 287.98 243.04 286.86 243.97 286.41L257.95 279.71C258.88 279.26 260 279.66 260.45 280.59C260.9 281.52 260.5 282.64 259.57 283.09L245.59 289.79C245.33 289.91 245.05 289.97 244.78 289.97Z" fill="black" style="fill:black;fill-opacity:1;"/>
<path d="M250.64 302.18C249.94 302.18 249.27 301.79 248.95 301.11C248.5 300.18 248.9 299.06 249.83 298.61L263.81 291.91C264.75 291.46 265.86 291.86 266.31 292.79C266.75 293.72 266.36 294.84 265.43 295.29L251.45 301.99C251.19 302.11 250.91 302.18 250.64 302.18Z" fill="black" style="fill:black;fill-opacity:1;"/>
</g>
<defs>
<clipPath id="clip0_680_1648">
<rect width="384" height="384" fill="white" style="fill:white;fill-opacity:1;"/>
</clipPath>
</defs>
</svg>
