<svg width="384" height="384" viewBox="0 0 384 384" fill="none" xmlns="http://www.w3.org/2000/svg">
<path d="M328.84 175.76H293.17C289.38 175.76 286.31 178.83 286.31 182.62L270.85 274.55L286.31 350.37H328.84C332.63 350.37 335.7 347.3 335.7 343.5V182.63C335.7 178.84 332.63 175.77 328.84 175.77V175.76Z" fill="#60D7E5" style="fill:#60D7E5;fill:color(display-p3 0.3765 0.8431 0.8980);fill-opacity:1;"/>
<path d="M123.29 215.46L91.1698 320.44L84.2298 325.76L86.5898 335.43L83.1998 346.5C82.1898 349.8 78.6898 351.66 75.3798 350.65L31.6598 337.27C28.3598 336.26 26.4998 332.76 27.5098 329.45L30.9098 318.33L38.8398 313.54L35.4798 303.37L67.5998 198.4C68.6098 195.1 72.1098 193.24 75.4198 194.25L119.14 207.63C122.44 208.64 124.3 212.14 123.29 215.45V215.46Z" fill="#60D7E5" style="fill:#60D7E5;fill:color(display-p3 0.3765 0.8431 0.8980);fill-opacity:1;"/>
<path d="M87.4302 220.42C96.1202 220.93 102.75 228.38 102.25 237.07C101.74 245.76 94.2802 252.4 85.5902 251.89C76.9002 251.38 70.2702 243.92 70.7702 235.24C71.2802 226.55 78.7302 219.91 87.4202 220.42H87.4302Z" fill="#FCB900" style="fill:#FCB900;fill:color(display-p3 0.9882 0.7255 0.0000);fill-opacity:1;"/>
<path d="M30.8799 318.4L35.4899 303.33L91.1799 320.37L86.5699 335.44L30.8799 318.4Z" fill="#FCB900" style="fill:#FCB900;fill:color(display-p3 0.9882 0.7255 0.0000);fill-opacity:1;"/>
<path d="M210.18 350.37H131.16C126.4 350.37 122.54 346.51 122.54 341.75V195.13C122.54 190.37 126.4 186.51 131.16 186.51H201.56C206.32 186.51 210.18 190.37 210.18 195.13L215.7 260.77L210.18 350.38V350.37Z" fill="#FF9066" style="fill:#FF9066;fill:color(display-p3 1.0000 0.5647 0.4000);fill-opacity:1;"/>
<path d="M191.12 253.29H141.61C139.82 253.29 138.37 251.84 138.37 250.04V208.07C138.37 206.28 139.82 204.83 141.61 204.83H191.12C192.91 204.83 194.37 206.28 194.37 208.07V250.04C194.37 251.83 192.92 253.29 191.12 253.29Z" fill="#FFD257" style="fill:#FFD257;fill:color(display-p3 1.0000 0.8235 0.3412);fill-opacity:1;"/>
<path d="M191.7 332.03H141.02C139.55 332.03 138.36 330.84 138.36 329.37V314.03C138.36 312.56 139.55 311.37 141.02 311.37H191.7C193.17 311.37 194.36 312.56 194.36 314.03V329.37C194.36 330.84 193.17 332.03 191.7 332.03Z" fill="#FFD257" style="fill:#FFD257;fill:color(display-p3 1.0000 0.8235 0.3412);fill-opacity:1;"/>
<path d="M217.53 171.37H278.96C283.02 171.37 286.31 174.66 286.31 178.72V293.65L285.73 295.55L286.31 297.41V314.53L285.13 316.51L286.31 318.29V335.41L285.29 337.9L286.31 339.15V350.38H210.19V339.16L210.98 337.36L210.19 335.4V318.28L210.89 316.37L210.19 314.54V297.43L210.96 295.92L210.19 293.67V178.73C210.19 174.67 213.48 171.38 217.54 171.38L217.53 171.37Z" fill="#08A5B8" style="fill:#08A5B8;fill:color(display-p3 0.0314 0.6471 0.7216);fill-opacity:1;"/>
<path d="M286.3 335.39H210.18V339.14H286.3V335.39Z" fill="#FFD257" style="fill:#FFD257;fill:color(display-p3 1.0000 0.8235 0.3412);fill-opacity:1;"/>
<path d="M286.3 314.52H210.18V318.27H286.3V314.52Z" fill="#FFD257" style="fill:#FFD257;fill:color(display-p3 1.0000 0.8235 0.3412);fill-opacity:1;"/>
<path d="M286.3 293.65H210.18V297.4H286.3V293.65Z" fill="#FFD257" style="fill:#FFD257;fill:color(display-p3 1.0000 0.8235 0.3412);fill-opacity:1;"/>
<path d="M377.54 371.3H6.46C2.89 371.3 0 368.41 0 364.84V356.08C0 352.51 2.89 349.62 6.46 349.62H377.53C381.1 349.62 383.99 352.51 383.99 356.08V364.84C383.99 368.41 381.1 371.3 377.53 371.3H377.54Z" fill="#4424A7" style="fill:#4424A7;fill:color(display-p3 0.2667 0.1412 0.6549);fill-opacity:1;"/>
<path d="M285.08 15.9998L288.54 33.2598L286.05 39.1998L290.61 43.5998L302.26 101.67L298.35 107.61L304.33 111.96L307.8 129.23C308.21 131.25 306.9 133.22 304.88 133.62L267.54 141.11C265.52 141.51 263.56 140.2 263.15 138.18L259.68 120.9L261.54 116.08L257.62 110.63L245.97 52.5698L247.94 47.3398L243.89 42.2198L240.43 24.9598C240.02 22.9398 241.33 20.9798 243.35 20.5698L280.7 13.0698C282.72 12.6598 284.68 13.9798 285.09 15.9898L285.08 15.9998Z" fill="#FFD257" style="fill:#FFD257;fill:color(display-p3 1.0000 0.8235 0.3412);fill-opacity:1;"/>
<path d="M243.91 42.2403L288.56 33.2803L290.63 43.5903L245.98 52.5503L243.91 42.2403Z" fill="#FF9066" style="fill:#FF9066;fill:color(display-p3 1.0000 0.5647 0.4000);fill-opacity:1;"/>
<path d="M257.62 110.59L302.27 101.63L304.34 111.94L259.69 120.9L257.62 110.59Z" fill="#FF9066" style="fill:#FF9066;fill:color(display-p3 1.0000 0.5647 0.4000);fill-opacity:1;"/>
<path d="M230.35 141.17H24.99C22.76 141.17 20.96 139.36 20.96 137.14V97.2702C20.96 95.0402 22.77 93.2402 24.99 93.2402H46.74L108.53 89.9502L218.44 93.2402H230.35C232.58 93.2402 234.38 95.0402 234.38 97.2702V137.14C234.38 139.37 232.58 141.17 230.35 141.17Z" fill="#08A5B8" style="fill:#08A5B8;fill:color(display-p3 0.0314 0.6471 0.7216);fill-opacity:1;"/>
<path d="M187.25 128.41H68.0899C61.8999 128.41 56.8799 123.39 56.8799 117.2C56.8799 111.01 61.8999 105.99 68.0899 105.99H187.25C193.44 105.99 198.46 111.01 198.46 117.2C198.46 123.39 193.44 128.41 187.25 128.41Z" fill="#60D7E5" style="fill:#60D7E5;fill:color(display-p3 0.3765 0.8431 0.8980);fill-opacity:1;"/>
<path d="M239.52 59.0896H219.08L126.02 62.6996L46.2299 59.0896H18.4099C16.1999 59.0896 14.3999 57.2897 14.3999 55.0797V38.1496C14.3999 35.9296 16.1999 34.1396 18.4099 34.1396H239.53C241.75 34.1396 243.54 35.9296 243.54 38.1496V55.0797C243.54 57.2997 241.75 59.0996 239.53 59.0996L239.52 59.0896Z" fill="#FF571A" style="fill:#FF571A;fill:color(display-p3 1.0000 0.3412 0.1020);fill-opacity:1;"/>
<path d="M218.29 93.2398H185.63L178.51 90.4498L172.1 93.2398H139.39L132.53 89.9398L125.83 93.2398H93.2102L85.9002 89.9398L79.6102 93.2398H46.9402C46.0202 93.2398 46.2102 90.7198 45.4902 90.2598C44.2602 89.4498 44.3402 89.2598 44.3402 87.6698L42.4102 84.7998V63.6098C42.4102 61.1098 44.4402 59.0898 46.9302 59.0898H218.28C220.78 59.0898 222.81 61.1098 222.81 63.6098V84.7898L221.47 88.6198C221.47 91.1198 220.79 93.2298 218.29 93.2298V93.2398Z" fill="#FF9066" style="fill:#FF9066;fill:color(display-p3 1.0000 0.5647 0.4000);fill-opacity:1;"/>
<path d="M47.1299 91.4196C47.1299 92.0496 47.0499 92.6596 46.8999 93.2396C44.4199 93.2196 42.4199 91.1996 42.4199 88.7196V84.8096C45.1599 85.7596 47.1299 88.3596 47.1299 91.4296V91.4196Z" fill="#FF9B77" style="fill:#FF9B77;fill:color(display-p3 1.0000 0.6078 0.4667);fill-opacity:1;"/>
<path d="M139.63 91.4202C139.63 92.0502 139.55 92.6602 139.39 93.2402H125.85C125.69 92.6602 125.61 92.0602 125.61 91.4202C125.61 87.5402 128.75 84.4102 132.62 84.4102C136.49 84.4102 139.64 87.5502 139.64 91.4202H139.63Z" fill="#FF9B77" style="fill:#FF9B77;fill:color(display-p3 1.0000 0.6078 0.4667);fill-opacity:1;"/>
<path d="M93.3699 91.4202C93.3699 92.0502 93.2899 92.6602 93.1399 93.2402H79.5999C79.4399 92.6602 79.3599 92.0602 79.3599 91.4202C79.3599 87.5402 82.4999 84.4102 86.3699 84.4102C90.2399 84.4102 93.3699 87.5502 93.3699 91.4202Z" fill="#FF9B77" style="fill:#FF9B77;fill:color(display-p3 1.0000 0.6078 0.4667);fill-opacity:1;"/>
<path d="M222.82 84.8V88.71C222.82 91.19 220.82 93.2 218.34 93.23C218.18 92.65 218.1 92.05 218.1 91.41C218.1 88.34 220.07 85.73 222.81 84.79L222.82 84.8Z" fill="#FF9B77" style="fill:#FF9B77;fill:color(display-p3 1.0000 0.6078 0.4667);fill-opacity:1;"/>
<path d="M185.87 91.4202C185.87 92.0502 185.79 92.6602 185.63 93.2402H172.08C171.93 92.6602 171.85 92.0602 171.85 91.4202C171.85 87.5402 174.98 84.4102 178.85 84.4102C182.72 84.4102 185.86 87.5502 185.86 91.4202H185.87Z" fill="#FF9B77" style="fill:#FF9B77;fill:color(display-p3 1.0000 0.6078 0.4667);fill-opacity:1;"/>
<path d="M377.54 162.11H6.46C2.89 162.11 0 159.21 0 155.65V146.89C0 143.32 2.89 140.43 6.46 140.43H377.53C381.1 140.43 383.99 143.32 383.99 146.89V155.65C383.99 159.22 381.1 162.11 377.53 162.11H377.54Z" fill="#4424A7" style="fill:#4424A7;fill:color(display-p3 0.2667 0.1412 0.6549);fill-opacity:1;"/>
<path d="M354.95 245.21L280.06 138.37L261 110.8C256.12 103.4 246.17 101.31 238.76 106.22C232.6 110.28 230.16 117.85 232.32 124.55C227.42 117.22 217.52 115.18 210.15 120.06C203.32 124.56 201.06 133.37 204.57 140.52C199.65 133.26 189.8 131.25 182.47 136.12C177.66 139.28 175.13 144.59 175.26 149.95L156.9 122.07C152.02 114.66 142.06 112.59 134.66 117.49C127.26 122.37 125.21 132.32 130.08 139.72L174.05 206.5L176.4 210.1L180.82 257.14C182.49 267.44 188.55 276.5 197.44 281.97L236.02 301.27L245.44 315.68C246.99 318.05 250.16 318.73 252.55 317.2L353.51 252.53C355.98 250.95 356.64 247.62 354.95 245.21Z" fill="#8E4F3E" style="fill:#8E4F3E;fill:color(display-p3 0.5569 0.3098 0.2431);fill-opacity:1;"/>
<path d="M192.87 176.62C192.26 176.62 191.67 176.33 191.31 175.78L174.42 150.51C173.85 149.65 174.08 148.49 174.94 147.91C175.8 147.34 176.97 147.57 177.54 148.43L194.43 173.7C195 174.56 194.77 175.72 193.91 176.3C193.59 176.51 193.23 176.62 192.87 176.62Z" fill="black" style="fill:black;fill-opacity:1;"/>
<path d="M219.64 162.11C219.03 162.11 218.44 161.82 218.08 161.28L201.19 136C200.62 135.14 200.85 133.98 201.71 133.4C202.57 132.83 203.73 133.06 204.31 133.92L221.2 159.2C221.77 160.06 221.54 161.22 220.68 161.8C220.36 162.01 220 162.12 219.64 162.12V162.11Z" fill="black" style="fill:black;fill-opacity:1;"/>
<path d="M247.43 147.6C246.82 147.6 246.23 147.31 245.87 146.77L228.99 121.5C228.41 120.64 228.65 119.47 229.51 118.9C230.37 118.32 231.53 118.56 232.11 119.42L249 144.69C249.58 145.55 249.34 146.72 248.48 147.29C248.16 147.5 247.8 147.61 247.44 147.61L247.43 147.6Z" fill="black" style="fill:black;fill-opacity:1;"/>
<path d="M204.9 258.22C204.28 258.22 203.67 257.91 203.31 257.34L174.4 211.14C173.85 210.26 174.12 209.11 174.99 208.56C175.87 208.01 177.02 208.28 177.58 209.15L206.49 255.34C207.04 256.22 206.77 257.38 205.89 257.93C205.58 258.12 205.24 258.22 204.9 258.22Z" fill="black" style="fill:black;fill-opacity:1;"/>
</svg>
