<svg width="384" height="384" viewBox="0 0 384 384" fill="none" xmlns="http://www.w3.org/2000/svg">
<g clip-path="url(#clip0_609_762)">
<path d="M187.68 159.74L164.22 142.83C162.82 144.22 152.98 132.42 151.84 133.77C147.48 138.86 134.23 147.04 121.77 148.07C113.45 148.75 108.85 136.96 102.55 135.23C92.4599 132.45 85.8999 128.29 85.8999 128.29L36.4699 105.17L28.2099 101.24C27.6899 100.99 27.1599 100.83 26.6199 100.72C23.3999 99.83 19.9099 101.34 18.4599 104.48C17.6099 106.31 17.6399 108.31 18.3499 110.04C18.3599 110.09 18.3899 110.14 18.3999 110.18C18.4499 110.28 18.4899 110.38 18.5399 110.48C18.9399 111.44 19.5499 112.3 20.3399 113.01C17.2299 112.34 13.9599 113.83 12.5699 116.85C11.7299 118.65 11.7499 120.62 12.4399 122.33C12.8299 123.5 13.5299 124.55 14.4699 125.4C13.5899 125.26 12.7199 125.28 11.8699 125.46C9.63987 125.79 7.61987 127.18 6.59987 129.39C5.36987 132.02 5.96987 134.99 7.81987 137C8.04987 137.27 8.30986 137.53 8.56987 137.77C7.16987 137.54 5.75987 137.75 4.49987 138.32C2.85987 138.93 1.43987 140.15 0.649866 141.87C-0.970134 145.36 0.539866 149.51 4.02987 151.13L4.33987 151.28L19.1599 158.34C19.6199 158.56 20.0999 158.72 20.5699 158.84L35.5899 165.83C35.7199 165.89 51.0999 173.13 62.6899 178.58C64.7999 179.58 90.6099 190.34 117.92 191.04C118.85 191.06 121.92 186.5 122.85 186.5C125.69 186.5 126.51 181.75 129.36 181.52C163.75 178.69 180.45 168.22 186.78 160.81C187.2 160.33 187.56 159.89 187.89 159.53L187.67 159.75L187.68 159.74Z" fill="#774030" style="fill:#774030;fill:color(display-p3 0.4667 0.2510 0.1882);fill-opacity:1;"/>
<path d="M38.6201 123.79C38.3301 123.79 38.0301 123.73 37.7401 123.59L21.2401 115.73C20.2101 115.24 19.7801 114.02 20.2701 112.99C20.7501 111.97 21.9801 111.53 23.0001 112.02L39.5101 119.88C40.5301 120.37 40.9701 121.59 40.4801 122.62C40.1301 123.36 39.3901 123.79 38.6201 123.79Z" fill="black" style="fill:black;fill-opacity:1;"/>
<path d="M32.73 136.15C32.43 136.15 32.13 136.08 31.85 135.95L15.34 128.09C14.32 127.6 13.88 126.38 14.37 125.35C14.86 124.33 16.08 123.89 17.11 124.38L33.62 132.24C34.65 132.73 35.08 133.95 34.59 134.98C34.24 135.72 33.5 136.15 32.73 136.15Z" fill="black" style="fill:black;fill-opacity:1;"/>
<path d="M26.7598 148.69C26.4698 148.69 26.1698 148.62 25.8798 148.49L9.36978 140.63C8.34978 140.14 7.90978 138.92 8.39978 137.89C8.88978 136.87 10.1098 136.43 11.1398 136.92L27.6498 144.78C28.6698 145.27 29.1098 146.49 28.6198 147.52C28.2698 148.26 27.5298 148.69 26.7598 148.69Z" fill="black" style="fill:black;fill-opacity:1;"/>
<path d="M25.4299 167.6C19.6999 165.33 16.9699 158.78 19.3899 153.11L49.3199 82.8701L66.1899 89.5701L39.7699 161.21C37.6399 167 31.1599 169.89 25.4299 167.61V167.6Z" fill="#FFD257" style="fill:#FFD257;fill:color(display-p3 1.0000 0.8235 0.3412);fill-opacity:1;"/>
<path d="M78.8398 45.3002C91.5298 53.0102 95.5598 69.5502 87.8498 82.2402C80.1398 94.9302 63.5998 98.9602 50.9198 91.2502C38.2298 83.5402 34.1998 67.0002 41.8998 54.3202C49.6098 41.6302 66.1498 37.5902 78.8398 45.3002Z" fill="#F34100" style="fill:#F34100;fill:color(display-p3 0.9529 0.2549 0.0000);fill-opacity:1;"/>
<path d="M91.7501 81.0099C91.5001 81.0099 91.2401 80.9599 90.9901 80.8599L37.2501 59.5199C36.1901 59.0999 35.6801 57.9099 36.1001 56.8499C36.5201 55.7999 37.7201 55.2799 38.7701 55.6999L92.5101 77.0399C93.5601 77.4599 94.0801 78.6499 93.6601 79.7099C93.3401 80.5099 92.5701 81.0099 91.7501 81.0099Z" fill="black" style="fill:black;fill-opacity:1;"/>
<path d="M94.05 140.4C93.85 142.43 92.91 144.39 91.24 145.82C87.81 148.77 82.21 152.54 79.26 149.11C76.69 148.06 69.75 144.83 64.92 137.11C61.18 131.15 60.51 125.38 60.37 122.54C56.51 118.06 52.64 113.57 48.78 109.08C45.83 105.65 46.21 100.49 49.64 97.53C53.07 94.58 58.23 94.96 61.19 98.39L92.1 134.27C93.62 136.03 94.26 138.25 94.05 140.4Z" fill="#774030" style="fill:#774030;fill:color(display-p3 0.4667 0.2510 0.1882);fill-opacity:1;"/>
<path d="M65.8701 140.58C65.2301 140.58 64.5901 140.28 64.1901 139.71C59.4601 133.02 58.4501 126.12 58.3101 122.16L47.9701 110.61C47.2201 109.76 47.2901 108.47 48.1301 107.71C48.9701 106.96 50.28 107.02 51.03 107.87L61.87 119.98C62.21 120.35 62.39 120.83 62.39 121.33C62.42 124.63 63.1301 131.09 67.5401 137.33C68.2001 138.26 67.9701 139.54 67.0501 140.2C66.6901 140.45 66.2701 140.58 65.8701 140.58Z" fill="black" style="fill:black;fill-opacity:1;"/>
<path d="M379.07 191.93C379.07 191.93 299.94 169.62 276.52 143.38C262.56 127.74 255.73 112.1 253.21 100.77L201.06 112.35C204.95 129.89 214.13 155.88 235.76 180.11C261.53 208.99 298.84 223.37 314.99 228.78L329.6 249.3C332.22 252.99 337.33 253.85 341.01 251.23C344.7 248.61 345.56 243.5 342.94 239.82C342.44 239.11 341.94 238.4 341.43 237.7L344.79 238.84C345.21 239.09 345.67 239.3 346.15 239.46L361.71 244.59C365.47 245.83 369.53 243.79 370.77 240.03C371.79 236.94 370.57 233.67 368.02 231.91C371.12 232.01 374.04 230.11 375.06 227.02C376.08 223.93 374.86 220.66 372.31 218.9C375.41 219 378.33 217.1 379.35 214.01C380.37 210.92 379.15 207.66 376.6 205.89C379.7 205.99 382.62 204.09 383.64 201C384.88 197.24 382.84 193.18 379.08 191.94L379.07 191.93Z" fill="#774030" style="fill:#774030;fill:color(display-p3 0.4667 0.2510 0.1882);fill-opacity:1;"/>
<path d="M374.74 207.33C374.53 207.33 374.31 207.29 374.1 207.23L356.74 201.5C355.66 201.15 355.08 199.98 355.43 198.91C355.79 197.83 356.94 197.25 358.03 197.6L375.39 203.33C376.47 203.69 377.05 204.85 376.7 205.93C376.42 206.79 375.61 207.34 374.75 207.34L374.74 207.33Z" fill="black" style="fill:black;fill-opacity:1;"/>
<path d="M370.45 220.34C370.24 220.34 370.02 220.31 369.81 220.24L352.45 214.51C351.37 214.15 350.79 212.99 351.14 211.92C351.49 210.84 352.65 210.25 353.73 210.61L371.09 216.34C372.17 216.69 372.75 217.86 372.39 218.93C372.11 219.79 371.3 220.34 370.44 220.34H370.45Z" fill="black" style="fill:black;fill-opacity:1;"/>
<path d="M366.1 233.53C365.88 233.53 365.67 233.5 365.45 233.43L348.09 227.7C347.01 227.34 346.43 226.18 346.79 225.11C347.14 224.03 348.29 223.45 349.38 223.8L366.74 229.53C367.82 229.88 368.4 231.04 368.05 232.12C367.76 232.98 366.96 233.53 366.1 233.53Z" fill="black" style="fill:black;fill-opacity:1;"/>
<path d="M171.18 366.46C171.08 367.79 174.54 375.66 173.19 375.56L160.55 374.6C159.2 374.49 158.85 373.83 159.02 372.49L159.5 361.38C154.67 363.61 145.83 365.56 137.29 366.93C128.65 368.31 121.25 368.33 115.94 367.7C106.65 366.81 104.37 364.93 103.87 356.88C103.28 347.24 112.58 338.34 118.69 338.36L119.28 330.89L121.52 302.73L122.04 296.05L122.56 289.47L125.98 246.29L187.09 251.11L183.67 294.32L183.17 300.9L182.63 307.58L182.15 313.7L181.86 317.36L180.4 335.74L179.3 349.63L171.19 366.47L171.18 366.46Z" fill="#774030" style="fill:#774030;fill:color(display-p3 0.4667 0.2510 0.1882);fill-opacity:1;"/>
<path d="M177.25 375.52C177.15 376.85 175.98 377.86 174.63 377.75L158.82 376.5C157.47 376.39 156.49 375.19 156.66 373.85L157.51 366.52C152.68 368.75 145.83 371.31 137.3 372.69C128.65 374.06 121.26 373.74 115.95 373.1C106.66 372.21 99.6602 364.94 99.1702 356.89C98.5802 347.25 107.35 337.94 118.71 338.37C118.71 338.37 100.39 356.09 130.82 357.12C151.14 357.81 170.33 352.55 179.3 349.63L177.26 375.52H177.25Z" fill="#F34100" style="fill:#F34100;fill:color(display-p3 0.9529 0.2549 0.0000);fill-opacity:1;"/>
<path d="M294.02 332.66C294.73 333.79 302.63 338.55 301.49 339.27L292.3 342.91C291.15 343.63 289.61 348.01 288.95 346.84L283.69 338.51C281.14 343.18 272.77 348.11 266.74 354.31C260.63 360.58 258.55 365.24 253.91 367.9C245.93 372.74 242.67 373.76 237.92 367.23C234.45 362.46 227.49 350.28 236.85 343.84L232.86 337.5L217.82 313.59L214.24 307.91L210.73 302.32L187.67 265.65L239.55 233L262.62 269.69L266.15 275.27L269.7 280.95L272.97 286.14L274.92 289.25L284.73 304.86L292.15 316.66L294.01 332.66H294.02Z" fill="#774030" style="fill:#774030;fill:color(display-p3 0.4667 0.2510 0.1882);fill-opacity:1;"/>
<path d="M306 338.65C306.71 339.78 306.38 341.29 305.23 342.01L291.8 350.45C290.66 351.17 289.15 350.79 288.48 349.61L284.78 343.23C282.24 347.9 278.28 354.05 272.26 360.25C266.15 366.52 260.03 370.67 255.39 373.34C247.4 378.18 237.46 376.53 232.25 370.37C226.02 362.99 227.49 350.28 236.84 343.85C236.84 343.85 232.74 369 257.75 351.65C274.46 340.06 286.71 324.38 292.15 316.67L305.99 338.65H306Z" fill="#F34100" style="fill:#F34100;fill:color(display-p3 0.9529 0.2549 0.0000);fill-opacity:1;"/>
<path d="M290.12 287.77L284.72 271.88L280.01 266.13L280.37 259.05L264.69 212.95L266.62 205.95L282.32 148.91C280.14 147.1 278.19 145.25 276.53 143.38C266.05 131.63 259.58 119.89 255.94 109.97L151.47 114.04L148.12 123.88C147.45 124.63 146.82 125.37 146.19 126.11C141.83 131.18 137.33 136.46 124.86 137.49C118.65 138 112.79 137.46 107.6 136.42C105.84 136.07 105.79 137.22 104.19 136.78L104.17 141.04L117.93 191.04L118.82 194.25L126.32 202.88L119.86 206.95L102.14 259.06L102.16 266.43L97.7799 271.88L92.3699 287.77C91.8299 289.27 92.9599 290.84 94.5699 290.84H115.75C117.66 290.84 119.82 288 121.93 288C123.86 288 125.72 290.84 127.8 290.84H164.33C166.54 290.84 168.54 288.89 170.79 288.89C172.58 288.89 174.62 290.84 176.43 290.84H206.1C208.28 290.84 210.35 288.46 212.49 288.46C214.35 288.46 216.3 290.84 218.13 290.84H254.7C256.78 290.84 259 289.68 260.93 289.68C263.02 289.68 264.8 290.84 266.7 290.84H287.93C289.54 290.84 290.67 289.27 290.13 287.77H290.12Z" fill="#8879E1" style="fill:#8879E1;fill:color(display-p3 0.5333 0.4745 0.8824);fill-opacity:1;"/>
<path d="M107.59 136.4C107.2 138.41 105.91 140.1 104.16 141.04L102.56 135.2C104.14 135.65 105.82 136.06 107.59 136.39V136.4Z" fill="#8879E1" style="fill:#8879E1;fill:color(display-p3 0.5333 0.4745 0.8824);fill-opacity:1;"/>
<path d="M128.61 200.41C128.61 204.19 125.55 207.25 121.77 207.25C121.11 207.25 120.45 207.15 119.86 206.96L121.22 202.97L118.82 194.24C119.72 193.81 120.71 193.56 121.78 193.56C125.56 193.56 128.62 196.62 128.62 200.4L128.61 200.41Z" fill="#8879E1" style="fill:#8879E1;fill:color(display-p3 0.5333 0.4745 0.8824);fill-opacity:1;"/>
<path d="M107.73 265.77C107.73 269.55 104.65 272.61 100.87 272.61C99.76 272.61 98.69 272.34 97.77 271.87L102.15 259.05C105.34 259.64 107.74 262.42 107.74 265.77H107.73Z" fill="#8879E1" style="fill:#8879E1;fill:color(display-p3 0.5333 0.4745 0.8824);fill-opacity:1;"/>
<path d="M177.21 287.57C177.21 288.74 176.9 289.85 176.37 290.84H164.33C163.8 289.85 163.51 288.74 163.51 287.57C163.51 283.79 166.57 280.71 170.35 280.71C174.13 280.71 177.21 283.79 177.21 287.57Z" fill="#8879E1" style="fill:#8879E1;fill:color(display-p3 0.5333 0.4745 0.8824);fill-opacity:1;"/>
<path d="M128.61 287.57C128.61 288.74 128.32 289.85 127.79 290.84H115.75C115.21 289.85 114.93 288.74 114.93 287.57C114.93 283.79 117.99 280.71 121.77 280.71C125.55 280.71 128.61 283.79 128.61 287.57Z" fill="#8879E1" style="fill:#8879E1;fill:color(display-p3 0.5333 0.4745 0.8824);fill-opacity:1;"/>
<path d="M284.71 271.85C283.78 272.34 282.72 272.61 281.59 272.61C277.81 272.61 274.75 269.55 274.75 265.77C274.75 262.42 277.17 259.63 280.36 259.05L284.72 271.85H284.71Z" fill="#8879E1" style="fill:#8879E1;fill:color(display-p3 0.5333 0.4745 0.8824);fill-opacity:1;"/>
<path d="M267.56 287.57C267.56 288.74 267.27 289.85 266.73 290.84H254.69C254.16 289.85 253.85 288.74 253.85 287.57C253.85 283.79 256.93 280.71 260.71 280.71C264.49 280.71 267.55 283.79 267.55 287.57H267.56Z" fill="#8879E1" style="fill:#8879E1;fill:color(display-p3 0.5333 0.4745 0.8824);fill-opacity:1;"/>
<path d="M218.98 287.57C218.98 288.74 218.69 289.85 218.16 290.84H206.12C205.58 289.85 205.28 288.74 205.28 287.57C205.28 283.79 208.37 280.71 212.14 280.71C215.91 280.71 218.98 283.79 218.98 287.57Z" fill="#8879E1" style="fill:#8879E1;fill:color(display-p3 0.5333 0.4745 0.8824);fill-opacity:1;"/>
<path d="M121.21 205.02C121.01 205.02 120.81 204.99 120.61 204.93C119.53 204.6 118.91 203.45 119.25 202.36L126.09 179.94C126.42 178.85 127.57 178.24 128.66 178.57C129.74 178.9 130.36 180.05 130.02 181.14L123.18 203.56C122.91 204.45 122.09 205.02 121.22 205.02H121.21Z" fill="black" style="fill:black;fill-opacity:1;"/>
<path d="M263.46 212.56C262.58 212.56 261.76 211.99 261.5 211.11L254.66 188.69C254.32 187.6 254.94 186.45 256.02 186.12C257.11 185.79 258.25 186.4 258.58 187.49L265.43 209.91C265.76 211 265.15 212.15 264.07 212.48C263.87 212.54 263.67 212.57 263.47 212.57L263.46 212.56Z" fill="black" style="fill:black;fill-opacity:1;"/>
<path d="M243.66 21.78C210.95 -3.41005 163.97 2.66995 138.78 35.38C134.53 40.89 131.19 46.81 128.7 52.95C128.58 52.85 128.48 52.74 128.36 52.65C124.46 49.64 119.45 49.6 117.18 52.56C114.9 55.52 116.22 60.35 120.12 63.35C121.62 64.5 123.27 65.21 124.87 65.49C123.76 70.73 123.21 76.0499 123.24 81.35C123.24 82.02 123.67 82.62 124.29 82.87L157.06 95.64L131.25 111.37C130.54 111.8 130.26 112.71 130.62 113.46C135.52 123.66 142.82 132.9 152.4 140.28C185.12 165.5 232.07 159.39 257.28 126.68C282.49 93.97 276.41 46.99 243.68 21.78H243.66Z" fill="#774030" style="fill:#774030;fill:color(display-p3 0.4667 0.2510 0.1882);fill-opacity:1;"/>
<path d="M157.45 31.3802C156.2 33.1702 158.38 36.8402 162.3 39.5702C166.23 42.3002 170.42 43.0602 171.66 41.2702C172.91 39.4802 170.73 35.8102 166.81 33.0802C162.88 30.3502 158.69 29.5902 157.45 31.3802Z" fill="black" style="fill:black;fill-opacity:1;"/>
<path d="M161.35 83.87C158.17 83.87 155.03 83.03 152.21 81.38C148.02 78.93 145.04 75 143.81 70.3C142.58 65.61 143.25 60.72 145.71 56.53C146.28 55.55 147.54 55.22 148.52 55.8C149.5 56.37 149.83 57.63 149.26 58.61C147.37 61.85 146.85 65.63 147.8 69.26C148.75 72.89 151.06 75.93 154.3 77.83C157.54 79.72 161.33 80.24 164.95 79.29C168.58 78.34 171.62 76.03 173.52 72.79C174.09 71.81 175.35 71.48 176.33 72.05C177.31 72.63 177.64 73.88 177.07 74.86C174.62 79.05 170.69 82.03 165.99 83.26C164.46 83.66 162.91 83.86 161.36 83.86L161.35 83.87Z" fill="black" style="fill:black;fill-opacity:1;"/>
<path d="M272.24 90.29C275.38 64.89 265.42 38.53 243.66 21.78C222.35 5.37998 195.02 2.22998 171.57 11.07C173.5 40.23 188.48 71.61 215.01 96.22C221.65 102.39 228.66 107.79 235.9 112.44C234.1 116.75 233.09 121.48 233.09 126.44C233.09 146.49 249.34 162.74 269.39 162.74C289.44 162.74 305.69 146.49 305.69 126.44C305.69 106.39 290.95 91.74 272.23 90.28L272.24 90.29Z" fill="#120C35" style="fill:#120C35;fill:color(display-p3 0.0706 0.0471 0.2078);fill-opacity:1;"/>
<path d="M235.29 82.49C243.61 90.81 243.61 104.31 235.29 112.64C226.97 120.96 213.47 120.96 205.14 112.64C196.81 104.31 196.81 90.81 205.14 82.49C213.47 74.17 226.96 74.17 235.29 82.49Z" fill="#774030" style="fill:#774030;fill:color(display-p3 0.4667 0.2510 0.1882);fill-opacity:1;"/>
<path d="M212.32 106.94C211.54 106.94 210.8 106.5 210.46 105.75C207.58 99.5299 210.3 92.1299 216.52 89.2499C222.73 86.3599 230.14 89.0899 233.02 95.3099C233.5 96.3399 233.05 97.5599 232.02 98.0399C231 98.5199 229.77 98.0699 229.29 97.0399C227.36 92.8799 222.41 91.0599 218.24 92.9799C214.08 94.9099 212.26 99.8699 214.18 104.03C214.66 105.06 214.21 106.28 213.18 106.76C212.9 106.89 212.61 106.95 212.32 106.95V106.94Z" fill="black" style="fill:black;fill-opacity:1;"/>
</g>
<defs>
<clipPath id="clip0_609_762">
<rect width="384" height="384" fill="white" style="fill:white;fill-opacity:1;"/>
</clipPath>
</defs>
</svg>
