<svg width="384" height="384" viewBox="0 0 384 384" fill="none" xmlns="http://www.w3.org/2000/svg">
<path d="M130.97 194.02C130.97 214.66 114.24 231.4 93.5902 231.4C72.9402 231.4 56.2202 214.67 56.2202 194.02C56.2202 173.37 72.9502 156.64 93.5902 156.64C114.23 156.64 130.97 173.37 130.97 194.02Z" fill="black" style="fill:black;fill-opacity:1;"/>
<path d="M354.37 194.02C354.37 214.66 337.64 231.4 317 231.4C296.36 231.4 279.62 214.67 279.62 194.02C279.62 173.37 296.35 156.64 317 156.64C337.65 156.64 354.37 173.37 354.37 194.02Z" fill="black" style="fill:black;fill-opacity:1;"/>
<path d="M292.32 272.66C296.91 274 300.57 275.85 303.36 277.78L336.27 262.76L360.35 230.34C346.01 215.43 326.19 204.65 303.46 199.95C291.26 197.43 279.23 201.29 270.82 209.25L142.16 201.87L137.75 198.98C130.74 200.79 124.2 204.68 119.13 210.58C107.38 224.25 94.3302 227.14 87.6102 227.64C85.4302 227.8 83.5202 227.76 81.8402 227.6C78.2702 227.26 75.3702 224.98 74.0902 221.88L41.5302 233.09L20.6602 275.67C35.7702 291.65 58.6302 300.84 84.1102 301.05H84.9902C93.2902 301.05 101.53 300.11 109.58 298.28L104.91 312.08C97.4802 334.06 113.83 356.85 137.03 356.85H273.56C296.78 356.85 313.13 334.05 305.68 312.06L292.32 272.66Z" fill="#60D7E5" style="fill:#60D7E5;fill:color(display-p3 0.3765 0.8431 0.8980);fill-opacity:1;"/>
<path d="M328.74 141.49C328.74 175.69 266.66 128.12 204.74 128.03C143.15 127.94 81.7402 175.5 81.7402 141.49C81.7402 73.28 137.03 17.98 205.24 17.98C273.45 17.98 328.74 73.28 328.74 141.48V141.49Z" fill="black" style="fill:black;fill-opacity:1;"/>
<path d="M314.48 134.35C315.86 194.69 268.07 244.72 207.74 246.1C147.41 247.48 97.3801 199.69 95.9901 139.36C94.6101 79.0202 142.4 29.0002 202.73 27.6102C263.07 26.2302 313.09 74.0202 314.48 134.35Z" fill="#8E4F3E" style="fill:#8E4F3E;fill:color(display-p3 0.5569 0.3098 0.2431);fill-opacity:1;"/>
<path d="M315.19 120.27C296.12 119.81 273.15 113.09 250.9 100.25C231.27 88.9202 215.51 74.7202 205.24 60.3402C194.98 74.7202 179.21 88.9102 159.58 100.25C137.33 113.09 114.37 119.81 95.29 120.27C103.3 66.7402 149.48 25.7002 205.24 25.7002C261 25.7002 307.18 66.7502 315.19 120.27Z" fill="black" style="fill:black;fill-opacity:1;"/>
<path d="M238.52 114.73C237.72 118.6 244.27 123.24 253.17 125.08C262.06 126.92 269.92 125.28 270.72 121.4C271.52 117.52 264.97 112.89 256.08 111.05C247.19 109.21 239.33 110.85 238.53 114.73H238.52Z" fill="black" style="fill:black;fill-opacity:1;"/>
<path d="M139.76 121.4C138.96 117.52 145.52 112.89 154.41 111.05C163.3 109.21 171.16 110.85 171.97 114.73C172.77 118.6 166.22 123.24 157.32 125.08C148.43 126.92 140.57 125.28 139.77 121.4H139.76Z" fill="black" style="fill:black;fill-opacity:1;"/>
<path d="M278.27 172.67C273.54 177.37 266.91 180.08 259.73 179.58C246.5 178.66 236.52 167.19 237.44 153.95C238.37 140.73 249.84 130.74 263.07 131.67C263.44 131.69 263.76 131.71 264.08 131.77C260.06 135.71 265.56 171.24 278.28 172.67H278.27Z" fill="white" style="fill:white;fill-opacity:1;"/>
<path d="M256.99 147.16C256.09 160.03 265.55 171.25 278.26 172.68C282.29 168.74 284.92 163.35 285.34 157.3C286.23 144.43 276.78 133.21 264.06 131.78C260.04 135.72 257.4 141.11 256.98 147.17L256.99 147.16Z" fill="black" style="fill:black;fill-opacity:1;"/>
<path d="M166.01 172.67C161.27 177.37 154.64 180.08 147.47 179.58C134.23 178.66 124.26 167.19 125.18 153.95C126.1 140.73 137.57 130.74 150.81 131.67C151.17 131.69 151.5 131.71 151.82 131.77C147.8 135.71 153.3 171.24 166.02 172.67H166.01Z" fill="white" style="fill:white;fill-opacity:1;"/>
<path d="M144.73 147.16C143.84 160.03 153.29 171.25 166.01 172.68C170.03 168.74 172.67 163.35 173.09 157.3C173.99 144.43 164.53 133.21 151.81 131.78C147.79 135.72 145.15 141.11 144.73 147.17V147.16Z" fill="black" style="fill:black;fill-opacity:1;"/>
<path d="M205.24 182.23C199.08 182.23 194.08 178.14 194.08 173.12C194.08 168.1 199.09 164.01 205.24 164.01C211.39 164.01 216.41 168.1 216.41 173.12C216.41 178.14 211.4 182.23 205.24 182.23ZM205.24 167.75C201.15 167.75 197.81 170.16 197.81 173.12C197.81 176.08 201.14 178.5 205.24 178.5C209.34 178.5 212.67 176.09 212.67 173.12C212.67 170.15 209.27 167.75 205.24 167.75Z" fill="black" style="fill:black;fill-opacity:1;"/>
<path d="M205.24 198.95C192.51 198.95 182.15 188.59 182.15 175.86C182.15 174.83 182.99 173.99 184.02 173.99C185.05 173.99 185.89 174.83 185.89 175.86C185.89 186.53 194.57 195.21 205.24 195.21C215.91 195.21 224.59 186.53 224.59 175.86C224.59 174.83 225.43 173.99 226.46 173.99C227.49 173.99 228.33 174.83 228.33 175.86C228.33 188.59 217.97 198.95 205.24 198.95Z" fill="black" style="fill:black;fill-opacity:1;"/>
<path d="M326.44 118.19C341.74 119.72 352.91 133.36 351.38 148.66C349.85 163.96 336.21 175.12 320.91 173.6C305.61 172.07 294.45 158.43 295.97 143.13C297.5 127.83 311.14 116.67 326.43 118.19H326.44Z" fill="#8E4F3E" style="fill:#8E4F3E;fill:color(display-p3 0.5569 0.3098 0.2431);fill-opacity:1;"/>
<path d="M319.59 161.23C319.22 161.23 318.85 161.13 318.52 160.9C311.54 156.04 309.81 146.41 314.67 139.43C317.02 136.05 320.55 133.78 324.61 133.06C328.66 132.33 332.76 133.23 336.14 135.58C336.99 136.17 337.19 137.33 336.6 138.18C336.01 139.03 334.85 139.24 334 138.65C331.44 136.87 328.34 136.19 325.27 136.74C322.19 137.29 319.52 139.01 317.74 141.57C314.06 146.86 315.37 154.15 320.66 157.83C321.51 158.42 321.72 159.58 321.12 160.43C320.76 160.95 320.18 161.23 319.58 161.23H319.59Z" fill="black" style="fill:black;fill-opacity:1;"/>
<path d="M112.03 187.46L57.3502 192.73C55.0902 192.95 53.0802 191.29 52.8602 189.03L42.9702 86.4099C42.7602 84.1498 44.4102 82.1398 46.6802 81.9198L101.36 76.6498C103.62 76.4398 105.63 78.0898 105.85 80.3598L115.74 182.98C115.95 185.24 114.3 187.25 112.03 187.47V187.46Z" fill="#FFD76B" style="fill:#FFD76B;fill:color(display-p3 1.0000 0.8431 0.4196);fill-opacity:1;"/>
<path d="M66 95.4936C66 99.0882 63.0882 102 59.5064 102C55.9247 102 53 99.0882 53 95.4936C53 91.8989 55.9118 89 59.5064 89C63.1011 89 66 91.9118 66 95.4936Z" fill="black" style="fill:black;fill-opacity:1;"/>
<path d="M109.25 163.94L95.1002 180.48C94.7802 180.86 81.7302 194.01 77.4802 203.06C75.7502 206.69 74.5102 210.43 73.8402 214.11C73.6302 215.35 73.4802 216.51 73.4002 217.57C73.2802 219.09 73.5402 220.56 74.0802 221.88L20.6402 275.68C19.6302 274.6 18.6502 273.5 17.7102 272.36C3.64017 255.45 -2.34983 232.17 0.840172 206.8C3.77017 183.56 14.4802 160.52 30.9902 141.92C32.1002 140.66 53.2702 116.04 53.2702 116.04C53.2802 116.04 53.2902 116.02 53.3002 116.02L53.6002 115.66C56.8802 111.75 62.7302 111.24 66.6502 114.54C68.5302 116.11 69.6302 118.27 69.9002 120.53C70.2302 122.35 70.0302 124.26 69.2902 126C72.6602 123.63 77.3202 123.7 80.6302 126.48C83.1202 128.57 84.2202 131.68 83.8602 134.67C83.7902 135.75 83.5502 136.82 83.1202 137.84C84.3302 137.08 85.6702 136.63 87.0502 136.45C89.6602 135.98 92.4602 136.62 94.6502 138.46C97.9902 141.26 98.8402 145.91 97.0002 149.64C98.4202 148.76 100.03 148.29 101.67 148.23C101.79 148.23 101.91 148.23 102.03 148.21H102.29C104.36 148.23 106.43 148.94 108.15 150.37C109.18 151.23 109.97 152.27 110.52 153.4C112.21 156.74 111.86 160.91 109.27 163.94H109.25Z" fill="#8E4F3E" style="fill:#8E4F3E;fill:color(display-p3 0.5569 0.3098 0.2431);fill-opacity:1;"/>
<path d="M79.36 172.08C78.93 172.08 78.5 171.93 78.15 171.63C77.36 170.96 77.27 169.78 77.94 168.99L93.73 150.53C94.4 149.74 95.58 149.65 96.37 150.32C97.16 150.99 97.25 152.17 96.57 152.96L80.78 171.42C80.41 171.85 79.89 172.07 79.36 172.07V172.08Z" fill="black" style="fill:black;fill-opacity:1;"/>
<path d="M65.5201 160.25C65.0901 160.25 64.6601 160.1 64.3101 159.8C63.5201 159.13 63.4301 157.95 64.1001 157.16L79.8901 138.7C80.5601 137.91 81.7401 137.82 82.5301 138.49C83.3201 139.16 83.4101 140.35 82.7301 141.13L66.9401 159.59C66.5701 160.02 66.0501 160.24 65.5201 160.24V160.25Z" fill="black" style="fill:black;fill-opacity:1;"/>
<path d="M51.5 148.26C51.07 148.26 50.64 148.11 50.29 147.81C49.51 147.14 49.41 145.96 50.09 145.17L65.88 126.71C66.55 125.92 67.74 125.83 68.52 126.5C69.3 127.17 69.4 128.35 68.73 129.14L52.94 147.6C52.57 148.03 52.05 148.25 51.52 148.25L51.5 148.26Z" fill="black" style="fill:black;fill-opacity:1;"/>
<path d="M298.29 286.96C297.52 286.96 296.79 286.48 296.52 285.71L282.77 246.27C282.43 245.3 282.95 244.23 283.92 243.89C284.9 243.55 285.96 244.06 286.3 245.04L300.05 284.48C300.39 285.45 299.87 286.52 298.9 286.86C298.7 286.93 298.49 286.97 298.28 286.97L298.29 286.96Z" fill="black" style="fill:black;fill-opacity:1;"/>
<path d="M132.24 218.19C150.94 234.99 175.46 245.43 202.41 246.12C198.19 258.75 185.65 269.49 169.26 272.88C146.61 277.57 125.17 266.5 121.37 248.15C119.12 237.29 123.55 226.31 132.25 218.19H132.24Z" fill="#06899A" style="fill:#06899A;fill:color(display-p3 0.0235 0.5373 0.6039);fill-opacity:1;"/>
<path d="M285.12 248.15C281.31 266.5 259.87 277.57 237.23 272.88C220.84 269.49 208.31 258.77 204.08 246.15C204.47 246.15 204.85 246.15 205.24 246.15C232.28 246.15 257.04 236.33 276.11 220.05C283.56 227.95 287.2 238.1 285.12 248.15Z" fill="#06899A" style="fill:#06899A;fill:color(display-p3 0.0235 0.5373 0.6039);fill-opacity:1;"/>
<path d="M208.11 275.55C208.11 278.24 205.93 280.43 203.23 280.43C200.53 280.43 198.35 278.25 198.35 275.55C198.35 272.85 200.53 270.68 203.23 270.68C205.93 270.68 208.11 272.86 208.11 275.55Z" fill="black" style="fill:black;fill-opacity:1;"/>
<path d="M377.979 256.76C373.839 247.01 367.849 238.12 360.349 230.34L329.429 256.08L303.359 277.78C304.699 278.7 305.839 279.64 306.799 280.54C304.409 281.02 301.389 281.51 297.599 281.93C286.369 283.17 272.619 283.36 259.429 283.39C258.769 283.39 258.109 283.41 257.459 283.45L239.519 283.11C239.069 283.03 238.609 282.97 238.139 282.96L216.369 282.36C212.399 282.25 208.919 284.59 207.399 288.01C206.869 289.15 206.559 290.42 206.529 291.76C206.489 293.99 207.249 296.05 208.539 297.67C208.589 297.74 208.649 297.81 208.699 297.87C208.779 297.96 208.859 298.05 208.929 298.14C210.009 299.37 211.389 300.33 212.969 300.88C208.899 301.8 205.829 305.37 205.759 309.73C205.709 312.59 206.959 315.17 208.969 316.91C209.969 317.87 211.169 318.63 212.509 319.09C211.449 319.39 210.459 319.88 209.579 320.5C207.019 322.1 205.299 324.92 205.249 328.16C205.159 332.39 207.929 336 211.769 337.19C211.849 337.22 211.929 337.26 212.009 337.28C210.179 337.8 208.579 338.84 207.369 340.24C205.779 341.86 204.779 344.07 204.749 346.53C204.639 351.65 208.719 355.87 213.829 355.97H214.289C214.289 355.97 214.309 355.98 214.329 355.98L236.089 356.58C236.769 356.6 237.429 356.54 238.069 356.43L260.069 356.84C260.069 356.84 260.069 356.77 260.069 356.67C298.639 356.6 351.139 356.34 373.839 320.57C373.869 320.52 373.899 320.48 373.929 320.43C385.739 301.69 387.219 278.48 377.959 256.74L377.979 256.76Z" fill="#8E4F3E" style="fill:#8E4F3E;fill:color(display-p3 0.5569 0.3098 0.2431);fill-opacity:1;"/>
<path d="M240.05 303.53C240.05 303.53 240.01 303.53 240 303.53L215.71 302.87C214.68 302.84 213.86 301.98 213.89 300.95C213.92 299.91 214.8 299.11 215.81 299.13L240.1 299.8C241.13 299.83 241.95 300.69 241.92 301.72C241.89 302.74 241.06 303.54 240.05 303.54V303.53Z" fill="black" style="fill:black;fill-opacity:1;"/>
<path d="M239.55 321.72C239.55 321.72 239.52 321.72 239.5 321.72L215.22 321.06C214.19 321.03 213.37 320.17 213.4 319.14C213.43 318.11 214.3 317.3 215.32 317.32L239.61 317.98C240.64 318.01 241.46 318.87 241.43 319.9C241.4 320.92 240.57 321.72 239.56 321.72H239.55Z" fill="black" style="fill:black;fill-opacity:1;"/>
<path d="M239.04 340.16H238.99L214.7 339.49C213.67 339.46 212.85 338.6 212.88 337.57C212.91 336.54 213.77 335.71 214.8 335.75L239.08 336.41C240.11 336.44 240.93 337.3 240.9 338.33C240.87 339.35 240.04 340.15 239.03 340.15L239.04 340.16Z" fill="black" style="fill:black;fill-opacity:1;"/>
<path d="M286.57 360.92C286.57 363.73 284.29 366.01 281.48 366.01H206.74L189.49 355.82H281.48C284.29 355.82 286.57 358.1 286.57 360.91V360.92Z" fill="#FF9B77" style="fill:#FF9B77;fill:color(display-p3 1.0000 0.6078 0.4667);fill-opacity:1;"/>
<path d="M206.73 366.02H194.98L188.58 363.93L182.18 366.02H148.85L141.78 364.49L136.05 366.02H102.72L95.3698 364.49L89.9298 366.02H56.5998L53.9898 364.97C52.2098 364.97 51.2498 364.68 50.5498 363.03L49.1298 361.94L26.8098 308.96L28.0698 301.57L21.4998 296.34L7.05984 262.06C6.40984 260.51 7.54984 258.8 9.22984 258.8H18.5198L25.3998 260.44L32.2898 258.8H68.1098L75.1498 260.63L81.8798 258.8H110.77L117.66 260.6L124.55 258.8H160C160.12 258.8 160.23 258.8 160.35 258.82C161.15 258.94 161.26 260.15 161.59 260.92L163.57 263.54L186.39 317.71L186.7 326.04L191.81 330.58L206.73 366.01V366.02Z" fill="#392092" style="fill:#392092;fill:color(display-p3 0.2235 0.1255 0.5725);fill-opacity:1;"/>
<path d="M32.31 258.79C31.75 262.09 28.88 264.59 25.43 264.59C21.98 264.59 19.1 262.09 18.54 258.79H32.31Z" fill="#2E1B7E" style="fill:#2E1B7E;fill:color(display-p3 0.1804 0.1059 0.4941);fill-opacity:1;"/>
<path d="M81.8999 258.79C81.3399 262.09 78.4699 264.59 75.0199 264.59C71.5699 264.59 68.6899 262.09 68.1299 258.79H81.8999Z" fill="#2E1B7E" style="fill:#2E1B7E;fill:color(display-p3 0.1804 0.1059 0.4941);fill-opacity:1;"/>
<path d="M32.4098 302.09C32.4098 305.47 30.0198 308.29 26.8298 308.94L21.5098 296.3C22.6198 295.55 23.9698 295.1 25.4298 295.1C29.2898 295.1 32.4198 298.22 32.4198 302.08L32.4098 302.09Z" fill="#2E1B7E" style="fill:#2E1B7E;fill:color(display-p3 0.1804 0.1059 0.4941);fill-opacity:1;"/>
<path d="M102.74 366.01H89.9502C91.0302 363.56 93.4902 361.83 96.3402 361.83C99.1902 361.83 101.66 363.55 102.74 366.01Z" fill="#2E1B7E" style="fill:#2E1B7E;fill:color(display-p3 0.1804 0.1059 0.4941);fill-opacity:1;"/>
<path d="M56.6101 366.01H53.8101C52.0201 366.01 50.4201 364.94 49.7201 363.3L49.1401 361.92C49.4801 361.87 49.8401 361.83 50.2101 361.83C53.0701 361.83 55.5201 363.55 56.6001 366.01H56.6101Z" fill="#2E1B7E" style="fill:#2E1B7E;fill:color(display-p3 0.1804 0.1059 0.4941);fill-opacity:1;"/>
<path d="M124.56 258.79C124 262.09 121.13 264.59 117.67 264.59C114.21 264.59 111.35 262.09 110.79 258.79H124.56Z" fill="#2E1B7E" style="fill:#2E1B7E;fill:color(display-p3 0.1804 0.1059 0.4941);fill-opacity:1;"/>
<path d="M163.57 263.54C161.91 262.51 160.73 260.81 160.37 258.82C161.16 258.95 161.84 259.47 162.17 260.23L163.57 263.55V263.54Z" fill="#2E1B7E" style="fill:#2E1B7E;fill:color(display-p3 0.1804 0.1059 0.4941);fill-opacity:1;"/>
<path d="M191.8 330.55C190.84 331.05 189.75 331.33 188.6 331.33C184.73 331.33 181.61 328.21 181.61 324.34C181.61 321.25 183.61 318.63 186.39 317.71L191.8 330.55Z" fill="#2E1B7E" style="fill:#2E1B7E;fill:color(display-p3 0.1804 0.1059 0.4941);fill-opacity:1;"/>
<path d="M194.99 366.01H182.19C183.27 363.56 185.73 361.83 188.59 361.83C191.45 361.83 193.9 363.55 194.98 366.01H194.99Z" fill="#2E1B7E" style="fill:#2E1B7E;fill:color(display-p3 0.1804 0.1059 0.4941);fill-opacity:1;"/>
<path d="M148.86 366.01H136.07C137.16 363.56 139.61 361.83 142.47 361.83C145.33 361.83 147.79 363.55 148.86 366.01Z" fill="#2E1B7E" style="fill:#2E1B7E;fill:color(display-p3 0.1804 0.1059 0.4941);fill-opacity:1;"/>
<path d="M128.411 305.29C126.961 300.83 122.161 298.38 117.681 299.83C116.761 300.13 115.571 300.87 114.221 301.9C114.791 300.32 115.141 298.94 115.141 298C115.141 293.29 111.321 289.46 106.631 289.46C101.941 289.46 98.1107 293.28 98.1107 298C98.1107 298.94 98.4506 300.32 99.0106 301.9C97.6706 300.88 96.4707 300.13 95.5807 299.83C91.1007 298.38 86.3007 300.83 84.8507 305.29C83.3807 309.77 85.8306 314.57 90.3106 316.02C91.2106 316.32 92.6407 316.4 94.3207 316.38C92.9307 317.32 91.8507 318.24 91.2707 319C88.5207 322.82 89.3506 328.13 93.1706 330.91C96.9706 333.66 102.301 332.83 105.051 329.01C105.631 328.24 106.141 326.92 106.631 325.32C107.101 326.92 107.631 328.24 108.181 329.01C110.951 332.83 116.291 333.66 120.091 330.91C123.891 328.14 124.741 322.82 121.971 319C121.421 318.23 120.331 317.32 118.941 316.38C120.621 316.4 122.031 316.31 122.951 316.02C127.411 314.57 129.861 309.77 128.411 305.29ZM106.631 320.09C102.111 320.09 98.4607 316.44 98.4607 311.94C98.4607 307.44 102.111 303.77 106.631 303.77C111.151 303.77 114.801 307.42 114.801 311.94C114.801 316.46 111.131 320.09 106.631 320.09Z" fill="#FF9B77" style="fill:#FF9B77;fill:color(display-p3 1.0000 0.6078 0.4667);fill-opacity:1;"/>
</svg>
