<svg width="384" height="384" viewBox="0 0 384 384" fill="none" xmlns="http://www.w3.org/2000/svg">
<path d="M326.3 132.739C359.8 152.019 371.32 194.799 352.04 228.289C332.76 261.789 289.98 273.309 256.48 254.029C222.99 234.749 211.46 191.969 230.75 158.469C250.03 124.969 292.81 113.449 326.3 132.729V132.739Z" fill="#FFCBB8" style="fill:#FFCBB8;fill:color(display-p3 1.0000 0.7961 0.7216);fill-opacity:1;"/>
<path d="M373.38 182.629C372.41 181.979 371.4 181.419 370.38 180.929C370.84 180.359 371.28 179.769 371.7 179.149C379.03 168.179 376.08 153.339 365.11 146.009C360.58 142.979 355.39 141.709 350.34 142.029C350.48 134.169 346.75 126.399 339.73 121.699C332.71 117.009 324.1 116.529 316.89 119.679C315.25 114.889 312.1 110.579 307.57 107.559C296.6 100.229 281.76 103.179 274.43 114.149C274.01 114.769 273.64 115.399 273.29 116.049C272.45 115.289 271.54 114.579 270.57 113.929C259.6 106.599 244.77 109.549 237.43 120.519C230.1 131.489 233.05 146.329 244.01 153.659C254.98 160.989 269.82 158.039 277.15 147.069C277.56 146.449 277.94 145.819 278.29 145.169C279.13 145.929 280.04 146.639 281.01 147.289C288.03 151.979 296.64 152.449 303.85 149.309C305.49 154.099 308.64 158.399 313.17 161.429C317.7 164.459 322.89 165.729 327.94 165.409C327.8 173.269 331.53 181.039 338.55 185.729C339.52 186.379 340.53 186.939 341.55 187.439C341.09 188.009 340.65 188.599 340.23 189.219C332.9 200.189 335.85 215.029 346.82 222.359C357.79 229.689 372.63 226.739 379.96 215.769C387.29 204.799 384.34 189.959 373.37 182.629H373.38Z" fill="#F34100" style="fill:#F34100;fill:color(display-p3 0.9529 0.2549 0.0000);fill-opacity:1;"/>
<path d="M281.82 169.648C280.84 171.988 275.7 172.058 270.34 169.808C264.98 167.558 261.42 163.848 262.4 161.508C263.38 159.168 268.52 159.098 273.89 161.348C279.25 163.598 282.8 167.308 281.82 169.648Z" fill="black" style="fill:black;fill-opacity:1;"/>
<path d="M331.55 208.939C333.38 207.189 331.59 202.359 327.57 198.169C323.54 193.979 318.8 191.999 316.97 193.749C315.14 195.509 316.93 200.329 320.95 204.519C324.98 208.719 329.73 210.689 331.55 208.939Z" fill="black" style="fill:black;fill-opacity:1;"/>
<path d="M318.71 238.309C318.52 238.379 318.32 238.439 318.09 238.499C309.87 240.629 301.48 235.689 299.35 227.479C297.22 219.259 302.15 210.869 310.37 208.739C314.83 207.579 319.32 208.509 322.85 210.909C315.01 213.299 315.72 236.309 318.71 238.319V238.309Z" fill="white" style="fill:white;fill-opacity:1;"/>
<path d="M312.45 229.449C310.38 221.449 315.01 213.279 322.85 210.889C325.85 212.899 328.14 215.979 329.11 219.739C331.18 227.739 326.55 235.909 318.71 238.299C315.71 236.289 313.42 233.199 312.45 229.439V229.449Z" fill="black" style="fill:black;fill-opacity:1;"/>
<path d="M259.44 197.649C259.24 197.719 259.03 197.769 258.81 197.839C250.59 199.969 242.2 195.039 240.07 186.809C237.94 178.589 242.88 170.199 251.1 168.069C255.56 166.919 260.05 167.839 263.58 170.239C255.74 172.629 256.45 195.639 259.45 197.649H259.44Z" fill="white" style="fill:white;fill-opacity:1;"/>
<path d="M253.18 188.789C251.11 180.799 255.74 172.629 263.58 170.229C266.58 172.239 268.87 175.319 269.84 179.089C271.91 187.089 267.28 195.259 259.44 197.649C256.44 195.639 254.15 192.559 253.18 188.789Z" fill="black" style="fill:black;fill-opacity:1;"/>
<path d="M279.52 219.509C277.82 219.509 276.08 218.949 274.57 217.909C272.91 216.769 271.7 215.179 271.14 213.429C270.54 211.539 270.78 209.599 271.8 208.109C273.83 205.149 278.38 204.729 281.94 207.169C283.59 208.299 284.81 209.889 285.37 211.649C285.97 213.539 285.73 215.479 284.71 216.969C283.69 218.459 281.97 219.379 279.99 219.499C279.84 219.499 279.68 219.509 279.53 219.509H279.52ZM276.96 209.309C276.07 209.309 275.3 209.619 274.88 210.229C274.39 210.949 274.56 211.829 274.71 212.289C275.01 213.239 275.73 214.159 276.69 214.809C277.64 215.469 278.77 215.809 279.75 215.749C280.23 215.719 281.12 215.559 281.61 214.839C282.1 214.119 281.93 213.239 281.79 212.779C281.49 211.829 280.77 210.909 279.81 210.259C278.89 209.629 277.86 209.309 276.96 209.309Z" fill="black" style="fill:black;fill-opacity:1;"/>
<path d="M277.23 229.449C274.14 229.449 271.12 228.519 268.52 226.729C261.49 221.909 259.69 212.269 264.52 205.229C265.1 204.369 266.27 204.159 267.13 204.739C267.99 205.329 268.2 206.489 267.61 207.349C263.96 212.679 265.32 219.979 270.65 223.639C273.23 225.409 276.34 226.069 279.42 225.489C282.5 224.919 285.16 223.179 286.94 220.599C287.53 219.739 288.69 219.529 289.55 220.109C290.41 220.689 290.62 221.859 290.03 222.719C287.69 226.129 284.17 228.419 280.11 229.169C279.15 229.349 278.2 229.439 277.25 229.439L277.23 229.449Z" fill="black" style="fill:black;fill-opacity:1;"/>
<path d="M368.18 237.779C369.98 247.459 363.6 256.769 353.92 258.569C344.24 260.369 334.93 253.989 333.13 244.309C331.32 234.629 337.71 225.319 347.39 223.519C357.07 221.719 366.38 228.099 368.18 237.779Z" fill="#FFCBB8" style="fill:#FFCBB8;fill:color(display-p3 1.0000 0.7961 0.7216);fill-opacity:1;"/>
<path d="M343.62 248.559C342.86 248.559 342.15 248.099 341.87 247.349C339.81 241.909 342.56 235.799 348 233.739C353.44 231.679 359.55 234.429 361.61 239.869C361.98 240.839 361.49 241.919 360.52 242.289C359.56 242.659 358.47 242.169 358.1 241.199C357.46 239.499 356.19 238.149 354.53 237.409C352.87 236.659 351.03 236.609 349.33 237.249C347.63 237.889 346.28 239.159 345.54 240.819C344.79 242.479 344.74 244.319 345.38 246.019C345.75 246.989 345.26 248.069 344.29 248.439C344.08 248.519 343.85 248.559 343.63 248.559H343.62Z" fill="black" style="fill:black;fill-opacity:1;"/>
<path d="M240.77 145.939C245.92 154.329 243.29 165.309 234.9 170.449C226.51 175.599 215.53 172.969 210.38 164.579C205.23 156.189 207.86 145.209 216.25 140.059C224.64 134.909 235.62 137.539 240.77 145.929V145.939Z" fill="#FFCBB8" style="fill:#FFCBB8;fill:color(display-p3 1.0000 0.7961 0.7216);fill-opacity:1;"/>
<path d="M222.85 165.728C221.82 165.728 220.98 164.898 220.97 163.868C220.97 162.828 221.79 161.988 222.83 161.978C224.65 161.968 226.35 161.248 227.63 159.958C228.9 158.668 229.6 156.958 229.59 155.138C229.57 151.408 226.52 148.378 222.79 148.378C222.77 148.378 222.75 148.378 222.73 148.378C221.7 148.378 220.86 147.548 220.85 146.518C220.85 145.478 221.68 144.638 222.71 144.628C222.73 144.628 222.76 144.628 222.78 144.628C228.57 144.628 233.29 149.318 233.33 155.118C233.35 157.938 232.27 160.598 230.29 162.598C228.31 164.608 225.66 165.728 222.85 165.738H222.84L222.85 165.728Z" fill="black" style="fill:black;fill-opacity:1;"/>
<path d="M253.22 302.729L135.02 305.269L42.0898 302.729C40.5498 302.729 39.2998 301.479 39.2998 299.939V254.669C39.2998 253.129 40.5498 251.879 42.0898 251.879H67.8698L167.96 248.849L247.36 251.879H253.22C254.76 251.879 256.01 253.129 256.01 254.669V299.939C256.01 301.479 254.76 302.729 253.22 302.729Z" fill="#60D7E5" style="fill:#60D7E5;fill:color(display-p3 0.3765 0.8431 0.8980);fill-opacity:1;"/>
<path d="M224.71 290.399H70.5999C69.2699 290.399 68.1899 289.319 68.1899 287.989V266.609C68.1899 265.279 69.2699 264.199 70.5999 264.199H224.71C226.04 264.199 227.12 265.279 227.12 266.609V287.989C227.12 289.319 226.04 290.399 224.71 290.399Z" fill="#08A5B8" style="fill:#08A5B8;fill:color(display-p3 0.0314 0.6471 0.7216);fill-opacity:1;"/>
<path d="M235.02 170.969V176.519L227.57 193.179L235.02 222.859V226.829C235.02 229.489 232.86 231.649 230.2 231.649L171.27 234.539L118.27 231.649L113.82 199.669L118.27 166.159L154.42 162.289L226.67 166.159H230.19C232.85 166.159 235.01 168.319 235.01 170.969H235.02Z" fill="#60D7E5" style="fill:#60D7E5;fill:color(display-p3 0.3765 0.8431 0.8980);fill-opacity:1;"/>
<path d="M153.72 176.559H234.95V184.739L233.34 186.869L234.95 188.539V197.879L233.81 199.679L234.95 201.559V210.879L234.19 212.759L234.95 214.639V222.809H153.72C146.65 222.809 140.32 219.639 136.08 214.639C135.64 214.119 136.83 213.319 136.43 212.759C135.95 212.079 133.89 211.619 133.49 210.879C131.94 208.079 130.95 204.919 130.68 201.559C130.63 200.939 131.55 200.319 131.55 199.679C131.55 199.039 130.63 198.419 130.68 197.799C130.95 194.429 131.95 191.269 133.5 188.459C133.85 187.829 136.45 186.939 136.86 186.339C137.3 185.699 135.56 185.339 136.07 184.739C140.31 179.729 146.64 176.559 153.72 176.559Z" fill="#FFD257" style="fill:#FFD257;fill:color(display-p3 1.0000 0.8235 0.3412);fill-opacity:1;"/>
<path d="M234.95 210.869V214.619H136.08C135.1 213.459 134.23 212.209 133.49 210.869H234.95Z" fill="black" style="fill:black;fill-opacity:1;"/>
<path d="M234.95 184.739V188.489H133.49C134.23 187.149 135.1 185.889 136.08 184.739H234.95Z" fill="black" style="fill:black;fill-opacity:1;"/>
<path d="M234.95 197.799V201.549H130.68C130.63 200.939 130.61 200.299 130.61 199.669C130.61 199.039 130.63 198.409 130.68 197.789H234.95V197.799Z" fill="black" style="fill:black;fill-opacity:1;"/>
<path d="M118.27 166.149V231.649L91.6101 234.289L67.8601 231.649H42.9501C40.2901 231.649 38.1401 229.489 38.1401 226.829V170.969C38.1401 168.309 40.3001 166.159 42.9501 166.159H88.2601L99.6201 163.509L118.27 166.159V166.149Z" fill="#7562DD" style="fill:#7562DD;fill:color(display-p3 0.4588 0.3843 0.8667);fill-opacity:1;"/>
<path d="M102.22 216.369H54.19C52.28 216.369 50.73 214.819 50.73 212.899V184.899C50.73 182.979 52.28 181.429 54.19 181.429H102.22C104.13 181.429 105.69 182.979 105.69 184.899V212.899C105.69 214.809 104.14 216.369 102.22 216.369Z" fill="#FF9066" style="fill:#FF9066;fill:color(display-p3 1.0000 0.5647 0.4000);fill-opacity:1;"/>
<path d="M180.89 302.729L188.56 331.819L180.89 357.639H2.98C1.33 357.639 0 356.299 0 354.659V347.529L9.72 330.779L0 313.148V305.739C0 304.079 1.34 302.749 2.98 302.749H180.88L180.89 302.729Z" fill="#FF9066" style="fill:#FF9066;fill:color(display-p3 1.0000 0.5647 0.4000);fill-opacity:1;"/>
<path d="M147.66 347.238H0V338.148L1.77 336.258L0 334.368V326.138L1.29 324.138L0 322.258V313.148H147.66C154.21 313.148 159.9 316.838 162.75 322.258C163.13 322.968 161.68 323.368 161.96 324.138C162.14 324.638 164.06 325.488 164.19 325.998C164.53 327.338 164.71 328.748 164.71 330.198C164.71 331.648 164.53 333.058 164.19 334.398C164.03 335.038 161.95 335.438 161.72 336.048C161.48 336.678 163.08 337.518 162.76 338.118C159.91 343.548 154.22 347.248 147.66 347.248V347.238Z" fill="#FFD257" style="fill:#FFD257;fill:color(display-p3 1.0000 0.8235 0.3412);fill-opacity:1;"/>
<path d="M164.18 325.999H0V322.249H162.74C163.36 323.429 163.85 324.679 164.18 325.999Z" fill="black" style="fill:black;fill-opacity:1;"/>
<path d="M164.18 334.378C163.85 335.698 163.36 336.948 162.74 338.128H0V334.378H164.18Z" fill="black" style="fill:black;fill-opacity:1;"/>
<path d="M260.06 305.719V354.648C260.06 356.298 258.72 357.639 257.07 357.639H180.88V302.729H257.07C258.72 302.729 260.06 304.069 260.06 305.719Z" fill="#7562DD" style="fill:#7562DD;fill:color(display-p3 0.4588 0.3843 0.8667);fill-opacity:1;"/>
<path d="M217.66 318.129C224.32 324.789 224.32 335.579 217.66 342.239C211 348.899 200.21 348.899 193.55 342.239C186.89 335.579 186.89 324.789 193.55 318.129C200.21 311.469 211 311.469 217.66 318.129Z" fill="#FF9066" style="fill:#FF9066;fill:color(display-p3 1.0000 0.5647 0.4000);fill-opacity:1;"/>
<path d="M249.26 347.238H235.98C235.01 347.238 234.23 346.448 234.23 345.488V314.898C234.23 313.938 235.01 313.148 235.98 313.148H249.26C250.23 313.148 251.01 313.938 251.01 314.898V345.488C251.01 346.458 250.22 347.238 249.26 347.238Z" fill="#FF9066" style="fill:#FF9066;fill:color(display-p3 1.0000 0.5647 0.4000);fill-opacity:1;"/>
<path d="M201.224 166.349H49.7765C48.7945 166.349 48 165.464 48 164.37V144.327C48 143.233 48.7945 142.349 49.7765 142.349H201.224C202.206 142.349 203 143.233 203 144.327V164.37C203 165.464 202.206 166.349 201.224 166.349Z" fill="#FFD257" style="fill:#FFD257;fill:color(display-p3 1.0000 0.8235 0.3412);fill-opacity:1;"/>
<path d="M245.98 251.899H237.79L235.77 250.399L234.04 251.899H218.15L216.35 250.399L214.41 251.899H198.53L196.64 250.399L194.77 251.899H178.88L176.74 250.399L175.15 251.899H159.27L157.09 250.399L155.51 251.899H139.63L137.92 250.399L135.88 251.899H120L118 250.399L116.25 251.899H100.37L98.4701 250.399L96.6101 251.899H80.7301L78.9201 250.399L76.9701 251.899H68.7701C67.5901 251.899 66.6401 250.939 66.6401 249.769V233.789C66.6401 232.609 67.6001 231.659 68.7701 231.659H76.9701L78.9701 233.159L80.7201 231.659H96.6001L98.4201 233.159L100.37 231.659H116.27L118.14 233.159L119.99 231.659H135.88L137.76 233.159L139.63 231.659H155.51L157.39 233.159L159.27 231.659H175.16L176.62 233.159L178.9 231.659H194.81L196.43 233.159L198.52 231.659H214.42L216.37 233.159L218.17 231.659H234.05L235.9 233.159L237.79 231.659H245.98C247.16 231.659 248.11 232.619 248.11 233.789V249.769C248.11 250.949 247.16 251.899 245.98 251.899Z" fill="#FFD257" style="fill:#FFD257;fill:color(display-p3 1.0000 0.8235 0.3412);fill-opacity:1;"/>
<path d="M80.7202 231.648H76.9702V251.898H80.7202V231.648Z" fill="#FF9066" style="fill:#FF9066;fill:color(display-p3 1.0000 0.5647 0.4000);fill-opacity:1;"/>
<path d="M100.36 231.648H96.6099V251.898H100.36V231.648Z" fill="#FF9066" style="fill:#FF9066;fill:color(display-p3 1.0000 0.5647 0.4000);fill-opacity:1;"/>
<path d="M119.99 231.648H116.24V251.898H119.99V231.648Z" fill="#FF9066" style="fill:#FF9066;fill:color(display-p3 1.0000 0.5647 0.4000);fill-opacity:1;"/>
<path d="M139.62 231.648H135.87V251.898H139.62V231.648Z" fill="#FF9066" style="fill:#FF9066;fill:color(display-p3 1.0000 0.5647 0.4000);fill-opacity:1;"/>
<path d="M159.25 231.648H155.5V251.898H159.25V231.648Z" fill="#FF9066" style="fill:#FF9066;fill:color(display-p3 1.0000 0.5647 0.4000);fill-opacity:1;"/>
<path d="M178.89 231.648H175.14V251.898H178.89V231.648Z" fill="#FF9066" style="fill:#FF9066;fill:color(display-p3 1.0000 0.5647 0.4000);fill-opacity:1;"/>
<path d="M198.52 231.648H194.77V251.898H198.52V231.648Z" fill="#FF9066" style="fill:#FF9066;fill:color(display-p3 1.0000 0.5647 0.4000);fill-opacity:1;"/>
<path d="M218.16 231.648H214.41V251.898H218.16V231.648Z" fill="#FF9066" style="fill:#FF9066;fill:color(display-p3 1.0000 0.5647 0.4000);fill-opacity:1;"/>
<path d="M237.79 231.648H234.04V251.898H237.79V231.648Z" fill="#FF9066" style="fill:#FF9066;fill:color(display-p3 1.0000 0.5647 0.4000);fill-opacity:1;"/>
<path d="M206.3 143.109H201.77L198.74 142.179L196.49 143.109H174.66L171.53 141.969L169.36 143.109H147.52L144.33 142.069L142.23 143.109H120.4L117.32 141.909L115.12 143.109H99.9803C98.3503 143.109 97.0303 141.789 97.0303 140.159V125.039L97.8903 122.999L97.0303 119.779V108.299C97.0303 106.669 98.3503 105.349 99.9803 105.349H104.54L107.65 106.209L109.8 105.349H131.63L134.69 106.399L136.93 105.349H158.78L162.28 106.369L164.06 105.349H185.92L189.48 106.389L191.19 105.349H206.32C207.95 105.349 209.27 106.669 209.27 108.299V123.439L208.43 125.479L209.27 128.719V140.149C209.27 141.779 207.95 143.109 206.32 143.109H206.3Z" fill="#60D7E5" style="fill:#60D7E5;fill:color(display-p3 0.3765 0.8431 0.8980);fill-opacity:1;"/>
<path d="M120.39 143.098H115.09L97 125.008V119.708L120.39 143.098Z" fill="#08A5B8" style="fill:#08A5B8;fill:color(display-p3 0.0314 0.6471 0.7216);fill-opacity:1;"/>
<path d="M147.53 143.099H142.23L104.48 105.349H109.77L147.52 143.099H147.53Z" fill="#08A5B8" style="fill:#08A5B8;fill:color(display-p3 0.0314 0.6471 0.7216);fill-opacity:1;"/>
<path d="M174.65 143.099H169.35L131.6 105.349H136.91L174.66 143.099H174.65Z" fill="#08A5B8" style="fill:#08A5B8;fill:color(display-p3 0.0314 0.6471 0.7216);fill-opacity:1;"/>
<path d="M201.79 143.099H196.49L158.73 105.349H164.02L201.79 143.099Z" fill="#08A5B8" style="fill:#08A5B8;fill:color(display-p3 0.0314 0.6471 0.7216);fill-opacity:1;"/>
<path d="M209.25 123.439V128.739L185.86 105.349H191.17L209.26 123.439H209.25Z" fill="#08A5B8" style="fill:#08A5B8;fill:color(display-p3 0.0314 0.6471 0.7216);fill-opacity:1;"/>
<path d="M249.49 317.388C249.49 313.818 252.38 310.918 255.96 310.918C252.39 310.918 249.49 308.028 249.49 304.448C249.49 300.878 252.39 297.978 255.96 297.978C252.39 297.978 249.49 295.088 249.49 291.518C249.49 287.948 252.39 285.048 255.95 285.048C252.38 285.048 249.48 282.158 249.48 278.578C249.48 275.008 252.37 272.108 255.95 272.108H270.88C280.7 272.108 288.66 280.058 288.66 289.878V306.068C288.66 315.888 280.71 323.848 270.89 323.848H255.96C252.39 323.848 249.49 320.958 249.49 317.388Z" fill="#FFCBB8" style="fill:#FFCBB8;fill:color(display-p3 1.0000 0.7961 0.7216);fill-opacity:1;"/>
<path d="M257.64 286.928C256.6 286.928 255.76 286.088 255.76 285.048C255.76 284.008 256.6 283.168 257.63 283.168H272.4C273.44 283.168 274.28 283.998 274.28 285.038C274.28 286.078 273.44 286.918 272.4 286.918H257.64V286.928Z" fill="black" style="fill:black;fill-opacity:1;"/>
<path d="M257.64 299.829C256.6 299.829 255.77 298.989 255.77 297.949C255.77 296.909 256.61 296.069 257.64 296.069H272.4C273.44 296.069 274.28 296.909 274.28 297.939C274.28 298.969 273.44 299.819 272.4 299.819H257.64V299.829Z" fill="black" style="fill:black;fill-opacity:1;"/>
<path d="M257.64 312.729C256.6 312.729 255.77 311.889 255.77 310.849C255.77 309.809 256.61 308.969 257.64 308.969H272.41C273.45 308.969 274.29 309.799 274.29 310.839C274.29 311.879 273.45 312.719 272.41 312.719H257.65L257.64 312.729Z" fill="black" style="fill:black;fill-opacity:1;"/>
<g clip-path="url(#clip0_701_4414)">
<path d="M94.8856 103.522H71.6446C69.8291 103.523 68.0362 103.119 66.3963 102.34C64.7565 101.561 63.3109 100.426 62.165 99.0183C49.22 83.0857 60.3886 65.1191 75.6859 65.1191H94.8856V103.522Z" fill="#8879E1" style="fill:#8879E1;fill:color(display-p3 0.5333 0.4745 0.8824);fill-opacity:1;"/>
<path d="M75.2067 141.424C58.7059 141.018 47.3016 119.696 66.5669 103.025H94.8856V122.044C94.8856 132.866 86.0241 141.691 75.2067 141.424Z" fill="#7CB75E" style="fill:#7CB75E;fill:color(display-p3 0.4863 0.7176 0.3686);fill-opacity:1;"/>
<path d="M94.8846 65.797H71.6436C69.828 65.798 68.0351 65.3941 66.3952 64.6148C64.7554 63.8355 63.3099 62.7004 62.164 61.2921C49.219 45.3611 60.3876 27.3945 75.6849 27.3945H94.8846V65.797Z" fill="#EC4D6B" style="fill:#EC4D6B;fill:color(display-p3 0.9255 0.3020 0.4196);fill-opacity:1;"/>
<path d="M94.8853 27.394H114.085C129.382 27.394 140.549 45.3606 127.604 61.2916C126.458 62.6999 125.013 63.835 123.373 64.6143C121.733 65.3936 119.94 65.7975 118.125 65.7965H94.8853V27.394Z" fill="#FF6933" style="fill:#FF6933;fill:color(display-p3 1.0000 0.4118 0.2000);fill-opacity:1;"/>
<path d="M113.828 103.188C103.36 103.188 94.8423 94.8209 94.8423 84.5389C94.8423 74.2569 103.36 65.8887 113.828 65.8887C124.296 65.8887 132.816 74.2585 132.816 84.5389C132.816 94.8193 124.297 103.188 113.828 103.188Z" fill="#43CFE0" style="fill:#43CFE0;fill:color(display-p3 0.2627 0.8118 0.8784);fill-opacity:1;"/>
</g>
<defs>
<clipPath id="clip0_701_4414">
<rect width="78" height="114.636" fill="white" style="fill:white;fill-opacity:1;" transform="translate(56 27)"/>
</clipPath>
</defs>
</svg>
