<svg width="384" height="384" viewBox="0 0 384 384" fill="none" xmlns="http://www.w3.org/2000/svg">
<g clip-path="url(#clip0_610_1404)">
<path d="M243.16 265.99L229.21 335.54L212.02 358.15L205.46 368.22C205.46 370.45 204.08 376.04 201.87 376.04C201.87 376.04 162.12 378.95 160.54 378.68C154.98 377.47 153.12 379.69 150.16 376.04C148.05 373.49 152.25 371.16 152.07 368.22C151.52 358.81 160.08 352.95 174.66 354.56C175.67 350.08 165 340.02 166.04 335.54C171.33 312.36 176.65 289.17 181.96 265.99H243.17H243.16Z" fill="#D9A08A" style="fill:#D9A08A;fill:color(display-p3 0.8510 0.6275 0.5412);fill-opacity:1;"/>
<path d="M229.21 335.54L225.8 352.52L214.52 364.8L221.09 376.05L220.3 379.95C220.3 382.18 218.52 383.98 216.3 383.98C216.3 383.98 208.69 384 198.84 384C181.07 384.02 155.96 384 154.95 383.84C149.39 382.62 144.75 379.7 141.79 376.05C139.68 373.5 138.42 370.57 138.24 367.63C137.69 358.22 148.36 347.37 162.95 348.97C163.96 344.49 165 340.02 166.03 335.54H229.21Z" fill="#8879E1" style="fill:#8879E1;fill:color(display-p3 0.5333 0.4745 0.8824);fill-opacity:1;"/>
<path d="M177.4 344.88H164.32L156.5 331.89C155.91 330.92 154.65 330.6 153.68 331.19C152.71 331.77 152.39 333.04 152.98 334.01L159.18 344.31L146.82 342.58C145.7 342.42 144.66 343.2 144.5 344.33C144.34 345.45 145.13 346.49 146.25 346.65L162.87 348.98C162.96 349 163.06 349 163.16 349H177.4C178.53 349 179.45 348.08 179.45 346.95C179.45 345.82 178.53 344.9 177.4 344.9V344.88Z" fill="black" style="fill:black;fill-opacity:1;"/>
<path d="M225.8 352.51L221.1 376.04L217.87 378.7C217.87 380.93 218.64 381.27 216.43 381.27C216.43 381.27 209.91 381.56 200.06 381.56C199.65 379.77 198.23 380.34 198.23 378.42C198.23 364.08 209.85 352.46 224.19 352.46C224.74 352.46 225.26 352.48 225.79 352.52L225.8 352.51Z" fill="#FFCC40" style="fill:#FFCC40;fill:color(display-p3 1.0000 0.8000 0.2510);fill-opacity:1;"/>
<path d="M221.09 376.04L220.3 379.94C220.3 382.17 218.52 383.97 216.3 383.97C216.3 383.97 156.53 384.09 154.94 383.83C149.38 382.61 144.74 379.69 141.78 376.04H221.09Z" fill="black" style="fill:black;fill-opacity:1;"/>
<path d="M272.16 265.99L286.11 335.54L301.45 365.6L311.16 369.96C311.16 372.19 325.44 370.73 327.65 370.73C327.65 370.73 350.71 368.49 352.29 368.22C357.85 367.01 361.65 368.99 364.61 365.34C366.72 362.79 363.4 364.69 363.58 361.75C364.13 352.34 349.65 352.45 335.07 354.05C334.05 349.57 350.32 340.03 349.28 335.55C343.98 312.37 338.67 289.18 333.36 266H272.15L272.16 265.99Z" fill="#D9A08A" style="fill:#D9A08A;fill:color(display-p3 0.8510 0.6275 0.5412);fill-opacity:1;"/>
<path d="M286.11 335.54L289.52 352.52L299.91 361.84L294.22 376.05L295.01 379.95C295.01 382.18 296.8 383.98 299.01 383.98C299.01 383.98 306.61 384 316.47 384C334.24 384.02 359.35 384 360.36 383.84C365.91 382.62 370.56 379.7 373.52 376.05C375.63 373.5 376.89 370.57 377.07 367.63C377.62 358.22 366.95 347.37 352.37 348.97C351.35 344.49 350.32 340.02 349.29 335.54H286.11Z" fill="#8879E1" style="fill:#8879E1;fill:color(display-p3 0.5333 0.4745 0.8824);fill-opacity:1;"/>
<path d="M368.5 342.57L356.14 344.3L362.33 334.01C362.92 333.04 362.6 331.78 361.63 331.19C360.66 330.6 359.39 330.92 358.81 331.89L350.99 344.88H337.91C336.77 344.88 335.86 345.8 335.86 346.93C335.86 348.06 336.78 348.98 337.91 348.98H352.15C352.24 348.98 352.34 348.98 352.44 348.96L369.06 346.63C370.18 346.47 370.97 345.43 370.81 344.31C370.65 343.19 369.61 342.4 368.49 342.56L368.5 342.57Z" fill="black" style="fill:black;fill-opacity:1;"/>
<path d="M289.52 352.51L294.22 376.04L298 378.59C298 380.82 299.33 379.16 301.54 379.16H313.7C314.11 377.37 317.08 380.34 317.08 378.41C317.08 364.07 305.46 352.45 291.12 352.45C290.57 352.45 290.05 352.47 289.52 352.51Z" fill="#FFCC40" style="fill:#FFCC40;fill:color(display-p3 1.0000 0.8000 0.2510);fill-opacity:1;"/>
<path d="M294.23 376.04L295.02 379.94C295.02 382.17 296.81 383.97 299.02 383.97C299.02 383.97 358.79 384.09 360.37 383.83C365.92 382.61 370.57 379.69 373.53 376.04H294.23Z" fill="black" style="fill:black;fill-opacity:1;"/>
<path d="M354.31 214.55C349.59 226.07 340.2 231.41 331.01 233.83L330.95 233.67L330.17 231.49L313.46 185.04L344.35 175.06C353.53 185.47 360.63 199.17 354.33 214.55H354.31Z" fill="#D9A08A" style="fill:#D9A08A;fill:color(display-p3 0.8510 0.6275 0.5412);fill-opacity:1;"/>
<path d="M162.27 138.98C168.82 143.09 176.27 145.32 183.83 146.27L174.2 196.66C160.81 194.65 147.36 190.21 135.04 182.52C117.9 171.76 96.2901 150.3 90.8101 108.96L133.55 103.29L138.5 91.49C139.86 88.29 143.55 86.77 146.78 88.12C149.98 89.48 151.5 93.17 150.15 96.39L143.62 111.94C146.89 124.3 153.05 133.19 162.29 138.98H162.27Z" fill="#D9A08A" style="fill:#D9A08A;fill:color(display-p3 0.8510 0.6275 0.5412);fill-opacity:1;"/>
<path d="M358.21 309.99L336.03 247.87L331 233.82L330.94 233.66L330.16 231.48L313.45 185.03L344.33 175.05C338.19 168.07 331.09 162.55 326.49 158.95C313.99 149.2 296.35 137.51 296.35 137.51H218.97C218.97 137.51 211.14 141.65 203.24 144.4C194.93 147.29 186.24 146.56 183.83 146.26L174.2 196.65C176.89 197.06 179.56 197.37 182.23 197.59C183.23 197.67 184.24 197.76 185.23 197.8C186.24 197.86 187.24 197.93 188.25 197.95C188.84 197.97 189.46 197.99 190.05 198.01C190.94 198.03 191.8 198.03 192.68 198.03C194.2 198.03 195.72 197.98 197.22 197.93L185.14 231.48L184.36 233.66L179.29 247.87L157.11 309.99C156.29 312.29 157.99 314.71 160.42 314.71H354.88C357.33 314.71 359.03 312.29 358.21 309.99Z" fill="#09C0D7" style="fill:#09C0D7;fill:color(display-p3 0.0353 0.7529 0.8431);fill-opacity:1;"/>
<path d="M196.5 200.51C196.25 200.51 195.99 200.46 195.75 200.37C194.69 199.96 194.18 198.76 194.59 197.71L201.35 180.59C201.77 179.53 202.96 179.02 204.01 179.43C205.06 179.85 205.58 181.04 205.17 182.09L198.42 199.21C198.1 200.02 197.33 200.51 196.51 200.51H196.5Z" fill="black" style="fill:black;fill-opacity:1;"/>
<path d="M182.09 154.73L176.23 153.49L165.2 154.65L153.11 148.58L140.69 145.94C139.26 145.63 137.84 145.43 136.43 145.37C136.43 145.37 134 145.36 129.97 145.36C122.5 145.36 105.73 155.6 92.6302 155.6C78.5902 155.6 68.2002 145.36 60.3402 145.36C58.8302 145.36 57.5602 145.36 56.5602 145.36C54.3602 145.26 52.1002 145.43 49.8402 145.93L37.1902 148.62L25.6302 155.62L14.0702 153.53L8.45024 154.72C7.38024 154.95 6.70024 155.99 6.95024 157.06L8.20024 162.61L12.6902 168.71L13.3902 185.75L14.0902 188.85L18.7302 194.27C18.9802 195.32 21.0302 195.55 22.0802 195.32L37.2102 199.93L42.6502 198.78C42.6502 198.78 41.7602 202.94 40.4802 208.86C40.0002 211.1 43.0302 215.2 42.4702 217.82C41.9202 220.38 37.7702 221.45 37.2002 224.12C36.6202 226.79 36.0502 229.46 35.5002 232.01C33.5002 241.33 35.4802 245.21 35.4802 245.21C35.2102 246.45 33.9402 247.7 35.1902 247.7L37.2002 251.37H60.3402L71.9102 245.5L83.4802 251.37H106.83L119.25 248.47L129.97 251.37H153.11L155.92 249.14C157.18 249.14 156.66 247.41 156.4 246.17L155.04 232.02L153.12 223.07L146.67 219.18L150.07 208.88L147.91 198.81C147.91 198.81 150.09 199.27 153.12 199.91C159.97 201.36 170.1 199.46 170.1 199.46C171.15 199.69 171.4 197.35 171.63 196.3L176.24 189.81L177.15 185.77L177.85 172.85L182.35 162.63L183.6 157.08C183.85 156.01 183.17 154.97 182.1 154.74L182.09 154.73Z" fill="#FFCC40" style="fill:#FFCC40;fill:color(display-p3 1.0000 0.8000 0.2510);fill-opacity:1;"/>
<path d="M37.1898 148.63V162.61H14.0698V153.54L37.1898 148.63Z" fill="#8879E1" style="fill:#8879E1;fill:color(display-p3 0.5333 0.4745 0.8824);fill-opacity:1;"/>
<path d="M71.7798 162.61H60.3398V145.36C61.9998 145.36 63.9298 145.34 66.0898 145.36C66.0898 146.18 66.1298 147 66.1998 147.8C66.6498 153.32 68.6598 158.4 71.7898 162.6L71.7798 162.61Z" fill="#8879E1" style="fill:#8879E1;fill:color(display-p3 0.5333 0.4745 0.8824);fill-opacity:1;"/>
<path d="M14.0699 162.61V185.75H13.3699L8.18994 162.61H14.0699Z" fill="#8879E1" style="fill:#8879E1;fill:color(display-p3 0.5333 0.4745 0.8824);fill-opacity:1;"/>
<path d="M37.1898 185.76V199.95L19.3898 203.73C18.3398 203.95 17.3198 203.28 17.0698 202.23L14.0698 188.86V185.76H37.1898Z" fill="#8879E1" style="fill:#8879E1;fill:color(display-p3 0.5333 0.4745 0.8824);fill-opacity:1;"/>
<path d="M60.3402 162.61H37.2002V185.75H60.3402V162.61Z" fill="#8879E1" style="fill:#8879E1;fill:color(display-p3 0.5333 0.4745 0.8824);fill-opacity:1;"/>
<path d="M106.83 172.1V185.76H83.6899V172.1C87.2399 173.64 91.1599 174.5 95.2699 174.5C99.3799 174.5 103.3 173.64 106.83 172.1Z" fill="#8879E1" style="fill:#8879E1;fill:color(display-p3 0.5333 0.4745 0.8824);fill-opacity:1;"/>
<path d="M83.4798 185.75H60.3398V208.89H83.4798V185.75Z" fill="#8879E1" style="fill:#8879E1;fill:color(display-p3 0.5333 0.4745 0.8824);fill-opacity:1;"/>
<path d="M37.1901 232.02V251.36H33.7601C32.5101 251.36 31.5801 250.21 31.8501 248.98L35.4901 232.02H37.1901Z" fill="#8879E1" style="fill:#8879E1;fill:color(display-p3 0.5333 0.4745 0.8824);fill-opacity:1;"/>
<path d="M60.3399 208.88V232.02H37.1899V224.13L40.4799 208.87H60.3399V208.88Z" fill="#8879E1" style="fill:#8879E1;fill:color(display-p3 0.5333 0.4745 0.8824);fill-opacity:1;"/>
<path d="M106.83 208.89H83.6899V232.03H106.83V208.89Z" fill="#8879E1" style="fill:#8879E1;fill:color(display-p3 0.5333 0.4745 0.8824);fill-opacity:1;"/>
<path d="M83.4798 232.02H60.3398V251.36H83.4798V232.02Z" fill="#8879E1" style="fill:#8879E1;fill:color(display-p3 0.5333 0.4745 0.8824);fill-opacity:1;"/>
<path d="M129.97 145.34V162.61H118.76C121.88 158.4 123.87 153.33 124.34 147.81C124.4 147.01 124.44 146.16 124.44 145.34H129.96H129.97Z" fill="#8879E1" style="fill:#8879E1;fill:color(display-p3 0.5333 0.4745 0.8824);fill-opacity:1;"/>
<path d="M176.23 153.48V162.62H153.11V148.58L176.23 153.49V153.48Z" fill="#8879E1" style="fill:#8879E1;fill:color(display-p3 0.5333 0.4745 0.8824);fill-opacity:1;"/>
<path d="M129.97 185.75H106.83V208.89H129.97V185.75Z" fill="#8879E1" style="fill:#8879E1;fill:color(display-p3 0.5333 0.4745 0.8824);fill-opacity:1;"/>
<path d="M153.11 162.61H129.97V185.75H153.11V162.61Z" fill="#8879E1" style="fill:#8879E1;fill:color(display-p3 0.5333 0.4745 0.8824);fill-opacity:1;"/>
<path d="M182.34 162.61L177.15 185.75H176.47V162.61H182.34Z" fill="#8879E1" style="fill:#8879E1;fill:color(display-p3 0.5333 0.4745 0.8824);fill-opacity:1;"/>
<path d="M176.23 185.76V189.8L173.44 202.23C173.21 203.28 172.19 203.96 171.14 203.73L153.11 199.91V185.76H176.23Z" fill="#8879E1" style="fill:#8879E1;fill:color(display-p3 0.5333 0.4745 0.8824);fill-opacity:1;"/>
<path d="M129.98 232.02H106.83V251.36H129.98V232.02Z" fill="#8879E1" style="fill:#8879E1;fill:color(display-p3 0.5333 0.4745 0.8824);fill-opacity:1;"/>
<path d="M153.11 223.07V232.02H129.97V208.88H150.05L153.11 223.07Z" fill="#8879E1" style="fill:#8879E1;fill:color(display-p3 0.5333 0.4745 0.8824);fill-opacity:1;"/>
<path d="M158.68 248.98C158.95 250.21 158 251.36 156.75 251.36H153.11V232.02H155.04L158.68 248.98Z" fill="#8879E1" style="fill:#8879E1;fill:color(display-p3 0.5333 0.4745 0.8824);fill-opacity:1;"/>
<path d="M42.4399 200.48C42.2999 200.48 42.1499 200.46 42.0099 200.43C40.8999 200.19 40.1899 199.1 40.4299 197.99L43.2799 184.73C43.5199 183.62 44.6199 182.91 45.7199 183.15C46.8299 183.39 47.5399 184.48 47.2999 185.59L44.4499 198.85C44.2399 199.82 43.3899 200.48 42.4499 200.48H42.4399Z" fill="black" style="fill:black;fill-opacity:1;"/>
<path d="M148.09 200.48C147.15 200.48 146.29 199.82 146.09 198.85L143.24 185.59C143 184.48 143.71 183.39 144.81 183.15C145.92 182.91 147.01 183.62 147.25 184.73L150.1 197.99C150.34 199.1 149.63 200.19 148.52 200.43C148.38 200.46 148.23 200.48 148.09 200.48Z" fill="black" style="fill:black;fill-opacity:1;"/>
<path d="M111.69 149.76C111.69 150.59 119.6 149.81 119.54 150.62C119.17 155.01 122.63 156.31 120.53 159.93C118.01 164.27 114.41 167.9 110.08 170.45C105.74 173.03 100.69 174.51 95.2699 174.51C89.8499 174.51 84.7899 173.03 80.4399 170.45C76.1199 167.91 72.5099 164.28 69.9899 159.94C67.8899 156.32 73.6499 158.38 73.2899 153.99C73.2299 153.18 70.3199 150.12 70.3199 149.29L92.4399 158.1L111.69 149.77V149.76Z" fill="black" style="fill:black;fill-opacity:1;"/>
<path d="M117.99 87.7598C100.93 87.7598 87.0501 101.64 87.0501 118.7V145.35H66.0801C66.0801 146.17 66.1201 147.01 66.1901 147.82C66.5401 152.21 67.8901 156.32 70.0101 159.94H120.52C122.62 156.32 123.97 152.22 124.34 147.82C124.4 147.02 124.44 146.18 124.44 145.35H103.47V118.7C103.47 110.7 109.98 104.19 117.98 104.19C125.98 104.19 132.49 110.7 132.49 118.7C132.49 123.24 136.17 126.91 140.7 126.91C145.23 126.91 148.91 123.23 148.91 118.7C148.91 101.64 135.03 87.7598 117.97 87.7598H117.99Z" fill="#D4F5F7" style="fill:#D4F5F7;fill:color(display-p3 0.8314 0.9608 0.9686);fill-opacity:1;"/>
<path d="M98.5398 114.79C101.98 114.19 104.27 110.92 103.67 107.49C104.27 110.93 107.54 113.22 110.97 112.62C114.4 112.02 116.7 108.75 116.1 105.32C116.7 108.76 119.97 111.05 123.4 110.45C126.83 109.85 129.13 106.58 128.53 103.15C129.13 106.59 132.4 108.88 135.83 108.28C139.26 107.68 141.56 104.41 140.96 100.98L139.91 95.2199C137.43 81.5599 124.39 72.4699 110.73 74.8599C96.9298 77.2699 87.7198 90.4599 90.2298 104.25L91.2098 109.67C91.8098 113.11 95.0798 115.4 98.5098 114.8L98.5398 114.79Z" fill="#D9A08A" style="fill:#D9A08A;fill:color(display-p3 0.8510 0.6275 0.5412);fill-opacity:1;"/>
<path d="M130.57 102.79C130.57 102.79 130.57 102.71 130.57 102.68L127.81 86.9802C127.61 85.8702 126.56 85.1202 125.43 85.3102C124.31 85.5102 123.56 86.5702 123.76 87.6902L126.52 103.39C126.52 103.39 126.52 103.47 126.52 103.51C126.72 104.63 126.47 105.76 125.81 106.69C125.16 107.62 124.18 108.24 123.06 108.44C120.8 108.85 118.61 107.33 118.16 105.08C118.16 105.01 118.18 104.94 118.16 104.87L115.4 89.1702C115.21 88.0502 114.13 87.3102 113.03 87.5002C111.91 87.7002 111.16 88.7602 111.36 89.8802L114.07 105.28C114.06 105.46 114.07 105.58 114.09 105.7C114.28 106.82 114.04 107.95 113.38 108.88C112.73 109.81 111.75 110.43 110.63 110.63C108.33 111.05 106.11 109.48 105.7 107.17C105.67 107.05 103.01 91.3402 103.01 91.3402C102.81 90.2202 101.76 89.4902 100.63 89.6702C99.5099 89.8702 98.7699 90.9302 98.9599 92.0502L101.62 107.75C102.36 111.94 105.9 114.8 109.89 114.8C110.37 114.8 110.85 114.76 111.33 114.67C113.53 114.28 115.45 113.07 116.74 111.24C116.85 111.08 116.96 110.92 117.06 110.75C118.88 112.22 121.31 112.93 123.78 112.5C128.32 111.7 131.37 107.36 130.58 102.82L130.57 102.79Z" fill="black" style="fill:black;fill-opacity:1;"/>
<path d="M281.45 33.1299C243.41 20.2999 202.17 40.7398 189.34 78.7799C188.56 81.0899 187.91 83.4199 187.37 85.7499C182.93 84.3799 178.47 85.9098 177.34 89.2698C176.18 92.7098 178.92 96.7299 183.45 98.2598C184.17 98.4998 184.89 98.6398 185.6 98.7398C184.17 130.3 203.56 160.29 234.99 170.89C273.03 183.72 314.27 163.28 327.1 125.24C339.93 87.1998 319.49 45.9599 281.45 33.1299Z" fill="#D9A08A" style="fill:#D9A08A;fill:color(display-p3 0.8510 0.6275 0.5412);fill-opacity:1;"/>
<path d="M359.85 35.22C359.85 15.77 344.08 0 324.63 0C305.18 0 289.41 15.77 289.41 35.22C289.41 35.27 289.41 35.33 289.41 35.38C287.05 34.29 284.62 33.31 282.11 32.47C252.99 22.65 221.95 32.35 203.27 54.52C212.6 56.93 224.26 57.6 236.66 56C239.18 55.68 241.63 55.27 244.02 54.79C245.97 72.57 258.3 93.27 278.38 109.35C293.57 121.52 310.38 128.8 325.37 130.77C326.25 128.76 327.05 126.72 327.76 124.61C333.99 106.1 332.35 86.84 324.64 70.46C344.08 70.44 359.84 54.69 359.84 35.24L359.85 35.22Z" fill="black" style="fill:black;fill-opacity:1;"/>
<path d="M227.01 67.2301C226.2 69.1901 229.02 72.2201 233.32 73.9901C237.62 75.7601 241.75 75.6101 242.56 73.6501C243.37 71.6901 240.55 68.6601 236.25 66.8901C231.95 65.1201 227.82 65.2701 227.01 67.2301Z" fill="black" style="fill:black;fill-opacity:1;"/>
<path d="M227.09 77.7298C233.58 82.7898 234.74 92.1498 229.68 98.6398C226.94 102.16 222.94 104.1 218.81 104.34C215.32 104.57 214.33 96.9898 211.36 94.6798C205.05 89.7598 205.47 91.7398 210.08 85.2798C210.17 85.1398 206.75 82.0598 205.82 80.8398C205.92 80.6598 206.16 80.3598 206.19 80.3298C211.24 73.8398 220.61 72.6798 227.1 77.7398L227.09 77.7298Z" fill="white" style="fill:white;fill-opacity:1;"/>
<path d="M215.85 83.94C222.16 88.86 223.42 97.87 218.81 104.34C215.32 104.57 211.74 103.55 208.77 101.23C202.46 96.31 201.2 87.3 205.81 80.83C209.3 80.6 212.88 81.62 215.85 83.94Z" fill="black" style="fill:black;fill-opacity:1;"/>
<path d="M202.5 114.01C200.65 117.34 197.61 119.74 193.96 120.77C192.67 121.16 191.36 121.32 190.04 121.32C189.4 121.32 188.77 121.28 188.13 121.19C187.72 119.71 187.35 118.21 187.06 116.71C188.93 117.33 190.92 117.37 192.83 116.81C195.44 116.07 197.6 114.37 198.91 112.01C199.44 111.03 200.69 110.65 201.7 111.21C202.69 111.76 203.04 113.02 202.5 114V114.01Z" fill="black" style="fill:black;fill-opacity:1;"/>
<path d="M282.93 98.1101C293.35 100.66 299.73 111.18 297.18 121.6C294.63 132.02 284.11 138.4 273.69 135.84C263.27 133.29 256.9 122.77 259.45 112.36C262 101.94 272.52 95.5601 282.94 98.1101H282.93Z" fill="#D9A08A" style="fill:#D9A08A;fill:color(display-p3 0.8510 0.6275 0.5412);fill-opacity:1;"/>
<path d="M279.25 128.66C278.73 128.66 278.21 128.62 277.69 128.55C276.57 128.39 275.78 127.36 275.94 126.24C276.09 125.12 277.12 124.31 278.26 124.49C280.16 124.74 282.03 124.26 283.56 123.1C285.09 121.94 286.07 120.27 286.33 118.37C286.59 116.48 286.1 114.6 284.94 113.07C283.79 111.54 282.11 110.56 280.21 110.3C279.09 110.14 278.3 109.11 278.46 107.98C278.62 106.86 279.62 106.06 280.78 106.23C283.76 106.64 286.4 108.19 288.22 110.59C290.04 112.99 290.81 115.95 290.4 118.93C289.99 121.91 288.44 124.55 286.04 126.37C284.06 127.87 281.7 128.66 279.26 128.66H279.25Z" fill="black" style="fill:black;fill-opacity:1;"/>
<path d="M318.02 184.15C316.87 184.39 306.12 186.1 263.78 176.81L255.89 160.85C254.36 157.75 250.6 156.48 247.51 158.02C244.41 159.55 243.15 163.3 244.68 166.4L248.05 173.22L220.49 163.91C217.24 162.82 213.72 164.58 212.63 167.84C211.54 171.09 213.3 174.61 216.56 175.7L251.25 187.42L231.28 180.79C228.03 179.71 224.51 181.46 223.43 184.72C222.34 187.97 224.1 191.49 227.36 192.58C224.11 191.49 220.59 193.25 219.5 196.51C218.42 199.76 220.18 203.28 223.43 204.37C220.18 203.28 216.66 205.04 215.58 208.3C214.49 211.55 216.25 215.07 219.51 216.16C219.51 216.16 252.94 227.06 258.91 228.32C286.09 234.03 302.86 235.79 313.99 235.79C320.84 235.79 325.56 235.12 329.24 234.3C337.99 232.34 344.91 228.29 349.79 222.26C349.79 222.26 316.56 184.52 318.04 184.19L318.02 184.15Z" fill="#D9A08A" style="fill:#D9A08A;fill:color(display-p3 0.8510 0.6275 0.5412);fill-opacity:1;"/>
<path d="M244.58 200.44C244.36 200.44 244.14 200.41 243.92 200.33L228.2 195C227.13 194.63 226.55 193.47 226.91 192.39C227.28 191.32 228.44 190.74 229.52 191.11L245.24 196.44C246.31 196.81 246.89 197.97 246.52 199.05C246.23 199.9 245.43 200.44 244.58 200.44Z" fill="black" style="fill:black;fill-opacity:1;"/>
<path d="M240.65 212.22C240.43 212.22 240.21 212.18 239.99 212.11L224.27 206.78C223.2 206.42 222.62 205.25 222.98 204.17C223.35 203.1 224.52 202.53 225.59 202.89L241.31 208.22C242.38 208.59 242.96 209.75 242.6 210.82C242.31 211.68 241.51 212.22 240.65 212.22Z" fill="black" style="fill:black;fill-opacity:1;"/>
<path d="M248.51 188.66C248.29 188.66 248.07 188.63 247.85 188.55L232.13 183.21C231.06 182.85 230.48 181.68 230.84 180.61C231.21 179.54 232.38 178.96 233.45 179.32L249.17 184.65C250.25 185.01 250.82 186.18 250.46 187.25C250.17 188.1 249.37 188.64 248.51 188.64V188.66Z" fill="black" style="fill:black;fill-opacity:1;"/>
<path d="M263.22 177.73C262.47 177.73 261.73 177.31 261.38 176.59L254.05 161.77C253.02 159.69 250.49 158.84 248.42 159.86C246.34 160.89 245.49 163.42 246.51 165.49L249.88 172.31C250.25 173.06 250.13 173.95 249.59 174.57C249.04 175.19 248.17 175.43 247.38 175.16L219.82 165.85C218.75 165.49 218.17 164.32 218.53 163.24C218.89 162.17 220.06 161.59 221.14 161.95L244.01 169.68L242.84 167.3C240.81 163.19 242.5 158.2 246.6 156.17C250.7 154.14 255.7 155.83 257.73 159.93L265.06 174.75C265.56 175.76 265.15 177 264.13 177.5C263.84 177.64 263.52 177.71 263.22 177.71V177.73Z" fill="black" style="fill:black;fill-opacity:1;"/>
<path d="M327.46 186.87H315.06C313.92 186.87 313.01 185.95 313.01 184.81C313.01 183.67 313.93 182.76 315.06 182.76H327.46C328.59 182.76 329.51 183.68 329.51 184.81C329.51 185.94 328.59 186.87 327.46 186.87Z" fill="black" style="fill:black;fill-opacity:1;"/>
</g>
<defs>
<clipPath id="clip0_610_1404">
<rect width="384" height="384" fill="white" style="fill:white;fill-opacity:1;"/>
</clipPath>
</defs>
</svg>
