<svg width="384" height="384" viewBox="0 0 384 384" fill="none" xmlns="http://www.w3.org/2000/svg">
<g clip-path="url(#clip0_641_1404)">
<path d="M346.77 104.06C346.77 104.06 345.76 109.13 343.42 116.98C342.92 118.64 342.37 120.42 341.75 122.31C334.27 145.13 317.56 182.99 285.99 197.68C281.96 199.56 277.81 201.12 273.6 202.36L258.3 181.35L261.06 154.04C262.38 153.59 263.68 153.07 264.96 152.47C274.53 148.02 280.26 140.43 283.58 134.17C283.47 134 283.35 133.83 283.25 133.64C283.25 133.64 274.93 113.77 284.27 106.34C287.56 103.73 291.53 102.15 295.33 101.56L305.99 69.9103C307.08 66.6703 310.59 64.9103 313.84 66.0203C317.08 67.1103 318.82 70.6203 317.74 73.8703L311.93 91.1303L311.22 93.2703L311.34 93.0203L311.49 92.5403C311.65 92.0503 311.88 91.5903 312.15 91.1803C312.76 90.2103 313.65 89.4703 314.65 89.0003C316.08 88.2703 317.77 88.1003 319.42 88.6603C320.39 88.9803 321.22 89.5203 321.88 90.2003C323.16 91.3203 323.92 92.9603 323.92 94.6803C324.88 93.3403 326.37 92.4903 327.99 92.2903C329.02 92.0903 330.1 92.1403 331.16 92.5003C332.49 92.9503 333.56 93.8103 334.3 94.8903C335.06 95.9103 335.5 97.1603 335.49 98.4703C336.61 96.9303 338.41 96.0103 340.3 96.0203C341.13 95.9403 341.99 96.0203 342.84 96.3203C345.3 97.1503 346.89 99.3603 347.05 101.8C347.11 102.55 347.02 103.32 346.78 104.07L346.77 104.06Z" fill="#774030" style="fill:#774030;fill:color(display-p3 0.4667 0.2510 0.1882);fill-opacity:1;"/>
<path d="M342.69 116.53C341.7 116.2 340.64 116.75 340.31 117.74C339.54 120.09 337.01 121.38 334.65 120.61C332.97 120.06 331.81 118.61 331.59 116.91C331.63 116.82 331.67 116.73 331.7 116.64L336.75 101.19C337.07 100.2 336.53 99.1297 335.54 98.8097C334.55 98.4797 333.48 99.0197 333.16 100.02L328.27 114.99C328.22 115.04 328.17 115.1 328.12 115.17C326.98 116.78 324.95 117.45 323.07 116.83C321.27 116.24 320.07 114.62 320 112.74L325.03 97.3597C325.36 96.3697 324.82 95.2997 323.82 94.9797C322.83 94.6497 321.76 95.1997 321.44 96.1897L316.42 111.55C315.26 113.03 313.32 113.65 311.5 113.05C310.8 112.82 310.2 112.44 309.7 111.94C310.74 110.85 311.36 109.57 311.22 108.05C311.09 106.65 310.65 105.39 309.95 104.28L313.45 93.5697C313.77 92.5797 313.23 91.5097 312.24 91.1897C311.25 90.8597 310.19 91.3997 309.86 92.3997L306.92 101.39C304.69 100.03 301.71 99.3097 298.23 99.3897C297.19 99.4097 296.35 100.28 296.38 101.32C296.4 102.36 297.24 103.17 298.27 103.17C300.91 103.13 303.85 103.66 305.69 105.15C306.28 105.63 306.75 106.2 307.06 106.88C307.26 107.33 307.4 107.84 307.45 108.39C307.45 108.46 307.45 108.55 307.43 108.62C307.43 108.64 307.42 108.66 307.41 108.68C307.39 108.74 307.36 108.81 307.33 108.88C307.32 108.9 307.31 108.92 307.29 108.94C307.24 109.01 307.18 109.09 307.12 109.17C306.95 109.37 306.74 109.56 306.49 109.75C306.46 109.77 306.43 109.79 306.4 109.82C306.31 109.88 306.22 109.94 306.13 110C306.06 110.05 305.99 110.09 305.91 110.14C305.89 110.16 305.86 110.17 305.84 110.19C305.67 110.29 305.48 110.4 305.29 110.5C305.26 110.52 305.22 110.54 305.18 110.56C304.99 110.66 304.79 110.76 304.57 110.87C304.53 110.89 304.5 110.9 304.46 110.92C303.96 111.15 303.42 111.38 302.83 111.6C302.78 111.62 302.71 111.64 302.65 111.66C302.43 111.74 302.2 111.82 301.97 111.91C301.86 111.95 301.75 111.98 301.64 112.02C301.45 112.08 301.26 112.14 301.06 112.2C300.93 112.24 300.8 112.28 300.67 112.32C300.47 112.38 300.28 112.43 300.08 112.49C299.95 112.53 299.83 112.56 299.7 112.6C299.38 112.69 299.05 112.77 298.71 112.85C297.99 113.02 297.24 113.17 296.49 113.3C295.84 113.41 295.3 113.86 295.05 114.47C294.81 115.08 294.91 115.78 295.3 116.31C295.35 116.36 299.57 122.01 301.08 128.62C301.28 129.5 302.05 130.09 302.92 130.09C303.06 130.09 303.2 130.07 303.34 130.03C304.36 129.8 304.99 128.78 304.76 127.77C303.69 123.08 301.47 118.92 299.94 116.44C301.95 115.95 304.44 115.21 306.57 114.12C307.53 115.26 308.82 116.14 310.32 116.63C312.58 117.37 314.96 117.1 316.93 116C317.87 118.05 319.62 119.68 321.89 120.42C324.16 121.16 326.54 120.89 328.51 119.79C329.44 121.84 331.21 123.47 333.47 124.21C334.32 124.49 335.19 124.62 336.03 124.62C339.51 124.62 342.76 122.41 343.89 118.92C344.21 117.93 343.67 116.87 342.68 116.54L342.69 116.53Z" fill="black" style="fill:black;fill-opacity:1;"/>
<path d="M86.9199 121.06C72.9299 121.06 61.3999 131.52 59.6899 145.05C47.0999 145.19 36.9399 155.44 36.9399 168.07C36.9399 180.7 47.2499 191.1 59.9699 191.1C70.0899 191.1 78.6799 184.56 81.7699 175.48C83.4399 175.8 85.1599 175.97 86.9199 175.97C102.08 175.97 114.37 163.68 114.37 148.52C114.37 133.36 102.08 121.07 86.9199 121.07V121.06Z" fill="black" style="fill:black;fill-opacity:1;"/>
<path d="M262.04 345.98L229.78 358.21L197.2 345.98L190.94 310.44L185.13 277.5H247.29L254.4 310.44L262.04 345.98Z" fill="#774030" style="fill:#774030;fill:color(display-p3 0.4667 0.2510 0.1882);fill-opacity:1;"/>
<path d="M280.16 374.051C279.59 379.421 273.27 384.741 265.36 383.911H207.25C205.01 383.911 203.17 382.101 203.17 379.831L198.49 353.301L197.2 345.971H262.04L263.63 353.301L265.36 361.351C274.42 360.751 280.81 368.041 280.16 374.041V374.051Z" fill="#4D35D3" style="fill:#4D35D3;fill:color(display-p3 0.3020 0.2078 0.8275);fill-opacity:1;"/>
<path d="M260.32 358.21H249.41C248.37 358.21 247.52 357.37 247.52 356.32C247.52 355.27 248.37 354.43 249.41 354.43H260.32C261.36 354.43 262.21 355.27 262.21 356.32C262.21 357.37 261.36 358.21 260.32 358.21Z" fill="black" style="fill:black;fill-opacity:1;"/>
<path d="M153.97 277.5L148.16 310.44L141.9 345.98L109.68 356.32L77.0601 345.98L84.7001 310.44L91.8101 277.5H153.97Z" fill="#774030" style="fill:#774030;fill:color(display-p3 0.4667 0.2510 0.1882);fill-opacity:1;"/>
<path d="M141.9 345.98L140.61 353.31L135.94 379.84C135.94 382.11 134.1 383.92 131.86 383.92H73.7501C65.8401 384.74 59.5201 379.42 58.9401 374.05C58.3001 368.05 64.6901 360.76 73.7501 361.36L75.4801 353.31L77.0701 345.98H141.91H141.9Z" fill="#4D35D3" style="fill:#4D35D3;fill:color(display-p3 0.3020 0.2078 0.8275);fill-opacity:1;"/>
<path d="M89.6901 358.21H78.7801C77.7401 358.21 76.8901 357.37 76.8901 356.32C76.8901 355.27 77.7401 354.43 78.7801 354.43H89.6901C90.7301 354.43 91.5801 355.27 91.5801 356.32C91.5801 357.37 90.7301 358.21 89.6901 358.21Z" fill="black" style="fill:black;fill-opacity:1;"/>
<path d="M263.18 314.86H75.6902C73.4502 314.86 71.8502 312.68 72.5202 310.54L91.7602 248.93L168.56 236.91L246.8 248.93L266.34 310.53C267.02 312.67 265.42 314.86 263.17 314.86H263.18Z" fill="#26C8DC" style="fill:#26C8DC;fill:color(display-p3 0.1490 0.7843 0.8627);fill-opacity:1;"/>
<path d="M94.1002 40.8597C94.1002 47.5397 91.0502 53.4997 86.2402 57.4197C83.9802 59.2597 82.5302 61.9297 82.3002 64.8497L82.2302 65.9197L71.6902 70.6797L63.2302 65.9197L63.1602 64.8497C62.9402 61.9297 61.5002 59.2797 59.2402 57.4197C54.2602 53.3597 51.1302 47.0997 51.3802 40.1097C51.7502 29.2297 60.5002 20.1997 71.3702 19.5297C83.7902 18.7497 94.1002 28.5997 94.1002 40.8497V40.8597Z" fill="#FFC420" style="fill:#FFC420;fill:color(display-p3 1.0000 0.7686 0.1255);fill-opacity:1;"/>
<path d="M71.8098 71.9803C70.8698 71.9803 70.0598 71.2803 69.9398 70.3203L68.0098 54.5903C67.8098 52.9503 67.5798 51.0903 67.9398 49.2003C68.3798 46.8503 69.7598 44.9103 71.6098 44.0103C73.0298 43.3303 74.6798 43.2803 76.2598 43.8803C77.9698 44.5203 79.3398 45.8203 80.0198 47.4203C81.5298 51.0003 81.2298 54.3003 79.1998 56.2303C78.4498 56.9403 77.2498 56.9203 76.5298 56.1603C75.8098 55.4103 75.8398 54.2103 76.5998 53.4903C77.5298 52.6003 77.2398 50.5403 76.5398 48.8903C76.2698 48.2503 75.6498 47.6803 74.9298 47.4103C74.5798 47.2803 73.8898 47.1003 73.2498 47.4103C72.4798 47.7803 71.8698 48.7303 71.6498 49.9003C71.3998 51.2003 71.5798 52.6903 71.7598 54.1203L73.6898 69.8503C73.8198 70.8903 73.0798 71.8303 72.0398 71.9503C71.9598 71.9603 71.8798 71.9703 71.8098 71.9703V71.9803Z" fill="black" style="fill:black;fill-opacity:1;"/>
<path d="M82.23 65.9199L81.75 72.3699C81.39 77.3299 77.07 81.0999 72.03 80.7099C67.52 80.3599 64.04 76.5799 63.71 72.0699L63.25 65.9299H82.24L82.23 65.9199Z" fill="#FF571A" style="fill:#FF571A;fill:color(display-p3 1.0000 0.3412 0.1020);fill-opacity:1;"/>
<path d="M47.3802 23.4402C47.0702 23.4402 46.7602 23.3702 46.4702 23.2102L38.9902 19.1102C38.0802 18.6102 37.7402 17.4602 38.2402 16.5502C38.7402 15.6402 39.8902 15.3002 40.8002 15.8002L48.2802 19.9002C49.1902 20.4002 49.5302 21.5502 49.0302 22.4602C48.6902 23.0802 48.0402 23.4402 47.3702 23.4402H47.3802Z" fill="black" style="fill:black;fill-opacity:1;"/>
<path d="M98.0902 23.4402C97.4302 23.4402 96.7802 23.0802 96.4302 22.4602C95.9302 21.5502 96.2602 20.4002 97.1802 19.9002L104.66 15.8002C105.57 15.3002 106.72 15.6402 107.22 16.5502C107.72 17.4602 107.39 18.6102 106.47 19.1102L98.9902 23.2102C98.7002 23.3702 98.3902 23.4402 98.0802 23.4402H98.0902Z" fill="black" style="fill:black;fill-opacity:1;"/>
<path d="M72.7298 12.3C71.6898 12.3 70.8398 11.46 70.8398 10.41V1.89C70.8398 0.85 71.6798 0 72.7298 0C73.7798 0 74.6198 0.84 74.6198 1.89V10.42C74.6198 11.46 73.7698 12.31 72.7298 12.31V12.3Z" fill="black" style="fill:black;fill-opacity:1;"/>
<path d="M273.61 202.36L261.07 154.04C255.48 155.94 249.54 156.55 243.67 155.92C242.74 155.82 241.76 156.94 240.84 156.78C240.23 156.67 239.69 155.3 239.09 155.17C233.08 153.84 227.25 151.2 222.02 147.3L214.13 157.85L125.86 155.35C121.27 151.91 115.48 150.02 109.32 150.41C105.82 150.64 102.39 151.14 99.05 151.9C97.8 152.18 96.56 153.66 95.34 154.02C94.05 154.4 92.77 153.64 91.5 154.09C79.47 158.38 68.97 166.07 61.25 176.09L75.66 196.7L99.46 208.44C99.62 208.15 100.55 206.08 100.73 205.8C102.92 202.38 105.58 201.66 109.56 200.63L95.14 240.72L92.2 248.93H204.8L208.3 247.68L210.16 248.93H234.66L237.42 247.55L239.99 248.93H246.8L244.96 243.79L243.08 242.85L243.59 239.98L237.15 222.02L235.11 220.79L235.72 218.04L230.8 204.34C236.39 205.41 242.04 205.98 247.7 206.01C247.84 206.01 250.83 204.98 250.98 204.98C252.7 204.98 251.58 205.97 253.3 205.86C260.14 205.47 266.95 204.3 273.59 202.34L273.61 202.36Z" fill="#FFD257" style="fill:#FFD257;fill:color(display-p3 1.0000 0.8235 0.3412);fill-opacity:1;"/>
<path d="M212.14 157.79L120.99 248.93H115.66L206.95 157.64L212.14 157.79Z" fill="#FFD257" style="fill:#FFD257;fill:color(display-p3 1.0000 0.8235 0.3412);fill-opacity:1;"/>
<path d="M183.24 156.97L92.71 247.5L95.13 240.72L95.69 239.16L178.04 156.81L183.23 156.96L183.24 156.97Z" fill="#FFD257" style="fill:#FFD257;fill:color(display-p3 1.0000 0.8235 0.3412);fill-opacity:1;"/>
<path d="M109.4 201.07L109.56 200.63C105.26 201.74 101.6 204.58 99.4601 208.44L97.6201 207.52L149.14 156L154.34 156.15L109.41 201.08L109.4 201.07Z" fill="#FFD257" style="fill:#FFD257;fill:color(display-p3 1.0000 0.8235 0.3412);fill-opacity:1;"/>
<path d="M125.59 155.15L81.2702 199.47L77.7002 197.7L122.29 153.11C123.44 153.7 124.54 154.38 125.58 155.15H125.59Z" fill="#FFD257" style="fill:#FFD257;fill:color(display-p3 1.0000 0.8235 0.3412);fill-opacity:1;"/>
<path d="M99.1402 151.87L66.8702 184.14L64.6802 181L91.6302 154.05C94.0702 153.18 96.5802 152.46 99.1402 151.88V151.87Z" fill="#FFD257" style="fill:#FFD257;fill:color(display-p3 1.0000 0.8235 0.3412);fill-opacity:1;"/>
<path d="M244.97 243.81L239.84 248.94H234.5L243.56 239.89L244.97 243.82V243.81Z" fill="#FFD257" style="fill:#FFD257;fill:color(display-p3 1.0000 0.8235 0.3412);fill-opacity:1;"/>
<path d="M235.71 218L237.12 221.93L210.12 248.93H204.78L235.71 218Z" fill="#FFD257" style="fill:#FFD257;fill:color(display-p3 1.0000 0.8235 0.3412);fill-opacity:1;"/>
<path d="M270.12 188.93L253.17 205.88C251.5 205.98 249.83 206.03 248.15 206.03C248 206.03 247.85 206.03 247.7 206.03L269.02 184.71L270.12 188.95V188.93Z" fill="#FFD257" style="fill:#FFD257;fill:color(display-p3 1.0000 0.8235 0.3412);fill-opacity:1;"/>
<path d="M264 165.32L180.39 248.93H175.06L262.9 161.09L264.01 165.32H264Z" fill="#FFD257" style="fill:#FFD257;fill:color(display-p3 1.0000 0.8235 0.3412);fill-opacity:1;"/>
<path d="M243.68 155.91L150.65 248.93H145.31L239.09 155.15C240.6 155.49 242.14 155.74 243.68 155.9V155.91Z" fill="#FFD257" style="fill:#FFD257;fill:color(display-p3 1.0000 0.8235 0.3412);fill-opacity:1;"/>
<path d="M107.29 209.28C107.08 209.28 106.88 209.25 106.67 209.17C105.69 208.83 105.17 207.75 105.51 206.76L114.71 180.38C115.05 179.39 116.13 178.87 117.12 179.22C118.11 179.56 118.62 180.64 118.28 181.62L109.08 208.01C108.81 208.79 108.08 209.27 107.29 209.27V209.28Z" fill="black" style="fill:black;fill-opacity:1;"/>
<path d="M231.78 209.28C231 209.28 230.27 208.79 230 208.02L220.8 181.63C220.46 180.65 220.98 179.57 221.96 179.23C222.94 178.88 224.02 179.4 224.36 180.39L233.56 206.77C233.9 207.76 233.38 208.83 232.4 209.18C232.19 209.25 231.99 209.29 231.78 209.29V209.28Z" fill="black" style="fill:black;fill-opacity:1;"/>
<path d="M86.9199 111.32C86.9199 134.2 128.46 102.37 169.88 102.32C211.09 102.26 252.18 134.08 252.18 111.32C252.18 65.6804 215.19 28.6904 169.55 28.6904C123.91 28.6904 86.9199 65.6804 86.9199 111.32Z" fill="black" style="fill:black;fill-opacity:1;"/>
<path d="M171.98 35.1803C212.34 36.5203 243.96 70.3303 242.61 110.68C241.27 151.04 207.46 182.66 167.11 181.31C126.76 179.97 95.1301 146.16 96.4801 105.81C97.8201 65.4503 131.63 33.8303 171.98 35.1803Z" fill="#774030" style="fill:#774030;fill:color(display-p3 0.4667 0.2510 0.1882);fill-opacity:1;"/>
<path d="M243.18 98.3102C230.14 96.8902 214.71 90.7702 200.18 80.3802C185.85 70.1302 175.18 57.6802 169.56 45.9402C163.94 57.6902 153.27 70.1302 138.93 80.3802C124.41 90.7702 108.98 96.8802 95.9399 98.3102C100.79 61.9702 131.9 33.9502 169.56 33.9502C207.22 33.9502 238.33 61.9802 243.18 98.3102Z" fill="black" style="fill:black;fill-opacity:1;"/>
<path d="M147.29 93.4197C147.83 96.0097 143.44 99.1097 137.49 100.34C131.54 101.57 126.28 100.47 125.75 97.8797C125.21 95.2897 129.6 92.1897 135.55 90.9597C141.5 89.7297 146.76 90.8297 147.3 93.4197H147.29Z" fill="black" style="fill:black;fill-opacity:1;"/>
<path d="M203.56 90.9601C209.51 92.1901 213.9 95.2901 213.36 97.8801C212.82 100.47 207.56 101.58 201.61 100.34C195.66 99.1101 191.27 96.0101 191.81 93.4201C192.35 90.8301 197.6 89.7201 203.55 90.9601H203.56Z" fill="black" style="fill:black;fill-opacity:1;"/>
<path d="M219.65 130.78C219.52 130.96 219.38 131.13 219.22 131.31C213.39 138.01 203.25 138.71 196.56 132.89C189.86 127.06 189.16 116.91 194.98 110.22C198.14 106.6 202.56 104.74 207.01 104.71C201.67 111.41 215.88 130.82 219.65 130.78Z" fill="white" style="fill:white;fill-opacity:1;"/>
<path d="M219.65 130.78C215.88 130.82 212.08 129.51 209.02 126.85C202.51 121.19 201.67 111.4 207.01 104.71C210.78 104.67 214.58 105.98 217.64 108.64C224.15 114.3 224.99 124.09 219.65 130.78Z" fill="black" style="fill:black;fill-opacity:1;"/>
<path d="M144.55 130.78C144.42 130.96 144.28 131.13 144.12 131.31C138.3 138.01 128.15 138.71 121.46 132.89C114.76 127.06 114.06 116.91 119.88 110.22C123.04 106.6 127.46 104.74 131.92 104.71C126.58 111.41 140.79 130.82 144.56 130.78H144.55Z" fill="white" style="fill:white;fill-opacity:1;"/>
<path d="M144.55 130.78C140.78 130.82 136.98 129.51 133.92 126.85C127.41 121.19 126.57 111.4 131.91 104.71C135.68 104.67 139.48 105.98 142.54 108.64C149.05 114.3 149.89 124.09 144.55 130.78Z" fill="black" style="fill:black;fill-opacity:1;"/>
<path d="M169.55 139.22C165.08 139.22 161.44 136.2 161.44 132.48C161.44 128.76 165.08 125.75 169.55 125.75C174.02 125.75 177.66 128.77 177.66 132.48C177.66 136.19 174.02 139.22 169.55 139.22ZM169.55 129.53C167.2 129.53 165.22 130.89 165.22 132.49C165.22 134.09 167.2 135.45 169.55 135.45C171.9 135.45 173.88 134.1 173.88 132.49C173.88 130.88 171.9 129.53 169.55 129.53Z" fill="black" style="fill:black;fill-opacity:1;"/>
<path d="M169.55 150.4C160.68 150.4 153.46 143.18 153.46 134.31C153.46 133.27 154.31 132.42 155.35 132.42C156.39 132.42 157.24 133.27 157.24 134.31C157.24 141.1 162.76 146.62 169.55 146.62C176.34 146.62 181.86 141.1 181.86 134.31C181.86 133.27 182.7 132.42 183.75 132.42C184.8 132.42 185.64 133.27 185.64 134.31C185.64 143.18 178.43 150.4 169.55 150.4Z" fill="black" style="fill:black;fill-opacity:1;"/>
<path d="M250.6 95.7398C260.84 96.7598 268.31 105.87 267.3 116.11C266.29 126.34 257.17 133.82 246.93 132.81C236.69 131.8 229.21 122.68 230.23 112.44C231.24 102.21 240.36 94.7298 250.6 95.7398Z" fill="#774030" style="fill:#774030;fill:color(display-p3 0.4667 0.2510 0.1882);fill-opacity:1;"/>
<path d="M246.06 125.17C245.68 125.17 245.31 125.06 244.98 124.83C242.58 123.16 240.97 120.65 240.45 117.77C239.94 114.89 240.57 111.98 242.24 109.58C245.69 104.62 252.53 103.39 257.49 106.85C258.35 107.44 258.56 108.62 257.96 109.47C257.37 110.33 256.19 110.54 255.33 109.94C253.76 108.85 251.85 108.43 249.96 108.77C248.07 109.11 246.43 110.16 245.33 111.73C244.24 113.3 243.82 115.21 244.16 117.1C244.5 118.99 245.55 120.63 247.12 121.72C247.97 122.32 248.19 123.49 247.59 124.35C247.22 124.88 246.63 125.16 246.04 125.16L246.06 125.17Z" fill="black" style="fill:black;fill-opacity:1;"/>
<path d="M108.85 112.44C109.86 122.68 102.39 131.79 92.1501 132.81C81.9201 133.82 72.8001 126.35 71.7801 116.11C70.7601 105.87 78.2401 96.7599 88.4801 95.7399C98.7201 94.7299 107.84 102.2 108.85 112.44Z" fill="#774030" style="fill:#774030;fill:color(display-p3 0.4667 0.2510 0.1882);fill-opacity:1;"/>
<path d="M93.0498 125.17C92.4498 125.17 91.8598 124.89 91.4998 124.36C90.9098 123.51 91.1198 122.33 91.9698 121.73C93.5398 120.63 94.5998 118.99 94.9298 117.11C95.2698 115.22 94.8498 113.32 93.7598 111.74C92.6698 110.17 91.0198 109.11 89.1398 108.78C87.2598 108.44 85.3498 108.86 83.7698 109.95C82.9098 110.54 81.7298 110.34 81.1398 109.48C80.5398 108.62 80.7498 107.45 81.6098 106.85C86.5698 103.4 93.4098 104.63 96.8598 109.59C98.5298 111.99 99.1698 114.9 98.6498 117.78C98.1398 120.66 96.5298 123.17 94.1198 124.83C93.7898 125.06 93.4198 125.17 93.0498 125.17Z" fill="black" style="fill:black;fill-opacity:1;"/>
<path d="M172.87 246.43C170.86 243.73 167.05 243.18 164.36 245.2C167.05 243.19 167.6 239.38 165.59 236.69C163.98 234.53 161.2 233.75 158.78 234.57C158.66 234.41 158.54 234.23 158.42 234.07C159.88 231.98 159.92 229.1 158.31 226.95C156.3 224.25 152.48 223.7 149.79 225.71C152.48 223.7 153.03 219.89 151.02 217.2C149 214.5 145.2 213.95 142.51 215.97L132.08 223.76L133.11 216.66C133.59 213.34 131.28 210.25 127.96 209.77C124.64 209.29 121.55 211.6 121.07 214.92L118.65 231.71C116.39 232.47 113.58 232.85 110.31 232.17C105.33 231.14 101.36 227.92 99.2098 223.72C97.5698 220.54 96.9698 216.81 97.7498 213.05C98.0898 211.41 98.6698 209.86 99.4598 208.46L61.2598 176.1C55.2998 183.83 50.9898 192.95 48.9198 202.93C44.8298 222.67 50.0498 242.22 61.5798 256.98C70.8798 268.89 84.2698 277.69 100.19 281C104.64 281.92 109.13 282.38 113.59 282.38C127.9 282.38 141.97 277.72 153.57 268.9C154.64 268.08 171.64 254.96 171.64 254.96C174.33 252.94 174.88 249.14 172.87 246.44V246.43Z" fill="#774030" style="fill:#774030;fill:color(display-p3 0.4667 0.2510 0.1882);fill-opacity:1;"/>
<path d="M151.96 256.34C151.39 256.34 150.81 256.08 150.45 255.59C149.82 254.75 149.99 253.57 150.83 252.95L161.95 244.63C162.78 244.01 163.97 244.18 164.59 245.01C165.22 245.85 165.04 247.03 164.21 247.65L153.09 255.96C152.75 256.21 152.35 256.34 151.96 256.34Z" fill="black" style="fill:black;fill-opacity:1;"/>
<path d="M144.69 246.63C144.12 246.63 143.55 246.37 143.18 245.87C142.56 245.03 142.72 243.85 143.56 243.23L154.68 234.91C155.52 234.29 156.7 234.46 157.32 235.29C157.95 236.13 157.77 237.31 156.94 237.94L145.82 246.25C145.48 246.5 145.09 246.63 144.69 246.63Z" fill="black" style="fill:black;fill-opacity:1;"/>
<path d="M137.43 236.91C136.86 236.91 136.29 236.65 135.92 236.15C135.3 235.31 135.46 234.14 136.3 233.51L147.42 225.19C148.25 224.57 149.44 224.74 150.06 225.57C150.69 226.41 150.51 227.59 149.68 228.21L138.56 236.52C138.22 236.77 137.82 236.9 137.43 236.9V236.91Z" fill="black" style="fill:black;fill-opacity:1;"/>
</g>
<defs>
<clipPath id="clip0_641_1404">
<rect width="384" height="384" fill="white" style="fill:white;fill-opacity:1;"/>
</clipPath>
</defs>
</svg>
