<svg width="384" height="384" viewBox="0 0 384 384" fill="none" xmlns="http://www.w3.org/2000/svg">
<g clip-path="url(#clip0_634_2556)">
<path d="M175.74 384H9.11991C7.67991 384 6.65991 382.6 7.09991 381.23L48.7599 252.41H136.1L177.75 381.23C178.19 382.6 177.17 384 175.74 384Z" fill="#7DDFE9" style="fill:#7DDFE9;fill:color(display-p3 0.4902 0.8745 0.9137);fill-opacity:1;"/>
<path d="M110.27 310.48V384H60.9902V310.48C60.9902 296.87 72.0202 285.84 85.6302 285.84C99.2402 285.84 110.27 296.87 110.27 310.48Z" fill="#FFB398" style="fill:#FFB398;fill:color(display-p3 1.0000 0.7020 0.5961);fill-opacity:1;"/>
<path d="M112.32 343.36H60.2002C59.2402 343.36 58.4702 342.59 58.4702 341.63V313.11C58.4702 297.76 70.9102 285.32 86.2602 285.32C101.61 285.32 114.05 297.76 114.05 313.11V341.63C114.05 342.59 113.28 343.36 112.32 343.36Z" fill="#7DDFE9" style="fill:#7DDFE9;fill:color(display-p3 0.4902 0.8745 0.9137);fill-opacity:1;"/>
<path d="M114.05 336.13C115.19 336.13 116.11 335.21 116.11 334.08C116.11 332.95 115.19 332.03 114.05 332.03H60.5199V313.13C60.5199 305.14 64.1399 297.74 70.4499 292.82C71.3399 292.12 71.5099 290.83 70.8099 289.94C70.1099 289.05 68.8199 288.89 67.9299 289.58C60.6099 295.28 56.4199 303.87 56.4199 313.13V341.65C56.4199 343.74 58.1199 345.44 60.1999 345.44H112.32C113.46 345.44 114.38 344.52 114.38 343.39C114.38 342.26 113.46 341.34 112.32 341.34H60.5199V336.16H114.05V336.13Z" fill="black" style="fill:black;fill-opacity:1;"/>
<path d="M177.89 208.57C177.33 205.02 173.16 202.74 168.5 203.36C168.35 200.95 168.09 198.51 167.71 196.07C161.34 155.97 123.66 128.59 83.54 134.96C43.42 141.33 16.06 179.01 22.43 219.13C28.8 259.24 66.48 286.61 106.6 280.24C131.33 276.32 151.21 260.5 161.31 239.54C161.51 239.13 161.45 238.64 161.17 238.28C158.46 234.89 155.18 230.61 153.61 228.55C153.18 228 153.51 227.19 154.2 227.08L165.76 225.09C166.23 225.01 166.62 224.65 166.73 224.18C167.31 221.69 167.75 219.16 168.07 216.61C168.79 216.64 169.53 216.61 170.29 216.5C175.07 215.74 178.48 212.19 177.91 208.57H177.89Z" fill="#FFB398" style="fill:#FFB398;fill:color(display-p3 1.0000 0.7020 0.5961);fill-opacity:1;"/>
<path d="M153.39 143.98C139.16 130.68 120.1 122.57 99.1399 122.57C79.4999 122.57 61.5299 129.7 47.6499 141.5C47.1499 137.17 45.1399 133.86 42.9999 134.04C40.7599 134.22 39.2399 138.12 39.6099 142.75C39.6199 142.91 39.6499 143.06 39.6699 143.21C39.5199 143.16 39.3899 143.09 39.2399 143.04C34.8499 141.54 30.6899 142.04 29.9699 144.17C29.2399 146.3 32.2099 149.24 36.6099 150.75C37.0999 150.92 37.5899 151.05 38.0699 151.17C26.5499 164.96 19.6099 182.71 19.6099 202.08C19.6099 213.76 21.4999 232.19 30.6699 243.14C50.8799 241.95 67.4299 227.03 71.0399 207.55C71.5199 207.59 71.9899 207.59 72.4899 207.59C95.2899 207.59 114 190.12 116.01 167.84C119.03 170.15 122.49 172.23 126.33 173.96C143.04 181.47 160.24 179.41 164.76 169.37C168.2 161.73 163.29 151.67 153.4 143.99L153.39 143.98Z" fill="#966E00" style="fill:#966E00;fill:color(display-p3 0.5882 0.4314 0.0000);fill-opacity:1;"/>
<path d="M116.21 171.55C115.47 171.55 114.77 171.16 114.4 170.46L107.05 156.72C106.51 155.72 106.89 154.48 107.89 153.94C108.89 153.41 110.13 153.78 110.67 154.78L118.02 168.51C118.56 169.51 118.18 170.76 117.18 171.29C116.87 171.45 116.54 171.53 116.21 171.53V171.55Z" fill="black" style="fill:black;fill-opacity:1;"/>
<path d="M130.49 182.54C132.01 184.06 130.54 187.98 127.22 191.31C123.9 194.64 119.97 196.1 118.46 194.58C116.94 193.06 118.41 189.14 121.73 185.81C125.05 182.49 128.98 181.02 130.5 182.54H130.49Z" fill="#966E00" style="fill:#966E00;fill:color(display-p3 0.5882 0.4314 0.0000);fill-opacity:1;"/>
<path d="M128.19 204.12C128.19 211.71 134.33 217.87 141.92 217.88C146.04 217.88 149.72 216.08 152.24 213.21C154.38 210.8 155.68 207.62 155.68 204.15C155.68 196.77 149.86 190.74 142.54 190.42C142.35 190.4 142.16 190.4 141.96 190.4C134.37 190.4 128.21 196.54 128.2 204.13L128.19 204.12Z" fill="white" style="fill:white;fill-opacity:1;"/>
<path d="M139.09 199.48C139.09 206.86 144.92 212.9 152.24 213.22C154.38 210.81 155.68 207.63 155.68 204.16C155.68 196.78 149.86 190.75 142.54 190.43C140.4 192.84 139.11 196.02 139.1 199.49L139.09 199.48Z" fill="black" style="fill:black;fill-opacity:1;"/>
<path d="M76.8102 199.98C87.4002 202.38 94.0402 212.89 91.6502 223.48C89.2602 234.07 78.7402 240.71 68.1502 238.32C57.5602 235.93 50.9202 225.41 53.3102 214.82C55.7002 204.23 66.2201 197.59 76.8102 199.98Z" fill="#FFB398" style="fill:#FFB398;fill:color(display-p3 1.0000 0.7020 0.5961);fill-opacity:1;"/>
<path d="M71.2201 230.76C64.8901 230.56 59.9401 225.31 60.1401 219.04C60.3301 212.77 65.5501 207.81 71.8601 208.02C72.9901 208.05 73.8801 209 73.8501 210.14C73.8101 211.27 72.8301 212.19 71.7301 212.13C67.7101 212.03 64.3701 215.17 64.2501 219.17C64.1301 223.17 67.2901 226.53 71.2901 226.66C72.4201 226.7 73.3101 227.64 73.2801 228.77C73.2501 229.88 72.3301 230.76 71.2301 230.76H71.2201Z" fill="black" style="fill:black;fill-opacity:1;"/>
<path d="M220.03 0C175.79 0 139.92 26.46 139.92 59.09C139.92 66.61 141.85 73.79 145.32 80.41L134.58 112.62C134.18 113.82 135.32 114.96 136.52 114.56L168.06 104.05C182.05 112.86 200.19 118.18 220.02 118.18C264.26 118.18 300.13 91.73 300.13 59.09C300.13 26.45 264.27 0 220.03 0Z" fill="#43CFE0" style="fill:#43CFE0;fill:color(display-p3 0.2627 0.8118 0.8784);fill-opacity:1;"/>
<path d="M246.126 58.953C246.126 66.8943 242.5 73.9796 236.782 78.6398C234.095 80.8272 232.371 84.0014 232.098 87.4727L232.014 88.7448L219.484 94.4035L209.427 88.7448L209.344 87.4727C209.082 84.0014 207.37 80.851 204.683 78.6398C198.763 73.8132 195.042 66.3712 195.339 58.0614C195.779 45.127 206.181 34.392 219.104 33.5955C233.869 32.6682 246.126 44.3781 246.126 58.9411V58.953Z" fill="#FFD76B" style="fill:#FFD76B;fill:color(display-p3 1.0000 0.8431 0.4196);fill-opacity:1;"/>
<path d="M229.06 66.7065C227.392 65.6967 226.174 65.9536 225.443 66.348C223.45 67.4236 223.031 70.7339 222.956 72.5026H218.046C217.965 70.7219 217.546 67.4176 215.553 66.348C214.829 65.9536 213.61 65.6967 211.942 66.7065C210.349 67.6686 209.674 69.1743 210.149 70.7279C210.755 72.7296 213.042 74.3011 215.709 74.6656V90.8766C215.709 91.4981 216.234 92 216.884 92C217.534 92 218.058 91.4981 218.058 90.8766V74.7493H222.938V90.8766C222.938 91.4981 223.463 92 224.112 92C224.762 92 225.287 91.4981 225.287 90.8766V74.6656C227.954 74.3011 230.247 72.7296 230.853 70.7279C231.322 69.1684 230.653 67.6686 229.06 66.7065ZM212.405 70.1065C212.342 69.8914 212.142 69.2401 213.198 68.6067C213.492 68.4274 213.86 68.2482 214.154 68.2482C214.248 68.2482 214.329 68.2661 214.404 68.3019C215.147 68.7023 215.572 70.6622 215.684 72.3831C213.96 72.0485 212.692 71.0446 212.405 70.1005V70.1065ZM228.592 70.1065C228.304 71.0506 227.036 72.0604 225.312 72.389C225.424 70.6741 225.849 68.7083 226.593 68.3079C226.667 68.2661 226.749 68.2541 226.842 68.2541C227.136 68.2541 227.511 68.4334 227.798 68.6127C228.848 69.246 228.654 69.8973 228.592 70.1125V70.1065Z" fill="black" style="fill:black;fill-opacity:1;"/>
<path d="M232.014 88.7441L231.444 96.412C231.016 102.309 225.88 106.79 219.889 106.327C214.527 105.911 210.39 101.417 209.998 96.0554L209.451 88.756H232.026L232.014 88.7441Z" fill="#FF571A" style="fill:#FF571A;fill:color(display-p3 1.0000 0.3412 0.1020);fill-opacity:1;"/>
<path d="M190.584 38.2438C190.216 38.2438 189.847 38.1606 189.502 37.9704L180.61 33.0962C179.528 32.5018 179.124 31.1347 179.718 30.0528C180.313 28.971 181.68 28.5668 182.762 29.1612L191.654 34.0354C192.736 34.6298 193.14 35.9969 192.546 37.0787C192.141 37.8158 191.369 38.2438 190.572 38.2438H190.584Z" fill="black" style="fill:black;fill-opacity:1;"/>
<path d="M250.869 38.2438C250.084 38.2438 249.312 37.8158 248.896 37.0787C248.301 35.9969 248.693 34.6298 249.787 34.0354L258.68 29.1612C259.761 28.5668 261.129 28.971 261.723 30.0528C262.317 31.1347 261.925 32.5018 260.831 33.0962L251.939 37.9704C251.594 38.1606 251.226 38.2438 250.857 38.2438H250.869Z" fill="black" style="fill:black;fill-opacity:1;"/>
<path d="M220.72 24.9994C219.484 24.9994 218.474 24.0008 218.474 22.7526V12.6238C218.474 11.3874 219.472 10.377 220.72 10.377C221.969 10.377 222.967 11.3756 222.967 12.6238V22.7644C222.967 24.0008 221.957 25.0113 220.72 25.0113V24.9994Z" fill="black" style="fill:black;fill-opacity:1;"/>
<path d="M373.67 381.23L332.01 252.41H244.67L228.51 302.37C217.35 305.72 206 308.4 194.5 310.33C191.25 310.87 187.97 311.34 184.65 311.75L191.75 359.7C195.36 359.25 198.98 358.72 202.55 358.12C205.37 357.65 208.18 357.11 210.98 356.56L203 381.23C202.56 382.59 203.58 384 205.02 384H371.65C373.09 384 374.11 382.6 373.67 381.23Z" fill="#7562DD" style="fill:#7562DD;fill:color(display-p3 0.4588 0.3843 0.8667);fill-opacity:1;"/>
<path d="M187.48 311.39C189.78 311.08 192.04 310.75 194.3 310.38L185.72 318.94L184.96 313.91L187.48 311.39Z" fill="#7562DD" style="fill:#7562DD;fill:color(display-p3 0.4588 0.3843 0.8667);fill-opacity:1;"/>
<path d="M252.27 252.41L241.04 263.62L243.81 255.06L246.46 252.41H252.27Z" fill="#7562DD" style="fill:#7562DD;fill:color(display-p3 0.4588 0.3843 0.8667);fill-opacity:1;"/>
<path d="M290.13 252.41L190.6 351.96L189.84 346.89L284.34 252.41H290.13Z" fill="#7562DD" style="fill:#7562DD;fill:color(display-p3 0.4588 0.3843 0.8667);fill-opacity:1;"/>
<path d="M328.02 252.41L204.83 375.6L207.6 367.02L322.21 252.41H328.02Z" fill="#7562DD" style="fill:#7562DD;fill:color(display-p3 0.4588 0.3843 0.8667);fill-opacity:1;"/>
<path d="M340.28 278.02L234.3 384H228.51L338.86 273.65L340.28 278.02Z" fill="#7562DD" style="fill:#7562DD;fill:color(display-p3 0.4588 0.3843 0.8667);fill-opacity:1;"/>
<path d="M349.54 306.64L272.18 384H266.37L348.12 302.25L349.54 306.64Z" fill="#7562DD" style="fill:#7562DD;fill:color(display-p3 0.4588 0.3843 0.8667);fill-opacity:1;"/>
<path d="M358.8 335.25L310.07 384H304.24L357.38 330.87L358.8 335.25Z" fill="#7562DD" style="fill:#7562DD;fill:color(display-p3 0.4588 0.3843 0.8667);fill-opacity:1;"/>
<path d="M368.06 363.88L347.94 384.01H342.13L366.65 359.49L368.06 363.88Z" fill="#7562DD" style="fill:#7562DD;fill:color(display-p3 0.4588 0.3843 0.8667);fill-opacity:1;"/>
<path d="M184.65 311.76L191.75 359.71C147.97 365.25 103.22 360.78 103.22 360.78C99.9198 360.64 97.3498 357.85 97.4898 354.54C97.6098 351.24 100.4 348.67 103.71 348.81C100.41 348.67 97.8398 345.87 97.9798 342.57C98.0998 339.26 100.89 336.7 104.2 336.82C100.89 336.7 98.3198 333.9 98.4698 330.6C98.6098 327.3 101.41 324.72 104.71 324.85C101.41 324.73 98.8398 321.94 98.9598 318.63C99.1098 315.33 101.9 312.74 105.2 312.88C105.2 312.88 146.64 316.47 184.63 311.77L184.65 311.76Z" fill="#8E4F3E" style="fill:#8E4F3E;fill:color(display-p3 0.5569 0.3098 0.2431);fill-opacity:1;"/>
<path d="M129.71 339.93C129.62 339.93 105.67 338.93 105.67 338.93C104.54 338.88 103.66 337.93 103.71 336.79C103.76 335.66 104.77 334.81 105.85 334.83L129.8 335.83C130.93 335.88 131.81 336.83 131.76 337.97C131.71 339.08 130.81 339.94 129.71 339.94V339.93Z" fill="black" style="fill:black;fill-opacity:1;"/>
<path d="M130.21 327.96C130.12 327.96 106.17 326.96 106.17 326.96C105.04 326.91 104.16 325.96 104.21 324.82C104.26 323.68 105.22 322.84 106.35 322.85L130.3 323.85C131.43 323.9 132.31 324.85 132.26 325.99C132.22 327.1 131.31 327.96 130.21 327.96Z" fill="black" style="fill:black;fill-opacity:1;"/>
<path d="M129.21 351.91C129.12 351.91 105.17 350.91 105.17 350.91C104.04 350.86 103.16 349.91 103.21 348.77C103.26 347.64 104.24 346.77 105.35 346.81L129.3 347.81C130.43 347.86 131.32 348.81 131.26 349.95C131.22 351.05 130.31 351.91 129.21 351.91Z" fill="black" style="fill:black;fill-opacity:1;"/>
<path d="M212.15 357.65C211.24 357.65 210.4 357.04 210.16 356.11C209.87 355.01 210.54 353.89 211.64 353.61L246.24 344.67C247.34 344.39 248.46 345.05 248.74 346.15C249.03 347.25 248.36 348.37 247.27 348.65L212.67 357.59C212.5 357.63 212.32 357.66 212.16 357.66L212.15 357.65Z" fill="black" style="fill:black;fill-opacity:1;"/>
<path d="M228.48 304.53C227.64 304.53 226.85 304.01 226.55 303.17C226.16 302.1 226.71 300.93 227.78 300.54L258.19 289.49C259.26 289.1 260.43 289.65 260.82 290.72C261.21 291.79 260.66 292.96 259.59 293.35L229.18 304.4C228.95 304.49 228.71 304.52 228.48 304.52V304.53Z" fill="black" style="fill:black;fill-opacity:1;"/>
<path d="M297.24 134.96C257.12 128.6 219.44 155.96 213.08 196.07C212.69 198.51 212.44 200.94 212.29 203.35C207.63 202.73 203.45 205.01 202.88 208.56C202.3 212.18 205.72 215.74 210.5 216.49C211.26 216.61 212 216.63 212.73 216.6C216.63 248.33 241.05 274.96 274.19 280.23C314.31 286.6 351.99 259.23 358.35 219.12C364.72 179.01 337.36 141.32 297.24 134.96Z" fill="#8E4F3E" style="fill:#8E4F3E;fill:color(display-p3 0.5569 0.3098 0.2431);fill-opacity:1;"/>
<path d="M376.21 125.61C376.21 106.51 360.73 91.0195 341.62 91.0195C322.51 91.0195 307.03 106.5 307.03 125.61C307.03 129.97 307.87 134.13 309.34 137.97C308.58 137.71 307.81 137.45 307.03 137.21C305.15 136.64 303.22 136.14 301.26 135.73C299.93 135.43 298.6 135.19 297.26 134.98C275.38 131.51 254.23 138.05 238.48 151.27C244.91 162.2 256.79 169.52 270.38 169.52C273.95 169.52 277.4 169.02 280.66 168.05C280.62 168.53 280.62 169.02 280.62 169.52C280.62 189.97 296.77 206.64 317 207.47C317 226.32 332 241.61 350.69 242.09C354.42 235.11 357.06 227.39 358.37 219.14C360.45 206.09 358.94 193.27 354.58 181.73C353.43 178.72 352.1 175.78 350.57 172.94C348.14 168.4 345.23 164.14 341.93 160.21C360.9 160.05 376.23 144.64 376.23 125.63L376.21 125.61Z" fill="black" style="fill:black;fill-opacity:1;"/>
<path d="M324.21 207.62C330.57 216.41 328.61 228.7 319.82 235.06C311.03 241.43 298.75 239.46 292.38 230.67C286.01 221.88 287.98 209.6 296.77 203.23C305.56 196.86 317.85 198.83 324.22 207.62H324.21Z" fill="#8E4F3E" style="fill:#8E4F3E;fill:color(display-p3 0.5569 0.3098 0.2431);fill-opacity:1;"/>
<path d="M309.54 230.76C308.44 230.76 307.52 229.88 307.49 228.77C307.46 227.64 308.35 226.69 309.48 226.66C311.42 226.6 313.22 225.79 314.55 224.38C315.88 222.97 316.58 221.12 316.51 219.18C316.45 217.24 315.64 215.44 314.23 214.11C312.82 212.78 310.89 212.09 309.03 212.14C307.95 212.21 306.95 211.29 306.91 210.15C306.88 209.02 307.77 208.07 308.9 208.03C311.99 207.92 314.83 209.03 317.04 211.11C319.25 213.19 320.52 216.01 320.62 219.05C320.71 222.09 319.62 224.98 317.54 227.19C315.46 229.41 312.64 230.67 309.6 230.77H309.53L309.54 230.76Z" fill="black" style="fill:black;fill-opacity:1;"/>
<path d="M250.27 182.54C248.75 184.06 250.22 187.98 253.54 191.31C256.87 194.64 260.79 196.1 262.31 194.58C263.83 193.06 262.36 189.14 259.03 185.81C255.71 182.49 251.78 181.02 250.26 182.54H250.27Z" fill="black" style="fill:black;fill-opacity:1;"/>
<path d="M252.58 204.12C252.59 211.71 246.44 217.87 238.86 217.88C234.74 217.88 231.06 216.08 228.54 213.21C226.4 210.8 225.11 207.62 225.1 204.15C225.09 196.77 230.92 190.74 238.24 190.42C238.43 190.4 238.62 190.4 238.82 190.4C246.41 190.4 252.57 196.54 252.58 204.13V204.12Z" fill="white" style="fill:white;fill-opacity:1;"/>
<path d="M241.68 199.48C241.68 206.86 235.86 212.9 228.54 213.22C226.4 210.81 225.11 207.63 225.1 204.16C225.09 196.78 230.92 190.75 238.24 190.43C240.38 192.84 241.68 196.02 241.68 199.49V199.48Z" fill="black" style="fill:black;fill-opacity:1;"/>
<path d="M225.61 220.44C224.89 223.4 223.07 225.88 220.46 227.46C218.88 228.4 217.16 228.96 215.37 229.08C214.94 227.72 214.57 226.37 214.24 224.97C215.68 225.05 217.1 224.7 218.35 223.94C219.99 222.93 221.16 221.33 221.63 219.46C221.9 218.35 223.03 217.69 224.12 217.94C225.22 218.23 225.88 219.34 225.62 220.42L225.61 220.44Z" fill="black" style="fill:black;fill-opacity:1;"/>
</g>
<defs>
<clipPath id="clip0_634_2556">
<rect width="384" height="384" fill="white" style="fill:white;fill-opacity:1;"/>
</clipPath>
</defs>
</svg>
