<svg width="384" height="384" viewBox="0 0 384 384" fill="none" xmlns="http://www.w3.org/2000/svg">
<g clip-path="url(#clip0_631_2049)">
<path d="M364.16 266.77C364.16 269.17 364.05 271.57 363.83 273.94C363.46 278.29 362.72 282.54 361.63 286.71C357.13 304.39 346.7 320.08 332.12 331.66C330.85 332.71 329.53 333.69 328.18 334.64C327.19 335.34 326.21 336.04 325.18 336.69L294.83 276.54C297.13 273.58 298.45 270.22 298.45 266.77C298.45 256.07 286.46 247.02 272.25 247.02C269.78 247.02 267.38 247.31 265.06 247.82L285.78 309.88L287.1 313.84L298.25 347.21H85.7701L97.1101 313.23L98.4201 309.33L112.49 267.15L114.15 262.14L118.94 247.83C116.62 247.32 114.22 247.03 111.75 247.03C97.5401 247.03 85.5501 256.08 85.5501 266.78C85.5501 270.23 86.8701 273.6 89.1701 276.55L86.5601 281.71L84.1601 286.51L58.8201 336.7C52.9901 332.88 47.6701 328.47 42.9701 323.56C42.0301 322.56 41.0801 321.53 40.2001 320.48C27.3401 305.69 19.8501 286.93 19.8501 266.78C19.8501 259.04 20.9601 251.57 23.0301 244.44C23.4401 243.02 23.8901 241.62 24.3901 240.25C26.7901 233.39 30.1201 226.9 34.2301 220.93C36.1601 218.11 38.2501 215.41 40.5401 212.84C45.9601 206.66 52.2901 201.2 59.3301 196.64C60.4801 195.88 61.6501 195.16 62.8401 194.48C77.0101 186.14 93.8001 181.32 111.77 181.32C117.21 181.32 122.57 181.75 127.83 182.61C129.78 182.94 131.73 183.31 133.66 183.76C139.14 184.99 144.46 186.69 149.66 188.89L149.15 190.12H234.9L234.39 188.89C246.34 183.86 259.09 181.31 272.28 181.31C277.02 181.31 281.71 181.64 286.26 182.29C286.92 182.4 287.57 182.5 288.21 182.6C296.88 184.02 305.13 186.55 312.77 190.08C314.33 190.78 315.83 191.52 317.33 192.32C345.28 207 364.19 234.87 364.19 266.78L364.16 266.77Z" fill="#43CFE0" style="fill:#43CFE0;fill:color(display-p3 0.2627 0.8118 0.8784);fill-opacity:1;"/>
<path d="M119.05 249.71C118.82 249.71 118.59 249.67 118.36 249.59C117.29 249.21 116.73 248.04 117.11 246.97L124.7 225.6C125.08 224.53 126.25 223.98 127.32 224.35C128.39 224.73 128.95 225.9 128.57 226.97L120.98 248.34C120.68 249.18 119.89 249.71 119.05 249.71Z" fill="black" style="fill:black;fill-opacity:1;"/>
<path d="M264.4 249.71C263.56 249.71 262.76 249.18 262.46 248.34L254.87 226.97C254.49 225.9 255.05 224.73 256.12 224.35C257.19 223.97 258.37 224.53 258.74 225.6L266.33 246.97C266.71 248.04 266.15 249.22 265.08 249.59C264.85 249.67 264.62 249.71 264.39 249.71H264.4Z" fill="black" style="fill:black;fill-opacity:1;"/>
<path d="M260.28 317.81C246.93 352.71 209.38 369.09 196.47 382.04C193.68 384.83 190.12 384.64 187.02 381.52C173.65 368.06 136.91 352.26 123.73 317.82C101.41 259.51 164.81 233.77 191.96 274.81C219.2 233.78 282.6 259.51 260.28 317.82V317.81Z" fill="#F34100" style="fill:#F34100;fill:color(display-p3 0.9529 0.2549 0.0000);fill-opacity:1;"/>
<path d="M289.18 118.14C289.18 171.81 245.67 215.31 192 215.31C138.33 215.31 94.8296 171.81 94.8296 118.14C94.8296 64.4697 138.33 20.9697 192 20.9697C245.67 20.9697 289.18 64.4797 289.18 118.15V118.14Z" fill="#E5B5A1" style="fill:#E5B5A1;fill:color(display-p3 0.8980 0.7098 0.6314);fill-opacity:1;"/>
<path d="M296.01 101.46C294.9 94.4798 293.08 87.7498 290.67 81.2998C277.97 46.5098 245.74 19.9498 209.12 14.2498C205.67 13.6898 202.17 13.2898 198.61 13.0698C198.41 13.0598 198.21 13.0398 198.01 13.0298C198.65 12.3298 199.26 11.5498 199.82 10.6898C202.65 6.37983 203.25 1.77983 201.18 0.399831C199.09 -0.980169 195.1 1.40983 192.27 5.71983C192.16 5.87983 192.1 6.02983 192 6.16983C191.92 6.02983 191.84 5.87983 191.73 5.71983C188.92 1.40983 184.91 -0.970169 182.84 0.399831C180.74 1.77983 181.34 6.37983 184.17 10.6898C184.75 11.5498 185.36 12.3298 186 13.0298C185.87 13.0298 185.74 13.0498 185.61 13.0598C181.9 13.2798 178.24 13.6998 174.65 14.2898C138.1 20.0698 106.04 46.5898 93.3298 81.3098C90.9398 87.7598 89.1198 94.4998 88.0098 101.47C90.8298 101.61 93.5198 102.22 95.9898 103.24C95.9398 103.57 95.8698 103.9 95.8198 104.23C108.61 102.73 119.05 93.4898 122.31 81.3098H142.04C145.35 75.5998 152.25 64.1598 152.25 64.1598L157.67 81.3098H213.48L221.67 55.4198C221.67 55.4198 232.45 73.2798 237.07 81.3098H261.67C264.96 93.4898 275.37 102.73 288.16 104.23C288.12 103.9 288.04 103.58 287.99 103.25C290.48 102.24 293.18 101.62 296 101.48L296.01 101.46Z" fill="#FFDD7F" style="fill:#FFDD7F;fill:color(display-p3 1.0000 0.8667 0.4980);fill-opacity:1;"/>
<path d="M155.82 94.6202C156.87 97.9802 151.46 102.65 143.75 105.05C136.04 107.45 128.94 106.67 127.9 103.31C126.85 99.9501 132.26 95.2901 139.97 92.8901C147.68 90.4901 154.78 91.2701 155.82 94.6301V94.6202Z" fill="#212529" style="fill:#212529;fill:color(display-p3 0.1294 0.1451 0.1608);fill-opacity:1;"/>
<path d="M244.03 92.8599C251.74 95.2599 257.15 99.9299 256.1 103.29C255.06 106.65 247.96 107.43 240.25 105.03C232.54 102.63 227.14 97.9599 228.18 94.5999C229.22 91.2399 236.32 90.4599 244.03 92.8599Z" fill="#212529" style="fill:#212529;fill:color(display-p3 0.1294 0.1451 0.1608);fill-opacity:1;"/>
<path d="M192 158.88C186.31 158.88 181.68 155.07 181.68 150.38C181.68 145.69 186.31 141.88 192 141.88C197.69 141.88 202.32 145.69 202.32 150.38C202.32 155.07 197.69 158.88 192 158.88ZM192 145.99C188.63 145.99 185.79 148 185.79 150.38C185.79 152.76 188.63 154.77 192 154.77C195.37 154.77 198.21 152.76 198.21 150.38C198.21 148 195.37 145.99 192 145.99Z" fill="black" style="fill:black;fill-opacity:1;"/>
<path d="M233.29 115.26C244.08 110.5 256.69 115.39 261.45 126.18C264.03 132.03 263.77 138.4 261.27 143.77C259.18 148.33 255.47 152.16 250.54 154.33C240.05 158.96 227.81 154.44 222.78 144.23C222.63 143.98 222.51 143.71 222.39 143.42C217.63 132.63 222.51 120.02 233.3 115.26H233.29Z" fill="white" style="fill:white;fill-opacity:1;"/>
<path d="M233.5 133.67C243.99 129.04 256.23 133.56 261.26 143.77C259.17 148.33 255.46 152.16 250.53 154.33C240.04 158.96 227.8 154.44 222.77 144.23C224.86 139.68 228.57 135.85 233.51 133.67H233.5Z" fill="black" style="fill:black;fill-opacity:1;"/>
<path d="M133.46 115.26C144.25 110.5 156.86 115.39 161.62 126.18C164.2 132.03 163.94 138.4 161.44 143.77C159.35 148.33 155.64 152.16 150.7 154.33C140.21 158.96 127.97 154.44 122.94 144.23C122.79 143.98 122.67 143.71 122.54 143.42C117.78 132.63 122.67 120.02 133.45 115.26H133.46Z" fill="white" style="fill:white;fill-opacity:1;"/>
<path d="M133.67 133.67C144.16 129.04 156.4 133.56 161.43 143.77C159.34 148.33 155.63 152.16 150.69 154.33C140.2 158.96 127.96 154.44 122.93 144.23C125.02 139.68 128.73 135.85 133.67 133.67Z" fill="black" style="fill:black;fill-opacity:1;"/>
<path d="M192 173.73C180.46 173.73 171.08 164.35 171.08 152.81C171.08 151.68 172 150.76 173.13 150.76C174.26 150.76 175.19 151.68 175.19 152.81C175.19 162.08 182.73 169.63 192 169.63C201.27 169.63 208.82 162.08 208.82 152.81C208.82 151.68 209.74 150.76 210.88 150.76C212.02 150.76 212.93 151.68 212.93 152.81C212.93 164.35 203.55 173.73 192.01 173.73H192Z" fill="black" style="fill:black;fill-opacity:1;"/>
<path d="M322.06 126.18C322.06 139.85 310.97 150.93 297.3 150.93C283.63 150.93 272.55 139.85 272.55 126.18C272.55 112.51 283.63 101.42 297.3 101.42C310.97 101.42 322.06 112.51 322.06 126.18Z" fill="#E5B5A1" style="fill:#E5B5A1;fill:color(display-p3 0.8980 0.7098 0.6314);fill-opacity:1;"/>
<path d="M293.69 140.2C293.28 140.2 292.87 140.08 292.52 139.83C289.43 137.68 287.36 134.45 286.7 130.74C286.03 127.03 286.85 123.29 289 120.19C291.15 117.1 294.38 115.03 298.08 114.37C301.8 113.7 305.54 114.53 308.63 116.67C309.56 117.32 309.79 118.6 309.14 119.53C308.49 120.46 307.21 120.69 306.28 120.04C304.09 118.51 301.43 117.93 298.8 118.41C296.17 118.88 293.89 120.34 292.36 122.54C290.83 124.73 290.25 127.39 290.72 130.01C291.19 132.64 292.66 134.93 294.85 136.45C295.78 137.1 296.01 138.38 295.36 139.3C294.96 139.88 294.32 140.18 293.68 140.18L293.69 140.2Z" fill="black" style="fill:black;fill-opacity:1;"/>
<path d="M111.45 126.18C111.45 139.85 100.36 150.93 86.6899 150.93C73.0199 150.93 61.9399 139.85 61.9399 126.18C61.9399 112.51 73.0199 101.42 86.6899 101.42C100.36 101.42 111.45 112.51 111.45 126.18Z" fill="#E5B5A1" style="fill:#E5B5A1;fill:color(display-p3 0.8980 0.7098 0.6314);fill-opacity:1;"/>
<path d="M90.3199 140.2C89.6699 140.2 89.0299 139.89 88.6299 139.32C87.9799 138.39 88.2099 137.1 89.1399 136.46C91.3399 134.94 92.7999 132.65 93.2699 130.02C93.7399 127.39 93.1599 124.73 91.6399 122.54C90.1099 120.35 87.8199 118.88 85.1999 118.41C82.5599 117.93 79.9099 118.52 77.7199 120.04C76.7899 120.69 75.5099 120.46 74.8599 119.53C74.2099 118.6 74.4399 117.32 75.3699 116.67C78.4599 114.52 82.2099 113.69 85.9099 114.37C89.6199 115.03 92.8499 117.1 94.9999 120.19C97.1499 123.28 97.9699 127.03 97.2999 130.74C96.6299 134.45 94.5699 137.68 91.4699 139.83C91.1099 140.08 90.7099 140.2 90.2999 140.2H90.3199Z" fill="black" style="fill:black;fill-opacity:1;"/>
<path d="M325.19 336.69L294.84 276.54C291.53 280.81 286.13 284.2 279.72 285.68C279.11 285.82 278.47 285.95 277.83 286.05C276.02 286.36 243.3 286.74 243.3 286.74C238.79 286.74 235.14 290.4 235.14 294.9C235.14 299.4 238.79 303.06 243.3 303.06C238.79 303.06 235.14 306.71 235.14 311.22C235.14 315.73 238.79 319.38 243.3 319.38C238.79 319.38 235.14 323.03 235.14 327.54C235.14 332.05 238.79 335.7 243.3 335.7C238.79 335.7 235.14 339.36 235.14 343.86C235.14 348.36 238.79 352.02 243.3 352.02C243.3 352.02 280.08 352.91 294.49 349.72C305.78 347.11 316.13 342.63 325.19 336.7V336.69Z" fill="#E5B5A1" style="fill:#E5B5A1;fill:color(display-p3 0.8980 0.7098 0.6314);fill-opacity:1;"/>
<path d="M278.03 321.43H245.39C244.25 321.43 243.33 320.51 243.33 319.38C243.33 318.25 244.25 317.33 245.39 317.33H278.03C279.16 317.33 280.08 318.25 280.08 319.38C280.08 320.51 279.16 321.43 278.03 321.43Z" fill="black" style="fill:black;fill-opacity:1;"/>
<path d="M278.03 305.11H245.39C244.25 305.11 243.33 304.19 243.33 303.06C243.33 301.93 244.25 301.01 245.39 301.01H278.03C279.16 301.01 280.08 301.93 280.08 303.06C280.08 304.19 279.16 305.11 278.03 305.11Z" fill="black" style="fill:black;fill-opacity:1;"/>
<path d="M278.03 337.75H245.39C244.25 337.75 243.33 336.83 243.33 335.7C243.33 334.57 244.25 333.65 245.39 333.65H278.03C279.16 333.65 280.08 334.57 280.08 335.7C280.08 336.83 279.16 337.75 278.03 337.75Z" fill="black" style="fill:black;fill-opacity:1;"/>
<path d="M149.04 311.22C149.04 306.71 145.39 303.06 140.88 303.06C145.38 303.06 149.04 299.41 149.04 294.9C149.04 290.39 145.39 286.74 140.88 286.74C140.86 286.74 106.5 286.19 104.27 285.68C97.8598 284.2 92.4598 280.81 89.1498 276.54L58.7998 336.68C67.8498 342.61 78.1998 347.09 89.4998 349.7C94.5998 350.88 109.51 352.23 111.74 352.23L140.87 352.01C145.37 352.01 149.03 348.36 149.03 343.85C149.03 339.34 145.38 335.69 140.87 335.69C145.37 335.69 149.03 332.03 149.03 327.53C149.03 323.03 145.38 319.37 140.87 319.37C145.37 319.37 149.03 315.72 149.03 311.21L149.04 311.22Z" fill="#E5B5A1" style="fill:#E5B5A1;fill:color(display-p3 0.8980 0.7098 0.6314);fill-opacity:1;"/>
<path d="M138.79 321.43H106.16C105.02 321.43 104.11 320.51 104.11 319.38C104.11 318.25 105.03 317.33 106.16 317.33H138.79C139.93 317.33 140.85 318.25 140.85 319.38C140.85 320.51 139.93 321.43 138.79 321.43Z" fill="black" style="fill:black;fill-opacity:1;"/>
<path d="M138.79 305.11H106.16C105.02 305.11 104.11 304.19 104.11 303.06C104.11 301.93 105.03 301.01 106.16 301.01H138.79C139.93 301.01 140.85 301.93 140.85 303.06C140.85 304.19 139.93 305.11 138.79 305.11Z" fill="black" style="fill:black;fill-opacity:1;"/>
<path d="M138.79 337.75H106.16C105.02 337.75 104.11 336.83 104.11 335.7C104.11 334.57 105.03 333.65 106.16 333.65H138.79C139.93 333.65 140.85 334.57 140.85 335.7C140.85 336.83 139.93 337.75 138.79 337.75Z" fill="black" style="fill:black;fill-opacity:1;"/>
<path d="M175.311 314.458C170.939 314.458 167.466 313.52 164.89 311.645C162.34 309.77 161.065 306.841 161.065 302.86V288.14C161.065 287.858 161.17 287.614 161.378 287.408C161.586 287.203 161.833 287.1 162.119 287.1H170.276C170.562 287.1 170.809 287.203 171.018 287.408C171.226 287.614 171.33 287.858 171.33 288.14V303.476C171.33 304.529 171.681 305.339 172.384 305.904C173.112 306.469 174.088 306.751 175.311 306.751C176.533 306.751 177.496 306.469 178.199 305.904C178.927 305.339 179.291 304.529 179.291 303.476V288.14C179.291 287.858 179.396 287.614 179.604 287.408C179.812 287.203 180.059 287.1 180.345 287.1H188.502C188.788 287.1 189.035 287.203 189.244 287.408C189.452 287.614 189.556 287.858 189.556 288.14V302.86C189.556 306.841 188.268 309.77 185.692 311.645C183.142 313.52 179.682 314.458 175.311 314.458Z" fill="white" style="fill:white;fill-opacity:1;"/>
<path d="M222.948 312.801C223.026 312.878 223.065 312.981 223.065 313.109C223.065 313.366 222.974 313.597 222.792 313.803C222.636 313.983 222.441 314.073 222.207 314.073H213.816C213.113 314.073 212.58 313.777 212.216 313.186L208.43 307.445L204.722 313.186C204.332 313.777 203.799 314.073 203.122 314.073H194.692C194.458 314.073 194.25 313.996 194.068 313.841C193.912 313.662 193.834 313.456 193.834 313.225V313.109C193.834 312.981 193.873 312.878 193.951 312.801L202.576 299.777L194.887 288.372C194.809 288.269 194.77 288.128 194.77 287.948C194.77 287.717 194.848 287.524 195.004 287.37C195.187 287.19 195.395 287.1 195.629 287.1H204.059C204.735 287.1 205.282 287.421 205.698 288.063L208.742 292.996L212.021 287.986C212.203 287.755 212.398 287.55 212.606 287.37C212.84 287.19 213.178 287.1 213.621 287.1H222.012C222.246 287.1 222.441 287.19 222.597 287.37C222.779 287.524 222.87 287.717 222.87 287.948V288.063C222.87 288.192 222.831 288.295 222.753 288.372L214.596 300.278L222.948 312.801Z" fill="white" style="fill:white;fill-opacity:1;"/>
<path d="M188.307 320.128C188.593 320.128 188.84 320.23 189.048 320.436C189.257 320.641 189.361 320.885 189.361 321.168V346.06C189.361 346.342 189.257 346.586 189.048 346.792C188.84 346.997 188.593 347.1 188.307 347.1H180.267C179.981 347.1 179.734 346.997 179.526 346.792C179.317 346.586 179.213 346.342 179.213 346.06V337.852H171.408V346.06C171.408 346.342 171.304 346.586 171.096 346.792C170.887 346.997 170.64 347.1 170.354 347.1H162.314C162.028 347.1 161.781 347.01 161.573 346.83C161.365 346.625 161.261 346.368 161.261 346.06V321.168C161.261 320.885 161.365 320.641 161.573 320.436C161.781 320.23 162.028 320.128 162.314 320.128H170.354C170.64 320.128 170.887 320.23 171.096 320.436C171.304 320.641 171.408 320.885 171.408 321.168V329.067H179.213V321.168C179.213 320.885 179.317 320.641 179.526 320.436C179.734 320.23 179.981 320.128 180.267 320.128H188.307Z" fill="white" style="fill:white;fill-opacity:1;"/>
<path d="M213.777 339.201H220.841C221.127 339.201 221.374 339.304 221.582 339.509C221.791 339.715 221.895 339.959 221.895 340.241V346.06C221.895 346.342 221.791 346.586 221.582 346.792C221.374 346.997 221.127 347.1 220.841 347.1H196.097C195.811 347.1 195.564 346.997 195.356 346.792C195.148 346.586 195.043 346.342 195.043 346.06V340.241C195.043 339.959 195.148 339.715 195.356 339.509C195.564 339.304 195.811 339.201 196.097 339.201H203.239V328.027H196.097C195.811 328.027 195.564 327.924 195.356 327.718C195.148 327.513 195.043 327.269 195.043 326.986V321.168C195.043 320.885 195.148 320.641 195.356 320.436C195.564 320.23 195.811 320.128 196.097 320.128H220.841C221.127 320.128 221.374 320.23 221.582 320.436C221.791 320.641 221.895 320.885 221.895 321.168V326.986C221.895 327.269 221.791 327.513 221.582 327.718C221.374 327.924 221.127 328.027 220.841 328.027H213.777V339.201Z" fill="white" style="fill:white;fill-opacity:1;"/>
</g>
<defs>
<clipPath id="clip0_631_2049">
<rect width="384" height="384" fill="white" style="fill:white;fill-opacity:1;"/>
</clipPath>
</defs>
</svg>
