<svg width="384" height="384" viewBox="0 0 384 384" fill="none" xmlns="http://www.w3.org/2000/svg">
<g clip-path="url(#clip0_680_1888)">
<path d="M266.26 267.5C266.33 267.5 266.41 267.5 266.48 267.5C276.23 267.5 284.06 271 288.75 276.93C289.27 277.59 290.38 276.67 290.82 277.38C291.04 277.74 290.62 279.7 290.82 280.07C292.62 283.4 293.59 287.29 293.59 291.59L325.92 299.85L359.51 291.59C359.51 285.04 358.83 278.61 357.5 272.39C357.35 271.69 356.29 271.66 356.13 270.96C355.96 270.25 356.68 268.88 356.5 268.17C354.9 262.11 352.66 256.26 349.84 250.72C349.52 250.08 348.77 250.27 348.43 249.64C348.14 249.11 348.26 247.75 347.96 247.22C345.12 242.22 341.77 237.48 337.96 233.08C337.48 232.52 336.5 233.08 336 232.53C335.65 232.14 335.78 230.65 335.42 230.28C334.58 229.39 333.71 228.51 332.83 227.64C329.6 224.49 326.16 221.61 322.51 219C321.99 218.63 320.88 219.11 320.36 218.75C319.83 218.39 319.9 217.19 319.36 216.84C314.36 213.58 309.03 210.81 303.44 208.56C302.81 208.31 301.81 209.42 301.18 209.18C300.52 208.93 300.25 207.34 299.59 207.11C293.39 204.93 286.89 203.37 280.2 202.47C279.42 202.37 278.25 203.3 277.47 203.21C276.65 203.12 276.2 202.01 275.36 201.94C272.43 201.69 269.47 201.56 266.48 201.56C261.04 201.56 255.67 201.97 250.4 202.78C249.15 202.97 247.63 204.69 246.39 204.93C245.43 205.11 244.74 203.81 243.79 204.02C238.41 205.21 233.15 206.84 228.02 208.89H156C143.83 204.03 130.9 201.56 117.53 201.56C112.65 201.56 107.84 201.9 103.13 202.56C102 202.72 100.76 203.92 99.65 204.11C98.63 204.29 97.74 203.47 96.73 203.68C79.35 207.31 63.62 215.5 51.2 227.63C38.13 240.38 29.52 256.55 26.13 274.31C25.87 275.68 27.42 274.87 27.22 276.26C27.12 276.95 25.24 279.83 25.16 280.53C24.73 284.16 24.5 287.85 24.5 291.58L56.8 299.84L90.43 291.58C90.43 277.17 101.32 267.48 117.53 267.48C117.6 267.48 117.68 267.48 117.75 267.48L86.84 360.1C85.45 364.27 88.55 368.58 92.95 368.58H291.06C295.46 368.58 298.56 364.27 297.17 360.1L266.26 267.48V267.5Z" fill="#09C0D7" style="fill:#09C0D7;fill:color(display-p3 0.0353 0.7529 0.8431);fill-opacity:1;"/>
<path d="M280.12 202.48L113.99 368.61H108.69L275.34 201.96C276.95 202.1 278.53 202.27 280.11 202.48H280.12Z" fill="#09C0D7" style="fill:#09C0D7;fill:color(display-p3 0.0353 0.7529 0.8431);fill-opacity:1;"/>
<path d="M250.3 202.82L87.5 365.62C86.7 364.36 86.33 362.83 86.56 361.26L243.78 204.04C245.94 203.56 248.11 203.15 250.3 202.82Z" fill="#09C0D7" style="fill:#09C0D7;fill:color(display-p3 0.0353 0.7529 0.8431);fill-opacity:1;"/>
<path d="M214.73 208.91L98.52 325.12L101.17 317.17L209.44 208.9H214.74L214.73 208.91Z" fill="#09C0D7" style="fill:#09C0D7;fill:color(display-p3 0.0353 0.7529 0.8431);fill-opacity:1;"/>
<path d="M185.25 208.91L113.28 280.88L115.94 272.92L179.95 208.91H185.25Z" fill="#09C0D7" style="fill:#09C0D7;fill:color(display-p3 0.0353 0.7529 0.8431);fill-opacity:1;"/>
<path d="M155.83 208.85L67.4299 297.25L60.3999 298.97L151.97 207.4C153.27 207.85 154.55 208.34 155.82 208.85H155.83Z" fill="#09C0D7" style="fill:#09C0D7;fill:color(display-p3 0.0353 0.7529 0.8431);fill-opacity:1;"/>
<path d="M132.55 202.64L39.7002 295.49L35.4902 294.4L127.82 202.07C129.41 202.22 130.98 202.41 132.55 202.63V202.64Z" fill="#09C0D7" style="fill:#09C0D7;fill:color(display-p3 0.0353 0.7529 0.8431);fill-opacity:1;"/>
<path d="M103.14 202.58L25.1499 280.56C25.3999 278.45 25.7199 276.36 26.1299 274.29L96.7199 203.69C98.8399 203.25 100.97 202.87 103.14 202.57V202.58Z" fill="#09C0D7" style="fill:#09C0D7;fill:color(display-p3 0.0353 0.7529 0.8431);fill-opacity:1;"/>
<path d="M297.5 361.93L290.81 368.61H285.51L296.37 357.75L297.17 360.13C297.37 360.73 297.48 361.34 297.5 361.93Z" fill="#09C0D7" style="fill:#09C0D7;fill:color(display-p3 0.0353 0.7529 0.8431);fill-opacity:1;"/>
<path d="M289 335.65L290.32 339.62L261.33 368.61H256.03L288.99 335.65H289Z" fill="#09C0D7" style="fill:#09C0D7;fill:color(display-p3 0.0353 0.7529 0.8431);fill-opacity:1;"/>
<path d="M357.5 272.45L331.44 298.51L325.92 299.87L325.02 299.64L356.48 268.18C356.86 269.6 357.21 271.02 357.5 272.46V272.45Z" fill="#09C0D7" style="fill:#09C0D7;fill:color(display-p3 0.0353 0.7529 0.8431);fill-opacity:1;"/>
<path d="M281.62 313.54L282.95 317.51L231.86 368.61H226.56L281.63 313.54H281.62Z" fill="#09C0D7" style="fill:#09C0D7;fill:color(display-p3 0.0353 0.7529 0.8431);fill-opacity:1;"/>
<path d="M349.8 250.66L305.75 294.71L301.53 293.63L347.94 247.23C348.59 248.35 349.21 249.5 349.8 250.66Z" fill="#09C0D7" style="fill:#09C0D7;fill:color(display-p3 0.0353 0.7529 0.8431);fill-opacity:1;"/>
<path d="M274.24 291.44L275.56 295.41L202.36 368.61H197.06L274.23 291.44H274.24Z" fill="#09C0D7" style="fill:#09C0D7;fill:color(display-p3 0.0353 0.7529 0.8431);fill-opacity:1;"/>
<path d="M337.92 233.06L290.84 280.13C290.23 279 289.54 277.93 288.74 276.93L335.4 230.27C336.28 231.18 337.12 232.11 337.92 233.05V233.06Z" fill="#09C0D7" style="fill:#09C0D7;fill:color(display-p3 0.0353 0.7529 0.8431);fill-opacity:1;"/>
<path d="M266.86 269.34L268.2 273.31L172.9 368.61H167.6L266.87 269.34H266.86Z" fill="#09C0D7" style="fill:#09C0D7;fill:color(display-p3 0.0353 0.7529 0.8431);fill-opacity:1;"/>
<path d="M322.5 219L273.36 268.14C271.85 267.84 270.27 267.65 268.63 267.57L319.34 216.86C320.41 217.54 321.46 218.26 322.5 219.01V219Z" fill="#09C0D7" style="fill:#09C0D7;fill:color(display-p3 0.0353 0.7529 0.8431);fill-opacity:1;"/>
<path d="M303.44 208.57L143.41 368.61H138.1L299.59 207.13C300.89 207.59 302.17 208.07 303.44 208.58V208.57Z" fill="#09C0D7" style="fill:#09C0D7;fill:color(display-p3 0.0353 0.7529 0.8431);fill-opacity:1;"/>
<path d="M272.55 248.96C263.21 245.34 238.98 237.49 212.1 246.57C203.94 249.32 197.26 253.06 192 256.68C186.74 253.06 180.06 249.32 171.9 246.57C145.02 237.5 120.79 245.35 111.45 248.96V256.92L191.65 270.93V271.05L192 270.99L192.35 271.05V270.93L272.55 256.92V248.96Z" fill="white" style="fill:white;fill-opacity:1;"/>
<path d="M276.92 248.3L270.92 249.29L268.34 250.77L265.45 250.19L252.21 252.37L249.67 254.14L246.79 253.26L230.98 255.87L228.33 257.71L225.36 256.8L213.32 258.78L209.68 260.07L206.29 259.95L192.01 262.31L171.08 258.86L167.6 259.89L163.6 257.62L146.49 254.8L144.07 256L141.85 254.04L126.15 251.45L124.12 252.37L121.12 250.62L107.08 248.3C106.12 248.14 105.2 248.43 104.52 248.99C103.81 249.57 104.29 252.76 104.29 253.76L103.36 264.72V284.42L103.75 300.52L103.36 312.57V369.37L191.99 383.99L280.64 369.37V330.01L279.68 326.24L280.64 320.88V261.52L280.12 257.7L280.64 252.41V251.45C280.64 249.47 278.87 247.97 276.92 248.29V248.3Z" fill="#FF6933" style="fill:#FF6933;fill:color(display-p3 1.0000 0.4118 0.2000);fill-opacity:1;"/>
<path d="M280.25 252.36C279.22 252.36 278.38 253.19 278.38 254.22C278.38 254.99 278.83 255.65 279.48 255.94C278.92 257.43 278.19 258.8 276.99 259.72C276.27 260.28 275.45 260.54 274.7 260.47C273.42 260.35 272.62 259.42 271.62 256.94C271 255.38 270.44 253.8 269.93 252.19C270.27 251.24 270.58 250.27 270.88 249.3L265.45 250.19C265.62 250.83 265.79 251.45 265.98 252.08C265.65 252.96 265.3 253.83 264.92 254.69C263.45 258.13 260.64 261.91 257.57 261.25C255.58 260.82 254.01 258.62 252.8 254.52C252.58 253.81 252.38 253.09 252.18 252.37L246.67 253.28L246.65 253.4C246.15 256.97 245.62 260.66 243.32 263.36C242.23 264.63 240.85 265.39 239.43 265.53C234.72 265.98 232.17 259.77 231.3 257.08C231.17 256.67 231.04 256.27 230.92 255.86L225.48 256.76C224.61 258.49 223.66 260.18 222.63 261.81C221.13 264.2 218.86 266.77 216.47 265.48C215.55 264.98 214.82 264.05 214.49 262.94C214.07 261.55 213.67 260.15 213.29 258.75L206.14 259.93C205.93 261.11 205.72 262.3 205.49 263.48C204.83 266.98 204.15 269.82 202.07 271.84C201.1 272.77 199.94 273.29 198.77 273.29C196.53 273.29 194.83 271.53 193.09 267.44C192.35 265.68 191.65 263.9 191 262.1L186.12 261.3L185.83 264.11C185.49 267.33 185.15 270.66 183.17 273.12C182.29 274.22 181.15 274.92 179.97 275.1C177.67 275.45 175.51 273.88 173.23 270.14C171.89 267.95 170.7 265.68 169.66 263.35C170.18 261.85 170.64 260.33 171.06 258.8L163.49 257.56C164.11 259.57 164.83 261.54 165.64 263.48C165.17 264.77 164.66 266.03 164.11 267.28C162.24 271.53 160.18 273.75 157.78 274.07C153.35 274.66 150.28 268.55 149.44 266.67C147.96 263.32 146.81 259.85 145.99 256.3C146.16 255.78 146.33 255.27 146.48 254.75L141.69 253.97C141.81 254.68 141.95 255.39 142.1 256.1C140.8 259.88 139.28 263.6 137.5 267.22C135.55 271.21 134.02 271.38 132.92 271.08C131.92 270.81 131.06 270.06 130.57 269C128.26 264.11 126.57 258.96 125.49 253.69C125.72 252.93 125.94 252.18 126.15 251.42L121.15 250.6C121.3 251.57 121.46 252.53 121.64 253.48C119.33 260.69 116.02 267.59 111.76 273.89C111.48 274.29 111.08 274.31 110.88 274.28C110.71 274.26 110.27 274.15 110.09 273.64C107.29 265.63 105.43 257.35 104.51 248.96C103.8 249.55 103.35 250.43 103.35 251.42V264.01C104.24 267.67 105.31 271.3 106.55 274.87C107.14 276.56 108.62 277.76 110.39 277.99C112.15 278.22 113.86 277.44 114.85 275.97C118.21 271 121.01 265.67 123.22 260.11C124.26 263.69 125.57 267.2 127.17 270.58C128.13 272.63 129.87 274.12 131.94 274.69C135.51 275.65 138.5 273.69 140.87 268.85C141.92 266.71 142.89 264.53 143.78 262.33C144.42 264.31 145.17 266.27 146.02 268.19C148.97 274.83 153.55 278.41 158.28 277.78C162.08 277.27 165.11 274.33 167.54 268.78C167.63 268.57 167.73 268.36 167.82 268.14C168.51 269.48 169.25 270.8 170.03 272.09C171.1 273.84 174.2 278.89 179.32 278.89C179.71 278.89 180.12 278.86 180.54 278.79C182.65 278.47 184.62 277.28 186.1 275.45C187.98 273.11 188.75 270.4 189.16 267.74C189.32 268.12 189.48 268.51 189.64 268.88C190.58 271.1 193.09 276.99 198.76 277.02C200.92 277.02 203 276.14 204.67 274.52C207.78 271.52 208.59 267.27 209.17 264.17C209.41 262.92 209.64 261.67 209.86 260.42C210.2 261.62 210.54 262.81 210.9 264C211.51 266.05 212.89 267.77 214.68 268.75C218.47 270.79 222.51 268.99 225.79 263.78C226.65 262.41 227.46 261.01 228.22 259.58C230.73 266.2 234.89 269.7 239.79 269.22C242.19 268.99 244.45 267.76 246.16 265.76C248.31 263.26 249.25 260.29 249.81 257.39C250.78 260.05 252.78 264 256.78 264.85C261.62 265.89 265.52 261.87 267.78 257.36C267.9 257.66 268.02 257.97 268.14 258.27C268.85 260.04 270.33 263.75 274.33 264.13C276.03 264.3 277.8 263.75 279.28 262.62C279.79 262.23 280.24 261.8 280.64 261.33V252.29H280.25V252.36Z" fill="#FF6933" style="fill:#FF6933;fill:color(display-p3 1.0000 0.4118 0.2000);fill-opacity:1;"/>
<path d="M103.91 353.11C103.72 353.08 103.54 353.07 103.36 353.09V369.38L103.93 369.48C104.13 364.72 104.63 359.97 105.44 355.27C105.62 354.25 104.93 353.28 103.91 353.11ZM128.13 352.91C127.99 352.07 127.3 351.43 126.44 351.35C125.59 351.27 124.8 351.79 124.52 352.59C122.26 358.93 120.92 365.54 120.49 372.2L124.21 372.81C124.4 369.63 124.8 366.46 125.43 363.33C125.55 366.54 125.47 369.77 125.19 372.98L128.9 373.59C129.51 366.7 129.26 359.74 128.12 352.91H128.13ZM150.57 353.49C150.5 352.66 149.86 351.97 149.04 351.82C148.22 351.67 147.4 352.09 147.02 352.84C143.53 359.96 141.5 367.72 140.92 375.58L144.62 376.19C144.94 371.5 145.82 366.83 147.24 362.35C147.26 367.08 146.92 371.8 146.23 376.46L149.93 377.07C151.07 369.3 151.29 361.39 150.57 353.5V353.49ZM170.27 353.88C169.84 352.52 168.63 351.62 167.2 351.61C165.79 351.57 164.52 352.49 164.06 353.82C161.29 361.88 160.16 370.41 160.63 378.83L164.41 379.45C163.89 371.74 164.79 363.89 167.14 356.44C169.4 364.17 170.3 372.31 169.85 380.35L173.56 380.97C174.11 371.84 173.03 362.59 170.26 353.88H170.27ZM192.59 355.34C191.43 353.67 189.79 352.79 187.96 352.88C185.94 352.97 183.94 354.27 182.84 356.2C181.72 358.17 181.55 360.36 181.48 362.44C181.26 369.12 181.7 375.85 182.79 382.47L186.69 383.11C185.49 376.32 185 369.41 185.23 362.55C185.28 360.95 185.39 359.28 186.09 358.04C186.55 357.24 187.41 356.64 188.13 356.6H188.21C188.45 356.6 188.96 356.67 189.51 357.46C190.02 358.19 190.24 359.15 190.14 360.14L187.73 383.27L191.44 383.88L193.87 360.52C194.06 358.63 193.6 356.79 192.59 355.32V355.34ZM213.41 351.21C210.17 349.58 206.35 351.65 204.83 354.61C203.51 357.18 203.59 360.06 203.78 362.77C204.24 369.1 205.04 375.41 206.17 381.66C208.11 381.34 210.2 380.99 212.4 380.63C213.5 371.42 214.18 362.17 214.43 352.93C214.45 352.2 214.05 351.54 213.4 351.21H213.41ZM209.1 376.51C208.39 371.87 207.86 367.19 207.52 362.5C207.35 360.21 207.28 358.03 208.16 356.32C208.64 355.4 209.67 354.58 210.65 354.42C210.41 361.78 209.9 369.15 209.11 376.51H209.1ZM234.25 347.82C234.06 347.06 233.41 346.5 232.62 346.42C231.84 346.34 231.08 346.77 230.74 347.48C226.2 357.16 224.15 367.94 224.67 378.61C225.9 378.4 227.14 378.2 228.39 378C228.06 370.12 229.22 362.18 231.82 354.75C232.94 362.27 232.7 370.04 231.19 377.54C232.5 377.32 233.81 377.11 235.12 376.9C236.87 367.26 236.62 357.25 234.25 347.83V347.82ZM253.93 347.83C253.08 346.74 251.91 346.07 250.55 345.91C249.11 345.74 247.77 346.17 246.68 347.14C244.58 348.99 243.82 352.47 243.8 355.1C243.76 361.85 244.25 368.57 245.26 375.22C247.83 374.79 250.36 374.38 252.81 373.97L255.36 355.97C255.53 354.72 255.95 350.44 253.94 347.83H253.93ZM251.64 355.45L248.94 374.54C247.97 368.12 247.51 361.63 247.54 355.12C247.55 352.93 248.23 350.75 249.15 349.94C249.4 349.72 249.64 349.62 249.94 349.62C249.99 349.62 250.05 349.62 250.11 349.62C250.47 349.67 250.72 349.82 250.96 350.12C251.68 351.06 251.96 353.2 251.64 355.45ZM270.24 344.41C269.99 343.64 269.28 343.14 268.47 343.14C267.67 343.14 266.96 343.66 266.7 344.42C263.72 353.31 262.51 362.85 263.03 372.3C264.32 372.08 265.56 371.88 266.74 371.68C266.4 365.03 266.98 358.33 268.47 351.88C269.91 358.17 270.4 364.69 269.93 371.15C271.31 370.93 272.57 370.72 273.73 370.53C274.24 361.7 273.09 352.77 270.24 344.42V344.41Z" fill="#09C0D7" style="fill:#09C0D7;fill:color(display-p3 0.0353 0.7529 0.8431);fill-opacity:1;"/>
<path d="M201.6 384H182.39C180.82 384 179.55 382.73 179.55 381.16V372.55L181.05 370.93L179.55 368.81V356.06L181.05 353.76L179.55 352.33V339.61L181.05 337.73L179.55 335.86V323.1L181.05 321.62L179.55 319.39V306.66L181.05 304.55L179.55 302.91V290.19L181.05 288.32L179.55 286.45V273.72L181.05 271.85L179.55 269.98V261.36C179.55 259.79 180.82 258.52 182.39 258.52H201.6C203.17 258.52 204.44 259.79 204.44 261.36V269.98L202.94 272.13L204.44 273.72V286.45L202.94 288.1L204.44 290.19V302.91L202.94 304.78L204.44 306.66V319.39L202.94 321.26L204.44 323.14V335.87L202.94 338.17L204.44 339.61V352.33L202.94 354.21L204.44 356.08V368.81L202.94 371.17L204.44 372.56V381.17C204.44 382.74 203.17 384.02 201.6 384.02V384Z" fill="#FFD257" style="fill:#FFD257;fill:color(display-p3 1.0000 0.8235 0.3412);fill-opacity:1;"/>
<path d="M204.45 368.8H179.55V372.55H204.45V368.8Z" fill="#FF9066" style="fill:#FF9066;fill:color(display-p3 1.0000 0.5647 0.4000);fill-opacity:1;"/>
<path d="M204.45 352.32H179.55V356.07H204.45V352.32Z" fill="#FF9066" style="fill:#FF9066;fill:color(display-p3 1.0000 0.5647 0.4000);fill-opacity:1;"/>
<path d="M204.45 335.86H179.55V339.6H204.45V335.86Z" fill="#FF9066" style="fill:#FF9066;fill:color(display-p3 1.0000 0.5647 0.4000);fill-opacity:1;"/>
<path d="M204.45 319.38H179.55V323.13H204.45V319.38Z" fill="#FF9066" style="fill:#FF9066;fill:color(display-p3 1.0000 0.5647 0.4000);fill-opacity:1;"/>
<path d="M204.45 302.91H179.55V306.66H204.45V302.91Z" fill="#FF9066" style="fill:#FF9066;fill:color(display-p3 1.0000 0.5647 0.4000);fill-opacity:1;"/>
<path d="M204.45 286.45H179.55V290.2H204.45V286.45Z" fill="#FF9066" style="fill:#FF9066;fill:color(display-p3 1.0000 0.5647 0.4000);fill-opacity:1;"/>
<path d="M204.45 269.97H179.55V273.71H204.45V269.97Z" fill="#FF9066" style="fill:#FF9066;fill:color(display-p3 1.0000 0.5647 0.4000);fill-opacity:1;"/>
<path d="M267.76 285.81L216.97 294.61C215.73 294.82 214.61 293.88 214.61 292.62V280.3C214.61 279.32 215.32 278.48 216.28 278.31L267.07 269.51C268.3 269.3 269.43 270.25 269.43 271.5V283.83C269.43 284.81 268.73 285.65 267.76 285.82V285.81Z" fill="#FFD257" style="fill:#FFD257;fill:color(display-p3 1.0000 0.8235 0.3412);fill-opacity:1;"/>
<path d="M293.59 291.6C293.59 294.21 293.59 301.13 275.24 308.29C247.92 318.95 205.3 315.4 205.3 315.4C200.71 315.4 196.99 319.12 196.99 323.71C196.99 328.3 200.71 332.02 205.3 332.02C200.71 332.02 196.99 335.74 196.99 340.33C196.99 344.92 200.71 348.64 205.3 348.64C200.71 348.64 196.99 352.36 196.99 356.95C196.99 361.54 200.71 365.26 205.3 365.26C200.71 365.26 196.99 368.98 196.99 373.57C196.99 378.16 200.71 381.88 205.3 381.88C205.3 381.88 257.12 385.43 297.2 370.45C313.72 364.28 327.26 355.87 337.46 345.46C351.89 330.73 359.52 312.09 359.52 291.58H293.6L293.59 291.6Z" fill="#A5614E" style="fill:#A5614E;fill:color(display-p3 0.6471 0.3804 0.3059);fill-opacity:1;"/>
<path d="M229.66 350.52H207.43C206.39 350.52 205.55 349.68 205.55 348.65C205.55 347.62 206.39 346.78 207.43 346.78H229.66C230.69 346.78 231.53 347.62 231.53 348.65C231.53 349.68 230.69 350.52 229.66 350.52Z" fill="black" style="fill:black;fill-opacity:1;"/>
<path d="M229.66 333.9H207.43C206.39 333.9 205.55 333.06 205.55 332.03C205.55 331 206.39 330.16 207.43 330.16H229.66C230.69 330.16 231.53 331 231.53 332.03C231.53 333.06 230.69 333.9 229.66 333.9Z" fill="black" style="fill:black;fill-opacity:1;"/>
<path d="M229.66 367.15H207.43C206.39 367.15 205.55 366.31 205.55 365.28C205.55 364.25 206.39 363.4 207.43 363.4H229.66C230.69 363.4 231.53 364.24 231.53 365.28C231.53 366.32 230.69 367.15 229.66 367.15Z" fill="black" style="fill:black;fill-opacity:1;"/>
<path d="M187.02 340.34C187.02 335.75 183.3 332.03 178.7 332.03C183.29 332.03 187.02 328.31 187.02 323.72C187.02 319.13 183.3 315.41 178.7 315.41C178.7 315.41 134.95 318.52 108.76 308.3C90.4102 301.14 90.4102 294.21 90.4102 291.61H24.4902C24.4902 312.13 32.1102 330.75 46.5402 345.49C56.7402 355.9 70.2802 364.31 86.8002 370.49C126.6 385.36 178.7 381.92 178.7 381.92C183.29 381.92 187.01 378.2 187.01 373.61C187.01 369.02 183.29 365.3 178.7 365.3C183.29 365.3 187.01 361.58 187.01 356.99C187.01 352.4 183.29 348.68 178.7 348.68C183.29 348.68 187.02 344.96 187.02 340.37V340.34Z" fill="#A5614E" style="fill:#A5614E;fill:color(display-p3 0.6471 0.3804 0.3059);fill-opacity:1;"/>
<path d="M176.57 350.52H154.34C153.3 350.52 152.47 349.68 152.47 348.65C152.47 347.62 153.31 346.78 154.34 346.78H176.57C177.6 346.78 178.45 347.62 178.45 348.65C178.45 349.68 177.61 350.52 176.57 350.52Z" fill="black" style="fill:black;fill-opacity:1;"/>
<path d="M176.57 333.9H154.34C153.3 333.9 152.47 333.06 152.47 332.03C152.47 331 153.31 330.16 154.34 330.16H176.57C177.6 330.16 178.45 331 178.45 332.03C178.45 333.06 177.61 333.9 176.57 333.9Z" fill="black" style="fill:black;fill-opacity:1;"/>
<path d="M176.57 367.15H154.34C153.3 367.15 152.47 366.31 152.47 365.28C152.47 364.25 153.31 363.4 154.34 363.4H176.57C177.6 363.4 178.45 364.24 178.45 365.28C178.45 366.32 177.61 367.15 176.57 367.15Z" fill="black" style="fill:black;fill-opacity:1;"/>
<path d="M313.3 43.29C313.3 19.38 293.92 0 270.01 0C248.52 0 230.69 15.66 227.31 36.2C216.26 32.34 204.4 30.24 192.03 30.24C179.66 30.24 167.8 32.35 156.75 36.2C153.37 15.66 135.54 0 114.05 0C90.1398 0 70.7598 19.38 70.7598 43.29C70.7598 62 82.6298 77.94 99.2498 83.99C90.2598 99.65 85.1198 117.8 85.1198 137.15C85.1198 196.2 298.95 196.2 298.95 137.15C298.95 117.8 293.81 99.65 284.82 83.99C301.44 77.94 313.31 62.01 313.31 43.29H313.3Z" fill="#332E25" style="fill:#332E25;fill:color(display-p3 0.2000 0.1804 0.1451);fill-opacity:1;"/>
<path d="M261.87 66.2299C300.45 104.81 300.45 167.35 261.87 205.93C223.29 244.51 160.75 244.51 122.17 205.93C83.5899 167.35 83.5899 104.8 122.17 66.2299C160.75 27.6499 223.29 27.6499 261.87 66.2299Z" fill="#A5614E" style="fill:#A5614E;fill:color(display-p3 0.6471 0.3804 0.3059);fill-opacity:1;"/>
<path d="M289.84 120.68C272.44 119.93 250.95 112.01 230.83 97.6198C212.68 84.6398 199.15 68.8798 192.03 54.0098C184.91 68.8898 171.37 84.6398 153.23 97.6198C133.11 112.01 111.62 119.93 94.2202 120.68C100.98 72.7098 142.2 35.7998 192.04 35.7998C241.88 35.7998 283.09 72.6998 289.84 120.68Z" fill="#332E25" style="fill:#332E25;fill:color(display-p3 0.2000 0.1804 0.1451);fill-opacity:1;"/>
<path d="M99.2499 85.8604C98.9199 85.8604 98.5899 85.7704 98.2899 85.5904C97.3999 85.0604 97.1099 83.9104 97.6399 83.0204C103.93 72.4604 111.83 63.0504 121.11 55.0404C131.47 46.1104 143.24 39.1704 156.11 34.4304C157.08 34.0704 158.16 34.5704 158.52 35.5404C158.87 36.5104 158.38 37.5904 157.41 37.9404C144.96 42.5304 133.57 49.2404 123.56 57.8804C114.58 65.6204 106.95 74.7204 100.86 84.9404C100.51 85.5304 99.8899 85.8504 99.2499 85.8504V85.8604Z" fill="#FF6933" style="fill:#FF6933;fill:color(display-p3 1.0000 0.4118 0.2000);fill-opacity:1;"/>
<path d="M284.23 85.8601C283.59 85.8601 282.97 85.5301 282.62 84.9401C276.54 74.7301 268.9 65.6301 259.92 57.8901C249.91 49.2501 238.52 42.5401 226.07 37.9501C225.1 37.5901 224.61 36.5201 224.96 35.5501C225.32 34.5801 226.4 34.0801 227.37 34.4401C240.24 39.1901 252.02 46.1201 262.37 55.0501C271.66 63.0601 279.55 72.4701 285.84 83.0301C286.37 83.9201 286.08 85.0701 285.19 85.6001C284.89 85.7801 284.56 85.8701 284.23 85.8701V85.8601Z" fill="#FF6933" style="fill:#FF6933;fill:color(display-p3 1.0000 0.4118 0.2000);fill-opacity:1;"/>
<path d="M155.73 116.06C156.45 119.56 150.53 123.75 142.49 125.42C134.45 127.08 127.35 125.6 126.62 122.1C125.89 118.6 131.82 114.41 139.86 112.74C147.9 111.07 155.01 112.56 155.73 116.06Z" fill="black" style="fill:black;fill-opacity:1;"/>
<path d="M257.43 122.09C258.16 118.59 252.23 114.4 244.19 112.73C236.15 111.06 229.05 112.55 228.32 116.05C227.6 119.55 233.52 123.74 241.56 125.41C249.6 127.08 256.71 125.59 257.43 122.09Z" fill="black" style="fill:black;fill-opacity:1;"/>
<path d="M234 133.15C244.97 128.31 257.79 133.28 262.63 144.25C265.25 150.2 264.99 156.67 262.45 162.14C260.33 166.77 256.55 170.66 251.53 172.88C240.87 177.59 228.43 172.99 223.31 162.61C223.16 162.35 223.04 162.08 222.91 161.78C218.07 150.81 223.04 138 234.01 133.16L234 133.15Z" fill="white" style="fill:white;fill-opacity:1;"/>
<path d="M234.21 151.86C244.87 147.15 257.31 151.75 262.43 162.13C260.31 166.76 256.53 170.65 251.51 172.87C240.85 177.58 228.41 172.98 223.29 162.6C225.41 157.97 229.18 154.08 234.2 151.86H234.21Z" fill="black" style="fill:black;fill-opacity:1;"/>
<path d="M132.51 133.15C143.48 128.31 156.3 133.28 161.13 144.25C163.75 150.2 163.49 156.67 160.95 162.14C158.83 166.77 155.06 170.66 150.04 172.88C139.38 177.59 126.94 172.99 121.82 162.61C121.67 162.35 121.55 162.08 121.42 161.78C116.58 150.81 121.55 138 132.52 133.16L132.51 133.15Z" fill="white" style="fill:white;fill-opacity:1;"/>
<path d="M132.73 151.86C143.4 147.15 155.84 151.75 160.95 162.13C158.83 166.76 155.06 170.65 150.04 172.87C139.38 177.58 126.94 172.98 121.82 162.6C123.94 157.97 127.71 154.08 132.73 151.86Z" fill="black" style="fill:black;fill-opacity:1;"/>
<path d="M323.57 138.44C326.76 151.97 318.39 165.52 304.86 168.71C291.33 171.91 277.78 163.53 274.58 150C271.39 136.47 279.76 122.92 293.29 119.72C306.82 116.52 320.37 124.9 323.57 138.43V138.44Z" fill="#A5614E" style="fill:#A5614E;fill:color(display-p3 0.6471 0.3804 0.3059);fill-opacity:1;"/>
<path d="M295.4 158.29C295.03 158.29 294.66 158.18 294.33 157.96C287.94 153.51 286.36 144.69 290.8 138.3C292.96 135.21 296.19 133.13 299.9 132.47C303.61 131.8 307.36 132.62 310.46 134.77C311.31 135.36 311.52 136.53 310.93 137.38C310.34 138.23 309.17 138.44 308.32 137.85C306.05 136.26 303.29 135.66 300.56 136.15C297.83 136.64 295.45 138.16 293.87 140.44C290.6 145.14 291.76 151.62 296.46 154.89C297.31 155.48 297.52 156.65 296.92 157.5C296.56 158.02 295.97 158.3 295.38 158.3L295.4 158.29Z" fill="black" style="fill:black;fill-opacity:1;"/>
<path d="M89.0099 119.4C102.73 121.63 112.05 134.56 109.82 148.27C107.59 161.99 94.6699 171.31 80.9399 169.08C67.2199 166.85 57.8999 153.92 60.1299 140.2C62.3599 126.48 75.2799 117.16 89.0099 119.39V119.4Z" fill="#A5614E" style="fill:#A5614E;fill:color(display-p3 0.6471 0.3804 0.3059);fill-opacity:1;"/>
<path d="M88.6602 158.29C88.0702 158.29 87.4802 158.01 87.1202 157.49C86.5302 156.64 86.7402 155.48 87.5802 154.88C92.2802 151.61 93.4402 145.13 90.1702 140.43C86.9002 135.73 80.4202 134.57 75.7202 137.84C74.8702 138.43 73.7002 138.22 73.1102 137.37C72.5202 136.52 72.7302 135.35 73.5802 134.76C79.9702 130.31 88.7902 131.9 93.2402 138.29C97.6902 144.69 96.1002 153.5 89.7102 157.95C89.3902 158.18 89.0102 158.29 88.6402 158.29H88.6602Z" fill="black" style="fill:black;fill-opacity:1;"/>
<path d="M192.03 177.27C186.36 177.27 181.75 173.49 181.75 168.85C181.75 164.21 186.36 160.43 192.03 160.43C197.7 160.43 202.31 164.21 202.31 168.85C202.31 173.49 197.7 177.27 192.03 177.27ZM192.03 164.18C188.49 164.18 185.5 166.32 185.5 168.86C185.5 171.4 188.49 173.53 192.03 173.53C195.57 173.53 198.56 171.39 198.56 168.86C198.56 166.33 195.57 164.18 192.03 164.18Z" fill="black" style="fill:black;fill-opacity:1;"/>
<path d="M172.72 182.64C170.25 182.64 168.45 184.93 168.95 187.35C171.13 198.1 180.64 206.19 192.03 206.19C203.42 206.19 212.93 198.1 215.11 187.35C215.6 184.93 213.81 182.64 211.34 182.64H172.73H172.72Z" fill="white" style="fill:white;fill-opacity:1;"/>
</g>
<defs>
<clipPath id="clip0_680_1888">
<rect width="384" height="384" fill="white" style="fill:white;fill-opacity:1;"/>
</clipPath>
</defs>
</svg>
