<svg width="384" height="384" viewBox="0 0 384 384" fill="none" xmlns="http://www.w3.org/2000/svg">
<g clip-path="url(#clip0_627_1445)">
<path d="M52.8812 28.4726L52.7056 354.616C52.7056 364.441 60.6606 372.409 70.4726 372.409L231.217 372.484C241.042 372.484 248.997 364.529 249.009 354.717L249.185 28.573C249.185 18.7484 241.23 10.7809 231.418 10.7809L70.6734 10.7056C60.8614 10.7056 52.8938 18.6606 52.8812 28.4726Z" fill="#8879E1" style="fill:#8879E1;fill:color(display-p3 0.5333 0.4745 0.8824);fill-opacity:1;"/>
<path d="M231.229 377.201L70.4724 377.126C64.4622 377.126 58.8159 374.78 54.5749 370.526C50.3339 366.273 47.9875 360.626 48.0001 354.616L48.1757 28.4723C48.1757 16.0755 58.2638 6 70.6606 6L231.417 6.07528C237.428 6.07528 243.074 8.42164 247.315 12.6627C251.569 16.9162 253.902 22.5625 253.89 28.5727L253.714 354.716C253.714 367.113 243.626 377.189 231.229 377.189V377.201ZM57.5862 28.4723L57.4106 354.616C57.4106 358.117 58.7657 361.392 61.2375 363.863C63.7094 366.335 66.9968 367.69 70.4849 367.703L231.229 367.778C238.444 367.778 244.316 361.919 244.316 354.716L244.492 28.5727C244.492 25.0845 243.137 21.7971 240.665 19.3253C238.193 16.8535 234.906 15.4984 231.417 15.4984L70.6731 15.4231C63.4584 15.4231 57.5862 21.2827 57.5862 28.4974V28.4723Z" fill="#412BC2" style="fill:#412BC2;fill:color(display-p3 0.2549 0.1686 0.7608);fill-opacity:1;"/>
<path d="M205.62 140.069C203.123 148.701 198.468 156.844 191.667 163.645C170.136 185.176 135.229 185.164 113.711 163.645C99.5697 149.504 94.7139 129.591 99.1556 111.486C99.3062 110.883 99.9335 110.519 100.536 110.683L105.254 111.937L152.695 124.66L180.312 123.983L205.633 140.056L205.62 140.069Z" fill="#FFE293" style="fill:#FFE293;fill:color(display-p3 1.0000 0.8863 0.5765);fill-opacity:1;"/>
<path d="M120.261 53.5543C120.7 53.4289 121.152 53.6923 121.265 54.119L122.607 59.1379L134.954 105.224C135.117 105.827 134.565 106.366 133.963 106.216L87.876 93.8565L82.8571 92.5139C82.4179 92.401 82.167 91.9493 82.2799 91.5101C84.7517 82.7521 89.4445 74.4833 96.333 67.5948C103.221 60.6938 111.503 56.0136 120.248 53.5418L120.261 53.5543Z" fill="#43CFE0" style="fill:#43CFE0;fill:color(display-p3 0.2627 0.8118 0.8784);fill-opacity:1;"/>
<path d="M191.668 85.6886C206.386 100.407 211.041 121.386 205.621 140.069L152.683 124.673L139.973 77.2317L138.706 72.5139C138.542 71.9116 138.906 71.2842 139.509 71.1336C157.614 66.6919 177.515 71.5477 191.668 85.6886Z" fill="#FF6933" style="fill:#FF6933;fill:color(display-p3 1.0000 0.4118 0.2000);fill-opacity:1;"/>
<path d="M199.949 241.652H101.929C95.3921 241.652 90.0972 236.357 90.0972 229.82C90.0972 223.283 95.3921 217.988 101.929 217.988H199.949C206.487 217.988 211.782 223.283 211.782 229.82C211.782 236.357 206.487 241.652 199.949 241.652Z" fill="black" style="fill:black;fill-opacity:1;"/>
<path d="M209.146 274.815H92.7442C91.4392 274.815 90.3853 273.761 90.3853 272.456C90.3853 271.151 91.4392 270.097 92.7442 270.097H209.146C210.451 270.097 211.505 271.151 211.505 272.456C211.505 273.761 210.451 274.815 209.146 274.815Z" fill="black" style="fill:black;fill-opacity:1;"/>
<path d="M209.146 301.052H92.7442C91.4392 301.052 90.3853 299.998 90.3853 298.693C90.3853 297.388 91.4392 296.334 92.7442 296.334H209.146C210.451 296.334 211.505 297.388 211.505 298.693C211.505 299.998 210.451 301.052 209.146 301.052Z" fill="black" style="fill:black;fill-opacity:1;"/>
<path d="M209.146 327.275H92.7442C91.4392 327.275 90.3853 326.221 90.3853 324.917C90.3853 323.612 91.4392 322.558 92.7442 322.558H209.146C210.451 322.558 211.505 323.612 211.505 324.917C211.505 326.221 210.451 327.275 209.146 327.275Z" fill="black" style="fill:black;fill-opacity:1;"/>
<path d="M65.6285 272.096C87.3933 277.231 100.875 299.044 95.7394 320.808C90.6043 342.571 68.7896 356.052 47.0248 350.904C25.26 345.769 11.7788 323.956 16.9264 302.192C22.0615 280.429 43.8762 266.948 65.641 272.096H65.6285Z" fill="#FFD76B" style="fill:#FFD76B;fill:color(display-p3 1.0000 0.8431 0.4196);fill-opacity:1;"/>
<path d="M76.5131 295.32C64.2678 283.985 56.3306 305.311 56.3306 305.311C56.3306 305.311 48.4057 283.985 36.1481 295.32C23.6065 306.93 50.2943 327.846 55.4788 331.72C55.9849 332.093 56.6762 332.093 57.1823 331.72C62.3668 327.846 89.0546 306.93 76.5131 295.32Z" fill="#412BC2" style="fill:#412BC2;fill:color(display-p3 0.2549 0.1686 0.7608);fill-opacity:1;"/>
<path d="M324.907 29H236.107C220.026 29 207 41.9645 207 57.9551C207 69.5593 213.848 79.5534 223.736 84.1756V105.871C223.736 107.759 226.037 108.717 227.376 107.37L247.864 86.9101H324.893C340.96 86.9101 354 73.9456 354 57.9412C354 41.9368 340.974 29 324.907 29Z" fill="#FFD76B" style="fill:#FFD76B;fill:color(display-p3 1.0000 0.8431 0.4196);fill-opacity:1;"/>
<path d="M315.292 51.4805L305.712 52.9449C305.022 53.0557 304.758 53.8925 305.26 54.3724L312.266 60.9194C312.467 61.104 312.555 61.387 312.517 61.6578L310.985 71.0351C310.872 71.712 311.613 72.2289 312.228 71.8966L320.753 67.3925C321.004 67.2571 321.293 67.2571 321.544 67.3925L330.169 71.7243C330.796 72.0443 331.512 71.5151 331.386 70.8382L329.641 61.4978C329.591 61.227 329.679 60.9563 329.88 60.7594L336.747 54.0525C337.249 53.5602 336.961 52.7234 336.258 52.6373L326.653 51.3697C326.377 51.3328 326.139 51.1728 326.013 50.9267L321.632 42.46C321.318 41.8446 320.414 41.8446 320.1 42.4723L315.907 51.0251C315.794 51.2713 315.543 51.4435 315.279 51.4805H315.292Z" fill="white" style="fill:white;fill-opacity:1;"/>
<path d="M275.958 51.4805L266.695 52.9449C266.027 53.0557 265.759 53.8925 266.258 54.3724L273.052 60.9194C273.247 61.104 273.332 61.387 273.295 61.6578L271.813 71.0351C271.703 71.712 272.42 72.2289 273.016 71.8966L281.269 67.3925C281.512 67.2571 281.792 67.2571 282.035 67.3925L290.386 71.7243C290.994 72.0443 291.686 71.5151 291.565 70.8382L289.875 61.4978C289.827 61.227 289.912 60.9563 290.106 60.7594L296.755 54.0525C297.241 53.5602 296.962 52.7234 296.281 52.6373L286.995 51.3697C286.727 51.3328 286.496 51.1728 286.375 50.9267L282.132 42.46C281.829 41.8446 280.953 41.8446 280.662 42.4723L276.602 51.0251C276.48 51.2713 276.249 51.4435 275.982 51.4805H275.958Z" fill="white" style="fill:white;fill-opacity:1;"/>
<path d="M236.285 51.4805L226.721 52.9449C226.018 53.0557 225.754 53.8925 226.269 54.3724L233.285 60.9194C233.486 61.104 233.574 61.387 233.536 61.6578L232.005 71.0351C231.892 71.712 232.632 72.2289 233.247 71.8966L241.77 67.3925C242.021 67.2571 242.309 67.2571 242.56 67.3925L251.183 71.7243C251.811 72.0443 252.526 71.5151 252.4 70.8382L250.656 61.4978C250.606 61.227 250.694 60.9563 250.894 60.7594L257.747 54.0525C258.249 53.5602 257.961 52.7234 257.258 52.6373L247.656 51.3697C247.38 51.3328 247.142 51.1728 247.016 50.9267L242.636 42.46C242.322 41.8446 241.418 41.8446 241.117 42.4723L236.925 51.0251C236.799 51.2713 236.561 51.4435 236.285 51.4805Z" fill="white" style="fill:white;fill-opacity:1;"/>
<path d="M352.37 144.18C352.37 161.4 338.41 175.37 321.18 175.37C303.95 175.37 290 161.41 290 144.18C290 126.95 303.96 113 321.18 113C338.4 113 352.37 126.96 352.37 144.18Z" fill="#43CFE0" style="fill:#43CFE0;fill:color(display-p3 0.2627 0.8118 0.8784);fill-opacity:1;"/>
<path d="M319.53 158.14C318.93 158.14 318.36 157.85 318 157.35L307.96 143.3C307.36 142.46 307.55 141.28 308.4 140.68C309.24 140.08 310.41 140.27 311.01 141.12L319.08 152.43L329.93 126.31C330.32 125.36 331.42 124.9 332.38 125.3C333.34 125.7 333.79 126.8 333.4 127.75L321.26 156.98C320.99 157.61 320.42 158.05 319.74 158.13C319.67 158.13 319.6 158.14 319.52 158.14H319.53Z" fill="black" style="fill:black;fill-opacity:1;"/>
<path d="M356.91 206.564C338.03 202.114 319.11 213.824 314.67 232.704C314.58 233.094 314.5 233.484 314.42 233.884C310.09 232.054 305.55 230.564 300.83 229.454C296.1 228.344 291.38 227.654 286.69 227.354C286.79 226.964 286.9 226.584 287 226.194C291.45 207.304 279.74 188.394 260.86 183.944C241.98 179.494 223.06 191.204 218.62 210.084C215.52 223.264 220.28 236.444 229.86 244.724C214.92 256.194 203.69 272.684 199.04 292.444C193.7 315.144 242.15 293.054 283.22 302.784C324.52 312.574 358.47 354.064 363.84 331.244C368.49 311.484 365.8 291.714 357.55 274.784C369.81 271.644 379.96 261.974 383.06 248.794C387.51 229.914 375.8 210.994 356.92 206.544L356.91 206.564Z" fill="black" style="fill:black;fill-opacity:1;"/>
<path d="M300.07 236.064C340.23 245.964 364.77 286.544 354.87 326.714C344.97 366.874 304.39 391.414 264.22 381.514C224.06 371.614 199.52 331.034 209.42 290.864C219.32 250.694 259.9 226.164 300.07 236.064Z" fill="#D9A08A" style="fill:#D9A08A;fill:color(display-p3 0.8510 0.6275 0.5412);fill-opacity:1;"/>
<path d="M358.71 316.444C345.83 312.094 331.54 302.254 319.24 288.194C307.35 274.604 299.63 259.684 296.78 246.654C288.42 257.054 274.85 266.954 258.15 273.814C240.72 280.974 223.4 283.384 209.88 281.444C223.09 245.374 261.47 224.034 299.8 233.064C338.12 242.084 362.96 278.294 358.71 316.454V316.444Z" fill="black" style="fill:black;fill-opacity:1;"/>
<path d="M307.84 299.223C306.7 301.683 310.34 305.803 315.99 308.433C321.63 311.063 327.13 311.193 328.28 308.733C329.42 306.273 325.78 302.153 320.14 299.523C314.5 296.903 308.99 296.763 307.85 299.223H307.84Z" fill="black" style="fill:black;fill-opacity:1;"/>
<path d="M240.9 288.164C240.98 285.454 246.08 283.394 252.3 283.554C258.52 283.724 263.51 286.054 263.44 288.764C263.36 291.474 258.26 293.534 252.04 293.374C245.82 293.204 240.83 290.874 240.9 288.164Z" fill="black" style="fill:black;fill-opacity:1;"/>
<path d="M249.44 327.015C241.4 331.245 231.44 328.165 227.2 320.125C227.08 319.905 226.98 319.705 226.9 319.495C230.64 320.425 249.37 304.405 245.61 296.475C250.06 297.535 254.03 300.425 256.32 304.795C260.56 312.835 257.47 322.785 249.43 327.025L249.44 327.015Z" fill="white" style="fill:white;fill-opacity:1;"/>
<path d="M238.42 318.074C234.74 320.014 230.65 320.424 226.9 319.494C223.14 311.564 226.27 302.014 234.09 297.894C237.77 295.954 241.86 295.544 245.61 296.474C249.36 304.404 246.24 313.964 238.41 318.084L238.42 318.074Z" fill="black" style="fill:black;fill-opacity:1;"/>
<path d="M324.34 344.644C316.3 348.884 306.34 345.784 302.11 337.754C301.99 337.524 301.89 337.324 301.81 337.124C305.56 338.044 324.28 322.024 320.53 314.094C324.98 315.154 328.95 318.054 331.25 322.414C335.48 330.454 332.39 340.414 324.35 344.644H324.34Z" fill="white" style="fill:white;fill-opacity:1;"/>
<path d="M313.32 335.694C309.64 337.644 305.55 338.044 301.8 337.124C298.05 329.194 301.18 319.634 308.99 315.514C312.67 313.574 316.76 313.174 320.51 314.094C324.26 322.024 321.13 331.574 313.31 335.694H313.32Z" fill="black" style="fill:black;fill-opacity:1;"/>
<path d="M277.18 339.904C276.42 339.904 275.66 339.814 274.89 339.634C272.82 339.144 271.01 338.044 269.79 336.524C268.48 334.894 267.97 332.904 268.41 331.054C269.28 327.374 273.59 325.224 278.03 326.264C280.1 326.744 281.91 327.854 283.13 329.374C284.44 331.004 284.95 332.994 284.51 334.844C284.08 336.684 282.74 338.244 280.83 339.124C279.71 339.634 278.46 339.894 277.17 339.894L277.18 339.904ZM275.76 329.804C273.95 329.804 272.41 330.634 272.11 331.924C271.89 332.884 272.42 333.724 272.75 334.144C273.43 334.994 274.53 335.644 275.76 335.934C276.99 336.224 278.26 336.134 279.25 335.674C279.74 335.444 280.59 334.934 280.82 333.974C281.05 333.014 280.52 332.174 280.18 331.754C279.5 330.904 278.4 330.254 277.17 329.964C276.69 329.854 276.22 329.804 275.76 329.804Z" fill="black" style="fill:black;fill-opacity:1;"/>
<path d="M276.06 351.234C274.8 351.234 273.52 351.084 272.26 350.794C267.99 349.784 264.36 347.174 262.05 343.434C259.74 339.704 259.02 335.294 260.03 331.014C260.27 329.994 261.28 329.364 262.31 329.604C263.33 329.844 263.97 330.864 263.72 331.884C262.95 335.174 263.5 338.564 265.27 341.434C267.05 344.304 269.84 346.314 273.13 347.084C276.42 347.864 279.81 347.304 282.68 345.534C285.56 343.754 287.56 340.964 288.34 337.674C288.58 336.654 289.6 336.024 290.62 336.264C291.64 336.504 292.28 337.524 292.03 338.554C291.02 342.824 288.41 346.454 284.68 348.764C282.05 350.394 279.08 351.224 276.06 351.224V351.234Z" fill="black" style="fill:black;fill-opacity:1;"/>
<path d="M209.23 278.654C218.92 282.794 223.42 294.014 219.28 303.704C215.14 313.394 203.92 317.894 194.23 313.754C184.54 309.614 180.04 298.394 184.19 288.704C188.33 279.014 199.54 274.514 209.24 278.664L209.23 278.654Z" fill="#D9A08A" style="fill:#D9A08A;fill:color(display-p3 0.8510 0.6275 0.5412);fill-opacity:1;"/>
<path d="M202.32 307.714C201.57 307.714 200.85 307.254 200.55 306.514C200.16 305.534 200.64 304.434 201.62 304.054C205.41 302.554 207.28 298.254 205.78 294.464C205.05 292.624 203.65 291.184 201.85 290.404C200.04 289.614 198.03 289.584 196.19 290.314C195.21 290.694 194.11 290.224 193.73 289.244C193.34 288.264 193.82 287.164 194.8 286.784C197.58 285.684 200.62 285.734 203.36 286.924C206.1 288.114 208.22 290.294 209.32 293.074C210.42 295.854 210.37 298.894 209.18 301.634C207.99 304.374 205.8 306.494 203.03 307.594C202.8 307.684 202.57 307.724 202.33 307.724L202.32 307.714Z" fill="black" style="fill:black;fill-opacity:1;"/>
<path d="M366.29 315.464C376.19 319.074 381.29 330.024 377.68 339.924C374.07 349.824 363.12 354.924 353.22 351.314C343.32 347.704 338.22 336.754 341.83 326.854C345.44 316.954 356.4 311.854 366.29 315.464Z" fill="#D9A08A" style="fill:#D9A08A;fill:color(display-p3 0.8510 0.6275 0.5412);fill-opacity:1;"/>
<path d="M354.92 343.644C354.4 343.644 353.88 343.434 353.51 343.014C349.39 338.424 349.77 331.334 354.36 327.214C358.95 323.094 366.04 323.474 370.16 328.064C370.86 328.844 370.8 330.044 370.02 330.744C369.24 331.444 368.04 331.384 367.34 330.604C364.62 327.574 359.93 327.324 356.9 330.044C353.87 332.764 353.61 337.444 356.34 340.484C357.04 341.264 356.98 342.464 356.2 343.164C355.84 343.494 355.38 343.654 354.93 343.654L354.92 343.644Z" fill="black" style="fill:black;fill-opacity:1;"/>
<path d="M112.74 193.84H14.71C6.59 193.84 0 187.25 0 179.13V144.33C0 136.21 6.59 129.62 14.71 129.62H112.74C120.86 129.62 127.45 136.21 127.45 144.33V179.13C127.45 187.25 120.86 193.84 112.74 193.84Z" fill="#FF9066" style="fill:#FF9066;fill:color(display-p3 1.0000 0.5647 0.4000);fill-opacity:1;"/>
<path d="M121.23 204.36L94.9702 175.96H127.45V201.92C127.45 205.18 123.45 206.75 121.23 204.35V204.36Z" fill="#FF9066" style="fill:#FF9066;fill:color(display-p3 1.0000 0.5647 0.4000);fill-opacity:1;"/>
<path d="M73.17 163.14C73.17 168.36 68.94 172.59 63.72 172.59C58.5 172.59 54.27 168.36 54.27 163.14C54.27 157.92 58.5 153.7 63.72 153.7C68.94 153.7 73.17 157.93 73.17 163.14Z" fill="black" style="fill:black;fill-opacity:1;"/>
<path d="M44.5702 163.14C44.5702 168.36 40.3402 172.59 35.1302 172.59C29.9202 172.59 25.6802 168.36 25.6802 163.14C25.6802 157.92 29.9102 153.7 35.1302 153.7C40.3502 153.7 44.5702 157.93 44.5702 163.14Z" fill="black" style="fill:black;fill-opacity:1;"/>
<path d="M101.76 163.14C101.76 168.36 97.5299 172.59 92.3099 172.59C87.0899 172.59 82.8599 168.36 82.8599 163.14C82.8599 157.92 87.0899 153.7 92.3099 153.7C97.5299 153.7 101.76 157.93 101.76 163.14Z" fill="black" style="fill:black;fill-opacity:1;"/>
</g>
<defs>
<clipPath id="clip0_627_1445">
<rect width="384" height="384" fill="white" style="fill:white;fill-opacity:1;"/>
</clipPath>
</defs>
</svg>
