<svg width="384" height="384" viewBox="0 0 384 384" fill="none" xmlns="http://www.w3.org/2000/svg">
<g clip-path="url(#clip0_621_2987)">
<path d="M241.36 311.41H181.13L181.58 310.2L180.77 309.32L179.52 302.19L179.93 300.16L178.8 298.09L176.58 285.48C176.21 283.41 174.4 281.91 172.31 281.91H161.22L159.18 280.65L157.12 281.91H146.05C143.94 281.91 142.13 283.41 141.78 285.48L139.55 298.09L138.44 299.93L138.83 302.2L137.6 309.2L136.34 310.14L137.2 311.42H76.98L78.96 302.2L80.67 300.17L79.84 298.09L84.02 278.56L86.41 276.42L84.9 274.45L92.28 239.99H226.1L228.03 249.03L230.02 261.37L232.13 268.25L233.45 274.45L232.88 276.95L234.33 278.56L238.5 298.09L237.99 300.09L239.38 302.2L241.35 311.42L241.36 311.41Z" fill="#FFCC40" style="fill:#FFCC40;fill:color(display-p3 1.0000 0.8000 0.2510);fill-opacity:1;"/>
<path d="M238.51 298.08H232.15V278.55H234.35L233.47 274.44H232.16V268.24L228.05 249.02V250.81H208.52V239.99H204.41V250.81H184.88V239.99H180.77V250.81H161.22V239.99H157.11V250.81H137.58V239.99H133.48V250.81H113.95V239.99H109.84V250.81H90.31V249.19L86.2 268.37V274.45H84.91L84.03 278.56H86.21V298.09H79.84L78.96 302.2H86.21V311.42H90.32V302.2H109.85V311.42H113.96V302.2H133.49V311.42H137.2L137.59 309.2V302.2H138.82L139.56 298.09H137.59V278.56H157.12V281.91H161.23V278.56H180.78V298.09H178.81L179.53 302.2H180.78V309.33L181.15 311.42H184.89V302.2H204.42V311.42H208.53V302.2H228.06V311.42H232.17V302.2H239.42L238.54 298.09L238.51 298.08ZM109.84 298.08H90.31V278.55H109.84V298.08ZM109.84 274.45H90.31V254.92H109.84V274.45ZM133.47 298.08H113.94V278.55H133.47V298.08ZM133.47 274.45H113.94V254.92H133.47V274.45ZM157.11 274.45H137.58V254.92H157.11V274.45ZM180.77 274.45H161.22V254.92H180.77V274.45ZM204.4 298.08H184.87V278.55H204.4V298.08ZM204.4 274.45H184.87V254.92H204.4V274.45ZM228.03 298.08H208.5V278.55H228.03V298.08ZM228.03 274.45H208.5V254.92H228.03V274.45Z" fill="#FFCC40" style="fill:#FFCC40;fill:color(display-p3 1.0000 0.8000 0.2510);fill-opacity:1;"/>
<path d="M108.98 359.79L127.11 370.41L125.46 381.81C125.27 383.07 124.2 384 122.92 384H53.4901C51.8801 384 50.6801 382.57 50.9701 380.99L52.9101 370.41L61.0701 365.99L108.98 359.79Z" fill="black" style="fill:black;fill-opacity:1;"/>
<path d="M76.9802 311.41L76.6502 312.94L70.5202 341.48L68.8702 349.07C60.9502 348.55 55.2102 354.42 54.8902 359.78C54.8702 359.78 52.9102 370.4 52.9102 370.4H127.11L128.66 359.78L131.88 341.47L136.91 312.93L137.18 311.4H76.9802V311.41Z" fill="#08A5B8" style="fill:#08A5B8;fill:color(display-p3 0.0314 0.6471 0.7216);fill-opacity:1;"/>
<path d="M82.6501 336.94C82.0601 335.97 80.7901 335.67 79.8301 336.27L75.4801 338.94L72.6101 336.46C71.7501 335.72 70.4601 335.81 69.7101 336.67C68.9701 337.53 69.0601 338.82 69.9201 339.56L71.8001 341.19L68.7101 343.09C67.7501 343.68 67.4401 344.95 68.0401 345.91C68.4301 346.54 69.1001 346.89 69.7901 346.89C70.1601 346.89 70.5301 346.79 70.8601 346.59L75.0601 344.01L78.5601 347.03C78.9501 347.37 79.4301 347.53 79.9001 347.53C80.4701 347.53 81.0501 347.29 81.4501 346.82C82.1901 345.96 82.0901 344.66 81.2401 343.93L78.7201 341.75L81.9601 339.76C82.9301 339.17 83.2301 337.9 82.6401 336.94H82.6501Z" fill="black" style="fill:black;fill-opacity:1;"/>
<path d="M86.59 319.86C86 318.89 84.73 318.59 83.77 319.19L79.42 321.86L76.55 319.38C75.7 318.64 74.4 318.73 73.65 319.59C72.91 320.45 73 321.74 73.86 322.48L75.74 324.1L72.65 326C71.69 326.59 71.39 327.86 71.98 328.82C72.37 329.45 73.04 329.8 73.73 329.8C74.1 329.8 74.47 329.7 74.8 329.5L79 326.92L82.5 329.94C82.89 330.28 83.37 330.44 83.84 330.44C84.41 330.44 84.99 330.2 85.39 329.73C86.13 328.87 86.04 327.57 85.18 326.83L82.67 324.66L85.91 322.67C86.88 322.08 87.18 320.81 86.59 319.85V319.86Z" fill="black" style="fill:black;fill-opacity:1;"/>
<path d="M126.55 352.83C116.85 352.83 108.97 360.72 108.97 370.41H113.07C113.07 362.98 119.11 356.94 126.54 356.94C127.42 356.94 128.28 357.02 129.11 357.19L129.83 353.15C128.76 352.94 127.67 352.84 126.55 352.84V352.83Z" fill="black" style="fill:black;fill-opacity:1;"/>
<path d="M214.9 359.79L191.27 370.41L192.92 381.81C193.12 383.07 194.18 384 195.46 384H264.88C266.49 384 267.7 382.57 267.4 380.99L265.46 370.41L246.17 359.79H214.89H214.9Z" fill="black" style="fill:black;fill-opacity:1;"/>
<path d="M241.39 311.41L241.72 312.94L247.86 341.48L249.51 349.07C257.44 348.55 263.18 354.42 263.49 359.78C263.51 359.78 265.47 370.4 265.47 370.4H191.27L189.72 359.78L186.5 341.47L181.47 312.93L181.2 311.4H241.4L241.39 311.41Z" fill="#08A5B8" style="fill:#08A5B8;fill:color(display-p3 0.0314 0.6471 0.7216);fill-opacity:1;"/>
<path d="M249.66 343.1L246.57 341.2L248.45 339.57C249.3 338.83 249.4 337.53 248.66 336.68C247.91 335.82 246.62 335.73 245.76 336.47L242.89 338.95L238.54 336.28C237.58 335.68 236.31 335.99 235.72 336.95C235.13 337.91 235.43 339.18 236.39 339.77L239.63 341.76L237.11 343.94C236.25 344.68 236.16 345.98 236.9 346.83C237.31 347.3 237.88 347.54 238.45 347.54C238.93 347.54 239.4 347.38 239.79 347.04L243.29 344.02L247.49 346.6C247.83 346.8 248.2 346.9 248.56 346.9C249.25 346.9 249.92 346.55 250.31 345.92C250.91 344.95 250.6 343.69 249.64 343.1H249.66Z" fill="black" style="fill:black;fill-opacity:1;"/>
<path d="M245.72 326.02L242.63 324.12L244.51 322.5C245.37 321.76 245.47 320.46 244.73 319.6C243.98 318.74 242.69 318.65 241.83 319.39L238.96 321.87L234.61 319.2C233.65 318.61 232.38 318.91 231.79 319.88C231.2 320.84 231.5 322.11 232.47 322.7L235.71 324.69L233.19 326.87C232.33 327.61 232.24 328.91 232.98 329.76C233.39 330.23 233.96 330.47 234.53 330.47C235.01 330.47 235.48 330.31 235.87 329.97L239.37 326.95L243.57 329.53C243.9 329.73 244.27 329.83 244.64 329.83C245.33 329.83 246 329.48 246.39 328.85C246.99 327.88 246.68 326.62 245.72 326.03V326.02Z" fill="black" style="fill:black;fill-opacity:1;"/>
<path d="M191.81 352.83C190.7 352.83 189.59 352.93 188.55 353.14L189.27 357.19C190.09 357.03 190.95 356.94 191.82 356.94C199.25 356.94 205.29 362.98 205.29 370.41H209.4C209.4 360.72 201.51 352.83 191.82 352.83H191.81Z" fill="black" style="fill:black;fill-opacity:1;"/>
<path d="M127.48 271.16C113.33 273.67 93.9899 274.22 77.5999 264.49C76.8999 264.08 76.2099 263.65 75.5299 263.2C60.5399 253.34 50.5399 237.84 48.0999 220.71C45.8199 204.84 50.15 188.45 60.0899 175.25C60.7699 174.33 61.4899 173.4 62.2499 172.5C73.8499 158.7 90.7299 150.34 108.66 149.58C108.88 149.56 109.13 149.54 109.36 149.54L109.38 150.23L110.96 198.8C105.21 198.98 101.64 202.25 100.01 204.16C98.57 205.89 97.59 207.79 97.11 209.7C96.76 211.06 96.68 212.41 96.86 213.7C97.31 216.85 99.47 219.94 102.63 222.04C103.49 222.61 104.72 223.27 106.27 223.79C106.72 223.95 107.19 224.08 107.7 224.18C109.69 224.65 112.08 224.76 114.74 224.04L127.47 271.16H127.48Z" fill="#FFB398" style="fill:#FFB398;fill:color(display-p3 1.0000 0.7020 0.5961);fill-opacity:1;"/>
<path d="M335.06 140.93C335.06 140.93 334.98 141.01 334.88 141.14C334.86 141.18 325.74 151.96 325.74 151.96C325.35 152.43 324.9 152.8 324.41 153.11C318.27 160.16 316.07 164.04 304.78 173.2C288.02 186.75 271.8 195.4 256.89 200.41C245.25 204.29 234.38 205.95 224.69 205.95C216.66 205.95 209.72 205.15 204.38 204.2C197.67 203.03 193.5 201.66 192.86 201.45L198.86 183.73L208.68 154.78C210.61 155.33 226.26 159.56 244.8 153.47C252.13 151.04 259.93 147 267.53 140.47C268.07 134.27 270.14 122.54 278.21 120.16C282.26 118.97 286.55 119.05 290.27 120L298.38 110.41C298.83 109.86 299.39 109.45 299.96 109.1C301.81 107.89 304.23 107.66 306.2 108.79C308.15 109.9 309.18 111.83 309.24 113.8C309.34 114.83 309.16 115.87 308.73 116.86C308.79 116.82 308.85 116.78 308.91 116.74C309.03 116.68 309.14 116.6 309.26 116.53C309.3 116.51 309.34 116.49 309.36 116.47C311.17 115.47 313.36 115.34 315.21 116.41C317.1 117.48 318.09 119.33 318.21 121.24C318.23 121.4 318.25 121.57 318.25 121.75C318.29 122.7 318.11 123.62 317.74 124.48C318.37 124.05 319.05 123.76 319.79 123.6C321.66 123.07 323.74 123.44 325.31 124.81C327.22 126.43 327.82 128.98 327.06 131.22C326.98 131.53 326.88 131.79 326.75 132.08C327.88 131.34 329.2 130.99 330.49 131.07C331.52 131.05 332.53 131.27 333.45 131.79C336.84 133.74 337.47 138.13 335.07 140.95L335.06 140.93Z" fill="#FFB398" style="fill:#FFB398;fill:color(display-p3 1.0000 0.7020 0.5961);fill-opacity:1;"/>
<path d="M317.11 146.89C316.68 148.43 317.11 150.07 318.36 151.14C318.75 151.47 319.16 151.69 319.61 151.88C319.86 151.94 320.08 152 320.31 152.04C321.07 152.37 321.58 153.11 321.58 153.95C321.58 155.12 320.66 156.04 319.49 156.07C319.14 156.01 318.81 155.93 318.51 155.82C317.52 155.49 316.56 154.98 315.72 154.26C313.97 152.8 312.97 150.73 312.8 148.57C310.67 148.77 308.45 148.14 306.7 146.66C304.95 145.18 303.95 143.13 303.79 140.95C301.63 141.17 299.43 140.52 297.69 139.04C296.54 138.06 295.74 136.83 295.27 135.49C293.09 135.65 290.77 135.47 288.88 135.2C289.33 138.02 289.74 142.43 289.02 146.89C288.86 147.89 287.99 148.61 286.99 148.61C286.89 148.61 286.79 148.61 286.66 148.59C285.55 148.41 284.79 147.36 284.98 146.23C286.01 139.8 284.28 133.25 284.28 133.17C284.1 132.49 284.28 131.75 284.78 131.22C285.27 130.7 285.99 130.48 286.69 130.65C292.4 131.88 297.7 131.53 298.05 130.38C299.14 126.83 295.4 123.99 291.89 122.64C290.82 122.23 290.29 121.04 290.7 119.99C291.11 118.92 292.28 118.41 293.35 118.8C296.43 119.99 298.77 121.68 300.31 123.65L306.08 116.81C306.82 115.95 308.11 115.84 308.97 116.56C309.83 117.3 309.94 118.59 309.22 119.45L302.24 127.72C302.47 128.97 302.38 130.27 301.99 131.56C301.56 132.96 300.59 133.9 299.32 134.52C299.55 135.04 299.89 135.53 300.35 135.92C301.69 137.03 303.55 137.17 305.05 136.31L315.09 124.42C315.83 123.56 317.12 123.44 317.98 124.17C318.84 124.91 318.94 126.2 318.23 127.06L308.17 138.97C307.6 140.59 308.03 142.38 309.36 143.51C310.75 144.68 312.71 144.82 314.25 143.84C314.29 143.8 314.35 143.8 314.39 143.78L324.23 132.12C324.95 131.26 326.24 131.16 327.12 131.9C327.98 132.62 328.08 133.91 327.37 134.77L317.21 146.8C317.21 146.8 317.15 146.84 317.13 146.88L317.11 146.89Z" fill="black" style="fill:black;fill-opacity:1;"/>
<path d="M224.69 205.94C234.38 205.94 245.24 204.28 256.89 200.4L244.8 153.46C226.26 159.56 210.61 155.33 208.6 154.73C208.68 154.77 108.9 149.8 108.66 149.57C90.7298 150.33 73.8498 158.69 62.2498 172.49C61.4898 173.39 60.7698 174.32 60.0898 175.24L97.1098 209.7C97.5698 207.82 98.5398 205.95 99.9398 204.25L92.2898 239.99H226.11L218.8 205.79C220.69 205.88 222.66 205.93 224.7 205.93L224.69 205.94Z" fill="#7562DD" style="fill:#7562DD;fill:color(display-p3 0.4588 0.3843 0.8667);fill-opacity:1;"/>
<path d="M99.0299 211.03C98.8799 211.03 98.7199 211.02 98.5699 210.98C97.4599 210.73 96.7699 209.63 97.0299 208.52L101.7 188.09C101.95 186.98 103.08 186.29 104.16 186.55C105.27 186.8 105.96 187.9 105.7 189.01L101.02 209.43C100.81 210.38 99.9599 211.03 99.0199 211.03H99.0299Z" fill="black" style="fill:black;fill-opacity:1;"/>
<path d="M218.72 207.54C217.77 207.54 216.92 206.88 216.71 205.92L212.39 185.71C212.15 184.6 212.86 183.51 213.97 183.27C215.07 183.02 216.17 183.74 216.41 184.85L220.73 205.06C220.97 206.17 220.26 207.26 219.15 207.5C219.01 207.53 218.86 207.54 218.72 207.54Z" fill="black" style="fill:black;fill-opacity:1;"/>
<path d="M262.88 35.81C262.88 16.03 246.85 0 227.07 0C208.84 0 193.83 13.63 191.58 31.25C181.76 26.91 170.91 24.49 159.49 24.49C148.07 24.49 137.21 26.92 127.39 31.26C125.14 13.63 110.12 0 91.8898 0C72.1198 0 56.0898 16.04 56.0898 35.81C56.0898 53.93 69.5598 68.86 87.0198 71.25C82.4998 81.24 79.9598 92.32 79.9598 104.01C79.9598 147.93 239.02 147.93 239.02 104.01C239.02 92.33 236.48 81.24 231.96 71.25C249.42 68.86 262.89 53.93 262.89 35.81H262.88Z" fill="#4C271C" style="fill:#4C271C;fill:color(display-p3 0.2980 0.1529 0.1098);fill-opacity:1;"/>
<path d="M211.71 57.4498C240.56 86.2998 240.56 133.06 211.71 161.91C182.87 190.75 136.1 190.75 107.25 161.91C78.3998 133.06 78.3998 86.2998 107.25 57.4498C136.09 28.6098 182.86 28.6098 211.71 57.4498Z" fill="#FFB398" style="fill:#FFB398;fill:color(display-p3 1.0000 0.7020 0.5961);fill-opacity:1;"/>
<path d="M180.61 115.23C180.61 106.81 187.43 99.97 195.85 99.96C200.42 99.96 204.51 101.96 207.3 105.14C209.68 107.81 201.91 112.22 201.92 116.07C201.92 124.26 204.66 130.09 196.53 130.44C196.32 130.46 196.12 130.46 195.89 130.46C187.47 130.46 180.63 123.65 180.62 115.22L180.61 115.23Z" fill="white" style="fill:white;fill-opacity:1;"/>
<path d="M192.71 120.39C192.71 112.2 199.18 105.5 207.3 105.14C209.68 107.81 211.12 111.34 211.12 115.19C211.13 123.39 204.65 130.08 196.53 130.44C194.15 127.76 192.72 124.24 192.71 120.38V120.39Z" fill="black" style="fill:black;fill-opacity:1;"/>
<path d="M107.84 115.32C107.83 106.9 114.65 100.06 123.07 100.05C127.64 100.05 131.73 102.05 134.52 105.23C136.9 107.9 128.08 113.94 128.08 117.8C128.09 125.99 131.87 130.18 123.75 130.53C123.54 130.55 123.33 130.55 123.1 130.56C114.68 130.56 107.84 123.74 107.83 115.32H107.84Z" fill="white" style="fill:white;fill-opacity:1;"/>
<path d="M119.94 120.48C119.93 112.29 126.4 105.59 134.53 105.23C136.91 107.9 138.34 111.43 138.35 115.28C138.36 123.47 131.89 130.17 123.76 130.53C121.38 127.86 119.95 124.33 119.94 120.48Z" fill="black" style="fill:black;fill-opacity:1;"/>
<path d="M210.95 95.3999C210.29 97.4499 206.11 97.9399 201.61 96.4999C197.11 95.0599 194 92.2299 194.66 90.1799C195.32 88.1299 199.5 87.6299 204 89.0699C208.5 90.5099 211.61 93.3399 210.95 95.3999Z" fill="#4C271C" style="fill:#4C271C;fill:color(display-p3 0.2980 0.1529 0.1098);fill-opacity:1;"/>
<path d="M108.02 95.52C108.68 97.57 112.86 98.06 117.35 96.6C121.84 95.15 124.95 92.31 124.29 90.26C123.63 88.21 119.45 87.73 114.95 89.18C110.46 90.63 107.35 93.47 108.02 95.52Z" fill="#4C271C" style="fill:#4C271C;fill:color(display-p3 0.2980 0.1529 0.1098);fill-opacity:1;"/>
<path d="M159.49 136.31C156.7 136.31 154.06 135.47 152.04 133.95C149.88 132.32 148.65 130 148.64 127.6C148.64 125.19 149.87 122.88 152.03 121.24C154.05 119.71 156.69 118.86 159.49 118.86C162.3 118.86 164.94 119.7 166.96 121.22C169.12 122.85 170.35 125.17 170.36 127.57C170.36 129.98 169.13 132.29 166.98 133.93C164.96 135.46 162.31 136.31 159.52 136.31H159.5H159.49ZM159.51 122.96C157.62 122.96 155.8 123.53 154.51 124.5C153.37 125.36 152.74 126.46 152.75 127.59C152.75 128.71 153.38 129.8 154.52 130.67C155.81 131.64 157.62 132.2 159.5 132.2C161.39 132.2 163.21 131.63 164.49 130.66C165.63 129.8 166.26 128.7 166.26 127.57C166.26 126.45 165.63 125.36 164.49 124.49C163.2 123.52 161.39 122.96 159.51 122.96Z" fill="black" style="fill:black;fill-opacity:1;"/>
<path d="M174.6 141.96C176.58 141.96 178.01 143.8 177.62 145.73C175.87 154.34 168.27 160.81 159.15 160.81C150.03 160.81 142.42 154.33 140.67 145.73C140.27 143.79 141.71 141.96 143.69 141.96H174.6Z" fill="white" style="fill:white;fill-opacity:1;"/>
<path d="M89.6498 71.1502C90.3798 71.1502 91.0798 70.7602 91.4298 70.0602C91.4298 70.0402 91.4898 69.9402 91.4998 69.9202C93.2998 66.1102 103.44 46.5202 126.93 35.1502C127.95 34.6602 128.38 33.4302 127.89 32.4102C127.39 31.3902 126.17 30.9602 125.15 31.4602C100.41 43.4302 89.6898 64.1402 87.7898 68.1702C87.3098 69.1902 87.7198 70.4402 88.7198 70.9402C89.0198 71.0802 89.3398 71.1502 89.6498 71.1502Z" fill="black" style="fill:black;fill-opacity:1;"/>
<path d="M230.29 71.1502C229.56 71.1502 228.86 70.7602 228.51 70.0602C228.51 70.0402 228.45 69.9402 228.44 69.9202C226.64 66.1102 216.5 46.5202 193.01 35.1502C191.99 34.6602 191.56 33.4302 192.05 32.4102C192.55 31.3902 193.77 30.9602 194.8 31.4602C219.53 43.4302 230.26 64.1402 232.15 68.1702C232.63 69.1902 232.23 70.4402 231.22 70.9402C230.92 71.0802 230.6 71.1502 230.29 71.1502Z" fill="black" style="fill:black;fill-opacity:1;"/>
<path d="M232.8 99.5898C225.06 98.4398 216.35 94.3298 208.59 87.6198C198.32 78.7498 192.37 67.5798 192.02 58.3998C186.35 66.1798 173.6 71.6198 158.75 71.6198C144.99 71.6198 133.02 66.9598 126.82 60.0798C125.86 68.9098 120.02 79.2798 110.37 87.6198C102.61 94.3298 93.9002 98.4398 86.1602 99.5898C90.6202 63.1198 121.68 34.8198 159.39 34.7798C197.15 34.7398 228.33 63.0398 232.8 99.5898Z" fill="#4C271C" style="fill:#4C271C;fill:color(display-p3 0.2980 0.1529 0.1098);fill-opacity:1;"/>
<path d="M87.6801 113.54C87.8401 118.94 83.5701 123.48 78.1501 123.66C76.9801 123.66 76.0801 122.78 76.0301 121.67C75.9901 120.54 76.8901 119.58 78.0201 119.56C81.1701 119.45 83.6501 116.81 83.5701 113.66C83.4601 110.56 80.9201 108.11 77.8401 108.11H77.5901C76.5001 108.11 75.5801 107.23 75.5501 106.12C75.5101 104.99 76.3901 104.05 77.5201 104.01H77.8301C83.1101 104.01 87.5001 108.22 87.6701 113.54H87.6801Z" fill="#FFB398" style="fill:#FFB398;fill:color(display-p3 1.0000 0.7020 0.5961);fill-opacity:1;"/>
<path d="M87.6801 113.54C87.8401 118.94 83.5701 123.48 78.1501 123.66C76.9801 123.66 76.0801 122.78 76.0301 121.67C75.9901 120.54 76.8901 119.58 78.0201 119.56C81.1701 119.45 83.6501 116.81 83.5701 113.66C83.4601 110.56 80.9201 108.11 77.8401 108.11H77.5901C76.5001 108.11 75.5801 107.23 75.5501 106.12C75.5101 104.99 76.3901 104.05 77.5201 104.01H77.8301C83.1101 104.01 87.5001 108.22 87.6701 113.54H87.6801Z" fill="black" style="fill:black;fill-opacity:1;"/>
<path d="M248.88 98.7899C257.08 102.63 260.61 112.38 256.77 120.58C252.93 128.78 243.18 132.31 234.98 128.47C226.79 124.63 223.25 114.88 227.09 106.68C230.93 98.4799 240.68 94.9499 248.88 98.7899Z" fill="#FFB398" style="fill:#FFB398;fill:color(display-p3 1.0000 0.7020 0.5961);fill-opacity:1;"/>
<path d="M240.87 123.66C238.18 123.57 235.75 122.48 233.95 120.57C232.15 118.66 231.21 116.16 231.29 113.53C231.37 110.91 232.47 108.48 234.38 106.68C236.29 104.88 238.74 103.95 241.41 104.02C242.54 104.06 243.43 105 243.4 106.14C243.37 107.27 242.41 108.19 241.28 108.13C239.77 108.08 238.3 108.63 237.19 109.68C236.08 110.72 235.44 112.14 235.39 113.67C235.34 115.2 235.89 116.65 236.93 117.76C237.98 118.87 239.4 119.51 240.92 119.56C242.05 119.6 242.94 120.54 242.91 121.67C242.88 122.78 241.97 123.66 240.86 123.66H240.87Z" fill="black" style="fill:black;fill-opacity:1;"/>
<path d="M249.57 128.12C248.24 128.84 246.78 129.37 245.24 129.68C246.74 130.71 247.72 132.45 247.72 134.43C247.72 137.63 245.11 140.22 241.91 140.22C238.71 140.22 236.12 137.63 236.12 134.43C236.12 132.46 237.1 130.71 238.6 129.68C239.53 129 240.68 128.61 241.91 128.61C243.06 128.61 243.96 127.68 243.96 126.56C243.96 125.44 243.06 124.51 241.91 124.51C238.83 124.51 236.1 125.92 234.27 128.12C232.85 129.82 232.01 132.04 232.01 134.42C232.01 139.88 236.44 144.31 241.91 144.31C247.38 144.31 251.83 139.88 251.83 134.42C251.83 132.04 250.99 129.82 249.57 128.12Z" fill="#FFCC40" style="fill:#FFCC40;fill:color(display-p3 1.0000 0.8000 0.2510);fill-opacity:1;"/>
<path d="M90.3301 104.06C95.6201 111.4 93.9501 121.64 86.6101 126.93C79.2601 132.22 69.0201 130.55 63.7401 123.21C58.4501 115.86 60.1201 105.62 67.4701 100.34C74.8101 95.0502 85.0501 96.7202 90.3401 104.07L90.3301 104.06Z" fill="#FFB398" style="fill:#FFB398;fill:color(display-p3 1.0000 0.7020 0.5961);fill-opacity:1;"/>
<path d="M78.0901 123.66C76.9901 123.66 76.0801 122.78 76.0401 121.67C76.0101 120.54 76.9001 119.59 78.0301 119.56C81.1801 119.46 83.6701 116.82 83.5601 113.67C83.4701 110.58 80.9201 108.13 77.8501 108.13C77.7701 108.13 77.6901 108.13 77.6001 108.13C76.5001 108.13 75.5901 107.25 75.5501 106.14C75.5101 105.01 76.4001 104.06 77.5401 104.02C77.6501 104.02 77.7501 104.02 77.8501 104.02C83.1301 104.02 87.5101 108.23 87.6701 113.54C87.8301 118.95 83.5601 123.49 78.1501 123.66C78.1301 123.66 78.1101 123.66 78.0801 123.66H78.0901Z" fill="black" style="fill:black;fill-opacity:1;"/>
<path d="M87.6801 113.54C87.8401 118.94 83.5701 123.48 78.1501 123.66C76.9801 123.66 76.0801 122.78 76.0301 121.67C75.9901 120.54 76.8901 119.58 78.0201 119.56C81.1701 119.45 83.6501 116.81 83.5701 113.66C83.4601 110.56 80.9201 108.11 77.8401 108.11H77.5901C76.5001 108.11 75.5801 107.23 75.5501 106.12C75.5101 104.99 76.3901 104.05 77.5201 104.01H77.8301C83.1101 104.01 87.5001 108.22 87.6701 113.54H87.6801Z" fill="#FFB398" style="fill:#FFB398;fill:color(display-p3 1.0000 0.7020 0.5961);fill-opacity:1;"/>
<path d="M87.6801 113.54C87.8401 118.94 83.5701 123.48 78.1501 123.66C76.9801 123.66 76.0801 122.78 76.0301 121.67C75.9901 120.54 76.8901 119.58 78.0201 119.56C81.1701 119.45 83.6501 116.81 83.5701 113.66C83.4601 110.56 80.9201 108.11 77.8401 108.11H77.5901C76.5001 108.11 75.5801 107.23 75.5501 106.12C75.5101 104.99 76.3901 104.05 77.5201 104.01H77.8301C83.1101 104.01 87.5001 108.22 87.6701 113.54H87.6801Z" fill="black" style="fill:black;fill-opacity:1;"/>
<path d="M77.5202 132.06C77.5202 137.52 73.0802 141.96 67.6002 141.96C62.1202 141.96 57.7002 137.53 57.7002 132.06C57.7002 129.68 58.5402 127.46 59.9602 125.75C60.9502 124.58 62.1802 123.62 63.6002 123C64.8102 122.45 66.1702 122.14 67.6002 122.14C68.7502 122.14 69.6502 123.07 69.6502 124.19C69.6502 125.31 68.7502 126.24 67.6002 126.24C67.2902 126.24 66.9802 126.26 66.6702 126.3C65.7902 126.46 64.9702 126.79 64.2902 127.31C62.7902 128.34 61.8102 130.08 61.8102 132.05C61.8102 135.25 64.4202 137.84 67.6002 137.84C70.7802 137.84 73.4102 135.25 73.4102 132.05C73.4102 131.1 73.1802 130.22 72.7902 129.44C73.3202 129.6 73.8802 129.73 74.4502 129.81C75.3902 129.95 76.3602 130.04 77.2802 129.99C77.4202 130.65 77.5102 131.34 77.5102 132.05L77.5202 132.06Z" fill="#08A5B8" style="fill:#08A5B8;fill:color(display-p3 0.0314 0.6471 0.7216);fill-opacity:1;"/>
<path d="M86.1598 134.42C86.1598 139.88 81.7298 144.31 76.2398 144.31C70.7498 144.31 66.3398 139.88 66.3398 134.42C66.3398 132.04 67.1798 129.82 68.5998 128.12C68.6898 128.04 68.7398 127.93 68.8498 127.85C70.6498 125.8 73.2798 124.51 76.2398 124.51C77.3898 124.51 78.2898 125.43 78.2898 126.56C78.2898 127.69 77.3798 128.61 76.2398 128.61C75.0998 128.61 74.0198 128.94 73.1398 129.56C73.0598 129.58 72.9998 129.64 72.9398 129.68C71.4398 130.71 70.4598 132.45 70.4598 134.43C70.4598 137.63 73.0698 140.22 76.2498 140.22C79.4298 140.22 82.0598 137.63 82.0598 134.43C82.0598 132.52 81.1298 130.84 79.7198 129.81C81.2598 129.56 82.7598 129.09 84.1298 128.41C85.3998 130.07 86.1598 132.17 86.1598 134.43V134.42Z" fill="#FFCC40" style="fill:#FFCC40;fill:color(display-p3 1.0000 0.8000 0.2510);fill-opacity:1;"/>
<path d="M190.976 255.818C177.217 268.648 156.486 267.737 147.751 270.734C145.865 271.378 144.282 270.503 143.553 268.405C140.411 259.353 127.121 244.064 128.676 225.563C131.305 194.238 165.887 196.643 169.255 221.225C190.699 208.7 213.97 234.39 190.974 255.823L190.976 255.818Z" fill="#F34100" style="fill:#F34100;fill:color(display-p3 0.9529 0.2549 0.0000);fill-opacity:1;"/>
<path d="M147.31 265.74C147.31 265.74 139.16 269.13 127.47 271.16C113.32 273.66 93.9798 274.22 77.5898 264.49C76.8898 264.08 76.1998 263.65 75.5198 263.2C60.5298 253.34 50.5298 237.84 48.0898 220.71L96.8598 213.71C97.3098 216.86 99.4698 219.95 102.63 222.05C103.49 222.62 104.73 223.28 106.27 223.8C106.72 223.96 107.19 224.09 107.71 224.19L115.12 211.05C116.74 208.16 120.4 207.15 123.27 208.77C126.14 210.39 127.17 214.05 125.55 216.93L122.08 223.07L134.42 219.62C137.6 218.74 140.91 220.6 141.79 223.79C142.67 226.97 140.83 230.28 137.64 231.16C140.82 230.28 144.13 232.13 145.01 235.31C145.9 238.49 144.05 241.8 140.86 242.71C144.04 241.8 147.35 243.67 148.23 246.86C149.11 250.04 147.26 253.35 144.08 254.23C147.26 253.35 150.57 255.19 151.45 258.38C152.33 261.56 150.49 264.87 147.3 265.77L147.31 265.74Z" fill="#FFB398" style="fill:#FFB398;fill:color(display-p3 1.0000 0.7020 0.5961);fill-opacity:1;"/>
<path d="M129.42 260.36C128.52 260.36 127.7 259.77 127.44 258.86C127.14 257.77 127.77 256.64 128.86 256.33L142.02 252.65C143.12 252.35 144.25 252.98 144.55 254.07C144.85 255.16 144.22 256.29 143.13 256.6L129.97 260.28C129.78 260.33 129.6 260.36 129.41 260.36H129.42Z" fill="black" style="fill:black;fill-opacity:1;"/>
<path d="M126.2 248.85C125.3 248.85 124.48 248.26 124.22 247.35C123.91 246.26 124.55 245.13 125.65 244.82L138.81 241.14C139.89 240.84 141.04 241.47 141.34 242.57C141.64 243.66 141 244.79 139.91 245.1L126.75 248.78C126.57 248.83 126.38 248.86 126.19 248.86L126.2 248.85Z" fill="black" style="fill:black;fill-opacity:1;"/>
<path d="M122.99 237.35C122.09 237.35 121.27 236.76 121.01 235.85C120.7 234.76 121.34 233.63 122.43 233.32L135.59 229.64C136.69 229.33 137.81 229.97 138.12 231.07C138.42 232.16 137.79 233.29 136.7 233.6L123.54 237.28C123.35 237.33 123.17 237.36 122.98 237.36L122.99 237.35Z" fill="black" style="fill:black;fill-opacity:1;"/>
</g>
<defs>
<clipPath id="clip0_621_2987">
<rect width="384" height="384" fill="white" style="fill:white;fill-opacity:1;"/>
</clipPath>
</defs>
</svg>
