<svg width="384" height="384" viewBox="0 0 384 384" fill="none" xmlns="http://www.w3.org/2000/svg">
<g clip-path="url(#clip0_621_3181)">
<path d="M217.56 172.53L213.7 173.97L92.1001 52.3799H97.4001L217.56 172.54V172.53Z" fill="#26C8DC" style="fill:#26C8DC;fill:color(display-p3 0.1490 0.7843 0.8627);fill-opacity:1;"/>
<path d="M147.89 165.27L139.56 162.23L29.96 52.6401C30.86 52.4601 31.79 52.3701 32.73 52.3701H35L147.89 165.26V165.27Z" fill="#26C8DC" style="fill:#26C8DC;fill:color(display-p3 0.1490 0.7843 0.8627);fill-opacity:1;"/>
<path d="M98.81 147.39L90.46 144.34L18 71.8801V67.1301C18 66.9501 18 66.7701 18.01 66.6001L98.8 147.39H98.81Z" fill="#26C8DC" style="fill:#26C8DC;fill:color(display-p3 0.1490 0.7843 0.8627);fill-opacity:1;"/>
<path d="M49.72 129.5L41.37 126.45L18 103.08V97.7798L49.72 129.5Z" fill="#26C8DC" style="fill:#26C8DC;fill:color(display-p3 0.1490 0.7843 0.8627);fill-opacity:1;"/>
<path d="M363.18 68.6099V73.9099L341.65 52.3799H346.95L363.18 68.6099Z" fill="#26C8DC" style="fill:#26C8DC;fill:color(display-p3 0.1490 0.7843 0.8627);fill-opacity:1;"/>
<path d="M363.18 99.8001V105.1L310.45 52.3701H315.75L363.18 99.8001Z" fill="#26C8DC" style="fill:#26C8DC;fill:color(display-p3 0.1490 0.7843 0.8627);fill-opacity:1;"/>
<path d="M353.68 121.5L349.82 122.95L279.25 52.3701H284.56L353.69 121.5H353.68Z" fill="#26C8DC" style="fill:#26C8DC;fill:color(display-p3 0.1490 0.7843 0.8627);fill-opacity:1;"/>
<path d="M330.98 130.01L327.12 131.46L248.04 52.3799H253.35L330.98 130.01Z" fill="#26C8DC" style="fill:#26C8DC;fill:color(display-p3 0.1490 0.7843 0.8627);fill-opacity:1;"/>
<path d="M308.29 138.52L304.43 139.97L216.84 52.3799H222.14L308.28 138.52H308.29Z" fill="#26C8DC" style="fill:#26C8DC;fill:color(display-p3 0.1490 0.7843 0.8627);fill-opacity:1;"/>
<path d="M262.9 155.54L259.04 156.98L154.43 52.3799H159.74L262.9 155.54Z" fill="#26C8DC" style="fill:#26C8DC;fill:color(display-p3 0.1490 0.7843 0.8627);fill-opacity:1;"/>
<path d="M363.18 67.1201V68.6001L361.72 70.4801L363.18 73.8901V99.8001L361.15 101.27L363.18 105.1V117.93L193.04 181.71L18 117.94V103.08L19.48 101.56L18 97.7901V71.8901L19.36 69.9501C19.36 69.9501 18 66.7801 18.01 66.6201C18.25 59.6401 23.33 53.8901 29.99 52.6401C30.75 52.5001 32.83 54.1001 32.96 54.1001L34.99 52.3901H92.1L95.47 53.7201L97.4 52.3901H154.43L157.64 53.8401L159.74 52.3901H185.64L187.75 53.1801L188.85 52.3901H216.83L220.2 53.8901L222.13 52.3901H248.03L251.41 53.5101L253.34 52.3901H279.23L282.05 53.7001L284.54 52.3901H310.44L314.03 53.5601L315.74 52.3901H341.85L345.06 53.8901L346.95 52.3901H348.45C356.58 52.3901 363.17 59.0001 363.17 67.1401L363.18 67.1201Z" fill="#26C8DC" style="fill:#26C8DC;fill:color(display-p3 0.1490 0.7843 0.8627);fill-opacity:1;"/>
<path d="M363.18 117.94V313.82C363.18 321.96 356.59 328.57 348.46 328.57H32.7303C24.6003 328.57 18.0103 321.96 18.0103 313.82V117.94H363.19H363.18Z" fill="#FFD76B" style="fill:#FFD76B;fill:color(display-p3 1.0000 0.8431 0.4196);fill-opacity:1;"/>
<path d="M191.26 80.22C188.3 80.22 185.91 77.82 185.91 74.86V29.36C185.91 26.4 188.31 24 191.26 24C194.21 24 196.62 26.4 196.62 29.36V74.86C196.62 77.82 194.23 80.22 191.26 80.22Z" fill="#08A5B8" style="fill:#08A5B8;fill:color(display-p3 0.0314 0.6471 0.7216);fill-opacity:1;"/>
<path d="M127.33 80.22C124.37 80.22 121.97 77.82 121.97 74.86V29.36C121.97 26.4 124.37 24 127.33 24C130.29 24 132.69 26.4 132.69 29.36V74.86C132.69 77.82 130.29 80.22 127.33 80.22Z" fill="#08A5B8" style="fill:#08A5B8;fill:color(display-p3 0.0314 0.6471 0.7216);fill-opacity:1;"/>
<path d="M63.4 80.22C60.44 80.22 58.04 77.82 58.04 74.86V29.36C58.04 26.4 60.44 24 63.4 24C66.36 24 68.76 26.4 68.76 29.36V74.86C68.76 77.82 66.36 80.22 63.4 80.22Z" fill="#08A5B8" style="fill:#08A5B8;fill:color(display-p3 0.0314 0.6471 0.7216);fill-opacity:1;"/>
<path d="M319.11 80.22C316.15 80.22 313.75 77.82 313.75 74.86V29.36C313.75 26.4 316.14 24 319.11 24C322.08 24 324.47 26.4 324.47 29.36V74.86C324.47 77.82 322.07 80.22 319.11 80.22Z" fill="#08A5B8" style="fill:#08A5B8;fill:color(display-p3 0.0314 0.6471 0.7216);fill-opacity:1;"/>
<path d="M255.18 80.22C252.22 80.22 249.82 77.82 249.82 74.86V29.36C249.82 26.4 252.22 24 255.18 24C258.14 24 260.54 26.4 260.54 29.36V74.86C260.54 77.82 258.14 80.22 255.18 80.22Z" fill="#08A5B8" style="fill:#08A5B8;fill:color(display-p3 0.0314 0.6471 0.7216);fill-opacity:1;"/>
<path d="M212.462 182.785H169.899V220.267H212.462V182.785Z" fill="#FF571A" style="fill:#FF571A;fill:color(display-p3 1.0000 0.3412 0.1020);fill-opacity:1;"/>
<path d="M254.357 144.749H211.783V182.231H254.357V144.749Z" fill="#FF571A" style="fill:#FF571A;fill:color(display-p3 1.0000 0.3412 0.1020);fill-opacity:1;"/>
<path d="M296.79 144.749H254.228V182.231H296.79V144.749Z" fill="#FF571A" style="fill:#FF571A;fill:color(display-p3 1.0000 0.3412 0.1020);fill-opacity:1;"/>
<path d="M127.326 182.231H84.7632V219.714H127.326V182.231Z" fill="#FF571A" style="fill:#FF571A;fill:color(display-p3 1.0000 0.3412 0.1020);fill-opacity:1;"/>
<path d="M340.173 140.582H42.2007C40.9833 140.582 40 141.565 40 142.782V300.799C40 302.005 40.9833 303 42.2007 303C42.5285 303 42.8328 302.93 43.102 302.801H339.26C339.529 302.93 339.845 303 340.161 303C341.378 303 342.362 302.017 342.362 300.799V142.771C342.362 141.553 341.378 140.57 340.161 140.57L340.173 140.582ZM252.835 219.491H214.663V184.42H252.835V219.491ZM257.225 184.42H295.41V219.491H257.225V184.42ZM210.273 219.491H172.1V184.42H210.273V219.491ZM167.699 219.491H129.515V184.42H167.699V219.491ZM125.137 219.491H86.9638V184.42H125.137V219.491ZM82.5624 219.491H44.3897V184.42H82.5624V219.491ZM82.5624 223.88V258.951H44.3897V223.88H82.5624ZM86.9521 223.88H125.125V258.951H86.9521V223.88ZM129.526 223.88H167.711V258.951H129.526V223.88ZM172.089 223.88H210.261V258.951H172.089V223.88ZM214.663 223.88H252.835V258.951H214.663V223.88ZM257.225 223.88H295.41V258.951H257.225V223.88ZM299.799 223.88H337.972V258.951H299.799V223.88ZM299.799 219.491V184.42H337.972V219.491H299.799ZM299.799 180.03V144.971H337.972V180.03H299.799ZM295.41 180.03H257.225V144.971H295.41V180.03ZM252.835 180.03H214.663V144.971H252.835V180.03ZM210.273 180.03H172.1V144.971H210.273V180.03ZM167.699 180.03H129.515V144.971H167.699V180.03ZM125.137 180.03H86.9638V144.971H125.137V180.03ZM82.5624 180.03H44.3897V144.971H82.5624V180.03ZM44.3897 263.341H82.5624V298.4H44.3897V263.341ZM86.9521 263.341H125.125V298.4H86.9521V263.341ZM129.526 263.341H167.711V298.4H129.526V263.341ZM172.089 263.341H210.261V298.4H172.089V263.341ZM214.663 263.341H252.835V298.4H214.663V263.341ZM257.225 263.341H295.41V298.4H257.225V263.341ZM299.799 263.341H337.972V298.4H299.799V263.341Z" fill="#735400" style="fill:#735400;fill:color(display-p3 0.4510 0.3294 0.0000);fill-opacity:1;"/>
<path d="M382.87 317.423L313.915 219.053L296.369 193.664C291.875 186.851 282.714 184.93 275.891 189.452C270.213 193.189 267.972 200.167 269.961 206.329C265.448 199.575 256.335 197.702 249.551 202.195C243.262 206.339 241.186 214.453 244.417 221.033C239.885 214.346 230.82 212.492 224.066 216.976C219.64 219.887 217.311 224.769 217.427 229.709L200.521 204.039C196.037 197.216 186.856 195.304 180.043 199.827C173.231 204.311 171.338 213.482 175.831 220.295L216.311 281.767L218.485 285.096L222.561 328.4C224.095 337.882 229.675 346.228 237.866 351.265L273.377 369.035L282.054 382.292C283.48 384.476 286.402 385.107 288.605 383.7L381.56 324.159C383.841 322.703 384.442 319.636 382.889 317.423H382.87Z" fill="#774030" style="fill:#774030;fill:color(display-p3 0.4667 0.2510 0.1882);fill-opacity:1;"/>
<path d="M236.226 260.475C235.644 260.475 235.062 260.193 234.712 259.669L219.165 236.396C218.612 235.562 218.835 234.436 219.67 233.873C220.504 233.32 221.63 233.543 222.193 234.378L237.74 257.65C238.294 258.485 238.07 259.611 237.236 260.174C236.925 260.377 236.576 260.484 236.226 260.484V260.475Z" fill="black" style="fill:black;fill-opacity:1;"/>
<path d="M261.217 245.111C260.635 245.111 260.053 244.83 259.703 244.306L244.156 221.033C243.602 220.198 243.826 219.063 244.66 218.509C245.495 217.947 246.621 218.18 247.184 219.004L262.731 242.277C263.294 243.112 263.061 244.238 262.226 244.801C261.916 245.004 261.567 245.101 261.217 245.101V245.111Z" fill="black" style="fill:black;fill-opacity:1;"/>
<path d="M287.634 231.117C287.042 231.117 286.47 230.835 286.12 230.301L270.573 207.029C270.019 206.194 270.243 205.058 271.077 204.505C271.912 203.952 273.038 204.175 273.601 205L289.148 228.273C289.701 229.108 289.478 230.233 288.643 230.796C288.333 231 287.983 231.107 287.634 231.107V231.117Z" fill="black" style="fill:black;fill-opacity:1;"/>
<path d="M248.416 331.554C247.814 331.554 247.212 331.253 246.873 330.7L220.252 288.173C219.718 287.319 219.97 286.202 220.824 285.669C221.669 285.135 222.804 285.387 223.338 286.241L249.959 328.769C250.493 329.623 250.231 330.749 249.377 331.283C249.076 331.467 248.746 331.564 248.416 331.564V331.554Z" fill="black" style="fill:black;fill-opacity:1;"/>
<path d="M180.74 153.84H82.71C74.59 153.84 68 147.25 68 139.13V104.33C68 96.2101 74.59 89.6201 82.71 89.6201H180.74C188.86 89.6201 195.45 96.2101 195.45 104.33V139.13C195.45 147.25 188.86 153.84 180.74 153.84Z" fill="#614CD8" style="fill:#614CD8;fill:color(display-p3 0.3804 0.2980 0.8471);fill-opacity:1;"/>
<path d="M189.23 164.36L162.97 135.96H195.45V161.92C195.45 165.18 191.45 166.75 189.23 164.35V164.36Z" fill="#614CD8" style="fill:#614CD8;fill:color(display-p3 0.3804 0.2980 0.8471);fill-opacity:1;"/>
<path d="M141.17 123.14C141.17 128.36 136.94 132.59 131.72 132.59C126.5 132.59 122.27 128.36 122.27 123.14C122.27 117.92 126.5 113.7 131.72 113.7C136.94 113.7 141.17 117.93 141.17 123.14Z" fill="#EBE9FA" style="fill:#EBE9FA;fill:color(display-p3 0.9216 0.9137 0.9804);fill-opacity:1;"/>
<path d="M112.57 123.14C112.57 128.36 108.34 132.59 103.13 132.59C97.9197 132.59 93.6797 128.36 93.6797 123.14C93.6797 117.92 97.9097 113.7 103.13 113.7C108.35 113.7 112.57 117.93 112.57 123.14Z" fill="#EBE9FA" style="fill:#EBE9FA;fill:color(display-p3 0.9216 0.9137 0.9804);fill-opacity:1;"/>
<path d="M169.76 123.14C169.76 128.36 165.53 132.59 160.31 132.59C155.09 132.59 150.86 128.36 150.86 123.14C150.86 117.92 155.09 113.7 160.31 113.7C165.53 113.7 169.76 117.93 169.76 123.14Z" fill="#EBE9FA" style="fill:#EBE9FA;fill:color(display-p3 0.9216 0.9137 0.9804);fill-opacity:1;"/>
<path d="M131.13 318.69C131.13 354.97 101.77 384.38 65.57 384.38C29.37 384.38 0 354.97 0 318.69C0 282.41 29.36 253 65.57 253C101.78 253 131.13 282.41 131.13 318.69Z" fill="#FF571A" style="fill:#FF571A;fill:color(display-p3 1.0000 0.3412 0.1020);fill-opacity:1;"/>
<path d="M111.93 318.69C111.93 344.35 91.17 365.14 65.57 365.14C39.97 365.14 19.21 344.34 19.21 318.69C19.21 293.04 39.97 272.24 65.57 272.24C91.17 272.24 111.93 293.04 111.93 318.69Z" fill="white" style="fill:white;fill-opacity:1;"/>
<path d="M40.8103 329.74C38.1703 329.74 35.8603 327.78 35.5103 325.09C35.1203 322.16 37.1803 319.47 40.1203 319.07L62.9003 316.05L74.4903 291.14C75.7403 288.46 78.9203 287.3 81.6103 288.55C84.2903 289.8 85.4503 292.98 84.2003 295.67L71.3703 323.24C70.6003 324.9 69.0303 326.05 67.2203 326.29L41.5303 329.7C41.2903 329.73 41.0503 329.75 40.8203 329.75L40.8103 329.74Z" fill="black" style="fill:black;fill-opacity:1;"/>
</g>
<defs>
<clipPath id="clip0_621_3181">
<rect width="384" height="384" fill="white" style="fill:white;fill-opacity:1;"/>
</clipPath>
</defs>
</svg>
