<svg width="384" height="384" viewBox="0 0 384 384" fill="none" xmlns="http://www.w3.org/2000/svg">
<g clip-path="url(#clip0_633_2528)">
<path d="M0.564844 72.4072C0.513516 72.5184 0.470742 72.6296 0.436523 72.758C0.470742 72.6382 0.513516 72.527 0.556289 72.4072H0.564844Z" fill="#FF9B77" style="fill:#FF9B77;fill:color(display-p3 1.0000 0.6078 0.4667);fill-opacity:1;"/>
<path d="M0.573242 72.364C0.718672 72.0047 0.881211 71.6539 1.07797 71.3203C0.881211 71.6539 0.710117 72.0047 0.573242 72.364Z" fill="#60D7E5" style="fill:#60D7E5;fill:color(display-p3 0.3765 0.8431 0.8980);fill-opacity:1;"/>
<path d="M304.983 97.5405V308.713C304.983 313.255 301.304 316.917 296.77 316.917H85.7774L72.0044 85.5811L304.983 97.5405Z" fill="#FFD257" style="fill:#FFD257;fill:color(display-p3 1.0000 0.8235 0.3412);fill-opacity:1;"/>
<path d="M85.7778 97.54V316.925H8.21249C3.67851 316.925 0 313.255 0 308.721V97.54L37.3925 82.1758L85.7778 97.54Z" fill="#F4F1EA" style="fill:#F4F1EA;fill:color(display-p3 0.9569 0.9451 0.9176);fill-opacity:1;"/>
<path d="M304.983 75.2125V97.5402H0V75.2125C0 74.9473 0.0171094 74.6907 0.0342187 74.434C0.0769921 74.0491 0.136875 73.6641 0.230976 73.3048C0.248086 73.1936 0.290859 73.0824 0.316523 72.9712C0.316523 72.9541 0.316523 72.9369 0.333632 72.9198C0.367851 72.8001 0.40207 72.6889 0.444843 72.5862C0.487617 72.4493 0.538945 72.3125 0.590273 72.1927C0.735702 71.8248 0.906796 71.4741 1.10355 71.1319C1.19766 70.9779 1.2832 70.8239 1.38586 70.6785C1.47996 70.5416 1.56551 70.4048 1.67672 70.2764C1.7366 70.1909 1.79648 70.1139 1.85637 70.0369C2.05312 69.8059 2.25844 69.575 2.4723 69.3782C2.54929 69.2927 2.63484 69.2157 2.70328 69.1472C3.09679 68.7879 3.52453 68.4714 3.96937 68.1977C4.05492 68.1549 4.14047 68.1036 4.22601 68.0522C4.49121 67.8982 4.76496 67.7614 5.05582 67.6416C5.14136 67.6074 5.22691 67.5732 5.31246 67.5389C5.46644 67.4791 5.62898 67.4192 5.78296 67.3679C5.96261 67.3165 6.13371 67.2652 6.32191 67.2224C6.493 67.1797 6.62988 67.154 6.77531 67.1283C6.83519 67.1112 6.90363 67.1027 6.97206 67.0941C7.01484 67.0855 7.06617 67.077 7.10038 67.077C7.24581 67.0513 7.39124 67.0342 7.53667 67.0342C7.56234 67.0342 7.588 67.0171 7.63077 67.0342C7.83609 67.0171 8.02429 67 8.2296 67H296.787C301.321 67 305 70.67 305 75.2039L304.983 75.2125Z" fill="#60D7E5" style="fill:#60D7E5;fill:color(display-p3 0.3765 0.8431 0.8980);fill-opacity:1;"/>
<path d="M256.136 75.358C259.96 75.8285 262.672 79.3102 262.201 83.1342C261.731 86.9496 258.249 89.6699 254.425 89.1994C250.601 88.7289 247.889 85.2472 248.36 81.4318C248.83 77.6078 252.312 74.896 256.136 75.3665V75.358Z" fill="white" style="fill:white;fill-opacity:1;"/>
<path d="M278.276 75.3916C282.074 76.0075 284.658 79.5919 284.042 83.3902C283.426 87.197 279.841 89.772 276.043 89.156C272.245 88.5401 269.661 84.9557 270.277 81.1574C270.893 77.3591 274.478 74.7756 278.276 75.3916Z" fill="#4D35D3" style="fill:#4D35D3;fill:color(display-p3 0.3020 0.2078 0.8275);fill-opacity:1;"/>
<path d="M133.41 153.017H107.764C106.754 153.017 105.941 152.204 105.941 151.195V125.548C105.941 124.547 106.763 123.726 107.764 123.726H133.41C134.42 123.726 135.233 124.538 135.233 125.548V151.195C135.233 152.204 134.411 153.017 133.41 153.017Z" fill="white" style="fill:white;fill-opacity:1;"/>
<path d="M282.553 132.486H149.442C148.544 132.486 147.817 131.759 147.817 130.861C147.817 129.963 148.544 129.244 149.442 129.244H282.553C283.443 129.244 284.17 129.971 284.17 130.861C284.17 131.751 283.451 132.486 282.553 132.486Z" fill="black" style="fill:black;fill-opacity:1;"/>
<path d="M282.553 147.483H149.442C148.544 147.483 147.817 146.764 147.817 145.866C147.817 144.968 148.544 144.249 149.442 144.249H282.553C283.443 144.249 284.17 144.976 284.17 145.866C284.17 146.756 283.451 147.483 282.553 147.483Z" fill="black" style="fill:black;fill-opacity:1;"/>
<path d="M255.075 218.494H280.722C281.731 218.494 282.544 217.682 282.544 216.672V191.025C282.544 190.016 281.731 189.203 280.722 189.203H255.075C254.066 189.203 253.253 190.016 253.253 191.025V216.672C253.253 217.682 254.066 218.494 255.075 218.494Z" fill="white" style="fill:white;fill-opacity:1;"/>
<path d="M239.052 197.964H105.942C105.052 197.964 104.325 197.237 104.325 196.347C104.325 195.458 105.052 194.73 105.942 194.73H239.061C239.951 194.73 240.678 195.458 240.678 196.347C240.678 197.237 239.951 197.964 239.061 197.964H239.052Z" fill="black" style="fill:black;fill-opacity:1;"/>
<path d="M239.052 212.96H105.942C105.052 212.96 104.325 212.242 104.325 211.343C104.325 210.445 105.052 209.727 105.942 209.727H239.061C239.951 209.727 240.678 210.454 240.678 211.343C240.678 212.233 239.951 212.96 239.061 212.96H239.052Z" fill="black" style="fill:black;fill-opacity:1;"/>
<path d="M133.41 283.972H107.764C106.754 283.972 105.941 283.159 105.941 282.15V256.503C105.941 255.493 106.763 254.681 107.764 254.681H133.41C134.42 254.681 135.233 255.502 135.233 256.503V282.15C135.233 283.159 134.411 283.972 133.41 283.972Z" fill="white" style="fill:white;fill-opacity:1;"/>
<path d="M282.553 263.441H149.442C148.544 263.441 147.817 262.714 147.817 261.824C147.817 260.934 148.544 260.207 149.442 260.207H282.553C283.443 260.207 284.17 260.934 284.17 261.824C284.17 262.714 283.451 263.441 282.553 263.441Z" fill="black" style="fill:black;fill-opacity:1;"/>
<path d="M282.553 278.437H149.442C148.544 278.437 147.817 277.718 147.817 276.82C147.817 275.922 148.544 275.203 149.442 275.203H282.553C283.443 275.203 284.17 275.922 284.17 276.82C284.17 277.718 283.451 278.437 282.553 278.437Z" fill="black" style="fill:black;fill-opacity:1;"/>
<path d="M65.8111 137.088H19.9581C16.2624 137.088 13.2769 134.094 13.2769 130.407C13.2769 126.72 16.271 123.726 19.9581 123.726H65.8197C69.5153 123.726 72.5009 126.72 72.5009 130.407C72.5009 134.094 69.5068 137.088 65.8197 137.088H65.8111Z" fill="black" style="fill:black;fill-opacity:1;"/>
<path d="M70.5934 151.255H15.1847C14.295 151.255 13.5679 150.528 13.5679 149.638C13.5679 148.748 14.295 148.013 15.1847 148.013H70.5934C71.483 148.013 72.2102 148.74 72.2102 149.638C72.2102 150.536 71.483 151.255 70.5934 151.255Z" fill="black" style="fill:black;fill-opacity:1;"/>
<path d="M70.5934 161.821H15.1847C14.295 161.821 13.5679 161.093 13.5679 160.204C13.5679 159.314 14.295 158.587 15.1847 158.587H70.5934C71.483 158.587 72.2102 159.314 72.2102 160.204C72.2102 161.093 71.483 161.821 70.5934 161.821Z" fill="black" style="fill:black;fill-opacity:1;"/>
<path d="M70.5934 172.385H15.1847C14.295 172.385 13.5679 171.658 13.5679 170.768C13.5679 169.879 14.295 169.151 15.1847 169.151H70.5934C71.483 169.151 72.2102 169.879 72.2102 170.768C72.2102 171.658 71.483 172.385 70.5934 172.385Z" fill="black" style="fill:black;fill-opacity:1;"/>
<path d="M70.5934 182.95H15.1847C14.295 182.95 13.5679 182.223 13.5679 181.334C13.5679 180.444 14.295 179.717 15.1847 179.717H70.5934C71.483 179.717 72.2102 180.444 72.2102 181.334C72.2102 182.223 71.483 182.95 70.5934 182.95Z" fill="black" style="fill:black;fill-opacity:1;"/>
<path d="M70.5934 193.515H15.1847C14.295 193.515 13.5679 192.788 13.5679 191.898C13.5679 191.008 14.295 190.281 15.1847 190.281H70.5934C71.483 190.281 72.2102 191.008 72.2102 191.898C72.2102 192.788 71.483 193.515 70.5934 193.515Z" fill="black" style="fill:black;fill-opacity:1;"/>
<path d="M27.2253 261.052C27.2253 264.638 24.3271 267.536 20.7411 267.536C17.1551 267.536 14.2568 264.638 14.2568 261.052C14.2568 257.466 17.1551 254.567 20.7411 254.567H27.2253V261.052ZM30.4675 261.052C30.4675 257.466 33.3657 254.567 36.9517 254.567C40.5377 254.567 43.436 257.466 43.436 261.052V277.262C43.436 280.848 40.5377 283.747 36.9517 283.747C33.3657 283.747 30.4675 280.848 30.4675 277.262V261.052Z" fill="#E01E5A" style="fill:#E01E5A;fill:color(display-p3 0.8784 0.1176 0.3529);fill-opacity:1;"/>
<path d="M36.951 235.016C33.365 235.016 30.4668 232.118 30.4668 228.532C30.4668 224.946 33.365 222.048 36.951 222.048C40.537 222.048 43.4353 224.946 43.4353 228.532V235.016H36.951ZM36.951 238.308C40.537 238.308 43.4353 241.206 43.4353 244.792C43.4353 248.378 40.537 251.276 36.951 251.276H20.6913C17.1053 251.276 14.207 248.378 14.207 244.792C14.207 241.206 17.1053 238.308 20.6913 238.308H36.951Z" fill="#36C5F0" style="fill:#36C5F0;fill:color(display-p3 0.2118 0.7725 0.9412);fill-opacity:1;"/>
<path d="M62.9377 244.792C62.9377 241.206 65.8359 238.308 69.4219 238.308C73.0079 238.308 75.9062 241.206 75.9062 244.792C75.9062 248.378 73.0079 251.276 69.4219 251.276H62.9377V244.792ZM59.6956 244.792C59.6956 248.378 56.7973 251.276 53.2113 251.276C49.6253 251.276 46.7271 248.378 46.7271 244.792V228.532C46.7271 224.946 49.6253 222.048 53.2113 222.048C56.7973 222.048 59.6956 224.946 59.6956 228.532V244.792Z" fill="#2EB67D" style="fill:#2EB67D;fill:color(display-p3 0.1804 0.7137 0.4902);fill-opacity:1;"/>
<path d="M53.2113 270.778C56.7973 270.778 59.6956 273.676 59.6956 277.262C59.6956 280.848 56.7973 283.747 53.2113 283.747C49.6253 283.747 46.7271 280.848 46.7271 277.262V270.778H53.2113ZM53.2113 267.536C49.6253 267.536 46.7271 264.638 46.7271 261.052C46.7271 257.466 49.6253 254.567 53.2113 254.567H69.4711C73.057 254.567 75.9553 257.466 75.9553 261.052C75.9553 264.638 73.057 267.536 69.4711 267.536H53.2113Z" fill="#ECB22E" style="fill:#ECB22E;fill:color(display-p3 0.9255 0.6980 0.1804);fill-opacity:1;"/>
<path d="M71.9686 97.5083C73.9158 104.937 69.461 112.535 62.0371 114.491C54.6028 116.43 47.0099 111.984 45.0628 104.554C43.1156 97.1253 47.5619 89.5325 54.9858 87.5768C62.4149 85.6296 70.0215 90.0792 71.9686 97.5083Z" fill="#FFC420" style="fill:#FFC420;fill:color(display-p3 1.0000 0.7686 0.1255);fill-opacity:1;"/>
<path d="M85.3485 71.3045L85.4631 71.2805L80.5275 58.8799L76.8687 54.0417L77.7247 51.8166L74.6107 44.0049C69.629 31.4917 57.1117 23.9803 44.0868 25.0436C43.1909 25.1167 43.4634 26.8656 42.5618 27.0246C41.7218 27.1689 39.6939 25.72 38.8514 25.9364C32.4356 27.6201 26.9985 31.2619 23.0709 36.0857C22.6312 36.629 23.4242 38.0787 23.0278 38.654C22.7103 39.1097 21.1791 38.6707 20.8859 39.1466C17.3827 44.7309 15.7008 51.4687 16.4508 58.4282C16.4838 58.6901 19.0951 62.9776 19.0951 62.9776L17.1608 63.824L20.4461 88.3081L20.5607 88.2841C20.2498 88.371 19.9389 88.4578 19.6386 88.5617C19.0464 88.7642 19.3974 90.4879 18.8611 90.7616C18.1698 91.1079 16.5827 90.0094 15.9716 90.4471C11.4943 93.6821 9.24235 99.4436 10.723 105.115C11.7908 109.171 15.9479 111.606 20.0041 110.538L35.9456 106.36L37.2492 104.364L40.5641 105.156L58.3698 100.493L62.0929 99.5139L63.5667 97.9059L66.7199 98.304L88.2624 92.6655L89.5814 90.7887L92.8756 91.4524L96.744 90.4423C100.805 89.383 103.24 85.2259 102.167 81.1612C100.24 73.8021 92.7043 69.391 85.3453 71.3183L85.3485 71.3045Z" fill="#4D35D3" style="fill:#4D35D3;fill:color(display-p3 0.3020 0.2078 0.8275);fill-opacity:1;"/>
<path d="M40.5678 105.142L35.9938 106.342L15.9551 90.4573C17.0582 89.6556 18.3008 89.0028 19.6475 88.5561L40.5731 105.15L40.5678 105.142Z" fill="#4D35D3" style="fill:#4D35D3;fill:color(display-p3 0.3020 0.2078 0.8275);fill-opacity:1;"/>
<path d="M66.729 98.298L62.155 99.4985L17.1699 63.818L16.5504 59.2132C16.5174 58.9513 16.4844 58.6893 16.4599 58.4221L66.729 98.298Z" fill="#4D35D3" style="fill:#4D35D3;fill:color(display-p3 0.3020 0.2078 0.8275);fill-opacity:1;"/>
<path d="M92.8843 91.4461L88.3018 92.6519L20.8691 39.1562C21.5344 38.0848 22.2758 37.0603 23.0796 36.0795L92.8843 91.4461Z" fill="#4D35D3" style="fill:#4D35D3;fill:color(display-p3 0.3020 0.2078 0.8275);fill-opacity:1;"/>
<path d="M77.7246 51.8165L80.5359 58.8746L38.9521 25.9092C40.6285 25.4816 42.3001 25.1982 43.9669 25.059L77.7161 51.8218L77.7246 51.8165Z" fill="#4D35D3" style="fill:#4D35D3;fill:color(display-p3 0.3020 0.2078 0.8275);fill-opacity:1;"/>
<path d="M86.3449 72.9098C86.1919 73.0047 86.0146 73.0793 85.8215 73.1284L20.9139 90.1235C19.9006 90.387 18.8661 89.7812 18.6079 88.7765C18.3444 87.7632 18.9502 86.7287 19.9549 86.4705L84.8626 69.4754C85.8758 69.2119 86.9103 69.8177 87.1738 70.8309C87.3882 71.6511 87.0301 72.4967 86.3417 72.9236L86.3449 72.9098Z" fill="black" style="fill:black;fill-opacity:1;"/>
<path d="M78.4959 11.8979C85.7428 18.5001 86.2719 29.7147 79.6835 36.9649C73.0866 44.2203 61.872 44.7495 54.6165 38.1525C47.3611 31.5556 46.8319 20.341 53.4289 13.0855C60.0173 5.83535 71.2404 5.30096 78.4959 11.8979Z" fill="#FF571A" style="fill:#FF571A;fill:color(display-p3 1.0000 0.3412 0.1020);fill-opacity:1;"/>
<path d="M287.026 21.0039H234.747C219.865 21.0039 207.762 33.134 207.762 48.0517V286.316C207.762 301.234 219.865 313.364 234.747 313.364H287.026C301.908 313.364 314.011 301.234 314.011 286.316V48.0517C314.011 33.134 301.908 21.0039 287.026 21.0039Z" fill="#7562DD" style="fill:#7562DD;fill:color(display-p3 0.4588 0.3843 0.8667);fill-opacity:1;"/>
<path d="M290.991 48.5053V105.896L284.311 107.731H236.851L230.171 105.896V48.5053C230.171 46.1096 232.086 44.1592 234.446 44.1592H286.725C289.085 44.1592 291 46.1007 291 48.5053H290.991Z" fill="#FFD257" style="fill:#FFD257;fill:color(display-p3 1.0000 0.8235 0.3412);fill-opacity:1;"/>
<path d="M284.621 165.042L291.301 167.188V228.925L284.621 232.844H237.161L230.481 228.925V167.188L237.161 165.042H284.621Z" fill="#FFD257" style="fill:#FFD257;fill:color(display-p3 1.0000 0.8235 0.3412);fill-opacity:1;"/>
<path d="M291.301 105.451H230.481V167.188H291.301V105.451Z" fill="#FF9066" style="fill:#FF9066;fill:color(display-p3 1.0000 0.5647 0.4000);fill-opacity:1;"/>
<path d="M291.301 228.916V286.316C291.301 288.72 289.395 290.662 287.026 290.662H234.747C232.378 290.662 230.472 288.72 230.472 286.316V228.916H291.292H291.301Z" fill="#FF9066" style="fill:#FF9066;fill:color(display-p3 1.0000 0.5647 0.4000);fill-opacity:1;"/>
<path d="M323.727 87.1129L333.995 79.5962C335.091 78.7946 336.614 79.6763 336.471 81.0301L335.091 93.6856C335.019 94.3625 335.394 95.0037 336.017 95.2798L347.657 100.419C348.895 100.971 348.895 102.725 347.657 103.277L336.017 108.416C335.394 108.692 335.019 109.342 335.091 110.019L336.471 122.675C336.614 124.029 335.091 124.901 333.995 124.1L323.727 116.583C323.174 116.182 322.426 116.182 321.883 116.583L311.614 124.1C310.519 124.901 308.996 124.02 309.138 122.675L310.51 110.019C310.59 109.342 310.207 108.692 309.593 108.416L297.952 103.277C296.714 102.734 296.714 100.971 297.952 100.419L309.593 95.2798C310.216 95.0037 310.59 94.3536 310.51 93.6856L309.138 81.0301C308.996 79.6763 310.519 78.8035 311.614 79.5962L321.883 87.1129C322.435 87.5137 323.183 87.5137 323.727 87.1129Z" fill="#FF571A" style="fill:#FF571A;fill:color(display-p3 1.0000 0.3412 0.1020);fill-opacity:1;"/>
<path d="M240.928 258.511C236.403 261.165 233.304 265.76 232.556 270.952C232.422 271.888 231.14 272.146 230.659 271.327C228.005 266.802 223.409 263.703 218.217 262.955C217.282 262.821 217.024 261.539 217.843 261.058C222.367 258.413 225.458 253.808 226.215 248.616C226.348 247.681 227.631 247.423 228.112 248.242C230.766 252.766 235.361 255.866 240.554 256.614C241.489 256.747 241.738 258.03 240.928 258.502V258.511Z" fill="#FFD257" style="fill:#FFD257;fill:color(display-p3 1.0000 0.8235 0.3412);fill-opacity:1;"/>
<path d="M383.656 176.085C383.541 173.351 380.334 172.015 378.348 173.867L347.605 204.709L318.856 174.972C317.475 173.377 315.186 173.618 314.02 175.034V286.324C314.02 301.242 301.907 313.381 287.034 313.381H267.254C257.092 313.88 247.144 313.693 242.887 313.577V301.438C242.887 299.113 240.277 297.795 238.452 299.194L220.034 313.301L200.102 328.566C198.633 329.697 198.633 331.932 200.102 333.055L220.034 348.32L238.452 362.427C240.277 363.825 242.887 362.507 242.887 360.182V357.466L242.014 349.406C243.706 349.718 247.215 351.668 250.573 352.131C258.383 353.209 270.14 354.411 283.205 354.278C285.093 354.26 286.927 350.742 288.86 350.662C290.686 350.582 292.618 353.948 294.48 353.806C303.297 353.156 312.354 351.757 320.94 349.228C322.418 348.792 323.656 347.438 325.108 346.939C326.684 346.387 328.448 346.681 329.979 346.048C335.688 343.671 341.032 340.669 345.77 336.902C346.607 336.234 346.785 331.834 347.587 331.113C349.751 329.171 352.432 330.748 354.346 328.423C358.096 323.881 361.391 318.653 364.277 312.918C364.882 311.724 364.588 309.658 365.15 308.42C365.889 306.817 367.474 306.016 368.151 304.341C385.794 260.906 384.6 196.907 383.665 176.094L383.656 176.085Z" fill="#09C0D7" style="fill:#09C0D7;fill:color(display-p3 0.0353 0.7529 0.8431);fill-opacity:1;"/>
<path d="M294.952 351.41C294.952 352.256 294.783 353.058 294.48 353.797C290.633 354.082 286.848 354.233 283.16 354.269C282.715 353.414 282.466 352.443 282.466 351.419C282.466 347.963 285.271 345.176 288.709 345.176C292.147 345.176 294.961 347.963 294.961 351.419L294.952 351.41Z" fill="#09C0D7" style="fill:#09C0D7;fill:color(display-p3 0.0353 0.7529 0.8431);fill-opacity:1;"/>
<path d="M250.663 351.41C250.663 351.651 250.645 351.891 250.627 352.123C247.243 351.66 244.598 351.205 242.888 350.903V357.457C240.189 356.772 238.176 354.322 238.176 351.41C238.176 347.955 240.973 345.167 244.419 345.167C247.866 345.167 250.663 347.955 250.663 351.41Z" fill="#09C0D7" style="fill:#09C0D7;fill:color(display-p3 0.0353 0.7529 0.8431);fill-opacity:1;"/>
<path d="M354.337 328.405C352.432 330.73 350.392 332.867 348.228 334.809C347.417 335.53 346.589 336.234 345.743 336.901C343.917 335.806 342.697 333.82 342.697 331.54C342.697 328.084 345.485 325.297 348.94 325.297C351.247 325.297 353.26 326.544 354.337 328.405Z" fill="#09C0D7" style="fill:#09C0D7;fill:color(display-p3 0.0353 0.7529 0.8431);fill-opacity:1;"/>
<path d="M368.142 304.332C366.94 307.298 365.648 310.165 364.268 312.917C363.903 312.125 363.698 311.243 363.698 310.317C363.698 307.494 365.568 305.107 368.142 304.332Z" fill="#09C0D7" style="fill:#09C0D7;fill:color(display-p3 0.0353 0.7529 0.8431);fill-opacity:1;"/>
<path d="M329.971 346.031C327.04 347.26 324.021 348.311 320.949 349.219C321.839 346.85 324.11 345.167 326.8 345.167C327.958 345.167 329.044 345.479 329.971 346.031Z" fill="#09C0D7" style="fill:#09C0D7;fill:color(display-p3 0.0353 0.7529 0.8431);fill-opacity:1;"/>
<path d="M252.381 315.483C247.278 315.483 243.804 315.474 243.697 315.474C242.798 315.474 242.059 314.762 242.032 313.854L241.622 300.699L224.425 312.242C223.614 312.785 222.492 312.526 222.02 311.636C221.601 310.87 221.913 309.899 222.644 309.409L242.264 296.228C242.762 295.89 243.412 295.854 243.956 296.13C244.49 296.407 244.846 296.959 244.864 297.564L245.327 312.126C252.185 312.144 279.063 312.161 290.454 311.805C303.03 311.413 312.212 296.585 312.221 290.413V176.005C312.221 175.079 312.969 174.34 313.895 174.34C314.821 174.34 315.569 175.079 315.569 176.005V290.413C315.569 298.401 304.758 314.708 290.57 315.145C281.646 315.421 263.3 315.466 252.399 315.466L252.381 315.483Z" fill="black" style="fill:black;fill-opacity:1;"/>
<path d="M260.538 89.3323C256.149 89.3323 252.661 88.3788 250.075 86.4717C247.515 84.5646 246.235 81.5864 246.235 77.5371V62.5678C246.235 62.2804 246.339 62.0322 246.548 61.8232C246.757 61.6142 247.005 61.5097 247.293 61.5097H255.483C255.77 61.5097 256.018 61.6142 256.227 61.8232C256.436 62.0322 256.541 62.2804 256.541 62.5678V78.1641C256.541 79.2352 256.894 80.0581 257.599 80.6328C258.33 81.2076 259.31 81.4949 260.538 81.4949C261.766 81.4949 262.732 81.2076 263.438 80.6328C264.169 80.0581 264.535 79.2352 264.535 78.1641V62.5678C264.535 62.2804 264.639 62.0322 264.848 61.8232C265.057 61.6142 265.306 61.5097 265.593 61.5097H273.783C274.07 61.5097 274.319 61.6142 274.528 61.8232C274.737 62.0322 274.841 62.2804 274.841 62.5678V77.5371C274.841 81.5864 273.548 84.5646 270.962 86.4717C268.401 88.3788 264.927 89.3323 260.538 89.3323ZM275.076 148.647C275.155 148.726 275.194 148.83 275.194 148.961C275.194 149.222 275.102 149.457 274.919 149.666C274.763 149.849 274.567 149.94 274.332 149.94H265.907C265.201 149.94 264.666 149.64 264.3 149.039L260.499 143.2L256.776 149.039C256.384 149.64 255.849 149.94 255.169 149.94H246.705C246.47 149.94 246.261 149.862 246.078 149.705C245.921 149.522 245.843 149.313 245.843 149.078V148.961C245.843 148.83 245.882 148.726 245.96 148.647L254.621 135.402L246.901 123.803C246.823 123.698 246.783 123.555 246.783 123.372C246.783 123.137 246.862 122.941 247.019 122.784C247.201 122.601 247.41 122.51 247.645 122.51H256.11C256.789 122.51 257.338 122.836 257.756 123.489L260.812 128.505L264.104 123.411C264.287 123.176 264.483 122.967 264.692 122.784C264.927 122.601 265.266 122.51 265.711 122.51H274.136C274.371 122.51 274.567 122.601 274.724 122.784C274.906 122.941 274.998 123.137 274.998 123.372V123.489C274.998 123.62 274.959 123.725 274.88 123.803L266.69 135.912L275.076 148.647ZM273.587 184.51C273.874 184.51 274.123 184.614 274.332 184.823C274.541 185.032 274.645 185.28 274.645 185.568V210.882C274.645 211.17 274.541 211.418 274.332 211.627C274.123 211.836 273.874 211.94 273.587 211.94H265.515C265.227 211.94 264.979 211.836 264.77 211.627C264.561 211.418 264.457 211.17 264.457 210.882V202.536H256.619V210.882C256.619 211.17 256.515 211.418 256.306 211.627C256.097 211.836 255.849 211.94 255.561 211.94H247.489C247.201 211.94 246.953 211.849 246.744 211.666C246.535 211.457 246.431 211.196 246.431 210.882V185.568C246.431 185.28 246.535 185.032 246.744 184.823C246.953 184.614 247.201 184.51 247.489 184.51H255.561C255.849 184.51 256.097 184.614 256.306 184.823C256.515 185.032 256.619 185.28 256.619 185.568V193.601H264.457V185.568C264.457 185.28 264.561 185.032 264.77 184.823C264.979 184.614 265.227 184.51 265.515 184.51H273.587ZM265.867 264.907H272.96C273.247 264.907 273.496 265.012 273.705 265.221C273.914 265.43 274.018 265.678 274.018 265.965V271.882C274.018 272.17 273.914 272.418 273.705 272.627C273.496 272.836 273.247 272.94 272.96 272.94H248.116C247.828 272.94 247.58 272.836 247.371 272.627C247.162 272.418 247.058 272.17 247.058 271.882V265.965C247.058 265.678 247.162 265.43 247.371 265.221C247.58 265.012 247.828 264.907 248.116 264.907H255.287V253.543H248.116C247.828 253.543 247.58 253.438 247.371 253.23C247.162 253.021 247.058 252.772 247.058 252.485V246.568C247.058 246.28 247.162 246.032 247.371 245.823C247.58 245.614 247.828 245.51 248.116 245.51H272.96C273.247 245.51 273.496 245.614 273.705 245.823C273.914 246.032 274.018 246.28 274.018 246.568V252.485C274.018 252.772 273.914 253.021 273.705 253.23C273.496 253.438 273.247 253.543 272.96 253.543H265.867V264.907Z" fill="black" style="fill:black;fill-opacity:1;"/>
</g>
<defs>
<clipPath id="clip0_633_2528">
<rect width="384" height="384" fill="white" style="fill:white;fill-opacity:1;"/>
</clipPath>
</defs>
</svg>
