<svg width="384" height="384" viewBox="0 0 384 384" fill="none" xmlns="http://www.w3.org/2000/svg">
<path d="M330.55 44.4297L224.91 141.63L331.28 187.99L330.55 44.4297Z" fill="#614CD8" style="fill:#614CD8;fill:color(display-p3 0.3804 0.2980 0.8471);fill-opacity:1;"/>
<path d="M369.96 39.5705L363.13 23.9705C362.79 23.2005 361.83 22.9405 361.15 23.4305L334.57 42.6605L354.23 15.9505C354.73 15.2705 354.48 14.3105 353.71 13.9705L338.16 7.02047C337.39 6.68047 336.5 7.13047 336.33 7.95047L329.6 40.0905L326.31 7.82047C326.22 6.98047 325.39 6.44047 324.59 6.70047L308.4 11.9805C307.6 12.2405 307.25 13.1805 307.67 13.9005L327.92 48.5305C328.12 48.8705 328.4 49.0505 328.71 49.1305C328.97 49.3105 329.3 49.3905 329.68 49.3205L369.01 41.4005C369.83 41.2305 370.29 40.3505 369.96 39.5805V39.5705Z" fill="#FF9066" style="fill:#FF9066;fill:color(display-p3 1.0000 0.5647 0.4000);fill-opacity:1;"/>
<path d="M93.18 137.33C74.31 126.7 74.61 108.65 78.05 98.4801C78.51 97.1201 80.06 96.4901 81.37 97.0701L88.39 100.19L83.7 98.1001L86.3 99.2401C87.45 99.7401 88.03 101.01 87.66 102.2C86.07 107.32 83.88 120.15 98.06 128.28C99.16 128.91 99.57 130.32 99.01 131.46L96.65 136.28C96.02 137.57 94.43 138.02 93.19 137.32L93.18 137.33Z" fill="#FFDD7F" style="fill:#FFDD7F;fill:color(display-p3 1.0000 0.8667 0.4980);fill-opacity:1;"/>
<path d="M153.15 96.2695C152.2 97.2695 150.61 97.2895 149.63 96.3095C141.86 88.5995 134 78.4895 135.75 66.4295C137.27 56.0195 146.69 47.5395 157.2 47.1095C166.72 46.7595 176 53.0995 179.34 61.9995C179.85 63.3795 178.99 64.8895 177.56 65.2195L172.28 66.4295C171.11 66.6995 169.95 66.0695 169.47 64.9695C167.49 60.4395 162.58 57.1495 157.61 57.3695C151.97 57.5995 146.72 62.3295 145.9 67.9095C144.79 75.5195 150.79 82.9995 156.79 88.9595C157.74 89.8995 157.75 91.4195 156.83 92.3795L153.14 96.2595L153.15 96.2695Z" fill="#FF9066" style="fill:#FF9066;fill:color(display-p3 1.0000 0.5647 0.4000);fill-opacity:1;"/>
<path d="M218.54 97.8801L217.22 92.6901C216.91 91.4501 217.57 90.1501 218.78 89.7701C227.99 86.8201 236.2 80.2801 241.03 71.9401C245.87 63.6001 247.47 53.2201 245.46 43.7701C245.19 42.5301 246 41.3001 247.22 40.9601L252.38 39.5301C253.76 39.1501 255.15 40.0301 255.45 41.4201C258.1 53.5001 256.13 66.3601 249.91 77.0901C243.69 87.8201 233.5 95.9201 221.7 99.6101C220.34 100.04 218.89 99.2701 218.53 97.8801H218.54Z" fill="#FFDD7F" style="fill:#FFDD7F;fill:color(display-p3 1.0000 0.8667 0.4980);fill-opacity:1;"/>
<path d="M136.43 173.729C135.05 174.179 133.61 173.329 133.27 171.919C131.18 163.389 132 154.129 135.61 146.129C139.23 138.119 145.64 131.369 153.43 127.299C154.7 126.639 156.28 127.169 156.85 128.489L159 133.409C159.51 134.569 159.05 135.939 157.93 136.529C152.26 139.559 147.6 144.499 144.96 150.349C142.31 156.209 141.69 162.969 143.17 169.219C143.46 170.449 142.74 171.699 141.53 172.089L136.42 173.729H136.43Z" fill="#614CD8" style="fill:#614CD8;fill:color(display-p3 0.3804 0.2980 0.8471);fill-opacity:1;"/>
<path d="M294.69 181.95C245.81 148.81 179.33 161.57 146.19 210.44C144.17 213.41 142.33 216.45 140.66 219.54C134.9 215.85 127.99 216.27 125.06 220.59C122.07 225 124.36 231.79 130.19 235.74C131.12 236.37 132.08 236.85 133.05 237.26C118.61 281.43 134.3 331.56 174.68 358.94C223.56 392.08 290.04 379.331 323.18 330.451C356.32 281.57 343.57 215.09 294.69 181.95Z" fill="#735400" style="fill:#735400;fill:color(display-p3 0.4510 0.3294 0.0000);fill-opacity:1;"/>
<path d="M186.8 257.17C182.64 257.17 178.57 255.93 175.05 253.54C165.49 247.04 162.99 233.97 169.49 224.4C170.13 223.46 171.4 223.22 172.34 223.86C173.28 224.5 173.52 225.78 172.88 226.71C167.65 234.4 169.66 244.91 177.35 250.14C181.08 252.67 185.57 253.61 190 252.76C194.43 251.92 198.26 249.4 200.79 245.67C201.43 244.73 202.7 244.49 203.65 245.13C204.58 245.77 204.83 247.04 204.19 247.98C201.04 252.61 196.27 255.75 190.77 256.79C189.44 257.04 188.11 257.17 186.8 257.17Z" fill="black" style="fill:black;fill-opacity:1;"/>
<path d="M163.56 270.43C159.77 276.02 161.22 283.62 166.8 287.41C172.39 291.21 179.99 289.76 183.78 284.17C187.58 278.59 186.13 270.98 180.54 267.19C174.96 263.4 167.35 264.85 163.55 270.43H163.56Z" fill="#FF9066" style="fill:#FF9066;fill:color(display-p3 1.0000 0.5647 0.4000);fill-opacity:1;"/>
<path d="M151.79 271.68C151.74 271.68 151.69 271.68 151.63 271.68C146.89 271.32 142.27 270.18 137.92 268.3C133.92 266.58 130.22 264.26 126.92 261.41C126.06 260.67 125.96 259.37 126.7 258.52C127.44 257.66 128.74 257.56 129.6 258.31C132.58 260.88 135.93 262.98 139.54 264.54C143.48 266.24 147.65 267.27 151.94 267.59C153.07 267.68 153.92 268.66 153.83 269.79C153.75 270.87 152.85 271.69 151.78 271.69L151.79 271.68Z" fill="black" style="fill:black;fill-opacity:1;"/>
<path d="M198.27 219.221C196.26 221.601 198.85 227.111 204.06 231.541C209.27 235.971 215.13 237.621 217.15 235.251C219.17 232.871 216.58 227.361 211.37 222.931C206.15 218.501 200.3 216.851 198.28 219.221H198.27Z" fill="#FFCC40" style="fill:#FFCC40;fill:color(display-p3 1.0000 0.8000 0.2510);fill-opacity:1;"/>
<path d="M360.89 249.19C363.28 246.3 365.34 243.07 367.01 239.52C377.63 216.88 367.88 189.91 345.24 179.29C335.45 174.7 324.86 173.92 315.13 176.34C317.53 157.38 307.67 138.22 289.43 129.67C271.23 121.14 250.25 125.76 237.2 139.66C233.72 134.89 229.04 130.9 223.31 128.22C205.18 119.72 183.59 127.52 175.08 145.66C166.58 163.79 174.38 185.38 192.52 193.89C201.68 198.18 211.71 198.3 220.5 195.05C218.35 210.39 226.27 225.97 241.02 232.89C245.8 235.13 250.81 236.21 255.77 236.3C255.62 236.6 255.45 236.87 255.31 237.17C247.01 254.87 254.28 275.83 271.49 284.73C269.44 295.62 272.53 306.77 279.62 315.03C277.53 317.47 275.7 320.2 274.26 323.26C265.76 341.39 273.56 362.98 291.7 371.49C309.83 379.99 331.42 372.19 339.93 354.05C343.02 347.47 343.93 340.44 343 333.75C358.41 332.27 372.66 322.93 379.7 307.9C389.84 286.27 381.4 260.71 360.88 249.21L360.89 249.19Z" fill="#FFCC40" style="fill:#FFCC40;fill:color(display-p3 1.0000 0.8000 0.2510);fill-opacity:1;"/>
<path d="M324.21 232.48C323.08 232.48 322.16 231.56 322.16 230.43C322.16 215.97 310.39 204.2 295.93 204.2C294.79 204.2 293.88 203.28 293.88 202.15C293.88 201.02 294.8 200.1 295.93 200.1C312.66 200.1 326.27 213.71 326.27 230.44C326.27 231.58 325.35 232.49 324.21 232.49V232.48Z" fill="black" style="fill:black;fill-opacity:1;"/>
<path d="M334.09 312.62C332.96 312.62 332.04 311.7 332.04 310.57C332.04 296.11 320.27 284.34 305.81 284.34C304.67 284.34 303.76 283.42 303.76 282.29C303.76 281.16 304.68 280.24 305.81 280.24C322.54 280.24 336.15 293.85 336.15 310.58C336.15 311.71 335.23 312.63 334.1 312.63L334.09 312.62Z" fill="black" style="fill:black;fill-opacity:1;"/>
<path d="M239.05 186.87C237.91 186.87 237 185.95 237 184.81C237 170.35 225.23 158.58 210.77 158.58C209.63 158.58 208.72 157.66 208.72 156.52C208.72 155.38 209.64 154.47 210.77 154.47C227.5 154.47 241.11 168.08 241.11 184.81C241.11 185.94 240.19 186.87 239.06 186.87H239.05Z" fill="black" style="fill:black;fill-opacity:1;"/>
<path d="M258.21 271.05C273.98 271.57 286.34 284.78 285.82 300.55C285.3 316.32 272.09 328.67 256.32 328.15C240.55 327.63 228.19 314.42 228.72 298.65C229.24 282.88 242.45 270.53 258.22 271.05H258.21Z" fill="#735400" style="fill:#735400;fill:color(display-p3 0.4510 0.3294 0.0000);fill-opacity:1;"/>
<path d="M258.4 316.121C256.3 316.121 254.2 315.691 252.22 314.831C251.18 314.381 250.7 313.171 251.15 312.131C251.6 311.091 252.81 310.611 253.85 311.061C256.67 312.281 259.8 312.331 262.65 311.191C265.51 310.061 267.75 307.881 268.97 305.061C271.48 299.241 268.79 292.461 262.97 289.951C261.93 289.501 261.45 288.291 261.9 287.251C262.35 286.211 263.56 285.731 264.6 286.181C272.5 289.591 276.15 298.791 272.74 306.691C271.09 310.521 268.05 313.471 264.17 315.011C262.3 315.751 260.36 316.121 258.41 316.121H258.4Z" fill="black" style="fill:black;fill-opacity:1;"/>
<path d="M128.67 251.89L95.4902 233.43L58.0902 212.6C62.0002 209.51 65.3502 205.58 67.7702 200.85C76.7902 183.23 69.8202 161.62 52.2002 152.6C34.5802 143.57 12.9702 150.54 3.95022 168.17C-5.06978 185.79 1.90022 207.4 19.5202 216.42C19.7002 216.51 19.8802 216.58 20.0602 216.66L87.8202 248.42L122.19 264.55C123.44 265.14 124.92 264.63 125.55 263.4L129.71 255.28C130.33 254.05 129.88 252.55 128.68 251.88L128.67 251.89Z" fill="#614CD8" style="fill:#614CD8;fill:color(display-p3 0.3804 0.2980 0.8471);fill-opacity:1;"/>
<path d="M99.6601 247.97C99.3601 247.97 99.0501 247.9 98.7601 247.76C98.3101 247.54 53.1501 225.52 26.7701 209.73C22.4301 207.14 18.9001 204.06 16.2701 200.59C6.76006 188.06 10.3301 174.97 18.0801 167.56C26.1001 159.9 40.0301 156.96 51.1201 166.2C58.4701 172.32 61.7601 180.12 60.1401 187.6C58.8001 193.84 54.0701 198.93 48.1001 200.57C41.7501 202.31 35.0401 200.03 29.6801 194.28C25.5701 189.87 24.3701 184.98 26.3901 180.87C28.2401 177.12 32.5501 174.69 36.7101 175.07C40.2001 175.4 42.8601 177.72 43.8401 181.26C44.1401 182.35 43.5001 183.48 42.4101 183.78C41.3101 184.08 40.1801 183.44 39.8801 182.35C39.2101 179.93 37.5801 179.28 36.3301 179.16C33.8801 178.92 31.1901 180.44 30.0801 182.68C28.8301 185.21 29.7601 188.34 32.6901 191.48C37.0301 196.14 42.1101 197.96 47.0101 196.61C51.5201 195.37 55.1001 191.49 56.1301 186.73C57.4101 180.8 54.6301 174.47 48.4901 169.36C38.8201 161.3 27.4201 164.32 20.9201 170.53C14.9601 176.23 11.0201 186.87 19.5401 198.11C21.8501 201.16 24.9901 203.88 28.8801 206.2C55.1101 221.9 100.1 243.84 100.55 244.06C101.57 244.56 101.99 245.79 101.5 246.81C101.14 247.54 100.41 247.96 99.6501 247.96L99.6601 247.97Z" fill="black" style="fill:black;fill-opacity:1;"/>
<path d="M129.7 255.29L125.54 263.41C124.92 264.64 123.43 265.14 122.18 264.56L87.8101 248.43L95.4901 233.43L128.67 251.89C129.87 252.56 130.33 254.06 129.7 255.29Z" fill="#FFDD7F" style="fill:#FFDD7F;fill:color(display-p3 1.0000 0.8667 0.4980);fill-opacity:1;"/>
</svg>
