<svg width="384" height="384" viewBox="0 0 384 384" fill="none" xmlns="http://www.w3.org/2000/svg">
<g clip-path="url(#clip0_609_761)">
<path d="M353.9 315.09H229.83C227.38 315.09 225.64 312.71 226.38 310.37L262.86 195.23L327.3 200.24L345.84 268.14L346.03 272.73L347.62 274.65L357.41 310.51C358.04 312.81 356.3 315.09 353.91 315.09H353.9Z" fill="#FF9B77" style="fill:#FF9B77;fill:color(display-p3 1.0000 0.6078 0.4667);fill-opacity:1;"/>
<path d="M345.83 268.14C339.38 287.93 332.98 302.21 330.67 304.75C328.23 303.09 322.36 290.87 316.44 267.83C315.6 264.56 314.77 261.1 313.99 257.54C319.11 239.95 322.05 224.74 322.05 215.33C322.05 211.26 321.55 208.19 320.51 205.95C318.89 202.42 316.25 201.68 314.33 201.68C312.06 201.68 308.95 202.72 307.09 207.62C305.91 210.71 305.32 215.1 305.32 220.69C305.32 231.34 307.41 244.87 310.13 257.4C309.65 259.01 309.15 260.65 308.64 262.31C301.61 285.08 294.16 301.97 291.63 304.75C289.18 303.09 283.31 290.87 277.39 267.83C276.55 264.56 275.73 261.1 274.94 257.54C280.06 239.95 282.99 224.74 282.99 215.33C282.99 211.26 282.49 208.19 281.46 205.95C279.83 202.42 277.2 201.68 275.27 201.68C273 201.68 269.9 202.72 268.03 207.62C266.86 210.71 266.26 215.11 266.26 220.69C266.26 231.34 268.36 244.87 271.06 257.4C270.59 259.01 270.1 260.65 269.58 262.31C262.54 285.09 255.1 301.97 252.56 304.75C250.22 303.16 244.7 291.81 239.01 270.45L236.93 277C239.38 285.46 241.93 292.78 244.34 298.21C248.45 307.46 251.02 308.66 252.79 308.66C254.34 308.66 256.12 307.77 260.88 297.06C263.86 290.36 267.26 281.39 270.45 271.8C271.24 269.42 272 267.08 272.73 264.75C273.63 268.46 274.56 271.99 275.48 275.25C278.07 284.46 280.81 292.4 283.39 298.21C287.49 307.46 290.06 308.66 291.85 308.66C293.4 308.66 295.18 307.77 299.94 297.06C302.92 290.36 306.32 281.4 309.51 271.8C310.3 269.42 311.06 267.08 311.79 264.75C312.68 268.46 313.61 272 314.53 275.25C317.12 284.46 319.86 292.4 322.44 298.21C326.55 307.46 329.12 308.66 330.89 308.66C332.44 308.66 334.22 307.77 338.98 297.06C341.66 291.03 344.68 283.16 347.59 274.65L345.81 268.14H345.83ZM270.49 213.25C271.27 208.06 272.88 205.41 275.28 205.41C276.3 205.41 277.58 205.77 278.45 208.54C280.48 214.99 278.56 229.86 273.3 249.48C270.73 235.9 269.18 222.07 270.5 213.24L270.49 213.25ZM309.54 213.25C310.31 208.06 311.92 205.41 314.32 205.41C315.34 205.41 316.62 205.77 317.49 208.54C319.51 214.99 317.59 229.86 312.34 249.48C309.77 235.9 308.22 222.07 309.54 213.24V213.25Z" fill="#FF9B77" style="fill:#FF9B77;fill:color(display-p3 1.0000 0.6078 0.4667);fill-opacity:1;"/>
<path d="M314.56 118.65C291.47 108.35 273.51 102.61 254.36 116.36C244.83 123.21 236.92 132.59 231.8 144.09C230.86 146.19 230.04 148.31 229.33 150.45C225.28 148.76 220.97 149.82 219.6 152.88C218.2 156 220.42 160.03 224.54 161.86C225.19 162.15 225.84 162.36 226.5 162.51C225.93 166.54 225.74 170.57 225.89 174.56C225.92 175.25 228.31 175.56 228.36 176.25C228.4 176.83 226.09 177.79 226.14 178.36C228.38 202.2 243.06 224.17 266.49 234.63C290.51 245.34 317.42 241.12 336.77 225.95C345.27 219.28 346.12 208.22 350.83 197.66C366.25 163.08 349.15 134.07 314.57 118.65H314.56Z" fill="#FFE293" style="fill:#FFE293;fill:color(display-p3 1.0000 0.8863 0.5765);fill-opacity:1;"/>
<path d="M384 105.52C384 85.3002 367.61 68.9102 347.39 68.9102C327.17 68.9102 310.82 85.2502 310.78 105.44C290.97 100.54 270.37 104.87 254.37 116.37C258.86 124.75 266.72 132.18 276.99 136.78C282.67 139.32 288.5 140.73 294.15 141.11C295.6 152.98 303.05 163.82 314.76 169.07C315.24 169.29 315.73 169.49 316.22 169.69C316.35 174.92 317.7 180.02 320.11 184.6C319.74 185.28 319.39 185.96 319.07 186.67C312.55 201.25 319.07 218.35 333.65 224.87C334.65 225.32 335.65 225.7 336.67 226.03C345.22 219.35 352.3 210.55 357.02 199.96C365.74 180.41 364.57 158.95 355.65 141.2C371.89 137.45 384.01 122.91 384.01 105.53L384 105.52Z" fill="#2E1B7E" style="fill:#2E1B7E;fill:color(display-p3 0.1804 0.1059 0.4941);fill-opacity:1;"/>
<path d="M329.02 181.27C332.66 190.71 327.97 201.31 318.53 204.96C309.1 208.6 298.49 203.91 294.85 194.47C291.2 185.03 295.9 174.43 305.33 170.78C314.77 167.14 325.37 171.83 329.02 181.27Z" fill="#FFE293" style="fill:#FFE293;fill:color(display-p3 1.0000 0.8863 0.5765);fill-opacity:1;"/>
<path d="M312.78 198.89C311.97 198.89 311.15 198.8 310.34 198.6C309.33 198.36 308.71 197.35 308.95 196.35C309.19 195.34 310.19 194.72 311.21 194.95C312.98 195.37 314.81 195.07 316.36 194.11C317.91 193.15 318.99 191.65 319.41 189.88C320.27 186.22 318 182.55 314.34 181.68C313.33 181.44 312.71 180.43 312.95 179.43C313.19 178.42 314.19 177.8 315.2 178.03C317.95 178.68 320.28 180.35 321.76 182.75C323.24 185.15 323.71 187.98 323.06 190.73C322.41 193.48 320.74 195.81 318.34 197.29C316.65 198.33 314.74 198.87 312.8 198.87L312.78 198.89Z" fill="black" style="fill:black;fill-opacity:1;"/>
<path d="M266.01 142.53C265.01 144.26 267.26 147.45 271.05 149.65C274.83 151.86 278.72 152.25 279.73 150.52C280.74 148.79 278.48 145.6 274.69 143.4C270.9 141.19 267.01 140.81 266.01 142.53Z" fill="#2E1B7E" style="fill:#2E1B7E;fill:color(display-p3 0.1804 0.1059 0.4941);fill-opacity:1;"/>
<path d="M254.92 147.41C257.27 149.42 255.58 169.09 248.67 170.35C251.44 172.75 255.18 173.98 259.09 173.44C266.3 172.44 271.34 165.78 270.35 158.57C269.35 151.35 262.69 146.31 255.48 147.31C255.28 147.34 255.1 147.36 254.93 147.41H254.92Z" fill="white" style="fill:white;fill-opacity:1;"/>
<path d="M244.22 162.19C244.67 165.49 246.32 168.35 248.67 170.36C255.59 169.1 260.35 162.6 259.38 155.59C258.92 152.28 257.28 149.43 254.93 147.42C248.01 148.68 243.25 155.18 244.22 162.19Z" fill="black" style="fill:black;fill-opacity:1;"/>
<path d="M236.35 172.75C234.81 175.51 232.17 177.48 229.12 178.14C228.37 178.3 227.61 178.39 226.87 178.39C226.62 178.39 226.37 178.39 226.14 178.36C226.01 177.1 225.93 175.83 225.88 174.55C226.65 174.68 227.48 174.66 228.32 174.48C230.32 174.04 232.06 172.74 233.09 170.92C233.6 170.01 234.74 169.69 235.64 170.19C236.55 170.7 236.87 171.84 236.36 172.74L236.35 172.75Z" fill="black" style="fill:black;fill-opacity:1;"/>
<path d="M224.15 231.77L225.89 257.02L207.98 276.73C204.3 274.31 200.62 271.61 196.94 268.64C195.93 267.83 182.76 258.68 181.56 247.48C180.41 236.78 176.9 199.36 192.52 197.7C204.34 196.45 212.37 219.67 212.37 219.67C212.37 219.67 216.15 225.65 224.15 231.76V231.77Z" fill="#FFE293" style="fill:#FFE293;fill:color(display-p3 1.0000 0.8863 0.5765);fill-opacity:1;"/>
<path d="M332.49 258.66C331.29 264.59 327.83 269.96 322.93 273.5C316.09 278.46 302.57 286.84 284.54 291.07C283.95 291.21 283.09 290.23 282.5 290.36C281.86 290.5 281.49 291.74 280.84 291.86C275.07 292.99 268.89 293.67 262.35 293.68C262.29 293.68 261.48 292.16 260.83 292.15C260.19 292.15 258.93 293.67 258.29 293.65C254.22 293.51 250.1 293.06 245.97 292.32C245.28 292.2 244.47 290.96 243.77 290.82C243.02 290.67 242.39 291.61 241.63 291.44C236.38 290.24 231.18 288.59 226.16 286.54C225.62 286.31 225.53 285.27 224.99 285.04C224.39 284.78 223.32 285.33 222.72 285.06C217.51 282.7 212.54 279.9 207.97 276.74L224.14 231.77C225.37 232.71 226.69 233.65 228.12 234.57C228.82 235.03 229.28 236.55 230.03 237C230.65 237.36 231.56 236.64 232.21 237C233.66 237.78 235.18 238.54 236.79 239.24C237.43 239.52 237.67 240.7 238.34 240.96C238.85 241.16 239.77 240.46 240.29 240.65C243.36 241.78 246.68 242.74 250.28 243.43C271.66 248.83 289.37 237.6 294.3 234.03C297.86 231.3 301.78 229.84 305.72 229.44C306.35 229.38 307.09 230.45 307.71 230.44C308.33 230.43 308.84 229.34 309.46 229.37C311.9 229.52 314.3 230.05 316.58 230.91C317.15 231.12 317.29 232.97 317.85 233.22C318.47 233.5 319.5 232.2 320.1 232.53C329.01 237.46 335.13 247.52 332.49 258.66Z" fill="#FF9B77" style="fill:#FF9B77;fill:color(display-p3 1.0000 0.6078 0.4667);fill-opacity:1;"/>
<path d="M313.98 257.53C316.64 248.39 318.71 239.89 320.09 232.52C318.97 231.9 317.8 231.36 316.59 230.9C315.59 236.42 314.16 242.67 312.34 249.49C311.04 242.62 310 235.68 309.46 229.37C308.21 229.3 306.96 229.31 305.71 229.45C306.44 238.26 308.11 248.1 310.12 257.39C309.64 259 309.15 260.64 308.64 262.3C305.88 271.25 303.05 279.3 300.48 285.94C302.15 285.26 303.76 284.55 305.28 283.83C306.71 280.03 308.14 275.97 309.53 271.79C310.32 269.41 311.08 267.06 311.81 264.74C312.7 268.45 313.63 271.99 314.54 275.24C314.84 276.31 315.15 277.37 315.46 278.41C316.64 277.71 317.75 277.02 318.76 276.35C317.99 273.69 317.21 270.85 316.43 267.81C315.59 264.54 314.76 261.08 313.98 257.52V257.53ZM274.94 257.53C276.53 252.05 277.91 246.81 279.06 241.89C277.74 242.35 276.35 242.78 274.91 243.15C274.41 245.2 273.87 247.31 273.29 249.49C272.93 247.58 272.59 245.67 272.27 243.77C271.08 244.03 269.84 244.24 268.58 244.42C269.3 248.76 270.15 253.13 271.07 257.39C270.6 259 270.1 260.64 269.59 262.3C265.64 275.09 261.56 286.02 258.29 293.64C259.6 293.69 260.9 293.71 262.18 293.68H262.36C264.97 287.48 267.8 279.85 270.48 271.79C271.28 269.41 272.03 267.06 272.76 264.74C273.66 268.45 274.59 271.99 275.51 275.24C277.26 281.44 279.07 287.07 280.85 291.86C282.1 291.61 283.34 291.35 284.55 291.07C282.34 285.19 279.87 277.46 277.39 267.82C276.55 264.55 275.73 261.09 274.95 257.53H274.94ZM235.89 257.53C237.62 251.58 239.1 245.91 240.3 240.65C239.09 240.21 237.92 239.73 236.79 239.24C236.06 242.49 235.21 245.91 234.25 249.5C233.45 245.31 232.76 241.09 232.22 237C230.77 236.22 229.42 235.4 228.13 234.57C228.99 241.97 230.4 249.86 232.03 257.39C231.55 259 231.05 260.64 230.54 262.3C227.9 270.86 225.2 278.59 222.73 285.05C223.86 285.57 225.01 286.07 226.17 286.53C227.92 281.97 229.7 276.98 231.44 271.79C232.23 269.41 232.99 267.06 233.72 264.74C234.61 268.45 235.54 271.99 236.45 275.24C238.15 281.26 239.9 286.74 241.64 291.43C243.08 291.76 244.53 292.06 245.98 292.32C243.65 286.32 241 278.15 238.34 267.82C237.5 264.55 236.67 261.09 235.89 257.53Z" fill="#FF9B77" style="fill:#FF9B77;fill:color(display-p3 1.0000 0.6078 0.4667);fill-opacity:1;"/>
<path d="M266.81 295.82C265.61 295.82 264.46 295.8 263.33 295.77C246.4 295.23 234.02 291.13 233.51 290.95C232.53 290.62 232 289.56 232.33 288.58C232.66 287.6 233.72 287.07 234.7 287.4C235.19 287.56 283.88 303.44 317.99 275.3C318.79 274.64 319.97 274.75 320.63 275.55C321.29 276.35 321.18 277.53 320.38 278.19C303.01 292.52 282.26 295.83 266.81 295.83V295.82Z" fill="black" style="fill:black;fill-opacity:1;"/>
<path d="M262.83 246.13C255.38 246.13 250.47 244.58 250.11 244.46C249.13 244.14 248.59 243.08 248.91 242.1C249.23 241.11 250.29 240.58 251.27 240.9C251.41 240.95 265.82 245.44 282.64 238.34C283.59 237.94 284.69 238.39 285.1 239.34C285.5 240.29 285.06 241.39 284.1 241.8C276.1 245.17 268.68 246.13 262.83 246.13Z" fill="black" style="fill:black;fill-opacity:1;"/>
<path d="M9.07992 315.09H133.15C135.6 315.09 137.35 312.71 136.6 310.37L135.81 307.88L133.22 305.79L134.63 304.12L129.2 287L127.13 285.34L128.01 283.25L122.59 266.13L120.5 264.25L121.4 262.37L115.98 245.26L113.5 244.02L114.79 241.5L100.12 195.21L35.6799 200.23L24.4099 241.52L23.3799 245.25L18.7099 262.36L19.5499 264.68L17.6799 266.13L13.0099 283.23L14.2499 285.47L11.9799 286.98L7.30992 304.1L9.21992 305.72L6.28992 307.85L5.56992 310.48C4.93992 312.79 6.66992 315.06 9.06992 315.06L9.07992 315.09Z" fill="#7562DD" style="fill:#7562DD;fill:color(display-p3 0.4588 0.3843 0.8667);fill-opacity:1;"/>
<path d="M135.82 307.88H6.2998L7.3198 304.13H134.63L135.82 307.88Z" fill="#7562DD" style="fill:#7562DD;fill:color(display-p3 0.4588 0.3843 0.8667);fill-opacity:1;"/>
<path d="M129.21 287H12L13.02 283.25H128.01L129.2 287H129.21Z" fill="#7562DD" style="fill:#7562DD;fill:color(display-p3 0.4588 0.3843 0.8667);fill-opacity:1;"/>
<path d="M122.59 266.13H17.7002L18.7302 262.38H121.41L122.59 266.13Z" fill="#7562DD" style="fill:#7562DD;fill:color(display-p3 0.4588 0.3843 0.8667);fill-opacity:1;"/>
<path d="M143.39 152.87C142.03 149.81 137.71 148.76 133.66 150.44C132.95 148.3 132.12 146.18 131.19 144.08C126.06 132.59 118.16 123.2 108.63 116.36C89.4802 102.61 69.9602 109.88 46.8702 120.18C12.2902 135.6 -5.43983 163.08 9.99017 197.66C14.7202 208.25 17.7802 219.35 26.3302 226.03C45.6802 241.14 72.5302 245.34 96.5202 234.64C117.11 225.45 130.94 207.36 135.5 186.93C136.14 184.09 133.07 181.39 133.34 178.48C133.59 175.75 137.22 172.8 137.13 170.03C137.06 167.53 136.84 165.03 136.49 162.52C137.15 162.37 137.8 162.16 138.46 161.87C142.58 160.03 144.79 156.01 143.4 152.89L143.39 152.87Z" fill="#613325" style="fill:#613325;fill:color(display-p3 0.3804 0.2000 0.1451);fill-opacity:1;"/>
<path d="M108.63 116.37C104.14 124.75 96.28 132.19 86.01 136.78C80.33 139.32 74.49 140.73 68.85 141.11C67.4 152.98 59.95 163.82 48.23 169.07C47.75 169.29 47.26 169.49 46.77 169.69C46.65 174.92 45.3 180.02 42.88 184.6C43.25 185.28 43.6 185.96 43.92 186.67C50.45 201.25 43.92 218.35 29.34 224.87C28.34 225.32 27.34 225.7 26.32 226.03C17.77 219.35 10.69 210.55 5.96996 199.96C-9.46004 165.38 6.06996 124.85 40.65 109.42C63.74 99.1199 89.4799 102.62 108.63 116.38V116.37Z" fill="#FCB900" style="fill:#FCB900;fill:color(display-p3 0.9882 0.7255 0.0000);fill-opacity:1;"/>
<path d="M96.9799 142.53C97.9899 144.26 95.7299 147.45 91.9399 149.65C88.1499 151.86 84.2699 152.25 83.2599 150.52C82.2499 148.79 84.5099 145.6 88.2999 143.4C92.0899 141.19 95.9799 140.81 96.9799 142.53Z" fill="#FCB900" style="fill:#FCB900;fill:color(display-p3 0.9882 0.7255 0.0000);fill-opacity:1;"/>
<path d="M57.5599 170.76C67.0099 174.37 71.7499 184.95 68.1399 194.4C64.5299 203.85 53.9399 208.59 44.4899 204.98C35.0399 201.37 30.2999 190.79 33.9099 181.34C37.5199 171.89 48.1099 167.15 57.5499 170.76H57.5599Z" fill="#613325" style="fill:#613325;fill:color(display-p3 0.3804 0.2000 0.1451);fill-opacity:1;"/>
<path d="M50.22 198.89C45.43 198.89 41.08 195.6 39.94 190.74C39.3 187.99 39.76 185.16 41.24 182.76C42.73 180.36 45.05 178.68 47.8 178.04C48.81 177.8 49.82 178.43 50.05 179.44C50.29 180.45 49.66 181.45 48.66 181.69C46.89 182.11 45.38 183.19 44.43 184.74C43.47 186.29 43.18 188.12 43.59 189.89C44.45 193.55 48.13 195.82 51.78 194.96C52.79 194.72 53.8 195.35 54.04 196.36C54.27 197.37 53.65 198.37 52.65 198.61C51.84 198.8 51.03 198.9 50.23 198.9L50.22 198.89Z" fill="black" style="fill:black;fill-opacity:1;"/>
<path d="M108.06 147.41C105.71 149.42 107.4 169.09 114.31 170.35C111.54 172.75 107.8 173.98 103.89 173.44C96.6802 172.44 91.6302 165.78 92.6302 158.57C93.6302 151.35 100.29 146.31 107.5 147.31C107.7 147.34 107.88 147.36 108.05 147.41H108.06Z" fill="white" style="fill:white;fill-opacity:1;"/>
<path d="M118.77 162.19C118.32 165.49 116.67 168.35 114.32 170.36C107.4 169.1 102.64 162.6 103.61 155.59C104.07 152.28 105.71 149.43 108.06 147.42C114.98 148.68 119.74 155.18 118.77 162.19Z" fill="black" style="fill:black;fill-opacity:1;"/>
<path d="M135.49 186.92C134.01 186.06 132.35 184.87 130.74 183.24C128.19 180.66 126.78 178.01 126.01 176.26C128.08 175.55 130.67 174.45 133.42 172.71C134.81 171.83 136.04 170.92 137.11 170.02C137.28 175.75 136.72 181.42 135.49 186.93V186.92Z" fill="white" style="fill:white;fill-opacity:1;"/>
<path d="M68.8499 142.98C68.3499 142.98 67.8599 142.78 67.4899 142.39L60.8099 135.31C60.0999 134.56 60.1299 133.37 60.8899 132.66C61.6499 131.95 62.8299 131.98 63.5399 132.73L70.2199 139.81C70.9299 140.56 70.8999 141.75 70.1499 142.46C69.7899 142.8 69.3199 142.97 68.8599 142.97L68.8499 142.98Z" fill="black" style="fill:black;fill-opacity:1;"/>
<path d="M46.7702 171.55C46.3402 171.55 45.9002 171.4 45.5502 171.1L36.3602 163.21C35.5702 162.54 35.4802 161.35 36.1602 160.57C36.8302 159.78 38.0202 159.69 38.8002 160.37L47.9902 168.25C48.7802 168.93 48.8702 170.11 48.1902 170.9C47.8102 171.33 47.2902 171.55 46.7702 171.55Z" fill="black" style="fill:black;fill-opacity:1;"/>
<path d="M181.44 247.49C180.29 258.2 167.11 267.8 166.05 268.65C162.37 271.61 158.7 274.31 155.02 276.73L139.69 259.06L138.56 230.94C146.47 225.07 150.63 219.68 150.63 219.68C150.63 219.68 158.66 196.45 170.48 197.7C186.08 199.36 182.58 236.78 181.44 247.49Z" fill="#613325" style="fill:#613325;fill:color(display-p3 0.3804 0.2000 0.1451);fill-opacity:1;"/>
<path d="M155.01 276.74C151.31 279.19 147.61 281.36 143.94 283.26C142.4 284.05 139.47 284.08 137.94 284.78C136.77 285.31 136.99 286.53 135.82 287.01C132.07 288.53 128.35 289.76 124.65 290.7C116.31 292.81 108.33 293.69 100.82 293.69C87.2702 293.69 75.2402 290.81 65.2902 287.04C63.9502 286.53 66.5302 284.85 65.2602 284.32C63.6102 283.62 58.1402 284.05 56.6302 283.32C49.4002 279.84 43.7602 276.18 40.0702 273.5C37.2902 271.48 35.0702 268.99 33.4202 266.21C33.0702 265.62 36.6402 264.46 36.3502 263.85C36.0302 263.19 31.8502 263.08 31.5902 262.39C29.5402 256.97 29.4502 250.89 31.5102 245.33C31.7502 244.68 34.3602 244.31 34.6602 243.68C34.9602 243.04 32.9502 242.13 33.3102 241.51C33.7202 240.8 34.1702 240.11 34.6602 239.44C42.5702 228.55 57.8002 226.12 68.7002 234.03C70.9902 235.69 76.0602 239.02 82.9902 241.55C85.2902 242.39 87.2902 243.55 89.9702 244.13C96.5302 245.54 104.87 245.7 112.98 243.65C115.13 243.1 116.94 242.23 118.92 241.52C126.92 238.65 133.51 234.7 138.57 230.95L142.37 241.52L141.25 243.85L143.71 245.28L149.87 262.41L149.03 264.42L151.21 266.12L155.03 276.74H155.01Z" fill="#7562DD" style="fill:#7562DD;fill:color(display-p3 0.4588 0.3843 0.8667);fill-opacity:1;"/>
<path d="M143.94 283.25C141.22 284.65 138.51 285.91 135.81 287H65.2102C62.0902 285.82 59.1702 284.55 56.4902 283.25H143.94Z" fill="#7562DD" style="fill:#7562DD;fill:color(display-p3 0.4588 0.3843 0.8667);fill-opacity:1;"/>
<path d="M151.2 266.13H33.3701C32.6601 264.93 32.0601 263.67 31.5801 262.38H149.86L151.21 266.13H151.2Z" fill="#7562DD" style="fill:#7562DD;fill:color(display-p3 0.4588 0.3843 0.8667);fill-opacity:1;"/>
<path d="M143.7 245.27H31.52C31.99 243.99 32.59 242.73 33.3 241.52H82.87C90.82 244.44 101.23 246.33 112.69 243.43C114.84 242.87 116.91 242.23 118.88 241.52H142.35L143.7 245.27Z" fill="#7562DD" style="fill:#7562DD;fill:color(display-p3 0.4588 0.3843 0.8667);fill-opacity:1;"/>
<path d="M97.1898 295.82C81.7398 295.82 60.9898 292.52 43.6198 278.18C42.8198 277.52 42.7098 276.34 43.3698 275.54C44.0298 274.74 45.2098 274.63 46.0098 275.29C80.1598 303.46 128.81 287.56 129.3 287.39C130.28 287.06 131.34 287.59 131.67 288.57C132 289.55 131.47 290.62 130.49 290.95C129.97 291.13 117.6 295.23 100.67 295.77C99.5498 295.81 98.3898 295.82 97.1898 295.82Z" fill="black" style="fill:black;fill-opacity:1;"/>
<path d="M101.19 246.12C96.3602 246.12 90.4602 245.47 84.0502 243.35C83.0702 243.02 82.5302 241.96 82.8602 240.98C83.1802 240 84.2502 239.47 85.2302 239.79C100.39 244.8 112.61 240.93 112.73 240.89C113.71 240.57 114.77 241.11 115.09 242.09C115.41 243.07 114.87 244.13 113.89 244.45C113.56 244.55 108.65 246.11 101.19 246.11V246.12Z" fill="black" style="fill:black;fill-opacity:1;"/>
<path d="M181.42 251.54C180.38 251.54 179.54 250.7 179.54 249.66V208.7C179.54 207.66 180.38 206.82 181.42 206.82C182.46 206.82 183.3 207.66 183.3 208.7V249.66C183.3 250.7 182.46 251.54 181.42 251.54Z" fill="black" style="fill:black;fill-opacity:1;"/>
<path d="M205.02 92.4299C189.87 78.5799 180.06 104.64 180.06 104.64C180.06 104.64 170.25 78.5799 155.1 92.4299C139.58 106.62 172.59 132.17 179.01 136.9C179.63 137.36 180.49 137.36 181.12 136.9C187.53 132.17 220.54 106.62 205.02 92.4299Z" fill="#F34100" style="fill:#F34100;fill:color(display-p3 0.9529 0.2549 0.0000);fill-opacity:1;"/>
</g>
<defs>
<clipPath id="clip0_609_761">
<rect width="384" height="384" fill="white" style="fill:white;fill-opacity:1;"/>
</clipPath>
</defs>
</svg>
