<svg width="384" height="384" viewBox="0 0 384 384" fill="none" xmlns="http://www.w3.org/2000/svg">
<path d="M326.3 124.39C359.8 143.67 371.32 186.45 352.04 219.94C332.76 253.44 289.98 264.96 256.48 245.68C222.99 226.4 211.46 183.62 230.75 150.12C250.03 116.62 292.81 105.1 326.3 124.38V124.39Z" fill="#FFCBB8" style="fill:#FFCBB8;fill:color(display-p3 1.0000 0.7961 0.7216);fill-opacity:1;"/>
<path d="M373.38 174.28C372.41 173.63 371.4 173.07 370.38 172.58C370.84 172.01 371.28 171.42 371.7 170.8C379.03 159.83 376.08 144.99 365.11 137.66C360.58 134.63 355.39 133.36 350.34 133.68C350.48 125.82 346.75 118.05 339.73 113.35C332.71 108.66 324.1 108.18 316.89 111.33C315.25 106.54 312.1 102.23 307.57 99.21C296.6 91.88 281.76 94.83 274.43 105.8C274.01 106.42 273.64 107.05 273.29 107.7C272.45 106.94 271.54 106.23 270.57 105.58C259.6 98.25 244.77 101.2 237.43 112.17C230.1 123.14 233.05 137.98 244.01 145.31C254.98 152.64 269.82 149.69 277.15 138.72C277.56 138.1 277.94 137.47 278.29 136.82C279.13 137.58 280.04 138.29 281.01 138.94C288.03 143.63 296.64 144.1 303.85 140.96C305.49 145.75 308.64 150.05 313.17 153.08C317.7 156.11 322.89 157.38 327.94 157.06C327.8 164.92 331.53 172.69 338.55 177.38C339.52 178.03 340.53 178.59 341.55 179.09C341.09 179.66 340.65 180.25 340.23 180.87C332.9 191.84 335.85 206.68 346.82 214.01C357.79 221.34 372.63 218.39 379.96 207.42C387.29 196.45 384.34 181.61 373.37 174.28H373.38Z" fill="#F34100" style="fill:#F34100;fill:color(display-p3 0.9529 0.2549 0.0000);fill-opacity:1;"/>
<path d="M281.82 161.3C280.84 163.64 275.7 163.71 270.34 161.46C264.98 159.21 261.42 155.5 262.4 153.16C263.38 150.82 268.52 150.75 273.89 153C279.25 155.25 282.8 158.96 281.82 161.3Z" fill="black" style="fill:black;fill-opacity:1;"/>
<path d="M331.55 200.59C333.38 198.84 331.59 194.01 327.57 189.82C323.54 185.63 318.8 183.65 316.97 185.4C315.14 187.16 316.93 191.98 320.95 196.17C324.98 200.37 329.73 202.34 331.55 200.59Z" fill="black" style="fill:black;fill-opacity:1;"/>
<path d="M318.71 229.96C318.52 230.03 318.32 230.09 318.09 230.15C309.87 232.28 301.48 227.34 299.35 219.13C297.22 210.91 302.15 202.52 310.37 200.39C314.83 199.23 319.32 200.16 322.85 202.56C315.01 204.95 315.72 227.96 318.71 229.97V229.96Z" fill="white" style="fill:white;fill-opacity:1;"/>
<path d="M312.45 221.1C310.38 213.1 315.01 204.93 322.85 202.54C325.85 204.55 328.14 207.63 329.11 211.39C331.18 219.39 326.55 227.56 318.71 229.95C315.71 227.94 313.42 224.85 312.45 221.09V221.1Z" fill="black" style="fill:black;fill-opacity:1;"/>
<path d="M259.44 189.3C259.24 189.37 259.03 189.42 258.81 189.49C250.59 191.62 242.2 186.69 240.07 178.46C237.94 170.24 242.88 161.85 251.1 159.72C255.56 158.57 260.05 159.49 263.58 161.89C255.74 164.28 256.45 187.29 259.45 189.3H259.44Z" fill="white" style="fill:white;fill-opacity:1;"/>
<path d="M253.18 180.44C251.11 172.45 255.74 164.28 263.58 161.88C266.58 163.89 268.87 166.97 269.84 170.74C271.91 178.74 267.28 186.91 259.44 189.3C256.44 187.29 254.15 184.21 253.18 180.44Z" fill="black" style="fill:black;fill-opacity:1;"/>
<path d="M279.52 211.16C277.82 211.16 276.08 210.6 274.57 209.56C272.91 208.42 271.7 206.83 271.14 205.08C270.54 203.19 270.78 201.25 271.8 199.76C273.83 196.8 278.38 196.38 281.94 198.82C283.59 199.95 284.81 201.54 285.37 203.3C285.97 205.19 285.73 207.13 284.71 208.62C283.69 210.11 281.97 211.03 279.99 211.15C279.84 211.15 279.68 211.16 279.53 211.16H279.52ZM276.96 200.96C276.07 200.96 275.3 201.27 274.88 201.88C274.39 202.6 274.56 203.48 274.71 203.94C275.01 204.89 275.73 205.81 276.69 206.46C277.64 207.12 278.77 207.46 279.75 207.4C280.23 207.37 281.12 207.21 281.61 206.49C282.1 205.77 281.93 204.89 281.79 204.43C281.49 203.48 280.77 202.56 279.81 201.91C278.89 201.28 277.86 200.96 276.96 200.96Z" fill="black" style="fill:black;fill-opacity:1;"/>
<path d="M277.23 221.1C274.14 221.1 271.12 220.17 268.52 218.38C261.49 213.56 259.69 203.92 264.52 196.88C265.1 196.02 266.27 195.81 267.13 196.39C267.99 196.98 268.2 198.14 267.61 199C263.96 204.33 265.32 211.63 270.65 215.29C273.23 217.06 276.34 217.72 279.42 217.14C282.5 216.57 285.16 214.83 286.94 212.25C287.53 211.39 288.69 211.18 289.55 211.76C290.41 212.34 290.62 213.51 290.03 214.37C287.69 217.78 284.17 220.07 280.11 220.82C279.15 221 278.2 221.09 277.25 221.09L277.23 221.1Z" fill="black" style="fill:black;fill-opacity:1;"/>
<path d="M368.18 229.43C369.98 239.11 363.6 248.42 353.92 250.22C344.24 252.02 334.93 245.64 333.13 235.96C331.32 226.28 337.71 216.97 347.39 215.17C357.07 213.37 366.38 219.75 368.18 229.43Z" fill="#FFCBB8" style="fill:#FFCBB8;fill:color(display-p3 1.0000 0.7961 0.7216);fill-opacity:1;"/>
<path d="M343.62 240.21C342.86 240.21 342.15 239.75 341.87 239C339.81 233.56 342.56 227.45 348 225.39C353.44 223.33 359.55 226.08 361.61 231.52C361.98 232.49 361.49 233.57 360.52 233.94C359.56 234.31 358.47 233.82 358.1 232.85C357.46 231.15 356.19 229.8 354.53 229.06C352.87 228.31 351.03 228.26 349.33 228.9C347.63 229.54 346.28 230.81 345.54 232.47C344.79 234.13 344.74 235.97 345.38 237.67C345.75 238.64 345.26 239.72 344.29 240.09C344.08 240.17 343.85 240.21 343.63 240.21H343.62Z" fill="black" style="fill:black;fill-opacity:1;"/>
<path d="M240.77 137.59C245.92 145.98 243.29 156.96 234.9 162.1C226.51 167.25 215.53 164.62 210.38 156.23C205.23 147.84 207.86 136.86 216.25 131.71C224.64 126.56 235.62 129.19 240.77 137.58V137.59Z" fill="#FFCBB8" style="fill:#FFCBB8;fill:color(display-p3 1.0000 0.7961 0.7216);fill-opacity:1;"/>
<path d="M222.85 157.38C221.82 157.38 220.98 156.55 220.97 155.52C220.97 154.48 221.79 153.64 222.83 153.63C224.65 153.62 226.35 152.9 227.63 151.61C228.9 150.32 229.6 148.61 229.59 146.79C229.57 143.06 226.52 140.03 222.79 140.03C222.77 140.03 222.75 140.03 222.73 140.03C221.7 140.03 220.86 139.2 220.85 138.17C220.85 137.13 221.68 136.29 222.71 136.28C222.73 136.28 222.76 136.28 222.78 136.28C228.57 136.28 233.29 140.97 233.33 146.77C233.35 149.59 232.27 152.25 230.29 154.25C228.31 156.26 225.66 157.38 222.85 157.39H222.84L222.85 157.38Z" fill="black" style="fill:black;fill-opacity:1;"/>
<path d="M253.22 294.38L135.02 296.92L42.0898 294.38C40.5498 294.38 39.2998 293.13 39.2998 291.59V246.32C39.2998 244.78 40.5498 243.53 42.0898 243.53H67.8698L167.96 240.5L247.36 243.53H253.22C254.76 243.53 256.01 244.78 256.01 246.32V291.59C256.01 293.13 254.76 294.38 253.22 294.38Z" fill="#60D7E5" style="fill:#60D7E5;fill:color(display-p3 0.3765 0.8431 0.8980);fill-opacity:1;"/>
<path d="M224.71 282.05H70.5999C69.2699 282.05 68.1899 280.97 68.1899 279.64V258.26C68.1899 256.93 69.2699 255.85 70.5999 255.85H224.71C226.04 255.85 227.12 256.93 227.12 258.26V279.64C227.12 280.97 226.04 282.05 224.71 282.05Z" fill="#08A5B8" style="fill:#08A5B8;fill:color(display-p3 0.0314 0.6471 0.7216);fill-opacity:1;"/>
<path d="M235.02 162.62V168.17L227.57 184.83L235.02 214.51V218.48C235.02 221.14 232.86 223.3 230.2 223.3L171.27 226.19L118.27 223.3L113.82 191.32L118.27 157.81L154.42 153.94L226.67 157.81H230.19C232.85 157.81 235.01 159.97 235.01 162.62H235.02Z" fill="#60D7E5" style="fill:#60D7E5;fill:color(display-p3 0.3765 0.8431 0.8980);fill-opacity:1;"/>
<path d="M153.72 168.21H234.95V176.39L233.34 178.52L234.95 180.19V189.53L233.81 191.33L234.95 193.21V202.53L234.19 204.41L234.95 206.29V214.46H153.72C146.65 214.46 140.32 211.29 136.08 206.29C135.64 205.77 136.83 204.97 136.43 204.41C135.95 203.73 133.89 203.27 133.49 202.53C131.94 199.73 130.95 196.57 130.68 193.21C130.63 192.59 131.55 191.97 131.55 191.33C131.55 190.69 130.63 190.07 130.68 189.45C130.95 186.08 131.95 182.92 133.5 180.11C133.85 179.48 136.45 178.59 136.86 177.99C137.3 177.35 135.56 176.99 136.07 176.39C140.31 171.38 146.64 168.21 153.72 168.21Z" fill="#FFD257" style="fill:#FFD257;fill:color(display-p3 1.0000 0.8235 0.3412);fill-opacity:1;"/>
<path d="M234.95 202.52V206.27H136.08C135.1 205.11 134.23 203.86 133.49 202.52H234.95Z" fill="black" style="fill:black;fill-opacity:1;"/>
<path d="M234.95 176.39V180.14H133.49C134.23 178.8 135.1 177.54 136.08 176.39H234.95Z" fill="black" style="fill:black;fill-opacity:1;"/>
<path d="M234.95 189.45V193.2H130.68C130.63 192.59 130.61 191.95 130.61 191.32C130.61 190.69 130.63 190.06 130.68 189.44H234.95V189.45Z" fill="black" style="fill:black;fill-opacity:1;"/>
<path d="M118.27 157.8V223.3L91.6101 225.94L67.8601 223.3H42.9501C40.2901 223.3 38.1401 221.14 38.1401 218.48V162.62C38.1401 159.96 40.3001 157.81 42.9501 157.81H88.2601L99.6201 155.16L118.27 157.81V157.8Z" fill="#7562DD" style="fill:#7562DD;fill:color(display-p3 0.4588 0.3843 0.8667);fill-opacity:1;"/>
<path d="M102.22 208.02H54.19C52.28 208.02 50.73 206.47 50.73 204.55V176.55C50.73 174.63 52.28 173.08 54.19 173.08H102.22C104.13 173.08 105.69 174.63 105.69 176.55V204.55C105.69 206.46 104.14 208.02 102.22 208.02Z" fill="#FF9066" style="fill:#FF9066;fill:color(display-p3 1.0000 0.5647 0.4000);fill-opacity:1;"/>
<path d="M180.89 294.38L188.56 323.47L180.89 349.29H2.98C1.33 349.29 0 347.95 0 346.31V339.18L9.72 322.43L0 304.8V297.39C0 295.73 1.34 294.4 2.98 294.4H180.88L180.89 294.38Z" fill="#FF9066" style="fill:#FF9066;fill:color(display-p3 1.0000 0.5647 0.4000);fill-opacity:1;"/>
<path d="M147.66 338.89H0V329.8L1.77 327.91L0 326.02V317.79L1.29 315.79L0 313.91V304.8H147.66C154.21 304.8 159.9 308.49 162.75 313.91C163.13 314.62 161.68 315.02 161.96 315.79C162.14 316.29 164.06 317.14 164.19 317.65C164.53 318.99 164.71 320.4 164.71 321.85C164.71 323.3 164.53 324.71 164.19 326.05C164.03 326.69 161.95 327.09 161.72 327.7C161.48 328.33 163.08 329.17 162.76 329.77C159.91 335.2 154.22 338.9 147.66 338.9V338.89Z" fill="#FFD257" style="fill:#FFD257;fill:color(display-p3 1.0000 0.8235 0.3412);fill-opacity:1;"/>
<path d="M164.18 317.65H0V313.9H162.74C163.36 315.08 163.85 316.33 164.18 317.65Z" fill="black" style="fill:black;fill-opacity:1;"/>
<path d="M164.18 326.03C163.85 327.35 163.36 328.6 162.74 329.78H0V326.03H164.18Z" fill="black" style="fill:black;fill-opacity:1;"/>
<path d="M260.06 297.37V346.3C260.06 347.95 258.72 349.29 257.07 349.29H180.88V294.38H257.07C258.72 294.38 260.06 295.72 260.06 297.37Z" fill="#7562DD" style="fill:#7562DD;fill:color(display-p3 0.4588 0.3843 0.8667);fill-opacity:1;"/>
<path d="M217.66 309.78C224.32 316.44 224.32 327.23 217.66 333.89C211 340.55 200.21 340.55 193.55 333.89C186.89 327.23 186.89 316.44 193.55 309.78C200.21 303.12 211 303.12 217.66 309.78Z" fill="#FF9066" style="fill:#FF9066;fill:color(display-p3 1.0000 0.5647 0.4000);fill-opacity:1;"/>
<path d="M249.26 338.89H235.98C235.01 338.89 234.23 338.1 234.23 337.14V306.55C234.23 305.59 235.01 304.8 235.98 304.8H249.26C250.23 304.8 251.01 305.59 251.01 306.55V337.14C251.01 338.11 250.22 338.89 249.26 338.89Z" fill="#FF9066" style="fill:#FF9066;fill:color(display-p3 1.0000 0.5647 0.4000);fill-opacity:1;"/>
<path d="M233.41 131.28H63.76C62.66 131.28 61.77 130.39 61.77 129.29V109.13C61.77 108.03 62.66 107.14 63.76 107.14H233.41C234.51 107.14 235.4 108.03 235.4 109.13V129.29C235.4 130.39 234.51 131.28 233.41 131.28Z" fill="#FFD257" style="fill:#FFD257;fill:color(display-p3 1.0000 0.8235 0.3412);fill-opacity:1;"/>
<path d="M233.41 131.28H225.91L143.57 134.08L88.26 131.28H63.76C62.66 131.28 61.77 130.39 61.77 129.29V109.13C61.77 108.03 62.66 107.14 63.76 107.14H75.59L153.34 102.69L221.7 107.14H233.41C234.51 107.14 235.4 108.03 235.4 109.13V129.29C235.4 130.39 234.51 131.28 233.41 131.28Z" fill="#7562DD" style="fill:#7562DD;fill:color(display-p3 0.4588 0.3843 0.8667);fill-opacity:1;"/>
<path d="M245.98 243.55H237.79L235.77 242.05L234.04 243.55H218.15L216.35 242.05L214.41 243.55H198.53L196.64 242.05L194.77 243.55H178.88L176.74 242.05L175.15 243.55H159.27L157.09 242.05L155.51 243.55H139.63L137.92 242.05L135.88 243.55H120L118 242.05L116.25 243.55H100.37L98.4701 242.05L96.6101 243.55H80.7301L78.9201 242.05L76.9701 243.55H68.7701C67.5901 243.55 66.6401 242.59 66.6401 241.42V225.44C66.6401 224.26 67.6001 223.31 68.7701 223.31H76.9701L78.9701 224.81L80.7201 223.31H96.6001L98.4201 224.81L100.37 223.31H116.27L118.14 224.81L119.99 223.31H135.88L137.76 224.81L139.63 223.31H155.51L157.39 224.81L159.27 223.31H175.16L176.62 224.81L178.9 223.31H194.81L196.43 224.81L198.52 223.31H214.42L216.37 224.81L218.17 223.31H234.05L235.9 224.81L237.79 223.31H245.98C247.16 223.31 248.11 224.27 248.11 225.44V241.42C248.11 242.6 247.16 243.55 245.98 243.55Z" fill="#FFD257" style="fill:#FFD257;fill:color(display-p3 1.0000 0.8235 0.3412);fill-opacity:1;"/>
<path d="M80.7202 223.3H76.9702V243.55H80.7202V223.3Z" fill="#FF9066" style="fill:#FF9066;fill:color(display-p3 1.0000 0.5647 0.4000);fill-opacity:1;"/>
<path d="M100.36 223.3H96.6099V243.55H100.36V223.3Z" fill="#FF9066" style="fill:#FF9066;fill:color(display-p3 1.0000 0.5647 0.4000);fill-opacity:1;"/>
<path d="M119.99 223.3H116.24V243.55H119.99V223.3Z" fill="#FF9066" style="fill:#FF9066;fill:color(display-p3 1.0000 0.5647 0.4000);fill-opacity:1;"/>
<path d="M139.62 223.3H135.87V243.55H139.62V223.3Z" fill="#FF9066" style="fill:#FF9066;fill:color(display-p3 1.0000 0.5647 0.4000);fill-opacity:1;"/>
<path d="M159.25 223.3H155.5V243.55H159.25V223.3Z" fill="#FF9066" style="fill:#FF9066;fill:color(display-p3 1.0000 0.5647 0.4000);fill-opacity:1;"/>
<path d="M178.89 223.3H175.14V243.55H178.89V223.3Z" fill="#FF9066" style="fill:#FF9066;fill:color(display-p3 1.0000 0.5647 0.4000);fill-opacity:1;"/>
<path d="M198.52 223.3H194.77V243.55H198.52V223.3Z" fill="#FF9066" style="fill:#FF9066;fill:color(display-p3 1.0000 0.5647 0.4000);fill-opacity:1;"/>
<path d="M218.16 223.3H214.41V243.55H218.16V223.3Z" fill="#FF9066" style="fill:#FF9066;fill:color(display-p3 1.0000 0.5647 0.4000);fill-opacity:1;"/>
<path d="M237.79 223.3H234.04V243.55H237.79V223.3Z" fill="#FF9066" style="fill:#FF9066;fill:color(display-p3 1.0000 0.5647 0.4000);fill-opacity:1;"/>
<path d="M224.78 156.93L221.47 157.81H184.4L177.58 155.49L171.79 157.81H141.63L134.07 155.57L128.97 157.81H91.9199L89.0999 156.24C88.2299 156.24 88.0199 155.44 88.0199 154.56L86.6899 147.88V132.92C86.6899 132.05 87.3899 131.35 88.2599 131.35H103.52L109.81 132.85L117.34 131.35H149.83L156.47 132.85L163.59 131.35H196.05L203.36 132.85L209.87 131.35H225.11C225.98 131.35 226.68 132.05 226.68 132.92V147.9L225.49 155.35C225.49 156.22 225.66 156.93 224.8 156.93H224.78Z" fill="#08A5B8" style="fill:#08A5B8;fill:color(display-p3 0.0314 0.6471 0.7216);fill-opacity:1;"/>
<path d="M163.69 132.46C163.69 136.34 160.55 139.47 156.68 139.47C152.81 139.47 149.67 136.34 149.67 132.46C149.67 132.08 149.7 131.7 149.76 131.34H163.6C163.66 131.7 163.69 132.07 163.69 132.46Z" fill="#FFD257" style="fill:#FFD257;fill:color(display-p3 1.0000 0.8235 0.3412);fill-opacity:1;"/>
<path d="M117.43 132.46C117.43 136.34 114.3 139.47 110.43 139.47C106.56 139.47 103.42 136.34 103.42 132.46C103.42 132.08 103.45 131.7 103.51 131.34H117.35C117.41 131.7 117.44 132.07 117.44 132.46H117.43Z" fill="#FFD257" style="fill:#FFD257;fill:color(display-p3 1.0000 0.8235 0.3412);fill-opacity:1;"/>
<path d="M142.3 154.77C142.3 155.86 142.05 156.89 141.61 157.81H128.97C128.53 156.89 128.28 155.86 128.28 154.77C128.28 150.9 131.42 147.76 135.29 147.76C139.16 147.76 142.29 150.9 142.29 154.77H142.3Z" fill="#FFD257" style="fill:#FFD257;fill:color(display-p3 1.0000 0.8235 0.3412);fill-opacity:1;"/>
<path d="M92.5702 154.77C92.5702 155.86 92.3202 156.89 91.8802 157.81H88.2602C87.3902 157.81 86.6802 157.1 86.6802 156.23V147.84C90.0202 148.37 92.5702 151.27 92.5702 154.76V154.77Z" fill="#FFD257" style="fill:#FFD257;fill:color(display-p3 1.0000 0.8235 0.3412);fill-opacity:1;"/>
<path d="M209.93 132.46C209.93 136.34 206.79 139.47 202.92 139.47C199.05 139.47 195.91 136.34 195.91 132.46C195.91 132.08 195.94 131.7 196 131.34H209.84C209.9 131.7 209.93 132.07 209.93 132.46Z" fill="#FFD257" style="fill:#FFD257;fill:color(display-p3 1.0000 0.8235 0.3412);fill-opacity:1;"/>
<path d="M226.66 147.85V156.24C226.66 157.11 225.96 157.82 225.09 157.82H221.47C221.02 156.9 220.78 155.87 220.78 154.78C220.78 151.29 223.33 148.39 226.67 147.86L226.66 147.85Z" fill="#FFD257" style="fill:#FFD257;fill:color(display-p3 1.0000 0.8235 0.3412);fill-opacity:1;"/>
<path d="M185.07 154.77C185.07 155.86 184.82 156.89 184.38 157.81H171.74C171.3 156.89 171.05 155.86 171.05 154.77C171.05 150.9 174.19 147.76 178.06 147.76C181.93 147.76 185.07 150.9 185.07 154.77Z" fill="#FFD257" style="fill:#FFD257;fill:color(display-p3 1.0000 0.8235 0.3412);fill-opacity:1;"/>
<path d="M224.74 77.0902V102.52C224.74 105.07 222.67 107.14 220.12 107.14H195.98L191.74 105.08L187.51 107.14H109.65L105.11 105.11L101.19 107.14H77.0502C74.5002 107.14 72.4302 105.07 72.4302 102.52V77.0902C72.4302 74.5302 74.5002 72.4702 77.0502 72.4702H96.0802L98.7602 71.0902L101.19 72.4702L105.43 74.8302L109.67 72.4702L142.42 68.9902L187.5 72.4702L191.28 74.1602L195.98 72.4702H196.17L200.26 70.9002L205.05 72.4702H220.13C222.68 72.4702 224.75 74.5402 224.75 77.0902H224.74Z" fill="#FFD257" style="fill:#FFD257;fill:color(display-p3 1.0000 0.8235 0.3412);fill-opacity:1;"/>
<path d="M109.67 72.4702H101.19V107.15H109.67V72.4702Z" fill="#FF9066" style="fill:#FF9066;fill:color(display-p3 1.0000 0.5647 0.4000);fill-opacity:1;"/>
<path d="M195.97 72.4702H187.5V107.15H195.97V72.4702Z" fill="#FF9066" style="fill:#FF9066;fill:color(display-p3 1.0000 0.5647 0.4000);fill-opacity:1;"/>
<path d="M203.68 72.47H199.15L196.12 71.54L193.87 72.47H172.04L168.91 71.33L166.74 72.47H144.9L141.71 71.43L139.61 72.47H117.78L114.7 71.27L112.5 72.47H97.3602C95.7302 72.47 94.4102 71.15 94.4102 69.52V54.4L95.2701 52.36L94.4102 49.14V37.66C94.4102 36.03 95.7302 34.71 97.3602 34.71H101.92L105.03 35.57L107.18 34.71H129.01L132.07 35.76L134.31 34.71H156.16L159.66 35.73L161.44 34.71H183.3L186.86 35.75L188.57 34.71H203.7C205.33 34.71 206.65 36.03 206.65 37.66V52.8L205.81 54.84L206.65 58.08V69.51C206.65 71.14 205.33 72.47 203.7 72.47H203.68Z" fill="#60D7E5" style="fill:#60D7E5;fill:color(display-p3 0.3765 0.8431 0.8980);fill-opacity:1;"/>
<path d="M117.77 72.4598H112.47L94.3799 54.3698V49.0698L117.77 72.4598Z" fill="#08A5B8" style="fill:#08A5B8;fill:color(display-p3 0.0314 0.6471 0.7216);fill-opacity:1;"/>
<path d="M144.91 72.46H139.61L101.86 34.71H107.15L144.9 72.46H144.91Z" fill="#08A5B8" style="fill:#08A5B8;fill:color(display-p3 0.0314 0.6471 0.7216);fill-opacity:1;"/>
<path d="M172.03 72.46H166.73L128.98 34.71H134.29L172.04 72.46H172.03Z" fill="#08A5B8" style="fill:#08A5B8;fill:color(display-p3 0.0314 0.6471 0.7216);fill-opacity:1;"/>
<path d="M199.17 72.46H193.87L156.11 34.71H161.4L199.17 72.46Z" fill="#08A5B8" style="fill:#08A5B8;fill:color(display-p3 0.0314 0.6471 0.7216);fill-opacity:1;"/>
<path d="M206.63 52.8V58.1L183.24 34.71H188.55L206.64 52.8H206.63Z" fill="#08A5B8" style="fill:#08A5B8;fill:color(display-p3 0.0314 0.6471 0.7216);fill-opacity:1;"/>
<path d="M249.49 309.04C249.49 305.47 252.38 302.57 255.96 302.57C252.39 302.57 249.49 299.68 249.49 296.1C249.49 292.53 252.39 289.63 255.96 289.63C252.39 289.63 249.49 286.74 249.49 283.17C249.49 279.6 252.39 276.7 255.95 276.7C252.38 276.7 249.48 273.81 249.48 270.23C249.48 266.66 252.37 263.76 255.95 263.76H270.88C280.7 263.76 288.66 271.71 288.66 281.53V297.72C288.66 307.54 280.71 315.5 270.89 315.5H255.96C252.39 315.5 249.49 312.61 249.49 309.04Z" fill="#FFCBB8" style="fill:#FFCBB8;fill:color(display-p3 1.0000 0.7961 0.7216);fill-opacity:1;"/>
<path d="M257.64 278.58C256.6 278.58 255.76 277.74 255.76 276.7C255.76 275.66 256.6 274.82 257.63 274.82H272.4C273.44 274.82 274.28 275.65 274.28 276.69C274.28 277.73 273.44 278.57 272.4 278.57H257.64V278.58Z" fill="black" style="fill:black;fill-opacity:1;"/>
<path d="M257.64 291.48C256.6 291.48 255.77 290.64 255.77 289.6C255.77 288.56 256.61 287.72 257.64 287.72H272.4C273.44 287.72 274.28 288.56 274.28 289.59C274.28 290.62 273.44 291.47 272.4 291.47H257.64V291.48Z" fill="black" style="fill:black;fill-opacity:1;"/>
<path d="M257.64 304.38C256.6 304.38 255.77 303.54 255.77 302.5C255.77 301.46 256.61 300.62 257.64 300.62H272.41C273.45 300.62 274.29 301.45 274.29 302.49C274.29 303.53 273.45 304.37 272.41 304.37H257.65L257.64 304.38Z" fill="black" style="fill:black;fill-opacity:1;"/>
</svg>
