<svg width="384" height="384" viewBox="0 0 384 384" fill="none" xmlns="http://www.w3.org/2000/svg">
<g clip-path="url(#clip0_634_2793)">
<path d="M161.06 278.32L104.63 376.43C102.68 379.82 98.3401 380.97 94.9701 378.98L10.4501 329.08C7.17011 327.14 6.03011 322.95 7.88011 319.62L67.7801 214.63L161.07 278.32H161.06Z" fill="#8E4F3E" style="fill:#8E4F3E;fill:color(display-p3 0.5569 0.3098 0.2431);fill-opacity:1;"/>
<path d="M251.56 14.6901L302.07 289.85C302.95 294.67 299.77 299.28 294.95 300.17L117.13 332.81C112.32 333.69 107.7 330.51 106.81 325.69L56.3199 50.5201C55.4299 45.7001 58.6198 41.0901 63.4398 40.2001L241.25 7.57012C246.07 6.69012 250.68 9.87012 251.57 14.6901H251.56Z" fill="#FFD257" style="fill:#FFD257;fill:color(display-p3 1.0000 0.8235 0.3412);fill-opacity:1;"/>
<path d="M115.53 340.37C115.04 340.37 114.55 340.35 114.07 340.3C113.11 340.21 111.91 338.6 111 338.35C110.37 338.18 110.01 339.41 109.41 339.16C107.22 338.27 105.25 336.91 103.63 335.18C102.92 334.42 103.46 332.45 102.9 331.55C102.48 330.87 100.92 331.3 100.6 330.55C100.12 329.44 99.7603 328.25 99.5303 327.01L94.9103 301.8L94.1403 289.36L90.4803 277.66L57.3603 97.3503L57.6103 90.9003L55.5803 87.6303L49.0103 51.8603C48.2503 47.7103 49.1003 43.5103 51.4103 39.9903C51.4803 39.8803 53.2103 40.1803 53.5703 39.7603C54.1003 39.1403 53.7303 37.1603 54.3403 36.6303C56.3703 34.8603 58.8103 33.6203 61.4903 33.0303C61.6903 32.9903 63.4103 34.9103 63.4103 34.9103L65.1803 32.3403L88.1503 28.1303L90.2903 29.3903L91.7903 27.4603L99.6103 26.0303L101.57 27.5003L103.3 25.3603L126.13 21.1703L128.11 22.0403L129.75 20.5003L137.71 19.0403L139.51 19.9703L141.39 18.3703L164.12 14.1903L166.3 15.4203L167.73 13.5303L175.83 12.0503L177.54 13.0003L179.53 11.3803L202.09 7.24034L203.97 8.13034L205.7 6.58034L213.93 5.07034L215.59 6.66034L217.56 4.41034L239.91 0.270338C239.96 0.260338 240.01 0.250338 240.06 0.240338C240.64 0.140338 241.27 1.52034 241.85 1.48034C242.5 1.44034 243.1 -0.0196617 243.74 0.0203383C246.79 0.190338 249.69 1.22034 252.12 2.91034C252.83 3.40034 252.96 5.68034 253.59 6.28034C254.17 6.84034 255.25 5.71034 255.75 6.36034C257.28 8.34034 258.38 10.7103 258.86 13.3403C258.86 13.3403 262.42 32.7303 267.64 61.2103C267.93 62.7903 266.91 63.4903 267.21 65.1303C267.53 66.8503 269.16 69.5103 269.49 71.2903C276.13 107.5 284.84 154.94 292.42 196.24C292.67 197.58 291.76 198.18 292.01 199.51C292.28 200.98 293.7 203.17 293.96 204.62C302.56 251.5 309.35 288.51 309.35 288.51C310.13 292.79 309.21 297.12 306.74 300.69C304.27 304.27 300.55 306.67 296.27 307.46L217.06 322L214.87 321.64L213.15 322.71L189.93 326.97L187.71 326.36L186.15 327.67L178.81 329.02L176.8 328.31L174.92 329.73L152.12 333.91L149.92 333.44L148.34 334.6L140.54 336.03L138.42 335.19L136.63 336.75L118.45 340.09C117.46 340.27 116.48 340.36 115.5 340.36L115.53 340.37ZM242.85 14.8503C242.76 14.8503 242.67 14.8503 242.59 14.8703L217.29 19.5103L215.35 18.3003L213.64 20.1803L209.57 20.9303L207.67 19.9603L205.95 21.5903L179.19 26.5003L177.54 25.1203L175.43 27.1903L171.71 27.8703L169.39 26.8203L168.02 28.5503L141.06 33.5003L139.13 31.3703L137.22 34.2003L133.85 34.8203L131.36 33.3603L130.17 35.5003L102.85 40.5203L100.86 39.0003L99.1503 41.1903L95.8903 41.7903L93.9403 40.4103L92.1803 42.4603L64.7603 47.4903C64.7603 47.4903 64.0403 47.1203 64.0003 47.1303C63.5903 47.2403 62.1603 48.3503 62.2503 48.8303L64.2503 52.6703L68.3803 75.1803L67.3203 78.9103L70.9003 88.8703L79.9703 138.27L83.5303 159.39L86.1703 172.04L93.6603 212.84L93.4303 217.3L95.8903 225L104.27 270.66L104.29 281.18L107.59 288.73L114.13 324.33C114.27 325.11 115.02 325.63 115.81 325.49L139.17 321.2L142.58 321.58L145.86 319.97L177.38 314.18L179.88 314.72L183.68 313.02L215.64 307.15L218.57 307.63L221.55 306.06L293.62 292.83C294.1 292.74 294.39 292.45 294.55 292.23C294.71 292 294.87 291.64 294.78 291.15L273.19 173.54L271.54 159.27L265.32 130.66L263.97 123.33L262.96 112.75L261.46 109.63L250.79 51.5103L251.02 44.7303L248.84 40.8903L244.27 15.9803C244.14 15.2803 243.53 14.8003 242.85 14.8003V14.8503Z" fill="#60D7E5" style="fill:#60D7E5;fill:color(display-p3 0.3765 0.8431 0.8980);fill-opacity:1;"/>
<path d="M109.65 330.74C108.31 327.68 106.94 324.43 105.6 321.08C107.12 308.51 107.78 297.24 107.53 288.46L104.27 270.66C102.13 266.73 99.31 266.1 96.97 266.48C92.73 267.18 90.55 270.93 90.46 277.65L94.87 301.67C96.82 308.23 99.25 315.06 101.82 321.56C101.61 323.22 101.39 324.89 101.16 326.6C100.98 327.94 100.79 329.26 100.6 330.56C101.35 332.29 102.39 333.85 103.64 335.2C104 332.93 104.34 330.7 104.66 328.49C106.13 331.97 107.6 335.27 109.02 338.3C109.16 338.6 109.31 338.89 109.44 339.19C110.91 339.79 112.48 340.18 114.09 340.33C112.67 337.41 111.19 334.22 109.67 330.76L109.65 330.74ZM102.71 313.49C98.02 300.64 94.29 287.39 94.16 278.56C94.09 273.36 95.23 270.52 97.57 270.14C97.74 270.12 97.92 270.1 98.11 270.1C99.02 270.1 100.11 270.56 101.18 272.7C104.19 278.66 104.7 293.51 102.72 313.5L102.71 313.49ZM147.78 324.46C147.14 323.01 146.5 321.51 145.86 319.99L139.15 321.21C138.38 326.77 137.53 332 136.66 336.76L140.56 336.04C140.95 333.88 141.32 331.68 141.67 329.44C142.06 327 142.43 324.58 142.76 322.2C144.24 325.67 145.71 328.98 147.12 332.01C147.54 332.89 147.94 333.76 148.36 334.61L152.14 333.92C150.74 331.03 149.28 327.88 147.78 324.46ZM185.9 318.2C185.17 316.53 184.43 314.81 183.69 313.04L177.38 314.2C176.62 319.74 175.79 324.96 174.92 329.74L178.8 329.03C179.55 324.84 180.25 320.43 180.89 315.94C182.36 319.42 183.83 322.72 185.25 325.75C185.56 326.41 185.85 327.04 186.16 327.68L189.94 326.99C188.64 324.29 187.28 321.36 185.9 318.2ZM224.03 311.93C223.21 310.05 222.37 308.1 221.54 306.1L215.62 307.18C215.59 307.39 215.57 307.59 215.54 307.8C214.81 313.1 214.01 318.11 213.19 322.72L217.08 322.01C217.38 320.34 217.66 318.64 217.94 316.92C218.33 314.47 218.69 312.05 219.03 309.67C220.51 313.15 221.98 316.46 223.39 319.48C223.59 319.9 223.78 320.32 223.98 320.73L227.76 320.04C226.56 317.52 225.32 314.82 224.04 311.92L224.03 311.93Z" fill="#60D7E5" style="fill:#60D7E5;fill:color(display-p3 0.3765 0.8431 0.8980);fill-opacity:1;"/>
<path d="M93.6593 212.88C91.9993 209.53 90.2493 205.79 88.4293 201.66C87.0793 198.6 85.7193 195.35 84.3893 192C85.2593 184.82 85.8393 178.06 86.1393 171.94L79.9393 138.12C78.5293 137.29 77.0693 137.18 75.7493 137.4C73.9493 137.69 71.5393 138.78 70.2193 142.28C66.8893 151.12 72.5593 172.32 80.5693 192.61C80.3693 194.22 80.1593 195.85 79.9293 197.52C79.3393 201.87 78.6893 206.02 78.0193 209.93L79.8993 220.18C80.7493 215.93 81.5793 211.36 82.3293 206.65C82.7193 204.24 83.0693 201.86 83.4093 199.52C87.4493 209.05 91.8593 218.03 95.8893 225L93.6693 212.89L93.6593 212.88ZM81.4993 184.42C76.7993 171.57 73.0693 158.31 72.9393 149.48C72.8593 144.28 74.0093 141.45 76.3493 141.07C76.5193 141.04 76.6993 141.03 76.8793 141.03C77.7893 141.03 78.8793 141.49 79.9493 143.62C82.9693 149.58 83.4793 164.43 81.4993 184.43V184.42ZM292.439 196.27C288.869 190.67 284.229 182.06 279.059 170.33C277.719 167.27 276.349 164.02 275.019 160.67C277.719 138.19 278.259 115.47 272.559 108.53C270.919 106.53 268.779 105.67 266.379 106.08C264.179 106.44 262.529 107.62 261.439 109.63L264.049 123.8C263.759 121.78 263.599 119.88 263.569 118.16C263.489 112.96 264.639 110.12 266.979 109.74C267.139 109.71 267.319 109.7 267.509 109.7C268.419 109.7 269.509 110.16 270.579 112.3C273.589 118.26 274.099 133.1 272.119 153.1C269.289 145.35 266.809 137.46 265.269 130.47C265.269 130.47 269.369 152.4 270.679 159.8C270.939 161.25 273.199 173.73 273.199 173.73C273.499 171.87 273.779 169.98 274.049 168.08C275.529 171.56 276.999 174.86 278.409 177.89C282.429 186.46 286.359 193.78 289.819 199.05C291.419 201.49 292.789 203.29 293.959 204.59L292.439 196.28V196.27Z" fill="#60D7E5" style="fill:#60D7E5;fill:color(display-p3 0.3765 0.8431 0.8980);fill-opacity:1;"/>
<path d="M68.3897 75.2202C67.9997 74.3602 67.6097 73.4901 67.2197 72.5901C65.8797 69.5301 64.5097 66.2902 63.1797 62.9302C63.5997 59.4102 63.9597 55.9802 64.2597 52.6802L63.6097 49.1802C63.5197 48.7002 63.6897 48.3202 63.8397 48.1002C63.9797 47.8902 64.2297 47.6302 64.6597 47.5302C65.0397 41.9802 65.2097 36.8702 65.1497 32.3502L62.0997 32.9002C61.8897 32.9402 61.6697 32.9802 61.4597 33.0302C61.5197 39.3602 61.1297 46.8902 60.2897 55.3402C57.9797 49.0002 55.8997 42.5702 54.3697 36.6202C53.3497 37.5002 52.4397 38.5302 51.6397 39.6802C51.5697 39.7902 51.4997 39.8802 51.4297 39.9802C53.5197 47.5902 56.3597 55.7302 59.3897 63.4102C59.1797 65.0602 58.9597 66.7401 58.7297 68.4501C57.7697 75.4301 56.6897 81.9102 55.5897 87.6502L57.3697 97.3602C58.6897 91.4802 59.9797 84.6802 61.1197 77.5702C61.5097 75.1202 61.8697 72.7002 62.2097 70.3202C63.6797 73.8002 65.1597 77.1101 66.5697 80.1301C68.0397 83.2501 69.4897 86.2202 70.9197 88.9802L68.3897 75.2102V75.2202ZM91.7797 27.4602L88.1297 28.1302C89.1797 32.6802 90.5797 37.5502 92.1997 42.4702L95.8797 41.8002C94.2497 36.8602 92.8297 31.9802 91.7797 27.4602ZM103.27 25.3502L99.5797 26.0202C99.6497 30.4902 99.4797 35.5802 99.0797 41.2002L102.83 40.5202C103.21 34.9502 103.35 29.8502 103.27 25.3502ZM129.74 20.4902L126.1 21.1602C127.11 25.7102 128.49 30.5702 130.09 35.5102L133.77 34.8402C132.15 29.8702 130.76 25.0002 129.74 20.4902ZM141.38 18.3502L137.69 19.0302C137.78 23.4802 137.63 28.5702 137.25 34.2002L141 33.5102C141.35 27.9302 141.48 22.8302 141.37 18.3602L141.38 18.3502ZM167.71 13.5202L164.08 14.1902C165.03 18.6702 166.37 23.5302 167.96 28.5602L171.68 27.8802C170.07 22.9002 168.7 18.0102 167.71 13.5202ZM179.49 11.3502L175.8 12.0302C175.92 16.4502 175.8 21.5502 175.44 27.1902L179.18 26.5002C179.52 20.9102 179.63 15.8002 179.49 11.3502ZM205.69 6.54016L202.05 7.21016C202.97 11.6802 204.28 16.5502 205.86 21.6002L209.57 20.9202C207.97 15.9102 206.62 11.0202 205.68 6.54016H205.69ZM217.55 4.37016L213.9 5.04016C214.05 9.44016 213.94 14.5202 213.6 20.1802L217.33 19.4902C217.63 14.1002 217.72 8.97016 217.54 4.37016H217.55ZM267.64 61.1702C264.74 56.0102 261.43 49.3802 257.85 41.2602C256.51 38.2002 255.14 34.9502 253.8 31.6002C254.92 22.3102 255.57 13.7302 255.74 6.35016C254.71 5.01016 253.47 3.84016 252.09 2.89016C252.09 8.97016 251.7 16.0902 250.91 24.0102C247.9 15.7602 245.28 7.34016 243.76 0.0301562C242.53 -0.0398438 241.28 0.0301563 240.02 0.240156C240.99 5.06016 242.42 10.2902 244.13 15.6302C244.17 15.7902 244.22 15.9502 244.28 16.1202C245.99 21.4502 247.96 26.8702 250.02 32.0802C249.81 33.7302 249.59 35.4102 249.36 37.1202C249.19 38.3802 249.01 39.6302 248.83 40.8602L250.83 51.7502C251.14 49.9502 251.45 48.1102 251.75 46.2502C252.15 43.8002 252.51 41.3802 252.85 39.0002C254.32 42.4802 255.8 45.7902 257.21 48.8102C261.22 57.3802 265.17 64.7002 268.62 69.9702C268.92 70.4302 269.21 70.8702 269.5 71.2802L267.64 61.1702Z" fill="#60D7E5" style="fill:#60D7E5;fill:color(display-p3 0.3765 0.8431 0.8980);fill-opacity:1;"/>
<path d="M198.85 255.82C204.86 257.64 208.26 263.99 206.44 270C204.62 276.01 198.27 279.41 192.26 277.59C186.25 275.77 182.86 269.43 184.67 263.41C186.49 257.4 192.84 254.01 198.85 255.82Z" fill="#392092" style="fill:#392092;fill:color(display-p3 0.2235 0.1255 0.5725);fill-opacity:1;"/>
<path d="M117.62 196.08C116.74 196.08 115.96 195.46 115.8 194.56C115.62 193.55 116.28 192.58 117.29 192.4L244.94 168.97C245.95 168.78 246.91 169.45 247.1 170.46C247.28 171.47 246.62 172.44 245.61 172.62L117.96 196.05C117.85 196.07 117.73 196.08 117.62 196.08Z" fill="black" style="fill:black;fill-opacity:1;"/>
<path d="M127.26 248.57C126.39 248.57 125.6 247.94 125.44 247.05C125.26 246.04 125.92 245.07 126.93 244.89L254.59 221.46C255.6 221.28 256.56 221.94 256.75 222.95C256.93 223.96 256.27 224.93 255.26 225.11L127.61 248.54C127.5 248.56 127.38 248.57 127.27 248.57H127.26Z" fill="black" style="fill:black;fill-opacity:1;"/>
<path d="M122.44 222.32C121.56 222.32 120.78 221.7 120.62 220.8C120.44 219.79 121.11 218.82 122.11 218.64L249.76 195.21C250.77 195.02 251.74 195.69 251.92 196.7C252.1 197.71 251.44 198.68 250.43 198.86L122.77 222.29C122.66 222.31 122.54 222.32 122.43 222.32H122.44Z" fill="black" style="fill:black;fill-opacity:1;"/>
<path d="M376.76 347.2L338.74 236.48L329.16 207.98C326.8 200.38 318.73 196.11 311.13 198.51C304.81 200.48 300.83 206.4 301.02 212.71C298.62 205.17 290.59 200.96 283.02 203.33C276.02 205.51 271.88 212.54 273.13 219.58C270.69 212.1 262.7 207.92 255.17 210.29C250.24 211.83 246.74 215.77 245.52 220.42L236.62 191.82C234.26 184.22 226.19 179.96 218.59 182.35C211 184.71 206.75 192.79 209.12 200.38L230.43 268.86L231.57 272.56L223.69 314.21C222.57 323.5 225.54 332.82 231.85 339.74L260.31 365.97L264.85 380.73C265.6 383.16 268.16 384.53 270.6 383.81L373.7 353.15C376.22 352.4 377.62 349.7 376.76 347.2Z" fill="#8E4F3E" style="fill:#8E4F3E;fill:color(display-p3 0.5569 0.3098 0.2431);fill-opacity:1;"/>
<path d="M254.47 248.96C253.68 248.96 252.95 248.46 252.7 247.67L244.42 221.69C244.11 220.71 244.65 219.67 245.63 219.36C246.6 219.05 247.65 219.59 247.96 220.56L256.24 246.54C256.55 247.52 256.01 248.56 255.03 248.87C254.84 248.93 254.65 248.96 254.47 248.96Z" fill="black" style="fill:black;fill-opacity:1;"/>
<path d="M280.03 240.32C279.24 240.32 278.51 239.82 278.26 239.03L269.99 213.05C269.68 212.07 270.22 211.03 271.19 210.72C272.16 210.41 273.21 210.95 273.52 211.93L281.79 237.91C282.1 238.89 281.56 239.93 280.59 240.24C280.4 240.3 280.21 240.33 280.03 240.33V240.32Z" fill="black" style="fill:black;fill-opacity:1;"/>
<path d="M308.91 235.35C308.12 235.35 307.39 234.85 307.14 234.06L298.86 208.08C298.55 207.1 299.09 206.06 300.07 205.75C301.04 205.44 302.09 205.98 302.4 206.95L310.67 232.94C310.98 233.92 310.44 234.96 309.47 235.27C309.28 235.33 309.09 235.36 308.9 235.36L308.91 235.35Z" fill="black" style="fill:black;fill-opacity:1;"/>
<path d="M246.24 321.07C245.44 321.07 244.69 320.54 244.46 319.72L231.02 272.72C230.74 271.74 231.31 270.71 232.29 270.43C233.27 270.15 234.3 270.72 234.58 271.7L248.02 318.7C248.3 319.68 247.73 320.71 246.75 320.99C246.58 321.04 246.41 321.06 246.24 321.06V321.07Z" fill="black" style="fill:black;fill-opacity:1;"/>
<path d="M46.4302 305.58C49.2002 308.87 53.1802 311.14 57.7902 311.64C67.2802 312.67 81.5202 312.51 82.5502 303.02C85.7602 298.12 93.9602 284.2 93.1202 264.99C92.4702 250.15 86.7402 239.31 83.5902 234.21C84.9402 221.78 86.2902 209.35 87.6402 196.93C88.6702 187.44 81.8202 178.91 72.3202 177.88C62.8302 176.85 54.3002 183.71 53.2702 193.2L42.4802 292.6C41.9502 297.48 43.5002 302.11 46.4302 305.59V305.58Z" fill="#8E4F3E" style="fill:#8E4F3E;fill:color(display-p3 0.5569 0.3098 0.2431);fill-opacity:1;"/>
<path d="M82.5501 304.88C82.2001 304.88 81.8401 304.78 81.5301 304.57C80.6801 304 80.4401 302.85 81.0101 302C84.7801 296.31 91.1401 284.39 91.3301 268.55C91.5301 251.75 84.7501 239.16 80.6901 233.15C80.4401 232.78 80.3301 232.33 80.3901 231.88L84.7401 197.83C84.8701 196.81 85.7901 196.1 86.8101 196.23C87.8301 196.36 88.5401 197.29 88.4201 198.3L84.1501 231.66C88.4801 238.24 95.2401 251.31 95.0301 268.6C94.8401 284.55 88.9801 296.68 84.0901 304.05C83.7301 304.59 83.1401 304.88 82.5401 304.88H82.5501Z" fill="black" style="fill:black;fill-opacity:1;"/>
<path d="M210.93 55.752L226.729 143.907C227.59 148.711 224.42 153.302 219.637 154.22L160.708 153.85L131.6 169.999C126.788 170.81 122.231 167.604 121.368 162.791L105.568 74.6353C104.702 69.8023 107.918 65.1826 112.76 64.3147L200.611 48.5698C205.444 47.7036 210.073 50.9173 210.939 55.7502L210.93 55.752Z" fill="#614CD8" style="fill:#614CD8;fill:color(display-p3 0.3804 0.2980 0.8471);fill-opacity:1;"/>
<path d="M153.406 127.851C154.849 135.903 149.521 143.584 141.489 145.023C133.457 146.463 125.792 141.111 124.349 133.059C122.906 125.007 128.245 117.325 136.267 115.887C144.289 114.45 151.965 119.809 153.406 127.851Z" fill="black" style="fill:black;fill-opacity:1;"/>
<path d="M213.598 117.063C215.041 125.115 209.702 132.797 201.68 134.235C193.658 135.673 185.984 130.323 184.541 122.271C183.098 114.219 188.436 106.537 196.458 105.099C204.48 103.661 212.156 109.021 213.598 117.063Z" fill="black" style="fill:black;fill-opacity:1;"/>
<path d="M219.627 154.222L131.6 169.999C136.416 146.419 146.063 132.398 146.605 131.62C150.004 125.931 156.883 124.119 161.435 126.564C162.413 127.09 163.284 127.808 164.027 128.67L174.855 126.729C175.253 125.662 175.808 124.679 176.554 123.854C179.975 119.98 187.054 119.291 192.218 123.445C193.005 123.984 206.911 133.775 219.617 154.224L219.627 154.222Z" fill="#FF571A" style="fill:#FF571A;fill:color(display-p3 1.0000 0.3412 0.1020);fill-opacity:1;"/>
<path d="M197.797 97.5444C201.045 115.666 189.032 132.987 170.96 136.226C152.888 139.464 135.597 127.395 132.35 109.274C131.972 107.168 131.8 105.075 131.826 103.008C134.804 92.4167 143.808 76.6715 159.773 73.81C175.739 70.9486 189.913 80.0814 196.112 91.4867C196.844 93.4178 197.419 95.438 197.797 97.5444Z" fill="#8E4F3E" style="fill:#8E4F3E;fill:color(display-p3 0.5569 0.3098 0.2431);fill-opacity:1;"/>
<path d="M161.457 116.138C161.102 116.201 160.883 116.566 160.986 116.913C161.894 120.052 165.039 122.069 168.327 121.479C171.614 120.89 173.865 117.917 173.625 114.648C173.601 114.286 173.259 114.022 172.904 114.086L161.457 116.138Z" fill="white" style="fill:white;fill-opacity:1;"/>
<path d="M180.094 102.506C180.401 104.219 182.039 105.368 183.752 105.061C185.464 104.754 186.602 103.107 186.295 101.395C185.988 99.6818 184.349 98.5328 182.637 98.8398C180.924 99.1468 179.787 100.793 180.094 102.506Z" fill="black" style="fill:black;fill-opacity:1;"/>
<path d="M145.486 108.708C145.793 110.421 147.432 111.57 149.144 111.263C150.857 110.956 151.994 109.309 151.687 107.597C151.38 105.884 149.742 104.735 148.029 105.042C146.317 105.349 145.179 106.995 145.486 108.708Z" fill="black" style="fill:black;fill-opacity:1;"/>
<path d="M196.122 91.4854C191.558 91.5312 186.535 90.8263 181.431 89.2724C171.848 86.3674 164.136 81.146 160.087 75.5018C158.242 82.2126 152.821 89.7775 144.844 95.8297C140.597 99.0596 136.121 101.467 131.826 103.009C131.99 87.3137 143.231 73.4533 159.197 70.5918C175.162 67.7304 190.517 76.8242 196.112 91.4872L196.122 91.4854Z" fill="black" style="fill:black;fill-opacity:1;"/>
</g>
<defs>
<clipPath id="clip0_634_2793">
<rect width="384" height="384" fill="white" style="fill:white;fill-opacity:1;"/>
</clipPath>
</defs>
</svg>
