<svg width="384" height="384" viewBox="0 0 384 384" fill="none" xmlns="http://www.w3.org/2000/svg">
<g clip-path="url(#clip0_609_752)">
<path d="M209.6 82.6601L176.56 345.87C175.56 353.8 181.19 361.04 189.13 362.03L319.09 378.28C327.02 379.27 334.25 373.65 335.25 365.72L368.29 102.51C369.29 94.5701 363.66 87.3301 355.72 86.3401L225.76 70.0901C217.83 69.1001 210.6 74.7201 209.6 82.6501V82.6601Z" fill="#7562DD" style="fill:#7562DD;fill:color(display-p3 0.4588 0.3843 0.8667);fill-opacity:1;"/>
<path d="M215.14 337.4C211.8 331.46 205.16 330.42 198.73 329.42C195.45 328.9 192.06 328.38 189.25 327.2C185.12 325.45 181.84 321.5 180.47 316.6C180.42 316.4 180.36 316.2 180.31 316L179.39 323.3C181.47 326.61 184.4 329.2 187.79 330.63C191.02 331.99 194.64 332.56 198.14 333.11C203.95 334.01 209.43 334.86 211.88 339.23C214.62 344.1 211.69 349.75 208.6 355.71C207.41 358 206.19 360.38 205.29 362.73C205.13 363.15 204.98 363.57 204.85 363.99L208.63 364.47C208.67 364.34 208.73 364.2 208.78 364.06C209.6 361.9 210.79 359.63 211.92 357.43C215.34 350.84 218.86 344.02 215.14 337.4ZM279.85 299.89C275.86 293.12 266.3 292.54 259.34 295.43C256 296.82 252.97 298.79 250.05 300.69C247.27 302.5 244.63 304.22 241.74 305.48C233.17 309.19 223.31 304.46 213.79 299.88C202.87 294.63 191.61 289.23 182.67 297.18L181.81 304C182.02 303.65 182.24 303.31 182.48 302.98C190 292.59 200.27 297.52 212.17 303.24C222.45 308.17 233.07 313.28 243.21 308.89C246.39 307.51 249.28 305.64 252.08 303.82C254.99 301.92 257.74 300.13 260.77 298.88C266.35 296.56 273.82 297.02 276.63 301.79C279.24 306.2 276.85 312.28 273.32 316.36C271.74 318.19 269.97 319.81 268.09 321.53C265.41 323.99 262.64 326.53 260.52 329.68C254.81 338.14 255.15 348.48 255.48 358.47C255.61 362.43 255.74 366.43 255.5 370.33L259.21 370.8C259.5 366.68 259.35 362.48 259.21 358.35C258.88 348.51 258.58 339.22 263.61 331.76C265.49 328.97 267.97 326.69 270.61 324.28C272.48 322.56 274.42 320.78 276.14 318.79C280.22 314.08 283.63 306.3 279.84 299.89H279.85Z" fill="#C4BCF0" style="fill:#C4BCF0;fill:color(display-p3 0.7686 0.7373 0.9412);fill-opacity:1;"/>
<path d="M323.31 341.7C308.85 335.27 289.19 338.56 282.08 348.61C279.12 352.78 276.1 361.38 286.3 374.19L291.82 374.88C283.01 365.35 280.7 357.01 285.12 350.76C289.03 345.24 297.81 342.13 306.98 342.13C312.05 342.13 317.25 343.08 321.8 345.11C327.81 347.78 337.37 354.57 333.9 370.02C333.86 370.18 333.83 370.32 333.78 370.48C334.53 369.03 335.03 367.43 335.24 365.72L336.63 354.67C334.35 349.07 329.84 344.59 323.31 341.69V341.7Z" fill="#C4BCF0" style="fill:#C4BCF0;fill:color(display-p3 0.7686 0.7373 0.9412);fill-opacity:1;"/>
<path d="M346.02 264.61C341.06 256.55 334.47 249.23 329.18 243.34C325.7 239.47 321.75 235.08 316.54 232.4C311.84 229.98 304.84 228.74 299.27 232.53C294.93 235.48 292.38 241.23 292.63 247.54C292.84 253 294.91 258.21 296.72 262.81L296.98 263.47C301.26 274.3 304.96 283.66 305.84 295.14C305.91 296.09 305.97 297.05 306.04 298C306.61 307.09 307.21 316.49 317.92 321.47C320.79 322.81 323.96 323.46 327.18 323.46C331.96 323.46 336.85 322.04 341.06 319.36L341.71 314.22C335.43 319.71 326.42 321.31 319.51 318.1C310.81 314.05 310.33 306.5 309.78 297.77C309.71 296.8 309.65 295.83 309.58 294.86C308.66 282.81 304.86 273.22 300.47 262.1L300.21 261.44C298.42 256.91 296.57 252.21 296.38 247.4C296.22 243.45 297.46 238.29 301.39 235.61C303.1 234.45 305.24 233.87 307.55 233.87C309.86 233.87 312.46 234.49 314.85 235.71C319.44 238.08 323.15 242.19 326.42 245.83C333.03 253.17 338.43 259.35 342.85 266.56C344.37 269.04 345.69 271.51 346.78 273.95L347.62 267.3C347.12 266.4 346.59 265.5 346.04 264.6L346.02 264.61Z" fill="#C4BCF0" style="fill:#C4BCF0;fill:color(display-p3 0.7686 0.7373 0.9412);fill-opacity:1;"/>
<path d="M221.1 198.5C219.71 196.43 218.4 194.47 217.74 192.4C216.58 188.79 216.49 185.36 216.4 182.05C216.24 175.89 216.06 169.51 208.52 163.7C206.15 161.87 203.17 160.32 199.99 159.31L199.52 163.07C202 163.94 204.34 165.18 206.24 166.66C212.39 171.39 212.51 176.15 212.67 182.16C212.76 185.56 212.86 189.42 214.19 193.54C215.01 196.12 216.54 198.39 218.01 200.59C220.15 203.76 221.99 206.51 221.51 209.56C220.93 213.23 216.77 215.53 213.24 215.54C209.81 215.56 206.15 214.1 201.74 210.97C199.6 209.45 197.01 207.15 194.34 204.35L193.75 209.06C195.87 211.12 197.88 212.81 199.59 214.02C202.77 216.28 207.64 219.28 213.18 219.28H213.26C218.43 219.25 224.32 215.82 225.2 210.14C225.9 205.64 223.47 202.02 221.11 198.51L221.1 198.5Z" fill="#C4BCF0" style="fill:#C4BCF0;fill:color(display-p3 0.7686 0.7373 0.9412);fill-opacity:1;"/>
<path d="M203.88 231.24C200.48 228.09 196.34 225.82 191.8 224.47L191.32 228.29C195.11 229.49 198.55 231.39 201.34 233.98C205.91 238.22 208.63 244.74 208.59 251.41C208.56 257.21 206.44 262.3 202.65 265.74C198.17 269.79 192.03 271.4 185.76 272.58L185.27 276.46C192.45 275.17 199.64 273.48 205.15 268.51C209.73 264.37 212.27 258.3 212.32 251.43C212.36 243.73 209.21 236.18 203.87 231.24H203.88Z" fill="#C4BCF0" style="fill:#C4BCF0;fill:color(display-p3 0.7686 0.7373 0.9412);fill-opacity:1;"/>
<path d="M265.04 246.66C258.42 239.95 247.31 237.4 239.75 240.84C236.22 242.45 230.43 246.81 231.28 257.92C232.09 268.49 240.8 277.44 250.7 277.86C250.94 277.86 251.19 277.88 251.43 277.88C258.5 277.88 265.41 273.54 268.43 267.14C271.89 259.8 270.66 252.33 265.05 246.66H265.04ZM265.05 265.55C262.55 270.85 256.71 274.39 250.85 274.13C242.92 273.79 235.66 266.24 235 257.63C234.49 250.98 236.66 246.35 241.29 244.24C247.41 241.45 256.89 243.7 262.39 249.28C265 251.92 268.82 257.55 265.05 265.55Z" fill="#C4BCF0" style="fill:#C4BCF0;fill:color(display-p3 0.7686 0.7373 0.9412);fill-opacity:1;"/>
<path d="M352.6 208.08C351.95 208.21 351.3 208.33 350.64 208.45C346.4 209.24 341.59 210.13 338.39 213.63C333.46 219.01 333.94 223.71 335.21 226.71C337.4 231.85 343.73 236.16 351.1 239.5L351.58 235.66C345.41 232.78 340.34 229.23 338.64 225.25C337.39 222.32 338.22 219.34 341.14 216.15C343.5 213.57 347.3 212.87 351.32 212.12C352 212 352.68 211.87 353.34 211.73C353.77 211.64 354.19 211.54 354.61 211.44L355.12 207.42C354.15 207.73 353.26 207.94 352.6 208.08ZM352.38 162.78C348.19 165.36 345.72 170.71 346.22 176.09C346.64 180.61 348.99 185.16 352.84 188.88C353.66 189.67 354.55 190.47 355.42 191.24C355.95 191.71 356.47 192.17 356.98 192.64L357.54 188.14C356.79 187.48 356.09 186.83 355.43 186.2C352.22 183.1 350.27 179.39 349.93 175.75C349.56 171.74 351.34 167.81 354.34 165.95C355.88 164.99 357.64 164.61 359.4 164.61C359.76 164.61 360.12 164.63 360.48 164.66L360.95 160.94C357.83 160.64 354.83 161.26 352.38 162.78Z" fill="#C4BCF0" style="fill:#C4BCF0;fill:color(display-p3 0.7686 0.7373 0.9412);fill-opacity:1;"/>
<path d="M330.16 184.83C327.79 181.57 324.46 179.4 321.2 177.54C302.82 167.07 281.17 162.94 260.24 165.91C255.28 166.62 248.92 167.9 243.6 171.56C237.47 175.79 234.5 181.06 235.23 186.42C235.99 191.98 240.62 196.72 247.61 199.12C252.97 200.96 257.78 205.62 262.44 210.13C268.94 216.42 275.65 222.93 284.57 222.93C284.79 222.93 285 222.93 285.22 222.91C290.06 222.75 294.34 220.4 298.11 218.34L323.47 204.47C326.32 202.91 330.24 200.77 331.96 196.9C333.6 193.24 332.9 188.62 330.16 184.83ZM328.56 195.38C327.44 197.89 324.78 199.5 321.68 201.2L296.32 215.06C292.92 216.93 289.05 219.04 285.09 219.18C277.44 219.45 271.41 213.61 265.03 207.44C260.09 202.65 254.97 197.69 248.83 195.58C243.28 193.68 239.49 189.97 238.94 185.9C238.4 182.02 240.81 178.02 245.73 174.63C250.41 171.4 256.23 170.25 260.78 169.6C265.03 168.99 269.32 168.7 273.61 168.7C289.57 168.7 305.45 172.85 319.37 180.79C322.27 182.44 325.21 184.34 327.16 187.01C329.09 189.69 329.65 192.97 328.58 195.38H328.56Z" fill="#C4BCF0" style="fill:#C4BCF0;fill:color(display-p3 0.7686 0.7373 0.9412);fill-opacity:1;"/>
<path d="M319.43 81.82L315.68 81.35C315.92 89.21 315.9 97.19 312.61 103.9C307.25 114.81 292.79 120.11 281.65 115.26C270.51 110.41 264.55 96.2 268.89 84.85C269.72 82.69 270.9 80.41 272.04 78.21C272.42 77.49 272.79 76.75 273.16 76.03L269.22 75.54C269.06 75.86 268.89 76.17 268.73 76.49C267.54 78.79 266.31 81.16 265.41 83.51C260.39 96.63 267.28 113.07 280.16 118.68C283.42 120.1 286.93 120.77 290.45 120.77C300.83 120.77 311.33 114.96 315.96 105.55C319.56 98.21 319.66 89.95 319.43 81.82Z" fill="#C4BCF0" style="fill:#C4BCF0;fill:color(display-p3 0.7686 0.7373 0.9412);fill-opacity:1;"/>
<path d="M352.45 96.2099C348.7 92.2399 346.06 88.4599 344.56 84.9599L340.41 84.4399C341.77 88.5399 344.59 93.3199 349.74 98.7699C353.83 103.11 359.92 108.18 367.32 110.19L367.79 106.44C361.44 104.57 356.09 100.06 352.45 96.2099Z" fill="#C4BCF0" style="fill:#C4BCF0;fill:color(display-p3 0.7686 0.7373 0.9412);fill-opacity:1;"/>
<path d="M337.01 120.98C330.26 115.54 318.38 115.18 308.21 127.25C298.15 139.19 299.8 151.92 306.62 158.32C309.4 160.93 313.21 162.56 317.6 162.56C322.88 162.56 329 160.19 335.13 154.33C335.93 153.56 336.69 152.72 337.38 151.82C346.92 139.48 344.42 126.97 337 120.98H337.01ZM334.43 149.53C333.86 150.28 333.22 150.99 332.55 151.63C322.46 161.28 313.66 159.8 309.17 155.6C303.63 150.4 302.5 139.81 311.06 129.65C316.25 123.5 321.74 121.04 326.51 121.04C329.64 121.04 332.46 122.11 334.67 123.88C340.66 128.72 342.51 139.09 334.43 149.53Z" fill="#C4BCF0" style="fill:#C4BCF0;fill:color(display-p3 0.7686 0.7373 0.9412);fill-opacity:1;"/>
<path d="M253.26 106.78C252.67 94.7001 245.71 78.7001 233.99 72.8701C227.52 69.6501 220.58 70.1001 213.81 74.1601C211.7 76.2301 210.2 78.9601 209.69 82.0801C211.16 80.6601 212.72 79.3501 214.4 78.2001C220.55 74.0101 226.58 73.3401 232.33 76.2101C242.4 81.2301 248.99 95.7801 249.54 106.97C249.97 115.83 244.6 144.85 234.36 150.12C231.53 151.58 228.5 150.99 225.11 148.3C222.36 146.13 221.38 142.4 220.34 138.44C220.17 137.78 219.99 137.11 219.81 136.46C217.88 129.6 214.07 125.38 209.34 124.89C209 124.85 208.67 124.84 208.35 124.84C206.83 124.84 205.45 125.21 204.19 125.85L203.57 130.8C205.21 129.31 206.95 128.39 208.96 128.6C213.4 129.06 215.51 134.95 216.21 137.47C216.39 138.1 216.56 138.74 216.73 139.4C217.82 143.56 219.06 148.29 222.79 151.24C226 153.78 228.88 154.63 231.29 154.63C233.18 154.63 234.8 154.11 236.07 153.45C248.33 147.14 253.71 115.97 253.27 106.79L253.26 106.78Z" fill="#C4BCF0" style="fill:#C4BCF0;fill:color(display-p3 0.7686 0.7373 0.9412);fill-opacity:1;"/>
<path d="M320.9 384C320.07 384 319.24 383.95 318.4 383.84L188.44 367.59C183.12 366.93 178.37 364.23 175.08 359.99C171.79 355.76 170.34 350.49 171.01 345.17L204.05 81.9602C205.43 70.9802 215.47 63.1702 226.46 64.5402L356.42 80.7902C361.74 81.4602 366.49 84.1502 369.78 88.3902C373.07 92.6202 374.51 97.8902 373.85 103.21L340.82 366.42C339.55 376.56 330.88 383.99 320.92 383.99L320.9 384ZM223.96 75.5902C219.55 75.5902 215.72 78.8802 215.16 83.3602L182.12 346.57C181.82 348.93 182.46 351.25 183.92 353.12C185.37 354.99 187.47 356.19 189.83 356.48L319.79 372.73C324.65 373.34 329.09 369.88 329.7 365.03L362.74 101.82C363.03 99.4602 362.4 97.1402 360.94 95.2702C359.48 93.4002 357.39 92.2002 355.03 91.9102L225.07 75.6602C224.69 75.6102 224.33 75.5902 223.96 75.5902Z" fill="#4D35D3" style="fill:#4D35D3;fill:color(display-p3 0.3020 0.2078 0.8275);fill-opacity:1;"/>
<path d="M255.73 190.65C273.7 192.91 286.05 212.41 283.31 234.21C280.58 256.01 263.79 271.85 245.82 269.6C227.85 267.35 215.5 247.85 218.23 226.05C220.97 204.25 237.75 188.4 255.72 190.65H255.73Z" fill="#4D35D3" style="fill:#4D35D3;fill:color(display-p3 0.3020 0.2078 0.8275);fill-opacity:1;"/>
<path d="M232.77 259.96C222.27 259.96 211.75 258.78 201.4 256.46C166.45 248.59 138.07 220.69 120.42 198.67C110.11 185.8 112.18 167.01 125.04 156.7C137.9 146.39 156.69 148.46 167 161.32C183.28 181.62 200.59 195.07 214.5 198.2C221.77 199.84 229.16 200.5 236.46 200.16C252.92 199.42 266.89 212.14 267.65 228.61C268.4 245.08 255.67 259.05 239.19 259.8C237.05 259.9 234.9 259.95 232.76 259.95L232.77 259.96Z" fill="#FFBFA8" style="fill:#FFBFA8;fill:color(display-p3 1.0000 0.7490 0.6588);fill-opacity:1;"/>
<path d="M224.26 102.1L220.3 136.41L191.54 146.84C174.44 136.85 154 126.08 137.12 120.58C109.91 111.71 76.79 113.25 76.79 113.25L157.3 3.18018C157.3 3.18018 165.91 35.1502 182.65 58.3302C193.04 72.7202 209.53 88.8802 224.26 102.1Z" fill="#FF571A" style="fill:#FF571A;fill:color(display-p3 1.0000 0.3412 0.1020);fill-opacity:1;"/>
<path d="M136.55 69.0502C130.93 76.7302 131.3 91.6102 125.1 97.2702C106.77 114.02 87.4999 121.06 76.7899 113.25C62.4499 102.79 68.8399 69.6702 91.0699 39.2702C113.3 8.89021 142.96 -7.27979 157.3 3.18021C168.01 10.9902 167.15 31.4602 156.76 53.9902C153.25 61.6102 142.17 61.3602 136.55 69.0402V69.0502Z" fill="#7562DD" style="fill:#7562DD;fill:color(display-p3 0.4588 0.3843 0.8667);fill-opacity:1;"/>
<path d="M143.02 77.1598C137.4 84.8398 131.31 91.6198 125.11 97.2798L114.11 89.2598C102.15 80.5298 99.5199 63.7698 108.27 51.8198C112.64 45.8498 119.03 42.1998 125.81 41.1598C132.6 40.0998 139.79 41.6198 145.77 45.9898L156.76 54.0098C153.25 61.6298 148.64 69.4898 143.02 77.1698V77.1598Z" fill="#FCB900" style="fill:#FCB900;fill:color(display-p3 0.9882 0.7255 0.0000);fill-opacity:1;"/>
<path d="M252.89 133.57L230.28 164.48C228.39 167.06 224.64 167.59 221.76 165.67C215.62 161.61 204.54 154.45 191.55 146.84L224.27 102.1C235.48 112.15 245.69 120.51 251.43 125.11C254.13 127.27 254.77 130.99 252.89 133.57Z" fill="#9AE6EE" style="fill:#9AE6EE;fill:color(display-p3 0.6039 0.9020 0.9333);fill-opacity:1;"/>
<path d="M117.07 211.87C109.59 206.42 107.96 195.94 113.42 188.48L160.26 124.45C163.87 119.52 170.8 118.43 175.75 122.04L184.93 128.74C189.88 132.34 190.95 139.27 187.34 144.2L140.5 208.24C135.04 215.71 124.55 217.34 117.07 211.88V211.87Z" fill="#FF571A" style="fill:#FF571A;fill:color(display-p3 1.0000 0.3412 0.1020);fill-opacity:1;"/>
<path d="M187.34 146.05C186.96 146.05 186.59 145.94 186.25 145.7C181.12 142.03 175.65 138.76 170 135.98C165.66 133.85 161.15 131.97 156.57 130.4C155.59 130.07 155.07 129.01 155.41 128.03C155.75 127.06 156.8 126.54 157.78 126.87C162.5 128.49 167.17 130.43 171.64 132.63C177.48 135.5 183.13 138.88 188.42 142.67C189.26 143.27 189.45 144.44 188.85 145.27C188.48 145.78 187.91 146.05 187.33 146.05H187.34Z" fill="black" style="fill:black;fill-opacity:1;"/>
<path d="M94.9201 42.3299C94.5101 42.3299 94.0901 42.1899 93.7401 41.9099L84.2901 34.2299C83.4901 33.5799 83.3701 32.4099 84.0201 31.6099C84.6701 30.8099 85.8501 30.6899 86.6401 31.3399L96.0901 39.0199C96.8901 39.6699 97.0101 40.8499 96.3601 41.6399C95.9901 42.0899 95.4501 42.3299 94.9101 42.3299H94.9201Z" fill="black" style="fill:black;fill-opacity:1;"/>
<path d="M113.08 31.65C112.49 31.65 111.9 31.37 111.55 30.85L104.89 21.24C104.3 20.39 104.51 19.23 105.36 18.64C106.21 18.05 107.37 18.26 107.96 19.11L114.62 28.72C115.21 29.57 115 30.73 114.15 31.32C113.83 31.54 113.45 31.65 113.09 31.65H113.08Z" fill="black" style="fill:black;fill-opacity:1;"/>
<path d="M134.68 27.97C133.9 27.97 133.17 27.48 132.91 26.69L129.05 15.15C128.72 14.17 129.25 13.12 130.23 12.79C131.21 12.46 132.26 12.99 132.59 13.97L136.45 25.51C136.78 26.49 136.25 27.55 135.27 27.87C135.08 27.94 134.87 27.97 134.68 27.97Z" fill="black" style="fill:black;fill-opacity:1;"/>
<path d="M88.1301 62.2501C87.8901 62.2501 87.6401 62.2001 87.4001 62.1101L76.6201 57.5501C75.6701 57.1501 75.2301 56.0501 75.6301 55.1001C76.0301 54.1501 77.1301 53.7101 78.0701 54.1101L88.8501 58.6701C89.8001 59.0701 90.2401 60.1701 89.8401 61.1201C89.5401 61.8301 88.8501 62.2601 88.1201 62.2601L88.1301 62.2501Z" fill="black" style="fill:black;fill-opacity:1;"/>
<path d="M88.8999 84.1199C88.8299 84.1199 88.7499 84.1199 88.6799 84.1099L76.5799 82.6699C75.5599 82.5499 74.8299 81.6199 74.9499 80.5999C75.0699 79.5799 75.9999 78.8399 77.0199 78.9699L89.1199 80.4099C90.1399 80.5299 90.8699 81.4599 90.7499 82.4799C90.6399 83.4299 89.8299 84.1199 88.8999 84.1199Z" fill="black" style="fill:black;fill-opacity:1;"/>
<path d="M162.98 154.01L152.42 138.73C149.87 135.03 144.8 134.11 141.1 136.65C138.1 138.72 136.92 142.45 137.95 145.76C135.22 143.62 131.31 143.4 128.3 145.47C125.29 147.54 124.12 151.27 125.15 154.58C122.42 152.44 118.51 152.22 115.5 154.29C112.5 156.36 111.32 160.09 112.35 163.4C109.62 161.26 105.71 161.04 102.7 163.11C99.0001 165.66 98.0701 170.72 100.62 174.42L111.18 189.71C113.73 193.41 118.81 194.33 122.5 191.78C125.51 189.71 126.68 185.98 125.65 182.67C128.38 184.81 132.29 185.03 135.3 182.96C138.3 180.89 139.48 177.16 138.45 173.85C141.18 175.99 145.09 176.21 148.1 174.14C151.11 172.07 152.28 168.34 151.25 165.03C153.98 167.17 157.89 167.39 160.89 165.32C164.59 162.77 165.52 157.71 162.97 154.01H162.98Z" fill="#FFBFA8" style="fill:#FFBFA8;fill:color(display-p3 1.0000 0.7490 0.6588);fill-opacity:1;"/>
<path d="M151.06 166.62C150.47 166.62 149.88 166.34 149.52 165.81L137.73 148.75C137.14 147.9 137.35 146.74 138.2 146.16C139.05 145.57 140.21 145.78 140.8 146.63L152.59 163.69C153.18 164.54 152.97 165.7 152.12 166.28C151.8 166.5 151.43 166.61 151.06 166.61V166.62Z" fill="black" style="fill:black;fill-opacity:1;"/>
<path d="M138.26 175.43C137.67 175.43 137.08 175.15 136.73 174.62L124.94 157.57C124.35 156.72 124.56 155.56 125.41 154.97C126.26 154.38 127.42 154.6 128 155.44L139.79 172.5C140.38 173.35 140.17 174.51 139.32 175.09C139 175.32 138.63 175.42 138.26 175.42V175.43Z" fill="black" style="fill:black;fill-opacity:1;"/>
<path d="M125.29 184.37C124.7 184.37 124.12 184.09 123.76 183.56L111.97 166.5C111.38 165.65 111.59 164.49 112.44 163.91C113.29 163.32 114.45 163.53 115.03 164.38L126.82 181.44C127.41 182.29 127.19 183.45 126.34 184.03C126.02 184.26 125.65 184.36 125.28 184.36L125.29 184.37Z" fill="black" style="fill:black;fill-opacity:1;"/>
<path d="M186.7 197.78C185.36 199.66 183.32 201.05 180.87 201.51C175.83 202.47 168.19 203 167.23 197.97C165.29 195.49 160.3 188.39 159.91 178.08C159.62 170.12 162.22 164.07 163.69 161.2C162.43 154.61 161.17 148.02 159.91 141.42C158.94 136.38 162.25 131.53 167.29 130.57C172.33 129.6 177.2 132.91 178.16 137.94L188.25 190.66C188.75 193.25 188.11 195.8 186.7 197.79V197.78Z" fill="#FFBFA8" style="fill:#FFBFA8;fill:color(display-p3 1.0000 0.7490 0.6588);fill-opacity:1;"/>
<path d="M160.04 181.86C159.09 181.86 158.27 181.13 158.19 180.17C157.33 170.93 160.29 163.6 162.37 159.72L158.7 142.36C158.49 141.35 159.13 140.36 160.14 140.15C161.15 139.94 162.14 140.58 162.35 141.59L166.16 159.62C166.25 160.07 166.18 160.53 165.96 160.92C164.09 164.22 161.08 171.06 161.9 179.81C161.99 180.84 161.24 181.75 160.22 181.84C160.16 181.84 160.1 181.84 160.04 181.84V181.86Z" fill="black" style="fill:black;fill-opacity:1;"/>
<path d="M86.18 218.03C86.18 239.03 69.12 256.06 48.09 256.06C27.06 256.06 10 239.03 10 218.03C10 197.03 27.05 180 48.09 180C69.13 180 86.18 197.03 86.18 218.03Z" fill="#9AE6EE" style="fill:#9AE6EE;fill:color(display-p3 0.6039 0.9020 0.9333);fill-opacity:1;"/>
<path d="M70.0221 206.398C60.6863 193.636 49.3383 211.852 49.3383 211.852C49.3383 211.852 45.8803 190.671 32.3501 198.853C18.4845 207.234 39.5313 231.54 43.6584 236.089C44.0681 236.538 44.7055 236.666 45.2566 236.409C50.8172 233.8 79.5911 219.471 70.0319 206.4L70.0221 206.398Z" fill="#FF571A" style="fill:#FF571A;fill:color(display-p3 1.0000 0.3412 0.1020);fill-opacity:1;"/>
<path d="M152.14 305.28C152.14 333.46 129.45 356.3 101.47 356.3C73.4898 356.3 50.7998 333.46 50.7998 305.28C50.7998 277.1 73.4798 254.26 101.47 254.26C129.46 254.26 152.14 277.1 152.14 305.28Z" fill="#FFC420" style="fill:#FFC420;fill:color(display-p3 1.0000 0.7686 0.1255);fill-opacity:1;"/>
<path d="M65.49 307.42C64.61 307.42 63.83 306.81 63.65 305.92C62.4 299.73 66.38 293.67 72.53 292.41C75.5 291.8 78.53 292.39 81.07 294.06C83.62 295.75 85.36 298.33 85.97 301.35C86.18 302.36 85.52 303.35 84.51 303.56C83.5 303.76 82.51 303.11 82.3 302.09C81.89 300.07 80.72 298.32 79.01 297.19C77.31 296.07 75.28 295.67 73.29 296.08C69.16 296.93 66.49 301.01 67.33 305.17C67.54 306.19 66.88 307.17 65.87 307.38C65.74 307.41 65.62 307.42 65.49 307.42Z" fill="black" style="fill:black;fill-opacity:1;"/>
<path d="M116.03 297.04C115.16 297.04 114.38 296.43 114.2 295.54C112.95 289.35 116.93 283.29 123.08 282.03C126.05 281.42 129.08 282.01 131.61 283.68C134.17 285.37 135.91 287.95 136.52 290.97C136.73 291.98 136.07 292.97 135.06 293.18C134.05 293.38 133.06 292.73 132.85 291.72C132.44 289.7 131.27 287.96 129.55 286.82C127.85 285.7 125.83 285.3 123.84 285.71C119.71 286.56 117.04 290.64 117.88 294.8C118.08 295.82 117.43 296.8 116.41 297.01C116.29 297.04 116.16 297.05 116.03 297.05V297.04Z" fill="black" style="fill:black;fill-opacity:1;"/>
<path d="M122.02 305.72C123.16 305.48 124.27 306.28 124.4 307.45C125.58 318.73 118.07 329.29 106.81 331.6C95.5499 333.92 84.5299 327.17 81.2299 316.32C80.8899 315.2 81.5999 314.03 82.7399 313.79L122.03 305.72H122.02Z" fill="white" style="fill:white;fill-opacity:1;"/>
</g>
<defs>
<clipPath id="clip0_609_752">
<rect width="384" height="384" fill="white" style="fill:white;fill-opacity:1;"/>
</clipPath>
</defs>
</svg>
