<svg width="384" height="384" viewBox="0 0 384 384" fill="none" xmlns="http://www.w3.org/2000/svg">
<g clip-path="url(#clip0_609_751)">
<path d="M325.64 216.83C316.53 206.59 318 192.49 318 192.49L317.22 176.14C315.76 125.48 274.09 84.8501 222.88 84.8501C171.67 84.8501 128.5 126.95 128.5 178.88C128.5 179.38 128.52 179.84 128.56 180.29L127.76 192.49C127.76 192.49 129.23 206.59 120.12 216.83C111.01 227.07 99.5598 246.38 116.6 261.9C131.14 275.13 182.64 273.45 194.09 253.41L196.36 255.5L260.42 261.95C279.32 273.6 317.05 272.92 329.15 261.9C346.19 246.39 334.73 227.08 325.63 216.83H325.64Z" fill="#2E2200" style="fill:#2E2200;fill:color(display-p3 0.1804 0.1333 0.0000);fill-opacity:1;"/>
<path d="M347.82 270.25L339.28 287.31L333.03 299.82L330.78 304.32L301.86 302.02C301.07 300.26 300.03 298.64 298.77 297.23C297.4 290.21 292.16 291.7 289.29 290.59L293.22 300.34L305.26 353.7H146.72C144.35 353.7 142.6 351.52 143.12 349.22L144.83 341.68L150.73 336.82L147.04 331.91L154.42 299.29L157 292.49C153.21 292.38 147.78 294.1 143.71 293.62C132.75 292.35 120.9 289.58 108.66 284.49C106.31 283.51 104.02 282.47 101.81 281.37L95.8398 247.63L129.61 232.91C129.74 232.98 129.88 233.03 130.02 233.09C144.43 239.07 158.02 239.5 168.23 238.34L278.84 236.6C282.11 235.53 285.62 235.04 289.27 235.27C313.73 236.84 335.33 250.29 347.82 270.23V270.25Z" fill="#26C8DC" style="fill:#26C8DC;fill:color(display-p3 0.1490 0.7843 0.8627);fill-opacity:1;"/>
<path d="M157.73 293.35C157.73 295.86 156.41 298.07 154.42 299.3L155.51 294.48C151.72 294.37 147.77 294.11 143.7 293.64C143.7 293.54 143.7 293.45 143.7 293.35C143.7 289.48 146.84 286.34 150.71 286.34C154.58 286.34 157.73 289.48 157.73 293.35Z" fill="#26C8DC" style="fill:#26C8DC;fill:color(display-p3 0.1490 0.7843 0.8627);fill-opacity:1;"/>
<path d="M299.95 293.35C299.95 294.79 299.52 296.12 298.77 297.24C296.76 294.97 294.22 293.19 291.35 292.08L293.22 300.35C293.13 300.35 293.03 300.35 292.94 300.35C289.07 300.35 285.93 297.21 285.93 293.34C285.93 289.47 289.07 286.33 292.94 286.33C296.81 286.33 299.95 289.47 299.95 293.34V293.35Z" fill="#26C8DC" style="fill:#26C8DC;fill:color(display-p3 0.1490 0.7843 0.8627);fill-opacity:1;"/>
<path d="M157.73 337.88C157.73 341.76 154.59 344.89 150.71 344.89C148.25 344.89 146.07 343.62 144.82 341.68L147.03 331.91C148.1 331.26 149.36 330.87 150.7 330.87C154.57 330.87 157.72 334 157.72 337.87L157.73 337.88Z" fill="#26C8DC" style="fill:#26C8DC;fill:color(display-p3 0.1490 0.7843 0.8627);fill-opacity:1;"/>
<path d="M99.8698 204.46C100.16 203.97 100.42 203.46 100.64 202.89C100.64 202.89 106.73 179.64 95.1998 172.89C91.1498 170.52 86.4898 169.4 82.1798 169.35L65.3798 136.07C63.6598 132.66 59.4898 131.26 56.0598 132.99C52.6398 134.71 51.2598 138.87 52.9798 142.28L62.5098 161.17L62.4398 161.22C61.5598 159.88 60.2498 158.94 58.7798 158.51C58.6698 158.48 58.5598 158.45 58.4498 158.42C58.4298 158.42 58.4298 158.42 58.4098 158.41C56.8098 157.98 55.0498 158.1 53.4498 158.9C52.5098 159.37 51.7298 160.02 51.1298 160.79C49.7698 162.25 49.1298 164.26 49.4198 166.26C48.1098 164.91 46.2998 164.19 44.4398 164.25C43.3098 164.2 42.1398 164.44 41.0498 164.98C39.6998 165.66 38.6698 166.71 38.0298 167.94C37.2798 169.23 36.9698 170.75 37.1898 172.25C35.7098 170.73 33.5598 170 31.4598 170.31C30.5298 170.35 29.5898 170.59 28.6998 171.04C26.1298 172.33 24.7098 175 24.8898 177.69C24.9398 178.55 25.1598 179.4 25.5598 180.22L33.1998 195.69C33.4098 196.13 33.6898 196.54 33.9898 196.91L45.1298 219C51.6398 234.11 67.0398 264.2 101.81 281.42L129.6 232.96C114.1 226.38 105.15 214.35 99.8698 204.5V204.46ZM78.9998 194.1L78.8798 193.86L79.0298 193.9C79.0298 193.9 79.0498 193.92 79.0498 193.93C79.0298 193.99 79.0098 194.04 78.9998 194.1Z" fill="#D9A08A" style="fill:#D9A08A;fill:color(display-p3 0.8510 0.6275 0.5412);fill-opacity:1;"/>
<path d="M84.3198 183.68C83.9998 183.11 83.3898 182.75 82.7398 182.73C81.6198 182.7 80.4498 182.61 79.3198 182.48C76.1498 182.11 73.1298 181.41 71.3198 180.51C70.2698 180 69.6298 179.42 69.5998 178.81C69.5998 178.6 69.5998 178.4 69.5998 178.2C69.5998 178.16 69.5998 178.11 69.6098 178.07C69.6298 177.9 69.6398 177.73 69.6798 177.57C69.7198 177.33 69.7798 177.1 69.8498 176.88C69.8498 176.85 69.8698 176.83 69.8698 176.8C69.9498 176.58 70.0398 176.36 70.1398 176.15C70.2598 175.93 70.3698 175.75 70.4898 175.57C70.5198 175.53 70.5398 175.49 70.5698 175.45C70.6998 175.26 70.8398 175.08 70.9898 174.91C72.8098 172.86 76.1098 171.74 79.0998 171.38C80.1298 171.25 80.8698 170.32 80.7398 169.28C80.6198 168.25 79.6798 167.52 78.6498 167.64C74.6898 168.12 71.4598 169.44 69.2298 171.35L64.4198 161.6C63.9598 160.67 62.8298 160.28 61.8998 160.75C60.9698 161.21 60.5898 162.34 61.0398 163.26L66.6598 174.65C66.0398 175.97 65.7398 177.43 65.8198 178.99C65.8998 180.67 66.8398 181.97 68.2298 182.98C67.7298 183.73 67.0398 184.35 66.1798 184.77C64.1598 185.76 61.7898 185.36 60.1898 183.81L52.1898 167.6C51.7298 166.67 50.5998 166.28 49.6798 166.75C48.7498 167.21 48.3598 168.34 48.8198 169.27L56.8398 185.52C57.0798 187.7 55.9398 189.79 53.9398 190.77C51.8598 191.79 49.3898 191.35 47.7898 189.67C47.7198 189.6 47.6498 189.54 47.5798 189.48L39.7798 173.68C39.3198 172.75 38.1898 172.37 37.2598 172.83C36.3298 173.29 35.9398 174.42 36.4098 175.35L44.4398 191.62C44.4898 191.72 44.5598 191.8 44.6198 191.88C44.6998 193.93 43.5898 195.84 41.6998 196.77C39.0898 198.04 35.9398 196.97 34.6598 194.38C34.1998 193.45 33.0698 193.06 32.1398 193.52C31.2098 193.98 30.8198 195.11 31.2798 196.04C32.8498 199.21 36.0498 201.05 39.3898 201.05C40.7198 201.05 42.0798 200.76 43.3498 200.13C45.7598 198.95 47.4598 196.82 48.0998 194.36C50.4498 195.35 53.1698 195.32 55.5798 194.13C57.9898 192.94 59.6798 190.82 60.3298 188.36C62.6798 189.36 65.3998 189.32 67.8198 188.14C69.4398 187.34 70.7198 186.13 71.5998 184.68C74.3098 185.64 77.4298 186.09 79.7398 186.3C78.4298 189.23 76.5398 194.29 76.0698 199.79C75.9798 200.83 76.7498 201.74 77.7798 201.83H77.9398C78.8998 201.83 79.7198 201.1 79.8098 200.11C80.4498 192.53 84.2598 185.6 84.2998 185.52C84.6198 184.95 84.6198 184.25 84.2998 183.68H84.3198Z" fill="black" style="fill:black;fill-opacity:1;"/>
<path d="M208.75 381.18H255.41C257.83 381.18 259.8 379.22 259.8 376.79V293.19C259.8 290.77 257.84 288.8 255.41 288.8H208.75C206.32 288.8 204.36 290.76 204.36 293.19V376.79C204.36 379.21 206.32 381.18 208.75 381.18Z" fill="#FFD76B" style="fill:#FFD76B;fill:color(display-p3 1.0000 0.8431 0.4196);fill-opacity:1;"/>
<path d="M223.87 301.99C223.87 305.65 220.89 308.61 217.22 308.61C213.55 308.61 210.57 305.65 210.57 301.99C210.57 298.33 213.55 295.37 217.22 295.37C220.89 295.37 223.87 298.33 223.87 301.99Z" fill="black" style="fill:black;fill-opacity:1;"/>
<path d="M346.93 350.48C324.25 386.68 271.01 395.17 238.14 368.04L238.04 368.18L218.33 353.5C211.04 348.22 219.53 336.98 226.63 342.43C220.05 337.8 226.34 327.23 233.51 330.56C233.59 330.45 233.67 330.34 233.74 330.24C228.51 324.29 236.94 315.35 243.23 320.31C235.96 315.04 244.41 303.77 251.53 309.25C254.8 311.7 269.66 322.85 272.91 324.61C287.9 336.47 309.98 319.45 301.86 302.04L347.82 270.26C363.14 294.19 362.9 326.8 346.93 350.48Z" fill="#D9A08A" style="fill:#D9A08A;fill:color(display-p3 0.8510 0.6275 0.5412);fill-opacity:1;"/>
<path d="M239.85 353.71C239.46 353.71 239.06 353.59 238.73 353.34L226.06 343.9C225.22 343.28 225.05 342.1 225.67 341.27C226.29 340.43 227.47 340.26 228.3 340.88L240.97 350.32C241.8 350.94 241.97 352.12 241.35 352.95C240.98 353.45 240.42 353.71 239.84 353.71H239.85Z" fill="black" style="fill:black;fill-opacity:1;"/>
<path d="M248.12 342.68C247.73 342.68 247.33 342.56 247 342.3L234.33 332.86C233.49 332.24 233.32 331.06 233.94 330.23C234.56 329.39 235.74 329.22 236.57 329.84L249.24 339.28C250.07 339.9 250.25 341.08 249.63 341.91C249.26 342.41 248.69 342.67 248.12 342.67V342.68Z" fill="black" style="fill:black;fill-opacity:1;"/>
<path d="M256.41 331.64C256.02 331.64 255.63 331.52 255.29 331.27L242.61 321.83C241.78 321.21 241.61 320.03 242.23 319.2C242.85 318.37 244.03 318.2 244.86 318.82L257.54 328.26C258.37 328.88 258.54 330.06 257.92 330.89C257.55 331.38 256.98 331.64 256.41 331.64Z" fill="black" style="fill:black;fill-opacity:1;"/>
<path d="M142.25 76.7C142.25 99.59 123.63 118.15 100.65 118.15C77.6698 118.15 59.0498 99.6 59.0498 76.7C59.0498 53.8 77.6698 35.25 100.65 35.25C123.63 35.25 142.25 53.8 142.25 76.7Z" fill="#FFCC40" style="fill:#FFCC40;fill:color(display-p3 1.0000 0.8000 0.2510);fill-opacity:1;"/>
<path d="M114.35 85.5901C111.68 83.9001 109.73 84.3301 108.56 84.9901C105.37 86.7901 104.7 92.3301 104.58 95.2901H96.7201C96.5901 92.3101 95.9201 86.7801 92.7301 84.9901C91.5701 84.3301 89.6201 83.9001 86.9501 85.5901C84.4001 87.2001 83.3201 89.7201 84.0801 92.3201C85.0501 95.6701 88.7101 98.3001 92.9801 98.9101V126.04C92.9801 127.08 93.8201 127.92 94.8601 127.92C95.9001 127.92 96.7401 127.08 96.7401 126.04V99.0501H104.55V126.04C104.55 127.08 105.39 127.92 106.43 127.92C107.47 127.92 108.31 127.08 108.31 126.04V98.9101C112.58 98.3001 116.25 95.6701 117.22 92.3201C117.97 89.7101 116.9 87.2001 114.35 85.5901ZM87.6901 91.2801C87.5901 90.9201 87.2701 89.8301 88.9601 88.7701C89.4301 88.4701 90.0201 88.1701 90.4901 88.1701C90.6401 88.1701 90.7701 88.2001 90.8901 88.2601C92.0801 88.9301 92.7601 92.2101 92.9401 95.0901C90.1801 94.5301 88.1501 92.8501 87.6901 91.2701V91.2801ZM113.6 91.2801C113.14 92.8601 111.11 94.5501 108.35 95.1001C108.53 92.2301 109.21 88.9401 110.4 88.2701C110.52 88.2001 110.65 88.1801 110.8 88.1801C111.27 88.1801 111.87 88.4801 112.33 88.7801C114.01 89.8401 113.7 90.9301 113.6 91.2901V91.2801Z" fill="black" style="fill:black;fill-opacity:1;"/>
<path d="M100.61 143.75H100.68C111.01 143.75 119.38 135.37 119.38 125.05V113.69H81.8999V125.05C81.8999 135.38 90.2799 143.75 100.6 143.75H100.61Z" fill="#7562DD" style="fill:#7562DD;fill:color(display-p3 0.4588 0.3843 0.8667);fill-opacity:1;"/>
<path d="M100.65 27.4C99.61 27.4 98.77 26.56 98.77 25.52V8.88C98.77 7.84 99.61 7 100.65 7C101.69 7 102.53 7.84 102.53 8.88V25.52C102.53 26.56 101.69 27.4 100.65 27.4Z" fill="black" style="fill:black;fill-opacity:1;"/>
<path d="M64.0898 38.5C63.6398 38.5 63.1998 38.34 62.8398 38.02L50.3898 26.93C49.6098 26.24 49.5498 25.05 50.2398 24.28C50.9298 23.5 52.1198 23.44 52.8898 24.12L65.3398 35.21C66.1198 35.9 66.1798 37.09 65.4998 37.87C65.1298 38.29 64.6098 38.5 64.0898 38.5Z" fill="black" style="fill:black;fill-opacity:1;"/>
<path d="M137.2 38.5001C136.69 38.5001 136.17 38.2901 135.8 37.8701C135.11 37.0901 135.18 35.9101 135.95 35.2101L148.4 24.1201C149.17 23.4301 150.37 23.5001 151.05 24.2801C151.74 25.0501 151.67 26.2401 150.9 26.9301L138.45 38.0201C138.09 38.3401 137.64 38.5001 137.2 38.5001Z" fill="black" style="fill:black;fill-opacity:1;"/>
<path d="M306.39 175.36C306.39 221.31 269 258.56 222.88 258.56C176.76 258.56 139.38 221.31 139.38 175.36C139.38 129.41 176.77 92.1602 222.88 92.1602C268.99 92.1602 306.39 129.41 306.39 175.36Z" fill="#D9A08A" style="fill:#D9A08A;fill:color(display-p3 0.8510 0.6275 0.5412);fill-opacity:1;"/>
<path d="M261.7 155.7C268.5 157.1 273.51 160.63 272.9 163.58C272.29 166.53 266.29 167.79 259.5 166.39C252.7 164.99 247.69 161.46 248.29 158.51C248.9 155.56 254.9 154.3 261.7 155.71V155.7Z" fill="black" style="fill:black;fill-opacity:1;"/>
<path d="M172.85 163.58C172.24 160.63 177.25 157.1 184.05 155.7C190.84 154.3 196.85 155.55 197.46 158.5C198.07 161.45 193.06 164.98 186.26 166.38C179.47 167.79 173.46 166.53 172.85 163.58Z" fill="black" style="fill:black;fill-opacity:1;"/>
<path d="M253.755 203.41C261.405 210.03 272.995 209.23 279.645 201.62C279.825 201.41 279.985 201.22 280.135 201.01C275.835 201.05 259.605 178.97 265.705 171.35C260.605 171.37 255.555 173.49 251.955 177.61C245.295 185.23 246.115 196.78 253.755 203.4V203.41Z" fill="white" style="fill:white;fill-opacity:1;"/>
<path d="M267.995 196.54C271.495 199.57 275.835 201.05 280.135 201.01C286.235 193.4 285.275 182.26 277.845 175.82C274.335 172.79 270.005 171.31 265.705 171.35C259.605 178.97 260.565 190.1 267.985 196.54H267.995Z" fill="black" style="fill:black;fill-opacity:1;"/>
<path d="M167.965 203.41C175.615 210.03 187.205 209.23 193.855 201.62C194.045 201.41 194.195 201.22 194.345 201.01C190.035 201.05 173.815 178.97 179.915 171.35C174.825 171.37 169.775 173.49 166.165 177.61C159.515 185.23 160.315 196.78 167.965 203.4V203.41Z" fill="white" style="fill:white;fill-opacity:1;"/>
<path d="M182.215 196.54C185.715 199.57 190.045 201.05 194.345 201.01C200.445 193.4 199.485 182.26 192.055 175.82C188.555 172.79 184.225 171.31 179.915 171.35C173.815 178.97 174.765 190.1 182.205 196.54H182.215Z" fill="black" style="fill:black;fill-opacity:1;"/>
<path d="M222.88 210.35C217.93 210.35 213.89 207.03 213.89 202.95C213.89 198.87 217.92 195.55 222.88 195.55C227.84 195.55 231.86 198.87 231.86 202.95C231.86 207.03 227.83 210.35 222.88 210.35ZM222.88 199.32C220.05 199.32 217.66 200.98 217.66 202.95C217.66 204.92 220.05 206.59 222.88 206.59C225.71 206.59 228.1 204.93 228.1 202.95C228.1 200.98 225.71 199.32 222.88 199.32Z" fill="black" style="fill:black;fill-opacity:1;"/>
<path d="M222.88 223.08C212.9 223.08 204.79 214.99 204.79 205.04C204.79 204 205.63 203.16 206.67 203.16C207.71 203.16 208.55 204 208.55 205.04C208.55 212.91 214.98 219.31 222.88 219.31C230.78 219.31 237.22 212.91 237.22 205.04C237.22 204 238.06 203.16 239.1 203.16C240.14 203.16 240.98 204 240.98 205.04C240.98 214.99 232.86 223.08 222.88 223.08Z" fill="black" style="fill:black;fill-opacity:1;"/>
<path d="M313.38 164.43C297.31 164.39 276.9 157.23 257.86 143.67C241.49 132 229.3 117.84 222.88 104.47C216.46 117.84 204.27 131.99 187.89 143.67C168.86 157.23 148.45 164.39 132.38 164.43C137.79 119.42 176.25 84.5298 222.88 84.5298C269.51 84.5298 307.97 119.42 313.38 164.43Z" fill="#2E2200" style="fill:#2E2200;fill:color(display-p3 0.1804 0.1333 0.0000);fill-opacity:1;"/>
<path d="M144.67 164.96C154.25 171.77 156.52 185.02 149.74 194.56C142.96 204.1 129.7 206.32 120.12 199.52C110.54 192.71 108.27 179.46 115.05 169.92C121.83 160.38 135.09 158.16 144.67 164.97V164.96Z" fill="#D9A08A" style="fill:#D9A08A;fill:color(display-p3 0.8510 0.6275 0.5412);fill-opacity:1;"/>
<path d="M136.88 170.55C137.37 170.89 137.68 171.46 137.67 172.11C137.66 173.15 136.81 173.98 135.77 173.97C133.51 173.94 131.37 174.8 129.77 176.38C128.16 177.96 127.27 180.06 127.25 182.32C127.21 186.98 130.98 190.82 135.65 190.87C136.69 190.89 137.52 191.74 137.51 192.77C137.5 193.81 136.65 194.64 135.61 194.63C128.87 194.55 123.44 189.01 123.49 182.29C123.52 179.03 124.81 175.98 127.14 173.7C129.47 171.41 132.55 170.18 135.82 170.22C136.22 170.22 136.59 170.35 136.89 170.56L136.88 170.55Z" fill="black" style="fill:black;fill-opacity:1;"/>
<path d="M330.34 169.41C337.41 178.74 335.54 192.06 326.18 199.15C316.81 206.24 303.49 204.43 296.43 195.1C289.36 185.77 291.23 172.46 300.59 165.36C309.96 158.27 323.28 160.08 330.34 169.41Z" fill="#D9A08A" style="fill:#D9A08A;fill:color(display-p3 0.8510 0.6275 0.5412);fill-opacity:1;"/>
<path d="M308.54 170.69C308.84 170.47 309.2 170.33 309.59 170.31C312.86 170.17 315.98 171.32 318.38 173.53C320.77 175.74 322.16 178.75 322.29 182.01C322.55 188.73 317.28 194.44 310.55 194.72C309.51 194.76 308.64 193.96 308.59 192.92C308.54 191.88 309.35 191.01 310.39 190.96C315.06 190.76 318.71 186.82 318.53 182.15C318.44 179.9 317.48 177.82 315.83 176.3C314.17 174.77 312.01 173.98 309.76 174.07C308.72 174.11 307.85 173.31 307.8 172.27C307.78 171.63 308.07 171.05 308.55 170.69H308.54Z" fill="black" style="fill:black;fill-opacity:1;"/>
<g clip-path="url(#clip1_609_751)">
<mask id="mask0_609_751" style="mask-type:luminance" maskUnits="userSpaceOnUse" x="285" y="11" width="89" height="88">
<path d="M285.074 11H374V99H285.074V11Z" fill="white" style="fill:white;fill-opacity:1;"/>
</mask>
<g mask="url(#mask0_609_751)">
<path d="M285.104 90.8832L287.86 83.1763L290.831 74.8649C287.804 68.8994 286.095 62.1489 286.095 55.0001C286.093 30.726 305.772 11.0464 330.046 11.0464C354.32 11.0464 374 30.726 374 55.0001C374 79.2742 354.32 98.9537 330.046 98.9537C319.257 98.9537 309.376 95.0632 301.727 88.6114L293.714 90.0704L285.662 91.5386C285.287 91.6081 284.974 91.2422 285.104 90.8809V90.8832Z" fill="#FFCC40" style="fill:#FFCC40;fill:color(display-p3 1.0000 0.8000 0.2510);fill-opacity:1;"/>
</g>
<path d="M322.611 80.564C322.611 80.4158 323.137 80.2491 323.141 80.1055C323.146 79.9596 322.629 79.8369 322.636 79.6956C322.715 78.0306 322.977 76.7082 323.424 75.731C323.493 75.5781 324.072 75.5318 324.151 75.3952C324.241 75.24 323.831 74.9969 323.931 74.8626C324.031 74.7352 324.132 74.6148 324.241 74.5082C325.327 73.4221 327.099 72.8779 329.549 72.8779C331.999 72.8779 333.796 73.0748 334.938 73.4638C335.857 73.7765 336.55 74.2442 337.015 74.8626C337.131 75.0131 336.696 75.1636 336.784 75.335C336.851 75.467 337.451 75.6059 337.511 75.731C337.842 76.4396 338.041 77.0741 338.113 77.6415C338.178 78.1487 338.217 78.8341 338.231 79.6956C338.236 79.8392 337.694 79.9781 337.696 80.131C337.696 80.2699 338.24 80.4205 338.24 80.5663V81.9072C338.24 82.9122 338.15 83.7876 337.965 84.5333C337.928 84.6885 337.344 84.8042 337.298 84.9501C337.251 85.096 337.742 85.2697 337.689 85.4017C337.467 85.9482 337.177 86.3975 336.821 86.7541C335.538 87.9236 333.701 88.5072 331.304 88.5072C328.908 88.5072 327.141 88.3289 325.999 87.9653C324.857 87.6017 324.007 86.8769 323.449 85.7931C323.387 85.668 323.327 85.5383 323.271 85.3994C323.215 85.2628 323.505 85.0405 323.456 84.8876C323.412 84.7487 323.028 84.6815 322.991 84.531C322.736 83.5491 322.611 82.3125 322.611 80.8188C322.611 80.7331 322.611 80.6497 322.611 80.564Z" fill="#7562DD" style="fill:#7562DD;fill:color(display-p3 0.4588 0.3843 0.8667);fill-opacity:1;"/>
<path d="M349.997 41.9112C349.981 41.7861 349.462 41.6286 349.444 41.5036C349.416 41.3368 349.886 41.2048 349.854 41.0427C349.594 39.6695 349.175 38.3495 348.598 37.0781C348.538 36.9438 348.068 36.821 348.003 36.689C347.927 36.5316 348.256 36.3648 348.175 36.2097C347.452 34.8225 346.533 33.5002 345.419 32.245C345.275 32.0806 344.636 32.1594 344.486 31.9973C344.365 31.8699 344.733 31.5017 344.608 31.3766C344.599 31.3674 344.592 31.3581 344.58 31.3488C342.918 29.6606 341.037 28.3476 338.942 27.412C338.539 27.2314 337.716 27.28 337.297 27.1272C336.927 26.9928 336.964 26.6547 336.579 26.5436C334.595 25.9577 332.443 25.6636 330.123 25.6636C327.803 25.6636 325.836 25.9577 323.933 26.5436C323.451 26.6918 323.887 26.9303 323.423 27.1156C323.122 27.236 321.925 27.2869 321.643 27.412C319.776 28.2272 318.301 29.1095 317.212 30.052C316.733 30.4665 316.275 30.9112 315.837 31.3766C315.696 31.5272 316.21 31.8074 316.073 31.9648C315.955 32.0968 315.186 32.1084 315.073 32.245C314.651 32.7522 314.251 33.2895 313.871 33.8545C313.208 34.841 312.72 35.6261 312.405 36.212C312.254 36.4876 312.579 36.5316 312.507 36.7168C312.484 36.7747 312.032 37.0202 312.007 37.0804C311.796 37.6316 311.539 38.2985 311.238 39.0766C310.981 39.7413 310.821 40.3989 310.763 41.0451C310.749 41.1817 311.504 41.3438 311.499 41.4804C311.499 41.5383 310.74 41.8208 310.749 41.9158C310.888 43.4442 312.15 44.7665 314.538 45.8781C314.913 46.0541 316.434 46.1514 316.464 46.1629C316.77 46.281 316.441 46.6493 316.724 46.7465C318.004 47.1773 319.074 47.3949 319.924 47.3949C320.726 47.3949 321.413 47.1796 321.992 46.7465C322.143 46.6354 321.751 46.1768 321.888 46.0356C321.92 46.0008 322.726 46.017 322.828 45.8781C323.368 45.1556 323.85 44.1829 324.273 42.9648L324.523 41.9621C324.528 41.9459 324.535 41.9297 324.54 41.9158C324.595 41.7606 324.343 41.5522 324.44 41.3994C324.526 41.2627 324.956 41.184 325.075 41.0474C325.378 40.6954 325.795 40.3457 326.32 40.0006C327.295 39.3592 328.815 39.0373 330.878 39.0373C332.941 39.0373 334.484 39.5398 335.514 40.5425C335.679 40.7 335.827 40.869 335.961 41.0474C336.068 41.1863 336.818 41.2072 336.908 41.3577C336.992 41.4966 336.42 41.7653 336.489 41.9158C336.869 42.717 337.059 43.6642 337.059 44.7619C337.059 45.1509 337.026 45.5238 336.964 45.8781C336.936 46.0356 337.399 46.1954 337.36 46.3459C337.323 46.4848 336.781 46.6145 336.732 46.7465C336.408 47.6543 335.831 48.4301 335.012 49.0669C334.143 49.7408 333.226 50.2897 332.258 50.7135C331.844 50.8964 332.029 51.2021 331.596 51.3387C331.448 51.3851 330.014 51.48 329.755 51.5819C328.439 52.0844 327.21 52.9158 326.07 54.0806C325.644 54.516 325.283 55 324.989 55.5349C324.919 55.6623 325.269 55.8615 325.207 55.9958C325.135 56.1509 324.651 56.2413 324.588 56.4034C324.211 57.3829 324.023 58.5038 324.023 59.7636L323.949 60.368L324.391 60.7594C324.391 61.0465 323.944 60.9886 323.949 61.2364C323.965 61.952 324.002 62.5055 324.065 62.8968C324.148 63.4272 324.387 64.0269 324.776 64.6962C324.882 64.8792 325.012 65.0505 325.165 65.2034C325.376 65.4187 326.003 65.4002 326.302 65.5577C326.529 65.6781 326.404 65.9861 326.679 66.0718C326.728 66.088 326.777 66.1042 326.825 66.1181C327.8 66.396 329.095 66.5349 330.711 66.5349C332.328 66.5349 333.622 66.4099 334.599 66.1598C334.704 66.132 334.803 66.1042 334.9 66.0718C335.22 65.9722 334.88 65.648 335.132 65.509C335.396 65.3608 336.246 65.3956 336.436 65.2034C336.528 65.1107 336.612 65.0088 336.688 64.9046C337.105 64.3187 337.358 63.7745 337.441 63.2743C337.52 62.7973 337.561 62.1187 337.566 61.2364L337.182 60.8011C337.182 60.8011 339.414 60.4838 339.671 60.3657C341.445 59.5714 343.33 58.2491 345.328 56.4011C345.472 56.2714 345.164 56.0213 345.308 55.8846C345.465 55.7364 346.065 55.6947 346.215 55.5326C347.17 54.4952 348.006 53.1798 348.721 51.5796C348.779 51.4522 348.483 51.304 348.538 51.1743C348.605 51.0145 349.024 50.8733 349.085 50.7112C349.571 49.456 349.895 48.136 350.06 46.7465C350.076 46.6145 349.543 46.4478 349.555 46.3112C349.571 46.156 350.129 46.0333 350.143 45.8758C350.171 45.4404 350.187 45.0004 350.187 44.5512C350.187 43.6526 350.124 42.7726 350.006 41.9135L349.997 41.9112Z" fill="#7562DD" style="fill:#7562DD;fill:color(display-p3 0.4588 0.3843 0.8667);fill-opacity:1;"/>
<path d="M349.075 50.7085C349.015 50.8706 348.948 51.0327 348.881 51.1925C348.825 51.3222 348.77 51.4495 348.712 51.5769H329.752C330.012 51.475 330.271 51.3917 330.537 51.3175C331.126 51.1554 331.698 50.9517 332.253 50.7085H349.075Z" fill="#7562DD" style="fill:#7562DD;fill:color(display-p3 0.4588 0.3843 0.8667);fill-opacity:1;"/>
<path d="M314.538 45.874H322.828C322.729 46.0107 322.622 46.1427 322.516 46.2608C322.354 46.4437 322.18 46.6058 321.992 46.7424H316.724C316.411 46.6359 316.085 46.5201 315.747 46.3881C315.316 46.2214 314.913 46.0523 314.536 45.874H314.538Z" fill="#7562DD" style="fill:#7562DD;fill:color(display-p3 0.4588 0.3843 0.8667);fill-opacity:1;"/>
<path d="M350.131 45.874C350.11 46.1658 350.085 46.4553 350.05 46.7424H336.729C336.829 46.4669 336.905 46.1751 336.961 45.874H350.129H350.131Z" fill="#7562DD" style="fill:#7562DD;fill:color(display-p3 0.4588 0.3843 0.8667);fill-opacity:1;"/>
<path d="M310.761 41.0425H325.072C324.82 41.3296 324.642 41.6168 324.54 41.9109H310.747C310.738 41.816 310.733 41.721 310.733 41.6237C310.733 41.4315 310.742 41.237 310.761 41.0425Z" fill="#7562DD" style="fill:#7562DD;fill:color(display-p3 0.4588 0.3843 0.8667);fill-opacity:1;"/>
<path d="M349.997 41.9109H336.487C336.341 41.5983 336.165 41.3111 335.959 41.0425H349.851C349.907 41.3296 349.956 41.6191 349.997 41.9109Z" fill="#7562DD" style="fill:#7562DD;fill:color(display-p3 0.4588 0.3843 0.8667);fill-opacity:1;"/>
<path d="M348.596 37.0774H312.004C312.029 37.0172 312.05 36.9593 312.071 36.9014C312.143 36.7161 312.252 36.4846 312.4 36.209H348.172C348.322 36.4961 348.464 36.7856 348.596 37.0774Z" fill="#7562DD" style="fill:#7562DD;fill:color(display-p3 0.4588 0.3843 0.8667);fill-opacity:1;"/>
<path d="M345.416 32.2429H315.068C315.316 31.9442 315.57 31.6547 315.834 31.3745H344.608C344.891 31.6617 345.159 31.9511 345.419 32.2429H345.416Z" fill="#7562DD" style="fill:#7562DD;fill:color(display-p3 0.4588 0.3843 0.8667);fill-opacity:1;"/>
<path d="M338.939 27.4094H321.64C321.923 27.2844 322.214 27.1616 322.516 27.0412C322.979 26.856 323.449 26.6892 323.93 26.541H336.577C337.392 26.7819 338.18 27.069 338.939 27.4094Z" fill="#7562DD" style="fill:#7562DD;fill:color(display-p3 0.4588 0.3843 0.8667);fill-opacity:1;"/>
<path d="M337.932 84.5308C337.853 84.8457 337.761 85.1375 337.652 85.3992H323.234C323.127 85.1306 323.032 84.8411 322.958 84.5308H337.932Z" fill="#7562DD" style="fill:#7562DD;fill:color(display-p3 0.4588 0.3843 0.8667);fill-opacity:1;"/>
<path d="M338.309 80.5642H322.682C322.682 80.2585 322.682 79.9691 322.689 79.6958H338.284C338.298 79.976 338.307 80.2655 338.309 80.5642Z" fill="#7562DD" style="fill:#7562DD;fill:color(display-p3 0.4588 0.3843 0.8667);fill-opacity:1;"/>
<path d="M337.499 75.7307H323.414C323.472 75.6034 323.537 75.476 323.604 75.344C323.692 75.1749 323.792 75.0128 323.907 74.8623H336.992C337.181 75.1147 337.35 75.4019 337.499 75.7307Z" fill="#7562DD" style="fill:#7562DD;fill:color(display-p3 0.4588 0.3843 0.8667);fill-opacity:1;"/>
<path d="M336.431 65.1963C336.06 65.5714 335.551 65.8609 334.895 66.0647H326.674C326.037 65.8656 325.533 65.5761 325.162 65.1963H336.431Z" fill="#7562DD" style="fill:#7562DD;fill:color(display-p3 0.4588 0.3843 0.8667);fill-opacity:1;"/>
<path d="M339.662 60.3633C339.405 60.4791 339.147 60.5833 338.895 60.6782L337.559 61.0974V61.234H323.944C323.94 60.9862 323.935 60.7176 323.935 60.4304L323.944 60.3656H339.662V60.3633Z" fill="#7562DD" style="fill:#7562DD;fill:color(display-p3 0.4588 0.3843 0.8667);fill-opacity:1;"/>
<path d="M346.208 55.5298C346.057 55.6919 345.905 55.8494 345.747 55.9976C345.606 56.1342 345.462 56.2685 345.321 56.3982H324.585C324.701 56.0948 324.836 55.8054 324.986 55.5298H346.208Z" fill="#7562DD" style="fill:#7562DD;fill:color(display-p3 0.4588 0.3843 0.8667);fill-opacity:1;"/>
</g>
</g>
<defs>
<clipPath id="clip0_609_751">
<rect width="384" height="384" fill="white" style="fill:white;fill-opacity:1;"/>
</clipPath>
<clipPath id="clip1_609_751">
<rect width="88.9263" height="88" fill="white" style="fill:white;fill-opacity:1;" transform="matrix(-1 0 0 1 374 11)"/>
</clipPath>
</defs>
</svg>
