<svg width="384" height="384" viewBox="0 0 384 384" fill="none" xmlns="http://www.w3.org/2000/svg">
<g clip-path="url(#clip0_609_756)">
<path d="M189.01 52.4798L55.52 165.83L192 305.4L328.48 165.83L195 52.4798C193.27 51.0198 190.74 51.0198 189.01 52.4798Z" fill="#FF571A" style="fill:#FF571A;fill:color(display-p3 1.0000 0.3412 0.1020);fill-opacity:1;"/>
<path d="M311.8 303.89H72.21V118.64C72.21 113.53 76.35 109.39 81.45 109.39H302.56C307.67 109.39 311.8 113.53 311.8 118.64V303.89Z" fill="#FFD257" style="fill:#FFD257;fill:color(display-p3 1.0000 0.8235 0.3412);fill-opacity:1;"/>
<path d="M263.41 150.71H116.84C113.46 150.71 110.73 147.97 110.73 144.6V136.66C110.73 133.29 113.47 130.55 116.84 130.55H263.41C266.79 130.55 269.52 133.28 269.52 136.66V144.6C269.52 147.98 266.79 150.71 263.41 150.71Z" fill="white" style="fill:white;fill-opacity:1;"/>
<path d="M266.69 167.71H113.55C112.52 167.71 111.67 166.87 111.67 165.83C111.67 164.79 112.51 163.95 113.55 163.95H266.7C267.74 163.95 268.58 164.79 268.58 165.83C268.58 166.87 267.74 167.71 266.7 167.71H266.69Z" fill="black" style="fill:black;fill-opacity:1;"/>
<path d="M266.69 186.85H113.55C112.52 186.85 111.67 186.01 111.67 184.97C111.67 183.93 112.51 183.09 113.55 183.09H266.7C267.74 183.09 268.58 183.93 268.58 184.97C268.58 186.01 267.74 186.85 266.7 186.85H266.69Z" fill="black" style="fill:black;fill-opacity:1;"/>
<path d="M328.48 165.83V199.35L327.85 212.01L328.48 223.09V290.91L327.8 293.94L328.48 296.24V331.26L327.8 344.57L328.48 355.25V375.2C328.48 375.47 328.47 375.73 328.43 375.99C328.32 376.9 327.36 376.83 326.93 377.59C326.66 378.05 327.03 379.42 326.66 379.81C325.41 381.16 323.62 382.01 321.64 382.01H318.79L316.85 380.19L314.62 382.01H302.75L300.09 380.72L298.7 382.01H279.72L278 381.03L275.61 382.01H263.7L261.47 380.6L259.65 382.01H240.72L238.88 380.65L236.61 382.01H224.66L222.51 380.81L220.62 382.01H201.66L199.87 380.67L197.57 382.01H185.65L183.18 380.84L181.55 382.01H162.59L160.96 380.76L158.5 382.01H146.57L144.33 380.38L142.53 382.01H123.55L121.75 380.86L119.43 382.01H107.56L105.05 380.67L103.47 382.01H84.5098L82.6698 380.69L80.4098 382.01H68.5298L66.2998 380.43L64.4298 382.01H62.3598C60.3698 382.01 58.5798 381.16 57.3398 379.81C56.8698 379.3 57.4898 377.92 57.1898 377.28C56.8898 376.64 55.6698 376.75 55.5798 376.02C55.5498 375.75 55.5298 375.48 55.5298 375.2V354.04L56.5898 345.61L55.5298 333.93V295.52L56.8198 292.64L55.5298 290.71V221.81L56.1298 213.45L55.5298 201.77V165.84L62.2298 171.53L63.9298 176.31L65.9198 174.67L89.6998 194.87L91.3098 198.62L94.0598 198.57L96.6398 200.76L97.7298 203.91L99.8198 203.46L127.9 227.3L128.61 230.14L130.97 229.91L137.78 235.7L140.65 239.98L143.1 240.21L155.96 251.13L156.18 253.63L158.22 255.23L160.38 254.89L189.01 279.21C190.73 280.68 193.27 280.68 195 279.21L222.99 255.44L224.86 256.05L228.06 251.14L240.24 240.79L243.22 240.13L246.06 235.85L253.18 229.8H255.2L256.4 227.06L286.06 201.88L288.05 201.97L289.39 199.05L293.04 195.95L295.49 195.79L297.72 191.97L322.91 170.58L325 170.81L327.39 166.78L328.48 165.85V165.83Z" fill="#FF9066" style="fill:#FF9066;fill:color(display-p3 1.0000 0.5647 0.4000);fill-opacity:1;"/>
<path d="M60.38 356.34C59.54 353.07 58.71 349.61 57.93 346.05C63.05 328.46 65.98 313.25 65.98 303.84C65.98 299.77 65.48 296.7 64.45 294.46C62.82 290.92 60.18 290.18 58.26 290.18C57.27 290.18 56.35 290.36 55.52 290.72V295.51C56.27 294.47 57.18 293.94 58.26 293.94C59.34 293.94 60.56 294.3 61.43 297.07C63.45 303.51 61.53 318.4 56.28 338.01C56.02 336.62 55.76 335.23 55.52 333.83V353.97C55.59 353.74 55.67 353.5 55.74 353.26C56.63 356.97 57.56 360.51 58.48 363.75C60.43 370.66 62.46 376.86 64.44 381.98H68.47C66.02 375.89 63.21 367.34 60.38 356.32V356.34ZM99.42 356.34C98.58 353.07 97.75 349.61 96.98 346.05C102.09 328.46 105.03 313.25 105.03 303.84C105.03 299.77 104.53 296.7 103.5 294.46C101.87 290.92 99.24 290.18 97.31 290.18C91.33 290.18 88.3 296.58 88.3 309.19C88.3 319.83 90.4 333.37 93.11 345.9C92.64 347.51 92.14 349.15 91.63 350.82C87.7 363.51 83.66 374.38 80.41 381.99H84.49C87.06 375.83 89.86 368.28 92.51 360.31C93.31 357.94 94.06 355.59 94.79 353.27C95.69 356.98 96.62 360.52 97.54 363.76C99.49 370.67 101.51 376.87 103.49 381.99H107.51C105.06 375.9 102.25 367.35 99.42 356.33V356.34ZM92.52 301.77C93.3 296.57 94.91 293.94 97.31 293.94C98.33 293.94 99.61 294.3 100.48 297.07C102.51 303.51 100.59 318.4 95.33 338.01C92.76 324.44 91.21 310.6 92.53 301.77H92.52ZM138.47 356.34C137.63 353.07 136.8 349.61 136.02 346.05C141.14 328.46 144.07 313.25 144.07 303.84C144.07 299.77 143.57 296.7 142.54 294.46C140.91 290.92 138.27 290.18 136.35 290.18C130.37 290.18 127.34 296.58 127.34 309.19C127.34 319.83 129.43 333.37 132.14 345.9C131.66 347.51 131.17 349.15 130.66 350.82C126.75 363.51 122.7 374.38 119.44 381.99H123.52C126.09 375.83 128.89 368.28 131.56 360.31C132.35 357.94 133.11 355.59 133.84 353.27C134.73 356.98 135.66 360.52 136.58 363.76C138.53 370.67 140.56 376.87 142.54 381.99H146.57C144.13 375.9 141.31 367.35 138.48 356.33L138.47 356.34ZM131.57 301.77C132.34 296.57 133.95 293.94 136.36 293.94C137.38 293.94 138.66 294.3 139.53 297.07C141.55 303.51 139.63 318.4 134.38 338.01C131.81 324.44 130.26 310.6 131.58 301.77H131.57ZM177.52 356.34C176.68 353.07 175.86 349.61 175.08 346.05C180.19 328.46 183.13 313.25 183.13 303.84C183.13 299.77 182.63 296.7 181.6 294.46C179.97 290.92 177.34 290.18 175.41 290.18C173.14 290.18 170.04 291.21 168.17 296.12C167 299.2 166.4 303.6 166.4 309.19C166.4 319.83 168.5 333.37 171.21 345.9C170.74 347.51 170.24 349.15 169.73 350.82C165.8 363.51 161.76 374.38 158.5 381.99H162.58C165.16 375.83 167.96 368.28 170.61 360.31C171.41 357.94 172.17 355.59 172.89 353.27C173.79 356.98 174.72 360.52 175.64 363.76C177.59 370.67 179.61 376.87 181.59 381.99H185.61C183.17 375.9 180.35 367.35 177.52 356.33V356.34ZM170.62 301.77C171.4 296.57 173.01 293.94 175.4 293.94C176.42 293.94 177.7 294.3 178.57 297.07C180.6 303.51 178.68 318.4 173.42 338.01C170.85 324.44 169.3 310.6 170.62 301.77ZM216.57 356.34C215.73 353.07 214.9 349.61 214.12 346.05C219.24 328.46 222.17 313.25 222.17 303.84C222.17 299.77 221.67 296.7 220.64 294.46C219.02 290.92 216.37 290.18 214.45 290.18C212.18 290.18 209.08 291.21 207.22 296.12C206.04 299.2 205.45 303.6 205.45 309.19C205.45 319.83 207.54 333.37 210.25 345.9C209.77 347.51 209.29 349.15 208.77 350.82C204.85 363.51 200.8 374.38 197.55 381.99H201.62C204.2 375.83 207 368.28 209.66 360.31C210.45 357.94 211.21 355.59 211.94 353.27C212.84 356.98 213.77 360.52 214.68 363.76C216.63 370.67 218.66 376.87 220.64 381.99H224.67C222.22 375.9 219.41 367.35 216.58 356.33L216.57 356.34ZM209.67 301.77C210.44 296.57 212.05 293.94 214.45 293.94C215.47 293.94 216.75 294.3 217.63 297.07C219.65 303.51 217.73 318.4 212.48 338.01C209.9 324.44 208.36 310.6 209.68 301.77H209.67ZM255.61 356.34C254.77 353.07 253.95 349.61 253.17 346.05C258.28 328.46 261.22 313.25 261.22 303.84C261.22 299.77 260.72 296.7 259.69 294.46C258.06 290.92 255.43 290.18 253.5 290.18C247.52 290.18 244.49 296.58 244.49 309.19C244.49 319.83 246.59 333.37 249.3 345.9C248.83 347.51 248.33 349.15 247.82 350.82C243.89 363.51 239.85 374.38 236.6 381.99H240.68C243.25 375.83 246.05 368.28 248.7 360.31C249.5 357.94 250.25 355.59 250.98 353.27C251.88 356.98 252.81 360.52 253.73 363.76C255.68 370.67 257.7 376.87 259.68 381.99H263.71C261.26 375.9 258.45 367.35 255.62 356.33L255.61 356.34ZM248.72 301.77C249.5 296.57 251.11 293.94 253.51 293.94C254.53 293.94 255.81 294.3 256.68 297.07C258.71 303.51 256.79 318.4 251.53 338.01C248.96 324.44 247.41 310.6 248.73 301.77H248.72ZM294.67 356.34C293.83 353.07 293 349.61 292.22 346.05C297.33 328.46 300.27 313.25 300.27 303.84C300.27 299.77 299.77 296.7 298.73 294.46C297.11 290.92 294.47 290.18 292.55 290.18C286.57 290.18 283.55 296.58 283.55 309.19C283.55 319.83 285.64 333.37 288.35 345.9C287.87 347.51 287.39 349.15 286.87 350.82C282.96 363.51 278.91 374.38 275.65 381.99H279.73C282.3 375.83 285.1 368.28 287.77 360.31C288.55 357.94 289.32 355.59 290.05 353.27C290.94 356.98 291.87 360.52 292.79 363.76C294.74 370.67 296.77 376.87 298.75 381.99H302.78C300.33 375.9 297.52 367.35 294.69 356.33L294.67 356.34ZM287.77 301.77C288.54 296.57 290.16 293.94 292.55 293.94C293.57 293.94 294.85 294.3 295.73 297.07C297.75 303.51 295.83 318.4 290.58 338.01C288.01 324.44 286.46 310.6 287.77 301.77ZM328.48 296.11V290.91C324.57 292.88 322.59 299.02 322.59 309.21C322.59 319.4 324.69 333.39 327.4 345.92C326.93 347.53 326.43 349.17 325.92 350.84C321.99 363.53 317.95 374.4 314.69 382.01H318.77C321.35 375.85 324.15 368.3 326.8 360.33C327.38 358.61 327.94 356.9 328.47 355.19V331.55C326.62 320.17 325.7 309.21 326.81 301.78C327.18 299.3 327.73 297.42 328.47 296.12L328.48 296.11Z" fill="#FF9066" style="fill:#FF9066;fill:color(display-p3 1.0000 0.5647 0.4000);fill-opacity:1;"/>
<path d="M127.89 227.28C121.77 245.6 115.86 258.67 113.66 261.08C111.21 259.42 105.34 247.2 99.4198 224.16C98.5798 220.89 97.7498 217.43 96.9798 213.86C98.0198 210.28 98.9598 206.79 99.8198 203.44L96.6398 200.74C96.2298 202.39 95.7898 204.09 95.3298 205.82C94.8698 203.4 94.4498 200.97 94.0698 198.56L89.7298 194.87C90.5798 201.09 91.7798 207.53 93.1198 213.73C92.6498 215.35 92.1498 216.98 91.6398 218.65C84.5998 241.43 77.1598 258.31 74.6198 261.09C72.1798 259.43 66.3098 247.21 60.3898 224.17C59.5498 220.9 58.7198 217.44 57.9398 213.87C62.5398 198.03 65.3898 184.12 65.8998 174.64L62.2298 171.52C62.2398 179.35 60.1798 191.29 56.2898 205.82C56.0298 204.43 55.7698 203.04 55.5298 201.65V221.79C55.5998 221.56 55.6798 221.32 55.7498 221.08C56.6398 224.79 57.5698 228.33 58.4898 231.58C61.0798 240.79 63.8198 248.73 66.3998 254.55C70.4998 263.8 73.0798 264.99 74.8598 264.99C76.3998 264.99 78.1798 264.11 82.9398 253.4C85.9198 246.69 89.3198 237.72 92.5098 228.14C93.3098 225.76 94.0598 223.41 94.7898 221.09C95.6898 224.8 96.6198 228.34 97.5398 231.59C100.13 240.8 102.87 248.74 105.45 254.56C109.55 263.81 112.12 265 113.9 265C115.45 265 117.23 264.12 121.99 253.41C124.79 247.12 127.95 238.83 130.97 229.91L127.9 227.3L127.89 227.28ZM157.4 252.34C155.33 256.97 153.67 260.03 152.71 261.08C150.92 259.86 147.27 252.94 143.11 240.21L137.77 235.68C140 243.15 142.3 249.61 144.49 254.55C148.59 263.8 151.17 264.99 152.95 264.99C154.42 264.99 156.1 264.19 160.37 254.87L158.81 253.55L157.39 252.35L157.4 252.34ZM240.23 240.76C236.01 251.83 232.41 259.31 230.8 261.08C229.74 260.35 228.03 257.64 225.95 252.9L222.98 255.42C226.86 263.88 229.32 264.99 231.04 264.99C232.59 264.99 234.37 264.11 239.13 253.4C241.29 248.52 243.68 242.46 246.04 235.82L240.22 240.77L240.23 240.76ZM326.81 169.58C326.97 168.54 327.15 167.59 327.38 166.76L322.91 170.55C322.69 172.49 322.59 174.64 322.59 177.01C322.59 187.65 324.69 201.19 327.4 213.71C326.93 215.33 326.43 216.96 325.92 218.63C318.88 241.41 311.44 258.29 308.9 261.07C306.46 259.41 300.59 247.19 294.67 224.15C293.83 220.88 293 217.42 292.22 213.85C294.52 205.97 296.37 198.56 297.72 191.94L293.04 195.93C292.32 199.06 291.5 202.36 290.58 205.81C290.15 203.55 289.75 201.28 289.38 199.03L286.04 201.86C286.72 205.83 287.5 209.83 288.35 213.72C287.87 215.34 287.39 216.97 286.87 218.64C279.84 241.42 272.39 258.3 269.86 261.08C267.52 259.49 262.04 248.23 256.37 227.06L253.22 229.73C253.39 230.35 253.56 230.97 253.73 231.57C256.32 240.78 259.06 248.72 261.63 254.54C265.73 263.79 268.31 264.98 270.09 264.98C271.63 264.98 273.42 264.1 278.18 253.39C281.16 246.68 284.56 237.71 287.76 228.13C288.54 225.75 289.31 223.4 290.04 221.08C290.93 224.79 291.86 228.33 292.78 231.58C295.37 240.79 298.11 248.73 300.69 254.55C304.79 263.8 307.36 264.99 309.14 264.99C310.69 264.99 312.47 264.11 317.23 253.4C320.21 246.69 323.61 237.72 326.8 228.14C327.38 226.41 327.94 224.7 328.47 222.99V199.35C326.62 187.98 325.7 177.01 326.81 169.58Z" fill="#FF9066" style="fill:#FF9066;fill:color(display-p3 1.0000 0.5647 0.4000);fill-opacity:1;"/>
<path d="M158.81 253.54L57.3301 379.8C56.3801 378.77 55.7501 377.45 55.5801 376L155.96 251.11L158.82 253.54H158.81Z" fill="black" style="fill:black;fill-opacity:1;"/>
<path d="M328.43 376C328.26 377.45 327.62 378.77 326.68 379.8L225.2 253.54L228.06 251.11L328.44 376H328.43Z" fill="black" style="fill:black;fill-opacity:1;"/>
<path d="M315.12 89.4298C302.41 83.4998 292.89 70.4298 290.87 56.1098C283.2 52.6398 276.46 46.9798 271.78 39.6798C271.3 38.9298 271.56 37.9198 272.33 37.4698L279.81 33.0698C280.54 32.6398 281.47 32.8798 281.93 33.5898C284.35 37.2598 287.55 40.3898 291.2 42.7798C292.12 38.2998 293.89 34.2198 296.43 30.7998C302.2 23.0698 312.07 19.4698 320.44 22.0698C325.17 23.5298 329.26 27.0798 331.66 31.7898C333.97 36.3298 334.41 41.2898 332.88 45.7698C330.31 53.2898 322.88 58.4798 313.01 59.6398C309.93 59.9998 306.83 59.9998 303.77 59.6598C306.39 67.8398 312.29 74.9098 319.74 78.5098C320.51 78.8798 320.87 79.7598 320.55 80.5498L317.23 88.5498C316.89 89.3798 315.92 89.7798 315.11 89.3998L315.12 89.4298ZM302.44 47.4798C305.48 48.1098 308.59 48.2898 311.63 47.9198C315.49 47.4698 320.44 45.6298 321.69 41.9798C322.17 40.5698 321.96 38.8198 321.13 37.1798C320.2 35.3498 318.59 33.8998 316.95 33.3798C313.33 32.2698 308.7 34.1498 305.92 37.8798C304.04 40.4098 302.85 43.7498 302.44 47.4798Z" fill="#43CFE0" style="fill:#43CFE0;fill:color(display-p3 0.2627 0.8118 0.8784);fill-opacity:1;"/>
<path d="M36.7331 33.2331C46.4731 34.8131 53.0931 43.9931 51.5131 53.7331C49.9331 63.4731 40.7531 70.0931 31.0131 68.5131C21.2731 66.9331 14.6531 57.7531 16.2331 48.0131C17.8131 38.2731 26.9931 31.6531 36.7331 33.2331Z" fill="#412BC2" style="fill:#412BC2;fill:color(display-p3 0.2549 0.1686 0.7608);fill-opacity:1;"/>
<path d="M8.64549 166.105C-8.34451 146.315 0.655487 126.475 8.76549 117.535C9.38549 116.855 10.4355 116.815 11.0855 117.465L18.2455 124.735L14.0955 120.525L17.2055 123.645C17.7855 124.225 17.8255 125.155 17.2955 125.775C13.8755 129.755 4.61549 142.995 17.4355 158.185C17.9955 158.845 17.9555 159.815 17.3255 160.385L10.9255 166.235C10.2655 166.835 9.22549 166.775 8.64549 166.105Z" fill="#FFC420" style="fill:#FFC420;fill:color(display-p3 1.0000 0.7686 0.1255);fill-opacity:1;"/>
<path d="M338.461 141.331C364.489 139.649 374.922 158.779 377.194 170.644C377.363 171.55 376.76 172.415 375.848 172.535L365.741 173.881L371.607 173.1L367.243 173.698C366.431 173.806 365.664 173.294 365.492 172.491C364.375 167.366 359.366 152.003 339.515 153.105C338.665 153.157 337.9 152.542 337.826 151.691L337 143.062C336.909 142.178 337.58 141.376 338.48 141.318L338.461 141.331Z" fill="#FFC420" style="fill:#FFC420;fill:color(display-p3 1.0000 0.7686 0.1255);fill-opacity:1;"/>
<path d="M114.18 38.9898C111.42 38.9898 108.59 38.4998 105.83 37.4998C99.6 35.2598 94.77 30.8598 92.36 25.2998C92 24.4798 92.47 23.5198 93.32 23.2298L101.59 20.3998C102.3 20.1498 103.11 20.4298 103.46 21.0998C104.67 23.4198 106.97 25.3398 109.84 26.3698C113.19 27.5798 116.7 27.3598 119.26 25.7998C121.81 24.2398 123.6 21.1998 124.05 17.6698C124.43 14.6398 123.77 11.7198 122.26 9.58981C121.82 8.97981 121.94 8.12981 122.49 7.59981L128.77 1.52981C129.41 0.90981 130.48 0.919814 131.05 1.61981C134.9 6.29981 136.62 12.5998 135.79 19.1698C134.88 26.3298 131.11 32.4198 125.44 35.8998C122.08 37.9498 118.2 38.9998 114.19 38.9998L114.18 38.9898Z" fill="#FFC420" style="fill:#FFC420;fill:color(display-p3 1.0000 0.7686 0.1255);fill-opacity:1;"/>
<path d="M233.12 19.55C233.12 26.49 227.5 32.11 220.56 32.11C213.62 32.11 208 26.49 208 19.55C208 12.61 213.62 7 220.56 7C227.5 7 233.12 12.62 233.12 19.55Z" fill="#412BC2" style="fill:#412BC2;fill:color(display-p3 0.2549 0.1686 0.7608);fill-opacity:1;"/>
<path d="M84.12 59.56C84.12 66.49 78.5 72.12 71.56 72.12C64.62 72.12 59 66.5 59 59.56C59 52.62 64.62 47 71.56 47C78.5 47 84.12 52.62 84.12 59.56Z" fill="#43CFE0" style="fill:#43CFE0;fill:color(display-p3 0.2627 0.8118 0.8784);fill-opacity:1;"/>
</g>
<defs>
<clipPath id="clip0_609_756">
<rect width="384" height="384" fill="white" style="fill:white;fill-opacity:1;"/>
</clipPath>
</defs>
</svg>
