<svg width="87" height="87" viewBox="0 0 87 87" fill="none" xmlns="http://www.w3.org/2000/svg">
<path d="M5.85381 56.5365C5.61769 55.9309 5.50687 55.3301 5.52135 54.7341C5.53584 54.1382 5.72538 53.592 6.08997 53.0956C6.4582 52.6086 7.04294 52.2089 7.84419 51.8965L11.5476 50.4524C12.3489 50.14 13.0499 50.0384 13.6506 50.1477C14.2549 50.2662 14.7642 50.5399 15.1782 50.9688C15.5923 51.3977 15.9174 51.9149 16.1536 52.5205C16.4151 53.1913 16.5358 53.8312 16.5156 54.4401C16.5084 55.0547 16.3598 55.5957 16.0697 56.063C15.7797 56.5303 15.3365 56.8802 14.7402 57.1127C14.321 57.2761 14.0069 57.2966 13.7982 57.1741C13.5987 57.0479 13.4263 56.7985 13.281 56.4258C13.1684 56.137 13.1169 55.8673 13.1265 55.6167C13.1398 55.3754 13.2685 55.1964 13.5128 55.0797C13.606 55.0433 13.717 54.9839 13.8459 54.9015C13.9783 54.8284 14.0999 54.7273 14.2106 54.5983C14.3213 54.4693 14.3906 54.3027 14.4183 54.0987C14.4461 53.8947 14.4019 53.6436 14.2856 53.3454C14.1294 52.9448 13.8913 52.6781 13.5712 52.5453C13.264 52.4182 12.8728 52.4473 12.3977 52.6326L8.69425 54.0766C8.21909 54.2619 7.90864 54.5117 7.76291 54.8261C7.62649 55.1369 7.63638 55.4926 7.79259 55.8932C7.90157 56.1727 8.03352 56.3735 8.18845 56.4956C8.34701 56.627 8.51069 56.7027 8.67951 56.7227C8.85764 56.7391 9.03135 56.7304 9.20063 56.6966C9.36991 56.6628 9.52625 56.6233 9.66963 56.5782C9.93777 56.4951 10.1537 56.5397 10.3175 56.7119C10.4942 56.8899 10.6371 57.1186 10.7461 57.3981C10.895 57.7801 10.9341 58.0869 10.8634 58.3184C10.802 58.5463 10.5616 58.7419 10.1424 58.9054C9.52745 59.1452 8.94111 59.1967 8.38334 59.06C7.82557 58.9233 7.32669 58.6348 6.8867 58.1945C6.45967 57.76 6.11537 57.2073 5.85381 56.5365ZM10.8581 66.0942C10.4421 65.5437 10.157 64.9758 10.0028 64.3903C9.85472 63.8129 9.88859 63.2357 10.1045 62.6589C10.3264 62.0901 10.7804 61.5464 11.4665 61.0279L14.6377 58.6312C15.3238 58.1127 15.9708 57.8243 16.5785 57.7661C17.1924 57.7159 17.7568 57.8408 18.2719 58.1409C18.7931 58.449 19.2616 58.8783 19.6777 59.4287C20.0937 59.9792 20.3788 60.5472 20.5329 61.1326C20.6871 61.718 20.6532 62.2952 20.4313 62.864C20.2154 63.4408 19.7644 63.9884 19.0783 64.507L15.9071 66.9036C15.221 67.4222 14.5711 67.7066 13.9572 67.7568C13.3494 67.815 12.785 67.6901 12.2638 67.382C11.7427 67.0739 11.2741 66.6447 10.8581 66.0942ZM12.4856 64.8642C12.7388 65.1993 13.0335 65.3902 13.3697 65.437C13.7059 65.4837 14.0814 65.3503 14.4962 65.0368L17.6675 62.6401C18.0823 62.3266 18.3131 62.0018 18.3599 61.6656C18.4066 61.3294 18.3034 60.9938 18.0502 60.6587C17.7969 60.3237 17.5022 60.1327 17.1661 60.086C16.8359 60.0472 16.4634 60.1846 16.0486 60.4981L12.8774 62.8947C12.4625 63.2083 12.2287 63.5291 12.1759 63.8573C12.1291 64.1935 12.2324 64.5291 12.4856 64.8642ZM16.5867 72.5993C16.3538 72.4266 16.1726 72.2176 16.0432 71.9724C15.9219 71.733 15.9327 71.517 16.0756 71.3242L21.7478 63.6723C21.8967 63.4715 22.1003 63.3983 22.3586 63.4529C22.6309 63.5054 22.8836 63.6179 23.1165 63.7906C23.3415 63.9574 23.5113 64.1144 23.6262 64.2618C23.755 64.4071 23.832 64.5887 23.8572 64.8065C23.8905 65.0303 23.8733 65.3474 23.8055 65.7578L22.9975 70.9284L26.0346 66.8314C26.1835 66.6305 26.3871 66.5574 26.6454 66.6119C26.9117 66.6725 27.1614 66.7891 27.3943 66.9618C27.6273 67.1345 27.8074 67.3365 27.9347 67.5677C28.0701 67.805 28.0633 68.024 27.9144 68.2249L22.2332 75.8888C22.0903 76.0816 21.8827 76.1517 21.6104 76.0993C21.3461 76.0527 21.0975 75.9431 20.8645 75.7704C20.6476 75.6096 20.4706 75.4286 20.3335 75.2274C20.1964 75.0262 20.149 74.7794 20.1913 74.4872L20.9925 68.6206L17.9554 72.7177C17.8125 72.9105 17.6049 72.9806 17.3326 72.9282C17.0683 72.8816 16.8197 72.772 16.5867 72.5993ZM26.2021 79.0601C25.9311 78.9569 25.7001 78.8048 25.5092 78.6036C25.3276 78.4061 25.2795 78.1952 25.3649 77.9709L28.7549 69.0695C28.8403 68.8453 29.0025 68.7144 29.2414 68.677C29.4897 68.6432 29.7307 68.6707 29.9643 68.7597L34.8285 70.6122C35.0622 70.7011 35.1912 70.868 35.2157 71.1127C35.2438 71.3481 35.2151 71.578 35.1297 71.8023C35.03 72.0639 34.8868 72.2715 34.6999 72.4251C34.5166 72.5693 34.3174 72.6005 34.1025 72.5186L30.4719 71.1359L29.5697 73.5049L31.6864 74.3111C31.9013 74.3929 32.031 74.544 32.0756 74.7642C32.1236 74.9752 32.105 75.1928 32.0196 75.4171C31.9484 75.604 31.8258 75.7713 31.6518 75.919C31.4814 76.0575 31.2794 76.0822 31.0457 75.9932L28.929 75.1871L27.5517 78.8037C27.4663 79.028 27.2854 79.1517 27.0091 79.1749C26.7421 79.2016 26.4731 79.1633 26.2021 79.0601ZM35.6022 82.1388C35.3536 82.1126 35.1262 82.0283 34.92 81.8859C34.7237 81.7445 34.6381 81.5545 34.6633 81.3158L35.6617 71.8433C35.6868 71.6046 35.8101 71.4366 36.0315 71.3393C36.2629 71.243 36.5029 71.208 36.7515 71.2342L42.0621 71.7939C42.3107 71.8201 42.4782 71.9484 42.5645 72.1787C42.6519 72.3991 42.683 72.6286 42.6579 72.8673C42.6285 73.1457 42.5432 73.3831 42.4018 73.5793C42.2615 73.7657 42.077 73.8468 41.8483 73.8227L37.8504 73.4013L37.5847 75.9223L39.8223 76.1582C40.0511 76.1823 40.2151 76.2951 40.3146 76.4966C40.415 76.6882 40.4527 76.9034 40.4275 77.142C40.4066 77.3409 40.3309 77.5341 40.2006 77.7214C40.0712 77.8989 39.8823 77.9745 39.6337 77.9483L37.3961 77.7124L37.1288 80.2484L41.1266 80.6697C41.3554 80.6938 41.5184 80.8166 41.6157 81.038C41.7141 81.2495 41.7486 81.4945 41.7193 81.7729C41.6941 82.0116 41.6153 82.2346 41.4828 82.4418C41.3514 82.6392 41.1614 82.7247 40.9128 82.6985L35.6022 82.1388ZM51.0461 82.0024C50.8981 82.0267 50.7501 82.0207 50.6022 81.9843C50.4626 81.9364 50.3403 81.84 50.2353 81.6951L47.559 78.0923L46.5821 78.2533L47.1699 81.8202C47.2089 82.057 47.1148 82.2549 46.8877 82.414C46.6704 82.5714 46.4187 82.6737 46.1325 82.7208C45.8464 82.768 45.5702 82.7527 45.304 82.6749C45.0477 82.5955 44.9001 82.4374 44.861 82.2006L43.3099 72.7876C43.279 72.6001 43.3163 72.4267 43.4219 72.2674C43.5274 72.1082 43.6887 72.0106 43.9057 71.9749L46.9694 71.47C47.6502 71.3579 48.2782 71.3557 48.8534 71.4636C49.4369 71.5601 49.9296 71.8133 50.3316 72.2234C50.732 72.6236 50.9989 73.2283 51.1322 74.0374C51.2233 74.5899 51.2232 75.0815 51.132 75.512C51.049 75.9311 50.8905 76.2917 50.6565 76.5937C50.4324 76.8942 50.159 77.1419 49.8365 77.337L52.1811 80.3103C52.2172 80.3449 52.2442 80.386 52.2622 80.4338C52.2802 80.4815 52.2925 80.5251 52.299 80.5645C52.3299 80.752 52.2868 80.9517 52.1697 81.1635C52.0525 81.3754 51.8903 81.5592 51.6828 81.715C51.4853 81.8692 51.273 81.965 51.0461 82.0024ZM46.2895 76.4772L47.7547 76.2358C48.1691 76.1675 48.4785 76.0152 48.6828 75.7788C48.8854 75.5326 48.9445 75.1529 48.8599 74.6398C48.7738 74.1169 48.596 73.7763 48.3267 73.6179C48.0574 73.4596 47.7155 73.4146 47.3011 73.4829L45.8358 73.7243L46.2895 76.4772ZM56.8106 80.4587C56.5842 80.5646 56.3459 80.6099 56.0958 80.5945C55.8547 80.5748 55.6833 80.4563 55.5816 80.2389L51.5441 71.612C51.4424 71.3946 51.4612 71.1871 51.6005 70.9894C51.7489 70.7874 51.9363 70.6335 52.1627 70.5275L56.9993 68.264C57.2257 68.158 57.4353 68.1813 57.6282 68.3339C57.8169 68.4775 57.9621 68.658 58.0638 68.8754C58.1825 69.129 58.232 69.3763 58.2123 69.6174C58.1884 69.8494 58.0723 70.0141 57.864 70.1116L54.223 71.8156L55.2975 74.1116L57.3354 73.1579C57.5437 73.0604 57.7425 73.0723 57.9317 73.1935C58.1167 73.3056 58.26 73.4704 58.3618 73.6878C58.4466 73.8689 58.4815 74.0734 58.4667 74.3012C58.4476 74.5199 58.3248 74.6822 58.0984 74.7882L56.0605 75.7419L57.1414 78.0515L60.7824 76.3475C60.9907 76.25 61.1937 76.2709 61.3914 76.4102C61.5849 76.5405 61.741 76.7325 61.8597 76.9861C61.9614 77.2034 62.0091 77.4351 62.0027 77.681C61.9921 77.9178 61.8736 78.0892 61.6471 78.1951L56.8106 80.4587ZM66.1178 75.5054C65.8987 75.6954 65.6555 75.827 65.388 75.9002C65.1281 75.9668 64.9195 75.9095 64.7622 75.7282L58.5207 68.5331C58.3569 68.3443 58.3296 68.1296 58.4388 67.8893C58.549 67.6348 58.7136 67.4126 58.9327 67.2225C59.1442 67.0391 59.3343 66.9072 59.503 66.8271C59.6728 66.7328 59.8667 66.6969 60.0849 66.7195C60.3106 66.7355 60.6164 66.821 61.0024 66.976L65.8752 68.8849L62.5333 65.0324C62.3695 64.8436 62.3422 64.629 62.4514 64.3886C62.5681 64.1417 62.7361 63.9232 62.9551 63.7332C63.1742 63.5432 63.4104 63.4111 63.6638 63.3369C63.9247 63.2562 64.1371 63.3102 64.3009 63.4991L70.5522 70.7055C70.7095 70.8868 70.733 71.1046 70.6228 71.3591C70.5202 71.607 70.3593 71.826 70.1402 72.016C69.9363 72.1929 69.7212 72.3266 69.4951 72.4168C69.2689 72.5071 69.0178 72.4999 68.7416 72.3953L63.1879 70.3423L66.5298 74.1948C66.6871 74.3761 66.7106 74.594 66.6004 74.8485C66.4977 75.0964 66.3369 75.3153 66.1178 75.5054ZM75.8285 65.6234C75.4747 66.1686 75.0516 66.6093 74.5592 66.9455C74.0669 67.2816 73.5128 67.4466 72.8969 67.4403C72.2865 67.4257 71.6206 67.1843 70.8992 66.7161L67.5649 64.5522C66.8435 64.084 66.3518 63.5741 66.0898 63.0226C65.8332 62.4627 65.7582 61.8895 65.8647 61.3029C65.9712 60.7164 66.2013 60.1505 66.5552 59.6052C66.9471 59.0013 67.3962 58.5297 67.9024 58.1906C68.4056 57.8377 68.9316 57.6426 69.4803 57.6053C70.0291 57.568 70.5719 57.7236 71.1087 58.072C71.4862 58.317 71.6861 58.56 71.7085 58.801C71.7225 59.0366 71.6206 59.3222 71.4029 59.6577C71.2341 59.9177 71.0452 60.117 70.8361 60.2555C70.6325 60.3856 70.412 60.3856 70.1746 60.2553C70.0907 60.2009 69.9777 60.1454 69.8355 60.089C69.6988 60.0241 69.5458 59.9844 69.3764 59.9698C69.207 59.9553 69.0314 59.9963 68.8495 60.0928C68.6676 60.1894 68.4896 60.3718 68.3154 60.6403C68.0813 61.001 68.0038 61.35 68.0829 61.6874C68.159 62.011 68.4109 62.3116 68.8387 62.5893L72.1731 64.7532C72.6009 65.0308 72.985 65.1371 73.3254 65.0718C73.6573 65.0012 73.9404 64.7855 74.1744 64.4248C74.3378 64.1731 74.4237 63.9488 74.4324 63.7517C74.4465 63.5463 74.4124 63.3692 74.3302 63.2205C74.2395 63.0662 74.131 62.9303 74.0048 62.8126C73.8785 62.6949 73.7552 62.591 73.6348 62.5009C73.4108 62.3317 73.3209 62.1304 73.3652 61.8968C73.4065 61.6495 73.5088 61.3999 73.6722 61.1483C73.8954 60.8044 74.1216 60.5935 74.3508 60.5158C74.5717 60.4327 74.8709 60.5136 75.2484 60.7585C75.802 61.1178 76.1861 61.5638 76.4007 62.0965C76.6153 62.6292 76.6723 63.2026 76.5717 63.8169C76.4682 64.4173 76.2205 65.0194 75.8285 65.6234ZM79.8958 58.3965C79.8131 58.6325 79.6788 58.8344 79.4927 59.0023C79.31 59.1608 79.1054 59.2004 78.879 59.121L69.8901 55.9705C69.6636 55.8911 69.5284 55.7325 69.4846 55.4946C69.4442 55.2473 69.4653 55.0057 69.548 54.7698L71.3142 49.7303C71.3969 49.4944 71.5602 49.3609 71.8042 49.3299C72.0388 49.2955 72.2693 49.318 72.4958 49.3974C72.7601 49.49 72.9714 49.6277 73.1299 49.8104C73.279 49.9898 73.3155 50.188 73.2394 50.4051L71.9097 54.1988L74.3021 55.0373L75.0463 52.9139C75.1223 52.6969 75.2699 52.5631 75.4889 52.5127C75.6984 52.459 75.9165 52.4719 76.1429 52.5512C76.3317 52.6174 76.5022 52.7355 76.6546 52.9054C76.7975 53.0721 76.8276 53.2734 76.745 53.5093L76.0007 55.6326L78.4072 56.4761L79.7369 52.6823C79.8129 52.4653 79.9699 52.3349 80.2078 52.2911C80.4362 52.244 80.6826 52.2667 80.9468 52.3594C81.1733 52.4387 81.3722 52.5667 81.5434 52.7433C81.7052 52.9166 81.7447 53.1212 81.662 53.3571L79.8958 58.3965Z" fill="black" style="fill:black;fill-opacity:1;"/>
<path d="M65.2865 29.655C64.7903 29.7795 64.3556 30.0837 63.9991 30.5514L53.832 43.3531L52.5241 45.0731C51.4084 46.5184 49.8656 47.2218 48.2913 47.0046C47.8483 46.9434 47.4051 46.811 46.9738 46.6105C45.8677 46.0954 45.0759 45.2419 44.6824 44.1413L44.5524 43.776L44.1767 43.8718C43.6105 44.0161 43.0312 44.0494 42.4548 43.9699C41.983 43.9048 41.5125 43.7635 41.0551 43.551C39.9861 43.0528 39.1847 42.2936 38.7377 41.3551L38.5704 41.0048L38.2063 41.1383C37.5468 41.3813 36.862 41.4554 36.1687 41.3598C35.7241 41.2984 35.2824 41.167 34.8551 40.9679C33.6607 40.4113 32.8469 39.4801 32.5007 38.2736L32.3672 37.8062L31.9217 38.0007C31.669 38.111 31.442 38.1753 31.2267 38.1968C30.9807 38.2224 30.733 38.2176 30.4893 38.184C30.1632 38.139 29.8329 38.0397 29.5088 37.8893C29.0334 37.6676 28.6114 37.3635 28.2559 36.9847C27.8806 36.5848 27.5458 36.1534 27.2663 35.7096C26.9807 35.2322 26.7354 34.778 26.5388 34.3599C26.179 33.5987 25.8279 32.9083 25.4941 32.311C25.1391 31.6671 24.7056 31.0871 24.206 30.5852C23.7018 30.0802 23.051 29.6397 22.2729 29.2772C21.6784 29.0005 21.099 28.8216 20.5506 28.7459C20.1496 28.6906 19.7571 28.6893 19.3927 28.7397C18.4205 28.8472 17.759 29.2627 17.4287 29.9723C17.2859 30.2773 17.1504 30.8762 17.8654 31.4716C18.402 31.8695 18.992 32.3855 19.6234 33.0088C20.2483 33.6127 20.8654 34.3087 21.4591 35.0778C22.0528 35.8469 22.5855 36.668 23.0433 37.5224C23.5536 38.4638 24.01 39.5764 24.3988 40.8274C24.7934 42.0968 25.1384 43.4391 25.4263 44.8188C25.6708 45.966 25.9537 47.1269 26.2678 48.2736C26.5909 49.4165 27.0139 50.5589 27.5222 51.667C28.0229 52.7815 28.6889 53.8719 29.4997 54.9034C30.3058 55.951 31.3223 56.958 32.5219 57.8963C33.7194 58.8318 35.1878 59.7073 36.887 60.4973C38.3928 61.1984 39.8855 61.6544 41.3248 61.853C42.4932 62.0142 43.656 62.0093 44.7778 61.8394C47.2676 61.4664 49.6027 60.2741 51.72 58.2957C53.8191 56.3266 55.7062 53.5596 57.3303 50.0717C57.6388 49.4103 57.9098 48.7353 58.1357 48.065C58.3548 47.4139 58.6044 46.736 58.8858 46.0222C59.1439 45.3253 59.4942 44.574 59.9256 43.7886C60.3639 42.9898 60.9677 42.1049 61.7227 41.1569L67.4256 33.9097C68.0335 33.1402 68.2902 32.3626 68.1883 31.6051C68.0919 30.8014 67.6203 30.1817 66.8264 29.8121C66.5876 29.7003 66.3484 29.6278 66.1153 29.5957C65.8255 29.5557 65.5397 29.5775 65.2865 29.655ZM52.7629 34.1537C52.1956 34.2877 51.7414 34.6244 51.4187 35.1446L47.3263 41.3739C46.953 41.9575 46.837 42.5364 46.9803 43.0848C47.1096 43.6438 47.4736 44.0767 48.0333 44.3377C48.2273 44.4282 48.4239 44.4872 48.6157 44.5137C49.3181 44.6106 49.9605 44.2906 50.5264 43.5581L55.0287 37.6355C55.4809 37.0644 55.6359 36.4338 55.492 35.7679C55.3543 35.081 54.9617 34.5695 54.3585 34.2891C54.1371 34.1856 53.9097 34.1181 53.6825 34.0868C53.3729 34.0441 53.0566 34.0684 52.7629 34.1537ZM45.8087 29.9638C45.1523 30.203 44.6536 30.6796 44.328 31.3789L41.169 38.1648C40.8438 38.8617 40.7567 39.4807 40.9084 40.005C41.0664 40.5504 41.4721 40.9789 42.1131 41.2771C42.3393 41.383 42.5674 41.4514 42.7913 41.4823C43.1223 41.528 43.4502 41.4927 43.7754 41.3739C44.2774 41.1772 44.7122 40.7749 45.0662 40.1793L48.8586 33.8323C49.2741 33.1076 49.3886 32.3809 49.2 31.6802C49.0134 30.9405 48.5565 30.3966 47.8405 30.0637C47.5725 29.9387 47.3011 29.8567 47.0335 29.8198C46.6168 29.7623 46.2022 29.8117 45.8087 29.9638ZM37.6769 27.4674C37.0695 27.7889 36.6867 28.3133 36.5407 29.019L34.9034 36.2884C34.5888 37.7411 35.2793 38.3985 35.9131 38.6941C36.1109 38.7868 36.3107 38.8471 36.5066 38.8741C36.8665 38.9238 37.2172 38.8631 37.5394 38.6986C38.0611 38.4509 38.4302 37.9892 38.6371 37.323L40.7665 30.1969C40.9597 29.6052 40.9251 29.0416 40.6724 28.5377C40.4396 28.0173 40.0568 27.6296 39.5332 27.3862C39.3417 27.2969 39.1442 27.2378 38.9475 27.2106C38.5218 27.1519 38.0927 27.2395 37.6769 27.4674Z" fill="#FFCC40" style="fill:#FFCC40;fill:color(display-p3 1.0000 0.8000 0.2510);fill-opacity:1;"/>
<path d="M70.6449 30.9244C70.4918 30.1865 70.1781 29.517 69.7113 28.9291C69.2349 28.3193 68.6123 27.8332 67.8593 27.4823C67.357 27.2489 66.8512 27.0962 66.3572 27.0278C65.7972 26.9506 65.2328 26.9795 64.678 27.1138C63.607 27.3551 62.7223 27.9341 61.9649 28.887L57.6566 34.2217L57.4004 33.8137C56.9437 33.0293 56.2584 32.4072 55.4166 32.015C54.9711 31.8079 54.5058 31.6693 54.0333 31.6043C53.4314 31.5219 52.8199 31.5561 52.2158 31.7079L51.7806 31.8176L51.6946 31.3762C51.6657 31.2209 51.649 31.1341 51.6266 31.0472C51.2533 29.5924 50.2853 28.436 48.8992 27.7903C48.4004 27.5577 47.8853 27.4033 47.3699 27.3322C46.5449 27.2182 45.7228 27.3147 44.925 27.6165C44.5367 27.7613 44.1586 27.9605 43.7984 28.2114L43.3342 28.5352L43.1522 27.9991C43.0903 27.8166 43.021 27.6358 42.9357 27.4586C42.4502 26.4101 41.6404 25.6011 40.5912 25.1124C40.167 24.915 39.7261 24.7843 39.2815 24.7228C38.3396 24.593 37.3722 24.779 36.4852 25.2607C35.2415 25.9266 34.3912 27.0708 34.0903 28.486L33.534 30.9603L32.2815 33.6478C32.0093 34.2339 31.7445 34.6621 31.473 34.9578C31.1185 35.3324 30.7772 35.3728 30.5526 35.3412C30.4596 35.3289 30.3661 35.3009 30.2762 35.2587C30.0191 35.1394 29.7906 34.9174 29.5787 34.5805C29.3918 34.2743 29.1733 33.8373 28.9074 33.2398C28.4216 32.1229 27.9125 31.1613 27.3919 30.3777C26.8798 29.6074 26.3178 28.9633 25.7222 28.4623C25.1109 27.9359 24.4164 27.4911 23.6509 27.1348C22.7459 26.7128 21.8531 26.439 20.9992 26.3215C20.6822 26.2776 20.3639 26.2548 20.0529 26.253C18.9043 26.2399 17.874 26.4838 16.9874 26.9786C16.114 27.4647 15.4463 28.1947 15.0027 29.1476C14.6676 29.8671 14.5982 30.583 14.7908 31.3341C14.9768 32.0711 15.4002 32.6879 16.085 33.2214C17.0717 33.99 17.9872 34.8701 18.8078 35.8361C19.633 36.8065 20.3255 37.8392 20.8664 38.9035C21.3894 39.9187 21.8191 40.9821 22.1424 42.0622C22.4677 43.1159 22.7483 44.239 22.9735 45.3981C23.1951 46.5396 23.4723 47.7425 23.7974 48.9735C24.1186 50.1975 24.5713 51.4539 25.1425 52.7086C25.6983 53.9572 26.4437 55.2031 27.3575 56.4174C28.2573 57.6256 29.4058 58.7935 30.7724 59.8911C32.128 60.9835 33.8067 61.9995 35.7644 62.9103C37.5501 63.742 39.3205 64.2834 41.0275 64.5185C42.3384 64.6993 43.644 64.7046 44.9101 64.5343C47.8002 64.1483 50.5272 62.8295 53.016 60.615C53.1316 60.5114 53.2384 60.3789 53.3529 60.271L54.3075 62.8418C54.5374 63.4358 54.9366 63.9219 55.4578 64.243C55.9202 64.5308 56.4458 64.6826 56.9775 64.6826C57.482 64.6826 57.9839 64.5475 58.4234 64.2948C58.9771 63.9789 59.3965 63.4902 59.6369 62.8804L60.9021 59.7612L63.9959 58.5065C64.6206 58.2661 65.1198 57.8406 65.4313 57.2887C65.6884 56.843 65.8235 56.3402 65.8235 55.8366C65.8235 55.3084 65.6735 54.7863 65.3848 54.316C65.0575 53.7914 64.5723 53.393 63.9564 53.157L59.4426 51.482C59.4965 51.3688 59.5562 51.2714 59.6095 51.1574C59.9374 50.4528 60.2287 49.7719 60.4757 49.135C60.7227 48.4585 60.9837 47.789 61.2557 47.1327C61.5374 46.4536 61.8817 45.7517 62.2794 45.0454C62.6622 44.3329 63.1628 43.5766 63.7631 42.8062L69.574 35.3307C70.1088 34.6533 70.4632 33.926 70.6308 33.167C70.7982 32.4045 70.8032 31.65 70.6449 30.9244ZM51.4187 35.1447C51.7413 34.6244 52.1956 34.2875 52.7629 34.1541C53.0566 34.0681 53.3729 34.0435 53.6824 34.0865C53.9096 34.1181 54.1369 34.1857 54.3584 34.2892C54.9616 34.57 55.3543 35.0806 55.492 35.7676C55.6359 36.4336 55.4808 37.0645 55.0288 37.6356L50.5263 43.5581C49.9604 44.2908 49.3181 44.6102 48.6158 44.5136C48.4238 44.4873 48.2271 44.4285 48.0332 44.3373C47.4736 44.0767 47.1097 43.6441 46.9803 43.0843C46.8368 42.5368 46.9531 41.9578 47.3264 41.3734L51.4187 35.1447ZM44.3279 31.3788C44.6534 30.6796 45.1522 30.2031 45.8085 29.9636C46.2023 29.8118 46.6168 29.7627 47.0334 29.8197C47.301 29.8565 47.5725 29.939 47.8406 30.0636C48.5566 30.397 49.0132 30.9401 49.1999 31.6798C49.3886 32.3808 49.2741 33.1073 48.8586 33.8321L45.0662 40.1792C44.7122 40.775 44.2774 41.1769 43.7753 41.3734C43.4503 41.4927 43.1223 41.5278 42.7913 41.4822C42.5674 41.4515 42.3392 41.3831 42.1131 41.2769C41.4721 40.9786 41.0663 40.5504 40.9084 40.0046C40.7568 39.4808 40.8437 38.8614 41.169 38.1647L44.3279 31.3788ZM34.9032 36.2879L36.5407 29.0186C36.6868 28.3132 37.0695 27.7885 37.6769 27.4674C38.0926 27.2392 38.5216 27.1515 38.9474 27.2103C39.1442 27.2375 39.3416 27.2971 39.5333 27.3858C40.0567 27.6297 40.4397 28.0175 40.6724 28.5378C40.9249 29.0414 40.9597 29.6056 40.7665 30.197L38.637 37.3233C38.4302 37.9892 38.061 38.4508 37.5394 38.6982C37.2172 38.8631 36.8664 38.9237 36.5067 38.8745C36.3106 38.8473 36.111 38.7868 35.9131 38.6938C35.2792 38.3981 34.5887 37.7409 34.9032 36.2879ZM67.4257 33.9093L61.7227 41.1567C60.9675 42.1052 60.3638 42.9896 59.9256 43.788C59.4943 44.5742 59.1438 45.3252 58.8858 46.0219C58.6044 46.7361 58.3548 47.4135 58.1357 48.0645C57.9097 48.7349 57.6388 49.4105 57.3302 50.072C57.244 50.2572 57.149 50.4168 57.0613 50.5985L54.5278 49.6579C53.9416 49.4131 53.3143 49.3683 52.7089 49.5333C52.2228 49.6675 51.778 49.9255 51.42 50.2835C51.0629 50.6415 50.804 51.0898 50.6768 51.5627C50.5092 52.1638 50.5513 52.7946 50.7654 53.3018L52.3654 57.6116C52.1493 57.8362 51.9407 58.088 51.7201 58.296C49.6029 60.2736 47.2676 61.466 44.7778 61.8398C43.6558 62.0092 42.4932 62.0144 41.3247 61.853C39.8856 61.6547 38.3927 61.1984 36.887 60.4974C35.1877 59.7077 33.7194 58.8321 32.5219 57.8967C31.3223 56.9579 30.3058 55.9507 29.4997 54.903C28.689 53.8721 28.023 52.7815 27.5222 51.6671C27.014 50.559 26.5909 49.4166 26.2678 48.2733C25.9537 47.1266 25.6707 45.9658 25.4263 44.819C25.1385 43.4388 24.7933 42.0964 24.3989 40.8277C24.01 39.5765 23.5535 38.4639 23.0433 37.5225C22.5855 36.6679 22.0527 35.8466 21.4591 35.078C20.8656 34.3085 20.2483 33.6127 19.6234 33.0091C18.9919 32.3852 18.402 31.8693 17.8653 31.4719C17.1504 30.8761 17.2857 30.2777 17.4288 29.9724C17.7591 29.2625 18.4205 28.8475 19.3926 28.7396C19.757 28.6896 20.1496 28.6905 20.5506 28.7457C21.099 28.8212 21.6785 29.0002 22.2729 29.2775C23.051 29.6398 23.7018 30.0803 24.2059 30.5848C24.7055 31.0867 25.139 31.6675 25.4941 32.3107C25.8277 32.9082 26.1791 33.5987 26.5389 34.3594C26.7354 34.7779 26.9807 35.2324 27.2663 35.7097C27.5457 36.1537 27.8804 36.5845 28.256 36.9846C28.6113 37.3636 29.0334 37.6672 29.5089 37.8892C29.8329 38.0393 30.1632 38.1393 30.4894 38.184C30.7329 38.2174 30.9808 38.2226 31.2267 38.1972C31.4418 38.1752 31.6691 38.1112 31.9218 38.0006L32.3671 37.8059L32.5009 38.2735C32.847 39.48 33.6608 40.4109 34.855 40.968C35.2823 41.1672 35.724 41.2979 36.1687 41.3594C36.862 41.4559 37.5468 41.3813 38.2062 41.1383L38.5703 41.0049L38.7377 41.355C39.1845 42.2938 39.986 43.0528 41.0552 43.5511C41.5125 43.7635 41.983 43.9047 42.4546 43.9697C43.0311 44.0495 43.6106 44.0162 44.1765 43.8714L44.5525 43.7757L44.6824 44.1407C45.0759 45.2419 45.8677 46.0956 46.9737 46.6106C47.405 46.8107 47.8483 46.9432 48.2911 47.0046C49.8656 47.2222 51.4084 46.5185 52.5242 45.0726L53.832 43.3528L63.9989 30.5515C64.3556 30.0838 64.7904 29.7793 65.2865 29.6547C65.5397 29.5775 65.8255 29.5556 66.1152 29.596C66.3482 29.6275 66.5875 29.7004 66.8264 29.8118C67.6204 30.1821 68.092 30.8015 68.1881 31.6052C68.2903 32.3624 68.0335 33.1398 67.4257 33.9093Z" fill="#231769" style="fill:#231769;fill:color(display-p3 0.1373 0.0902 0.4118);fill-opacity:1;"/>
<path d="M57.5502 62.0495C57.4986 62.1838 57.4185 62.282 57.3101 62.3439C57.2016 62.4059 57.0906 62.4369 56.9769 62.4369C56.8633 62.4369 56.7523 62.4033 56.6438 62.3362C56.5353 62.2691 56.4553 62.1683 56.4036 62.0341L52.8709 52.5205C52.8193 52.3966 52.809 52.2778 52.8399 52.1641C52.8709 52.0505 52.9277 51.9524 53.0104 51.8698C53.093 51.7871 53.1911 51.7303 53.3048 51.6993C53.4184 51.6683 53.5372 51.6787 53.6611 51.7303L63.1747 55.263C63.309 55.3147 63.4097 55.3947 63.4768 55.5032C63.544 55.6116 63.5775 55.7227 63.5775 55.8363C63.5775 55.9499 63.5465 56.061 63.4846 56.1694C63.4226 56.2779 63.3245 56.358 63.1902 56.4096L59.1771 58.0365L57.5502 62.0495Z" fill="white" style="fill:white;fill-opacity:1;"/>
<path opacity="0.8" d="M50.4813 9.68262V13.9756H53.5194V9.68262H57.2802V21.6807H53.5194V16.6523H50.4764V21.6807H48.4149L46.1024 15.5674L48.4149 9.68262H50.4813ZM62.493 9.68262V21.6807H58.8085V9.68262H62.493Z" fill="#4424A7" style="fill:#4424A7;fill:color(display-p3 0.2667 0.1412 0.6549);fill-opacity:1;"/>
<path opacity="0.95" d="M41.2024 14.3945L43.1897 9.68262H46.887L44.179 15.5674L46.8567 21.6826H43.1897L41.175 16.6543L38.9954 21.6807H35.2551L38.2043 15.5674L35.4905 9.68262H39.2083L41.2024 14.3945ZM28.4543 17.2236C28.4543 17.4628 28.4754 17.7024 28.5266 17.9365C28.7327 18.8835 29.2069 19.0602 30.0217 19.0527H30.261C31.3386 19.007 31.5662 18.003 31.5657 17.2637L31.5725 9.68262H33.6399L36.5022 15.5674L33.5999 21.5029C33.5846 21.5047 32.282 21.6538 30.2141 21.6719C29.8177 21.6756 29.7171 21.6891 29.261 21.6797C27.0379 21.6352 25.2328 21.0994 24.8 18.251C24.7439 17.8811 24.7202 17.5061 24.719 17.1318L24.6848 9.68262H28.4504L28.4543 17.2236Z" fill="#231769" style="fill:#231769;fill:color(display-p3 0.1373 0.0902 0.4118);fill-opacity:1;"/>
</svg>
