<svg width="384" height="384" viewBox="0 0 384 384" fill="none" xmlns="http://www.w3.org/2000/svg">
<g clip-path="url(#clip0_615_1897)">
<path d="M368.87 334.34H366.27L363.92 333.15L360.95 334.34H336.76L334.06 333.35L331.42 334.34H307.23L305 333.39L301.91 334.34H277.7L275.04 333.36L272.4 334.34H248.19L245.92 333.65L242.89 334.34H218.66L216.09 333.39L213.37 334.34H189.14L186.59 333.54L183.86 334.34H159.65L157.42 333.39L154.34 334.34H130.14L127.52 333.35L124.83 334.34H100.63L98.63 333.41L95.32 334.34H71.18L68.85 333.71L65.87 334.34H41.66L39.32 333.82L36.35 334.34H15.13C14.19 334.34 13.27 334.25 12.37 334.09C11.59 333.95 11.64 332.94 10.91 332.68C10.33 332.47 8.95 333.04 8.41 332.77C3.43 330.3 0 325.15 0 319.21V316.92L1.81 312.51L0 311.62V287.44L1.05 284.08L0 282.12V257.92L0.8 254.46L0 252.62V228.41L1.03 225.26L0 223.12V198.88L0.8 195.53L0 193.59V169.41L0.77 165.82L0 164.06V139.86L1.3 136.74L0 134.54V110.34L0.9 107.2L0 105.02V102.41C0 94.0498 6.77 87.2798 15.13 87.2798H17.73L19.89 88.7598L23.07 87.2798H47.26L49.74 88.0498L52.58 87.2798H76.79L78.97 88.3098L82.09 87.2798H106.3L108.19 88.4798L111.6 87.2798H135.8L138 88.4998L141.09 87.2798H165.31L167.03 88.1598L170.64 87.2798H224.35L226.21 88.4398L229.65 87.2798H253.9L255.9 88.4398L259.21 87.2798H283.41L285.43 88.4198L288.71 87.2798H312.92L315.12 88.2498L318.22 87.2798H342.37L344.51 88.4098L347.65 87.2798H368.88C369.82 87.2798 370.74 87.3698 371.63 87.5298C372.37 87.6698 371.54 89.2198 372.24 89.4598C372.87 89.6698 375.02 88.5598 375.6 88.8498C380.58 91.3198 384.01 96.4598 384.01 102.41V104.68L382.37 108.25L384.01 109.98V134.2L382.72 137.47L384.01 139.47V163.7L383.15 166.75L384.01 169V193.21L382.94 196.78L384.01 198.54V222.78L382.81 226.12L384.01 228.07V252.29L382.75 255.5L384.01 257.59V281.76L382.99 284.72L384.01 287.07V311.29L382.93 314.56L384.01 316.6V319.22C384.01 327.57 377.24 334.35 368.88 334.35L368.87 334.34Z" fill="#09C0D7" style="fill:#09C0D7;fill:color(display-p3 0.0353 0.7529 0.8431);fill-opacity:1;"/>
<path d="M318.21 87.2798L71.1599 334.33H65.8599L312.91 87.2798H318.21Z" fill="#09C0D7" style="fill:#09C0D7;fill:color(display-p3 0.0353 0.7529 0.8431);fill-opacity:1;"/>
<path d="M288.69 87.2798L41.6398 334.33H36.3398L283.39 87.2798H288.69Z" fill="#09C0D7" style="fill:#09C0D7;fill:color(display-p3 0.0353 0.7529 0.8431);fill-opacity:1;"/>
<path d="M259.18 87.2798L12.3799 334.08C10.9799 333.83 9.6399 333.37 8.3999 332.75L253.88 87.2798H259.18Z" fill="#09C0D7" style="fill:#09C0D7;fill:color(display-p3 0.0353 0.7529 0.8431);fill-opacity:1;"/>
<path d="M229.66 87.2798L0 316.95V311.65L224.36 87.2798H229.66Z" fill="#09C0D7" style="fill:#09C0D7;fill:color(display-p3 0.0353 0.7529 0.8431);fill-opacity:1;"/>
<path d="M200.14 87.2798L0 287.43V282.14L194.85 87.2798H200.14Z" fill="#09C0D7" style="fill:#09C0D7;fill:color(display-p3 0.0353 0.7529 0.8431);fill-opacity:1;"/>
<path d="M170.63 87.2798L0 257.91V252.61L165.33 87.2798H170.63Z" fill="#09C0D7" style="fill:#09C0D7;fill:color(display-p3 0.0353 0.7529 0.8431);fill-opacity:1;"/>
<path d="M141.12 87.2798L0 228.4V223.1L135.82 87.2798H141.13H141.12Z" fill="#09C0D7" style="fill:#09C0D7;fill:color(display-p3 0.0353 0.7529 0.8431);fill-opacity:1;"/>
<path d="M111.6 87.2798L0 198.88V193.58L106.3 87.2798H111.6Z" fill="#09C0D7" style="fill:#09C0D7;fill:color(display-p3 0.0353 0.7529 0.8431);fill-opacity:1;"/>
<path d="M82.09 87.2798L0 169.37V164.07L76.78 87.2798H82.08H82.09Z" fill="#09C0D7" style="fill:#09C0D7;fill:color(display-p3 0.0353 0.7529 0.8431);fill-opacity:1;"/>
<path d="M52.57 87.2798L0 139.86V134.55L47.27 87.2798H52.58H52.57Z" fill="#09C0D7" style="fill:#09C0D7;fill:color(display-p3 0.0353 0.7529 0.8431);fill-opacity:1;"/>
<path d="M23.05 87.2798L0 110.34V105.04L17.75 87.2898H23.05V87.2798Z" fill="#09C0D7" style="fill:#09C0D7;fill:color(display-p3 0.0353 0.7529 0.8431);fill-opacity:1;"/>
<path d="M384 311.28V316.58L366.25 334.33H360.95L384 311.28Z" fill="#09C0D7" style="fill:#09C0D7;fill:color(display-p3 0.0353 0.7529 0.8431);fill-opacity:1;"/>
<path d="M384 281.76V287.07L336.73 334.34H331.42L383.99 281.77L384 281.76Z" fill="#09C0D7" style="fill:#09C0D7;fill:color(display-p3 0.0353 0.7529 0.8431);fill-opacity:1;"/>
<path d="M384 252.24V257.54L307.21 334.33H301.91L384 252.24Z" fill="#09C0D7" style="fill:#09C0D7;fill:color(display-p3 0.0353 0.7529 0.8431);fill-opacity:1;"/>
<path d="M384 222.73V228.04L277.7 334.34H272.4L384 222.74V222.73Z" fill="#09C0D7" style="fill:#09C0D7;fill:color(display-p3 0.0353 0.7529 0.8431);fill-opacity:1;"/>
<path d="M384 193.21V198.52L248.18 334.33H242.87L383.99 193.21H384Z" fill="#09C0D7" style="fill:#09C0D7;fill:color(display-p3 0.0353 0.7529 0.8431);fill-opacity:1;"/>
<path d="M384 163.7V169L218.67 334.33H213.37L384 163.7Z" fill="#09C0D7" style="fill:#09C0D7;fill:color(display-p3 0.0353 0.7529 0.8431);fill-opacity:1;"/>
<path d="M384 134.19V139.48L189.15 334.33H183.86L384.01 134.19H384Z" fill="#09C0D7" style="fill:#09C0D7;fill:color(display-p3 0.0353 0.7529 0.8431);fill-opacity:1;"/>
<path d="M384 104.67V109.97L159.64 334.33H154.34L384 104.67Z" fill="#09C0D7" style="fill:#09C0D7;fill:color(display-p3 0.0353 0.7529 0.8431);fill-opacity:1;"/>
<path d="M375.59 88.86L130.12 334.33H124.82L371.62 87.54C373.02 87.79 374.36 88.25 375.6 88.87L375.59 88.86Z" fill="#09C0D7" style="fill:#09C0D7;fill:color(display-p3 0.0353 0.7529 0.8431);fill-opacity:1;"/>
<path d="M347.66 87.2798L100.61 334.33H95.3101L342.36 87.2798H347.66Z" fill="#09C0D7" style="fill:#09C0D7;fill:color(display-p3 0.0353 0.7529 0.8431);fill-opacity:1;"/>
<path d="M338.44 300.23H45.5599C39.1099 300.23 33.8799 295 33.8799 288.55V133.06C33.8799 126.61 39.1099 121.38 45.5599 121.38H338.44C344.89 121.38 350.12 126.61 350.12 133.06V288.55C350.12 295 344.89 300.23 338.44 300.23Z" fill="#FFD257" style="fill:#FFD257;fill:color(display-p3 1.0000 0.8235 0.3412);fill-opacity:1;"/>
<path d="M164.98 273.22H164.69L97.94 267.79L67.32 273.22H67.05C65.24 273.22 63.77 271.75 63.77 269.94V151.68C63.77 149.87 65.24 148.4 67.05 148.4H164.99C166.8 148.4 168.28 149.87 168.28 151.68V269.94C168.28 271.75 166.81 273.22 164.99 273.22H164.98Z" fill="white" style="fill:white;fill-opacity:1;"/>
<path d="M143.5 273.22H164.71C156.97 240.19 139.1 222.19 138.29 221.38C134.1 216.59 127.3 216.05 123.39 219.12C122.55 219.78 121.85 220.61 121.3 221.55H110.73C110.18 220.61 109.48 219.78 108.64 219.12C104.74 216.05 97.9198 216.59 93.7398 221.38C92.9298 222.19 75.0598 240.19 67.3198 273.22H143.5Z" fill="#8879E1" style="fill:#8879E1;fill:color(display-p3 0.5333 0.4745 0.8824);fill-opacity:1;"/>
<path d="M81.4102 198.23C81.4102 217.33 150.59 217.33 150.59 198.23C150.59 179.13 135.1 163.64 116 163.64C96.9002 163.64 81.4102 179.13 81.4102 198.23Z" fill="black" style="fill:black;fill-opacity:1;"/>
<path d="M147.96 197.89C147.96 215.54 133.65 229.85 116 229.85C98.35 229.85 84.04 215.54 84.04 197.89C84.04 180.24 98.35 165.93 116 165.93C133.65 165.93 147.96 180.24 147.96 197.89Z" fill="#BA7560" style="fill:#BA7560;fill:color(display-p3 0.7294 0.4588 0.3765);fill-opacity:1;"/>
<path d="M89.5102 200.53C89.5102 205.03 85.8602 208.68 81.3602 208.68C76.8602 208.68 73.2202 205.03 73.2202 200.53C73.2202 196.03 76.8602 192.39 81.3602 192.39C85.8602 192.39 89.5102 196.03 89.5102 200.53Z" fill="#BA7560" style="fill:#BA7560;fill:color(display-p3 0.7294 0.4588 0.3765);fill-opacity:1;"/>
<path d="M158.77 200.53C158.77 205.03 155.13 208.68 150.63 208.68C146.13 208.68 142.49 205.03 142.49 200.53C142.49 196.03 146.13 192.39 150.63 192.39C155.13 192.39 158.77 196.03 158.77 200.53Z" fill="#BA7560" style="fill:#BA7560;fill:color(display-p3 0.7294 0.4588 0.3765);fill-opacity:1;"/>
<path d="M116 217.37C111.55 217.37 107.92 213.75 107.92 209.29C107.92 208.25 108.76 207.41 109.8 207.41C110.84 207.41 111.68 208.25 111.68 209.29C111.68 211.68 113.62 213.62 116.01 213.62C118.4 213.62 120.34 211.68 120.34 209.29C120.34 208.25 121.18 207.41 122.22 207.41C123.26 207.41 124.1 208.25 124.1 209.29C124.1 213.75 120.48 217.37 116.02 217.37H116Z" fill="black" style="fill:black;fill-opacity:1;"/>
<path d="M136.42 199.58C136.42 201.26 135.06 202.61 133.39 202.61C131.72 202.61 130.36 201.26 130.36 199.58C130.36 197.9 131.72 196.55 133.39 196.55C135.06 196.55 136.42 197.91 136.42 199.58Z" fill="black" style="fill:black;fill-opacity:1;"/>
<path d="M102.62 199.58C102.62 201.26 101.27 202.61 99.5901 202.61C97.9101 202.61 96.5601 201.26 96.5601 199.58C96.5601 197.9 97.9201 196.55 99.5901 196.55C101.26 196.55 102.62 197.91 102.62 199.58Z" fill="black" style="fill:black;fill-opacity:1;"/>
<path d="M147.73 192.93C141.04 191.84 132.82 189.9 123.81 186.38C115.98 183.33 109.43 179.81 104.22 176.55C102.75 178.7 100.85 181.1 98.4102 183.51C93.4102 188.42 88.2202 191.3 84.4202 192.98C84.4102 190.43 84.6902 185.95 87.0902 181.23C89.5102 176.48 94.0702 171.31 102.62 167.81C122.41 159.7 138.87 171.51 142.96 178.34C147.05 185.17 147.73 192.93 147.73 192.93Z" fill="black" style="fill:black;fill-opacity:1;"/>
<path d="M317.84 179.42H201.73C200.35 179.42 199.23 178.3 199.23 176.92V150.89C199.23 149.51 200.35 148.39 201.73 148.39H317.84C319.22 148.39 320.34 149.51 320.34 150.89V176.92C320.34 178.3 319.22 179.42 317.84 179.42Z" fill="#FF6933" style="fill:#FF6933;fill:color(display-p3 1.0000 0.4118 0.2000);fill-opacity:1;"/>
<path d="M318.54 201.58H202.23C201.24 201.58 200.43 200.74 200.43 199.7C200.43 198.66 201.24 197.82 202.23 197.82H318.54C319.54 197.82 320.34 198.66 320.34 199.7C320.34 200.74 319.54 201.58 318.54 201.58Z" fill="black" style="fill:black;fill-opacity:1;"/>
<path d="M239.29 232.15H201.04C200.04 232.15 199.24 231.31 199.24 230.27C199.24 229.23 200.04 228.39 201.04 228.39H239.29C240.28 228.39 241.09 229.23 241.09 230.27C241.09 231.31 240.28 232.15 239.29 232.15Z" fill="black" style="fill:black;fill-opacity:1;"/>
<path d="M317.77 232.15H262.92C261.92 232.15 261.12 231.31 261.12 230.27C261.12 229.23 261.92 228.39 262.92 228.39H317.77C318.76 228.39 319.57 229.23 319.57 230.27C319.57 231.31 318.76 232.15 317.77 232.15Z" fill="black" style="fill:black;fill-opacity:1;"/>
<path d="M257.78 273.14C256.92 273.14 256.14 272.54 255.95 271.66C255.73 270.65 256.37 269.65 257.38 269.43C264 267.98 270.33 265.31 276.02 261.63C275.11 258.51 275.43 255.01 276.95 251.86C278.55 248.53 281.32 246.06 284.55 245.08C286.46 244.5 288.6 244.65 290.13 245.47C291.26 246.08 292.05 247.02 292.4 248.19C293.17 250.74 291.53 252.96 290.24 254.4C287.39 257.58 284.19 260.45 280.73 262.95C283.22 266.77 288.5 268.92 293.14 267.75C294.18 267.49 295.39 266.94 296.63 266.22C295.56 262.65 296.36 257.86 298.69 255.26C300.62 253.11 303.36 252.56 306.22 253.76C308.08 254.54 309.06 256.06 308.92 257.93C308.7 260.87 305.41 264.53 301.69 267.33C302.59 268.06 303.8 268.51 305.13 268.58C307.12 268.69 308.93 267.92 309.88 266.57C310.48 265.73 311.65 265.53 312.49 266.13C313.33 266.73 313.53 267.9 312.93 268.74C311.21 271.16 308.22 272.49 304.92 272.32C302.34 272.18 300.04 271.14 298.48 269.45C296.89 270.37 295.35 271.05 294.07 271.38C287.84 272.95 281 270.17 277.63 265.04C271.68 268.81 265.08 271.56 258.2 273.08C258.07 273.11 257.93 273.13 257.8 273.13L257.78 273.14ZM303.3 256.89C302.6 256.89 302.01 257.18 301.48 257.77C300.27 259.12 299.71 261.77 299.97 263.95C302.75 261.76 305.06 259.18 305.18 257.66C305.19 257.49 305.2 257.41 304.77 257.23C304.23 257 303.74 256.89 303.3 256.89ZM286.93 248.48C286.5 248.48 286.05 248.54 285.63 248.67C283.41 249.35 281.47 251.1 280.33 253.49C279.44 255.35 279.11 257.41 279.36 259.31C282.29 257.11 285 254.63 287.44 251.91C288.78 250.42 288.92 249.66 288.8 249.27C288.76 249.13 288.67 248.95 288.35 248.78C287.98 248.58 287.47 248.48 286.93 248.48Z" fill="black" style="fill:black;fill-opacity:1;"/>
<path d="M192 49C180.27 49 170.76 58.5 170.76 70.23V100.15C170.76 102.54 172.7 104.48 175.08 104.48H208.91C211.29 104.48 213.23 102.54 213.23 100.15V70.23C213.23 58.5 203.72 49 191.99 49H192ZM192 80.7C187.16 80.7 183.23 76.77 183.23 71.93C183.23 67.09 187.16 63.15 192 63.15C196.84 63.15 200.77 67.08 200.77 71.93C200.77 76.78 196.84 80.7 192 80.7Z" fill="#8879E1" style="fill:#8879E1;fill:color(display-p3 0.5333 0.4745 0.8824);fill-opacity:1;"/>
</g>
<defs>
<clipPath id="clip0_615_1897">
<rect width="384" height="384" fill="white" style="fill:white;fill-opacity:1;"/>
</clipPath>
</defs>
</svg>
