<svg width="384" height="384" viewBox="0 0 384 384" fill="none" xmlns="http://www.w3.org/2000/svg">
<g clip-path="url(#clip0_609_753)">
<path d="M375.524 319.438H290.912L288.168 318.479L285.07 319.438H258.376L255.478 318.005L252.557 319.438H225.874L222.656 318.336L220.033 319.438H193.317L189.999 318.016L187.497 319.438H160.781L157.805 318.722L154.962 319.438H128.279L125.093 318.634L122.415 319.438H95.7212L92.8336 318.237L89.9019 319.438H63.2188L59.9454 318.358L57.3554 319.438H30.6944L27.1234 318.567L24.9081 319.438H17.8764C13.1923 319.438 9.40088 315.647 9.40088 310.963V308.163L10.1283 305L9.40088 302.366V275.672L10.6684 272.564L9.40088 269.852V210.612L10.5912 207.118L9.40088 204.782V178.099L10.8998 174.483L9.40088 172.268V145.541L10.6794 142.664L9.40088 139.711V80.5142L10.3818 77.3951L9.40088 74.6618V52.4645C9.40088 47.7914 13.1923 44 17.8764 44H40.0406L42.3992 45.025L45.893 44H72.5761L75.0449 44.8046L78.4285 44H105.134L107.547 44.9478L110.964 44H137.647L140.006 44.7715L143.488 44H170.171L172.354 44.4629L176.002 44H202.707L205.374 44.9478L208.537 44H235.22L237.722 44.8376L241.062 44H267.745L269.971 44.7825L273.597 44H300.28L302.352 44.7825L306.099 44H332.727L335.439 44.7605L338.591 44H365.274L368.04 44.7384L371.104 44H375.502C380.186 44 383.966 47.7914 383.966 52.4645V57.843L383.404 61.8548L383.966 63.6954V90.3674L383.052 93.5306L383.966 96.1978V122.903L383.041 126.298L383.966 128.722V155.438L383.085 158.315L383.966 161.258V187.974L382.952 191.214L383.966 193.804V310.963C383.966 315.647 380.175 319.438 375.491 319.438H375.524Z" fill="#60D7E5" style="fill:#60D7E5;fill:color(display-p3 0.3765 0.8431 0.8980);fill-opacity:1;"/>
<path d="M306.144 44L30.7061 319.438H24.8647L300.314 44H306.144Z" fill="#60D7E5" style="fill:#60D7E5;fill:color(display-p3 0.3765 0.8431 0.8980);fill-opacity:1;"/>
<path d="M273.631 44L9.42334 308.196V302.355L267.767 44H273.62H273.631Z" fill="#60D7E5" style="fill:#60D7E5;fill:color(display-p3 0.3765 0.8431 0.8980);fill-opacity:1;"/>
<path d="M241.095 44L9.42334 275.661V269.819L235.243 44H241.095Z" fill="#60D7E5" style="fill:#60D7E5;fill:color(display-p3 0.3765 0.8431 0.8980);fill-opacity:1;"/>
<path d="M208.56 44L9.42334 243.125V237.295L202.718 44H208.56Z" fill="#60D7E5" style="fill:#60D7E5;fill:color(display-p3 0.3765 0.8431 0.8980);fill-opacity:1;"/>
<path d="M176.024 44L9.42334 210.601V204.76L170.183 44H176.024Z" fill="#60D7E5" style="fill:#60D7E5;fill:color(display-p3 0.3765 0.8431 0.8980);fill-opacity:1;"/>
<path d="M143.5 44L9.42334 178.076V172.224L137.647 44H143.5Z" fill="#60D7E5" style="fill:#60D7E5;fill:color(display-p3 0.3765 0.8431 0.8980);fill-opacity:1;"/>
<path d="M110.964 44L9.42334 145.541V139.689L105.134 44H110.964Z" fill="#60D7E5" style="fill:#60D7E5;fill:color(display-p3 0.3765 0.8431 0.8980);fill-opacity:1;"/>
<path d="M78.4399 44L9.42334 113.017V107.175L72.5875 44H78.4399Z" fill="#60D7E5" style="fill:#60D7E5;fill:color(display-p3 0.3765 0.8431 0.8980);fill-opacity:1;"/>
<path d="M45.9155 44L9.42334 80.4811V74.6287L40.0521 44H45.9045H45.9155Z" fill="#60D7E5" style="fill:#60D7E5;fill:color(display-p3 0.3765 0.8431 0.8980);fill-opacity:1;"/>
<path d="M384 220.476V226.306L290.879 319.427H285.038L384 220.476Z" fill="#60D7E5" style="fill:#60D7E5;fill:color(display-p3 0.3765 0.8431 0.8980);fill-opacity:1;"/>
<path d="M384 187.94V193.793L258.355 319.427H252.513L384 187.94Z" fill="#60D7E5" style="fill:#60D7E5;fill:color(display-p3 0.3765 0.8431 0.8980);fill-opacity:1;"/>
<path d="M384 155.416V161.257L225.819 319.427H219.978L384 155.405V155.416Z" fill="#60D7E5" style="fill:#60D7E5;fill:color(display-p3 0.3765 0.8431 0.8980);fill-opacity:1;"/>
<path d="M384 122.892V128.733L193.284 319.438H187.454L384 122.892Z" fill="#60D7E5" style="fill:#60D7E5;fill:color(display-p3 0.3765 0.8431 0.8980);fill-opacity:1;"/>
<path d="M384 90.356V96.1974L160.759 319.438H154.918L384 90.356Z" fill="#60D7E5" style="fill:#60D7E5;fill:color(display-p3 0.3765 0.8431 0.8980);fill-opacity:1;"/>
<path d="M384 57.8213V63.6737L128.235 319.438H122.394L384 57.8213Z" fill="#60D7E5" style="fill:#60D7E5;fill:color(display-p3 0.3765 0.8431 0.8980);fill-opacity:1;"/>
<path d="M371.126 44L95.6993 319.438H89.8579L365.296 44H371.126Z" fill="#60D7E5" style="fill:#60D7E5;fill:color(display-p3 0.3765 0.8431 0.8980);fill-opacity:1;"/>
<path d="M338.603 44L63.1754 319.438H57.334L332.761 44H338.603Z" fill="#60D7E5" style="fill:#60D7E5;fill:color(display-p3 0.3765 0.8431 0.8980);fill-opacity:1;"/>
<path d="M32.9102 125.493H3.62607C1.62016 125.493 0 123.872 0 121.866V103.461C0 101.455 1.62016 99.8345 3.62607 99.8345H32.9102V125.493Z" fill="#614CD8" style="fill:#614CD8;fill:color(display-p3 0.3804 0.2980 0.8471);fill-opacity:1;"/>
<path d="M32.9102 201.343H3.62607C1.62016 201.343 0 199.723 0 197.717V179.311C0 177.305 1.62016 175.685 3.62607 175.685H32.9102V201.343Z" fill="#FCB900" style="fill:#FCB900;fill:color(display-p3 0.9882 0.7255 0.0000);fill-opacity:1;"/>
<path d="M32.9102 242.332H3.62607C1.62016 242.332 0 240.712 0 238.706V220.3C0 218.294 1.62016 216.674 3.62607 216.674H32.9102V242.332Z" fill="#FF6933" style="fill:#FF6933;fill:color(display-p3 1.0000 0.4118 0.2000);fill-opacity:1;"/>
<path d="M351.365 57.7988H41.4297C35.8859 57.7988 31.3892 62.2956 31.3892 67.8394V293.714C31.3892 299.258 35.8859 303.754 41.4297 303.754H351.365C356.909 303.754 361.406 299.258 361.406 293.714V67.8394C361.406 62.2956 356.909 57.7988 351.365 57.7988Z" fill="#EDE8DD" style="fill:#EDE8DD;fill:color(display-p3 0.9294 0.9098 0.8667);fill-opacity:1;"/>
<path d="M150.598 112.388H77.8226C73.8328 112.388 70.6035 109.159 70.6035 105.169V93.244C70.6035 89.2542 73.8328 86.0249 77.8226 86.0249H150.598C154.587 86.0249 157.817 89.2542 157.817 93.244V105.169C157.817 109.159 154.587 112.388 150.598 112.388Z" fill="white" style="fill:white;fill-opacity:1;"/>
<path d="M170.811 143.48H120.201C116.045 143.48 112.673 140.107 112.673 135.952C112.673 131.797 116.045 128.424 120.201 128.424H170.811C174.966 128.424 178.339 131.797 178.339 135.952C178.339 140.107 174.966 143.48 170.811 143.48Z" fill="#FF6933" style="fill:#FF6933;fill:color(display-p3 1.0000 0.4118 0.2000);fill-opacity:1;"/>
<path d="M105.564 199.943H54.953C50.7979 199.943 47.4253 196.57 47.4253 192.415C47.4253 188.26 50.7979 184.887 54.953 184.887H105.564C109.719 184.887 113.091 188.26 113.091 192.415C113.091 196.57 109.73 199.943 105.564 199.943Z" fill="#FF6933" style="fill:#FF6933;fill:color(display-p3 1.0000 0.4118 0.2000);fill-opacity:1;"/>
<path d="M302.573 115.871H251.962C247.807 115.871 244.435 112.498 244.435 108.343C244.435 104.188 247.807 100.815 251.962 100.815H302.573C306.728 100.815 310.101 104.188 310.101 108.343C310.101 112.498 306.739 115.871 302.573 115.871Z" fill="#FF6933" style="fill:#FF6933;fill:color(display-p3 1.0000 0.4118 0.2000);fill-opacity:1;"/>
<path d="M270.225 171.706H219.615C215.459 171.706 212.087 168.334 212.087 164.179C212.087 160.023 215.459 156.651 219.615 156.651H270.225C274.38 156.651 277.753 160.023 277.753 164.179C277.753 168.334 274.38 171.706 270.225 171.706Z" fill="#FF6933" style="fill:#FF6933;fill:color(display-p3 1.0000 0.4118 0.2000);fill-opacity:1;"/>
<path d="M174.437 256.825H53.9725C49.8174 256.825 46.4448 253.452 46.4448 249.297C46.4448 245.142 49.8174 241.77 53.9725 241.77H174.437C178.593 241.77 181.965 245.142 181.965 249.297C181.965 253.452 178.593 256.825 174.437 256.825Z" fill="#FF6933" style="fill:#FF6933;fill:color(display-p3 1.0000 0.4118 0.2000);fill-opacity:1;"/>
<path d="M56.8376 273.137C62.3043 274.019 66.0295 279.177 65.1368 284.654C64.2551 290.121 59.086 293.846 53.6193 292.953C48.1527 292.061 44.4274 286.914 45.3201 281.436C46.2129 275.958 51.3599 272.244 56.8376 273.137Z" fill="white" style="fill:white;fill-opacity:1;"/>
<path d="M173.456 138.157H54.9422C53.7959 138.157 52.8701 137.231 52.8701 136.085C52.8701 134.938 53.7959 134.013 54.9422 134.013H173.456C174.603 134.013 175.528 134.938 175.528 136.085C175.528 137.231 174.603 138.157 173.456 138.157Z" fill="black" style="fill:black;fill-opacity:1;"/>
<path d="M173.456 166.46H54.9422C53.7959 166.46 52.8701 165.534 52.8701 164.387C52.8701 163.241 53.7959 162.315 54.9422 162.315H173.456C174.603 162.315 175.528 163.241 175.528 164.387C175.528 165.534 174.603 166.46 173.456 166.46Z" fill="black" style="fill:black;fill-opacity:1;"/>
<path d="M173.456 194.774H54.9422C53.7959 194.774 52.8701 193.848 52.8701 192.702C52.8701 191.556 53.7959 190.63 54.9422 190.63H173.456C174.603 190.63 175.528 191.556 175.528 192.702C175.528 193.848 174.603 194.774 173.456 194.774Z" fill="black" style="fill:black;fill-opacity:1;"/>
<path d="M173.456 223.077H54.9422C53.7959 223.077 52.8701 222.151 52.8701 221.005C52.8701 219.859 53.7959 218.933 54.9422 218.933H173.456C174.603 218.933 175.528 219.859 175.528 221.005C175.528 222.151 174.603 223.077 173.456 223.077Z" fill="black" style="fill:black;fill-opacity:1;"/>
<path d="M173.456 251.369H54.9422C53.7959 251.369 52.8701 250.443 52.8701 249.297C52.8701 248.151 53.7959 247.225 54.9422 247.225H173.456C174.603 247.225 175.528 248.151 175.528 249.297C175.528 250.443 174.603 251.369 173.456 251.369Z" fill="black" style="fill:black;fill-opacity:1;"/>
<path d="M337.842 138.157H219.328C218.182 138.157 217.256 137.231 217.256 136.085C217.256 134.938 218.182 134.013 219.328 134.013H337.842C338.988 134.013 339.914 134.938 339.914 136.085C339.914 137.231 338.988 138.157 337.842 138.157Z" fill="black" style="fill:black;fill-opacity:1;"/>
<path d="M337.842 110.559H219.328C218.182 110.559 217.256 109.633 217.256 108.487C217.256 107.34 218.182 106.415 219.328 106.415H337.842C338.988 106.415 339.914 107.34 339.914 108.487C339.914 109.633 338.988 110.559 337.842 110.559Z" fill="black" style="fill:black;fill-opacity:1;"/>
<path d="M337.842 166.46H219.328C218.182 166.46 217.256 165.534 217.256 164.387C217.256 163.241 218.182 162.315 219.328 162.315H337.842C338.988 162.315 339.914 163.241 339.914 164.387C339.914 165.534 338.988 166.46 337.842 166.46Z" fill="black" style="fill:black;fill-opacity:1;"/>
<path d="M337.842 194.774H219.328C218.182 194.774 217.256 193.848 217.256 192.702C217.256 191.556 218.182 190.63 219.328 190.63H337.842C338.988 190.63 339.914 191.556 339.914 192.702C339.914 193.848 338.988 194.774 337.842 194.774Z" fill="black" style="fill:black;fill-opacity:1;"/>
<path d="M337.842 223.077H219.328C218.182 223.077 217.256 222.151 217.256 221.005C217.256 219.859 218.182 218.933 219.328 218.933H337.842C338.988 218.933 339.914 219.859 339.914 221.005C339.914 222.151 338.988 223.077 337.842 223.077Z" fill="black" style="fill:black;fill-opacity:1;"/>
<path d="M337.842 251.369H219.328C218.182 251.369 217.256 250.443 217.256 249.297C217.256 248.151 218.182 247.225 219.328 247.225H337.842C338.988 247.225 339.914 248.151 339.914 249.297C339.914 250.443 338.988 251.369 337.842 251.369Z" fill="black" style="fill:black;fill-opacity:1;"/>
<path d="M196.392 305.815C195.246 305.815 194.32 304.889 194.32 303.743V57.7986C194.32 56.6524 195.246 55.7266 196.392 55.7266C197.538 55.7266 198.464 56.6524 198.464 57.7986V303.743C198.464 304.889 197.538 305.815 196.392 305.815Z" fill="black" style="fill:black;fill-opacity:1;"/>
<path d="M354.241 311.601L316.831 215.831C317.041 211.661 315.411 207.761 312.591 204.981L312.411 204.521L312.211 204.601C310.191 202.751 307.611 201.461 304.691 201.031L250.941 194.151C246.831 193.551 242.871 194.771 239.891 197.201C239.331 197.511 238.781 197.841 238.261 198.241L208.731 220.781C202.431 225.491 201.111 234.411 205.841 240.711C209.951 246.211 217.281 247.891 223.271 245.091L261.871 351.481C262.661 353.671 265.131 354.731 267.271 353.801L352.141 316.891C354.181 316.001 355.121 313.641 354.241 311.591V311.601ZM235.101 236.461L252.641 223.071L263.991 224.521L235.101 236.461Z" fill="#4A4335" style="fill:#4A4335;fill:color(display-p3 0.2902 0.2627 0.2078);fill-opacity:1;"/>
<path d="M287.51 226.6L289.6 251.41C290.14 257.72 284.02 263.16 276.53 263.04L264.97 262.86L247.61 256.18L227.9 262.28L208.3 261.97L199.46 245.88L205.59 229.78L224.86 226.19L244.92 229.79L261.32 219.41L272.68 217.3C280.04 215.93 286.98 220.27 287.51 226.58V226.6Z" fill="#08A5B8" style="fill:#08A5B8;fill:color(display-p3 0.0314 0.6471 0.7216);fill-opacity:1;"/>
<path d="M208.23 261.98L194.29 261.76C192.92 261.74 191.63 261.33 190.6 260.59L187.53 258.4L183.13 247.46L185.69 236.52L188.39 234C189.27 233.19 190.41 232.62 191.68 232.38L205.52 229.81L208.24 261.98H208.23Z" fill="white" style="fill:white;fill-opacity:1;"/>
<path d="M185.68 236.53L187.52 258.41L179.75 252.86C176.16 250.29 175.88 245.67 179.13 242.64L185.68 236.53Z" fill="#FF6933" style="fill:#FF6933;fill:color(display-p3 1.0000 0.4118 0.2000);fill-opacity:1;"/>
<path d="M261.31 219.44L264.97 262.86L227.9 262.29L224.85 226.21L261.31 219.44Z" fill="#08A5B8" style="fill:#08A5B8;fill:color(display-p3 0.0314 0.6471 0.7216);fill-opacity:1;"/>
<path d="M271.91 333.67C276.1 334.38 280.55 333.54 284.34 330.96C292.14 325.66 294.18 315.04 288.88 307.23L246.4 245.57C241.1 237.76 230.48 235.73 222.67 241.03C214.86 246.33 212.83 256.95 218.13 264.75L260.6 326.42C263.33 330.44 267.46 332.92 271.89 333.67H271.91Z" fill="#4A4335" style="fill:#4A4335;fill:color(display-p3 0.2902 0.2627 0.2078);fill-opacity:1;"/>
<path d="M271.07 283.25C270.47 283.25 269.88 282.96 269.52 282.44L241.23 241.36C240.64 240.51 240.85 239.33 241.71 238.74C242.56 238.15 243.74 238.37 244.33 239.23L272.62 280.3C273.21 281.16 273 282.33 272.14 282.92C271.82 283.15 271.44 283.25 271.08 283.25H271.07Z" fill="black" style="fill:black;fill-opacity:1;"/>
</g>
<defs>
<clipPath id="clip0_609_753">
<rect width="384" height="384" fill="white" style="fill:white;fill-opacity:1;"/>
</clipPath>
</defs>
</svg>
