<svg width="384" height="384" viewBox="0 0 384 384" fill="none" xmlns="http://www.w3.org/2000/svg">
<path d="M144.08 63.61C143.92 63.61 143.74 63.61 143.58 63.63C138.62 47.51 123.62 35.79 105.88 35.79C88.1402 35.79 73.1402 47.51 68.1802 63.63C68.0202 63.61 67.8402 63.61 67.6802 63.61C50.8202 63.61 36.6402 75.02 32.4102 90.54C31.5502 93.71 34.0202 96.82 37.3102 96.82H174.46C177.75 96.82 180.22 93.71 179.35 90.54C175.12 75.02 160.93 63.61 144.08 63.61Z" fill="#DFE2E6" style="fill:#DFE2E6;fill:color(display-p3 0.8745 0.8863 0.9020);fill-opacity:1;"/>
<path d="M351.05 86.24C351.05 107.06 334.17 123.94 313.35 123.94C292.53 123.94 275.65 107.06 275.65 86.24C275.65 65.42 292.53 48.54 313.35 48.54C334.17 48.54 351.05 65.42 351.05 86.24Z" fill="#FFC420" style="fill:#FFC420;fill:color(display-p3 1.0000 0.7686 0.1255);fill-opacity:1;"/>
<path d="M322.97 101.19C322.81 101.19 322.63 101.19 322.47 101.21C317.51 85.0999 302.51 73.3799 284.77 73.3799C267.03 73.3799 252.03 85.0899 247.07 101.21C245.95 104.87 245.34 108.76 245.34 112.8C245.34 120.77 247.7 128.19 251.78 134.4H354.07C356.99 134.4 359.13 131.65 358.42 128.82C354.44 112.95 340.07 101.2 322.97 101.2V101.19Z" fill="#DFE2E6" style="fill:#DFE2E6;fill:color(display-p3 0.8745 0.8863 0.9020);fill-opacity:1;"/>
<path d="M287.63 322.7C287.63 356.56 245.31 384 193.11 384C140.91 384 98.5898 356.55 98.5898 322.7C98.5898 288.85 140.91 261.4 193.11 261.4C245.31 261.4 287.63 288.85 287.63 322.7Z" fill="#08A5B8" style="fill:#08A5B8;fill:color(display-p3 0.0314 0.6471 0.7216);fill-opacity:1;"/>
<path d="M220.91 254.96C211.09 252.16 201.51 251.19 193.12 251.83C184.73 251.19 175.15 252.16 165.33 254.96C138.96 262.49 120.95 280.39 125.11 294.95C129.27 309.51 154.01 315.2 180.38 307.68C184.89 306.39 189.16 304.79 193.11 302.96C197.07 304.79 201.33 306.39 205.85 307.68C232.22 315.21 256.96 309.51 261.12 294.95C265.28 280.4 247.27 262.49 220.91 254.96Z" fill="#FFEDBC" style="fill:#FFEDBC;fill:color(display-p3 1.0000 0.9294 0.7373);fill-opacity:1;"/>
<path d="M198.69 319.68C199.68 322.75 197.99 326.05 194.92 327.04C191.84 328.03 188.55 326.34 187.56 323.27C186.57 320.2 188.26 316.9 191.33 315.91C194.4 314.92 197.7 316.61 198.69 319.68Z" fill="black" style="fill:black;fill-opacity:1;"/>
<path d="M198.69 346.25C199.68 349.32 197.99 352.62 194.92 353.61C191.84 354.6 188.55 352.91 187.56 349.84C186.57 346.77 188.26 343.47 191.33 342.48C194.4 341.49 197.7 343.18 198.69 346.25Z" fill="black" style="fill:black;fill-opacity:1;"/>
<path d="M334.05 362.12H286.94C281.92 362.12 277.85 358.05 277.85 353.03V278.23C277.85 273.21 281.92 269.14 286.94 269.14H334.05C339.07 269.14 343.14 273.21 343.14 278.23V353.03C343.14 358.05 339.07 362.12 334.05 362.12Z" fill="#FFEDBC" style="fill:#FFEDBC;fill:color(display-p3 1.0000 0.9294 0.7373);fill-opacity:1;"/>
<path d="M331.42 323.12H289.57C288.76 323.12 288.09 322.46 288.09 321.64V309.64C288.09 308.82 288.75 308.16 289.57 308.16H331.42C332.23 308.16 332.9 308.82 332.9 309.64V321.64C332.9 322.46 332.24 323.12 331.42 323.12Z" fill="#FFC420" style="fill:#FFC420;fill:color(display-p3 1.0000 0.7686 0.1255);fill-opacity:1;"/>
<path d="M331.42 347.69H289.57C288.76 347.69 288.09 347.03 288.09 346.21V334.2C288.09 333.38 288.75 332.72 289.57 332.72H331.42C332.23 332.72 332.9 333.38 332.9 334.2V346.21C332.9 347.03 332.24 347.69 331.42 347.69Z" fill="#FFC420" style="fill:#FFC420;fill:color(display-p3 1.0000 0.7686 0.1255);fill-opacity:1;"/>
<path d="M331.42 298.55H289.57C288.76 298.55 288.09 297.89 288.09 297.07V285.06C288.09 284.25 288.75 283.58 289.57 283.58H331.42C332.23 283.58 332.9 284.24 332.9 285.06V297.07C332.9 297.89 332.24 298.55 331.42 298.55Z" fill="white" style="fill:white;fill-opacity:1;"/>
<path d="M68.53 269.13C91.76 269.38 110.38 288.42 110.12 311.65C109.87 334.88 90.83 353.5 67.6 353.25C44.37 352.99 25.75 333.95 26 310.72C26.26 287.49 45.29 268.87 68.52 269.13H68.53Z" fill="#FFC420" style="fill:#FFC420;fill:color(display-p3 1.0000 0.7686 0.1255);fill-opacity:1;"/>
<path d="M51.1201 318.42C52.1601 320.86 51.0301 323.68 48.5901 324.72C46.1501 325.76 43.3201 324.63 42.2801 322.19C41.2401 319.75 42.3701 316.92 44.8101 315.88C47.2501 314.84 50.0701 315.97 51.1201 318.41V318.42Z" fill="black" style="fill:black;fill-opacity:1;"/>
<path d="M93.8599 300.14C94.8999 302.58 93.7699 305.41 91.3299 306.45C88.8899 307.49 86.0699 306.36 85.0199 303.92C83.9799 301.48 85.1099 298.66 87.5499 297.62C89.9899 296.58 92.8099 297.71 93.8499 300.15L93.8599 300.14Z" fill="black" style="fill:black;fill-opacity:1;"/>
<path d="M58.1902 330.11C57.3902 330.11 56.6402 329.64 56.3002 328.86C55.8502 327.82 56.3402 326.61 57.3802 326.16L86.3002 313.8C87.3402 313.35 88.5502 313.84 88.9902 314.88C89.4402 315.92 88.9602 317.13 87.9102 317.58L58.9902 329.94C58.7202 330.05 58.4502 330.11 58.1802 330.11H58.1902Z" fill="black" style="fill:black;fill-opacity:1;"/>
<path d="M218.87 82.32C230.62 74.16 238.31 60.58 238.31 45.19C238.31 20.23 218.08 0 193.12 0C168.16 0 147.93 20.23 147.93 45.19C147.93 60.57 155.63 74.15 167.37 82.31C117.83 93.95 80.9399 138.39 80.9399 191.48C80.9399 253.43 305.29 253.43 305.29 191.48C305.29 138.39 268.39 93.95 218.86 82.31L218.87 82.32Z" fill="#676D73" style="fill:#676D73;fill:color(display-p3 0.4039 0.4275 0.4510);fill-opacity:1;"/>
<path d="M298.37 191.48C298.37 249.61 251.25 296.73 193.12 296.73C134.99 296.73 87.8701 249.61 87.8701 191.48C87.8701 133.35 134.99 86.23 193.12 86.23C251.25 86.23 298.37 133.35 298.37 191.48Z" fill="#F8DFD2" style="fill:#F8DFD2;fill:color(display-p3 0.9725 0.8745 0.8235);fill-opacity:1;"/>
<path d="M193.12 84.04C115.91 84.04 93.6599 142.46 88.8799 176.9C108.98 180.18 130.61 161.04 139.47 132.3C154.83 139.91 173.27 144.33 193.12 144.33C212.97 144.33 231.41 139.91 246.77 132.3C255.62 161.04 277.26 180.18 297.36 176.9C290.11 124.63 254.3 84.04 193.12 84.04Z" fill="#676D73" style="fill:#676D73;fill:color(display-p3 0.4039 0.4275 0.4510);fill-opacity:1;"/>
<path d="M139.47 134.35C138.64 134.35 137.86 133.84 137.54 133.01L130.3 113.54C129.9 112.48 130.44 111.29 131.51 110.9C132.57 110.5 133.76 111.05 134.15 112.11L141.4 131.58C141.79 132.64 141.26 133.83 140.19 134.22C139.96 134.31 139.71 134.35 139.48 134.35H139.47Z" fill="black" style="fill:black;fill-opacity:1;"/>
<path d="M246.57 134.35C246.33 134.35 246.09 134.31 245.86 134.22C244.8 133.83 244.25 132.64 244.65 131.58L251.9 112.11C252.3 111.05 253.48 110.51 254.54 110.9C255.6 111.3 256.14 112.48 255.75 113.54L248.5 133.01C248.19 133.84 247.41 134.35 246.57 134.35Z" fill="black" style="fill:black;fill-opacity:1;"/>
<path d="M169.78 84.0398C168.8 84.0398 167.92 83.3298 167.76 82.3298C167.57 81.2098 168.32 80.1498 169.44 79.9598C177.82 78.5298 186.36 77.8698 194.85 77.9698C202.17 78.0598 209.55 78.7298 216.79 79.9598C217.91 80.1498 218.66 81.2098 218.47 82.3298C218.28 83.4498 217.21 84.2098 216.1 84.0098C209.08 82.8198 201.91 82.1698 194.8 82.0798C186.55 81.9798 178.26 82.6298 170.12 84.0098C170 84.0298 169.89 84.0398 169.78 84.0398Z" fill="black" style="fill:black;fill-opacity:1;"/>
<path d="M263.26 170.7C263.26 174.51 256.17 177.6 247.42 177.6C238.67 177.6 231.58 174.51 231.58 170.7C231.58 166.89 238.67 163.8 247.42 163.8C256.17 163.8 263.26 166.89 263.26 170.7Z" fill="#676D73" style="fill:#676D73;fill:color(display-p3 0.4039 0.4275 0.4510);fill-opacity:1;"/>
<path d="M154.88 170.7C154.88 174.51 147.79 177.6 139.04 177.6C130.29 177.6 123.2 174.51 123.2 170.7C123.2 166.89 130.29 163.8 139.04 163.8C147.79 163.8 154.88 166.89 154.88 170.7Z" fill="#676D73" style="fill:#676D73;fill:color(display-p3 0.4039 0.4275 0.4510);fill-opacity:1;"/>
<path d="M225.6 201.16C230.22 189.25 243.62 183.34 255.53 187.96C261.99 190.46 266.66 195.54 268.87 201.57C270.76 206.66 270.85 212.43 268.74 217.88C264.25 229.46 251.42 235.37 239.74 231.41C239.43 231.33 239.14 231.21 238.81 231.09C226.9 226.48 220.99 213.07 225.61 201.16H225.6Z" fill="white" style="fill:white;fill-opacity:1;"/>
<path d="M239.87 215.1C244.36 203.52 257.2 197.61 268.87 201.57C270.76 206.66 270.85 212.43 268.74 217.88C264.25 229.46 251.42 235.37 239.74 231.41C237.84 226.32 237.76 220.55 239.87 215.1Z" fill="black" style="fill:black;fill-opacity:1;"/>
<path d="M117.48 201.16C122.1 189.25 135.5 183.34 147.41 187.96C153.87 190.46 158.54 195.54 160.75 201.57C162.64 206.66 162.73 212.43 160.62 217.88C156.13 229.46 143.3 235.37 131.62 231.41C131.31 231.33 131.02 231.21 130.69 231.09C118.78 226.48 112.87 213.07 117.49 201.16H117.48Z" fill="white" style="fill:white;fill-opacity:1;"/>
<path d="M131.74 215.1C136.23 203.52 149.06 197.61 160.74 201.57C162.63 206.66 162.72 212.43 160.61 217.88C156.12 229.46 143.29 235.37 131.61 231.41C129.72 226.32 129.63 220.55 131.74 215.1Z" fill="black" style="fill:black;fill-opacity:1;"/>
<path d="M193.12 235.43C187.05 235.43 182.11 231.38 182.11 226.4C182.11 221.42 187.05 217.37 193.12 217.37C199.19 217.37 204.13 221.42 204.13 226.4C204.13 231.38 199.19 235.43 193.12 235.43ZM193.12 221.48C189.38 221.48 186.22 223.73 186.22 226.4C186.22 229.07 189.38 231.33 193.12 231.33C196.86 231.33 200.02 229.07 200.02 226.4C200.02 223.73 196.86 221.48 193.12 221.48Z" fill="black" style="fill:black;fill-opacity:1;"/>
<path d="M193.12 249.05C184.62 249.05 176.11 248.1 167.82 246.23C166.71 245.98 166.02 244.88 166.27 243.78C166.52 242.67 167.62 241.98 168.73 242.23C176.93 244.07 185.42 244.96 193.75 244.94C201.73 244.89 209.73 243.98 217.54 242.23C218.66 241.98 219.75 242.68 220 243.78C220.25 244.89 219.55 245.99 218.45 246.23C210.36 248.05 202.06 249 193.78 249.04C193.57 249.04 193.35 249.04 193.14 249.04L193.12 249.05Z" fill="black" style="fill:black;fill-opacity:1;"/>
<path d="M333.98 200.18C333.98 214.99 321.98 226.99 307.17 226.99C292.36 226.99 280.36 214.99 280.36 200.18C280.36 185.37 292.37 173.37 307.17 173.37C321.97 173.37 333.98 185.37 333.98 200.18Z" fill="#F8DFD2" style="fill:#F8DFD2;fill:color(display-p3 0.9725 0.8745 0.8235);fill-opacity:1;"/>
<path d="M303.25 215.2C302.84 215.2 302.43 215.08 302.08 214.83C298.77 212.53 296.55 209.07 295.84 205.1C295.13 201.13 296 197.12 298.31 193.81C303.07 186.97 312.5 185.28 319.34 190.04C320.27 190.69 320.5 191.97 319.85 192.9C319.2 193.83 317.92 194.06 316.99 193.41C312.01 189.94 305.14 191.18 301.68 196.16C300 198.57 299.36 201.5 299.88 204.39C300.4 207.28 302.01 209.8 304.43 211.48C305.36 212.13 305.59 213.41 304.94 214.34C304.54 214.92 303.9 215.22 303.25 215.22V215.2Z" fill="black" style="fill:black;fill-opacity:1;"/>
<path d="M105.87 200.18C105.87 214.99 93.87 226.99 79.06 226.99C64.25 226.99 52.25 214.99 52.25 200.18C52.25 185.37 64.26 173.37 79.06 173.37C93.86 173.37 105.87 185.37 105.87 200.18Z" fill="#F8DFD2" style="fill:#F8DFD2;fill:color(display-p3 0.9725 0.8745 0.8235);fill-opacity:1;"/>
<path d="M82.98 215.2C82.33 215.2 81.69 214.89 81.29 214.32C80.64 213.39 80.87 212.11 81.8 211.46C84.21 209.78 85.83 207.27 86.35 204.37C86.87 201.48 86.23 198.56 84.55 196.15C81.09 191.17 74.21 189.94 69.24 193.4C68.31 194.05 67.03 193.82 66.38 192.89C65.73 191.96 65.96 190.68 66.89 190.03C73.73 185.27 83.16 186.96 87.92 193.8C90.22 197.11 91.1 201.12 90.39 205.1C89.68 209.07 87.46 212.53 84.15 214.83C83.8 215.08 83.38 215.2 82.98 215.2Z" fill="black" style="fill:black;fill-opacity:1;"/>
</svg>
