<svg width="384" height="384" viewBox="0 0 384 384" fill="none" xmlns="http://www.w3.org/2000/svg">
<g clip-path="url(#clip0_609_754)">
<path d="M366.58 225.43L359.33 236.39L357.22 239.58L347.59 254.16L347.19 254.76L343.46 255.32L322.42 258.49L317.81 259.18L313.89 259.77C312.44 259.09 310.81 258.49 309.02 257.96L317.56 283.14L320.28 291.16L321.05 293.42C323.52 300.72 322.48 308.13 319.03 314.12C318.4 315.22 317.69 316.28 316.89 317.28C313.24 321.9 307.97 325.26 301.8 326.4C300.28 326.68 298.72 326.83 297.1 326.83H178.58C167.33 326.83 105.01 290.84 110.34 275.17C111.74 271.04 113.3 266.96 115 262.97C115.53 261.73 116.07 260.51 116.62 259.29C119.1 253.81 121.86 248.48 124.88 243.34C125.05 243.04 127.46 243.27 127.69 242.9C127.95 242.47 126.61 240.46 126.88 240.02C129.92 235.06 133.22 230.27 136.75 225.68C137.07 225.25 139.25 226.36 139.59 225.93C140.03 225.37 138.63 223.28 139.09 222.72C142.67 218.25 146.48 213.97 150.51 209.93C150.89 209.54 153.29 211.39 153.67 211.02C154.17 210.52 152.67 207.79 153.18 207.3C154.14 206.37 155.11 205.46 156.09 204.56C159.61 201.34 163 198.51 166.17 196.07C167.2 195.27 168.21 194.5 169.19 193.78C175.49 189.14 180.7 186.08 183.95 184.33C185.52 183.48 186.62 182.94 187.18 182.68L187.71 182.8L218.95 189.82L225.78 191.35L257.01 198.37L263.85 199.9L291.45 206.1C291.93 205.64 292.43 205.2 292.95 204.78C293.92 203.97 294.95 203.22 296.02 202.54C301.73 198.91 308.66 197.19 315.77 198.09C316.57 198.19 319.72 200.84 320.28 200.96C321.16 201.16 321.59 199.25 322.46 199.48C340.26 203.98 355.62 213.13 366.6 225.41L366.58 225.43Z" fill="#09C0D7" style="fill:#09C0D7;fill:color(display-p3 0.0353 0.7529 0.8431);fill-opacity:1;"/>
<path d="M213.66 326.85H208.36L124.87 243.36C125.04 243.06 125.21 242.76 125.39 242.46C125.87 241.65 126.36 240.85 126.86 240.05L213.66 326.85Z" fill="#09C0D7" style="fill:#09C0D7;fill:color(display-p3 0.0353 0.7529 0.8431);fill-opacity:1;"/>
<path d="M243.18 326.85H237.88L136.73 225.7C137.48 224.7 138.27 223.72 139.06 222.74L243.17 326.85H243.18Z" fill="#09C0D7" style="fill:#09C0D7;fill:color(display-p3 0.0353 0.7529 0.8431);fill-opacity:1;"/>
<path d="M272.69 326.85H267.39L150.49 209.95C151.37 209.06 152.26 208.18 153.16 207.32L272.7 326.86L272.69 326.85Z" fill="#09C0D7" style="fill:#09C0D7;fill:color(display-p3 0.0353 0.7529 0.8431);fill-opacity:1;"/>
<path d="M359.33 236.4L357.22 239.59L315.74 198.12C316.54 198.22 317.33 198.34 318.13 198.51C319.58 198.81 321.02 199.14 322.43 199.51L359.33 236.41V236.4Z" fill="#09C0D7" style="fill:#09C0D7;fill:color(display-p3 0.0353 0.7529 0.8431);fill-opacity:1;"/>
<path d="M379.08 244.97C376.05 237.85 371.81 231.29 366.58 225.43L313.88 259.77C316.93 261.19 319.23 262.86 320.87 264.41C318.91 264.8 316.44 265.2 313.34 265.55C299.98 267.03 246.89 265.9 246.89 265.9C243.64 265.81 240.8 267.73 239.55 270.52C239.11 271.45 238.86 272.49 238.84 273.59C238.81 275.44 239.44 277.14 240.53 278.48C241.44 279.65 242.68 280.56 244.12 281.05C240.8 281.8 238.28 284.73 238.22 288.29C238.18 290.61 239.18 292.7 240.8 294.12C241.62 294.93 242.62 295.57 243.75 295.95C242.86 296.2 242.03 296.61 241.3 297.14C239.24 298.46 237.85 300.74 237.8 303.37C237.73 306.82 239.98 309.77 243.11 310.75C243.18 310.78 243.26 310.81 243.33 310.84C241.85 311.26 240.55 312.1 239.56 313.23C238.24 314.56 237.42 316.38 237.39 318.41C237.3 322.59 240.64 326.05 244.81 326.13H245.19C245.19 326.13 282.64 326.79 282.65 326.7C314.23 326.64 357.22 326.43 375.75 297.1C375.75 297.08 375.77 297.07 375.78 297.06C385.44 281.74 386.65 262.76 379.08 244.97Z" fill="#D9A08A" style="fill:#D9A08A;fill:color(display-p3 0.8510 0.6275 0.5412);fill-opacity:1;"/>
<path d="M266.26 283.57H266.2L246.34 283.02C245.3 282.99 244.49 282.13 244.52 281.09C244.55 280.05 245.43 279.26 246.45 279.27L266.31 279.82C267.35 279.85 268.16 280.71 268.13 281.74C268.1 282.76 267.27 283.56 266.26 283.56V283.57Z" fill="black" style="fill:black;fill-opacity:1;"/>
<path d="M265.85 298.45H265.8L245.94 297.9C244.9 297.87 244.09 297.01 244.11 295.97C244.14 294.94 245.02 294.14 246.04 294.15L265.9 294.7C266.94 294.73 267.75 295.59 267.72 296.63C267.69 297.65 266.86 298.45 265.84 298.45H265.85Z" fill="black" style="fill:black;fill-opacity:1;"/>
<path d="M265.43 313.54H265.38L245.51 312.99C244.47 312.96 243.66 312.1 243.69 311.06C243.72 310.03 244.59 309.23 245.62 309.24L265.48 309.79C266.52 309.82 267.33 310.68 267.3 311.72C267.27 312.74 266.44 313.54 265.43 313.54Z" fill="black" style="fill:black;fill-opacity:1;"/>
<path d="M338.8 150.68C338.8 178.65 288.02 139.75 237.37 139.67C186.99 139.6 136.75 178.5 136.75 150.68C136.76 94.8902 181.99 49.6602 237.78 49.6602C293.57 49.6602 338.8 94.8902 338.8 150.68Z" fill="#2E2200" style="fill:#2E2200;fill:color(display-p3 0.1804 0.1333 0.0000);fill-opacity:1;"/>
<path d="M327.17 146.91C327.17 196.27 287.15 236.3 237.78 236.3C188.41 236.3 148.4 196.27 148.4 146.91C148.4 142.23 148.76 137.64 149.45 133.15C172.27 98.5402 193.1 65.2202 237.79 65.2202C282.48 65.2202 300.22 98.5402 326.12 133.12C326.82 137.62 327.18 142.22 327.18 146.91H327.17Z" fill="#D9A08A" style="fill:#D9A08A;fill:color(display-p3 0.8510 0.6275 0.5412);fill-opacity:1;"/>
<path d="M326.11 133.12C306.91 134.06 280.63 121.68 258.25 99.2898C249.85 90.8798 242.87 81.9298 237.46 72.9998C232.05 81.9298 225.07 90.8798 216.66 99.2898C194.53 121.42 168.59 133.78 149.45 133.15C156.07 90.3098 193.1 57.5098 237.79 57.5098C282.48 57.5098 319.49 90.2998 326.12 133.12H326.11Z" fill="#2E2200" style="fill:#2E2200;fill:color(display-p3 0.1804 0.1333 0.0000);fill-opacity:1;"/>
<path d="M265 128.79C264.34 131.96 269.71 135.75 276.98 137.25C284.25 138.76 290.68 137.41 291.34 134.24C292 131.07 286.63 127.28 279.36 125.78C272.09 124.27 265.66 125.62 265 128.79Z" fill="#2E2200" style="fill:#2E2200;fill:color(display-p3 0.1804 0.1333 0.0000);fill-opacity:1;"/>
<path d="M184.22 134.25C183.56 131.08 188.93 127.29 196.2 125.79C203.47 124.28 209.9 125.63 210.56 128.8C211.22 131.97 205.85 135.76 198.58 137.26C191.31 138.77 184.88 137.42 184.22 134.25Z" fill="#2E2200" style="fill:#2E2200;fill:color(display-p3 0.1804 0.1333 0.0000);fill-opacity:1;"/>
<path d="M296.6 177.07C296.38 177.26 296.18 177.44 295.96 177.59C296 172.97 272.28 155.61 264.09 162.14C264.11 156.68 266.38 151.28 270.83 147.42C279.01 140.3 291.42 141.16 298.54 149.35C305.66 157.53 304.8 169.94 296.61 177.06L296.6 177.07Z" fill="white" style="fill:white;fill-opacity:1;"/>
<path d="M295.96 177.59C287.78 184.12 275.82 183.09 268.89 175.13C265.64 171.39 264.04 166.74 264.09 162.13C272.28 155.6 284.23 156.62 291.16 164.59C294.42 168.33 296.01 172.97 295.97 177.59H295.96Z" fill="black" style="fill:black;fill-opacity:1;"/>
<path d="M204.78 177.07C204.56 177.26 204.36 177.44 204.14 177.59C204.18 172.97 180.45 155.61 172.27 162.14C172.29 156.68 174.56 151.28 179 147.42C187.19 140.3 199.6 141.16 206.71 149.35C213.83 157.53 212.96 169.94 204.78 177.06V177.07Z" fill="white" style="fill:white;fill-opacity:1;"/>
<path d="M204.14 177.59C195.95 184.12 183.99 183.09 177.07 175.13C173.81 171.39 172.22 166.74 172.27 162.13C180.45 155.6 192.41 156.62 199.34 164.59C202.59 168.33 204.19 172.97 204.14 177.59Z" fill="black" style="fill:black;fill-opacity:1;"/>
<path d="M237.78 184.35C232.55 184.35 228.3 180.85 228.3 176.55C228.3 172.25 232.55 168.75 237.78 168.75C243.01 168.75 247.26 172.25 247.26 176.55C247.26 180.85 243.01 184.35 237.78 184.35ZM237.78 172.51C234.67 172.51 232.05 174.37 232.05 176.56C232.05 178.75 234.67 180.61 237.78 180.61C240.89 180.61 243.51 178.76 243.51 176.56C243.51 174.36 240.89 172.51 237.78 172.51Z" fill="black" style="fill:black;fill-opacity:1;"/>
<path d="M237.78 198.03C227.18 198.03 218.55 189.41 218.55 178.8C218.55 177.76 219.39 176.93 220.43 176.93C221.47 176.93 222.3 177.77 222.3 178.8C222.3 187.34 229.25 194.28 237.78 194.28C246.31 194.28 253.27 187.33 253.27 178.8C253.27 177.76 254.11 176.93 255.14 176.93C256.17 176.93 257.02 177.77 257.02 178.8C257.02 189.4 248.4 198.03 237.79 198.03H237.78Z" fill="black" style="fill:black;fill-opacity:1;"/>
<path d="M160.11 142.03C166.88 152.63 163.78 166.71 153.19 173.48C142.59 180.25 128.51 177.15 121.74 166.55C114.96 155.96 118.06 141.87 128.66 135.1C139.26 128.33 153.34 131.43 160.11 142.03Z" fill="#D9A08A" style="fill:#D9A08A;fill:color(display-p3 0.8510 0.6275 0.5412);fill-opacity:1;"/>
<path d="M145.08 141.66C145.58 141.98 145.92 142.53 145.94 143.17C145.98 144.2 145.17 145.07 144.14 145.11C139.07 145.3 135.09 149.58 135.27 154.65C135.36 157.11 136.4 159.39 138.2 161.06C140 162.73 142.35 163.61 144.81 163.52C145.84 163.48 146.71 164.29 146.75 165.32C146.79 166.35 145.98 167.22 144.95 167.26C137.81 167.52 131.79 161.92 131.52 154.78C131.26 147.64 136.86 141.62 144 141.36C144.4 141.35 144.77 141.46 145.08 141.66Z" fill="black" style="fill:black;fill-opacity:1;"/>
<path d="M355.06 144.17C360.65 155.44 356.04 169.1 344.77 174.69C333.5 180.28 319.84 175.67 314.25 164.4C308.67 153.13 313.27 139.47 324.54 133.88C335.81 128.29 349.47 132.9 355.06 144.17Z" fill="#D9A08A" style="fill:#D9A08A;fill:color(display-p3 0.8510 0.6275 0.5412);fill-opacity:1;"/>
<path d="M329.27 142.12C329.56 141.89 329.92 141.74 330.32 141.72C337.45 141.28 343.61 146.73 344.05 153.86C344.49 160.99 339.04 167.15 331.91 167.59C330.88 167.65 329.99 166.86 329.93 165.83C329.87 164.8 330.65 163.91 331.69 163.85C334.14 163.7 336.4 162.6 338.03 160.76C339.66 158.92 340.47 156.55 340.33 154.09C340.02 149.02 335.64 145.15 330.57 145.46C329.53 145.52 328.65 144.74 328.59 143.71C328.55 143.07 328.83 142.49 329.3 142.12H329.27Z" fill="black" style="fill:black;fill-opacity:1;"/>
<path d="M108.52 205.32C111.35 202.25 112.91 198.87 112.91 195.32C112.91 181.06 87.63 169.5 56.46 169.5C25.29 169.5 0 181.06 0 195.32C0 209.58 25.28 221.14 56.46 221.14C70.35 221.14 83.06 218.84 92.9 215.03L99.84 218.26L108.14 222.12C109.01 222.52 109.99 221.83 109.9 220.88L109.09 211.77L108.52 205.32Z" fill="#4424A7" style="fill:#4424A7;fill:color(display-p3 0.2667 0.1412 0.6549);fill-opacity:1;"/>
<path d="M38.68 195.32C38.68 199.5 35.29 202.89 31.11 202.89C26.93 202.89 23.54 199.5 23.54 195.32C23.54 191.14 26.93 187.75 31.11 187.75C35.29 187.75 38.68 191.14 38.68 195.32Z" fill="#D9A08A" style="fill:#D9A08A;fill:color(display-p3 0.8510 0.6275 0.5412);fill-opacity:1;"/>
<path d="M64.0199 195.32C64.0199 199.5 60.6299 202.89 56.4499 202.89C52.2699 202.89 48.8799 199.5 48.8799 195.32C48.8799 191.14 52.2699 187.75 56.4499 187.75C60.6299 187.75 64.0199 191.14 64.0199 195.32Z" fill="#D9A08A" style="fill:#D9A08A;fill:color(display-p3 0.8510 0.6275 0.5412);fill-opacity:1;"/>
<path d="M89.37 195.32C89.37 199.5 85.98 202.89 81.8 202.89C77.62 202.89 74.23 199.5 74.23 195.32C74.23 191.14 77.62 187.75 81.8 187.75C85.98 187.75 89.37 191.14 89.37 195.32Z" fill="#D9A08A" style="fill:#D9A08A;fill:color(display-p3 0.8510 0.6275 0.5412);fill-opacity:1;"/>
<path d="M304.31 330.17C304.31 332.47 302.45 334.34 300.15 334.34H224.9V326.01H300.15C302.45 326.01 304.31 327.87 304.31 330.17Z" fill="#4424A7" style="fill:#4424A7;fill:color(display-p3 0.2667 0.1412 0.6549);fill-opacity:1;"/>
<path d="M239 334.34H113.92C112.46 334.34 111.14 333.46 110.57 332.12L75.6799 249.31C75.1499 248.04 76.0799 246.64 77.4499 246.64H200.77C201.54 246.64 202.24 247.1 202.54 247.82L238.99 334.35L239 334.34Z" fill="#FFD76B" style="fill:#FFD76B;fill:color(display-p3 1.0000 0.8431 0.4196);fill-opacity:1;"/>
<path d="M134.71 287.66C134.71 290.13 135.67 292.46 137.44 294.22L149.87 306.61C150.17 306.91 150.57 307.06 150.96 307.06C151.35 307.06 151.75 306.9 152.05 306.6L164.44 294.2C166.19 292.45 167.16 290.13 167.16 287.64C167.17 285.17 166.21 282.84 164.45 281.08C162.69 279.32 160.37 278.37 157.9 278.37C155.43 278.37 153.09 279.33 151.33 281.09L150.94 281.48L150.55 281.09C148.79 279.33 146.46 278.37 143.98 278.37C141.5 278.37 139.18 279.33 137.42 281.09C135.67 282.85 134.71 285.18 134.71 287.66Z" fill="#FF6933" style="fill:#FF6933;fill:color(display-p3 1.0000 0.4118 0.2000);fill-opacity:1;"/>
</g>
<defs>
<clipPath id="clip0_609_754">
<rect width="384" height="384" fill="white" style="fill:white;fill-opacity:1;"/>
</clipPath>
</defs>
</svg>
