<svg width="384" height="384" viewBox="0 0 384 384" fill="none" xmlns="http://www.w3.org/2000/svg">
<g clip-path="url(#clip0_610_1465)">
<path d="M61.6802 281.2C61.6802 314.79 122.66 268.07 183.48 267.98C243.97 267.89 304.31 314.61 304.31 281.2C304.31 214.2 250 159.89 183 159.89C116 159.89 61.6902 214.2 61.6902 281.2H61.6802Z" fill="black" style="fill:black;fill-opacity:1;"/>
<path d="M185.44 169.36C244.7 170.72 291.64 219.86 290.29 279.12C288.93 338.39 239.79 385.33 180.52 383.97C121.26 382.61 74.32 333.47 75.67 274.21C77.03 214.94 126.17 168 185.43 169.36H185.44Z" fill="#A5614E" style="fill:#A5614E;fill:color(display-p3 0.6471 0.3804 0.3059);fill-opacity:1;"/>
<path d="M281.05 192.99C279.19 193.01 277.36 193.17 275.57 193.46C275.66 192.3 275.71 191.12 275.69 189.93C275.44 168.91 258.19 152.07 237.17 152.32C228.49 152.42 220.52 155.43 214.18 160.4C207.29 149.94 195.38 143.09 181.92 143.25C168.46 143.41 156.72 150.54 150.08 161.17C143.62 156.36 135.58 153.54 126.9 153.64C105.88 153.89 89.0402 171.14 89.2902 192.17C89.3002 193.36 89.3802 194.53 89.5002 195.69C87.7002 195.45 85.8802 195.34 84.0102 195.36C62.9902 195.61 46.1502 212.86 46.4002 233.89C46.6502 254.91 63.9002 271.75 84.9302 271.5C105.95 271.25 122.79 254 122.54 232.97C122.52 231.78 122.45 230.61 122.33 229.44C124.13 229.68 125.95 229.79 127.82 229.78C141.28 229.61 153.01 222.48 159.66 211.86C166.12 216.68 174.16 219.49 182.84 219.39C191.52 219.29 199.48 216.28 205.83 211.31C212.73 221.77 224.63 228.62 238.09 228.46C239.95 228.44 241.78 228.28 243.57 228C243.48 229.16 243.43 230.34 243.45 231.53C243.7 252.55 260.95 269.39 281.97 269.14C302.99 268.89 319.83 251.64 319.58 230.62C319.33 209.6 302.08 192.76 281.06 193.01L281.05 192.99Z" fill="black" style="fill:black;fill-opacity:1;"/>
<path d="M150.31 254.91C151.1 258.71 144.66 263.27 135.92 265.08C127.18 266.89 119.46 265.27 118.67 261.47C117.88 257.67 124.33 253.11 133.06 251.31C141.79 249.5 149.51 251.11 150.3 254.92L150.31 254.91Z" fill="black" style="fill:black;fill-opacity:1;"/>
<path d="M247.31 261.47C248.1 257.67 241.66 253.11 232.92 251.31C224.19 249.5 216.47 251.11 215.68 254.92C214.89 258.72 221.34 263.28 230.07 265.09C238.8 266.9 246.52 265.28 247.31 261.48V261.47Z" fill="black" style="fill:black;fill-opacity:1;"/>
<path d="M259.92 304.04C259.81 304.34 259.68 304.63 259.53 304.95C254.06 316.78 240.05 321.93 228.23 316.45C216.4 310.99 211.25 296.97 216.72 285.14C219.68 278.73 225.16 274.3 231.43 272.45C226.64 284.07 254.61 305.63 259.92 304.03V304.04Z" fill="white" style="fill:white;fill-opacity:1;"/>
<path d="M243.32 302.85C231.82 297.53 226.64 284.08 231.43 272.46C236.73 270.86 242.61 271.15 248.02 273.65C259.52 278.97 264.7 292.42 259.91 304.04C254.61 305.64 248.73 305.35 243.32 302.85Z" fill="black" style="fill:black;fill-opacity:1;"/>
<path d="M149.68 303.96C149.58 304.26 149.45 304.56 149.3 304.88C143.88 316.72 129.88 321.93 118.03 316.5C106.19 311.08 100.98 297.07 106.41 285.23C109.35 278.8 114.81 274.35 121.08 272.48C116.34 284.12 144.39 305.57 149.68 303.96Z" fill="white" style="fill:white;fill-opacity:1;"/>
<path d="M133.09 302.83C121.57 297.55 116.34 284.13 121.09 272.48C126.39 270.86 132.27 271.13 137.69 273.61C149.2 278.89 154.44 292.32 149.69 303.96C144.4 305.58 138.51 305.32 133.09 302.83Z" fill="black" style="fill:black;fill-opacity:1;"/>
<path d="M183 321.26C176.93 321.26 171.99 317.23 171.99 312.27C171.99 307.31 176.93 303.28 183 303.28C189.07 303.28 194.01 307.31 194.01 312.27C194.01 317.23 189.07 321.26 183 321.26ZM183 307.03C179.07 307.03 175.74 309.43 175.74 312.27C175.74 315.11 179.06 317.51 183 317.51C186.94 317.51 190.26 315.11 190.26 312.27C190.26 309.43 186.94 307.03 183 307.03Z" fill="black" style="fill:black;fill-opacity:1;"/>
<path d="M204.52 327.27C207.28 327.27 209.28 329.82 208.73 332.53C206.3 344.51 195.7 353.53 183 353.53C170.3 353.53 159.7 344.51 157.27 332.53C156.72 329.83 158.72 327.27 161.48 327.27H204.53H204.52Z" fill="white" style="fill:white;fill-opacity:1;"/>
<path d="M302.7 258.4C317.69 260.26 328.33 273.92 326.47 288.91C324.61 303.9 310.95 314.54 295.96 312.68C280.97 310.82 270.33 297.16 272.19 282.17C274.05 267.18 287.71 256.54 302.7 258.4Z" fill="#A5614E" style="fill:#A5614E;fill:color(display-p3 0.6471 0.3804 0.3059);fill-opacity:1;"/>
<path d="M295.32 300.63C294.95 300.63 294.58 300.52 294.25 300.29C287.37 295.5 285.68 286.02 290.46 279.15C292.78 275.82 296.25 273.59 300.25 272.88C304.24 272.16 308.27 273.04 311.61 275.36C312.46 275.95 312.67 277.12 312.08 277.97C311.49 278.82 310.32 279.03 309.47 278.44C306.96 276.7 303.93 276.03 300.92 276.57C297.91 277.11 295.3 278.78 293.55 281.29C289.95 286.47 291.23 293.61 296.41 297.21C297.26 297.8 297.47 298.97 296.88 299.82C296.52 300.34 295.93 300.62 295.34 300.62L295.32 300.63Z" fill="black" style="fill:black;fill-opacity:1;"/>
<path d="M93.8799 282.83C95.3799 297.86 84.4099 311.26 69.3799 312.75C54.3499 314.25 40.9599 303.28 39.4599 288.25C37.9599 273.22 48.9399 259.83 63.9599 258.33C78.9899 256.84 92.3899 267.81 93.8799 282.83Z" fill="#A5614E" style="fill:#A5614E;fill:color(display-p3 0.6471 0.3804 0.3059);fill-opacity:1;"/>
<path d="M70.6801 300.63C70.0901 300.63 69.5001 300.35 69.1401 299.83C68.5501 298.98 68.7601 297.81 69.6101 297.22C74.7801 293.62 76.0701 286.48 72.4601 281.3C70.7201 278.79 68.1001 277.12 65.0901 276.57C62.0901 276.03 59.0501 276.69 56.5401 278.44C55.6901 279.03 54.5201 278.82 53.9301 277.97C53.3401 277.12 53.5501 275.95 54.4001 275.36C57.7301 273.04 61.7601 272.16 65.7601 272.88C69.7501 273.59 73.2301 275.82 75.5401 279.15C80.3201 286.03 78.6201 295.51 71.7501 300.29C71.4201 300.52 71.0501 300.63 70.6801 300.63Z" fill="black" style="fill:black;fill-opacity:1;"/>
<path d="M375.25 94.7001C373.89 99.0801 372.02 103.19 369.69 107C368.86 108.36 367.48 108.9 366.53 110.18C365.7 111.31 365.32 113.19 364.41 114.26C359.6 119.91 353.66 124.69 346.88 128.5C345.26 129.41 343.18 127.78 341.47 128.57C340.22 129.15 339.35 132.2 338.05 132.72C332.21 135.07 325.92 136.79 319.33 137.81C316.88 138.19 314.19 135.99 311.66 136.18C309.58 136.34 307.68 138.91 305.55 138.92C295.25 139.01 284.5 137.49 273.78 134.17C261.35 130.31 250.25 124.44 240.94 117.2L222.96 121.14C221.59 121.44 220.53 119.93 221.29 118.74L224.16 114.27L230.86 106.26C229.15 104.38 225.91 102.58 224.41 100.59C220.86 95.9001 217.91 90.9501 215.61 85.8301C214.51 83.3701 215.92 79.8301 215.13 77.3101C214.53 75.3801 211.65 74.4701 211.24 72.5201C209.27 63.1401 209.54 53.5301 212.43 44.2201C223.09 9.83012 265.57 -7.84988 308.82 3.31012C310.51 3.74012 313.62 6.33012 313.93 6.43012C315.79 7.02012 318.5 6.27012 320.28 6.95012C339.18 14.1301 354.54 26.0601 364.59 40.1501C365.6 41.5601 366.13 44.2001 367.03 45.6501C368.03 47.2601 369.37 47.6801 370.23 49.3301C377.71 63.7101 379.9 79.6001 375.22 94.6901L375.25 94.7001Z" fill="#FFC420" style="fill:#FFC420;fill:color(display-p3 1.0000 0.7686 0.1255);fill-opacity:1;"/>
<path d="M220.02 81.6199C219.25 83.6999 217.59 85.1999 215.64 85.8499C213.69 81.4999 212.22 77.0399 211.27 72.5199C212.73 72.0499 214.34 72.0399 215.88 72.6099C219.51 73.9499 221.36 77.9899 220.02 81.6199Z" fill="#FFC420" style="fill:#FFC420;fill:color(display-p3 1.0000 0.7686 0.1255);fill-opacity:1;"/>
<path d="M320.31 6.97008C318.44 8.63008 315.74 9.22008 313.24 8.30008C310.95 7.46008 309.38 5.54008 308.85 3.33008C310.54 3.76008 312.23 4.24008 313.91 4.76008C316.08 5.44008 318.22 6.17008 320.3 6.97008H320.31Z" fill="#FFC420" style="fill:#FFC420;fill:color(display-p3 1.0000 0.7686 0.1255);fill-opacity:1;"/>
<path d="M370.27 49.3499C369.79 49.2899 369.31 49.1699 368.84 48.9899C365.26 47.6699 363.41 43.7599 364.63 40.1699C366.75 43.1399 368.63 46.2099 370.27 49.3499Z" fill="#FFC420" style="fill:#FFC420;fill:color(display-p3 1.0000 0.7686 0.1255);fill-opacity:1;"/>
<path d="M369.69 107.01C368.12 109.58 366.34 112.02 364.39 114.31C364.31 113.34 364.44 112.34 364.8 111.37C365.63 109.11 367.51 107.54 369.69 107.01Z" fill="#FFC420" style="fill:#FFC420;fill:color(display-p3 1.0000 0.7686 0.1255);fill-opacity:1;"/>
<path d="M346.9 128.51C344.1 130.09 341.15 131.5 338.07 132.74C338.01 132.73 337.95 132.71 337.89 132.68C334.25 131.34 332.4 127.3 333.74 123.67C335.08 120.04 339.12 118.18 342.75 119.52C346.37 120.86 348.23 124.88 346.9 128.5V128.51Z" fill="#FFC420" style="fill:#FFC420;fill:color(display-p3 1.0000 0.7686 0.1255);fill-opacity:1;"/>
<path d="M232.37 109.9C231.13 113.26 227.58 115.1 224.18 114.29L229.24 106.41C227.53 104.53 225.92 102.59 224.42 100.6C225.64 100.35 226.95 100.43 228.22 100.89C231.85 102.23 233.71 106.26 232.37 109.9Z" fill="#FFC420" style="fill:#FFC420;fill:color(display-p3 1.0000 0.7686 0.1255);fill-opacity:1;"/>
<path d="M319.35 137.83C314.88 138.52 310.27 138.9 305.57 138.94C305.62 138.33 305.76 137.72 305.98 137.11C307.32 133.48 311.35 131.62 314.98 132.96C317.24 133.79 318.81 135.66 319.35 137.83Z" fill="#FFC420" style="fill:#FFC420;fill:color(display-p3 1.0000 0.7686 0.1255);fill-opacity:1;"/>
<path d="M358.37 90.3899C356.36 89.5199 352.53 88.5299 348.72 87.9899L356.8 69.2799C357.22 68.3099 356.77 67.1899 355.81 66.7799L337.1 58.6999C339.5 55.6899 341.61 52.3399 342.48 50.3299C344.47 45.7199 343.15 40.7299 339.54 39.1699C335.93 37.6099 331.4 40.0799 329.4 44.6799C328.53 46.6899 327.54 50.5299 327 54.3399L306.54 45.4999L289.67 68.2899L284.51 96.5099L304.24 105.03C304.61 105.19 305.02 104.96 305.08 104.56C305.64 101.02 306.56 97.5599 307.37 95.6899C309.36 91.0799 313.9 88.6199 317.51 90.1699C321.12 91.7299 322.44 96.7199 320.45 101.33C319.64 103.21 317.75 106.24 315.56 109.07C315.31 109.39 315.43 109.85 315.8 110.01L333.79 117.78C334.75 118.19 335.88 117.75 336.29 116.78L344.37 98.0699C347.37 100.47 350.73 102.59 352.74 103.45C357.34 105.44 362.34 104.12 363.9 100.51C365.46 96.8999 362.99 92.3699 358.39 90.3799L358.37 90.3899Z" fill="white" style="fill:white;fill-opacity:1;"/>
<path d="M307.36 68.3498C305.35 67.4798 301.51 66.4898 297.71 65.9498L306.55 45.4898L286.82 36.9698C286.45 36.8098 286.03 37.0398 285.97 37.4398C285.41 40.9798 284.49 44.4298 283.68 46.2998C281.7 50.9098 277.15 53.3798 273.54 51.8198C269.93 50.2598 268.61 45.2698 270.61 40.6598C271.41 38.7798 273.31 35.7498 275.5 32.9198C275.75 32.5998 275.63 32.1398 275.26 31.9798L257.27 24.2098C256.3 23.7898 255.18 24.2398 254.77 25.1998L246.69 43.9098C243.69 41.5098 240.33 39.3998 238.33 38.5298C233.72 36.5398 228.73 37.8598 227.17 41.4698C225.61 45.0798 228.08 49.6198 232.68 51.6098C234.69 52.4798 238.52 53.4698 242.33 54.0098L234.25 72.7198C233.83 73.6898 234.28 74.8098 235.24 75.2198L244.74 79.3198L253.96 83.2998C251.56 86.3098 249.45 89.6598 248.58 91.6698C246.59 96.2798 247.91 101.27 251.52 102.83C255.12 104.39 259.66 101.92 261.66 97.3198C262.53 95.3098 263.52 91.4798 264.06 87.6698L271.61 90.9298L284.52 96.4998L293.36 76.0398C296.36 78.4398 299.72 80.5498 301.73 81.4198C306.33 83.4098 311.33 82.0998 312.89 78.4898C314.44 74.8798 311.98 70.3398 307.38 68.3498H307.36Z" fill="#4D35D3" style="fill:#4D35D3;fill:color(display-p3 0.3020 0.2078 0.8275);fill-opacity:1;"/>
<path d="M145.53 104.74C150.91 97.3999 154.47 89.2099 155.77 80.6199C155.89 79.7899 155.09 78.9999 155.18 78.1599C155.28 77.0599 156.26 75.9099 156.29 74.7999C156.35 72.5599 156.26 70.3099 156.01 68.0499C155.47 63.2899 154.25 58.7399 152.42 54.4499C152.16 53.8399 150.75 54.4899 150.47 53.8899C150.18 53.2899 151.03 51.4599 150.72 50.8699C148.07 45.8099 144.54 41.1699 140.31 37.0399C139.89 36.6299 138.6 37.0899 138.17 36.6999C137.69 36.2499 138.06 34.9499 137.56 34.5199C133.26 30.8099 128.35 27.5799 122.95 24.9299C122.31 24.6099 120.93 25.6099 120.28 25.3099C119.71 25.0499 119.87 23.4899 119.29 23.2399C113.49 20.7499 107.2 18.8999 100.58 17.7599C99.82 17.6299 98.49 18.3899 97.71 18.2799C96.94 18.1699 96.72 17.1799 95.94 17.0899C89.09 16.2899 81.93 16.2499 74.62 17.0699C73.51 17.1999 72.41 17.3399 71.32 17.4999C70.19 17.6699 68.45 19.0699 67.34 19.2699C66.29 19.4699 65.85 18.4699 64.81 18.6899C31.75 25.9599 7.66002 50.0399 6.35002 77.1399C6.31002 78.0099 7.62002 78.5299 7.62002 79.3999C7.62002 80.2899 6.33002 81.5399 6.38002 82.4299C6.43002 83.2399 6.50002 84.0499 6.59002 84.8599C7.25002 90.7399 8.97002 96.2999 11.57 101.44C11.89 102.07 13.24 101.56 13.59 102.19C13.88 102.71 13.17 104.35 13.48 104.86C16.41 109.69 20.16 114.09 24.57 117.97C24.98 118.33 26.25 118.1 26.67 118.45C27.21 118.9 26.9 119.93 27.45 120.36C31.97 123.9 37.09 126.93 42.65 129.38C43.24 129.64 44.79 128.66 45.39 128.91C46.05 129.18 45.76 130.68 46.43 130.93C52.48 133.23 59.01 134.85 65.85 135.72C66.53 135.8 68.37 134.61 69.06 134.68C69.97 134.77 69.74 136.13 70.67 136.2C76.29 136.61 82.09 136.5 87.99 135.85C90.92 135.52 93.8 135.06 96.61 134.48C97.77 134.24 98.91 133.01 100.06 132.73C101.28 132.42 102.51 133.07 103.7 132.73C115.27 129.37 125.56 123.91 133.9 117.01L141.86 118.75L144.61 117.83L146.24 119.71L152.88 121.16C154.26 121.46 155.31 119.95 154.55 118.76L151.66 114.26L149.2 113.75L149.58 111.02L145.54 104.74H145.53Z" fill="#26C8DC" style="fill:#26C8DC;fill:color(display-p3 0.1490 0.7843 0.8627);fill-opacity:1;"/>
<path d="M71.3098 17.5002L6.38985 82.4402C6.27985 80.6702 6.26985 78.9102 6.34985 77.1702L64.8199 18.6902C66.9398 18.2202 69.1098 17.8202 71.3098 17.4902V17.5002Z" fill="#26C8DC" style="fill:#26C8DC;fill:color(display-p3 0.1490 0.7843 0.8627);fill-opacity:1;"/>
<path d="M100.57 17.7601L13.4701 104.85C12.7901 103.73 12.1601 102.6 11.5801 101.44L95.9401 17.1001C97.5001 17.2701 99.0401 17.4901 100.57 17.7601Z" fill="#26C8DC" style="fill:#26C8DC;fill:color(display-p3 0.1490 0.7843 0.8627);fill-opacity:1;"/>
<path d="M122.93 24.9202L27.4598 120.38C26.4598 119.6 25.4998 118.8 24.5698 117.97L119.3 23.2402C120.54 23.7602 121.75 24.3302 122.93 24.9102V24.9202Z" fill="#26C8DC" style="fill:#26C8DC;fill:color(display-p3 0.1490 0.7843 0.8627);fill-opacity:1;"/>
<path d="M140.31 37.05L46.4302 130.93C45.1402 130.45 43.8902 129.94 42.6602 129.4L137.54 34.52C138.49 35.34 139.42 36.19 140.3 37.06L140.31 37.05Z" fill="#26C8DC" style="fill:#26C8DC;fill:color(display-p3 0.1490 0.7843 0.8627);fill-opacity:1;"/>
<path d="M152.41 54.4601L70.6601 136.21C69.0401 136.09 67.4401 135.93 65.8501 135.73L150.71 50.8701C151.33 52.0501 151.9 53.2401 152.41 54.4601Z" fill="#26C8DC" style="fill:#26C8DC;fill:color(display-p3 0.1490 0.7843 0.8627);fill-opacity:1;"/>
<path d="M156.28 74.8101C156.23 76.7601 156.05 78.7001 155.77 80.6201L103.66 132.73C101.37 133.4 99.0099 133.98 96.6099 134.48L156.28 74.8101Z" fill="#26C8DC" style="fill:#26C8DC;fill:color(display-p3 0.1490 0.7843 0.8627);fill-opacity:1;"/>
<path d="M151.65 114.26L146.21 119.7L141.85 118.75L149.57 111.04L151.64 114.27L151.65 114.26Z" fill="#26C8DC" style="fill:#26C8DC;fill:color(display-p3 0.1490 0.7843 0.8627);fill-opacity:1;"/>
<path d="M107.126 72.953C107.126 80.8943 103.5 87.9796 97.7816 92.6398C95.0948 94.8272 93.371 98.0014 93.0976 101.473L93.0144 102.745L80.4842 108.404L70.4268 102.745L70.3436 101.473C70.0821 98.0014 68.3702 94.851 65.6834 92.6398C59.7631 87.8132 56.0421 80.3712 56.3393 72.0614C56.7792 59.127 67.1814 48.392 80.1038 47.5955C94.8689 46.6682 107.126 58.3781 107.126 72.9411V72.953Z" fill="#FFD257" style="fill:#FFD257;fill:color(display-p3 1.0000 0.8235 0.3412);fill-opacity:1;"/>
<path d="M80.6265 109.948C79.509 109.948 78.5461 109.116 78.4034 107.975L76.109 89.2748C75.8712 87.3252 75.5978 85.1139 76.0258 82.8671C76.5488 80.0734 78.1894 77.767 80.3887 76.6971C82.0768 75.8887 84.0384 75.8293 85.9167 76.5426C87.9496 77.3034 89.5783 78.8489 90.3867 80.751C92.1818 85.007 91.8252 88.9301 89.4119 91.2245C88.5202 92.0685 87.0937 92.0448 86.2377 91.1413C85.3818 90.2496 85.4174 88.8231 86.3209 87.9671C87.4265 86.9091 87.0818 84.4601 86.2496 82.4985C85.9286 81.7377 85.1916 81.0601 84.3356 80.7391C83.9195 80.5845 83.0992 80.3706 82.3384 80.7391C81.423 81.179 80.6978 82.3083 80.4363 83.6993C80.1391 85.2447 80.3531 87.0161 80.567 88.7161L82.8615 107.416C83.016 108.653 82.1363 109.77 80.8999 109.913C80.8048 109.925 80.7097 109.936 80.6265 109.936V109.948Z" fill="black" style="fill:black;fill-opacity:1;"/>
<path d="M93.0145 102.745L92.4438 110.413C92.0159 116.309 86.8802 120.791 80.8885 120.327C75.5269 119.911 71.3898 115.417 70.9975 110.056L70.4507 102.757H93.0264L93.0145 102.745Z" fill="#CC3600" style="fill:#CC3600;fill:color(display-p3 0.8000 0.2118 0.0000);fill-opacity:1;"/>
<path d="M51.5841 52.2438C51.2156 52.2438 50.8471 52.1606 50.5023 51.9704L41.61 47.0962C40.5281 46.5018 40.1239 45.1347 40.7183 44.0528C41.3128 42.971 42.6799 42.5668 43.7617 43.1612L52.6541 48.0354C53.7359 48.6298 54.1401 49.9969 53.5457 51.0787C53.1415 51.8158 52.3688 52.2438 51.5723 52.2438H51.5841Z" fill="black" style="fill:black;fill-opacity:1;"/>
<path d="M111.869 52.2438C111.084 52.2438 110.312 51.8158 109.896 51.0787C109.301 49.9969 109.693 48.6298 110.787 48.0354L119.68 43.1612C120.761 42.5668 122.129 42.971 122.723 44.0528C123.317 45.1347 122.925 46.5018 121.831 47.0962L112.939 51.9704C112.594 52.1606 112.226 52.2438 111.857 52.2438H111.869Z" fill="black" style="fill:black;fill-opacity:1;"/>
<path d="M81.7205 38.9999C80.4841 38.9999 79.4736 38.0013 79.4736 36.753V26.6243C79.4736 25.3879 80.4722 24.3774 81.7205 24.3774C82.9688 24.3774 83.9674 25.376 83.9674 26.6243V36.7649C83.9674 38.0013 82.9569 39.0118 81.7205 39.0118V38.9999Z" fill="black" style="fill:black;fill-opacity:1;"/>
</g>
<defs>
<clipPath id="clip0_610_1465">
<rect width="384" height="384" fill="white" style="fill:white;fill-opacity:1;"/>
</clipPath>
</defs>
</svg>
