<svg width="384" height="384" viewBox="0 0 384 384" fill="none" xmlns="http://www.w3.org/2000/svg">
<g clip-path="url(#clip0_629_1864)">
<path d="M188.58 110.03C179.34 123.53 182.79 141.96 196.29 151.19C209.79 160.43 228.22 156.98 237.45 143.48C246.69 129.98 243.23 111.56 229.74 102.32C216.24 93.0899 197.81 96.5299 188.58 110.03Z" fill="#392092" style="fill:#392092;fill:color(display-p3 0.2235 0.1255 0.5725);fill-opacity:1;"/>
<path d="M64.1801 97.3202C47.9201 99.1102 36.2001 113.75 37.9901 130C39.7801 146.25 54.4201 157.98 70.6701 156.19C86.9201 154.4 98.6501 139.76 96.8601 123.51C95.0701 107.25 80.4401 95.5302 64.1801 97.3202Z" fill="#392092" style="fill:#392092;fill:color(display-p3 0.2235 0.1255 0.5725);fill-opacity:1;"/>
<path d="M192.39 138.95C201.24 144.91 215.83 152.35 235.05 153.94C262.85 156.23 292.83 140.79 292.83 140.79L306.58 134.32L306.63 134.42L336.08 120.82C339.35 119.31 343.23 120.73 344.73 124.01C346.07 126.91 345.09 130.27 342.59 132.05C345.61 131.23 348.86 132.66 350.21 135.59C351.67 138.75 350.36 142.47 347.32 144.07C350.54 142.72 354.29 144.12 355.76 147.33C357.18 150.41 355.97 154.01 353.09 155.68C356.26 154.5 359.85 155.9 361.28 159.02C362.79 162.29 361.36 166.16 358.09 167.68L328.51 181.34C328.25 181.46 282.71 207.3 242.42 207.3C238.61 207.3 234.71 207.15 230.7 206.82C200.09 204.3 176.86 192.46 162.77 182.98L192.4 138.96L192.39 138.95Z" fill="#D9A08A" style="fill:#D9A08A;fill:color(display-p3 0.8510 0.6275 0.5412);fill-opacity:1;"/>
<path d="M168.59 186.69C182.51 195.1 202.88 204.14 228.59 206.61L235.88 154C235.59 153.98 235.33 153.96 235.04 153.94C215.84 152.35 201.24 144.92 192.38 138.96L170.73 171.12L168.59 186.69Z" fill="#FFC420" style="fill:#FFC420;fill:color(display-p3 1.0000 0.7686 0.1255);fill-opacity:1;"/>
<path d="M55.0002 279.59L66.9301 227.88C58.8901 226.02 53.0602 220.21 53.0602 214.06C53.0602 206.22 61.9702 199.61 72.5302 199.61C75.8302 199.61 78.9702 200.22 81.8502 201.43L102.41 152.51C92.9902 148.55 82.9302 146.54 72.5302 146.54C32.5302 146.54 -0.00985718 176.83 -0.00985718 214.06C-0.00985718 245.17 22.6101 272.12 54.9901 279.59H55.0002Z" fill="#D9A08A" style="fill:#D9A08A;fill:color(display-p3 0.8510 0.6275 0.5412);fill-opacity:1;"/>
<path d="M40.4199 153.55L61.3599 202.33C64.5399 200.62 68.4199 199.62 72.5399 199.62C75.8399 199.62 78.9699 200.23 81.8499 201.44L102.42 152.52C92.9899 148.56 82.9299 146.56 72.5399 146.56C61.0099 146.56 50.1099 149.07 40.4099 153.56L40.4199 153.55Z" fill="#FFC420" style="fill:#FFC420;fill:color(display-p3 1.0000 0.7686 0.1255);fill-opacity:1;"/>
<path d="M60.4999 247.72H221.94L184.43 143.12L144.08 205.37C142.76 207.41 139.77 207.41 138.45 205.37L98.0999 143.14L65.42 233.92L60.4999 247.72Z" fill="#9AE6EE" style="fill:#9AE6EE;fill:color(display-p3 0.6039 0.9020 0.9333);fill-opacity:1;"/>
<path d="M98.1007 143.14L138.451 205.37C139.781 207.41 142.761 207.41 144.081 205.37L184.431 143.12L181.311 134.42H101.241L98.1007 143.14Z" fill="#FFC420" style="fill:#FFC420;fill:color(display-p3 1.0000 0.7686 0.1255);fill-opacity:1;"/>
<path d="M157.14 271.42L163.06 304.99L169.44 341.2L170.77 348.67L175.53 375.71C175.53 378.02 177.4 379.87 179.69 379.87H238.9C246.96 380.71 253.41 375.29 253.99 369.81C254.64 363.7 248.14 356.27 238.9 356.88L237.14 348.67L235.52 341.2L227.73 304.99L220.49 271.42H157.14Z" fill="#D9A08A" style="fill:#D9A08A;fill:color(display-p3 0.8510 0.6275 0.5412);fill-opacity:1;"/>
<path d="M169.44 341.2L170.77 348.67L175.53 375.71C175.53 378.02 177.4 379.87 179.69 379.87H238.9C246.96 380.71 253.41 375.29 253.99 369.81C254.64 363.7 248.14 356.27 238.9 356.88L237.14 348.67L235.52 341.2H169.44Z" fill="#FF6933" style="fill:#FF6933;fill:color(display-p3 1.0000 0.4118 0.2000);fill-opacity:1;"/>
<path d="M222.66 353.78H233.78C234.9 353.78 235.82 352.87 235.82 351.74C235.82 350.61 234.91 349.7 233.78 349.7H222.66C221.54 349.7 220.62 350.61 220.62 351.74C220.62 352.87 221.53 353.78 222.66 353.78Z" fill="black" style="fill:black;fill-opacity:1;"/>
<path d="M176.53 362.56C185.14 362.56 192.16 369.58 192.16 378.19C192.16 378.76 192.14 379.31 192.06 379.87H187.96C188.04 379.32 188.08 378.77 188.08 378.19C188.08 371.82 182.9 366.64 176.53 366.64C175.65 366.64 174.8 366.74 173.98 366.93L173.27 362.91C174.33 362.69 175.41 362.56 176.53 362.56Z" fill="black" style="fill:black;fill-opacity:1;"/>
<path d="M125.391 271.42L119.471 304.99L113.091 341.2L111.771 348.67L107.001 375.71C107.001 378.02 105.131 379.87 102.841 379.87H43.6206C35.5606 380.71 29.1206 375.29 28.5306 369.81C27.8806 363.7 34.3906 356.27 43.6206 356.88L45.3806 348.67L47.0006 341.2L54.7906 304.99L62.0306 271.42H125.381H125.391Z" fill="#D9A08A" style="fill:#D9A08A;fill:color(display-p3 0.8510 0.6275 0.5412);fill-opacity:1;"/>
<path d="M113.09 341.2L111.77 348.67L107 375.71C107 378.02 105.13 379.87 102.84 379.87H43.6198C35.5598 380.71 29.1198 375.29 28.5298 369.81C27.8798 363.7 34.3898 356.27 43.6198 356.88L45.3799 348.67L46.9998 341.2H113.08H113.09Z" fill="#FF6933" style="fill:#FF6933;fill:color(display-p3 1.0000 0.4118 0.2000);fill-opacity:1;"/>
<path d="M48.7502 353.78H59.8701C61.0001 353.78 61.9102 352.87 61.9102 351.74C61.9102 350.61 61.0001 349.7 59.8701 349.7H48.7502C47.6202 349.7 46.7101 350.61 46.7101 351.74C46.7101 352.87 47.6202 353.78 48.7502 353.78Z" fill="black" style="fill:black;fill-opacity:1;"/>
<path d="M106.02 362.56C107.14 362.56 108.22 362.68 109.27 362.91L108.56 366.93C107.74 366.75 106.9 366.64 106.03 366.64C99.66 366.64 94.48 371.82 94.48 378.19C94.48 378.76 94.52 379.31 94.62 379.87H90.5C90.42 379.32 90.4 378.77 90.4 378.19C90.4 369.58 97.4 362.56 106.03 362.56H106.02Z" fill="black" style="fill:black;fill-opacity:1;"/>
<path d="M38.13 317.8H129.22C130.12 317.8 130.9 317.17 131.08 316.27L136.64 286.52C136.93 284.97 138.28 283.84 139.86 283.84H142.68C144.26 283.84 145.62 284.96 145.9 286.52L151.44 316.27C151.6 317.17 152.42 317.8 153.32 317.8H244.39C245.7 317.8 246.62 316.51 246.17 315.29L221.94 247.72H60.5L36.36 315.29C35.92 316.52 36.83 317.8 38.14 317.8H38.13Z" fill="#43CFE0" style="fill:#43CFE0;fill:color(display-p3 0.2627 0.8118 0.8784);fill-opacity:1;"/>
<path d="M1.0202 214.06H52.0402C52.0402 216.16 52.6702 218.22 53.7802 220.12C53.8102 220.07 78.2002 234.11 83.2502 239.52C88.3002 244.94 83.9802 253.73 70.9302 246.53C57.3502 280.6 55.2602 285.85 55.0302 286.43C52.5602 289.77 48.0202 290.94 44.3302 289.22C40.9602 287.65 38.9602 283.95 39.4702 280.14C39.8502 277.96 40.2402 275.78 40.6202 273.6C16.7202 262.57 1.0202 239.75 1.0202 214.05V214.06Z" fill="#D9A08A" style="fill:#D9A08A;fill:color(display-p3 0.8510 0.6275 0.5412);fill-opacity:1;"/>
<path d="M42.6998 271.88C43.4298 271.88 44.1298 271.49 44.5098 270.8L53.5598 253.89C54.0898 252.9 53.7198 251.66 52.7198 251.13C51.7298 250.6 50.4898 250.97 49.9598 251.97L40.9098 268.88C40.3798 269.87 40.7498 271.11 41.7498 271.64C42.0598 271.8 42.3898 271.88 42.7098 271.88H42.6998Z" fill="black" style="fill:black;fill-opacity:1;"/>
<path d="M255.33 97.3199L263.6 80.4199C258.01 83.7199 254.99 90.2999 255.33 97.3199Z" fill="#9AE6EE" style="fill:#9AE6EE;fill:color(display-p3 0.6039 0.9020 0.9333);fill-opacity:1;"/>
<path d="M330.76 58.2198C325.31 66.9698 327.99 78.4798 336.74 83.9198C345.49 89.3698 357 86.6898 362.44 77.9398C367.89 69.1898 365.21 57.6798 356.46 52.2298C347.71 46.7798 336.2 49.4598 330.76 58.2098V58.2198Z" fill="#FF6933" style="fill:#FF6933;fill:color(display-p3 1.0000 0.4118 0.2000);fill-opacity:1;"/>
<path d="M351.86 45.2401C352.82 45.2401 353.67 44.5701 353.86 43.6001L356.35 31.0001C356.57 29.8901 355.85 28.8201 354.74 28.6001C353.64 28.3801 352.56 29.1001 352.34 30.2101L349.85 42.8101C349.63 43.9201 350.35 44.9901 351.46 45.2101C351.59 45.2401 351.73 45.2501 351.85 45.2501L351.86 45.2401Z" fill="black" style="fill:black;fill-opacity:1;"/>
<path d="M378.499 91.2702C379.149 91.2702 379.799 90.9602 380.189 90.3702C380.819 89.4402 380.579 88.1702 379.639 87.5402L368.999 80.3502C368.069 79.7202 366.799 79.9602 366.169 80.9002C365.539 81.8302 365.779 83.1002 366.719 83.7302L377.359 90.9302C377.709 91.1602 378.109 91.2802 378.499 91.2802V91.2702Z" fill="black" style="fill:black;fill-opacity:1;"/>
<path d="M370.11 60.4402C370.37 60.4402 370.63 60.3902 370.89 60.2902L382.73 55.4102C383.77 54.9802 384.27 53.7902 383.84 52.7502C383.41 51.7102 382.22 51.2102 381.18 51.6402L369.33 56.5202C368.29 56.9502 367.79 58.1402 368.22 59.1802C368.54 59.9702 369.31 60.4502 370.11 60.4502V60.4402Z" fill="black" style="fill:black;fill-opacity:1;"/>
<path d="M336.25 30.8602L365.47 101.79C366.45 104.19 365.08 106.68 362.79 106.65C358.93 106.59 354.91 106.61 350.78 106.72C337.69 107.06 323.26 108.31 307.87 111.06C301.59 112.18 295.59 113.47 289.87 114.88C286.3 115.76 282.83 116.69 279.48 117.66C275.13 118.91 270.52 118.16 266.51 115.88C262.5 113.6 259.07 109.79 257.08 104.96C253.09 95.2802 256.08 84.5302 264.04 80.1702C267.09 78.5002 270.21 76.7102 273.37 74.8302C278.43 71.8002 283.59 68.4902 288.84 64.8702C301.69 55.9802 312.82 46.7002 322.35 37.7302C325.36 34.8902 328.23 32.0702 330.93 29.3202C332.53 27.6902 335.26 28.4902 336.25 30.8802V30.8602Z" fill="#43CFE0" style="fill:#43CFE0;fill:color(display-p3 0.2627 0.8118 0.8784);fill-opacity:1;"/>
<path d="M273.37 74.8198L289.87 114.87C286.29 115.75 282.82 116.68 279.48 117.65C275.13 118.9 270.52 118.15 266.51 115.87C262.5 113.59 259.08 109.78 257.08 104.95C253.1 95.2698 256.08 84.5198 264.04 80.1598C267.09 78.4898 270.21 76.6998 273.37 74.8198Z" fill="#FFD257" style="fill:#FFD257;fill:color(display-p3 1.0000 0.8235 0.3412);fill-opacity:1;"/>
<path d="M336.25 30.8602L365.47 101.79C366.45 104.19 365.08 106.68 362.79 106.65C358.93 106.59 354.91 106.61 350.78 106.72L322.36 37.7102C325.37 34.8702 328.24 32.0502 330.94 29.3002C332.54 27.6702 335.27 28.4702 336.26 30.8602H336.25Z" fill="#FFD257" style="fill:#FFD257;fill:color(display-p3 1.0000 0.8235 0.3412);fill-opacity:1;"/>
<path d="M343.74 185.94C339.27 187.78 334.15 185.65 332.3 181.18L301.21 105.69C299.37 101.22 301.5 96.1002 305.97 94.2502C310.44 92.4102 315.56 94.5402 317.41 99.0202L348.5 174.51C350.34 178.98 348.21 184.1 343.74 185.94Z" fill="#FF6933" style="fill:#FF6933;fill:color(display-p3 1.0000 0.4118 0.2000);fill-opacity:1;"/>
<path d="M287.71 165.58C290.12 164.61 296.62 161.61 301.16 154.4C304.67 148.83 305.32 143.44 305.46 140.78C309.09 136.6 312.72 132.41 316.35 128.23C319.12 125.04 318.78 120.2 315.58 117.43C312.39 114.66 307.55 115 304.78 118.2L275.75 151.67C269.01 159.44 284.28 169.54 287.71 165.58Z" fill="#D9A08A" style="fill:#D9A08A;fill:color(display-p3 0.8510 0.6275 0.5412);fill-opacity:1;"/>
<path d="M300.28 157.77C300.92 157.77 301.55 157.47 301.95 156.91C306.39 150.67 307.37 144.21 307.52 140.49L317.2 129.75C317.95 128.91 317.89 127.62 317.05 126.87C316.21 126.12 314.93 126.18 314.17 127.02L303.99 138.32C303.66 138.69 303.47 139.17 303.47 139.66C303.43 142.73 302.75 148.75 298.63 154.55C297.98 155.47 298.19 156.74 299.11 157.39C299.47 157.64 299.88 157.77 300.29 157.77H300.28Z" fill="black" style="fill:black;fill-opacity:1;"/>
<path d="M321.76 127.5L335.61 120.95C338.96 119.37 342.96 120.8 344.54 124.15C345.84 126.9 345.08 130.08 342.92 132.01C345.78 131.56 348.72 132.99 350.02 135.74C351.32 138.49 350.56 141.67 348.4 143.59C351.26 143.15 354.2 144.57 355.5 147.32C356.8 150.07 356.04 153.25 353.87 155.17C356.73 154.72 359.67 156.15 360.97 158.9C362.55 162.25 361.12 166.25 357.77 167.83L343.91 174.38C340.56 175.96 336.56 174.53 334.98 171.18C333.68 168.43 334.44 165.25 336.6 163.33C333.74 163.78 330.8 162.35 329.5 159.6C328.2 156.85 328.96 153.67 331.13 151.75C328.26 152.2 325.33 150.77 324.03 148.02C322.73 145.27 323.49 142.09 325.65 140.17C322.78 140.61 319.85 139.19 318.55 136.44C316.96 133.09 318.4 129.09 321.75 127.51L321.76 127.5Z" fill="#D9A08A" style="fill:#D9A08A;fill:color(display-p3 0.8510 0.6275 0.5412);fill-opacity:1;"/>
<path d="M325.82 142.14C326.11 142.14 326.41 142.08 326.69 141.94L342.15 134.64C343.17 134.16 343.61 132.94 343.13 131.93C342.65 130.91 341.43 130.48 340.41 130.95L324.95 138.26C323.93 138.74 323.49 139.96 323.98 140.97C324.33 141.71 325.06 142.14 325.82 142.14Z" fill="black" style="fill:black;fill-opacity:1;"/>
<path d="M331.29 153.72C331.58 153.72 331.88 153.66 332.16 153.52L347.62 146.22C348.64 145.74 349.07 144.52 348.59 143.5C348.11 142.48 346.89 142.05 345.88 142.53L330.41 149.83C329.39 150.31 328.96 151.53 329.44 152.55C329.79 153.29 330.52 153.72 331.29 153.72Z" fill="black" style="fill:black;fill-opacity:1;"/>
<path d="M336.84 165.46C337.13 165.46 337.43 165.4 337.71 165.27L353.17 157.96C354.19 157.48 354.62 156.27 354.14 155.25C353.66 154.23 352.44 153.79 351.43 154.27L335.97 161.58C334.95 162.06 334.52 163.28 335 164.3C335.35 165.04 336.08 165.47 336.85 165.47L336.84 165.46Z" fill="black" style="fill:black;fill-opacity:1;"/>
<path d="M131.009 18.4798C130.739 18.1398 130.47 17.8098 130.21 17.4398C126.64 12.2898 125.979 6.56976 128.729 4.65976C131.479 2.74976 136.609 5.38976 140.169 10.5398C140.569 11.1298 140.929 11.7198 141.259 12.3098C141.589 11.7198 141.95 11.1198 142.35 10.5398C145.92 5.38976 151.039 2.74976 153.789 4.65976C156.539 6.56976 155.88 12.2798 152.32 17.4398C152.07 17.8098 151.79 18.1398 151.52 18.4798C193.189 23.5398 225.479 59.0198 225.479 102.05C225.479 125.24 183.6 92.8098 141.6 92.8698C99.3795 92.9298 57.0495 125.37 57.0495 102.05C57.0495 59.0098 89.3295 23.5398 130.999 18.4798H131.009Z" fill="#392092" style="fill:#392092;fill:color(display-p3 0.2235 0.1255 0.5725);fill-opacity:1;"/>
<path d="M87.9599 44.7201C58.5199 74.1601 58.5199 121.89 87.9599 151.33C117.4 180.77 165.14 180.77 194.57 151.33C224.01 121.89 224.01 74.1601 194.57 44.7201C165.13 15.2801 117.4 15.2801 87.9599 44.7201Z" fill="#D9A08A" style="fill:#D9A08A;fill:color(display-p3 0.8510 0.6275 0.5412);fill-opacity:1;"/>
<path d="M92.44 103.67C92.44 111.63 98.88 118.1 106.85 118.11C111.17 118.11 115.03 116.22 117.68 113.21C119.93 110.68 121.29 107.35 121.29 103.7C121.3 95.9498 115.18 89.6198 107.5 89.2798C107.3 89.2598 107.11 89.2598 106.89 89.2598C98.93 89.2598 92.46 95.6998 92.45 103.67H92.44Z" fill="white" style="fill:white;fill-opacity:1;"/>
<path d="M103.88 98.7898C103.88 106.54 110 112.87 117.68 113.21C119.93 110.68 121.29 107.35 121.29 103.7C121.29 95.9498 115.18 89.6198 107.49 89.2798C105.24 91.8098 103.89 95.1398 103.88 98.7898Z" fill="black" style="fill:black;fill-opacity:1;"/>
<path d="M161.25 103.75C161.25 111.71 167.69 118.18 175.66 118.19C179.98 118.19 183.84 116.3 186.49 113.3C188.74 110.77 190.1 107.43 190.1 103.79C190.1 96.0401 183.98 89.7101 176.3 89.3701C176.1 89.3501 175.9 89.3501 175.69 89.3501C167.73 89.3401 161.26 95.7901 161.25 103.76V103.75Z" fill="white" style="fill:white;fill-opacity:1;"/>
<path d="M172.69 98.8699C172.68 106.62 178.8 112.95 186.48 113.29C188.73 110.76 190.09 107.42 190.09 103.78C190.09 96.0299 183.97 89.6999 176.29 89.3599C174.04 91.8899 172.68 95.2299 172.68 98.8699H172.69Z" fill="black" style="fill:black;fill-opacity:1;"/>
<path d="M88.7401 83.4601C89.4101 85.5501 93.6701 86.0601 98.2601 84.5801C102.85 83.1101 106.03 80.2201 105.36 78.1201C104.69 76.0201 100.42 75.5201 95.8301 77.0001C91.2401 78.4701 88.0601 81.3601 88.7401 83.4601Z" fill="#392092" style="fill:#392092;fill:color(display-p3 0.2235 0.1255 0.5725);fill-opacity:1;"/>
<path d="M193.79 83.58C193.11 85.67 188.85 86.17 184.26 84.68C179.67 83.2 176.5 80.3 177.18 78.21C177.86 76.12 182.13 75.62 186.71 77.11C191.3 78.59 194.47 81.49 193.79 83.58Z" fill="#392092" style="fill:#392092;fill:color(display-p3 0.2235 0.1255 0.5725);fill-opacity:1;"/>
<path d="M141.25 125.16C144.09 125.16 146.77 124.31 148.82 122.76C151.04 121.08 152.27 118.8 152.27 116.32C152.27 113.85 151.06 111.56 148.84 109.87C146.79 108.31 144.1 107.46 141.25 107.45C138.4 107.45 135.71 108.3 133.66 109.85C131.44 111.53 130.22 113.82 130.22 116.29C130.22 118.76 131.43 121.05 133.65 122.74C135.7 124.29 138.39 125.15 141.23 125.16H141.25ZM141.24 111.53C143.21 111.53 145.03 112.09 146.37 113.12C147.55 114.01 148.19 115.14 148.19 116.31C148.19 117.48 147.54 118.61 146.36 119.5C145.02 120.52 143.2 121.07 141.25 121.07C139.28 121.07 137.47 120.5 136.12 119.48C134.95 118.59 134.3 117.45 134.3 116.29C134.3 115.12 134.95 113.99 136.13 113.1C137.47 112.09 139.29 111.53 141.24 111.53Z" fill="black" style="fill:black;fill-opacity:1;"/>
<path d="M141.27 139.82C152.12 139.82 160.94 131 160.94 120.15C160.94 119.03 160.03 118.11 158.9 118.11C157.77 118.11 156.86 119.02 156.86 120.15C156.86 128.75 149.86 135.74 141.27 135.74C132.68 135.74 125.68 128.75 125.68 120.15C125.68 119.03 124.77 118.11 123.64 118.11C122.51 118.11 121.6 119.02 121.6 120.15C121.6 131 130.42 139.82 141.27 139.82Z" fill="black" style="fill:black;fill-opacity:1;"/>
<path d="M66.0702 88.5201C76.2202 86.7401 87.1302 81.0101 96.3602 71.8101C100.68 67.4601 104.24 62.7501 106.97 57.9101C115.48 64.2601 127.69 68.2401 141.26 68.2401C154.83 68.2401 167.06 64.2601 175.55 57.9101C178.3 62.7501 181.84 67.4601 186.18 71.8101C195.39 81.0101 206.3 86.7501 216.45 88.5201C213.67 49.4601 181.16 18.6001 141.36 18.5601C101.5 18.5001 68.8402 49.3801 66.0702 88.5201Z" fill="#392092" style="fill:#392092;fill:color(display-p3 0.2235 0.1255 0.5725);fill-opacity:1;"/>
<path d="M175.68 60.44C176.68 60.44 177.55 59.71 177.7 58.69L179.61 45.69C179.77 44.57 179 43.54 177.88 43.37C176.76 43.2 175.73 43.98 175.57 45.09L173.67 58.09C173.51 59.21 174.28 60.24 175.39 60.41C175.49 60.43 175.59 60.43 175.69 60.43L175.68 60.44Z" fill="black" style="fill:black;fill-opacity:1;"/>
<path d="M107.81 60.4401C107.91 60.4401 108.01 60.4401 108.11 60.4201C109.22 60.2601 110 59.2201 109.83 58.1001L107.92 45.1001C107.76 43.9901 106.75 43.2001 105.6 43.3801C104.49 43.5401 103.72 44.5801 103.88 45.7001L105.79 58.7001C105.94 59.7201 106.81 60.4501 107.81 60.4501V60.4401Z" fill="black" style="fill:black;fill-opacity:1;"/>
<path d="M219.58 86.4C210.93 89.62 206.52 99.26 209.75 107.91C212.98 116.57 222.6 120.96 231.26 117.74C239.92 114.51 244.32 104.88 241.09 96.23C237.86 87.58 228.23 83.18 219.58 86.4Z" fill="#D9A08A" style="fill:#D9A08A;fill:color(display-p3 0.8510 0.6275 0.5412);fill-opacity:1;"/>
<path d="M224.34 112.24C225.43 112.24 226.34 111.36 226.38 110.26C226.41 109.14 225.53 108.19 224.4 108.16C221.15 108.06 218.59 105.34 218.69 102.09C218.74 100.52 219.4 99.06 220.54 97.98C221.68 96.9 223.18 96.33 224.76 96.38C225.89 96.45 226.83 95.53 226.86 94.4C226.89 93.28 226.01 92.33 224.88 92.3C222.23 92.22 219.68 93.18 217.74 95C215.8 96.83 214.69 99.3 214.6 101.96C214.43 107.46 218.76 112.07 224.26 112.24H224.33H224.34Z" fill="black" style="fill:black;fill-opacity:1;"/>
<path d="M42.1698 94.5899C38.0398 102.85 41.3898 112.9 49.6498 117.03C57.9098 121.16 67.9498 117.81 72.0898 109.55C76.2198 101.29 72.8698 91.2399 64.6098 87.1099C56.3498 82.9799 46.3098 86.3299 42.1698 94.5899Z" fill="#D9A08A" style="fill:#D9A08A;fill:color(display-p3 0.8510 0.6275 0.5412);fill-opacity:1;"/>
<path d="M58.1902 112.24C60.9202 112.15 63.3902 111.04 65.2202 109.1C67.0402 107.16 68.0002 104.62 67.9202 101.96C67.8302 99.3 66.7202 96.83 64.7802 95C62.8402 93.18 60.3002 92.23 57.6402 92.3C56.5202 92.34 55.6302 93.28 55.6602 94.4C55.7002 95.53 56.6502 96.44 57.7602 96.38C59.3402 96.33 60.8302 96.9 61.9802 97.98C63.1202 99.06 63.7802 100.51 63.8302 102.09C63.8802 103.66 63.3102 105.16 62.2302 106.31C61.1502 107.45 59.6902 108.11 58.1202 108.16C57.0002 108.2 56.1102 109.14 56.1402 110.26C56.1802 111.37 57.0802 112.24 58.1802 112.24H58.1902Z" fill="black" style="fill:black;fill-opacity:1;"/>
</g>
<defs>
<clipPath id="clip0_629_1864">
<rect width="384" height="384" fill="white" style="fill:white;fill-opacity:1;" transform="matrix(-1 0 0 1 384 0)"/>
</clipPath>
</defs>
</svg>
