<svg width="224" height="224" viewBox="0 0 224 224" fill="none" xmlns="http://www.w3.org/2000/svg">
<path d="M13.0629 140.045C12.5588 138.436 12.3783 136.861 12.5212 135.321C12.6642 133.781 13.2514 132.401 14.2829 131.181C15.3221 129.985 16.9063 129.054 19.0354 128.387L28.8764 125.305C31.0055 124.638 32.8379 124.499 34.3734 124.888C35.9166 125.302 37.1862 126.101 38.1821 127.284C39.178 128.467 39.9279 129.864 40.4319 131.473C40.9902 133.255 41.1894 134.933 41.0295 136.505C40.902 138.095 40.4216 139.469 39.5882 140.627C38.7547 141.785 37.5458 142.612 35.9613 143.108C34.8472 143.457 34.0309 143.455 33.5122 143.101C33.0182 142.739 32.6162 142.063 32.306 141.073C32.0657 140.305 31.9801 139.598 32.0493 138.951C32.1263 138.329 32.4913 137.888 33.1442 137.629C33.3918 137.552 33.6896 137.418 34.0377 137.227C34.3935 137.061 34.7261 136.821 35.0355 136.507C35.3448 136.192 35.5534 135.774 35.6614 135.251C35.7694 134.727 35.6994 134.07 35.4512 133.277C35.1178 132.213 34.5486 131.48 33.7436 131.08C32.9711 130.697 31.9535 130.703 30.6909 131.098L20.8499 134.181C19.5873 134.576 18.7395 135.168 18.3067 135.956C17.8986 136.736 17.8613 137.658 18.1947 138.723C18.4274 139.466 18.7334 140.009 19.1128 140.352C19.4999 140.72 19.9102 140.945 20.3436 141.027C20.8017 141.101 21.2529 141.109 21.697 141.052C22.1411 140.994 22.5527 140.919 22.9319 140.828C23.6406 140.66 24.1916 140.814 24.585 141.289C25.0109 141.781 25.3402 142.398 25.5728 143.141C25.8907 144.156 25.9377 144.957 25.7137 145.543C25.5144 146.122 24.8577 146.586 23.7436 146.935C22.1097 147.447 20.5829 147.476 19.1635 147.024C17.744 146.571 16.5038 145.736 15.4429 144.519C14.4145 143.319 13.6211 141.827 13.0629 140.045ZM24.3404 165.659C23.3586 164.162 22.7187 162.643 22.4207 161.101C22.137 159.581 22.3243 158.093 22.9827 156.637C23.6554 155.203 24.9245 153.874 26.79 152.65L35.4127 146.994C37.2782 145.77 39.0027 145.135 40.586 145.089C42.1836 145.065 43.6232 145.486 44.9047 146.352C46.2005 147.239 47.3394 148.431 48.3212 149.928C49.3031 151.425 49.943 152.944 50.2409 154.486C50.5389 156.028 50.3516 157.516 49.6789 158.951C49.0205 160.406 47.7585 161.746 45.893 162.97L37.2703 168.626C35.4048 169.85 33.6732 170.474 32.0756 170.498C30.4923 170.544 29.0527 170.123 27.7569 169.236C26.4611 168.348 25.3223 167.156 24.3404 165.659ZM28.7656 162.756C29.3633 163.667 30.0932 164.213 30.9553 164.392C31.8175 164.571 32.8125 164.29 33.9405 163.55L42.5632 157.894C43.6912 157.154 44.3447 156.353 44.5238 155.491C44.7029 154.629 44.4937 153.742 43.896 152.831C43.2983 151.92 42.5685 151.375 41.7063 151.196C40.8584 151.038 39.8705 151.33 38.7425 152.07L30.1198 157.726C28.9918 158.466 28.3311 159.256 28.1378 160.097C27.9587 160.959 28.168 161.845 28.7656 162.756ZM38.0399 183.489C37.4673 183.001 37.0351 182.428 36.7434 181.771C36.4714 181.13 36.5374 180.573 36.9412 180.099L52.9691 161.291C53.3897 160.797 53.9296 160.644 54.5886 160.83C55.2841 161.014 55.9182 161.35 56.4909 161.838C57.0437 162.309 57.4558 162.746 57.7271 163.147C58.035 163.546 58.2024 164.029 58.2293 164.598C58.276 165.183 58.1757 166.001 57.9282 167.051L54.927 180.292L63.5089 170.222C63.9296 169.728 64.4694 169.575 65.1284 169.761C65.8071 169.965 66.4328 170.31 67.0054 170.798C67.5781 171.286 68.0088 171.841 68.2976 172.462C68.6061 173.1 68.55 173.666 68.1294 174.159L52.0763 192.997C51.6724 193.471 51.1227 193.616 50.4272 193.432C49.7513 193.265 49.1271 192.938 48.5545 192.45C48.0213 191.995 47.595 191.496 47.2755 190.951C46.9559 190.406 46.8767 189.759 47.0378 189.01L50.1435 173.966L41.5617 184.036C41.1579 184.51 40.6081 184.655 39.9126 184.471C39.2368 184.305 38.6125 183.977 38.0399 183.489ZM61.7845 201.907C61.1016 201.591 60.5312 201.156 60.0731 200.601C59.6387 200.057 59.5521 199.503 59.8135 198.937L70.1852 176.509C70.4465 175.944 70.8898 175.634 71.5149 175.58C72.1636 175.537 72.7823 175.652 73.371 175.924L85.6274 181.592C86.216 181.864 86.5201 182.319 86.5396 182.957C86.5699 183.571 86.4544 184.161 86.1931 184.726C85.8882 185.385 85.4802 185.897 84.9689 186.261C84.4686 186.601 83.9476 186.646 83.406 186.395L74.2579 182.165L71.4975 188.134L76.831 190.601C77.3726 190.851 77.6812 191.265 77.7569 191.843C77.8435 192.398 77.7561 192.958 77.4948 193.523C77.277 193.994 76.9297 194.405 76.4529 194.756C75.987 195.084 75.4597 195.111 74.871 194.839L69.5375 192.373L65.3235 201.485C65.0622 202.051 64.5718 202.338 63.8525 202.349C63.1567 202.37 62.4674 202.223 61.7845 201.907ZM85.5626 211.554C84.9237 211.443 84.3497 211.185 83.8409 210.78C83.3576 210.38 83.1693 209.873 83.2761 209.26L87.5158 184.916C87.6227 184.302 87.9712 183.889 88.5613 183.676C89.177 183.467 89.8043 183.418 90.4433 183.53L104.091 185.906C104.73 186.018 105.142 186.379 105.325 186.99C105.512 187.576 105.553 188.175 105.446 188.789C105.321 189.504 105.059 190.104 104.659 190.587C104.263 191.045 103.771 191.223 103.183 191.12L92.909 189.331L91.7806 195.81L97.5312 196.812C98.1191 196.914 98.5241 197.235 98.7462 197.774C98.9728 198.287 99.0327 198.851 98.9258 199.464C98.8368 199.975 98.6072 200.462 98.237 200.924C97.8713 201.361 97.369 201.523 96.73 201.412L90.9794 200.411L89.8444 206.928L100.119 208.717C100.707 208.82 101.107 209.166 101.32 209.756C101.538 210.321 101.585 210.961 101.46 211.676C101.353 212.29 101.11 212.853 100.731 213.366C100.357 213.854 99.8498 214.042 99.2108 213.931L85.5626 211.554ZM125.563 213.882C125.175 213.92 124.794 213.878 124.417 213.759C124.064 213.611 123.764 213.34 123.517 212.947L117.209 203.16L114.652 203.409L115.56 212.743C115.62 213.363 115.343 213.859 114.727 214.232C114.138 214.602 113.469 214.823 112.72 214.896C111.971 214.969 111.259 214.882 110.583 214.635C109.933 214.385 109.578 213.951 109.518 213.331L107.122 188.697C107.075 188.207 107.201 187.764 107.502 187.37C107.802 186.976 108.236 186.751 108.804 186.696L116.822 185.917C118.604 185.743 120.23 185.846 121.7 186.224C123.194 186.574 124.426 187.314 125.396 188.445C126.363 189.55 126.95 191.161 127.156 193.279C127.297 194.725 127.212 195.997 126.902 197.096C126.615 198.166 126.143 199.072 125.485 199.814C124.853 200.553 124.103 201.148 123.234 201.597L128.792 209.697C128.879 209.793 128.942 209.904 128.981 210.031C129.019 210.157 129.043 210.272 129.053 210.375C129.101 210.866 128.955 211.376 128.616 211.904C128.276 212.432 127.824 212.88 127.261 213.248C126.723 213.613 126.157 213.824 125.563 213.882ZM114.2 198.761L118.035 198.388C119.119 198.283 119.946 197.942 120.516 197.365C121.083 196.762 121.301 195.79 121.17 194.447C121.037 193.079 120.636 192.166 119.966 191.71C119.296 191.254 118.419 191.079 117.334 191.184L113.5 191.557L114.2 198.761ZM140.757 210.892C140.152 211.125 139.527 211.2 138.882 211.114C138.262 211.02 137.84 210.682 137.616 210.101L128.723 187.046C128.499 186.465 128.586 185.931 128.982 185.445C129.402 184.949 129.915 184.584 130.52 184.351L143.446 179.366C144.051 179.132 144.589 179.231 145.061 179.66C145.523 180.066 145.866 180.559 146.09 181.14C146.352 181.818 146.435 182.467 146.341 183.087C146.237 183.684 145.907 184.089 145.35 184.304L135.62 188.057L137.986 194.193L143.433 192.092C143.989 191.877 144.502 191.944 144.969 192.292C145.428 192.615 145.769 193.068 145.993 193.649C146.18 194.133 146.234 194.668 146.154 195.255C146.065 195.818 145.718 196.216 145.113 196.449L139.667 198.55L142.047 204.722L151.778 200.969C152.335 200.754 152.856 200.845 153.343 201.241C153.82 201.613 154.189 202.138 154.451 202.816C154.675 203.397 154.756 204.005 154.695 204.64C154.625 205.251 154.287 205.673 153.682 205.907L140.757 210.892ZM165.73 199.742C165.13 200.196 164.477 200.494 163.772 200.637C163.088 200.764 162.558 200.58 162.182 200.083L147.279 180.372C146.888 179.855 146.854 179.295 147.179 178.692C147.508 178.052 147.973 177.506 148.573 177.052C149.153 176.614 149.668 176.306 150.119 176.127C150.574 175.913 151.083 175.854 151.643 175.95C152.225 176.031 153.002 176.306 153.974 176.774L166.254 182.563L158.275 172.01C157.883 171.492 157.85 170.932 158.175 170.329C158.52 169.71 158.993 169.174 159.593 168.72C160.193 168.266 160.827 167.965 161.496 167.817C162.185 167.654 162.726 167.831 163.117 168.348L178.044 188.09C178.419 188.586 178.442 189.155 178.113 189.794C177.804 190.418 177.349 190.957 176.749 191.41C176.191 191.833 175.611 192.141 175.01 192.336C174.408 192.53 173.76 192.468 173.063 192.149L159.045 185.868L167.025 196.422C167.4 196.918 167.423 197.486 167.093 198.126C166.785 198.75 166.33 199.289 165.73 199.742ZM192.589 175.85C191.578 177.2 190.406 178.267 189.074 179.052C187.741 179.836 186.278 180.167 184.685 180.044C183.107 179.899 181.426 179.159 179.64 177.821L171.385 171.64C169.599 170.303 168.415 168.898 167.833 167.425C167.266 165.931 167.172 164.434 167.549 162.934C167.927 161.434 168.621 160.01 169.632 158.66C170.751 157.165 171.996 156.022 173.365 155.232C174.729 154.406 176.124 153.993 177.551 153.992C178.978 153.991 180.356 154.488 181.685 155.483C182.62 156.183 183.095 156.846 183.111 157.474C183.106 158.087 182.793 158.808 182.171 159.639C181.689 160.282 181.165 160.765 180.6 161.087C180.05 161.389 179.479 161.35 178.887 160.972C178.68 160.817 178.397 160.653 178.039 160.482C177.696 160.291 177.307 160.161 176.871 160.094C176.435 160.027 175.973 160.103 175.486 160.321C174.998 160.539 174.506 160.981 174.008 161.645C173.339 162.538 173.078 163.428 173.224 164.315C173.365 165.166 173.965 165.988 175.024 166.781L183.278 172.962C184.338 173.755 185.313 174.097 186.206 173.987C187.077 173.862 187.847 173.353 188.516 172.46C188.982 171.837 189.244 171.271 189.301 170.763C189.373 170.233 189.316 169.769 189.128 169.37C188.921 168.955 188.663 168.584 188.357 168.257C188.051 167.931 187.75 167.64 187.454 167.386C186.903 166.909 186.706 166.373 186.861 165.776C187.011 165.143 187.319 164.515 187.786 163.892C188.423 163.04 189.045 162.534 189.652 162.373C190.239 162.196 190.999 162.457 191.933 163.157C193.304 164.183 194.221 165.404 194.684 166.82C195.146 168.237 195.194 169.731 194.827 171.303C194.455 172.839 193.709 174.355 192.589 175.85ZM204.249 157.797C204.012 158.4 203.643 158.91 203.144 159.327C202.655 159.72 202.12 159.802 201.541 159.574L178.552 150.513C177.972 150.285 177.638 149.86 177.548 149.239C177.468 148.594 177.546 147.969 177.784 147.366L182.864 134.477C183.102 133.874 183.539 133.544 184.174 133.488C184.786 133.422 185.381 133.503 185.96 133.732C186.636 133.998 187.17 134.376 187.563 134.865C187.932 135.345 188.007 135.863 187.788 136.418L183.964 146.121L190.082 148.532L192.222 143.102C192.441 142.546 192.837 142.214 193.41 142.106C193.958 141.987 194.522 142.042 195.102 142.27C195.584 142.461 196.015 142.784 196.393 143.239C196.747 143.686 196.805 144.21 196.567 144.814L194.427 150.244L200.581 152.67L204.405 142.968C204.624 142.412 205.044 142.09 205.665 142C206.262 141.901 206.898 141.984 207.574 142.251C208.153 142.479 208.656 142.83 209.083 143.305C209.485 143.77 209.567 144.305 209.329 144.908L204.249 157.797Z" fill="white" style="fill:white;fill-opacity:1;"/>
<path d="M169.373 76.9345C168.086 77.2575 166.958 78.0467 166.033 79.2599L139.657 112.472L136.264 116.934C133.369 120.683 129.367 122.508 125.283 121.945C124.133 121.786 122.983 121.442 121.865 120.922C118.995 119.586 116.941 117.372 115.92 114.516L115.583 113.569L114.608 113.817C113.139 114.192 111.636 114.278 110.141 114.072C108.917 113.903 107.696 113.536 106.51 112.985C103.736 111.693 101.657 109.723 100.498 107.288L100.064 106.379L99.1189 106.726C97.4081 107.356 95.6314 107.549 93.8327 107.3C92.6792 107.141 91.5334 106.8 90.4248 106.284C87.3263 104.84 85.2151 102.424 84.3169 99.2938L83.9705 98.0814L82.8146 98.5858C82.1591 98.872 81.5701 99.0388 81.0117 99.0946C80.3735 99.1611 79.7308 99.1486 79.0986 99.0613C78.2526 98.9446 77.3957 98.6871 76.5549 98.2968C75.3216 97.7217 74.2267 96.9329 73.3044 95.9501C72.3309 94.9124 71.4622 93.7934 70.7373 92.642C69.9961 91.4035 69.3598 90.2251 68.8499 89.1404C67.9164 87.1656 67.0055 85.3747 66.1396 83.8251C65.2185 82.1547 64.094 80.6499 62.7978 79.3478C61.4896 78.0376 59.8014 76.8947 57.7826 75.9544C56.2404 75.2366 54.7371 74.7724 53.3145 74.5761C52.2742 74.4325 51.2559 74.4292 50.3106 74.5599C47.7884 74.8389 46.0723 75.9169 45.2154 77.7577C44.845 78.549 44.4935 80.1027 46.3483 81.6472C47.7405 82.6796 49.2711 84.0183 50.9091 85.6353C52.5302 87.2021 54.1313 89.0077 55.6715 91.003C57.2116 92.9983 58.5938 95.1285 59.7812 97.3451C61.1052 99.7873 62.2894 102.674 63.2979 105.919C64.3215 109.212 65.2168 112.695 65.9637 116.274C66.5979 119.25 67.3317 122.262 68.1468 125.237C68.985 128.202 70.0824 131.166 71.4011 134.04C72.7 136.932 74.4277 139.761 76.5313 142.437C78.6226 145.155 81.2596 147.767 84.3718 150.201C87.4784 152.628 91.2879 154.9 95.6961 156.949C99.6028 158.768 103.475 159.951 107.209 160.466C110.24 160.884 113.257 160.872 116.167 160.431C122.627 159.463 128.685 156.37 134.177 151.237C139.623 146.129 144.519 138.95 148.732 129.902C149.533 128.186 150.236 126.435 150.822 124.696C151.39 123.007 152.038 121.248 152.768 119.396C153.437 117.588 154.346 115.639 155.466 113.601C156.603 111.529 158.169 109.233 160.128 106.774L174.923 87.9725C176.5 85.9763 177.166 83.9588 176.901 81.9937C176.651 79.9087 175.428 78.301 173.368 77.342C172.749 77.0519 172.128 76.864 171.524 76.7806C170.772 76.6768 170.03 76.7334 169.373 76.9345ZM136.883 88.6056C135.412 88.9532 134.233 89.8268 133.396 91.1763L122.779 107.337C121.81 108.851 121.51 110.353 121.881 111.776C122.217 113.226 123.161 114.349 124.613 115.026C125.116 115.261 125.626 115.414 126.124 115.482C127.946 115.734 129.613 114.904 131.081 113.004L142.761 97.6384C143.935 96.1568 144.337 94.5209 143.963 92.7932C143.606 91.0112 142.588 89.6843 141.023 88.9569C140.448 88.6882 139.858 88.5133 139.269 88.4319C138.466 88.3211 137.645 88.3842 136.883 88.6056ZM118.842 77.7356C117.139 78.3561 115.845 79.5925 115 81.4068L106.805 99.0117C105.961 100.82 105.735 102.425 106.129 103.786C106.539 105.201 107.591 106.312 109.254 107.086C109.841 107.361 110.433 107.538 111.014 107.618C111.873 107.737 112.723 107.645 113.567 107.337C114.869 106.827 115.997 105.783 116.916 104.238L126.754 87.7718C127.832 85.8917 128.129 84.0063 127.64 82.1886C127.156 80.2694 125.97 78.8585 124.113 77.9949C123.418 77.6704 122.714 77.4579 122.019 77.3621C120.938 77.213 119.863 77.341 118.842 77.7356ZM97.7455 71.2592C96.1698 72.0932 95.1767 73.4538 94.7978 75.2845L90.55 94.1437C89.734 97.9123 91.5253 99.6179 93.1696 100.385C93.6828 100.625 94.201 100.782 94.7094 100.852C95.6429 100.981 96.5528 100.823 97.3888 100.396C98.7422 99.7538 99.6998 98.5559 100.236 96.8276L105.761 78.3405C106.262 76.8053 106.172 75.3432 105.517 74.0359C104.913 72.6857 103.92 71.6801 102.561 71.0486C102.064 70.8168 101.552 70.6634 101.042 70.593C99.9373 70.4406 98.8241 70.6679 97.7455 71.2592Z" fill="#FFCC40" style="fill:#FFCC40;fill:color(display-p3 1.0000 0.8000 0.2510);fill-opacity:1;"/>
<path d="M183.275 80.2277C182.877 78.3133 182.064 76.5765 180.853 75.0514C179.617 73.4694 178.002 72.2084 176.048 71.2979C174.745 70.6924 173.433 70.2963 172.151 70.1188C170.698 69.9184 169.234 69.9936 167.795 70.3418C165.016 70.9678 162.721 72.4701 160.756 74.9422L149.579 88.7819L148.914 87.7234C147.73 85.6884 145.952 84.0745 143.768 83.0571C142.612 82.5199 141.405 82.1602 140.179 81.9918C138.618 81.7778 137.031 81.8666 135.464 82.2604L134.335 82.5449L134.112 81.3999C134.037 80.997 133.993 80.7717 133.935 80.5463C132.967 76.7723 130.456 73.7722 126.86 72.0968C125.566 71.4936 124.229 71.093 122.892 70.9086C120.752 70.6127 118.619 70.8631 116.549 71.6461C115.542 72.0217 114.561 72.5384 113.627 73.1894L112.422 74.0294L111.95 72.6386C111.79 72.1651 111.61 71.6962 111.388 71.2364C110.129 68.5163 108.028 66.4175 105.306 65.1497C104.206 64.6375 103.062 64.2983 101.908 64.139C99.4647 63.8021 96.9551 64.2847 94.6538 65.5344C91.4272 67.262 89.2215 70.2303 88.4407 73.9019L86.9976 80.321L83.7482 87.2932C83.042 88.8137 82.3551 89.9246 81.6506 90.6917C80.731 91.6636 79.8456 91.7683 79.2628 91.6864C79.0216 91.6545 78.7791 91.5817 78.5458 91.4724C77.8789 91.1628 77.2859 90.5869 76.7362 89.7129C76.2513 88.9184 75.6845 87.7849 74.9948 86.2347C73.7344 83.337 72.4135 80.8422 71.0632 78.8095C69.7344 76.811 68.2764 75.1402 66.7314 73.8405C65.1454 72.4747 63.3438 71.3206 61.3577 70.3965C59.0097 69.3016 56.6936 68.5914 54.4783 68.2864C53.656 68.1725 52.8303 68.1134 52.0233 68.1088C49.0437 68.0747 46.3708 68.7075 44.0706 69.9913C41.8046 71.2523 40.0723 73.1462 38.9217 75.6182C38.0522 77.4848 37.8723 79.3422 38.372 81.2907C38.8545 83.2027 39.9528 84.803 41.7295 86.1869C44.2891 88.1809 46.6644 90.464 48.7933 92.9702C50.9341 95.4877 52.7307 98.1669 54.134 100.928C55.4906 103.562 56.6054 106.321 57.4442 109.123C58.2882 111.856 59.016 114.77 59.6004 117.777C60.1752 120.738 60.8945 123.859 61.7379 127.053C62.571 130.228 63.7455 133.488 65.2274 136.743C66.6694 139.982 68.6031 143.214 70.9738 146.365C73.3081 149.499 76.2878 152.529 79.833 155.376C83.3499 158.21 87.7049 160.846 92.7839 163.209C97.4166 165.367 102.01 166.771 106.438 167.381C109.839 167.85 113.226 167.864 116.511 167.422C124.009 166.421 131.083 163 137.54 157.254C137.84 156.986 138.117 156.642 138.414 156.362L140.89 163.031C141.487 164.572 142.523 165.834 143.875 166.667C145.074 167.413 146.438 167.807 147.817 167.807C149.126 167.807 150.428 167.456 151.568 166.801C153.005 165.981 154.093 164.714 154.717 163.132L157.999 155.039L166.025 151.784C167.646 151.161 168.941 150.057 169.749 148.625C170.416 147.469 170.766 146.164 170.766 144.858C170.766 143.487 170.377 142.133 169.628 140.913C168.779 139.552 167.521 138.518 165.923 137.906L154.212 133.561C154.352 133.267 154.507 133.014 154.645 132.718C155.496 130.891 156.252 129.124 156.893 127.472C157.533 125.717 158.211 123.98 158.916 122.277C159.647 120.515 160.54 118.694 161.572 116.862C162.565 115.014 163.864 113.051 165.421 111.053L180.496 91.6591C181.884 89.9018 182.803 88.0148 183.238 86.0458C183.672 84.0677 183.685 82.1101 183.275 80.2277ZM133.396 91.1765C134.233 89.8267 135.412 88.9526 136.883 88.6066C137.645 88.3835 138.466 88.3198 139.269 88.4313C139.858 88.5133 140.448 88.6885 141.023 88.9571C142.587 89.6855 143.606 91.0103 143.963 92.7927C144.337 94.5203 143.934 96.157 142.762 97.6388L131.081 113.004C129.613 114.904 127.946 115.733 126.124 115.482C125.626 115.414 125.116 115.262 124.613 115.025C123.161 114.349 122.217 113.227 121.881 111.774C121.509 110.354 121.811 108.852 122.779 107.336L133.396 91.1765ZM115 81.4068C115.845 79.5926 117.139 78.3566 118.841 77.7351C119.863 77.3413 120.938 77.2139 122.019 77.3618C122.713 77.4574 123.418 77.6714 124.113 77.9946C125.971 78.8596 127.155 80.2686 127.64 82.1875C128.129 84.0063 127.832 85.891 126.754 87.7712L116.916 104.238C115.997 105.783 114.869 106.826 113.567 107.336C112.723 107.645 111.873 107.736 111.014 107.618C110.433 107.538 109.841 107.361 109.254 107.085C107.592 106.311 106.539 105.201 106.129 103.785C105.736 102.426 105.961 100.819 106.805 99.0114L115 81.4068ZM90.5497 94.1425L94.7978 75.2836C95.1768 73.4535 96.1698 72.0923 97.7456 71.2592C98.8239 70.6673 99.937 70.4397 101.042 70.5922C101.552 70.6628 102.064 70.8176 102.562 71.0475C103.919 71.6803 104.913 72.6864 105.517 74.0362C106.172 75.3428 106.262 76.8064 105.761 78.3406L100.236 96.8285C99.6997 98.5562 98.742 99.7535 97.3887 100.395C96.5528 100.823 95.6428 100.98 94.7096 100.853C94.2008 100.782 93.683 100.625 93.1697 100.384C91.5251 99.6169 89.7337 97.912 90.5497 94.1425ZM174.923 87.9715L160.128 106.773C158.168 109.234 156.602 111.529 155.465 113.6C154.347 115.64 153.437 117.588 152.768 119.395C152.038 121.248 151.39 123.006 150.822 124.695C150.236 126.434 149.533 128.186 148.732 129.903C148.509 130.383 148.262 130.797 148.035 131.268L141.462 128.828C139.941 128.193 138.314 128.077 136.743 128.505C135.482 128.853 134.328 129.522 133.399 130.451C132.473 131.38 131.801 132.543 131.471 133.77C131.037 135.329 131.146 136.966 131.701 138.282L135.852 149.463C135.291 150.045 134.75 150.699 134.178 151.238C128.685 156.369 122.627 159.462 116.167 160.432C113.257 160.871 110.241 160.885 107.209 160.466C103.475 159.952 99.6024 158.768 95.6963 156.949C91.2878 154.901 87.4784 152.629 84.3719 150.202C81.2597 147.767 78.6226 145.154 76.5313 142.436C74.428 139.761 72.7004 136.932 71.4012 134.041C70.0826 131.166 68.9849 128.202 68.1467 125.236C67.3318 122.261 66.5977 119.25 65.9637 116.275C65.2171 112.694 64.3214 109.211 63.2982 105.92C62.2893 102.674 61.1051 99.7876 59.7814 97.3452C58.5938 95.1281 57.2115 92.9975 55.6716 91.0035C54.1317 89.0072 52.5304 87.2021 50.9091 85.6361C49.2707 84.0176 47.7405 82.6792 46.348 81.648C44.4934 80.1025 44.8445 78.55 45.2156 77.7579C46.0726 75.9164 47.7883 74.8397 50.3104 74.5598C51.2556 74.43 52.2743 74.4323 53.3145 74.5757C54.7372 74.7714 56.2407 75.2358 57.7828 75.9551C59.8013 76.8952 61.4897 78.0379 62.7975 79.3467C64.0938 80.6488 65.2183 82.1557 66.1396 83.8242C67.0051 85.3743 67.9168 87.1657 68.8501 89.1392C69.3599 90.225 69.9961 91.4041 70.7371 92.6424C71.4621 93.7942 72.3305 94.9119 73.3047 95.9498C74.2266 96.9332 75.3215 97.7208 76.5552 98.2967C77.3957 98.6859 78.2527 98.9454 79.0989 99.0615C79.7306 99.148 80.3737 99.1616 81.0116 99.0956C81.5698 99.0387 82.1594 98.8726 82.8149 98.5858L83.9702 98.0804L84.3173 99.2937C85.2153 102.424 87.3265 104.839 90.4245 106.284C91.533 106.801 92.6792 107.14 93.8327 107.299C95.6315 107.55 97.4081 107.356 99.1187 106.726L100.063 106.38L100.498 107.288C101.657 109.724 103.736 111.692 106.51 112.985C107.696 113.536 108.917 113.903 110.14 114.071C111.636 114.278 113.139 114.192 114.608 113.816L115.583 113.568L115.92 114.515C116.941 117.372 118.995 119.587 121.864 120.923C122.983 121.442 124.133 121.785 125.282 121.945C129.367 122.509 133.369 120.684 136.264 116.932L139.657 112.471L166.033 79.2602C166.958 78.047 168.086 77.2571 169.373 76.9339C170.03 76.7336 170.772 76.6767 171.523 76.7814C172.128 76.8633 172.749 77.0523 173.368 77.3413C175.428 78.3019 176.652 79.909 176.901 81.994C177.166 83.9585 176.5 85.9752 174.923 87.9715Z" fill="#231769" style="fill:#231769;fill:color(display-p3 0.1373 0.0902 0.4118);fill-opacity:1;"/>
<path d="M149.303 160.976C149.169 161.324 148.961 161.579 148.68 161.74C148.399 161.901 148.11 161.981 147.816 161.981C147.521 161.981 147.233 161.894 146.951 161.72C146.67 161.546 146.462 161.284 146.328 160.936L137.163 136.255C137.029 135.933 137.003 135.625 137.083 135.33C137.163 135.036 137.311 134.781 137.525 134.567C137.74 134.352 137.994 134.205 138.289 134.124C138.584 134.044 138.892 134.071 139.214 134.205L163.895 143.37C164.243 143.504 164.504 143.711 164.678 143.993C164.853 144.274 164.94 144.562 164.94 144.857C164.94 145.152 164.859 145.44 164.699 145.721C164.538 146.003 164.283 146.21 163.935 146.344L153.524 150.565L149.303 160.976Z" fill="white" style="fill:white;fill-opacity:1;"/>
<path opacity="0.8" d="M130.963 25.1199V36.2566H138.846V25.1199H148.602V56.2478H138.846V43.2009H130.951V56.2478H125.604L119.604 40.3865L125.604 25.1199H130.963ZM162.126 25.1199V56.2458H152.567V25.1199H162.126Z" fill="white" style="fill:white;fill-opacity:1;"/>
<path opacity="0.95" d="M73.8193 44.6844C73.8194 45.3047 73.875 45.9248 74.0078 46.5321C74.5424 48.9894 75.7716 49.4481 77.8857 49.4286H78.5059C81.3021 49.31 81.8942 46.7041 81.8926 44.786L81.9082 25.12H87.2725L94.6973 40.3866L87.1689 55.787C87.1689 55.787 83.7812 56.1764 78.3848 56.2235C77.3561 56.2333 77.0952 56.2674 75.9111 56.243C70.1437 56.1277 65.4616 54.7391 64.3389 47.3495C64.1931 46.3896 64.1312 45.4164 64.1279 44.4452L64.041 25.12H73.8096L73.8193 44.6844ZM106.892 37.3427L112.046 25.12H121.639L114.614 40.3866L121.562 56.2509H112.046L106.821 43.2079L101.166 56.2479H91.4629L99.1152 40.3866L92.0723 25.12H101.719L106.892 37.3427Z" fill="white" style="fill:white;fill-opacity:1;"/>
</svg>
