<svg width="48" height="48" viewBox="0 0 48 48" fill="none" xmlns="http://www.w3.org/2000/svg">
<g clip-path="url(#clip0_735_3981)">
<path d="M24 4.324C30.408 4.324 31.168 4.348 33.698 4.464C36.314 4.584 39.008 5.18 40.914 7.086C42.838 9.01 43.416 11.678 43.536 14.302C43.652 16.832 43.676 17.592 43.676 24C43.676 30.408 43.652 31.168 43.536 33.698C43.418 36.3 42.808 39.02 40.914 40.914C38.99 42.838 36.324 43.416 33.698 43.536C31.168 43.652 30.408 43.676 24 43.676C17.592 43.676 16.832 43.652 14.302 43.536C11.72 43.418 8.964 42.794 7.086 40.914C5.172 39 4.584 36.306 4.464 33.698C4.348 31.168 4.324 30.408 4.324 24C4.324 17.592 4.348 16.832 4.464 14.302C4.582 11.71 5.198 8.974 7.086 7.086C9.006 5.166 11.684 4.584 14.302 4.464C16.832 4.348 17.592 4.324 24 4.324ZM24 0C17.482 0 16.664 0.028 14.104 0.144C10.394 0.314 6.71 1.346 4.028 4.028C1.336 6.72 0.314 10.396 0.144 14.104C0.028 16.664 0 17.482 0 24C0 30.518 0.028 31.336 0.144 33.896C0.314 37.602 1.35 41.296 4.028 43.972C6.718 46.662 10.4 47.686 14.104 47.856C16.664 47.972 17.482 48 24 48C30.518 48 31.336 47.972 33.896 47.856C37.604 47.686 41.292 46.652 43.972 43.972C46.666 41.278 47.686 37.604 47.856 33.896C47.972 31.336 48 30.518 48 24C48 17.482 47.972 16.664 47.856 14.104C47.686 10.394 46.652 6.708 43.972 4.028C41.286 1.342 37.594 0.312 33.896 0.144C31.336 0.028 30.518 0 24 0Z" fill="black" style="fill:black;fill-opacity:1;"/>
<path d="M24 11.676C17.194 11.676 11.676 17.194 11.676 24C11.676 30.806 17.194 36.324 24 36.324C30.806 36.324 36.324 30.806 36.324 24C36.324 17.194 30.806 11.676 24 11.676ZM24 32C19.582 32 16 28.418 16 24C16 19.582 19.582 16 24 16C28.418 16 32 19.582 32 24C32 28.418 28.418 32 24 32Z" fill="black" style="fill:black;fill-opacity:1;"/>
<path d="M36.812 14.068C38.4026 14.068 39.692 12.7786 39.692 11.188C39.692 9.59742 38.4026 8.308 36.812 8.308C35.2214 8.308 33.932 9.59742 33.932 11.188C33.932 12.7786 35.2214 14.068 36.812 14.068Z" fill="black" style="fill:black;fill-opacity:1;"/>
</g>
<defs>
<clipPath id="clip0_735_3981">
<rect width="48" height="48" fill="white" style="fill:white;fill-opacity:1;"/>
</clipPath>
</defs>
</svg>
