<svg width="48" height="48" viewBox="0 0 48 48" fill="none" xmlns="http://www.w3.org/2000/svg">
<path d="M36 24C35.9903 22.9478 35.5663 21.9418 34.82 21.2L26.24 12.6C25.8653 12.2275 25.3584 12.0184 24.83 12.0184C24.3016 12.0184 23.7947 12.2275 23.42 12.6C23.2325 12.7859 23.0838 13.0071 22.9822 13.2508C22.8807 13.4946 22.8284 13.756 22.8284 14.02C22.8284 14.284 22.8807 14.5454 22.9822 14.7892C23.0838 15.0329 23.2325 15.2541 23.42 15.44L30 22H10C9.46957 22 8.96086 22.2107 8.58579 22.5858C8.21071 22.9609 8 23.4696 8 24C8 24.5304 8.21071 25.0391 8.58579 25.4142C8.96086 25.7893 9.46957 26 10 26H30L23.42 32.58C23.0434 32.954 22.8308 33.4622 22.8289 33.9929C22.827 34.5237 23.036 35.0334 23.41 35.41C23.784 35.7866 24.2922 35.9992 24.8229 36.0011C25.3537 36.003 25.8634 35.794 26.24 35.42L34.82 26.82C35.5712 26.0733 35.9955 25.0592 36 24Z" fill="black" style="fill:black;fill-opacity:1;"/>
</svg>
