<svg width="48" height="48" viewBox="0 0 48 48" fill="none" xmlns="http://www.w3.org/2000/svg">
<g clip-path="url(#clip0_717_1111)">
<path d="M0 14V10C0 4.48 4.48 0 10 0H14C15.1 0 16 0.9 16 2C16 3.1 15.1 4 14 4H10C6.7 4 4 6.7 4 10V14C4 15.1 3.1 16 2 16C0.9 16 0 15.1 0 14ZM14 44H10C6.7 44 4 41.3 4 38V34C4 32.9 3.1 32 2 32C0.9 32 0 32.9 0 34V38C0 43.52 4.48 48 10 48H14C15.1 48 16 47.1 16 46C16 44.9 15.1 44 14 44ZM46 32C44.9 32 44 32.9 44 34V38C44 41.3 41.3 44 38 44H34C32.9 44 32 44.9 32 46C32 47.1 32.9 48 34 48H38C43.52 48 48 43.52 48 38V34C48 32.9 47.1 32 46 32ZM38 0H34C32.9 0 32 0.9 32 2C32 3.1 32.9 4 34 4H38C41.3 4 44 6.7 44 10V14C44 15.1 44.9 16 46 16C47.1 16 48 15.1 48 14V10C48 4.48 43.52 0 38 0ZM31.8 32.28L30 26.82L34.34 23.28C34.92 22.78 35.14 21.98 34.88 21.24C34.62 20.5 33.92 20.04 33.16 20.04H27.66L25.72 14.82C25.46 14.1 24.76 13.62 24 13.62C23.24 13.62 22.54 14.1 22.28 14.82L20.34 20.04H14.84C14.08 20.04 13.38 20.52 13.12 21.24C12.86 21.96 13.06 22.78 13.66 23.26L18.02 26.8L16.3 32.32C16.06 33.06 16.32 33.88 16.94 34.34C17.26 34.58 17.66 34.7 18.04 34.7C18.4 34.7 18.76 34.6 19.06 34.4L24.02 31.08L29.06 34.36C29.72 34.78 30.56 34.76 31.18 34.28C31.8 33.8 32.04 33 31.8 32.26V32.28Z" fill="black" style="fill:black;fill-opacity:1;"/>
</g>
<defs>
<clipPath id="clip0_717_1111">
<rect width="48" height="48" fill="white" style="fill:white;fill-opacity:1;"/>
</clipPath>
</defs>
</svg>
