<svg width="48" height="48" viewBox="0 0 48 48" fill="none" xmlns="http://www.w3.org/2000/svg">
<g clip-path="url(#clip0_718_12)">
<path d="M42.9939 2.08202C39.4399 1.41602 35.9199 4.39402 35.9999 8.00002V12.63L31.5819 9.19002C28.9979 7.26802 25.3319 7.80602 23.4099 10.39C22.5619 11.528 22.1919 12.906 22.2979 14.308C20.9259 14.608 19.7119 15.36 18.8659 16.5C17.9859 17.684 17.6459 19.092 17.7579 20.458C16.3679 20.752 15.1379 21.51 14.2819 22.66C13.8999 23.172 13.6359 23.74 13.4419 24.328L9.42994 21.342C7.06194 19.58 3.75394 19.732 1.73194 21.69C-0.850058 24.072 -0.570058 28.56 2.28394 30.584L18.9319 43.084C21.6359 45.114 24.7759 46.098 27.8879 46.098C32.2699 46.098 36.5939 44.142 39.5459 40.404L43.2699 35.684C46.3219 31.82 48.0039 26.978 48.0039 22.052V8.21402C48.0039 5.18202 45.8519 2.54602 42.9979 2.08202H42.9939ZM26.6179 12.778C27.2279 11.96 28.3859 11.798 29.1939 12.4L32.3079 14.728C33.0879 15.308 33.2499 16.498 32.6519 17.266C32.1239 18.008 31.0459 18.228 30.2759 17.74C30.2179 17.694 26.9059 15.228 26.8439 15.186C26.1579 14.588 26.0579 13.496 26.6159 12.778H26.6179ZM22.0719 18.888C22.5939 18.162 23.6499 17.922 24.4199 18.392C24.4859 18.446 27.8199 20.934 27.8839 20.976C28.5379 21.608 28.6639 22.628 28.1059 23.376C27.4999 24.19 26.3459 24.358 25.5299 23.754L22.4499 21.462C21.6359 20.856 21.4659 19.7 22.0719 18.886V18.888ZM17.1419 26.416C17.0699 25.93 17.1919 25.446 17.4859 25.05C18.0619 24.244 19.2759 24.064 20.0619 24.672L23.1419 26.964C23.9559 27.57 24.1259 28.724 23.5199 29.54C22.9119 30.352 21.7579 30.524 20.9439 29.918L17.8639 27.628C17.4699 27.334 17.2099 26.904 17.1399 26.416H17.1419ZM43.9999 22.058C43.9999 26.088 42.6239 30.05 40.1259 33.212L36.4019 37.932C32.7099 42.604 26.0919 43.464 21.3299 39.89L4.67394 27.382C3.81994 26.642 3.57794 25.604 4.50994 24.564C5.13194 23.966 6.24194 23.962 7.03594 24.552L18.5579 33.126C21.1179 35.036 24.7979 34.524 26.7299 31.926C27.6079 30.744 27.9479 29.34 27.8399 27.976C29.1819 27.692 30.4339 26.95 31.3159 25.764C32.1879 24.592 32.5279 23.2 32.4259 21.846C33.7999 21.544 35.0139 20.792 35.8619 19.652C36.1539 19.26 36.3719 18.834 36.5559 18.394C37.1579 18.988 38.0639 19.176 38.8339 18.818C39.5459 18.492 40.0019 17.782 40.0019 17V8.00002C39.9799 6.78802 41.1479 5.79802 42.3519 6.02802C43.2759 6.18002 44.0019 7.14002 44.0019 8.21402V22.056L43.9999 22.058Z" fill="black" style="fill:black;fill-opacity:1;"/>
</g>
<defs>
<clipPath id="clip0_718_12">
<rect width="48" height="48" fill="white" style="fill:white;fill-opacity:1;"/>
</clipPath>
</defs>
</svg>
