<svg width="48" height="48" viewBox="0 0 48 48" fill="none" xmlns="http://www.w3.org/2000/svg">
<path d="M37.42 16.42C37.2341 16.2325 37.0129 16.0838 36.7692 15.9822C36.5254 15.8807 36.264 15.8284 36 15.8284C35.736 15.8284 35.4746 15.8807 35.2308 15.9822C34.9871 16.0838 34.7659 16.2325 34.58 16.42L25.42 25.58C25.2341 25.7675 25.0129 25.9162 24.7692 26.0178C24.5254 26.1193 24.264 26.1716 24 26.1716C23.736 26.1716 23.4746 26.1193 23.2308 26.0178C22.9871 25.9162 22.7659 25.7675 22.58 25.58L13.42 16.42C13.2341 16.2325 13.0129 16.0838 12.7692 15.9822C12.5254 15.8807 12.264 15.8284 12 15.8284C11.736 15.8284 11.4746 15.8807 11.2308 15.9822C10.9871 16.0838 10.7659 16.2325 10.58 16.42C10.2075 16.7947 9.99841 17.3016 9.99841 17.83C9.99841 18.3584 10.2075 18.8653 10.58 19.24L19.76 28.42C20.885 29.5436 22.41 30.1747 24 30.1747C25.59 30.1747 27.115 29.5436 28.24 28.42L37.42 19.24C37.7925 18.8653 38.0016 18.3584 38.0016 17.83C38.0016 17.3016 37.7925 16.7947 37.42 16.42Z" fill="black" style="fill:black;fill-opacity:1;"/>
</svg>
