<svg width="48" height="48" viewBox="0 0 48 48" fill="none" xmlns="http://www.w3.org/2000/svg">
<path d="M38.332 38.3323H32.318V28.9143C32.318 26.6683 32.278 23.7783 29.19 23.7783C26.058 23.7783 25.578 26.2243 25.578 28.7523V38.3323H19.566V18.9643H25.34V21.6103H25.42C26.598 19.5983 28.786 18.3963 31.116 18.4823C37.212 18.4823 38.334 22.4923 38.334 27.7063L38.332 38.3323ZM12.78 16.3163C10.852 16.3163 9.29 14.7543 9.29 12.8263C9.29 10.8983 10.852 9.33627 12.78 9.33627C14.708 9.33627 16.27 10.8983 16.27 12.8263C16.27 14.7543 14.708 16.3163 12.78 16.3163ZM15.786 38.3323H9.766V18.9643H15.786V38.3323ZM41.33 3.75227H6.744C5.11 3.73427 3.77 5.04427 3.75 6.67827V41.4063C3.77 43.0423 5.11 44.3523 6.744 44.3343H41.33C42.968 44.3543 44.314 43.0443 44.336 41.4063V6.67627C44.312 5.03827 42.966 3.72827 41.33 3.75027" fill="black" style="fill:black;fill-opacity:1;"/>
</svg>
