<svg viewBox="0 0 500 254" fill="none" xmlns="http://www.w3.org/2000/svg">
    <path d="M406.647 43.408c-4.463-1.988-12.057-4.655-21.4-8.133-4.776-1.49-9.996-3.111-15.555-4.863-5.637-1.438-11.587-3.086-17.772-4.524-12.449-2.667-25.732-5.177-38.807-6.432-3.263-.314-6.499-.758-9.709-.993-3.21-.183-6.368-.366-9.473-.55-6.211-.496-12.188-.366-17.773-.444-25.862-.079-51.725 2.902-76.91 8.655l-9.447 2.17-9.317 2.641c-6.263 1.621-12.344 3.818-18.451 5.857-3.079.968-6.081 2.145-9.082 3.347l-9.003 3.53c-5.925 2.484-11.797 5.073-17.486 7.975-22.705 11.427-43.713 26.566-57.284 46.883a94.047 94.047 0 0 0-8.482 15.872c-2.01 5.569-3.706 11.321-4.515 17.283-.757 5.936-1.148 12.002-.548 17.964l.157 2.249.339 2.222c.235 1.464.444 2.955.705 4.445.756 2.876 1.278 5.831 2.374 8.603.288.889.6 1.804.94 2.746.365.915.835 1.83 1.253 2.798.417.967.86 1.934 1.304 2.928.522.941 1.07 1.883 1.618 2.824.549.941 1.018 1.961 1.645 2.85.626.889 1.226 1.804 1.853 2.693 1.122 1.883 2.583 3.373 3.784 4.968 5.063 6.145 10.047 10.25 8.403 12.865-.861 1.281-2.583 1.804-5.271 1.517-1.305-.183-2.976-.366-4.62-1.124-1.67-.706-3.549-1.648-5.585-2.825-7.933-4.915-17.015-15.897-21.556-31.246-5.403-18.539-4.515-38.333 1.696-56.375C51.17 93.637 62.784 78.55 76.33 66.13c13.596-12.394 29.151-21.99 45.201-29.965 8.012-4 16.232-7.531 24.505-10.773l6.186-2.484c2.087-.785 4.175-1.465 6.289-2.223 4.202-1.412 8.351-3.033 12.605-4.314C220.623.656 273.653-3.763 325.17 3.192c25.758 3.53 51.125 9.832 75.526 18.879 12.24 4.34 24.245 9.649 35.885 16.003 11.587 6.406 22.731 14.093 32.517 23.559 17.642 16.943 30.117 40.476 30.874 66.127.365 12.76-2.845 25.887-9.082 36.973-2.949 5.674-6.864 10.695-10.909 15.454-4.202 4.628-8.69 8.916-13.492 12.681-19.234 15.14-41.47 24.422-63.287 31.953-21.896 7.687-44.34 13.859-67.071 18.539-21.348 4.497-43.009 7.347-64.749 9.047-21.739 1.621-43.609 2.144-65.4.915-21.792-1.177-43.531-3.713-65.036-7.661l-16.076-3.243-15.946-3.896c-10.647-2.667-21.321-6.014-31.734-10.093-17.903-7.138-35.623-16.551-50.238-30.801C12.363 183.586 1.663 163.923.254 142.926c-1.644-20.866 4.828-41.235 15.71-58.074 5.481-8.446 12.162-16.133 19.913-22.566 7.673-6.406 16.155-11.714 25.08-15.95 8.377-4 17.929-7.687 28.003-10.25 10.047-2.588 20.565-4.183 30.639-4.523 8.325-.314 19.416.156 30.247 1.62 10.856 1.386 21.452 3.844 29.203 6.04 6.629 1.988 13.518 4.054 19.991 5.989 14.927 4.288 23.905 8.132 27.715 10.93 3.837 2.823 2.48 4.68-3.471 6.014-2.609.6-.913 3.294-8.09 1.699-.287-.052-.887-.183-1.174-.235-22.079-3.74-42.853-12.002-65.062-14.852-13.57-1.7-27.141-1.987-40.529-.419-13.362 1.648-26.49 4.995-38.547 10.538a108.055 108.055 0 0 0-17.146 9.858c-5.376 3.817-10.334 8.08-14.614 12.943-8.639 9.7-15.294 21.336-18.739 33.835-3.523 12.42-3.993 25.651-.417 37.731l.626 2.275.861 2.223c.6 1.464 1.097 2.981 1.749 4.419 1.488 2.798 2.74 5.726 4.593 8.341 1.592 2.772 3.68 5.229 5.637 7.792.992 1.255 2.166 2.38 3.262 3.609 1.07 1.202 2.193 2.379 3.42 3.451l3.6 3.321 3.863 3.085c1.253 1.073 2.61 2.014 3.993 2.955 1.383.941 2.688 1.935 4.097 2.824 5.638 3.556 11.51 6.824 17.668 9.675 12.266 5.752 25.315 10.119 38.625 13.649 33.014 8.55 66.915 14.146 101.05 15.584 17.042.993 34.136.601 51.178-.235 8.508-.68 17.015-1.151 25.471-2.275 4.228-.523 8.482-.916 12.684-1.57l12.605-2.012c4.619-.654 9.16-1.752 13.727-2.694 4.567-.993 9.134-1.857 13.649-3.086 4.541-1.098 9.082-2.196 13.649-3.32 4.541-1.229 9.082-2.432 13.675-3.53l-.313.079c4.776-1.256 9.422-2.851 14.119-4.394 4.672-1.569 9.395-3.006 13.962-4.81l13.832-5.152c4.515-1.804 8.978-3.634 13.362-5.648 16.494-7.478 32.309-17.048 43.609-29.991 5.559-6.485 9.813-13.728 12.292-21.572 1.383-3.87 2.036-7.897 2.401-11.976.392-4.079.209-8.237-.287-12.394-2.14-16.63-10.569-32.632-22.339-44.896-11.927-12.498-26.985-21.912-42.722-29.468-2.636-1.23-6.133-2.536-9.917-4.105Z" fill="#FFCC40" style="fill:color(display-p3 1 .8 .251);fill-opacity:1"/>
</svg>
