<svg viewBox="0 0 1610 31" fill="none" xmlns="http://www.w3.org/2000/svg">
<path d="M1066.95 1.75573C1088.89 1.63722 1166.58 1.46881 1216.38 1.05714C1331.63 0.0965959 1446.9 -0.645647 1561.89 0.851313C1579.85 1.08833 1610.41 0.919924 1609.89 7.98058C1609.36 15.3282 1588.97 19.738 1557.63 19.6693C1481.77 19.4947 1405.51 18.2971 1330.07 20.0685C1219.7 22.657 1109.47 22.3701 999.194 23.4679C900.174 24.4534 801.11 24.7216 702.1 25.7757C609.09 26.7612 516.135 28.9692 423.152 29.5056C342.898 29.9672 262.662 28.6698 182.372 28.5388C163.472 28.5076 140.742 29.9609 120.022 29.9859C102.889 30.0046 74.3199 30.1356 57.3397 29.6366C50.0113 29.4183 42.3958 29.1314 35.2288 29.4432C2.28217 30.8404 -6.46353 28.3455 4.4529 20.212C6.85685 18.4219 4.02234 16.1203 11.9787 14.8541C12.3106 14.8042 12.9654 14.6982 13.2614 14.6296C37.3637 9.58357 62.1925 11.6918 87.1738 11.4111C209.766 10.0576 332.394 9.19062 455.005 8.14899C530.236 7.50654 605.565 7.32566 680.644 5.88484C701.203 5.49189 721.753 4.30679 742.635 4.78707H742.276C764.046 4.40035 785.825 3.78286 807.596 3.65811C889.976 3.19031 975.997 2.00522 1055.06 2.12997C1058.17 2.12997 1062.37 1.78068 1066.95 1.75573Z" fill="#FFCC40" style="fill:#FFCC40;fill:color(display-p3 1.0000 0.8000 0.2510);fill-opacity:1;"/>
</svg>
