<svg xmlns="http://www.w3.org/2000/svg" width="200" height="56" fill="none"><g clip-path="url(#a)"><path fill="#231769" d="M9.506 12.8V.408h4.025v12.39c0 3.05 1.573 4.875 4.686 4.875 3.177 0 4.718-1.824 4.718-4.875V.41h3.93V12.8c0 5.252-3.081 8.586-8.616 8.586-5.63 0-8.743-3.302-8.743-8.586zM35.8 10.44 29.005.41h4.812l4.749 7.516L43.346.41H48l-6.823 10.03 7.14 10.535h-4.813l-5.063-8.05-5.126 8.05h-4.622l7.106-10.535zM50.646.409h8.9c4.97 0 7.17 2.767 7.17 6.541 0 3.742-2.233 6.573-7.17 6.573H52.91v7.453h-2.264V.409zm8.931 11.038c3.554 0 4.844-1.95 4.844-4.497 0-2.547-1.29-4.466-4.844-4.466H52.91v8.963h6.667zM69.171.409h15.095v2.075h-12.83v7.013h11.007v2.076H71.435V18.9h12.831v2.076H69.171V.409zm18.337 0h9.09c4.842 0 6.981 2.704 6.981 6.352 0 3.397-1.824 5.661-5.189 6.29l5.943 7.925h-2.736l-5.566-7.8h-6.259v7.8h-2.264V.409zm9.12 10.692c3.428 0 4.655-1.887 4.655-4.34s-1.227-4.277-4.654-4.277h-6.857v8.617h6.857zM107.103.409h2.264v20.567h-2.264V.409zm6.228 0h15.095v2.075h-12.831v7.013h11.008v2.076h-11.008V18.9h12.831v2.076h-15.095V.409zm17.865 8.082c0-5.189 3.082-8.491 8.648-8.491 5.535 0 8.616 3.302 8.616 8.491v12.485h-2.264V8.491c0-3.962-2.2-6.415-6.352-6.415-4.183 0-6.384 2.453-6.384 6.415v12.485h-2.264V8.491zm19.658 2.201C150.854 4.53 155.382 0 161.798 0c5.157 0 9.12 2.925 10.44 7.296h-2.39c-1.226-3.145-4.214-5.22-8.05-5.22-5.126 0-8.68 3.648-8.68 8.616 0 4.97 3.554 8.617 8.68 8.617 3.836 0 6.824-2.075 8.05-5.22h2.39c-1.32 4.371-5.283 7.296-10.44 7.296-6.416 0-10.944-4.529-10.944-10.693zM175.199.409h15.095v2.075h-12.831v7.013h11.006v2.076h-11.006V18.9h12.831v2.076h-15.095V.409zM11.629 25.056h14.13c1.026 4.481 8.41 26.267 11.628 29.613h-13.49l-2.093-5.183c.484 2.89-1.453 5.183-4.341 5.183H0c3.217-3.346 10.602-25.132 11.629-29.613zm7.946 23.934c0-1.983-.543-4.936-1.512-8.446-1.628-5.886-2.732-9.726-4.535-9.726-1.337 0-1.628 1.693-1.628 3.448 0 2.106.446 5.039 1.24 8.425 1.532 6.485 3.373 8.942 5.195 8.942.852 0 1.24-.97 1.24-2.643z"/><path fill="#231769" d="M37.524 52.005c.58-5.245.562-19.04 0-24.285-.233-2.065-.872-2.313-1.144-2.664h15.641c-.33.351-.95.599-1.201 2.664-.543 5.245-.504 18.978.039 24.223 2.635.041 7.131-1.631 9.031-4.089v6.815H36.38c.272-.33.911-.6 1.144-2.664zm21.841-12.143c0-8.446 6.164-15.302 16.92-15.302 10.699 0 16.9 6.856 16.9 15.302 0 8.467-6.201 15.323-16.9 15.323-10.756 0-16.92-6.856-16.92-15.323zm20.118.042c0-7.145-.194-12.762-3.276-12.762-2.83 0-3.159 5.617-3.159 12.762 0 7.186.33 12.7 3.16 12.7 3.081 0 3.275-5.514 3.275-12.7zm15.621 12.101c.581-5.245.543-19.04 0-24.285-.213-2.065-.872-2.313-1.143-2.664h15.64c-.329.351-.949.599-1.201 2.664-.174 1.631-.291 4.089-.349 6.856h3.896c-.078-2.767-.194-5.225-.369-6.856-.212-2.065-.871-2.313-1.143-2.664h15.641c-.329.351-.949.599-1.202 2.664-.542 5.245-.542 19.04 0 24.285.253 2.065.873 2.333 1.202 2.664h-15.641c.272-.33.911-.6 1.143-2.664.35-3.14.466-9.169.408-14.745h-3.974c-.058 5.576.058 11.606.388 14.745.252 2.065.872 2.333 1.201 2.664h-15.64c.271-.33.91-.6 1.143-2.664zm42.794-26.949h14.129c1.027 4.481 8.412 26.267 11.629 29.613h-13.489l-2.094-5.183c.484 2.89-1.453 5.183-4.341 5.183h-17.463c3.217-3.346 10.602-25.132 11.629-29.613zm7.946 23.934c0-1.983-.543-4.936-1.512-8.446-1.628-5.886-2.732-9.726-4.535-9.726-1.337 0-1.628 1.693-1.628 3.448 0 2.106.446 5.039 1.241 8.425 1.531 6.485 3.372 8.942 5.194 8.942.852 0 1.24-.97 1.24-2.643z"/><path fill="#F4C34A" d="M195.558 27.272c-.403.101-.756.348-1.045.728l-8.251 10.389-1.062 1.396c-.905 1.173-2.157 1.744-3.435 1.567a3.76 3.76 0 0 1-1.069-.32c-.898-.417-1.54-1.11-1.86-2.003l-.105-.297-.305.078a3.63 3.63 0 0 1-1.398.08 4.008 4.008 0 0 1-1.136-.34c-.867-.405-1.518-1.02-1.88-1.782l-.136-.285-.296.109a3.39 3.39 0 0 1-1.653.18 3.732 3.732 0 0 1-1.066-.319c-.97-.452-1.63-1.207-1.911-2.186l-.108-.38-.362.158a1.88 1.88 0 0 1-.564.16c-.2.02-.401.016-.598-.011a2.807 2.807 0 0 1-.796-.24 3.304 3.304 0 0 1-1.017-.733 6.94 6.94 0 0 1-.803-1.035 12.426 12.426 0 0 1-.59-1.096 27.804 27.804 0 0 0-.848-1.662 6.263 6.263 0 0 0-1.046-1.401c-.409-.41-.937-.767-1.569-1.062a4.934 4.934 0 0 0-1.397-.43 3.453 3.453 0 0 0-.94-.006c-.789.087-1.326.425-1.594 1-.116.248-.226.734.354 1.217.436.323.915.742 1.427 1.248a15.53 15.53 0 0 1 1.49 1.68c.482.623.914 1.29 1.286 1.983.414.764.784 1.667 1.1 2.682.32 1.03.6 2.12.834 3.24.198.93.428 1.873.683 2.803.262.928.605 1.855 1.018 2.754.406.905.946 1.79 1.605 2.627.654.85 1.479 1.667 2.452 2.429.972.759 2.164 1.47 3.543 2.11 1.222.57 2.433.94 3.601 1.1a9.745 9.745 0 0 0 2.803-.01c2.02-.303 3.915-1.27 5.634-2.876 1.703-1.598 3.235-3.844 4.553-6.674.25-.537.47-1.085.653-1.629.178-.528.381-1.079.609-1.658.21-.566.494-1.175.844-1.813.356-.648.846-1.366 1.459-2.135l4.628-5.882c.493-.624.701-1.256.619-1.87-.078-.652-.461-1.155-1.105-1.455a2.013 2.013 0 0 0-.578-.176 1.574 1.574 0 0 0-.672.048zm-10.164 3.651c-.46.109-.829.382-1.091.804l-3.321 5.056c-.303.473-.397.943-.281 1.388.105.454.4.805.855 1.017.157.073.317.121.472.143.57.078 1.092-.181 1.551-.776l3.654-4.806c.367-.464.493-.975.376-1.516-.112-.557-.43-.972-.92-1.2a1.911 1.911 0 0 0-.549-.164 1.801 1.801 0 0 0-.746.054zm-5.644-3.4c-.532.194-.937.58-1.201 1.148l-2.564 5.507c-.264.566-.335 1.068-.212 1.494.129.442.458.79.978 1.032.184.086.369.142.551.167.268.037.534.008.798-.088.408-.16.76-.486 1.048-.97l3.077-5.15c.338-.589.431-1.179.278-1.747-.152-.6-.523-1.042-1.104-1.312a2.289 2.289 0 0 0-.655-.198 1.984 1.984 0 0 0-.994.117zm-6.599-2.026c-.493.26-.804.686-.922 1.259l-1.329 5.9c-.255 1.178.305 1.712.819 1.952.161.075.323.124.482.146.292.04.577-.009.838-.142.424-.201.723-.576.891-1.117l1.728-5.783c.157-.48.129-.938-.076-1.347a1.83 1.83 0 0 0-.925-.934 1.652 1.652 0 0 0-.475-.143 1.647 1.647 0 0 0-1.031.209z"/><path fill="#231769" d="M199.906 28.302a3.822 3.822 0 0 0-.757-1.619 4.051 4.051 0 0 0-1.503-1.174 4.31 4.31 0 0 0-1.219-.37 3.652 3.652 0 0 0-1.363.07c-.869.197-1.587.666-2.202 1.44l-3.496 4.33-.208-.332a3.618 3.618 0 0 0-1.61-1.46 3.873 3.873 0 0 0-2.598-.25l-.353.09-.07-.358a3.83 3.83 0 0 0-.055-.267c-.303-1.18-1.089-2.12-2.214-2.643a4.334 4.334 0 0 0-1.241-.372 4.003 4.003 0 0 0-1.984.23c-.315.118-.622.28-.914.483l-.377.263-.148-.435a3.867 3.867 0 0 0-.175-.438 3.87 3.87 0 0 0-1.903-1.904 3.728 3.728 0 0 0-1.063-.317 3.682 3.682 0 0 0-2.269.437c-1.01.54-1.7 1.469-1.944 2.617l-.451 2.008-1.017 2.181c-.221.476-.436.824-.656 1.064-.288.304-.565.337-.747.31a.768.768 0 0 1-.224-.066c-.209-.097-.394-.277-.566-.55a9.936 9.936 0 0 1-.545-1.089c-.394-.906-.808-1.687-1.23-2.322a7.323 7.323 0 0 0-1.355-1.555 7.263 7.263 0 0 0-1.681-1.077 7.574 7.574 0 0 0-2.152-.66 5.862 5.862 0 0 0-.768-.056c-.932-.01-1.768.188-2.488.59-.709.394-1.251.986-1.611 1.76a2.553 2.553 0 0 0-.172 1.774c.151.598.495 1.098 1.051 1.531a15.06 15.06 0 0 1 2.209 2.122c.67.788 1.232 1.626 1.671 2.49.424.824.773 1.687 1.036 2.563.264.855.491 1.767.674 2.708.18.926.405 1.902.669 2.901.26.994.628 2.013 1.091 3.032a15.558 15.558 0 0 0 1.798 3.01c.73.98 1.662 1.928 2.771 2.819 1.101.886 2.463 1.71 4.052 2.45 1.449.675 2.886 1.114 4.271 1.305 1.064.147 2.123.151 3.151.013 2.346-.313 4.559-1.384 6.579-3.18.093-.085.18-.192.273-.28l.775 2.086c.186.482.51.877.933 1.138a2.334 2.334 0 0 0 2.407.041c.449-.256.79-.652.985-1.147L192 51.705l2.51-1.018a2.24 2.24 0 0 0 1.165-.988c.209-.362.319-.77.319-1.179a2.318 2.318 0 0 0-1.516-2.175l-3.663-1.359c.044-.092.092-.17.136-.263.266-.572.502-1.125.703-1.642.2-.549.412-1.092.633-1.625.228-.55.508-1.12.83-1.694.311-.578.717-1.192 1.205-1.817l4.715-6.067c.434-.55.722-1.14.858-1.756.136-.619.14-1.23.011-1.82zm-15.603 3.425a1.726 1.726 0 0 1 1.091-.804c.238-.07.495-.09.746-.054.185.025.369.08.549.164.49.228.808.642.92 1.2.117.54-.009 1.052-.376 1.516l-3.654 4.806c-.459.595-.981.854-1.551.776a1.635 1.635 0 0 1-.472-.143c-.454-.212-.75-.563-.855-1.017-.116-.444-.022-.914.281-1.389l3.321-5.055zm-5.754-3.056c.264-.567.669-.954 1.201-1.148.32-.124.656-.163.994-.117.217.03.438.097.655.198.581.27.952.711 1.104 1.311.153.57.06 1.159-.277 1.747l-3.078 5.151c-.288.484-.64.81-1.048.97-.264.096-.53.125-.798.088a1.91 1.91 0 0 1-.551-.167c-.52-.242-.849-.59-.978-1.032-.123-.426-.052-.928.212-1.494l2.564-5.507zm-7.649 3.984 1.329-5.9c.118-.572.429-.998.922-1.258a1.646 1.646 0 0 1 1.031-.209 1.832 1.832 0 0 1 1.4 1.077c.205.41.233.867.076 1.347l-1.728 5.783c-.168.54-.467.915-.891 1.116a1.399 1.399 0 0 1-.838.143 1.684 1.684 0 0 1-.482-.146c-.514-.24-1.074-.774-.819-1.953zm26.394-1.93-4.628 5.881c-.613.77-1.103 1.488-1.459 2.136-.35.638-.634 1.248-.844 1.813a35.53 35.53 0 0 0-.609 1.658 15.85 15.85 0 0 1-.653 1.629c-.07.15-.147.28-.218.427l-2.057-.763a2.255 2.255 0 0 0-1.476-.101 2.378 2.378 0 0 0-1.046.608c-.29.291-.5.655-.603 1.039a2.18 2.18 0 0 0 .072 1.411l1.298 3.498c-.175.182-.344.386-.523.555-1.718 1.605-3.614 2.573-5.634 2.876a9.802 9.802 0 0 1-2.803.01c-1.168-.16-2.379-.53-3.601-1.1-1.379-.64-2.571-1.35-3.543-2.11-.973-.762-1.798-1.58-2.452-2.43a12.659 12.659 0 0 1-1.605-2.626 18.972 18.972 0 0 1-1.018-2.754 50.143 50.143 0 0 1-.683-2.803 35.255 35.255 0 0 0-.834-3.24c-.316-1.015-.686-1.918-1.1-2.682a14.327 14.327 0 0 0-1.286-1.984 15.555 15.555 0 0 0-1.49-1.679 13.516 13.516 0 0 0-1.427-1.247c-.58-.484-.47-.97-.354-1.217.268-.576.805-.913 1.594-1 .296-.041.614-.04.94.004.445.061.915.207 1.398.432.631.294 1.159.651 1.568 1.06.406.408.758.88 1.046 1.401.27.485.556 1.046.848 1.663.159.34.358.709.59 1.096.227.36.498.71.803 1.035.289.307.631.554 1.017.734.263.122.531.203.796.239.197.027.398.031.598.01.175-.017.359-.07.564-.159l.362-.158.108.38c.281.979.942 1.734 1.911 2.186.346.162.705.268 1.066.318a3.379 3.379 0 0 0 1.653-.18l.296-.108.136.284c.362.762 1.013 1.378 1.881 1.783.371.172.753.287 1.135.34.468.064.938.037 1.398-.08l.305-.078.105.296c.32.894.962 1.587 1.86 2.005.35.162.71.27 1.069.32 1.278.176 2.53-.395 3.435-1.569l1.062-1.395 8.251-10.39c.289-.379.642-.626 1.045-.727a1.57 1.57 0 0 1 .672-.048c.189.026.384.085.578.175.644.3 1.027.804 1.105 1.456.083.614-.126 1.245-.619 1.87z"/><path fill="#fff" d="M189.279 53.562a.449.449 0 0 1-.195.24.508.508 0 0 1-.54-.006.48.48 0 0 1-.195-.246l-2.867-7.721a.437.437 0 0 1-.025-.29.527.527 0 0 1 .377-.377.437.437 0 0 1 .289.026l7.721 2.866a.504.504 0 0 1 .251.736.444.444 0 0 1-.238.195l-3.257 1.32-1.321 3.257z"/></g><defs><clipPath id="a"><path fill="#fff" d="M0 0h200v55.699H0z"/></clipPath></defs></svg>