<svg xmlns="http://www.w3.org/2000/svg" width="1080" height="1080" fill="none"><g clip-path="url(#a)"><path fill="#F1FDFB" d="M0 0h1080v1080H0z"/><path fill="#09C0D7" d="M270 0H0v270h270V0z"/><path fill="#FFCC40" d="M0 0h270v135c0 74.508-60.492 135-135 135C60.492 270 0 209.508 0 135V0z"/><path fill="#09C0D7" d="M405 135 270 270h270L405 135z"/><path fill="#FF9066" d="m405 135 135 135V0L405 135z"/><path fill="#09C0D7" d="M405 135 540 0H270l135 135z"/><path fill="#FF9066" d="M405 135 270 0v270l135-135z"/><path fill="#FFCC40" d="M270 540H0v270h270V540z"/><path fill="#09C0D7" d="M0 540h270v135c0 74.508-60.492 135-135 135C60.492 810 0 749.508 0 675V540z"/><path fill="#FFCC40" d="M405 675 270 810h270L405 675z"/><path fill="#F1FDFB" d="m405 675 135 135V540L405 675z"/><path fill="#FFCC40" d="m405 675 135-135H270l135 135z"/><path fill="#F1FDFB" d="M405 675 270 540v270l135-135z"/><path fill="#4424A7" d="M1080 270H810c0-74.559 60.442-135 135-135-74.558 0-135-60.441-135-135h270c0 74.558-60.44 135-135 135 74.56 0 135 60.441 135 135z"/><path fill="#FF9066" d="M675 270c-74.558 0-135-60.442-135-135V0c74.559 0 135 60.442 135 135C675 60.442 735.442 0 810 0v135c0 74.558-60.441 135-135 135z"/><path fill="#FFCC40" d="M1080 810H810c0-74.559 60.442-135 135-135-74.558 0-135-60.441-135-135h270c0 74.558-60.44 135-135 135 74.56 0 135 60.441 135 135z"/><path fill="#4424A7" d="M675 810c-74.558 0-135-60.442-135-135V540c74.559 0 135 60.442 135 135 0-74.558 60.442-135 135-135v135c0 74.558-60.441 135-135 135z"/><path fill="#FFCC40" d="M135.077 303.77c9.325 0 16.885-7.56 16.885-16.885 0-9.325-7.56-16.885-16.885-16.885-9.325 0-16.885 7.56-16.885 16.885 0 9.325 7.56 16.885 16.885 16.885zm-33.768 33.769c9.325 0 16.884-7.559 16.884-16.884 0-9.326-7.559-16.885-16.884-16.885-9.326 0-16.885 7.559-16.885 16.885 0 9.325 7.56 16.884 16.885 16.884zm67.539 0c9.325 0 16.884-7.559 16.884-16.885 0-9.325-7.559-16.884-16.884-16.884s-16.885 7.559-16.885 16.884c0 9.326 7.56 16.885 16.885 16.885z"/><path fill="#FF9066" d="M135.079 540.157C60.477 540.157 0 479.68 0 405.078v-67.539c74.602 0 135.078 60.477 135.078 135.078 0-74.601 60.477-135.078 135.079-135.078v67.539c0 74.602-60.477 135.079-135.078 135.079z"/><path fill="#4424A7" d="M504.25 369.644c27.031-27.03 38.58-63.659 34.705-98.914-35.255-3.875-71.884 7.674-98.914 34.705-27.03 27.03-38.58 63.659-34.704 98.914 35.254 3.875 71.883-7.674 98.913-34.705z"/><path fill="#4424A7" d="M440.041 504.723c27.03 27.03 63.659 38.579 98.914 34.704 3.875-35.254-7.674-71.883-34.705-98.914-27.03-27.03-63.659-38.579-98.913-34.704-3.876 35.255 7.673 71.883 34.704 98.914z"/><path fill="#4424A7" d="M304.962 440.513c-27.031 27.031-38.58 63.66-34.705 98.914 35.255 3.875 71.884-7.674 98.914-34.704 27.031-27.031 38.58-63.659 34.705-98.914-35.255-3.875-71.884 7.674-98.914 34.704z"/><path fill="#4424A7" d="M369.171 305.435c-27.03-27.031-63.659-38.58-98.914-34.705-3.875 35.255 7.674 71.884 34.705 98.914 27.03 27.031 63.659 38.58 98.914 34.705 3.875-35.255-7.674-71.884-34.705-98.914z"/><path fill="#FFCC40" d="M135.077 843.77c9.325 0 16.885-7.56 16.885-16.885 0-9.325-7.56-16.885-16.885-16.885-9.325 0-16.885 7.56-16.885 16.885 0 9.325 7.56 16.885 16.885 16.885zm-33.768 33.769c9.325 0 16.884-7.559 16.884-16.885 0-9.325-7.559-16.884-16.884-16.884-9.326 0-16.885 7.559-16.885 16.884 0 9.326 7.56 16.885 16.885 16.885zm67.539 0c9.325 0 16.884-7.559 16.884-16.885 0-9.325-7.559-16.884-16.884-16.884s-16.885 7.559-16.885 16.884c0 9.326 7.56 16.885 16.885 16.885z"/><path fill="#4424A7" d="M135.079 1080.16C60.477 1080.16 0 1019.68 0 945.078v-67.539c74.602 0 135.078 60.477 135.078 135.081 0-74.604 60.477-135.081 135.079-135.081v67.539c0 74.602-60.477 135.082-135.078 135.082z"/><path fill="#FF9066" d="M504.25 909.644c27.031-27.03 38.58-63.659 34.705-98.914-35.255-3.875-71.884 7.674-98.914 34.705-27.03 27.03-38.58 63.659-34.704 98.914 35.254 3.875 71.883-7.674 98.913-34.705z"/><path fill="#FF9066" d="M440.041 1044.72c27.03 27.03 63.659 38.58 98.914 34.71 3.875-35.26-7.674-71.89-34.705-98.917-27.03-27.03-63.659-38.579-98.913-34.704-3.876 35.255 7.673 71.881 34.704 98.911z"/><path fill="#FF9066" d="M304.962 980.513c-27.031 27.027-38.58 63.657-34.705 98.917 35.255 3.87 71.884-7.68 98.914-34.71 27.031-27.03 38.58-63.656 34.705-98.911-35.255-3.875-71.884 7.674-98.914 34.704z"/><path fill="#FF9066" d="M369.171 845.435c-27.03-27.031-63.659-38.58-98.914-34.705-3.875 35.255 7.674 71.884 34.705 98.914 27.03 27.031 63.659 38.58 98.914 34.705 3.875-35.255-7.674-71.884-34.705-98.914zM809.842 270H539.685v270.157h270.157V270z"/><path fill="#FFCC40" d="M539.685 270h270.157v135.079c0 74.552-60.527 135.078-135.079 135.078s-135.078-60.526-135.078-135.078V270z"/><path fill="#09C0D7" d="M944.92 405.079 809.842 540.157H1080L944.92 405.079z"/><path fill="#FF9066" d="M944.921 405.079 1080 540.157V270L944.921 405.079z"/><path fill="#09C0D7" d="M944.92 405.079 1080 270H809.842L944.92 405.079z"/><path fill="#FF9066" d="M944.92 405.079 809.842 270v270.157L944.92 405.079z"/><path fill="#F1FDFB" d="M809.842 810H539.685v270.16h270.157V810z"/><path fill="#09C0D7" d="M539.685 810h270.157v135.079c0 74.551-60.527 135.081-135.079 135.081s-135.078-60.53-135.078-135.081V810zM944.92 945.079 809.842 1080.16H1080L944.92 945.079z"/><path fill="#FFCC40" d="M944.921 945.079 1080 1080.16V810L944.921 945.079z"/><path fill="#09C0D7" d="M944.92 945.079 1080 810H809.842L944.92 945.079z"/><path fill="#FFCC40" d="M944.92 945.079 809.842 810v270.16L944.92 945.079z"/></g><defs><clipPath id="a"><path fill="#fff" d="M0 0h1080v1080H0z"/></clipPath></defs></svg>