<svg xmlns="http://www.w3.org/2000/svg" xmlns:xlink="http://www.w3.org/1999/xlink" viewBox="0 0 605 605">
  <g>
    <path d="M 0 0 L 605 0 L 605 605 L 0 605 Z" fill="transparent"></path>
    <path d="M 0 0 L 605 0 L 605 605 L 0 605 Z" fill="rgb(241,253,251)"></path>
    <path d="M 151.25 151.25 L 0 151.25 C 0 109.483 33.858 75.625 75.625 75.625 C 33.858 75.625 0 41.766 0 0 L 151.25 0 C 151.25 41.766 117.391 75.625 75.625 75.625 C 117.391 75.625 151.25 109.483 151.25 151.25 Z" fill="rgb(68,36,167)"></path>
    <path d="M 302.499 0 L 151.25 0 L 151.25 151.25 L 302.499 151.25 Z" fill="rgb(255,204,64)"></path>
    <path d="M 151.25 0 L 302.499 0 L 302.499 75.625 C 302.499 117.363 268.613 151.25 226.874 151.25 C 185.136 151.25 151.25 117.363 151.25 75.625 Z M 378.124 75.625 L 302.5 151.25 L 453.749 151.25 Z" fill="rgb(9,192,215)"></path>
    <path d="M 378.125 75.625 L 453.75 151.25 L 453.75 0 Z" fill="rgb(255,144,102)"></path>
    <path d="M 378.124 75.625 L 453.749 0 L 302.5 0 Z" fill="rgb(9,192,215)"></path>
    <path d="M 378.124 75.625 L 302.5 0 L 302.5 151.25 Z" fill="rgb(255,144,102)"></path>
    <path d="M 605 0 L 453.75 0 L 453.75 151.25 L 605 151.25 Z" fill="rgb(241,253,251)"></path>
    <path d="M 453.75 0 L 605 0 L 605 75.625 C 605 117.391 571.141 151.25 529.375 151.25 C 487.608 151.25 453.75 117.391 453.75 75.625 Z" fill="rgb(255,144,102)"></path>
    <path d="M 0 302.5 L 0 151.25 L 151.25 151.25 L 151.25 302.5 Z" fill="rgb(255,204,64)"></path>
    <path d="M 0 151.25 L 0 302.5 L 75.625 302.5 C 117.391 302.5 151.25 268.641 151.25 226.875 C 151.25 185.108 117.391 151.25 75.625 151.25 Z" fill="rgb(9,192,215)"></path>
    <path d="M 151.25 302.5 L 151.25 151.25 L 302.5 151.25 L 302.5 302.5 Z" fill="rgb(255,204,64)"></path>
    <path d="M 151.25 302.5 L 302.499 302.5 L 302.499 226.875 C 302.499 185.108 268.641 151.25 226.874 151.25 C 185.108 151.25 151.25 185.108 151.25 226.875 Z" fill="rgb(68,36,167)"></path>
    <path d="M 151.25 453.75 L 151.25 302.5 L 302.5 302.5 L 302.5 453.75 Z" fill="rgb(255,204,64)"></path>
    <path d="M 151.25 302.5 L 151.25 453.75 L 226.875 453.75 C 268.641 453.75 302.499 419.891 302.499 378.125 C 302.499 336.358 268.641 302.5 226.874 302.5 Z" fill="rgb(9,192,215)"></path>
    <path d="M 0 453.75 L 0 302.5 L 151.25 302.5 L 151.25 453.75 Z" fill="rgb(241,253,251)"></path>
    <path d="M 0 302.5 L 0 453.75 L 75.625 453.75 C 117.391 453.75 151.25 419.891 151.25 378.125 C 151.25 336.358 117.391 302.5 75.625 302.5 Z" fill="rgb(255,144,102)"></path>
    <path d="M 0 605 L 0 453.75 L 151.338 453.75 L 151.338 605 Z" fill="rgb(255,204,64)"></path>
    <path d="M 0 453.75 L 0 605 L 75.669 605 C 117.46 605 151.338 571.122 151.338 529.331 C 151.338 487.54 117.46 453.662 75.669 453.662 Z" fill="rgb(9,192,215)"></path>
    <path d="M 302.5 453.75 L 302.5 302.5 L 453.75 302.5 L 453.75 453.75 Z" fill="rgb(9,192,215)"></path>
    <path d="M 302.5 302.5 L 302.5 453.75 L 378.125 453.75 C 419.891 453.75 453.75 419.891 453.75 378.125 C 453.75 336.358 419.891 302.5 378.125 302.5 Z M 226.874 453.75 C 268.641 453.75 302.499 419.891 302.499 378.125 C 302.499 336.358 268.641 302.5 226.874 302.5 L 302.499 302.5 L 302.499 378.125 C 302.499 419.891 268.641 453.75 226.874 453.75 Z" fill="rgb(68,36,167)"></path>
    <path d="M 529.374 378.125 L 453.75 453.749 L 605 453.749 Z" fill="rgb(255,204,64)"></path>
    <path d="M 529.375 378.125 L 605 453.75 L 605 302.5 Z" fill="rgb(241,253,251)"></path>
    <path d="M 529.374 378.125 L 605 302.5 L 453.75 302.5 Z" fill="rgb(255,204,64)"></path>
    <path d="M 529.374 378.125 L 453.75 302.5 L 453.75 453.75 Z" fill="rgb(241,253,251)"></path>
    <path d="M 75.669 226.919 L 0 302.588 L 151.338 302.588 Z" fill="rgb(255,204,64)"></path>
    <path d="M 75.67 226.919 L 151.339 302.588 L 151.339 151.25 Z" fill="rgb(9,192,215)"></path>
    <path d="M 75.669 226.919 L 151.338 151.25 L 0 151.25 Z" fill="rgb(255,204,64)"></path>
    <path d="M 75.669 226.919 L 0 151.25 L 0 302.588 Z" fill="rgb(9,192,215)"></path>
    <path d="M 227.007 170.167 C 232.23 170.167 236.465 165.932 236.465 160.709 C 236.465 155.485 232.23 151.25 227.007 151.25 C 221.783 151.25 217.548 155.485 217.548 160.709 C 217.548 165.932 221.783 170.167 227.007 170.167 Z" fill="rgb(255,204,64)"></path>
    <path d="M 252.132 178.084 C 256.308 178.084 259.694 174.699 259.694 170.522 C 259.694 166.346 256.308 162.96 252.132 162.96 C 247.955 162.96 244.57 166.346 244.57 170.522 C 244.57 174.699 247.955 178.084 252.132 178.084 Z" fill="rgb(255,204,64)"></path>
    <path d="M 270.339 190.376 C 274.516 190.376 277.901 186.99 277.901 182.814 C 277.901 178.637 274.516 175.252 270.339 175.252 C 266.163 175.252 262.777 178.637 262.777 182.814 C 262.777 186.99 266.163 190.376 270.339 190.376 Z" fill="rgb(255,204,64)"></path>
    <path d="M 397.843 171.1 C 412.985 155.958 433.504 149.488 453.253 151.659 C 455.424 171.408 448.954 191.927 433.812 207.069 C 418.67 222.211 398.151 228.681 378.402 226.51 C 376.232 206.761 382.701 186.242 397.843 171.1 Z" fill="rgb(68,36,167)"></path>
    <path d="M 397.843 282.738 C 412.985 297.88 433.504 304.35 453.253 302.179 C 455.424 282.43 448.954 261.911 433.812 246.769 C 418.67 231.627 398.151 225.157 378.402 227.328 C 376.232 247.078 382.701 267.596 397.843 282.738 Z" fill="rgb(68,36,167)"></path>
    <path d="M 322.174 246.769 C 307.032 261.911 300.562 282.43 302.733 302.179 C 322.482 304.35 343.001 297.88 358.143 282.738 C 373.285 267.596 379.755 247.078 377.584 227.328 C 357.835 225.157 337.316 231.627 322.174 246.769 Z" fill="rgb(68,36,167)"></path>
    <path d="M 358.143 171.1 C 343.001 155.958 322.482 149.488 302.733 151.659 C 300.562 171.408 307.032 191.927 322.174 207.069 C 337.316 222.211 357.835 228.681 377.584 226.51 C 379.755 206.761 373.285 186.242 358.143 171.1 Z" fill="rgb(68,36,167)"></path>
    <path d="M 605 151.25 L 453.662 151.25 L 453.662 302.588 L 605 302.588 Z" fill="rgb(9,192,215)"></path>
    <path d="M 453.662 151.25 L 605 151.25 L 605 226.919 C 605 268.682 571.094 302.588 529.331 302.588 C 487.568 302.588 453.662 268.682 453.662 226.919 Z" fill="rgb(68,36,167)"></path>
    <path d="M 605 453.75 L 453.75 453.75 L 453.75 605 L 605 605 Z" fill="rgb(255,144,102)"></path>
    <path d="M 453.75 453.75 L 605 453.75 L 605 529.375 C 605 571.141 571.141 605 529.375 605 C 487.608 605 453.75 571.141 453.75 529.375 Z" fill="rgb(68,36,167)"></path>
    <path d="M 0 605 L 151.338 605 L 151.338 453.662 L 0 453.662 Z" fill="rgb(241,253,251)"></path>
    <path d="M 151.338 605 L 0 605 L 0 529.331 C 0 487.568 33.906 453.662 75.669 453.662 C 117.432 453.662 151.338 487.568 151.338 529.331 Z M 75.669 605.09 C 117.46 605.09 151.338 571.21 151.338 529.419 C 151.338 487.628 117.46 453.75 75.669 453.75 L 151.338 453.75 L 151.338 529.419 C 151.338 571.21 117.46 605.09 75.669 605.09 Z" fill="rgb(68,36,167)"></path>
    <path d="M 302.676 453.75 L 151.338 453.75 L 151.338 605.09 L 302.676 605.09 Z" fill="rgb(241,253,251)"></path>
    <path d="M 151.338 453.75 L 302.676 453.75 L 302.676 529.419 C 302.676 571.182 268.77 605.09 227.007 605.09 C 185.244 605.09 151.338 571.182 151.338 529.419 Z" fill="rgb(255,144,102)"></path>
    <path d="M 378.345 529.419 L 302.676 605.09 L 454.014 605.09 Z" fill="rgb(9,192,215)"></path>
    <path d="M 378.346 529.419 L 454.014 605.09 L 454.014 453.75 Z" fill="rgb(255,204,64)"></path>
    <path d="M 378.345 529.419 L 454.014 453.75 L 302.676 453.75 Z" fill="rgb(9,192,215)"></path>
    <path d="M 378.345 529.419 L 302.676 453.75 L 302.676 605.09 Z" fill="rgb(255,204,64)"></path>
    <path d="M 585.5 509.569 C 600.647 494.427 607.112 473.908 604.944 454.159 C 585.192 451.988 564.678 458.458 549.533 473.6 C 534.391 488.742 527.922 509.261 530.093 529.01 C 549.841 531.181 570.358 524.711 585.5 509.569 Z" fill="rgb(68,36,167)"></path>
    <path d="M 509.831 585.238 C 524.973 600.38 545.492 606.85 565.241 604.679 C 567.412 584.93 560.942 564.411 545.8 549.269 C 530.658 534.127 510.139 527.657 490.39 529.828 C 488.22 549.577 494.689 570.096 509.831 585.238 Z" fill="rgb(68,36,167)"></path>
    <path d="M 549.533 473.6 C 534.391 458.458 513.872 451.988 494.123 454.159 C 491.952 473.908 498.422 494.427 513.564 509.569 C 528.706 524.711 549.225 531.181 568.974 529.01 C 571.145 509.261 564.675 488.742 549.533 473.6 Z" fill="rgb(68,36,167)"></path>
    <path d="M 545.8 549.269 C 560.942 534.127 567.412 513.608 565.241 493.859 C 545.492 491.688 524.973 498.158 509.831 513.3 C 494.689 528.442 488.22 548.961 490.39 568.71 C 510.139 570.881 530.658 564.411 545.8 549.269 Z" fill="rgb(68,36,167)"></path>
  </g>
</svg>
