<svg width="502" height="160" viewBox="0 0 502 160" fill="none" xmlns="http://www.w3.org/2000/svg">
<path d="M59.7857 0.199348C58.4215 0.364174 54.2654 0.957535 52.9646 1.15533C52.3618 1.25422 51.7273 1.45201 51.5687 1.61684C51.3466 1.84759 51.537 8.17683 52.1715 19.7475C52.2667 21.2968 52.4887 25.6482 52.6474 29.4721C52.8377 33.263 53.1233 39.0648 53.2819 42.3284C53.4722 45.5919 53.8212 52.7782 54.075 58.3163C54.3606 63.8544 54.8365 74.2383 55.1854 81.3917C55.5344 88.545 55.82 94.5116 55.82 94.6435C55.82 94.8083 60.8009 94.9072 66.8605 94.9072H77.9011L78.6308 79.9742C79.0115 71.7989 79.4557 62.5358 79.6143 59.4701C79.773 56.3714 80.2171 47.7016 80.5661 40.1857C80.9151 32.6697 81.4227 22.3517 81.6765 17.2751C81.8986 12.1985 82.1524 6.56155 82.2159 4.78146L82.311 1.48498L81.1054 1.22125C77.5839 0.463066 71.6829 -0.0314102 66.4481 0.0015564C63.3073 0.034523 60.325 0.133415 59.7857 0.199348Z" fill="#C63B1E" style="fill:#C63B1E;fill:color(display-p3 0.7765 0.2314 0.1176);fill-opacity:1;"/>
<path d="M32.4977 20.4453C16.7934 30.2688 5.68936 46.1579 1.565 64.6511C-0.782715 75.2658 -0.465456 88.4517 2.35814 98.7038C8.10052 119.57 22.3771 136.218 41.5395 144.459C44.0142 145.514 50.2007 147.656 50.8035 147.656C50.9621 147.656 51.0256 143.866 50.9938 139.185L50.8987 130.746L49.2172 130.152C42.8086 127.878 35.7654 123.131 30.3721 117.461C23.2972 109.978 18.6018 100.715 16.4444 89.9681C15.4926 85.353 15.4292 75.9251 16.2541 71.1781C17.6183 63.5303 20.7274 55.6188 24.7566 49.6192C27.1043 46.1249 32.2122 40.5538 35.2261 38.1474L37.4152 36.4003L37.2566 34.4224C37.0979 32.5764 36.4634 20.3134 36.4634 18.9949C36.4634 18.1048 35.8923 18.3026 32.4977 20.4453Z" fill="#4A8324" style="fill:#4A8324;fill:color(display-p3 0.2902 0.5137 0.1412);fill-opacity:1;"/>
<path d="M97.2559 20.1486C97.1607 21.1046 96.9386 25.1593 96.7482 29.148L96.3993 36.4003L97.4145 37.2244C110.041 47.2127 117.529 61.9809 118.1 77.9359C118.734 94.6491 111.977 110.373 99.6036 121.12C95.5427 124.647 89.1975 128.438 84.6924 130.053C83.7406 130.383 82.8523 130.811 82.7254 130.976C82.4399 131.438 82.4082 147.656 82.6937 147.656C83.3282 147.656 86.4691 146.635 89.7686 145.382C110.612 137.437 126.38 119.274 131.774 97.0225C136.025 79.5512 133.582 61.1568 124.921 45.5315C119.972 36.598 112.77 28.4557 104.838 22.8517C102.205 21.0057 98.0807 18.4344 97.7317 18.4344C97.5731 18.4344 97.351 19.2256 97.2559 20.1486Z" fill="#4A8324" style="fill:#4A8324;fill:color(display-p3 0.2902 0.5137 0.1412);fill-opacity:1;"/>
<path d="M158.609 80.076V136.446H167.968H177.327L177.39 103.712L177.486 71.0107H200.169H222.853L222.949 103.712L223.012 136.446H232.371H241.73L241.667 102.064L241.572 67.7142L240.715 65.3077C238.526 59.0444 233.799 54.3634 227.454 52.1877C225.836 51.6273 223.9 51.5614 201.534 51.4625L177.327 51.3636V37.5514V23.7061H167.968H158.609V80.076Z" fill="#C63B1E" style="fill:#C63B1E;fill:color(display-p3 0.7765 0.2314 0.1176);fill-opacity:1;"/>
<path d="M253.467 71.2414C253.467 123.458 253.372 120.788 255.403 125.007C257.433 129.292 260.383 132.325 264.413 134.336C268.569 136.413 268.886 136.446 291.792 136.446H312.477V126.721V116.997L292.427 116.931L272.344 116.832L272.249 93.8223L272.185 70.8458H292.331H312.477L312.414 61.1871L312.319 51.5614L292.268 51.4625L272.185 51.3966L272.122 37.6173L272.027 23.871L262.763 23.7721L253.467 23.7061V71.2414Z" fill="#C63B1E" style="fill:#C63B1E;fill:color(display-p3 0.7765 0.2314 0.1176);fill-opacity:1;"/>
<path d="M387.354 37.5497V51.3619L363.179 51.4938C336.529 51.5927 337.989 51.4938 333.547 53.7354C330.533 55.2518 326.631 59.2735 325.108 62.4381C322.856 67.0532 322.919 66.3939 323.014 94.9084L323.109 120.456L323.934 122.797C326.028 128.763 330.692 133.444 336.593 135.554L338.655 136.279L372.38 136.378L406.072 136.477V80.0743V23.7044H396.713H387.354V37.5497ZM387.196 93.9195V116.83H364.512H341.828L341.732 94.2491C341.701 81.8214 341.732 71.4704 341.828 71.2397C341.923 70.91 346.65 70.8441 364.575 70.91L387.196 71.0089V93.9195Z" fill="#C63B1E" style="fill:#C63B1E;fill:color(display-p3 0.7765 0.2314 0.1176);fill-opacity:1;"/>
<path d="M435.164 51.7245C428.883 52.8453 423.521 56.933 420.729 62.8007C418.699 67.0202 418.73 66.229 418.826 94.6447L418.921 120.456L419.651 122.599C421.776 128.697 426.408 133.411 432.404 135.554L434.466 136.279L468.032 136.378L501.567 136.477V126.719V116.995H469.555C440.653 116.995 437.544 116.929 437.354 116.467C437.258 116.171 437.163 105.985 437.163 93.7547C437.163 75.5581 437.227 71.5034 437.576 71.2067C437.893 70.943 446.935 70.8111 469.714 70.7782L501.408 70.6793V61.1195V51.5597L469.048 51.5267C451.249 51.4938 435.989 51.5927 435.164 51.7245Z" fill="#C63B1E" style="fill:#C63B1E;fill:color(display-p3 0.7765 0.2314 0.1176);fill-opacity:1;"/>
<path d="M55.8175 140.535V159.489L57.6576 159.753C60.0053 160.083 73.8378 160.083 76.2172 159.753L78.0256 159.489V140.535V121.613H66.9216H55.8175V140.535Z" fill="#C63B1E" style="fill:#C63B1E;fill:color(display-p3 0.7765 0.2314 0.1176);fill-opacity:1;"/>
</svg>
