<svg width="1081" height="1891" viewBox="0 0 1081 1891" fill="none" xmlns="http://www.w3.org/2000/svg">
<g clip-path="url(#clip0_55_2058)">
<rect width="1081" height="1891" fill="#F1FDFB"/>
<path d="M270 270H0C0 195.441 60.4414 135 135 135C60.4414 135 -7.8737e-07 74.5584 0 0.000120143L270 0C270 74.5583 209.558 135 135 135C209.558 135 270 195.441 270 270Z" fill="#4424A7"/>
<path d="M539.999 0H270V270H539.999V0Z" fill="#FFCC40"/>
<path d="M270 0H539.999V135C539.999 209.508 479.508 270 404.999 270C330.491 270 270 209.508 270 135V0Z" fill="#09C0D7"/>
<path d="M674.999 135L540 270H809.999L674.999 135Z" fill="#09C0D7"/>
<path d="M675 135L810 270V3.05176e-05L675 135Z" fill="#FF9066"/>
<path d="M674.999 135L809.999 3.05176e-05H540L674.999 135Z" fill="#09C0D7"/>
<path d="M674.999 135L540 3.05176e-05V270L674.999 135Z" fill="#FF9066"/>
<path d="M945 270C870.442 270 810 209.558 810 135V0C884.558 -1.57474e-06 945 60.4415 945 135C945 60.4415 1005.44 7.87371e-07 1080 0L1080 135C1080 209.558 1019.56 270 945 270Z" fill="#FF9066"/>
<path d="M810 270H1080V539.999H810V270Z" fill="#09C0D7"/>
<path d="M1080 270H810V405C810 479.508 870.492 539.999 945 539.999C1019.51 539.999 1080 479.508 1080 405V270Z" fill="#F1FDFB"/>
<path d="M270.001 539.999H540C540 465.441 479.559 404.999 405.001 404.999C479.559 404.999 540 344.558 540 270L270.001 270C270.001 344.558 330.443 404.999 405.001 404.999C330.443 404.999 270.001 465.441 270.001 539.999Z" fill="#FFCC40"/>
<path d="M675.001 539.999C749.559 539.999 810 479.558 810 405V270C735.442 270 675.001 330.441 675.001 404.999C675.001 330.441 614.559 270 540.001 270L540.001 405C540.001 479.558 600.442 539.999 675.001 539.999Z" fill="#4424A7"/>
<path d="M135.001 404.999L270 539.999H0.000823975L135.001 404.999Z" fill="#FFCC40"/>
<path d="M135 404.999L0.000167847 539.999V270L135 404.999Z" fill="#F1FDFB"/>
<path d="M135.001 404.999L0.000823975 270H270L135.001 404.999Z" fill="#FFCC40"/>
<path d="M135.001 404.999L270 270V539.999L135.001 404.999Z" fill="#F1FDFB"/>
<path d="M135.079 675.078L0 810.156H270.157L135.079 675.078Z" fill="#FFCC40"/>
<path d="M135.08 675.078L270.158 810.156V539.999L135.08 675.078Z" fill="#09C0D7"/>
<path d="M135.079 675.078L270.157 539.999H0L135.079 675.078Z" fill="#FFCC40"/>
<path d="M135.079 675.078L0 539.999V810.156L135.079 675.078Z" fill="#09C0D7"/>
<path d="M405.235 573.769C414.56 573.769 422.12 566.209 422.12 556.884C422.12 547.559 414.56 539.999 405.235 539.999C395.91 539.999 388.351 547.559 388.351 556.884C388.351 566.209 395.91 573.769 405.235 573.769Z" fill="#FFCC40"/>
<path d="M371.467 607.538C380.792 607.538 388.352 599.979 388.352 590.654C388.352 581.328 380.792 573.769 371.467 573.769C362.141 573.769 354.582 581.328 354.582 590.654C354.582 599.979 362.141 607.538 371.467 607.538Z" fill="#FFCC40"/>
<path d="M439.006 607.538C448.331 607.538 455.891 599.979 455.891 590.654C455.891 581.328 448.331 573.769 439.006 573.769C429.681 573.769 422.121 581.328 422.121 590.654C422.121 599.979 429.681 607.538 439.006 607.538Z" fill="#FFCC40"/>
<path d="M405.237 810.156C330.635 810.156 270.158 749.679 270.158 675.078V607.538C344.76 607.538 405.237 668.015 405.237 742.617C405.237 668.015 465.713 607.538 540.315 607.538V675.078C540.315 749.679 479.839 810.156 405.237 810.156Z" fill="#FF9066"/>
<path d="M774.409 639.643C801.439 612.613 812.988 575.984 809.113 540.73C773.858 536.854 737.229 548.404 710.199 575.434C683.169 602.464 671.62 639.093 675.495 674.348C710.749 678.223 747.378 666.674 774.409 639.643Z" fill="#4424A7"/>
<path d="M710.199 774.722C737.229 801.752 773.859 813.302 809.113 809.426C812.988 774.172 801.439 737.543 774.409 710.513C747.378 683.482 710.749 671.933 675.495 675.808C671.62 711.063 683.169 747.692 710.199 774.722Z" fill="#4424A7"/>
<path d="M575.12 710.513C548.09 737.543 536.54 774.172 540.416 809.426C575.67 813.302 612.299 801.752 639.33 774.722C666.36 747.692 677.909 711.063 674.034 675.808C638.779 671.933 602.15 683.482 575.12 710.513Z" fill="#4424A7"/>
<path d="M639.33 575.434C612.299 548.404 575.67 536.854 540.416 540.73C536.54 575.984 548.09 612.613 575.12 639.643C602.15 666.674 638.779 678.223 674.034 674.348C677.909 639.093 666.36 602.464 639.33 575.434Z" fill="#4424A7"/>
<path d="M1080 539.999H809.843V810.156H1080V539.999Z" fill="#FF9066"/>
<path d="M809.843 539.999H1080V675.078C1080 749.63 1019.47 810.156 944.922 810.156C870.37 810.156 809.843 749.63 809.843 675.078V539.999Z" fill="#FFCC40"/>
<path d="M944.922 945.235L1080 1080.31H809.843L944.922 945.235Z" fill="#FFCC40"/>
<path d="M944.921 945.235L809.842 1080.31V810.157L944.921 945.235Z" fill="#09C0D7"/>
<path d="M944.922 945.235L809.843 810.157H1080L944.922 945.235Z" fill="#FFCC40"/>
<path d="M944.922 945.235L1080 810.157V1080.31L944.922 945.235Z" fill="#09C0D7"/>
<path d="M674.765 843.926C665.44 843.926 657.88 836.367 657.88 827.041C657.88 817.716 665.44 810.156 674.765 810.156C684.09 810.156 691.65 817.716 691.65 827.041C691.65 836.367 684.09 843.926 674.765 843.926Z" fill="#FFCC40"/>
<path d="M708.534 877.696C699.209 877.696 691.649 870.136 691.649 860.811C691.649 851.486 699.209 843.926 708.534 843.926C717.859 843.926 725.418 851.486 725.418 860.811C725.418 870.136 717.859 877.696 708.534 877.696Z" fill="#FFCC40"/>
<path d="M640.994 877.696C631.669 877.696 624.11 870.136 624.11 860.811C624.11 851.486 631.669 843.926 640.994 843.926C650.32 843.926 657.879 851.486 657.879 860.811C657.879 870.136 650.32 877.696 640.994 877.696Z" fill="#FFCC40"/>
<path d="M674.764 1080.31C749.365 1080.31 809.842 1019.84 809.842 945.235V877.696C735.241 877.696 674.764 938.172 674.764 1012.77C674.764 938.172 614.287 877.696 539.686 877.696V945.235C539.686 1019.84 600.162 1080.31 674.764 1080.31Z" fill="#FF9066"/>
<path d="M305.592 909.801C278.561 882.77 267.012 846.142 270.888 810.887C306.142 807.012 342.771 818.561 369.801 845.591C396.832 872.622 408.381 909.251 404.506 944.505C369.251 948.38 332.622 936.831 305.592 909.801Z" fill="#4424A7"/>
<path d="M369.801 1044.88C342.771 1071.91 306.142 1083.46 270.887 1079.58C267.012 1044.33 278.561 1007.7 305.592 980.67C332.622 953.64 369.251 942.09 404.506 945.966C408.381 981.22 396.832 1017.85 369.801 1044.88Z" fill="#4424A7"/>
<path d="M504.881 980.67C531.911 1007.7 543.46 1044.33 539.585 1079.58C504.33 1083.46 467.701 1071.91 440.671 1044.88C413.641 1017.85 402.091 981.22 405.967 945.966C441.221 942.09 477.85 953.64 504.881 980.67Z" fill="#4424A7"/>
<path d="M440.671 845.591C467.701 818.561 504.33 807.012 539.585 810.887C543.46 846.142 531.911 882.77 504.881 909.801C477.85 936.831 441.221 948.38 405.967 944.505C402.091 909.251 413.641 872.622 440.671 845.591Z" fill="#4424A7"/>
<path d="M0.000244141 810.157H270.157V1080.31H0.000244141V810.157Z" fill="#FF9066"/>
<path d="M270.157 810.157H0.000244141V945.235C0.000244141 1019.79 60.5268 1080.31 135.079 1080.31C209.63 1080.31 270.157 1019.79 270.157 945.235V810.157Z" fill="#FFCC40"/>
<path d="M270 1080.31H0V1350.31H270V1080.31Z" fill="#09C0D7"/>
<path d="M0 1080.31H270V1215.31C270 1289.82 209.508 1350.31 135 1350.31C60.4916 1350.31 0 1289.82 0 1215.31V1080.31Z" fill="#F1FDFB"/>
<path d="M809.999 1350.31H540C540 1275.76 600.441 1215.31 674.999 1215.31C600.441 1215.31 540 1154.87 540 1080.31L809.999 1080.31C809.999 1154.87 749.557 1215.31 674.999 1215.31C749.557 1215.31 809.999 1275.76 809.999 1350.31Z" fill="#FFCC40"/>
<path d="M404.999 1350.31C330.441 1350.31 270 1289.87 270 1215.31V1080.31C344.558 1080.31 404.999 1140.76 404.999 1215.31C404.999 1140.76 465.441 1080.31 539.999 1080.31L539.999 1215.31C539.999 1289.87 479.558 1350.31 404.999 1350.31Z" fill="#4424A7"/>
<path d="M944.999 1215.31L810 1350.31H1080L944.999 1215.31Z" fill="#FFCC40"/>
<path d="M945 1215.31L1080 1350.31V1080.31L945 1215.31Z" fill="#F1FDFB"/>
<path d="M944.999 1215.31L1080 1080.31H810L944.999 1215.31Z" fill="#FFCC40"/>
<path d="M944.999 1215.31L810 1080.31V1350.31L944.999 1215.31Z" fill="#F1FDFB"/>
<path d="M810 1620.31H1080C1080 1545.75 1019.56 1485.31 945 1485.31C1019.56 1485.31 1080 1424.87 1080 1350.31L810 1350.31C810 1424.87 870.442 1485.31 945 1485.31C870.442 1485.31 810 1545.75 810 1620.31Z" fill="#4424A7"/>
<path d="M540.001 1350.31H810V1620.31H540.001V1350.31Z" fill="#FFCC40"/>
<path d="M810 1350.31H540.001V1485.31C540.001 1559.82 600.492 1620.31 675.001 1620.31C749.509 1620.31 810 1559.82 810 1485.31V1350.31Z" fill="#09C0D7"/>
<path d="M405.001 1485.31L540 1620.31H270.001L405.001 1485.31Z" fill="#09C0D7"/>
<path d="M405 1485.31L270 1620.31V1350.31L405 1485.31Z" fill="#FF9066"/>
<path d="M405.001 1485.31L270.001 1350.31H540L405.001 1485.31Z" fill="#09C0D7"/>
<path d="M405.001 1485.31L540 1350.31V1620.31L405.001 1485.31Z" fill="#FF9066"/>
<path d="M135 1620.31C209.558 1620.31 270 1559.87 270 1485.31V1350.31C195.442 1350.31 135 1410.75 135 1485.31C135 1410.75 74.5588 1350.31 0.000518799 1350.31L0.000335693 1485.31C0.000335693 1559.87 60.4418 1620.31 135 1620.31Z" fill="#FF9066"/>
<path d="M135.077 1654.08C144.402 1654.08 151.962 1646.52 151.962 1637.2C151.962 1627.87 144.402 1620.31 135.077 1620.31C125.752 1620.31 118.192 1627.87 118.192 1637.2C118.192 1646.52 125.752 1654.08 135.077 1654.08Z" fill="#FFCC40"/>
<path d="M101.309 1687.85C110.634 1687.85 118.193 1680.29 118.193 1670.97C118.193 1661.64 110.634 1654.08 101.309 1654.08C91.9833 1654.08 84.4238 1661.64 84.4238 1670.97C84.4238 1680.29 91.9833 1687.85 101.309 1687.85Z" fill="#FFCC40"/>
<path d="M168.848 1687.85C178.173 1687.85 185.732 1680.29 185.732 1670.97C185.732 1661.64 178.173 1654.08 168.848 1654.08C159.523 1654.08 151.963 1661.64 151.963 1670.97C151.963 1680.29 159.523 1687.85 168.848 1687.85Z" fill="#FFCC40"/>
<path d="M135.079 1890.47C60.4769 1890.47 0 1829.99 0 1755.39V1687.85C74.6017 1687.85 135.078 1748.33 135.078 1822.93C135.078 1748.33 195.555 1687.85 270.157 1687.85V1755.39C270.157 1829.99 209.68 1890.47 135.079 1890.47Z" fill="#4424A7"/>
<path d="M540.314 1620.31H270.157V1890.47H540.314V1620.31Z" fill="#F1FDFB"/>
<path d="M270.157 1620.31H540.314V1755.39C540.314 1829.94 479.787 1890.47 405.235 1890.47C330.684 1890.47 270.157 1829.94 270.157 1755.39V1620.31Z" fill="#FF9066"/>
<path d="M675.393 1755.39L540.314 1890.47H810.471L675.393 1755.39Z" fill="#09C0D7"/>
<path d="M675.394 1755.39L810.472 1890.47V1620.31L675.394 1755.39Z" fill="#FFCC40"/>
<path d="M675.393 1755.39L810.471 1620.31H540.314L675.393 1755.39Z" fill="#09C0D7"/>
<path d="M675.393 1755.39L540.314 1620.31V1890.47L675.393 1755.39Z" fill="#FFCC40"/>
<path d="M1045.19 1719.96C1072.23 1692.93 1083.77 1656.3 1079.9 1621.04C1044.64 1617.17 1008.02 1628.72 980.985 1655.75C953.955 1682.78 942.406 1719.41 946.281 1754.66C981.535 1758.54 1018.16 1746.99 1045.19 1719.96Z" fill="#FF9066"/>
<path d="M980.985 1855.04C1008.02 1882.07 1044.64 1893.62 1079.9 1889.74C1083.77 1854.49 1072.23 1817.86 1045.19 1790.83C1018.16 1763.8 981.535 1752.25 946.281 1756.12C942.406 1791.38 953.955 1828.01 980.985 1855.04Z" fill="#FF9066"/>
<path d="M845.906 1790.83C818.876 1817.86 807.327 1854.49 811.202 1889.74C846.456 1893.62 883.085 1882.07 910.116 1855.04C937.146 1828.01 948.695 1791.38 944.82 1756.12C909.565 1752.25 872.937 1763.8 845.906 1790.83Z" fill="#FF9066"/>
<path d="M910.116 1655.75C883.085 1628.72 846.456 1617.17 811.202 1621.04C807.327 1656.3 818.876 1692.93 845.906 1719.96C872.937 1746.99 909.565 1758.54 944.82 1754.66C948.695 1719.41 937.146 1682.78 910.116 1655.75Z" fill="#FF9066"/>
</g>
<defs>
<clipPath id="clip0_55_2058">
<rect width="1081" height="1891" fill="white"/>
</clipPath>
</defs>
</svg>
