<svg xmlns="http://www.w3.org/2000/svg" xmlns:xlink="http://www.w3.org/1999/xlink" viewBox="0 0 594 158"><path d="M 2.619 62.731 C 3.953 50.741 3.862 19.208 2.619 7.221 C 2.132 2.5 0.622 1.936 0 1.133 L 44.097 1.133 C 59.865 1.133 69.323 11.091 69.323 27.139 C 69.323 43.376 59.862 53.337 44.097 53.337 L 32.377 53.337 L 33.086 62.731 C 33.486 67.449 35.086 68.067 35.84 68.819 L 0 68.819 C 0.622 68.064 2.087 67.449 2.619 62.731 Z M 40.012 26.573 C 40.012 12.179 39.568 7.128 32.374 7.128 L 32.374 47.342 C 39.568 47.342 40.012 40.877 40.012 26.573 Z M 73.158 34.975 C 73.158 15.671 87.284 0 111.93 0 C 136.441 0 150.654 15.671 150.654 34.975 C 150.654 54.329 136.441 70 111.93 70 C 87.284 70 73.158 54.329 73.158 34.975 Z M 119.256 35.07 C 119.256 18.737 118.814 5.899 111.753 5.899 C 105.265 5.899 104.515 18.737 104.515 35.07 C 104.515 51.497 105.265 64.101 111.753 64.101 C 118.811 64.101 119.256 51.497 119.256 35.07 Z M 155.516 62.731 C 156.18 57.018 156.447 46.824 156.493 36.485 C 156.538 25.11 156.18 13.501 155.516 7.221 C 154.985 2.5 153.519 1.936 152.897 1.133 L 177.805 1.133 C 194.369 1.133 216.709 -1.085 216.709 17.748 C 216.709 32.616 203.608 34.975 191.441 34.975 C 191.441 36.203 191.84 38.281 201.031 38.281 C 205.785 38.281 212.489 36.818 215.508 45.265 C 217.775 51.59 220.04 61.409 227.101 68.819 L 193.573 68.819 L 185.091 35.448 C 185.182 41.725 184.869 57.728 186.113 63.061 C 187.092 66.979 188.065 68.067 188.69 68.819 L 152.897 68.819 C 153.519 68.064 154.985 67.449 155.516 62.731 Z M 191.843 17.745 C 191.843 11.136 188.957 7.029 185.137 7.029 L 185.182 21.333 C 185.224 24.118 185.224 26.902 185.182 29.216 C 190.065 29.216 191.843 22.652 191.843 17.745 Z M 236.448 62.731 C 237.778 50.741 237.736 19.07 236.448 7.08 C 230.408 6.987 224.854 10.95 220.505 16.567 L 220.505 0.992 L 282.899 0.992 L 282.899 16.567 C 278.544 10.95 272.997 6.987 266.957 7.08 C 265.713 19.07 265.668 50.741 266.912 62.731 C 267.489 67.449 268.954 68.067 269.666 68.819 L 233.829 68.819 C 234.45 68.064 235.913 67.449 236.448 62.731 Z M 289.089 62.731 C 290.423 50.741 290.333 19.208 289.089 7.221 C 288.6 2.5 287.092 1.936 286.47 1.133 L 341.758 1.133 L 341.758 16.708 C 337.403 11.091 325.594 7.128 319.554 7.221 C 319.199 10.62 318.932 16.615 318.755 22.184 C 326.392 21.618 331.766 19.681 333.763 17.179 L 333.763 33.797 C 331.766 31.249 326.305 29.216 318.668 28.746 C 318.487 40.028 318.755 55.177 319.554 62.731 C 320.13 67.449 321.554 68.067 322.308 68.819 L 286.47 68.819 C 287.092 68.064 288.558 67.449 289.089 62.731 Z M 341.995 34.975 C 341.995 15.671 356.118 0 380.764 0 C 405.278 0 419.488 15.671 419.488 34.975 C 419.488 54.329 405.278 70 380.764 70 C 356.118 70 341.995 54.329 341.995 34.975 Z M 388.09 35.07 C 388.09 18.737 387.648 5.899 380.587 5.899 C 374.103 5.899 373.349 18.737 373.349 35.07 C 373.349 51.497 374.103 64.101 380.587 64.101 C 387.645 64.101 388.09 51.497 388.09 35.07 Z M 424.35 62.731 C 425.684 50.741 425.639 19.208 424.35 7.221 C 423.819 2.5 422.353 1.936 421.731 1.133 L 457.569 1.133 C 456.815 1.936 455.394 2.5 454.815 7.221 C 453.571 19.211 453.661 50.6 454.905 62.59 C 460.942 62.683 471.244 58.858 475.599 53.244 L 475.599 68.819 L 421.731 68.819 C 422.353 68.064 423.819 67.449 424.35 62.731 Z M 480.455 62.731 C 481.789 50.741 481.699 19.208 480.455 7.221 C 479.966 2.5 478.458 1.936 477.836 1.133 L 513.673 1.133 C 512.917 1.936 511.496 2.5 510.919 7.221 C 509.676 19.211 509.676 50.741 510.919 62.731 C 511.496 67.449 512.917 68.067 513.673 68.819 L 477.836 68.819 C 478.458 68.064 479.924 67.449 480.455 62.731 Z M 515.902 34.975 C 515.902 15.671 530.024 0 554.671 0 C 579.185 0 593.394 15.671 593.394 34.975 C 593.394 54.329 579.185 70 554.671 70 C 530.024 70 515.902 54.329 515.902 34.975 Z M 561.999 35.07 C 561.999 18.737 561.555 5.899 554.494 5.899 C 548.009 5.899 547.255 18.737 547.255 35.07 C 547.255 51.497 548.009 64.101 554.494 64.101 C 561.555 64.101 561.999 51.497 561.999 35.07 Z M 55.654 146.497 C 56.32 140.791 56.587 130.611 56.632 120.286 C 56.677 108.926 56.32 97.332 55.654 91.06 C 55.123 86.346 53.659 85.783 53.038 84.981 L 77.919 84.981 C 94.461 84.981 116.768 82.765 116.768 101.574 C 116.768 116.421 103.688 118.777 91.534 118.777 C 91.534 120.005 91.933 122.079 101.114 122.079 C 105.859 122.079 112.557 120.618 115.572 129.054 C 117.833 135.37 120.095 145.177 127.15 152.577 L 93.66 152.577 L 85.19 119.25 C 85.28 125.519 84.968 141.501 86.21 146.826 C 87.184 150.739 88.159 151.825 88.78 152.577 L 53.038 152.577 C 53.659 151.822 55.123 151.209 55.654 146.497 Z M 91.933 101.571 C 91.933 94.97 89.053 90.869 85.238 90.869 L 85.28 105.154 C 85.325 107.935 85.325 110.716 85.28 113.027 C 90.16 113.027 91.933 106.471 91.933 101.571 Z M 129.297 152.2 C 129.963 151.493 131.115 150.454 131.559 146.497 C 132.225 140.51 132.534 129.62 132.534 118.777 C 132.534 108.219 132.225 97.095 131.559 91.108 C 131.115 87.196 130.14 86.019 129.339 85.406 C 129.184 85.287 129.05 85.143 128.943 84.981 L 184.158 84.981 L 184.158 100.442 C 178.171 93.371 170.588 91.06 161.983 91.06 C 161.629 94.455 161.362 99.499 161.185 105.061 C 168.812 104.495 174.178 102.561 176.176 100.065 L 176.176 116.658 C 174.178 114.113 168.725 112.084 161.098 111.614 C 161.098 123.824 161.185 138.953 161.983 146.497 C 168.012 146.497 179.191 141.498 184.158 137.115 L 184.158 152.577 L 128.943 152.577 Z M 187.322 84.981 L 224.621 84.981 C 223.865 85.783 222.092 86.819 223.334 91.581 C 225.908 101.43 236.328 126.132 238.415 142.537 C 246.928 116.751 231.229 85.78 230.521 84.981 L 265.465 84.981 C 258.416 92.946 241.829 144.234 243.515 152.577 L 209.275 152.577 C 210.961 144.234 194.374 92.946 187.322 84.981 Z M 269.082 146.497 C 270.414 134.523 270.324 103.031 269.082 91.06 C 268.593 86.346 267.087 85.783 266.467 84.981 L 302.256 84.981 C 301.501 85.783 300.082 86.346 299.506 91.06 C 298.264 103.034 298.264 134.523 299.506 146.497 C 300.082 151.209 301.501 151.825 302.256 152.577 L 266.467 152.577 C 267.087 151.822 268.548 151.209 269.082 146.497 Z M 306.168 152.2 C 306.834 151.493 307.985 150.454 308.429 146.497 C 309.095 140.51 309.404 129.62 309.404 118.777 C 309.404 108.219 309.095 97.095 308.429 91.108 C 307.985 87.196 307.011 86.019 306.21 85.406 C 306.055 85.287 305.921 85.143 305.814 84.981 L 361.028 84.981 L 361.028 100.442 C 355.041 93.371 347.459 91.06 338.853 91.06 C 338.499 94.455 338.232 99.499 338.055 105.061 C 345.683 104.495 351.049 102.561 353.044 100.065 L 353.044 116.658 C 351.049 114.113 345.593 112.084 337.968 111.614 C 337.968 123.824 338.055 138.953 338.853 146.497 C 344.882 146.497 356.061 141.498 361.028 137.115 L 361.028 152.577 L 305.814 152.577 Z M 368.716 93.889 C 367.297 89.27 364.904 85.783 364.196 84.981 L 399.986 84.981 C 399.23 85.783 397.634 86.819 398.876 91.581 C 401.449 101.43 409.521 126.132 411.603 142.537 C 418.255 108.267 404.242 85.78 403.534 84.981 L 441.141 84.981 C 440.389 85.783 438.745 86.819 440.032 91.581 C 442.56 101.43 450.677 126.132 452.761 142.537 C 459.369 108.267 445.398 85.78 444.645 84.981 L 477.462 84.981 C 470.191 92.71 455.908 143.905 457.639 152.577 L 423.399 152.577 C 424.554 146.919 423.004 137.588 420.475 127.877 C 417.637 139.193 415.862 149.182 416.528 152.577 L 382.289 152.577 C 384.994 139.238 372.531 105.863 368.716 93.889 Z M 488.359 152.436 C 484.37 152.436 480.465 152.765 476.829 153.753 L 476.829 124.812 C 484.988 137.115 502.418 147.251 510.444 147.251 C 513.063 147.251 514.659 146.213 514.659 143.809 C 514.659 134.712 475.986 134.427 475.986 106.71 C 475.986 91.485 485.255 83.849 503.702 83.849 C 510.358 83.849 517.718 84.981 524.728 84.981 C 528.231 84.981 531.645 84.696 534.881 83.849 L 534.881 106.004 C 529.515 95.446 515.814 90.354 507.208 90.354 C 502.817 90.354 499.712 91.674 499.712 94.266 C 499.67 101.996 540.382 99.828 540.382 130.751 C 540.382 144.94 530.757 153.849 514.527 153.849 C 505.612 153.849 496.65 152.436 488.359 152.436 Z" fill="rgb(35,23,105)"></path></svg>
