<svg width="527" height="160" viewBox="0 0 527 160" fill="none" xmlns="http://www.w3.org/2000/svg">
<g clip-path="url(#clip0_137_1283)">
<path d="M0.176267 101.049C0.356555 100.648 0.614109 100.248 0.717131 99.8204C2.2367 93.3029 7.31052 89.0558 13.7494 89.0291C23.6395 89.0024 33.5296 89.0024 43.4197 89.0291C49.7555 89.0558 54.8808 93.196 56.3489 99.393C56.761 101.156 56.864 103.346 56.5292 105.109C52.5371 105.136 48.5192 105.109 44.3468 105.109C44.2953 104.335 44.2696 103.667 44.2181 102.999C44.1666 102.118 44.012 101.957 43.1621 101.877C42.853 101.85 42.544 101.877 42.2091 101.877C33.0917 101.877 23.9485 101.877 14.8311 101.877C14.5736 101.877 14.2902 101.877 14.0327 101.877C13.054 101.931 12.8222 102.118 12.8222 103.133C12.7964 105.456 12.7964 107.807 12.8222 110.131C12.8222 111.039 12.9767 111.173 13.8524 111.226C14.213 111.253 14.5736 111.226 14.9341 111.226C24.2834 111.226 33.6326 111.226 42.9818 111.226C45.9437 111.226 48.6738 111.974 51.1205 113.764C54.752 116.435 56.5807 120.121 56.6837 124.689C56.761 127.493 56.7095 130.271 56.6837 133.076C56.6322 139.967 51.6099 145.683 44.9907 146.405C44.3211 146.485 43.6515 146.538 42.9818 146.538C33.272 146.538 23.5622 146.565 13.8524 146.538C7.98017 146.538 3.1639 143.066 1.15497 137.483C0.94893 136.922 0.845908 136.308 0.66562 135.747C0.511087 135.266 0.305044 134.812 0.124756 134.331C0.124756 133.022 0.124756 131.714 0.124756 130.405C4.32289 130.485 8.52103 130.325 12.8222 130.485C12.8222 131.126 12.8222 131.58 12.8222 132.034C12.8479 133.45 12.9252 133.557 14.2902 133.557C23.8198 133.557 33.3493 133.557 42.8788 133.557C44.1408 133.557 44.2181 133.45 44.2438 132.088C44.2696 130.031 44.2438 127.974 44.2438 125.944C44.2438 124.261 44.2181 124.234 42.5955 124.234C42.1834 124.234 41.7971 124.234 41.385 124.234C32.1645 124.234 22.9698 124.154 13.7494 124.261C7.98017 124.315 2.10792 120.094 0.717131 113.443C0.639865 113.016 0.356555 112.615 0.176267 112.214C0.176267 108.502 0.176267 104.789 0.176267 101.049Z" fill="#C43E1E" style="fill:#C43E1E;fill:color(display-p3 0.7686 0.2431 0.1176);fill-opacity:1;"/>
<path d="M526.385 146.381C525.947 146.435 525.509 146.542 525.071 146.542C521.337 146.542 517.602 146.515 513.868 146.568C513.018 146.568 512.477 146.275 511.936 145.607C507.558 139.997 503.128 134.415 498.698 128.805C498.389 128.405 498.054 128.031 497.642 127.523C497.255 127.951 496.921 128.325 496.637 128.699C492.336 134.201 488.009 139.704 483.734 145.233C483.013 146.168 482.266 146.649 481.03 146.622C477.578 146.515 474.101 146.595 470.65 146.595C470.161 146.595 469.697 146.595 469.156 146.595C468.925 144.779 468.95 143.363 470.109 141.921C476.11 134.468 481.983 126.936 487.906 119.403C488.421 118.762 488.911 118.094 489.503 117.346C489.065 116.785 488.679 116.251 488.241 115.717C482.266 108.425 476.342 101.106 470.29 93.8939C469.079 92.4515 468.873 91.0091 469.105 89.166C469.491 89.1393 469.877 89.0592 470.264 89.0592C474.05 89.0592 477.81 89.0859 481.596 89.0325C482.395 89.0325 482.91 89.3263 483.425 89.9407C487.726 95.2562 492.079 100.545 496.406 105.861C496.766 106.315 497.178 106.769 497.616 107.276C498.002 106.849 498.311 106.502 498.595 106.154C503.076 100.732 507.558 95.3096 511.988 89.8872C512.477 89.2996 512.966 89.0325 513.713 89.0592C517.937 89.0859 522.161 89.0592 526.385 89.0592C526.385 90.0742 526.385 91.1159 526.385 92.131C519.508 100.492 512.657 108.879 505.729 117.293C506.09 117.774 506.399 118.201 506.708 118.575C511.163 124.184 515.619 129.82 520.075 135.43C522.213 138.128 524.299 140.879 526.411 143.603C526.385 144.538 526.385 145.446 526.385 146.381Z" fill="#C43E1E" style="fill:#C43E1E;fill:color(display-p3 0.7686 0.2431 0.1176);fill-opacity:1;"/>
<path d="M377.185 140.424C377.185 124.051 377.185 107.73 377.185 91.3827C377.674 91.1156 378.164 90.8218 378.627 90.5814C390.243 84.5447 401.859 78.5613 413.474 72.4979C414.505 71.9637 415.303 71.937 416.333 72.4979C427.923 78.5613 439.565 84.5714 451.18 90.5814C451.67 90.8218 452.133 91.0889 452.648 91.3827C452.648 107.703 452.648 124.024 452.648 140.424C452.288 140.638 451.902 140.879 451.515 141.066C439.694 147.209 427.872 153.326 416.076 159.47C415.2 159.924 414.556 159.87 413.706 159.443C401.988 153.326 390.243 147.236 378.499 141.146C378.035 140.905 377.623 140.665 377.185 140.424ZM388.775 115.85C388.775 121.032 388.801 126.214 388.749 131.369C388.724 132.518 389.11 133.106 390.089 133.613C397.944 137.647 405.799 141.707 413.603 145.82C414.556 146.328 415.277 146.301 416.23 145.82C424.008 141.733 431.812 137.7 439.642 133.693C440.672 133.159 441.059 132.571 441.059 131.369C441.007 121.059 441.007 110.748 441.059 100.438C441.059 99.3159 440.724 98.7016 439.719 98.1941C431.864 94.1607 424.008 90.1006 416.205 85.9871C415.252 85.4795 414.505 85.533 413.578 86.0138C405.722 90.1273 397.841 94.2141 389.934 98.2742C389.033 98.7283 388.749 99.3159 388.775 100.331C388.801 105.486 388.775 110.668 388.775 115.85Z" fill="#C43E1E" style="fill:#C43E1E;fill:color(display-p3 0.7686 0.2431 0.1176);fill-opacity:1;"/>
<path d="M76.1852 111.23C90.8143 111.23 105.315 111.23 119.866 111.23C119.918 110.696 119.969 110.348 119.995 109.974C119.995 107.837 120.021 105.674 119.995 103.537C119.995 102.068 119.841 101.908 118.45 101.908C116.235 101.881 114.046 101.908 111.831 101.908C100.498 101.908 89.1659 101.908 77.8335 101.908C77.3184 101.908 76.7776 101.908 76.1594 101.908C76.1594 97.5804 76.1594 93.4134 76.1594 89.1396C76.52 89.0862 76.8291 89.0328 77.1124 89.0328C91.1491 89.0328 105.186 88.9794 119.197 89.0328C125.764 89.0595 130.993 93.7072 132.178 100.385C132.332 101.213 132.358 102.041 132.358 102.896C132.358 116.946 132.358 130.969 132.358 145.019C132.358 145.474 132.332 145.928 132.306 146.489C131.765 146.515 131.328 146.569 130.89 146.569C117.136 146.569 103.357 146.569 89.6038 146.569C82.521 146.569 77.679 141.574 76.4427 136.071C76.2367 135.136 76.0822 134.148 76.0822 133.16C76.0564 126.268 76.0564 119.35 76.0564 112.458C76.0822 112.138 76.1337 111.817 76.1852 111.23ZM119.892 124.372C109.384 124.372 99.0818 124.372 88.7023 124.372C88.6508 124.826 88.5993 125.173 88.5993 125.52C88.5993 127.711 88.5993 129.901 88.5993 132.091C88.5993 133.534 88.6508 133.614 90.0416 133.614C99.6226 133.614 109.178 133.614 118.759 133.614C119.145 133.614 119.532 133.534 119.918 133.48C119.892 130.382 119.892 127.417 119.892 124.372Z" fill="#C43E1E" style="fill:#C43E1E;fill:color(display-p3 0.7686 0.2431 0.1176);fill-opacity:1;"/>
<path d="M301.233 70.2512C305.354 70.2512 309.398 70.2512 313.596 70.2512C313.596 76.5016 313.596 82.6719 313.596 89.0292C314.317 89.0292 314.832 89.0292 315.347 89.0292C324.98 89.0292 334.587 89.0025 344.219 89.0559C349.19 89.0826 353.028 91.4065 355.603 95.8138C356.788 97.8439 357.406 100.061 357.406 102.465C357.406 112.722 357.432 122.979 357.406 133.236C357.38 139.807 352.409 145.523 346.125 146.378C345.249 146.485 344.322 146.565 343.447 146.565C329.925 146.565 316.378 146.565 302.856 146.565C302.367 146.565 301.877 146.565 301.517 146.565C301.362 146.405 301.311 146.378 301.285 146.351C301.259 146.325 301.233 146.271 301.208 146.245C301.182 146.058 301.13 145.871 301.13 145.684C301.13 120.789 301.13 95.894 301.13 70.9724C301.156 70.7854 301.208 70.6252 301.233 70.2512ZM329.255 133.61C331.135 133.61 333.041 133.61 334.922 133.61C337.883 133.61 340.845 133.61 343.833 133.61C344.889 133.61 344.992 133.45 345.043 132.408C345.043 132.168 345.043 131.954 345.043 131.714C345.043 122.472 345.043 113.256 345.043 104.014C345.043 101.931 345.043 101.904 343.009 101.904C333.917 101.904 324.851 101.904 315.759 101.904C315.399 101.904 315.038 101.877 314.678 101.904C313.802 101.984 313.699 102.118 313.622 102.999C313.596 103.24 313.622 103.453 313.622 103.694C313.622 113.069 313.622 122.445 313.622 131.794C313.622 132.114 313.622 132.435 313.648 132.782C313.673 133.29 313.931 133.557 314.42 133.557C314.781 133.583 315.141 133.583 315.502 133.583C320.086 133.61 324.671 133.61 329.255 133.61Z" fill="#C43E1E" style="fill:#C43E1E;fill:color(display-p3 0.7686 0.2431 0.1176);fill-opacity:1;"/>
<path d="M280.94 146.566C280.425 146.566 279.987 146.566 279.523 146.566C265.821 146.566 252.094 146.539 238.392 146.566C231.747 146.592 227.291 142.399 225.643 137.778C225.128 136.362 224.793 134.786 224.767 133.29C224.69 122.98 224.664 112.669 224.741 102.385C224.793 94.9595 230.588 89.083 237.851 89.0296C247.484 88.9762 257.09 89.0029 266.723 89.0029C267.289 89.0029 267.882 89.0029 268.577 89.0029C268.783 85.7708 268.655 82.6723 268.68 79.5738C268.706 76.5021 268.68 73.4303 268.68 70.4119C269.865 70.0914 279.446 70.0379 280.888 70.3051C281.146 71.3201 281.223 144.589 280.94 146.566ZM252.918 133.611C254.978 133.611 257.065 133.611 259.125 133.611C261.907 133.611 264.688 133.611 267.496 133.611C268.526 133.611 268.655 133.45 268.706 132.409C268.706 132.222 268.706 132.035 268.706 131.848C268.706 122.472 268.706 113.096 268.706 103.721C268.706 103.534 268.706 103.347 268.706 103.16C268.655 102.145 268.5 101.985 267.496 101.931C267.264 101.931 267.058 101.931 266.826 101.931C257.605 101.931 248.385 101.931 239.165 101.931C238.933 101.931 238.727 101.931 238.495 101.931C237.49 101.985 237.362 102.118 237.31 103.187C237.31 103.374 237.31 103.56 237.31 103.747C237.31 113.123 237.31 122.499 237.31 131.874C237.31 132.195 237.31 132.515 237.336 132.863C237.362 133.37 237.619 133.611 238.109 133.637C238.469 133.637 238.83 133.664 239.19 133.664C243.749 133.611 248.333 133.611 252.918 133.611Z" fill="#C43E1E" style="fill:#C43E1E;fill:color(display-p3 0.7686 0.2431 0.1176);fill-opacity:1;"/>
<path d="M195.328 146.377C195.328 145.736 195.328 145.122 195.328 144.534C195.328 131.045 195.328 117.582 195.328 104.093C195.328 101.903 195.328 101.903 193.268 101.903C184.176 101.903 175.11 101.903 166.019 101.903C163.907 101.903 163.907 101.903 163.907 104.04C163.907 117.556 163.907 131.098 163.907 144.614C163.907 145.175 163.907 145.736 163.907 146.243C162.902 146.617 153.115 146.698 151.57 146.35C151.57 127.332 151.57 108.26 151.57 89.1082C152.059 89.0815 152.497 89.0281 152.935 89.0281C166.74 89.0281 180.545 89.0815 194.35 89.0014C199.913 88.9747 206.043 92.7409 207.511 100.033C207.691 100.888 207.742 101.796 207.742 102.677C207.768 116.754 207.742 130.858 207.742 144.935C207.742 145.389 207.742 145.843 207.742 146.27C206.686 146.617 197.26 146.698 195.328 146.377Z" fill="#C43E1E" style="fill:#C43E1E;fill:color(display-p3 0.7686 0.2431 0.1176);fill-opacity:1;"/>
<path d="M208.875 44.4769C208.875 48.8843 208.875 53.1581 208.875 57.3784C207.819 57.7791 203.905 57.8592 201.767 57.5654C201.741 56.9778 201.664 56.3367 201.664 55.7223C201.664 41.4586 201.664 27.1948 201.664 12.931C201.664 12.4235 201.664 11.916 201.664 11.2482C202.205 11.1948 202.617 11.1147 203.055 11.1147C210.91 11.1147 218.791 11.0879 226.647 11.1147C231.025 11.1414 234.322 14.5604 234.347 19.1013C234.373 24.8709 234.373 30.6672 234.347 36.4369C234.322 40.9778 231.077 44.4235 226.698 44.4502C221.341 44.5036 216.01 44.4502 210.652 44.4769C210.086 44.4769 209.571 44.4769 208.875 44.4769ZM227.059 36.9444C227.059 30.8008 227.059 24.7908 227.059 18.7006C226.672 18.6472 226.338 18.5404 226.003 18.5404C220.697 18.5404 215.391 18.5137 210.112 18.5404C208.927 18.5404 208.824 18.6739 208.824 19.9293C208.824 25.1915 208.824 30.4536 208.824 35.7157C208.824 36.1163 208.927 36.4903 209.004 36.9177C215.057 36.9444 220.98 36.9444 227.059 36.9444Z" fill="#C43E1E" style="fill:#C43E1E;fill:color(display-p3 0.7686 0.2431 0.1176);fill-opacity:1;"/>
<path d="M286.271 31.544C286.271 33.4672 286.271 35.1233 286.271 36.9129C289.13 37.0732 291.912 36.9663 294.668 36.9931C297.449 37.0198 300.231 36.9931 303.038 36.9931C305.82 36.9931 308.601 36.9931 311.357 36.9931C311.692 38.0615 311.769 42.6825 311.486 44.3653C311.125 44.3921 310.739 44.4455 310.353 44.4455C302.574 44.4455 294.796 44.3921 287.018 44.4722C282.511 44.5256 278.931 40.8128 278.982 36.1917C279.06 30.5022 279.034 24.8128 279.008 19.1233C278.983 14.6358 282.485 11.0031 286.786 11.0565C292.504 11.1366 298.196 11.1099 303.914 11.0565C308.576 11.0031 311.795 15.0632 311.692 19.0966C311.589 22.7293 311.666 26.362 311.666 29.9947C311.666 30.4221 311.64 30.8228 311.615 31.4104C310.198 31.544 308.833 31.4638 307.442 31.4638C306.051 31.4905 304.661 31.4638 303.27 31.4638C301.828 31.4638 300.385 31.4638 298.943 31.4638C297.552 31.4638 296.161 31.4638 294.771 31.4638C293.38 31.4638 291.989 31.4638 290.598 31.4638C289.156 31.544 287.765 31.544 286.271 31.544ZM286.246 23.8244C287.997 24.1717 303.399 24.0916 304.429 23.7176C304.48 22.0615 304.532 20.352 304.377 18.7226C302.523 18.3754 287.25 18.4822 286.246 18.8294C286.246 20.4588 286.246 22.1149 286.246 23.8244Z" fill="#C43E1E" style="fill:#C43E1E;fill:color(display-p3 0.7686 0.2431 0.1176);fill-opacity:1;"/>
<path d="M398.589 31.5466C390.115 31.5466 381.77 31.5466 373.245 31.5466C373.091 33.3897 373.091 35.1259 373.245 36.969C381.745 36.969 390.089 36.969 398.408 36.969C398.743 38.0641 398.795 42.5516 398.537 44.368C398.228 44.3947 397.867 44.4748 397.533 44.4748C389.626 44.4748 381.719 44.5015 373.812 44.4748C369.305 44.4481 366.06 41.1092 366.008 36.4614C365.957 30.6918 365.982 24.8955 366.008 19.1259C366.034 15.6267 367.862 12.7953 370.902 11.6467C371.777 11.3262 372.73 11.1659 373.657 11.1392C379.401 11.0858 385.17 11.0858 390.914 11.1125C395.395 11.1392 398.64 14.5315 398.666 19.1793C398.692 22.8654 398.666 26.5516 398.666 30.2377C398.666 30.585 398.64 30.9589 398.589 31.5466ZM391.429 18.6451C390.836 18.5917 390.398 18.5382 389.961 18.5382C384.887 18.5382 379.813 18.5382 374.739 18.5382C374.43 18.5382 374.095 18.4848 373.812 18.5917C373.554 18.6985 373.22 18.9656 373.22 19.1793C373.142 20.7285 373.065 22.3045 373.271 23.827C374.765 24.1476 390.347 24.0942 391.429 23.7736C391.429 22.1442 391.429 20.4881 391.429 18.6451Z" fill="#C43E1E" style="fill:#C43E1E;fill:color(display-p3 0.7686 0.2431 0.1176);fill-opacity:1;"/>
<path d="M190.07 31.5506C181.494 31.5506 173.149 31.5506 164.624 31.5506C164.495 33.3937 164.495 35.1299 164.65 36.973C173.149 36.973 181.494 36.973 190.045 36.973C190.096 39.4838 190.096 41.8878 190.045 44.372C189.555 44.3987 189.169 44.4788 188.782 44.4788C180.953 44.4788 173.149 44.4254 165.319 44.5055C161.353 44.559 157.361 41.3803 157.387 36.4388C157.412 30.6958 157.412 24.9797 157.387 19.2368C157.361 14.402 161.147 10.983 165.345 11.0898C170.96 11.2234 176.574 11.17 182.189 11.0898C186.748 11.0364 190.173 14.8828 190.07 19.3436C189.993 22.8962 190.045 26.4221 190.045 29.9746C190.07 30.4287 190.07 30.8828 190.07 31.5506ZM182.807 18.6491C182.241 18.5957 181.777 18.5423 181.288 18.5423C176.265 18.5423 171.243 18.5423 166.195 18.5423C165.963 18.5423 165.757 18.5423 165.525 18.5423C164.856 18.5155 164.547 18.8628 164.547 19.5573C164.572 20.7593 164.547 21.988 164.572 23.19C164.572 23.4571 164.701 23.6975 164.778 23.9379C167.174 24.2585 181.906 24.1249 182.807 23.7509C182.807 22.0948 182.807 20.4388 182.807 18.6491Z" fill="#C43E1E" style="fill:#C43E1E;fill:color(display-p3 0.7686 0.2431 0.1176);fill-opacity:1;"/>
<path d="M36.8005 36.9945C36.8005 39.5855 36.8005 41.9094 36.8005 44.3401C36.4141 44.3935 36.0793 44.4737 35.7445 44.4737C27.7861 44.4737 19.8276 44.447 11.8692 44.4737C7.67106 44.5004 4.1168 40.8142 4.16832 36.4603C4.24558 30.6907 4.24558 24.8944 4.16832 19.098C4.1168 14.9578 7.43926 11.058 11.8434 11.1114C17.5869 11.1648 23.3561 11.1648 29.0996 11.1114C33.5038 11.058 36.9292 14.9044 36.8262 19.2316C36.7489 22.8643 36.8262 26.497 36.8005 30.1565C36.8005 30.5571 36.749 30.9845 36.7232 31.5455C28.2754 31.5455 19.8791 31.5455 11.4056 31.5455C11.4056 33.4152 11.4056 35.098 11.4056 37.0212C19.9049 36.9945 28.2754 36.9945 36.8005 36.9945ZM29.5632 23.9595C29.5632 22.1164 29.5632 20.4603 29.5632 18.8309C28.4557 18.457 12.7964 18.4303 11.5601 18.7508C11.2253 20.0062 11.2253 22.8643 11.6116 23.9595C17.5354 23.9595 23.4849 23.9595 29.5632 23.9595Z" fill="#C43E1E" style="fill:#C43E1E;fill:color(display-p3 0.7686 0.2431 0.1176);fill-opacity:1;"/>
<path d="M496.176 35.2664C496.279 35.854 496.382 36.3615 496.485 36.9224C502.486 36.9224 508.436 36.9224 514.488 36.9224C514.488 35.1862 514.488 33.5301 514.488 31.6871C513.999 31.6603 513.484 31.5802 512.969 31.5802C507.611 31.5802 502.28 31.5802 496.923 31.5802C493.24 31.5535 490.252 29.1762 489.377 25.5969C489.222 25.0093 489.171 24.3949 489.171 23.8073C489.145 22.1779 489.145 20.5485 489.171 18.9191C489.248 14.5919 492.441 11.253 496.64 11.1729C499.112 11.1194 501.585 11.1729 504.057 11.1461C507.431 11.1461 510.805 11.1194 514.179 11.1461C518.918 11.1996 522.241 15.0994 521.777 19.9876C521.777 20.0677 521.7 20.1478 521.622 20.3081C519.382 20.3081 517.115 20.3081 514.771 20.3081C514.668 19.8006 514.591 19.2931 514.488 18.839C513.432 18.465 497.747 18.4116 496.434 18.8123C496.434 20.4416 496.434 22.0977 496.434 23.9141C496.974 23.9675 497.49 24.0477 498.005 24.0477C503.259 24.0477 508.513 24.0744 513.793 24.0477C515.57 24.0477 517.167 24.4483 518.609 25.5168C520.618 26.9859 521.674 29.0159 521.777 31.5535C521.828 33.3164 521.828 35.1061 521.777 36.869C521.7 40.9024 518.609 44.2146 514.72 44.4817C514.462 44.5084 514.179 44.5084 513.922 44.5084C508.255 44.5084 502.589 44.5351 496.923 44.5084C493.214 44.4817 490.252 42.1578 489.402 38.5251C489.171 37.5635 489.196 36.5218 489.093 35.3465C491.54 35.1061 493.832 35.1862 496.176 35.2664Z" fill="#C43E1E" style="fill:#C43E1E;fill:color(display-p3 0.7686 0.2431 0.1176);fill-opacity:1;"/>
<path d="M348.725 44.4016C348.699 35.7739 348.725 27.253 348.699 18.5719C342.544 18.5184 336.594 18.5451 330.49 18.5451C330.31 21.5635 330.439 24.3682 330.413 27.1996C330.387 30.031 330.413 32.8891 330.413 35.7204C330.413 38.5518 330.413 41.4099 330.413 44.455C328.018 44.5084 325.7 44.5084 323.304 44.455C323.304 33.3699 323.304 22.3916 323.304 11.2797C323.665 11.2263 324.051 11.1461 324.412 11.1461C332.37 11.1461 340.329 11.1194 348.287 11.1461C352.563 11.1729 355.834 14.5652 355.859 18.9458C355.885 27.0126 355.859 35.0794 355.859 43.1461C355.859 43.5468 355.808 43.9475 355.756 44.4283C353.464 44.4016 351.223 44.4016 348.725 44.4016Z" fill="#C43E1E" style="fill:#C43E1E;fill:color(display-p3 0.7686 0.2431 0.1176);fill-opacity:1;"/>
<path d="M55.6304 18.8103C55.5532 21.5883 55.6047 24.4197 55.5789 27.2244C55.5789 30.0558 55.5789 32.9139 55.5789 35.7452C55.5789 38.5766 55.5789 41.408 55.5789 44.4531C53.1837 44.4798 50.9172 44.4798 48.6765 44.4264C48.3932 43.3045 48.2901 13.5482 48.5477 11.2244C48.934 11.1709 49.3719 11.0908 49.7839 11.0908C57.6394 11.0908 65.5205 11.1175 73.3759 11.0641C77.8831 11.0374 81.0768 14.9372 81.0768 18.9172C81.051 27.0641 81.0768 35.2377 81.0768 43.3846C81.0768 43.6517 81.0253 43.9456 81.0253 44.186C80.0208 44.4798 75.5394 44.5332 73.9168 44.2394C73.9168 35.7719 73.9168 27.2511 73.9168 18.8103C72.7836 18.4631 57.15 18.4097 55.6304 18.8103Z" fill="#C43E1E" style="fill:#C43E1E;fill:color(display-p3 0.7686 0.2431 0.1176);fill-opacity:1;"/>
<path d="M410.257 11.168C412.575 11.0878 414.841 11.0878 417.314 11.1947C417.314 12.9576 417.34 14.6671 417.34 16.3766C417.34 18.0594 417.34 19.7423 417.34 21.3983C417.34 23.1346 417.34 24.8441 417.34 26.5803C417.34 28.2631 417.34 29.9459 417.34 31.602C417.34 33.3115 417.34 35.021 417.34 36.6771C418.473 37.0778 434.132 37.1312 435.626 36.7573C435.755 33.9793 435.677 31.1479 435.677 28.3433C435.703 25.5119 435.677 22.6538 435.677 19.8224C435.677 16.991 435.677 14.1596 435.677 11.2481C438.124 11.2481 440.391 11.2481 442.76 11.2481C442.786 11.7022 442.863 12.1029 442.863 12.5035C442.863 20.4367 442.889 28.3433 442.863 36.2765C442.837 41.0845 439.567 44.4768 434.956 44.5035C429.239 44.5302 423.547 44.5302 417.829 44.5035C413.425 44.4768 410.18 41.0845 410.154 36.5169C410.128 28.5035 410.154 20.4902 410.154 12.4768C410.18 12.0494 410.231 11.7022 410.257 11.168Z" fill="#C43E1E" style="fill:#C43E1E;fill:color(display-p3 0.7686 0.2431 0.1176);fill-opacity:1;"/>
<path d="M92.773 0.188965C95.1682 0.188965 97.3832 0.188965 99.7785 0.188965C99.933 3.79498 99.7527 7.32085 99.8815 11.007C100.397 11.0337 100.86 11.1138 101.35 11.1138C104.492 11.1138 107.634 11.1138 110.802 11.1138C111.291 11.1138 111.781 11.1673 112.347 11.194C112.347 13.6247 112.347 15.9219 112.347 18.4327C111.909 18.4594 111.446 18.5395 110.982 18.5395C107.891 18.5395 104.775 18.5395 101.684 18.5395C101.143 18.5395 100.628 18.5395 99.9072 18.5395C99.8557 24.7365 99.8557 30.7733 99.9072 36.9703C104.157 36.9703 108.2 36.9703 112.373 36.9703C112.373 39.5078 112.373 41.8584 112.373 44.3426C112.064 44.3693 111.729 44.4494 111.394 44.4494C107.763 44.4494 104.105 44.396 100.474 44.4761C96.7908 44.5562 92.7215 41.431 92.7472 36.5162C92.7987 24.8167 92.773 13.0905 92.773 1.39097C92.6957 1.04372 92.7472 0.669766 92.773 0.188965Z" fill="#C43E1E" style="fill:#C43E1E;fill:color(display-p3 0.7686 0.2431 0.1176);fill-opacity:1;"/>
<path d="M461.613 44.3975C459.14 44.3975 456.874 44.3975 454.478 44.3975C454.453 43.9968 454.375 43.5962 454.375 43.1955C454.375 35.2356 454.401 27.2489 454.35 19.289C454.324 14.8015 457.775 11.0085 462.282 11.0886C467.639 11.1955 472.971 11.1154 478.328 11.1154C478.817 11.1154 479.281 11.1688 479.822 11.2222C479.822 13.6529 479.822 15.9768 479.822 18.4342C479.281 18.4609 478.74 18.5144 478.225 18.5144C473.228 18.5144 468.257 18.5144 463.261 18.5144C462.746 18.5144 462.231 18.5945 461.587 18.6479C461.613 27.2756 461.613 35.7431 461.613 44.3975Z" fill="#C43E1E" style="fill:#C43E1E;fill:color(display-p3 0.7686 0.2431 0.1176);fill-opacity:1;"/>
<path d="M147.86 18.5655C141.859 18.5655 135.884 18.5655 129.728 18.5655C129.625 20.8359 129.677 22.9728 129.677 25.083C129.677 27.2199 129.677 29.3835 129.677 31.5204C129.677 33.6306 129.677 35.714 129.677 37.8242C129.677 39.9611 129.677 42.098 129.677 44.2349C128.646 44.5555 124.139 44.6089 122.568 44.315C122.542 43.8877 122.491 43.4336 122.491 42.9795C122.491 35.0997 122.542 27.2199 122.465 19.3401C122.414 14.7992 125.916 11.0062 130.372 11.113C135.729 11.2199 141.086 11.1398 146.418 11.1398C146.856 11.1398 147.293 11.1398 147.705 11.1398C148.066 12.1815 148.143 16.3217 147.86 18.5655Z" fill="#C43E1E" style="fill:#C43E1E;fill:color(display-p3 0.7686 0.2431 0.1176);fill-opacity:1;"/>
<path d="M251.32 18.6488C251.32 27.2765 251.32 35.7707 251.32 44.3984C248.899 44.3984 246.633 44.3984 244.237 44.3984C244.212 44.0244 244.134 43.6238 244.134 43.2231C244.134 35.1029 244.108 27.0094 244.134 18.8892C244.16 14.6956 247.276 11.2231 251.32 11.143C257.115 11.0361 262.91 11.1163 268.705 11.1163C268.911 11.1163 269.143 11.1697 269.503 11.2498C269.709 13.6004 269.606 15.951 269.529 18.4351C268.911 18.4618 268.396 18.5153 267.881 18.5153C262.936 18.5153 257.991 18.5153 253.046 18.5153C252.505 18.542 251.99 18.5954 251.32 18.6488Z" fill="#C43E1E" style="fill:#C43E1E;fill:color(display-p3 0.7686 0.2431 0.1176);fill-opacity:1;"/>
<path d="M414.759 143.143C414.116 137.881 413.472 132.619 412.802 127.357C412.467 124.632 412.081 121.907 411.798 119.183C411.72 118.301 411.36 117.741 410.716 117.233C405.745 113.066 400.826 108.872 395.881 104.679C394.567 103.557 393.228 102.435 391.914 101.313C391.734 101.153 391.528 101.019 391.322 100.859C391.374 100.779 391.451 100.699 391.502 100.619C392.301 100.993 393.099 101.393 393.898 101.767C400.439 104.999 406.981 108.205 413.472 111.463C414.45 111.971 415.249 111.971 416.228 111.463C423.156 107.991 430.084 104.599 437.038 101.18C437.45 100.993 437.836 100.806 438.351 100.725C438.171 100.939 437.991 101.153 437.785 101.34C431.655 106.522 425.551 111.731 419.395 116.886C418.442 117.687 418.005 118.569 417.85 119.797C416.974 127.437 416.021 135.049 415.094 142.689C415.069 142.849 414.991 143.009 414.965 143.196C414.888 143.143 414.837 143.143 414.759 143.143Z" fill="#C43E1E" style="fill:#C43E1E;fill:color(display-p3 0.7686 0.2431 0.1176);fill-opacity:1;"/>
</g>
<defs>
<clipPath id="clip0_137_1283">
<rect width="526.441" height="160" fill="white" style="fill:white;fill-opacity:1;"/>
</clipPath>
</defs>
</svg>
