<svg width="322" height="88" viewBox="0 0 322 88" fill="none" xmlns="http://www.w3.org/2000/svg">
<path d="M294.944 47.4851L286.638 33.3554C283.813 28.5192 281.773 24.5226 279.915 24.077L279.912 23.6134L300.286 23.4317L300.291 23.8952C297.67 24.2266 297.614 26.3101 299.416 29.4595L304.352 37.8296L305.877 35.6539C308.47 31.9267 309.986 28.8227 309.962 26.2C309.95 24.9664 309.094 23.9693 307.854 23.8277L307.851 23.3642L319.12 23.2637L319.125 23.727C316.661 24.3653 313.133 27.3291 306.962 36.2603L305.056 38.9808L313.837 53.9557C316.658 58.7918 318.699 62.7885 320.555 63.2341L320.56 63.6976L300.182 63.8794L300.179 63.4158C302.802 63.0843 302.859 60.9981 301.054 57.8513L295.648 48.6362C291.165 52.247 290.557 58.7069 288.403 66.4547C285.394 77.295 280.154 84.1392 272.635 84.5753C260.771 85.2641 256.989 76.4578 256.85 73.9333L257.418 73.2496C257.418 73.2496 265.629 76.371 273.109 72.6766C281.605 68.4846 287.79 53.5496 294.944 47.4851Z" fill="#514F43" style="fill:#514F43;fill:color(display-p3 0.3176 0.3098 0.2627);fill-opacity:1;"/>
<path d="M241.115 44.3458C241.002 31.5335 248.952 22.9693 261.144 22.8605C273.494 22.7503 281.29 30.7075 281.405 43.6768C281.518 56.4891 273.566 65.0504 261.368 65.1592C249.019 65.2695 241.23 57.3107 241.115 44.3458ZM266.584 43.9631C266.493 33.7762 265.787 23.9015 260.998 23.9442C256.214 23.9869 255.837 33.4077 255.931 44.0581C256.022 54.2463 256.728 64.1197 261.512 64.077C266.299 64.0343 266.68 54.6133 266.584 43.9631Z" fill="#514F43" style="fill:#514F43;fill:color(display-p3 0.3176 0.3098 0.2627);fill-opacity:1;"/>
<path d="M241.253 63.9481C238.089 63.9764 237.835 61.3529 237.792 56.4142L237.601 35.1094C237.533 27.3911 234.481 23.0955 227.149 23.1609C221.745 23.2092 216.917 26.7259 213.321 30.4647L213.257 23.439L212.949 23.4417L195.15 26.9991L195.155 27.4612C197.785 28.3635 199.11 29.7422 199.155 34.6822L199.352 56.7559C199.395 61.6959 199.187 64.3222 196.024 64.3503L196.027 64.8124L217.021 64.6251L217.016 64.163C213.851 64.1913 213.598 61.5678 213.555 56.6291L213.329 31.3902C215.021 30.6785 217.022 30.1985 218.414 30.186C222.736 30.1475 223.382 33.3822 223.429 38.6345L223.605 58.3879C223.635 61.8003 226.427 64.5412 229.84 64.5107L241.259 64.4087L241.254 63.9481H241.253Z" fill="#514F43" style="fill:#514F43;fill:color(display-p3 0.3176 0.3098 0.2627);fill-opacity:1;"/>
<path d="M195.177 58.4068C194.716 58.9536 193.801 60.0387 192.257 60.0524C189.865 60.0737 189.844 57.8396 189.816 54.6716L189.667 37.8475C189.585 28.7388 184.291 23.5376 175.491 23.6161C172.656 23.6414 169.059 25.207 166.606 26.2683C163.428 26.4008 160.121 23.6408 156.656 23.6718C152.224 23.7113 150.173 27.0852 147.477 31.9707L147.406 24.0208L147.096 24.0235L129.298 27.5809L129.302 28.043C131.933 28.9452 133.258 30.324 133.302 35.2641L133.499 57.3377C133.543 62.2792 133.334 64.904 130.171 64.9321L130.175 65.3942L151.168 65.2068L151.164 64.7448C147.999 64.7731 147.746 62.151 147.702 57.211L147.486 32.9753C148.475 32.3504 149.472 32.032 150.462 32.0232C153.428 31.9966 154.876 34.1348 157.48 34.4446C162.616 35.0566 166.124 32.3497 167.729 27.85L167.798 27.558C168.366 27.274 168.844 27.0505 169.07 26.9777C176.473 24.608 175.876 32.332 175.896 34.494L175.974 43.296L169.201 45.2078C160.268 47.7563 156.135 51.7331 156.188 57.5974C156.234 62.8456 159.892 66.0547 165.372 66.0059C169.923 65.9652 174.379 63.2248 176.814 59.6504C177.15 62.5048 178.571 65.888 184.435 65.8356C190.92 65.7779 194.428 61.1932 195.641 58.7121L195.177 58.4068ZM176.116 59.1195C175.2 59.9715 174.198 60.3704 173.272 60.3787C171.112 60.3979 169.008 58.0256 168.969 53.7016C168.928 49.0696 169.988 47.0534 174.601 45.0041L175.982 44.3769L176.115 59.1196L176.116 59.1195Z" fill="#514F43" style="fill:#514F43;fill:color(display-p3 0.3176 0.3098 0.2627);fill-opacity:1;"/>
<path d="M128.242 25.5095C125.868 27.9594 122.985 24.0341 120.457 23.9929C116.025 23.9186 114.814 27.3988 112.12 32.2842L112.049 24.3329L111.738 24.3357L93.9412 27.8932L93.9452 28.3567C96.5762 29.2573 97.9013 30.6375 97.9453 35.5762L98.1423 57.6513C98.1864 62.59 97.9767 65.2161 94.8143 65.2444L94.8183 65.7065L115.811 65.5191L115.807 65.057C112.642 65.0852 112.391 62.4618 112.346 57.5246L112.13 33.2876C113.118 32.6625 114.112 32.3455 115.105 32.3367C116.142 32.3274 117.248 32.6146 118.251 33.4021C119.403 34.3065 120.596 34.7385 121.734 34.7617C125.154 34.8269 129.393 31.1657 128.242 25.5095Z" fill="#514F43" style="fill:#514F43;fill:color(display-p3 0.3176 0.3098 0.2627);fill-opacity:1;"/>
<path d="M91.9063 41.2024L70.4459 41.3939C70.7851 53.2785 73.7031 60.1998 81.6515 60.1288C85.512 60.0944 89.1999 58.4406 91.5619 55.0208L92.0323 55.3261C88.689 61.5344 83.9491 66.7461 74.9195 66.8267C62.4167 66.9382 56.3864 57.2651 56.2914 46.6161C56.184 34.5726 63.9667 24.6249 76.4696 24.5134C86.8133 24.4197 92.2787 31.1641 91.9063 41.2024ZM70.4349 40.1589L80.1626 40.0721C80.7784 31.1862 80.4951 25.5571 76.1725 25.5957C71.1547 25.6405 70.3736 33.2872 70.4349 40.1589Z" fill="#514F43" style="fill:#514F43;fill:color(display-p3 0.3176 0.3098 0.2627);fill-opacity:1;"/>
<path d="M67.7904 2.24951L25.6497 2.62554L1.46826 2.84132L0.154297 19.6674L2.64515 19.6452C9.10376 8.43532 14.316 4.52108 22.2105 4.45063L25.6616 4.41983L26.167 61.0505C26.3414 80.6055 45.3409 89.2442 61.8201 78.2892L61.814 77.6175C50.1796 79.8751 44.2273 71.7681 44.1302 60.8901L43.6249 4.25954L47.0788 4.22873C54.972 4.1583 60.2545 7.97889 66.9121 19.0716L69.403 19.0495L67.7904 2.24951Z" fill="#514F43" style="fill:#514F43;fill:color(display-p3 0.3176 0.3098 0.2627);fill-opacity:1;"/>
</svg>
