<svg xmlns="http://www.w3.org/2000/svg" xmlns:xlink="http://www.w3.org/1999/xlink" viewBox="0 0 594 69"><path d="M 15.924 61.791 C 17.253 49.791 17.211 18.093 15.924 6.093 C 9.891 6 4.344 9.969 0 15.591 L 0 0 L 62.322 0 L 62.322 15.591 C 57.972 9.969 52.431 6 46.398 6.09 C 45.156 18.09 45.111 49.788 46.353 61.788 C 46.929 66.513 48.393 67.128 49.104 67.884 L 13.308 67.884 C 13.929 67.128 15.39 66.513 15.924 61.788 Z M 68.505 61.791 C 69.837 49.791 69.747 18.234 68.505 6.237 C 68.016 1.512 66.51 0.945 65.889 0.141 L 101.685 0.141 C 100.932 0.945 99.51 1.512 98.934 6.237 C 98.535 9.969 98.268 15.591 98.136 21.921 L 107.052 21.921 C 106.875 15.591 106.608 9.969 106.209 6.237 C 105.72 1.512 104.214 0.945 103.59 0.141 L 139.386 0.141 C 138.63 0.945 137.211 1.512 136.635 6.237 C 135.393 18.237 135.393 49.791 136.635 61.791 C 137.211 66.516 138.63 67.131 139.386 67.887 L 103.59 67.887 C 104.211 67.131 105.675 66.516 106.206 61.791 C 107.004 54.612 107.271 40.815 107.136 28.062 L 98.046 28.062 C 97.824 40.815 98.178 54.612 98.934 61.791 C 99.468 66.516 100.932 67.131 101.685 67.887 L 65.889 67.887 C 66.51 67.131 67.974 66.516 68.505 61.791 Z M 143.979 66.798 C 143.979 66.798 145.131 65.76 145.575 61.791 C 146.241 55.791 146.55 44.88 146.55 34.011 C 146.55 23.433 146.241 12.282 145.575 6.282 C 145.131 2.361 144.156 1.182 143.355 0.567 C 143.2 0.448 143.066 0.304 142.959 0.141 L 198.18 0.141 L 198.18 15.636 C 192.195 8.55 184.611 6.24 176.004 6.24 C 175.65 9.639 175.383 14.694 175.206 20.271 C 182.835 19.701 188.202 17.766 190.197 15.261 L 190.197 31.89 C 188.202 29.34 182.748 27.309 175.119 26.835 C 175.119 39.072 175.206 54.237 176.004 61.794 C 182.034 61.794 193.215 56.787 198.183 52.395 L 198.183 67.89 L 142.959 67.89 L 143.313 67.512 Z M 226.107 61.791 C 227.436 49.791 227.391 18.234 226.107 6.237 C 225.57 1.512 224.112 0.945 223.491 0.141 L 259.287 0.141 C 258.531 0.945 257.112 1.512 256.536 6.237 C 255.294 18.237 255.381 49.65 256.626 61.65 C 262.656 61.746 272.946 57.918 277.296 52.296 L 277.296 67.887 L 223.491 67.887 C 224.112 67.131 225.573 66.516 226.107 61.791 Z M 282.144 61.791 C 283.476 49.791 283.386 18.234 282.144 6.237 C 281.658 1.512 280.149 0.945 279.528 0.141 L 315.324 0.141 C 314.571 0.945 313.152 1.512 312.573 6.237 C 311.331 18.237 311.331 49.791 312.573 61.791 C 313.152 66.516 314.571 67.131 315.324 67.887 L 279.528 67.887 C 280.149 67.131 281.613 66.516 282.144 61.791 Z M 321.591 62.169 C 322.92 50.076 322.92 18.33 321.591 6.33 C 321.057 1.512 319.593 0.945 318.885 0.141 L 348.78 0.141 L 376.104 26.076 C 376.104 15.825 369.318 5.292 359.028 0.141 L 385.287 0.141 C 384.576 0.945 383.202 1.041 382.671 5.859 C 381.339 17.949 381.339 49.698 382.671 61.698 C 383.202 66.516 384.576 67.128 385.287 67.887 L 376.284 67.887 L 328.332 22.017 C 328.332 41.1 353.307 61.227 362.664 67.887 L 318.885 67.887 C 319.593 67.131 321.057 67.035 321.591 62.169 Z M 389.208 67.509 C 389.874 66.798 391.026 65.76 391.47 61.791 C 392.136 55.791 392.445 44.88 392.445 34.011 C 392.445 23.433 392.136 12.282 391.47 6.282 C 391.026 2.361 390.051 1.182 389.253 0.567 C 389.097 0.449 388.962 0.304 388.854 0.141 L 444.078 0.141 L 444.078 15.636 C 438.09 8.55 430.506 6.237 421.899 6.237 C 421.545 9.636 421.278 14.691 421.101 20.268 C 428.73 19.698 434.097 17.763 436.095 15.258 L 436.095 31.887 C 434.097 29.337 428.643 27.306 421.014 26.832 C 421.014 39.069 421.104 54.234 421.899 61.791 C 427.932 61.791 439.11 56.784 444.078 52.392 L 444.078 67.887 L 388.854 67.887 Z M 450.795 40.911 L 450.795 24.66 C 450.615 17.196 450.438 10.629 449.952 6.33 C 449.418 1.512 447.954 0.945 447.246 0.141 L 484.107 0.141 C 483.396 0.945 481.935 1.512 481.401 6.33 C 480.912 10.629 480.69 17.196 480.603 24.66 L 480.603 44.361 C 480.603 57.822 480.693 63.729 485.394 63.918 C 490.05 63.729 490.227 57.822 490.227 44.358 L 490.227 24.66 C 490.05 17.196 489.741 10.629 489.297 6.33 C 488.808 1.512 487.389 0.945 486.681 0.141 L 523.539 0.141 C 522.831 0.945 521.367 1.512 520.833 6.33 C 520.347 10.629 520.08 17.196 519.993 24.66 L 519.993 40.911 C 519.993 63.162 502.914 69.918 485.394 69.918 C 467.784 69.918 450.795 63.162 450.795 40.911 Z M 528.486 61.791 C 529.815 49.791 529.728 18.234 528.486 6.237 C 527.997 1.512 526.491 0.945 525.87 0.141 L 569.916 0.141 C 585.663 0.141 595.11 10.11 595.11 26.172 C 595.11 42.423 585.66 52.392 569.916 52.392 L 558.204 52.392 L 558.915 61.791 C 559.314 66.516 560.91 67.131 561.666 67.887 L 525.87 67.887 C 526.491 67.131 527.952 66.516 528.486 61.791 Z M 565.836 25.605 C 565.836 11.196 565.389 6.141 558.204 6.141 L 558.204 46.392 C 565.389 46.392 565.833 39.918 565.833 25.602 Z" fill="rgb(9, 192, 215)"></path></svg>
