<svg width="89" height="33" viewBox="0 0 89 33" fill="none" xmlns="http://www.w3.org/2000/svg">
<rect width="89" height="32.8269" fill="#4424A7"/>
<path d="M80.4969 4.80908H73.4025V27.854H80.4969V4.80908Z" fill="#F1FDFB"/>
<path d="M63.2174 4.80908V13.0543H57.3663V4.80908H53.3886L48.9359 16.1121L53.3886 27.8552H57.3579V18.196H63.2174V27.8552H70.4586V4.80908H63.2174Z" fill="#F1FDFB"/>
<path d="M50.3886 27.8576H43.3266L39.4487 18.2008L35.2509 27.8552H28.0494L33.7286 16.1121L28.5016 4.80908H35.6609L39.5004 13.8587L43.3266 4.80908H50.4463L45.2325 16.1121L50.3886 27.8576Z" fill="#F1FDFB"/>
<path d="M20.9572 4.80908H24.9385L30.4493 16.1121L24.8616 27.5137C24.8616 27.5137 22.3472 27.8023 18.3419 27.8372C17.5783 27.8444 17.3847 27.8697 16.5057 27.8516C12.225 27.7663 8.74992 26.7382 7.91662 21.267C7.8084 20.5564 7.76271 19.8361 7.76031 19.117L7.69537 4.80908H14.9461L14.9534 19.2938C14.9534 19.7531 14.9942 20.2125 15.0928 20.6622C15.4897 22.4815 16.4023 22.8206 17.9715 22.8062H18.4321C20.5075 22.7184 20.9464 20.7896 20.9452 19.3696L20.9572 4.80908Z" fill="#F1FDFB"/>
</svg>
