<svg xmlns="http://www.w3.org/2000/svg" xmlns:xlink="http://www.w3.org/1999/xlink" viewBox="0 0 700 153"><path d="M 3.782 41.874 L 3.782 25.607 C 3.621 18.118 3.379 11.596 2.897 7.328 C 2.333 2.496 0.724 1.933 0 1.127 L 39.184 1.127 C 38.46 1.933 36.851 2.496 36.287 7.328 C 35.805 11.596 35.563 18.199 35.402 25.607 L 35.402 45.256 C 35.402 58.704 35.483 64.582 40.471 64.824 C 45.46 64.663 45.621 58.704 45.621 45.256 L 45.621 25.607 C 45.46 18.118 45.138 11.596 44.655 7.328 C 44.172 2.496 42.644 1.933 41.839 1.127 L 81.023 1.127 C 80.299 1.933 78.69 2.496 78.126 7.328 C 77.644 11.596 77.322 18.199 77.241 25.607 L 77.241 41.874 C 77.241 64.099 59.057 70.863 40.471 70.863 C 21.885 70.863 3.782 64.099 3.782 41.874 Z M 109.264 37.364 C 100.897 26.01 91.805 14.173 88.747 10.066 C 85.69 6.12 81.747 1.933 81.103 1.127 L 125.598 1.127 C 119.724 7.328 133.805 22.386 137.345 27.298 C 138.874 17.313 136.621 5.556 131.069 1.127 L 168.966 1.127 C 162.368 4.993 149.092 17.716 140.805 32.211 C 149.253 43.645 158.506 55.644 161.563 59.912 C 164.379 63.857 168.402 68.045 169.207 68.769 L 124.713 68.769 C 130.506 62.972 115.782 46.947 112.563 42.357 C 111.034 52.423 113.448 64.26 119 68.769 L 81.103 68.769 C 87.782 64.985 100.897 51.859 109.264 37.364 Z M 173.793 62.73 C 175.241 50.732 175.08 19.246 173.793 7.247 C 173.31 2.496 171.701 1.933 170.977 1.127 L 217.805 1.127 C 234.54 1.127 244.598 11.113 244.598 27.137 C 244.598 43.162 234.54 53.308 217.805 53.308 L 205.333 53.308 L 206.057 62.73 C 206.46 67.481 208.149 68.045 208.954 68.85 L 170.897 68.85 C 171.54 68.125 173.149 67.481 173.713 62.73 Z M 213.46 26.574 C 213.46 12.159 212.977 7.167 205.333 7.167 L 205.333 47.349 C 212.977 47.349 213.46 40.907 213.46 26.574 Z M 245.724 68.447 C 246.448 67.723 247.655 66.676 248.138 62.73 C 248.862 56.771 249.184 45.819 249.184 34.948 C 249.184 24.077 248.862 13.206 248.138 7.247 C 247.655 3.302 246.609 2.174 245.805 1.53 L 245.402 1.127 L 304.057 1.127 L 304.057 16.588 C 297.701 9.502 289.655 7.167 280.483 7.167 C 280.08 10.549 279.839 15.622 279.598 21.178 C 287.724 20.615 293.437 18.682 295.529 16.186 L 295.529 32.774 C 293.437 30.197 287.644 28.184 279.517 27.701 C 279.517 39.941 279.598 55.08 280.483 62.649 C 286.92 62.649 298.747 57.657 304.057 53.228 L 304.057 68.689 L 245.402 68.689 L 245.805 68.286 Z M 312.586 62.73 C 313.31 57.013 313.552 46.866 313.632 36.478 C 313.632 25.124 313.31 13.528 312.586 7.247 C 312.023 2.496 310.494 1.933 309.77 1.127 L 336.241 1.127 C 353.862 1.127 377.517 -1.127 377.517 17.716 C 377.517 32.613 363.598 34.948 350.724 34.948 C 350.724 36.156 351.126 38.25 360.943 38.25 C 366.011 38.25 373.092 36.801 376.31 45.256 C 378.724 51.617 381.138 61.361 388.621 68.769 L 353.057 68.769 L 344.046 35.432 C 344.126 41.713 343.805 57.737 345.092 63.052 C 346.138 66.998 347.184 68.045 347.828 68.769 L 309.851 68.769 C 310.494 68.045 312.103 67.401 312.667 62.649 Z M 351.126 17.796 C 351.126 11.193 348.069 7.086 344.046 7.086 L 344.046 21.42 C 344.126 24.238 344.126 26.976 344.046 29.312 C 349.195 29.312 351.126 22.789 351.126 17.877 Z M 393.207 62.73 C 394.655 50.732 394.494 19.246 393.207 7.247 C 392.724 2.496 391.115 1.933 390.391 1.127 L 428.448 1.127 C 427.644 1.933 426.115 2.496 425.552 7.247 C 424.264 19.246 424.264 50.732 425.552 62.73 C 426.195 67.481 427.644 68.045 428.448 68.85 L 390.391 68.85 C 391.034 68.125 392.644 67.481 393.207 62.73 Z M 432.632 68.447 C 433.356 67.723 434.563 66.676 435.046 62.73 C 435.77 56.771 436.092 45.819 436.092 34.948 C 436.092 24.077 435.77 13.206 435.046 7.247 C 434.563 3.302 433.517 2.174 432.713 1.53 L 432.31 1.127 L 490.966 1.127 L 490.966 16.588 C 484.609 9.502 476.563 7.167 467.391 7.167 C 466.988 10.549 466.747 15.622 466.506 21.178 C 474.632 20.615 480.345 18.682 482.437 16.186 L 482.437 32.774 C 480.345 30.197 474.552 28.184 466.425 27.701 C 466.425 39.941 466.506 55.08 467.391 62.649 C 473.828 62.649 485.655 57.657 490.966 53.228 L 490.966 68.689 L 432.31 68.689 L 432.713 68.286 Z M 499.575 63.052 C 501.023 50.973 501.023 19.246 499.575 7.247 C 499.011 2.416 497.483 1.852 496.678 1.047 L 528.46 1.047 L 557.506 26.976 C 557.506 16.749 550.264 6.201 539.322 1.047 L 567.241 1.047 C 566.517 1.852 564.989 1.933 564.425 6.764 C 562.977 18.843 562.977 50.571 564.425 62.569 C 564.989 67.401 566.437 67.964 567.241 68.769 L 557.667 68.769 L 506.736 22.95 C 506.736 42.035 533.287 62.086 543.264 68.769 L 496.759 68.769 C 497.483 68.045 499.092 67.884 499.655 63.052 Z M 569.575 34.948 C 569.575 15.622 583.011 0 606.506 0 C 628.391 0 638.69 8.616 638.69 19.89 C 638.69 29.312 630.563 33.902 620.667 33.902 C 610.77 33.902 602.724 29.312 602.724 19.89 C 602.724 8.777 612.943 7.972 622.034 7.972 C 618.736 7.006 615.437 6.523 612.299 6.523 C 602.885 6.523 595.241 11.193 595.241 22.547 C 595.241 36.317 609.322 42.196 620.345 42.196 C 627.506 42.196 633.46 39.699 633.46 35.271 C 645.368 35.271 648.103 69.897 607.31 69.897 C 582.529 69.897 569.575 54.194 569.575 34.868 Z" fill="rgb(32,16,82)"></path><path d="M 644.08 68.447 C 644.805 67.723 646.011 66.676 646.494 62.73 C 647.218 56.771 647.54 45.819 647.54 34.948 C 647.54 24.077 647.218 13.206 646.494 7.247 C 646.011 3.302 644.966 2.174 644.161 1.53 L 643.759 1.127 L 702.414 1.127 L 702.414 16.588 C 696.057 9.502 688.011 7.167 678.839 7.167 C 678.437 10.549 678.195 15.622 677.954 21.178 C 686.08 20.615 691.793 18.682 693.885 16.186 L 693.885 32.774 C 691.793 30.197 686 28.184 677.874 27.701 C 677.874 39.941 677.954 55.08 678.839 62.649 C 685.276 62.649 697.103 57.657 702.414 53.228 L 702.414 68.689 L 643.759 68.689 L 644.161 68.286 Z M 178.782 84.875 L 213.138 84.875 C 215.632 95.102 233.575 144.867 241.46 152.517 L 208.632 152.517 L 203.563 140.679 C 204.77 147.283 200.023 152.517 193.023 152.517 L 150.54 152.517 C 158.345 144.867 176.368 95.102 178.862 84.875 Z M 198.092 139.552 C 198.092 135.043 196.805 128.278 194.391 120.226 C 190.448 106.778 187.713 98.001 183.368 98.001 C 180.149 98.001 179.425 101.866 179.425 105.892 C 179.425 110.724 180.471 117.407 182.483 125.138 C 186.184 139.955 190.69 145.592 195.115 145.592 C 197.207 145.592 198.172 143.337 198.172 139.552 Z M 245.161 146.477 C 246.609 134.479 246.529 102.993 245.161 90.995 C 244.598 86.244 243.069 85.68 242.345 84.875 L 280.402 84.875 C 279.598 85.68 278.069 86.244 277.506 90.995 C 276.218 102.993 276.299 134.318 277.586 146.316 C 284.023 146.397 294.966 142.612 299.552 136.975 L 299.552 152.517 L 242.345 152.517 C 242.989 151.792 244.598 151.148 245.161 146.397 Z M 298.747 118.696 C 298.747 99.369 313.713 83.747 339.943 83.747 C 366.172 83.747 381.057 99.45 381.057 118.696 C 381.057 137.942 365.931 153.725 339.943 153.725 C 313.954 153.725 298.747 138.022 298.747 118.696 Z M 347.667 118.776 C 347.667 102.429 347.184 89.626 339.701 89.626 C 332.782 89.626 331.977 102.429 331.977 118.776 C 331.977 135.123 332.782 147.766 339.701 147.766 C 347.184 147.766 347.667 135.204 347.667 118.776 Z M 386.126 146.477 C 387.575 134.479 387.414 102.993 386.126 90.995 C 385.644 86.244 384.034 85.68 383.31 84.875 L 421.368 84.875 C 420.563 85.68 419.034 86.244 418.471 90.995 C 418.069 94.699 417.747 100.336 417.586 106.697 L 427.08 106.697 C 426.92 100.336 426.598 94.779 426.195 90.995 C 425.713 86.244 424.103 85.68 423.379 84.875 L 461.437 84.875 C 460.632 85.68 459.103 86.244 458.54 90.995 C 457.253 102.993 457.253 134.479 458.54 146.477 C 459.184 151.228 460.632 151.792 461.437 152.597 L 423.379 152.597 C 424.023 151.873 425.632 151.228 426.195 146.477 C 427.08 139.311 427.322 125.541 427.161 112.817 L 417.506 112.817 C 417.345 125.541 417.667 139.311 418.471 146.477 C 419.115 151.228 420.563 151.792 421.368 152.597 L 383.31 152.597 C 383.954 151.873 385.563 151.228 386.126 146.477 Z M 490.724 84.875 L 525.08 84.875 C 527.575 95.102 545.517 144.867 553.402 152.517 L 520.575 152.517 L 515.506 140.679 C 516.713 147.283 511.966 152.517 504.966 152.517 L 462.483 152.517 C 470.287 144.867 488.31 95.102 490.805 84.875 Z M 510.034 139.552 C 510.034 135.043 508.747 128.278 506.333 120.226 C 502.391 106.778 499.655 98.001 495.31 98.001 C 492.092 98.001 491.368 101.866 491.368 105.892 C 491.368 110.724 492.414 117.407 494.425 125.138 C 498.126 139.955 502.632 145.592 507.057 145.592 C 509.149 145.592 510.115 143.337 510.115 139.552 Z" fill="rgb(32,16,82)"></path></svg>