<?xml version="1.0" encoding="UTF-8"?>
<svg id="Layer_2" data-name="Layer 2" xmlns="http://www.w3.org/2000/svg" viewBox="0 0 1107.7434082 1107.7323608">
  <defs>
    <style>
      .cls-1 {
        fill: #0a66c2;
      }
    </style>
  </defs>
  <g id="Layer_1-2" data-name="Layer 1">
    <path class="cls-1" d="M797.5320435,0h-487.3204956C138.890564,0,0,138.8903809,0,310.2114868v527.0743408c0,149.3619385,121.0846558,270.4465332,270.4575806,270.4465332h527.0744629c171.3209839,0,310.2113647-138.8903809,310.2113647-310.2114258v-487.3094482C1107.7434082,138.8903809,968.8530273,0,797.5320435,0ZM387.1436157,855.2946167h-125.2789917v-402.6591187h125.2789917v402.6591187ZM324.5322266,397.5783081c-40.1942749,0-72.5973511-32.512207-72.5973511-72.6077881,0-40.0102539,32.4030762-72.5328369,72.5973511-72.5328369,40.0632935,0,72.5297241,32.522583,72.5297241,72.5328369,0,40.0955811-32.4664307,72.6077881-72.5297241,72.6077881ZM855.8086548,855.2946167h-125.008728v-195.7907104c0-46.7078247-.9127808-106.7938843-65.0639038-106.7938843-65.1264038,0-75.0562134,50.866394-75.0562134,103.3982544v199.1863403h-125.0002441v-402.6591187h119.9714966v55.0147095h1.6977539c16.6990356-31.6639404,57.539917-65.0432129,118.4317017-65.0432129,126.612915,0,150.0281372,83.3651123,150.0281372,191.8244019v220.8632202Z"/>
  </g>
</svg>