<svg width="70" height="22" viewBox="0 0 70 22" fill="none" xmlns="http://www.w3.org/2000/svg">
<path opacity="0.8" d="M69.5201 0H62.7454V21.9962H69.5201V0Z" fill="#4424A7"/>
<path opacity="0.8" d="M53.0197 0V7.86997H47.4323V0H43.6338L39.3818 10.7886L43.6338 21.9974H47.4242V12.7777H53.0197V21.9974H59.9345V0H53.0197Z" fill="#4424A7"/>
<path opacity="0.95" d="M40.7689 21.9997H34.0252L30.3221 12.7823L26.3135 21.9974H19.4366L24.8598 10.7886L19.8683 0H26.705L30.3714 8.6378L34.0252 0H40.824L35.8452 10.7886L40.7689 21.9997Z" fill="#231769"/>
<path opacity="0.95" d="M12.6641 0.00012207H16.466L21.7284 10.7888L16.3925 21.6715C16.3925 21.6715 13.9915 21.947 10.1667 21.9803C9.43751 21.9872 9.25264 22.0113 8.41327 21.994C4.32548 21.9125 1.00702 20.9312 0.211279 15.7091C0.107936 15.0308 0.0643024 14.3433 0.0620059 13.6569L0 0.00012207H6.92398L6.93087 13.8257C6.93087 14.2641 6.96991 14.7025 7.06407 15.1318C7.44299 16.8683 8.31452 17.1919 9.81299 17.1782H10.2528C12.2347 17.0944 12.6538 15.2534 12.6526 13.898L12.6641 0.00012207Z" fill="#231769"/>
</svg>
