<svg width="234" height="64" viewBox="0 0 234 64" fill="none" xmlns="http://www.w3.org/2000/svg">
<g clip-path="url(#clip0_81_268)">
<path d="M31.9091 63.8184C14.2862 63.8184 0 49.5323 0 31.9094L0 15.9548C0 7.14332 7.14308 0.000244141 15.9545 0.000244141C24.766 0.000244141 31.9091 7.14334 31.9091 15.9548C31.9091 7.14334 39.0522 0.000244141 47.8636 0.000244141C56.6751 0.000244141 63.8182 7.14332 63.8182 15.9548L63.8182 31.9094C63.8182 49.5323 49.532 63.8184 31.9091 63.8184Z" fill="#FFCC40" style="fill:#FFCC40;fill:color(display-p3 1.0000 0.8000 0.2510);fill-opacity:1;"/>
</g>
<g clip-path="url(#clip1_81_268)">
<path d="M118.376 31.9091L122.946 27.3394C129.2 21.085 129.2 10.945 122.946 4.69063C116.691 -1.56354 106.551 -1.56354 100.297 4.69063L95.7272 9.26054L91.1575 4.69063C84.9031 -1.56354 74.7629 -1.56354 68.5087 4.69063C62.2546 10.945 62.2546 21.085 68.5087 27.3394L73.0787 31.9091L68.5087 36.479C62.2546 42.7332 62.2546 52.8734 68.5087 59.1275C74.7629 65.3817 84.9031 65.3817 91.1575 59.1275L95.7272 54.5579L100.297 59.1275C106.551 65.3817 116.691 65.3817 122.946 59.1275C129.2 52.8734 129.2 42.7332 122.946 36.479L118.376 31.9091Z" fill="#FF9066" style="fill:#FF9066;fill:color(display-p3 1.0000 0.5647 0.4000);fill-opacity:1;"/>
</g>
<g clip-path="url(#clip2_81_268)">
<path d="M175.5 63.8182C166.688 63.8182 159.545 56.6751 159.545 47.8636C159.545 56.6751 152.402 63.8182 143.591 63.8182C134.779 63.8182 127.636 56.6751 127.636 47.8636L127.636 15.9545C127.636 7.14308 134.779 3.2694e-07 143.591 0C152.402 -3.2694e-07 159.545 7.14309 159.545 15.9545C159.545 7.14309 166.688 3.2694e-07 175.5 3.2694e-07C184.311 3.2694e-07 191.454 7.14308 191.454 15.9545V47.8637C191.454 56.6751 184.311 63.8182 175.5 63.8182Z" fill="#08C0D7" style="fill:#08C0D7;fill:color(display-p3 0.0314 0.7529 0.8431);fill-opacity:1;"/>
</g>
<g clip-path="url(#clip3_81_268)">
<path d="M212.727 0L212.727 0C200.978 0 191.454 9.52412 191.454 21.2727V42.5455C191.454 54.2941 200.978 63.8182 212.727 63.8182H212.727C224.476 63.8182 234 54.2941 234 42.5455V21.2727C234 9.52412 224.476 0 212.727 0Z" fill="#4424A7" style="fill:#4424A7;fill:color(display-p3 0.2667 0.1412 0.6549);fill-opacity:1;"/>
</g>
<defs>
<clipPath id="clip0_81_268">
<rect width="63.8182" height="63.8182" fill="white" style="fill:white;fill-opacity:1;" transform="translate(0 0.000244141)"/>
</clipPath>
<clipPath id="clip1_81_268">
<rect width="63.8182" height="63.8182" fill="white" style="fill:white;fill-opacity:1;" transform="translate(63.8181)"/>
</clipPath>
<clipPath id="clip2_81_268">
<rect width="63.8182" height="63.8182" fill="white" style="fill:white;fill-opacity:1;" transform="translate(127.636)"/>
</clipPath>
<clipPath id="clip3_81_268">
<rect width="42.5455" height="63.8182" fill="white" style="fill:white;fill-opacity:1;" transform="translate(191.454)"/>
</clipPath>
</defs>
</svg>
