<?xml version="1.0" encoding="UTF-8"?>
<svg id="svg1291" xmlns="http://www.w3.org/2000/svg" xmlns:svg="http://www.w3.org/2000/svg" xmlns:sodipodi="http://sodipodi.sourceforge.net/DTD/sodipodi-0.dtd" xmlns:rdf="http://www.w3.org/1999/02/22-rdf-syntax-ns#" xmlns:inkscape="http://www.inkscape.org/namespaces/inkscape" xmlns:dc="http://purl.org/dc/elements/1.1/" xmlns:cc="http://creativecommons.org/ns#" version="1.1" viewBox="0 0 1000 250">
  <!-- Generator: Adobe Illustrator 29.8.1, SVG Export Plug-In . SVG Version: 2.1.1 Build 2)  -->
  <defs>
    <style>
      .st0, .st1 {
        fill: #0a66c2;
      }

      .st1 {
        fill-rule: evenodd;
      }
    </style>
  </defs>
  <sodipodi:namedview id="base" bordercolor="#666666" borderopacity="1.0" fit-margin-bottom="0" fit-margin-left="0" fit-margin-right="0" fit-margin-top="0" inkscape:current-layer="layer1" inkscape:cx="996.28572" inkscape:cy="-674.20459" inkscape:document-units="px" inkscape:pageopacity="0.0" inkscape:pageshadow="2" inkscape:window-height="1017" inkscape:window-maximized="1" inkscape:window-width="1920" inkscape:window-x="1912" inkscape:window-y="-6" inkscape:zoom="0.35" pagecolor="#ffffff" showgrid="false" units="px"/>
  <g id="layer1" inkscape:groupmode="layer" inkscape:label="Layer 1">
    <g id="g1917">
      <g id="g1915">
        <g id="g1913">
          <g id="g1905">
            <path id="path1903" class="st1" d="M981.9,0h-213C758.7,0,750,8.1,750,18v214c0,9.9,5.7,18,15.9,18h213c10.2,0,21.1-8.1,21.1-18V18C1000,8.1,992.1,0,981.9,0ZM845.2,95.2h33.7v17.2h.4c5.1-9.3,20.3-18.6,39-18.6,36,0,46,19.1,46,54.5v66.1h-35.7v-59.6c0-15.8-6.3-29.7-21.1-29.7s-26.5,12.2-26.5,32.1v57.2h-35.7v-119ZM785.7,214.3h35.7v-119h-35.7v119ZM825.9,53.6c0,12.3-10,22.3-22.3,22.3-12.3,0-22.3-10-22.3-22.3,0-12.3,10-22.3,22.3-22.3s22.3,10,22.3,22.3Z" inkscape:connector-curvature="0"/>
          </g>
          <g id="g1911">
            <path id="path1907" class="st0" d="M714.3,214.3h-33.3v-14.2h-.4c-7.4,8.6-20.3,15.7-42.1,15.7s-55.4-22.4-55.4-60.9,25.3-61.1,56.5-61.1,31.4,6.9,38.6,15.7h.4V35.7h35.7v178.6ZM648.6,120.5c-20.4,0-31.9,14.6-31.9,33.9s11.5,34.5,31.9,34.5,32.4-14.8,32.4-34.5-12-33.9-32.4-33.9ZM567.4,195.1c-8.4,10.9-25.8,20.7-53.8,20.7s-61.2-24.8-61.2-63.7,21.6-58.4,62.2-58.4,56.8,23.1,56.8,63.7-.7,8.1-.7,8.1h-84.7l.2,3.7c2.3,10.3,10.1,22.8,27.9,22.8s26.2-8.3,31-14.9l22.3,18h0ZM537.1,142.8c.2-12.5-9-25.3-23.5-25.3s-26.5,13.5-27.5,25.3h51,0Z" inkscape:connector-curvature="0"/>
            <path id="path1909" class="st0" d="M452.4,95.2h-41.7l-41.7,47.6V35.7h-35.7v178.6h35.7v-59.5l44,59.5h42.2l-50.5-65.1,47.6-54ZM190.5,95.2h33.7v17.2h.4c5.1-9.3,20.3-18.6,39-18.6,36,0,46,22.8,46,54.5v66.1h-35.7v-59.6c0-17.5-6.3-29.7-21.1-29.7s-26.5,14.2-26.5,32.1v57.2h-35.7v-119ZM131,214.3h35.7v-119h-35.7v119ZM148.8,75c11.8.3,21.6-9.1,21.9-20.9.3-11.8-9.1-21.6-20.9-21.9-.3,0-.7,0-1,0-11.8.3-21.2,10.1-20.9,21.9.3,11.4,9.5,20.6,20.9,20.9ZM35.7,35.7H0v178.6h107.1v-35.7H35.7V35.7Z" inkscape:connector-curvature="0"/>
          </g>
        </g>
      </g>
    </g>
  </g>
</svg>