<svg width="117" height="30" viewBox="0 0 117 30" fill="none" xmlns="http://www.w3.org/2000/svg">
<path d="M26.3938 2.68543V29.5396H20.9079V10.2813L13.427 21.5985H12.9282L5.48588 10.2813V29.5396H0V2.68543H6.29149L13.1968 13.0052L20.0639 2.68543H26.3938ZM48.8726 8.43991L48.8344 29.5396H43.3483V26.7008C41.8907 28.6956 39.7039 30 36.75 30C31.2258 30 27.1209 25.4731 27.1209 18.9898C27.1209 12.468 31.3024 7.97951 36.7116 7.97951C39.7039 7.97951 41.9289 9.36072 43.3867 11.3939V8.43991H48.8726ZM43.3867 18.9898C43.3867 15.537 41.0467 13.197 37.9776 13.197C34.9086 13.197 32.6452 15.537 32.6452 18.9898C32.6452 22.4807 34.947 24.7825 37.9776 24.7825C41.0467 24.7825 43.3867 22.4807 43.3867 18.9898ZM69.8558 16.3044V29.5396H64.3699V17.4936C64.3699 14.7314 63.3341 13.197 60.4185 13.197C57.311 13.197 55.6614 15 55.6614 18.4526V29.5396H50.1755V8.43991H55.6614V11.3171C57.196 9.16891 59.306 7.97951 62.2215 7.97951C66.9785 7.97951 69.8558 11.1253 69.8558 16.3044ZM88.1534 28.312C87.0025 29.0792 84.3941 30 81.862 30C77.642 30 73.9591 27.468 73.9591 21.4067V13.619H70.1997V8.43991H73.9591V3.87465L79.445 2.68543V8.43991H87.2711V13.619H79.445V21.0997C79.445 23.5933 80.6344 24.8977 82.8211 24.8977C84.0487 24.8977 85.5063 24.4757 87.2329 23.8619L88.1534 28.312ZM88.8809 0H94.3667V29.5396H88.8809V0ZM116.962 20.4093H100.773C101.118 23.7851 103.42 25.4731 106.259 25.4731C108.369 25.4731 110.21 24.5141 110.939 22.8261H116.617C115.044 27.8132 110.824 30 106.297 30C99.6986 30 95.1718 25.3197 95.1718 19.0281C95.1718 12.6982 99.7369 7.97951 106.182 7.97951C113.164 7.97951 117.499 13.4656 116.962 20.4093ZM101.041 16.381H111.131C110.517 14.0794 108.791 12.5064 106.144 12.5064C103.458 12.5064 101.732 14.1176 101.041 16.381Z" fill="black" style="fill:black;fill-opacity:1;"/>
</svg>
