<svg width="134" height="88" viewBox="0 0 134 88" fill="none" xmlns="http://www.w3.org/2000/svg">
<path d="M16.0568 36.824C15.8188 34.5822 14.1722 18.9693 14.1722 18.9693C14.0531 18.1956 14.2515 17.4418 14.7475 16.8268C15.2236 16.2118 15.9378 15.815 16.7313 15.7357C16.7313 15.7357 43.2753 12.7202 49.326 11.887C51.5281 11.5894 56.448 8.29622 53.2342 2.56289C51.9447 0.281463 48.9292 -0.234343 46.628 0.102911C44.3267 0.420327 4.57034 5.16173 4.57034 5.16173C3.30068 5.32044 1.51521 6.27269 0.72167 7.76057C0.126515 8.87153 -0.151222 10.3991 0.106678 11.6092C0.106678 11.6092 5.72097 36.4867 6.25661 38.3515C6.77241 40.2164 8.97449 42.8946 12.109 42.0812C15.2038 41.248 16.2949 39.0657 16.0568 36.824Z" fill="#6987F7" style="fill:#6987F7;fill:color(display-p3 0.4118 0.5294 0.9686);fill-opacity:1;"/>
<path d="M66.9389 11.5495L88.6621 40.7121C90.3483 42.9737 93.5622 43.3308 95.6849 41.4858C95.6849 41.4858 129.946 11.4305 131.593 9.60533C133.08 7.97858 134.568 5.71699 132.684 2.62218C131.235 0.261399 128.696 -1.10746 125.066 1.15413L97.0141 20.1991C95.3476 21.2307 92.7488 20.8736 91.0427 19.4651L73.6443 4.50684C72.5532 3.7133 71.1843 3.41572 69.875 3.67362C66.3437 4.36796 64.7765 8.61341 66.9389 11.5495Z" fill="#F2A73B" style="fill:#F2A73B;fill:color(display-p3 0.9490 0.6549 0.2314);fill-opacity:1;"/>
<path d="M34.1059 45.0169C30.2771 46.7825 2.12623 59.9156 2.12623 59.9156C-0.353581 61.0662 -0.75035 63.1294 1.39221 64.3594C1.39221 64.3594 41.0295 86.9158 43.4498 87.3324C47.5762 88.0466 49.7783 83.0869 46.6637 80.25L27.4402 64.3594C26.2498 63.3675 26.3689 62.0185 27.5393 61.0464C27.5393 61.0464 39.621 51.385 39.7003 51.3255C40.851 50.4328 42.2595 47.9133 40.97 45.9691C39.6607 44.0249 37.9347 43.2512 34.1059 45.0169Z" fill="#EC5E61" style="fill:#EC5E61;fill:color(display-p3 0.9255 0.3686 0.3804);fill-opacity:1;"/>
<path d="M74.1826 48.3302C69.2825 54.2818 57.7365 68.7043 52.9951 74.6162C51.8048 76.1041 51.5469 78.4054 51.9833 79.4766C52.3999 80.5479 53.134 81.9961 54.2052 84.1387C55.3559 86.4201 57.8952 86.5788 59.3632 84.5751L72.417 66.8197C73.7263 65.0342 75.8292 65.0739 77.0989 66.899L90.7279 86.4796C91.9777 88.2651 94.2195 88.2849 95.5487 86.5987L109.098 69.2201C110.447 67.4942 112.59 67.6331 113.8 69.5376L126.14 86.4201C128.123 89.0586 130.623 88.0865 131.694 85.7456L133.46 82.0557C134.154 80.3694 133.976 78.2665 133.024 76.8183L115.744 50.9687C114.594 49.2428 112.491 48.8658 111.142 50.2942L96.9175 66.165C95.6478 67.4942 93.2276 67.2561 92.0571 65.7881L78.5669 48.3897C77.3369 46.8225 75.4523 46.8026 74.1826 48.3302Z" fill="#639B9A" style="fill:#639B9A;fill:color(display-p3 0.3882 0.6078 0.6039);fill-opacity:1;"/>
</svg>
