<?xml version="1.0" encoding="UTF-8"?>
<svg id="Layer_2" data-name="Layer 2" xmlns="http://www.w3.org/2000/svg" viewBox="0 0 216.9799957 43.1504162">
  <defs>
    <style>
      .cls-1 {
        fill: #fff;
      }
    </style>
  </defs>
  <g id="Layer_1-2" data-name="Layer 1">
    <g id="Layer_2-2" data-name="Layer 2">
      <g id="uuid-9c39df69-8a4d-46b8-8b2b-477f072a0e1a" data-name="Layer 1-2">
        <g>
          <path class="cls-1" d="M25.7899933,11.4700012c-1.4299927-1.8499985-4.2899933-2.6800003-6.4800034-2.6800003-2.5199966,0-6,1.1100006-6,4.1800003,0,7.3899994,18.7000046,2.6199989,18.7000046,16.8399963,0,9-7.2599945,13.3899994-15.6699982,13.3399963-6.3233109-.1492844-12.2764587-3.0129166-16.3399963-7.8600006l5.7900009-7c.726532.8692245,1.5045929,1.694046,2.3300018,2.4700012,2.8799973,2.6600037,5.7699966,4.0899963,8.7300034,4.0899963s6.2100067-1.3499985,6.2100067-4.2399979c0-7.4500008-19-3.4300003-19-17C4.0600128,4.9699936,11.570015.4199944,19.530014.4199944c4.5301056-.1626129,8.9605255,1.3545532,12.4400024,4.2599983l-6.1800232,6.7900085Z"/>
          <path class="cls-1" d="M35.3300018,1.5499992h29.1999969l-6.4400024,8.2700005h-13.8099976v7.5400009h17.5800018v8.25h-17.5800018v8.2700043h19.6600037v8.2399979h-18.9199982c-1.8935852-.4651871-3.6976929-1.2388611-5.3399963-2.2900009-3.5500031-2.1900024-4.3500061-3.6500015-4.3500061-3.6500015V1.5499992Z"/>
          <path class="cls-1" d="M67.8500061,1.5600014h15.6800079c8.3300018,0,15.3200073,2.8499985,15.3200073,12.2900009,0,5.7099991-3,10.1199989-8.7700043,11.1599998l10.3399963,17.1100006h-10.7500153l-8.4799957-16.2099991h-4.3899994v16.2099991h-8.9499969V1.5600014ZM76.8000031,18.340004h5.2599945c3.2599945,0,7.5099945-.1100006,7.5099945-4.5200005,0-4.0900002-3.6699982-4.6899986-7-4.6899986h-5.8200073l.0500183,9.2099991Z"/>
          <polygon class="cls-1" points="98.5400009 1.5600293 108.75 1.5600293 118.7600021 28.1400299 118.9000015 28.1400299 129.090004 1.5600293 138.6500015 1.5600293 121.9200058 42.1300278 114.75 42.1300278 98.5400009 1.5600293"/>
          <path class="cls-1" d="M194.8600006,0c12.7999878,0,22.1199951,8.4000015,22.1199951,21.5200005s-9.3200073,21.5300026-22.1199951,21.5300026-22.1199951-8.3799973-22.1199951-21.5299988S182.0800018,0,194.8600006,0M194.8600006,34.7200012c7.7000122,0,12.7200012-5.5500031,12.7200012-13.2000008s-5-13.1899986-12.7200012-13.1899986-12.7200012,5.5400009-12.7200012,13.1899986,5,13.2000008,12.7200012,13.2000008"/>
          <path class="cls-1" d="M176.5500031,32.1600037c-3.7712097,6.7143173-10.8591614,10.8846054-18.5599976,10.9199982-12.7799988,0-22.1000061-8.3799973-22.1000061-21.5299988S145.3399963,0,157.9900055,0c6.2999878,0,11.7000122,2.1399994,14.9400024,5l-7,5.8699989c-2.3262024-1.8223419-5.2279053-2.7517433-8.1799927-2.6199989-7.3500061,0-12.4900055,5.8400002-12.4900055,13.2200012,0,7.1399994,4.8100128,13.1699982,12.3100128,13.1699982,10.7200012,0,11.519989-9.9000015,9.8399963-13l9.1399841,10.5200043Z"/>
        </g>
      </g>
    </g>
  </g>
</svg>