<svg id="Layer_1" xmlns="http://www.w3.org/2000/svg" viewBox="0 0 1000 300"><defs><style type="text/css">.cls-1{fill:#ff8a3d;}</style></defs><title>Logo-RGB</title><path class="cls-1" d="M367.11,53H312.55a21.51,21.51,0,0,0-21.5,21.5V228.28a21.51,21.51,0,1,0,43,0V96h33.05a25.84,25.84,0,1,1,0,51.67,21.5,21.5,0,0,0,0,43,68.84,68.84,0,0,0,0-137.68Z"/><path class="cls-1" d="M529,53H474.4a21.5,21.5,0,0,0-21.5,21.5V228.28a21.5,21.5,0,1,0,43,0V96H529a25.84,25.84,0,1,1,0,51.67,21.5,21.5,0,0,0,0,43A68.84,68.84,0,0,0,529,53Z"/><path class="cls-1" d="M171.56,206.78h-61L187.79,86.1A21.5,21.5,0,0,0,169.69,53H69.35a21.51,21.51,0,1,0,0,43h61L53.11,216.69a21.5,21.5,0,0,0,18.11,33.1H171.56a21.51,21.51,0,0,0,0-43Z"/><path class="cls-1" d="M234,53a21.5,21.5,0,0,0-21.5,21.5V228.28a21.5,21.5,0,1,0,43,0V74.5A21.51,21.51,0,0,0,234,53Z"/><path class="cls-1" d="M747.13,55.27A22.44,22.44,0,0,0,716.34,63L679.4,124.48,642.27,62.92a22.44,22.44,0,0,0-38.43,23.17L657,174.2v54.08a22.44,22.44,0,1,0,44.87,0v-54l52.95-88.18A22.44,22.44,0,0,0,747.13,55.27Z"/><path class="cls-1" d="M808.7,55.78a21.52,21.52,0,0,0-29.3,8.15L769.18,82a21.5,21.5,0,1,0,37.44,21.16l10.22-18.09A21.51,21.51,0,0,0,808.7,55.78Z"/><path class="cls-1" d="M925.58,152.48l-52-38.31a9.54,9.54,0,0,1,5.66-17.23H923a22.44,22.44,0,0,0,0-44.87H879.22a53.64,53.64,0,0,0-51.7,37.43A53.64,53.64,0,0,0,847,150.31l52,38.3a9.55,9.55,0,0,1-5.66,17.24H845.84a22.44,22.44,0,1,0,0,44.87h47.48a54.42,54.42,0,0,0,32.26-98.24Z"/></svg>